<?xml version="1.0" encoding="utf-8"?>
<!-- Generator: Adobe Illustrator 22.0.1, SVG Export Plug-In . SVG Version: 6.00 Build 0)  -->
<svg version="1.1" id="Layer_1" xmlns="http://www.w3.org/2000/svg" xmlns:xlink="http://www.w3.org/1999/xlink" x="0px" y="0px"
	 viewBox="0 0 100 100" style="enable-background:new 0 0 100 100;" xml:space="preserve">
<style type="text/css">
	.st0{fill:#D39F88;}
	.st1{fill:#DBAD95;}
	.st2{fill:#38936E;}
	.st3{fill:#AD5544;}
	.st4{fill:#F9EDAA;}
	.st5{fill:#BC624A;}
	.st6{fill:#1F3972;}
	.st7{fill:#FFFFFF;}
	.st8{fill:#7C4E45;}
	.st9{fill:#262030;}
	.st10{fill:#3C3449;}
	.st11{fill:none;}
</style>
<g>
	<path class="st0" d="M31.1,51.3c0.1,0.8-1.7,3.6-2.2,4.8c-1.1,2.6-0.2-1.6-0.5-1.2c-3.4,4-2,0.9-1.3-0.7c0.2-0.5-1.9,1.2-2.3,0.6
		C24.5,54.1,30.6,48.4,31.1,51.3z"/>
	<path class="st1" d="M29.3,52.3c-0.3,0.3-4.2,2-4.7,1.8c-0.6-0.3,3.4-2.8,4.6-3.6c2.2-1.4,4.8-5.1,5.7-3.7
		C36.3,47.8,31.2,52.2,29.3,52.3z"/>
	<path class="st1" d="M54,80.2c0.1,1,0.4,2.5,1.2,2.2s1.2,0,1.2-0.4c0.1-0.5-0.2-1.6-0.3-2.2C55.6,80.2,54.6,80.3,54,80.2z"/>
	<path class="st1" d="M46.6,79.3c1.1,5-2,6-2.1,0C45.2,79.8,46,79.9,46.6,79.3z"/>
	<g>
		<path class="st2" d="M56.2,80.2c-3.3,4.8-5.6-11.6-6-15.5c-0.3-2.3-1.1-13.1-0.3-14.8l4.5-0.5c-0.1,4.1-0.5,11.5-0.2,15.6
			C54.4,70,55.5,75.2,56.2,80.2z"/>
	</g>
	<g>
		<path class="st2" d="M49.2,49.1c-0.8,4.7-1.9,9.5-2.3,14.3c-0.4,4.8,0.9,11.9,0,16.6c0,0-1.9,0.3-2.2-0.2
			c-1.2-2.7-1.3-8.7-1.5-11.5c-0.4-4.6,0.3-19.7,1.4-20.6L49.2,49.1z"/>
	</g>
	<g>
		<path class="st3" d="M46.6,29.9c-1.2,1.5,1.6,8.2,2.9,6.2c0.9-1.3,4.9-4.7,3.9-6.3C52.4,28.3,47.6,28.6,46.6,29.9z"/>
	</g>
	<path class="st0" d="M51,27.2c0,1,0.7,4.5-1.6,3.7c-0.9-0.3-0.7-1-0.8-2.2C48.5,27.2,49.9,27.2,51,27.2z"/>
	<g>
		<path class="st4" d="M52.8,50.9c-1.8-0.6-7.8,0.2-9-1.1c-0.4-0.4,4.4-19.5,4.8-19.6c0.4-0.1,0.8,0.8,2.4,0.2
			C49.9,37.1,51.9,44.1,52.8,50.9z"/>
	</g>
	<g>
		<path class="st5" d="M68.4,47.8c-1.3,4.5-7.5-6-8.2-6.8c0,0-2-1.4-4-3.3c0,0.1,0.4,7.4,1.6,10.8c0.6,1.8-2.7,2.4-4.5,2.7
			c-2.6,0.5-3.3-10.4-3.2-13.8c0-1.4-0.1-4.7,0.3-6.2c0.6-2.1,2.6-0.6,2.9-0.5C56,32.3,63.5,38,63.6,38C64.7,39.7,69,45.7,68.4,47.8
			z"/>
	</g>
	<g>
		<path class="st6" d="M36.5,85.2c0.6,2.4,4.6,0.9,6.2,0.5c1.4-0.3,4.9,0.1,4.2-2.1C45.5,83.7,36.5,83.6,36.5,85.2z"/>
	</g>
	<g>
		<g>
			<path class="st5" d="M48.7,30.1C48.6,30.7,44,50.5,44,50.5h-1.6c-0.2,0-0.4-0.2-0.3-0.4c0.3-1.8,0.3-4.8,0.5-8
				c-3.6,3.6-7.6,7-8.3,7.5c-0.8,0.5-3.2-0.5-2.3-2c0.7-1.3,2.5-2.7,3.5-3.8c0.5-0.6,7.1-9.3,8.3-10.8C45.4,31,47.5,30.1,48.7,30.1z
				"/>
		</g>
	</g>
	<g>
		<path class="st5" d="M46.9,83.7c-0.5,1-8.2,2.8-9.4,1.3c-1.6-2.1,2.1-2.6,5.3-3c0.8-0.6,0-2.8,1.5-2c0.9,0.5,0.8,1.2,0.5,1.8
			c1.3-0.1,2.2-0.3,2.2-0.5C46.9,81.9,47.2,83.2,46.9,83.7z"/>
	</g>
	<path class="st7" d="M36.5,84.7c0.2-1.9,2.7-2,3.4-0.3C40.6,86.5,37.3,85.6,36.5,84.7z"/>
	<g>
		<path class="st6" d="M58.4,88.5c-0.1,1.9-2.5,3.1-3.8,1.5c-0.6-0.7-0.8-5.7-0.2-6.3C57.2,80.4,58.5,86.6,58.4,88.5z"/>
	</g>
	<g>
		<path class="st5" d="M58.3,87.9c-0.1,1.9-2.9,2.8-4,1.3c-0.4-0.6-0.5-6.5,0-7.2c0.2-0.3,1.6-1.2,2.2-0.9
			C57.2,81.6,58.4,86.9,58.3,87.9z"/>
	</g>
	<path class="st7" d="M58.3,87.9c-0.1,1.8-3.4,3-4.1,1.2C53.3,86.6,57.1,86.1,58.3,87.9z"/>
	<path class="st1" d="M67.8,46.7C67.3,46,66.1,47,66.2,48c0.1,0.5,1.5,3.9,2.2,3.8C71.1,51.8,68.3,47.4,67.8,46.7z"/>
	<g>
		<path class="st5" d="M66.4,53.6c-0.6,1.3-2.8,4.2-2.5,5.5c0.9,3.6,7.1,3.2,9.2,1.6C78.7,56.6,70.9,51.5,66.4,53.6z"/>
		<g>
			<path class="st8" d="M68,49.8c-1.4,0.8-7.4,7.6-4.4,9.4c1.6,0.9,1.6-3.6,2.9-3.5c1.1,0.1,1.1,5,1.4,5.7c1.6,4.1,2.5-2.2,2.1-2.5
				c0.9,0.6-0.3,3.3,0.7,3.7c2.1,1,1.4-4.5,1.4-4.5c0.5-0.2,0.4,3.1,0.9,3.2c2.1,0.3,0.2-3.6,0.7-4.3c-0.8,1.2,2,6,1.9,0.8
				C75.5,55,72,47.5,68,49.8z"/>
		</g>
		<path class="st9" d="M68.9,51.7c-2.8,1,1.2,3.9,3.1,1.3C73.5,50.9,70.3,51,68.9,51.7z"/>
	</g>
	<g>
		<path class="st10" d="M42.9,15c-3.3-0.8-1.5,5.4-0.9,6.7C42.3,19.5,42.6,17.3,42.9,15z"/>
	</g>
	<path class="st0" d="M42,21c-2.6-2.4-4.7,1.4-2.2,2.6C42.5,25,42.3,22.5,42,21z"/>
	<path class="st1" d="M56.9,22.3c-0.3,4.6-4.7,6.3-8.9,6.3c-5.2-0.1-6.3-2.5-6.3-7.2c0-6.7,2.2-9,8.9-8.2c2.6,0.3,6.1,3.1,6.4,4
		C57.5,18.6,57,20.7,56.9,22.3z"/>
	<g>
		<path class="st10" d="M49.9,21.9c0.2,0.6,0.5,0.6,0.8,0.1C50.5,21.4,50.2,21.3,49.9,21.9z"/>
	</g>
	<g>
		<path class="st10" d="M42.9,21.7c0.2,0.6,0.5,0.6,0.8,0.1C43.5,21.2,43.2,21.2,42.9,21.7z"/>
	</g>
	<g>
		<path class="st10" d="M57.4,21.4c-0.4,0-1.3,0.1-1.7,0c-2.7-1.1-5.2-7.6-0.9-5.9c-2.8-2.3-8,0.4-11.3,0.2
			c-5.2-0.3-5.2-6.8,0.1-4.2c0.1,0-1.8-4.4,4.3,0.1l0,0c1.7-0.4,3.4-0.4,5,0.5c1.4,0.7,3.8,2.9,4.1,3.2
			C58.9,17.4,57.8,19.2,57.4,21.4z"/>
	</g>
	<path class="st0" d="M58.7,25.1c-1.5,0.6-3.6,0-3.5-1.1c0-0.3,0.5-1.9,0.5-1.9c0.2-1.2,0.9-2.8,3.1-1.9
		C60.9,21.1,60.9,24.3,58.7,25.1z"/>
	<g>
		<g>
			<g>
				<path class="st8" d="M48.7,23.7c-0.5,1.5-2.8,1.5-3.5,0.1C46.4,23.4,47.5,23.5,48.7,23.7z"/>
			</g>
		</g>
		<path class="st7" d="M48.6,23.7c-0.8,0.5-2.4,0.8-3.2,0C46.6,23.5,47.5,23.5,48.6,23.7z"/>
	</g>
	<path class="st10" d="M42.3,18.1c0.1-0.1,2.4-1.4,2.3-0.3C44.5,18.4,42,18.5,42.3,18.1z"/>
	<path class="st10" d="M51,17.8c-0.1-0.1-2.4-1.4-2.3-0.3C48.8,18.1,51.3,18.2,51,17.8z"/>
</g>
<rect x="10" y="10" class="st11" width="80" height="80"/>
</svg>
