<?xml version="1.0" encoding="utf-8"?>
<!-- Generator: Adobe Illustrator 22.0.1, SVG Export Plug-In . SVG Version: 6.00 Build 0)  -->
<svg version="1.1" id="Layer_1" xmlns="http://www.w3.org/2000/svg" xmlns:xlink="http://www.w3.org/1999/xlink" x="0px" y="0px"
	 viewBox="0 0 100 100" style="enable-background:new 0 0 100 100;" xml:space="preserve">
<style type="text/css">
	.st0{fill:#1B2435;}
	.st1{fill:#FFFFFF;}
	.st2{fill:none;}
	.st3{fill:#79CFE2;}
	.st4{opacity:0.7;fill:#C5F3FF;}
	.st5{fill:none;stroke:#79CFE2;stroke-width:0.5274;stroke-linecap:round;stroke-linejoin:round;stroke-miterlimit:10;}
	.st6{fill:none;stroke:#79CFE2;stroke-width:0.3767;stroke-linecap:round;stroke-linejoin:round;stroke-miterlimit:10;}
	.st7{fill:#2F5A89;}
</style>
<path class="st0" d="M77.8,52.9c0,0,28.2,44.3-43.4,38.5c-19.3-1.6-24.3-6.8-24.3-9.6c0-3.8,4.9-4.2,7.2-4.3
	c7.2-0.5-10.5-13.9,2.1-32.1c6.8-9.8,4.7-34.9,37.2-35.4C93.1,9.4,77.7,52.5,77.8,52.9z"/>
<path class="st1" d="M72.9,43c-0.9-4.1-6.1-0.9-8-1c-3.4-0.3-4-3.5-6.5-6.9c2.3-0.1,9.6-1.8,11.2-3.6c2.5-2.9,0.4-3.6-0.7-5.4
	c-2.3-2.8-9.8-6.8-14.1-5.5c-18.3,5.9-22,31.3-19.1,47.5c-0.2-0.1,1.8,12.1-13.3,13.1c-11.5,0.8,2.7,5.1,7,5.3
	c3.9,0.2,7.5-1.8,11.2-1.9c2.2-0.1,5,1.8,7.3,1.7c3.1-0.1,6.3-0.1,9.4-0.4c3.1-0.3,6.7-2.9,1.1-3.3c2.4-1.7,2.9-3.8,3.8-6.4
	c0.5-1.4,3.3-9,3.7-12c0.4-2.9,0.2-5.8-0.4-8.6c-0.7-3.9-0.9-3.3,1.1-5.9C67.7,48,73.3,45,72.9,43z"/>
<rect x="10" y="10" class="st2" width="80" height="80"/>
<path class="st3" d="M31.2,78.4c2.1,2.8-1.3,5.1-3,2.3C26.9,78.6,29.7,76.4,31.2,78.4z"/>
<path class="st3" d="M26.7,80.2c0.7,3-3,3.6-3.3,0.7C23.2,78.8,26.2,78,26.7,80.2z"/>
<path class="st3" d="M22,80.3c0.6,2.6-2.6,3-2.8,0.6C19.1,79.1,21.6,78.5,22,80.3z"/>
<path class="st3" d="M33.6,72.9c4.3,1.6,2.2,6.7-1.9,4.7C28.8,76.2,30.5,71.8,33.6,72.9z"/>
<path class="st3" d="M41.1,28.9c4.1,3,0.5,7.8-3.4,4.5C35,31,38.1,26.7,41.1,28.9z"/>
<path class="st3" d="M37,35.1c1.9,0.9,3.9,2.7,2.8,5c-1.1,2.3-3.9,2-5.8,1C30.3,39,33.1,33.3,37,35.1z"/>
<path class="st3" d="M33.2,64.1c2.8-0.1,6.2,0.9,5.9,4.3c-0.2,2.8-3.3,3.9-5.7,3.8C28.2,72.1,28,64.4,33.2,64.1z"/>
<path class="st3" d="M32.9,43.4c2.8,0.4,5.9,1.8,5.4,5.1c-0.4,3.2-3.9,4-6.7,3.4C26.2,50.8,27.3,42.6,32.9,43.4z"/>
<path class="st3" d="M47.4,23.5c3.1,3.4-0.9,7.1-3.8,3.5C41.5,24.4,45.1,21,47.4,23.5z"/>
<path class="st3" d="M32.8,53.7c2.7,0.1,5.9,1.1,5.9,4.3c-0.1,3.2-3.4,4.3-6.1,4.1C27.1,61.6,27.3,53.5,32.8,53.7z"/>
<path class="st3" d="M55.8,19c0.8,2.5-2.4,3.2-2.7,0.8C52.9,18.1,55.3,17.2,55.8,19z"/>
<path class="st3" d="M52.1,20.2c1.8,2.9-1.7,5-3.2,2C47.8,20.1,50.7,18,52.1,20.2z"/>
<ellipse class="st4" cx="69.2" cy="43.4" rx="2.3" ry="1.5"/>
<path class="st4" d="M57.7,77.5c-4.9-2.6-3.1-19.1-3-20.5c0.1,1,0.5,3.8,2.5,3.7c1.8-0.1,2.2-3,1.9-6.2c0,0,0,0,0,0
	c-0.1-1.4-1.4-5.9-2-6.8c1.2-2.2,3-3.2,5.3-2.3c1.3,3,2.8,7.3,3.4,11.5C67.2,66.9,61.2,81.3,57.7,77.5z"/>
<path class="st5" d="M60.9,42.6c0,0,2.6,3.4,4,9.8"/>
<path class="st3" d="M57.6,62c-3.5,1.6-4-2.4-4.5-2.3c-5.7,1.3-11-5.3-10.7-10c0.5,4,4.7,7,12.2,6.9c0,0,0.5,4.2,2.6,4.1
	c1.8-0.1,2.2-3,1.9-6.2C59.9,57.2,59.4,61.2,57.6,62z"/>
<line class="st5" x1="56.5" y1="60.4" x2="56.7" y2="58.3"/>
<line class="st5" x1="57.6" y1="60.5" x2="57.8" y2="58.4"/>
<path class="st5" d="M49.1,42.4c0,0,8.2,2.4,9.6,9"/>
<path class="st6" d="M63.2,31.4c0,0,0.8,1.1,2.4,1.1"/>
<path class="st4" d="M61.1,29.2c3.6,0.5,0.9,3.4-1.4,4.2c-5.9,2.1-5.8-2-5.1-3.8C55.9,25.8,59.2,29,61.1,29.2z"/>
<path class="st7" d="M63.2,27c-0.6,0.7-1.3,0.8-2,0.4C61.1,26.1,63.4,24.9,63.2,27z"/>
<path class="st7" d="M67.4,24.7c-0.3,0.5-0.7,0.6-1.2,0.4C66.1,24.7,67,23.5,67.4,24.7z"/>
<path class="st3" d="M68.4,26.8c0,0,2-1,1.9,0.1c-0.1,1.1-0.8,1.6-0.8,1.6S68,28.3,68.4,26.8z"/>
</svg>
