<?xml version="1.0" encoding="utf-8"?>
<!-- Generator: Adobe Illustrator 22.0.1, SVG Export Plug-In . SVG Version: 6.00 Build 0)  -->
<svg version="1.1" id="Layer_1" xmlns="http://www.w3.org/2000/svg" xmlns:xlink="http://www.w3.org/1999/xlink" x="0px" y="0px"
	 viewBox="0 0 100 100" style="enable-background:new 0 0 100 100;" xml:space="preserve">
<style type="text/css">
	.st0{fill:none;}
	.st1{fill:#F9DD50;}
	.st2{fill:#937BC6;}
	.st3{fill:#FFFFFF;}
	.st4{fill:#1B2244;}
	.st5{fill:#1B2435;}
	.st6{fill:#FF855F;}
	.st7{fill:none;stroke:#CCCCCC;stroke-width:1.3216;stroke-linecap:round;stroke-miterlimit:10;}
	.st8{fill:#AD5544;}
	.st9{fill:#F9EDAA;}
	.st10{fill:#BC624A;}
	.st11{fill:#DBAD95;}
	.st12{fill:#342947;}
	.st13{fill:none;stroke:#7C4E45;stroke-width:0.3672;stroke-linecap:round;stroke-linejoin:round;stroke-miterlimit:10;}
	.st14{fill:#3C3449;}
	.st15{fill:#D39475;}
</style>
<rect x="10" y="10" class="st0" width="80" height="80"/>
<g>
	<path class="st1" d="M38.6,60.8c-3.9-0.9-5.6,6.4-1.7,7.4C40.8,69,42.6,61.7,38.6,60.8z M37.5,65.7c-1-0.2-0.4-2.8,0.6-2.5
		C39.1,63.4,38.5,65.9,37.5,65.7z"/>
	<g>
		<path class="st2" d="M25.1,37.3c-2.7,1.4-7.4,11-7.4,12.8c0,1.3,4.4,11.1,7.2,12.8c0.6,0.4,13.8,0.3,14.5-0.1
			c2.3-1.4,7.1-10.7,7.1-12.8c0-1.3-3.9-10.1-6.1-12.1C39.5,37.2,25.7,37,25.1,37.3z"/>
	</g>
	<path class="st1" d="M26.9,60.7c-4-0.9-5.6,6.5-1.6,7.4C29.3,69,30.9,61.6,26.9,60.7z M25.9,65.7c-1-0.2-0.5-2.8,0.6-2.5
		C27.4,63.4,26.9,65.9,25.9,65.7z"/>
	<path class="st3" d="M31.7,48c0,4.2-7.8,2.8-5.6-1.3C27.3,44.4,31.7,45.3,31.7,48z"/>
	<path class="st4" d="M31.7,48c0,1.5-1.5,2.5-2.8,2.6C25.7,44.6,31.7,44.4,31.7,48z"/>
	<path class="st3" d="M44.2,48.4c0,4.2-7.8,2.8-5.6-1.3C39.8,44.7,44.2,45.7,44.2,48.4z"/>
	<path class="st4" d="M44.2,48.4c0,1.5-1.5,2.5-2.8,2.6C38.2,45,44.2,44.7,44.2,48.4z"/>
	<path class="st3" d="M38,45c0,4.2-7.8,2.8-5.6-1.3C33.6,41.4,38,42.4,38,45z"/>
	<path class="st4" d="M38,45c0,1.5-1.5,2.5-2.8,2.6C32,41.7,38,41.4,38,45z"/>
	<path class="st5" d="M35.1,54.9c-1.3,0-4.9-0.8-3.7-3c0.9-1.4,2.5-0.1,3.7-0.1c1.1,0,2.8-1.4,3.7,0.1C40,54.1,36.4,54.9,35.1,54.9z
		"/>
	<ellipse class="st6" cx="35.8" cy="53.9" rx="1.6" ry="0.8"/>
	<path class="st7" d="M46.4,50.1c1.2,0,1.8,0.9,3.1,0.5c1.1-0.3,1.4-0.5,2.5-0.2c1.2,0.4,1.4,0.2,2.5-0.2c1.3-0.4,1.9,0.5,3.1,0.5"
		/>
	<path class="st7" d="M9.9,49.6c1.2,0,1.8,0.9,3.1,0.5c1.1-0.3,1.4-0.5,2.5-0.2c1.2,0.4,1.4,0.2,2.5-0.2c1.3-0.4,1.9,0.5,3.1,0.5"/>
</g>
<path class="st8" d="M69.8,45.8C62.7,38.4,40.4,80,53.3,83.2C60.2,84.9,74.8,51.1,69.8,45.8z"/>
<path class="st9" d="M66.4,46.6c0,0-13.1,32.3-12.8,40.2l21.2-0.1l3.4-39.4L66.4,46.6z"/>
<g>
	<path class="st10" d="M66.4,51.4c-2.6,9.8-3.3,35.1-15.5,32.6c1.5-7.6,5.3-35.9,15.5-37.5C66.4,48.2,66.4,49.8,66.4,51.4z"/>
</g>
<g>
	<path class="st10" d="M69.1,51c-0.8,11.5-2.2,24.7-3,36.2c16.1-0.8,13.1-0.1,17.5-12.3C87.3,64.8,83.3,30.2,69.1,51z"/>
</g>
<g>
	<path class="st8" d="M79.4,42.4c-4.4-5-22,2.4-13.1,9.5c1.5-2.9,2-2.9,4.2-4.4C62.3,58.8,84.9,46.4,79.4,42.4z"/>
</g>
<path class="st11" d="M73.8,39.3v6.5c0,0-3.1,4-5,3.3c0,0,0.6-9.8,0.6-9.8H73.8z"/>
<path class="st11" d="M61.5,21.1c-4,3-2.3,11-2.2,12.9c0.1,1.1-0.3,2.2-0.1,3.3c1.3,7.2,12.3,6.7,16.6,2.7
	C87.6,28.9,65.6,16.9,61.5,21.1z"/>
<path class="st12" d="M59.9,29.1c-1.1,0.7,3.3,2.8,3.3,1C62.4,29,61.3,28.6,59.9,29.1z"/>
<path class="st11" d="M58.9,34.5c-0.2-0.2-1.2-0.3-1.4,0.5s1,1.5,2.5,0.7C61,35.2,59.7,35,58.9,34.5z"/>
<path class="st13" d="M59.9,37.9c0,0,0.8,0.4,1.5-0.1"/>
<circle class="st12" cx="61" cy="34.1" r="0.6"/>
<path class="st14" d="M74.1,16.4c-1.5,0.2-3,0.4-4.4,0.7c-6.2,0.8-5-5.7-12.4-2.5c-2.6,1.1-6,10.8,11.4,11.5
	c-0.1,1.3-0.1,2.5-0.2,3.8c1.1,1.7,3.6,11,9,9.6C89.5,36.4,90.2,16.8,74.1,16.4z"/>
<path class="st8" d="M79.3,46.6c-7.1-0.6-5.1,31.4-6,36.1C93.5,87.2,87.9,47.3,79.3,46.6z"/>
<circle class="st11" cx="73.9" cy="33.2" r="4.7"/>
<path class="st15" d="M75.1,33.4c-0.2-0.8-1.2-1.2-1.9-0.9c-0.3,0.1-0.9,0.5-1,0.9c0,0.3,0.3,0.5,0.4,0.8c0.1,0.4-0.3,0.8,0.2,1
	C74.1,35.6,75.2,34.3,75.1,33.4z"/>
</svg>
