<?xml version="1.0" encoding="utf-8"?>
<!-- Generator: Adobe Illustrator 22.0.1, SVG Export Plug-In . SVG Version: 6.00 Build 0)  -->
<svg version="1.1" id="Layer_1" xmlns="http://www.w3.org/2000/svg" xmlns:xlink="http://www.w3.org/1999/xlink" x="0px" y="0px"
	 viewBox="0 0 100 100" style="enable-background:new 0 0 100 100;" xml:space="preserve">
<style type="text/css">
	.st0{fill:none;}
	.st1{fill:#F7CB52;}
	.st2{fill:#F5DB86;}
	.st3{fill:none;stroke:#FFFFFF;stroke-width:0.4639;stroke-miterlimit:10;}
	.st4{fill:#DBAD95;}
	.st5{fill:#D39F88;}
	.st6{fill:#3D374C;}
	.st7{fill:#9B4237;}
	.st8{fill:#262030;}
	.st9{fill:#DEF6FF;}
	.st10{fill:#D8D5E0;}
	.st11{fill:none;stroke:#B6AFC6;stroke-width:0.1412;stroke-miterlimit:10;}
	.st12{fill:#B6AFC6;}
	.st13{fill:#3C3449;}
	.st14{fill:#AD5544;}
	.st15{fill:#BC624A;}
</style>
<rect x="10" y="10" class="st0" width="80" height="80"/>
<g>
	<rect x="26.5" y="62.7" class="st1" width="24.2" height="2.3"/>
	<rect x="24.3" y="66.6" class="st1" width="28.6" height="2"/>
	<ellipse class="st2" cx="38.7" cy="37.6" rx="15.7" ry="23.3"/>
	<ellipse class="st3" cx="38.7" cy="37.6" rx="12.7" ry="19.2"/>
	<ellipse class="st3" cx="38.7" cy="37.6" rx="9.7" ry="14.6"/>
	<g>
		<path class="st4" d="M63.2,50.4c-0.3,5.2-2,11.7-8.4,11.3c-8.2-0.5-4.5-6.4-5-13.3C49.3,41.2,63.5,43.4,63.2,50.4z"/>
	</g>
	<path class="st5" d="M58.7,59.3l0.5,3.6c0,0-1.4,1.5-2.6,0.4L56,60.2C56,60.2,57.3,59.7,58.7,59.3z"/>
	<path class="st6" d="M65,58.1c-3.6,4.3-12.5,4.1-13.8-1.3c-0.7-2.9,0.7-5.4-1.6-7.7c-2.1-2.1-4.7-5-1.5-7.8c2.3-2,4.2-0.6,6,0.6
		c1.7,1.1,2,0.8,3.9,0.6C66.7,41.7,71,51,65,58.1z"/>
	<g>
		<path class="st4" d="M52,57.9c-1.8-0.1-2.4-2.6-1.3-3.6C54.4,51.1,53.7,58,52,57.9z"/>
	</g>
	<path class="st7" d="M62.7,66.7c0,0,13.6,2.8,13.8,11.2C76.8,86.2,65.2,88,65.2,88L62.7,66.7z"/>
	<g>
		<path class="st4" d="M38.1,69.6c-0.8-1-1.3-2.1-1.8-3.2c-0.1-0.3-0.5-0.4-0.7-0.3c-0.3,0.1-0.4,0.4-0.3,0.7
			c0.5,1.2,1.1,2.4,1.9,3.5C37.7,70.8,38.6,70.1,38.1,69.6z"/>
	</g>
	<path class="st4" d="M37.8,65.6c0.5,1.1,0.9,2.2,1.2,3.4c0.2,0.7,1.2,0.4,1.1-0.3c-0.3-1.3-0.8-2.5-1.3-3.7
		c-0.1-0.3-0.5-0.3-0.8-0.2C37.7,65,37.7,65.3,37.8,65.6z"/>
	<path class="st4" d="M39.1,69.3c-0.7-1.2-1.3-2.5-1.6-3.9c-0.1-0.3-0.4-0.4-0.7-0.3c-0.3,0.1-0.4,0.4-0.3,0.7
		c0.4,1.4,1,2.8,1.7,4.1C38.6,70.5,39.5,69.9,39.1,69.3z"/>
	<path class="st4" d="M39.4,65.7c0.4,1.2,0.7,2.4,0.9,3.6c0.1,0.7,1.2,0.5,1.1-0.2c-0.2-1.3-0.5-2.6-1-3.9C40.4,65,40,64.9,39.7,65
		C39.4,65.1,39.3,65.4,39.4,65.7z"/>
	<g>
		<ellipse transform="matrix(0.9665 -0.2568 0.2568 0.9665 -17.7826 19.7983)" class="st8" cx="66.9" cy="78" rx="6.4" ry="6"/>
		<g>
			<path class="st9" d="M72.9,76.2c0.3,0.9,0.3,1.7,0.1,2.6c-1,0.1-2-0.7-2.4-2.1c-0.4-1.2,0-2.4,0.7-3
				C72.1,74.4,72.6,75.2,72.9,76.2z"/>
		</g>
		<g>
			
				<ellipse transform="matrix(0.9563 -0.2923 0.2923 0.9563 -20.0674 22.8117)" class="st9" cx="66.3" cy="78.6" rx="2.2" ry="2.7"/>
		</g>
		<path class="st10" d="M74.5,77.8c0,1.2-0.5,3.7-2.2,5.6c-7.4,5.8-14.1-0.6-4.6-2.8C71.2,79.6,74.5,77.8,74.5,77.8z"/>
		<polyline class="st11" points="67.1,81 68.8,82.4 73.8,81.1 		"/>
		<path class="st12" d="M72.4,83.3c-0.9,1-2.1,1.7-3.4,2.2c-0.6,0.2-1.2,0.3-1.8,0.3l1.7-3.3L72.4,83.3z"/>
		<path class="st12" d="M70.9,81.7c-1.2,0.4-1.9-0.5-1.6-1.6l0,0c0.7-0.2,1.3-0.5,1.9-0.8C72.2,79.9,72,81.3,70.9,81.7z"/>
		<g>
			
				<ellipse transform="matrix(0.9563 -0.2923 0.2923 0.9563 -19.7504 22.8807)" class="st13" cx="66.7" cy="77.5" rx="0.8" ry="1.1"/>
		</g>
		<g>
			
				<ellipse transform="matrix(0.9563 -0.2923 0.2923 0.9563 -19.001 24.2355)" class="st13" cx="71.6" cy="75.7" rx="0.8" ry="1.1"/>
		</g>
		<path class="st10" d="M73.2,73.5c0,0-2.9,1.5-6.1,2.5c-7.2,2.6-8-4.1-2.6-5.7c2.2-0.7,4.7-0.2,6.5,1
			C71.8,71.8,73.2,73.4,73.2,73.5z"/>
		<path class="st12" d="M70.6,72.7l-1.1,2.5c-0.4,0.2-0.9,0.3-1.4,0.6l-1.9-2.5L70.6,72.7z"/>
		<polyline class="st11" points="63.1,74.8 66.3,73.3 65,70.2 		"/>
		<polyline class="st11" points="71,71.3 70.6,72.7 72.4,73.9 		"/>
	</g>
	<path class="st4" d="M35.7,69.8c1,0.7,2.1,1.3,3.2,1.8c0.6,0.3-0.2,1.5-0.8,1.2c-1.2-0.5-3.6-1.9-3.2-2.9
		C35.1,69.6,35.5,69.7,35.7,69.8z"/>
	<path class="st4" d="M40.3,73.3c0,0-2.6,1.2-3.5-3.7c0,0,4.2-2.9,4.4-1.3C41.7,71.1,42.9,72.3,40.3,73.3z"/>
	<path class="st4" d="M38.6,72.6l2.1,3.7c0,0,1.7,0.8,2.8-1.4l-2-3.2L38.6,72.6z"/>
	<path class="st14" d="M65.7,88.4H48.7l0.5-14.1l0.5-0.5l12-9C68.3,72.3,65.7,88.4,65.7,88.4z"/>
	<polygon class="st14" points="55.9,69.9 50.7,79.3 50.6,88.4 48.7,88.4 49.1,74.3 49.6,73.8 	"/>
	<path class="st14" d="M43.3,87.1c-3.6-0.6-4.1-13.3-4.1-13.3s2.4-1.1,3.5-0.7l4.7,8.3C47.5,81.4,49.5,88.1,43.3,87.1z"/>
	<g>
		<path class="st15" d="M48.3,88.7c5.3-0.5,10.4-19.1,9-22.6c-3.1-8.1-16.6,17.6-16.6,17.6S41.8,89.3,48.3,88.7z"/>
	</g>
	<path class="st7" d="M57.7,63.3c1,0.5,1.9-1.3,3.7-0.5c3.7,1.7,3.6,5.6,0.9,6c-7.9,1.4-8.1-2.7-9.8-2.8S52.4,60.5,57.7,63.3z"/>
</g>
</svg>
