<?xml version="1.0" encoding="utf-8"?>
<!-- Generator: Adobe Illustrator 22.0.1, SVG Export Plug-In . SVG Version: 6.00 Build 0)  -->
<svg version="1.1" id="Layer_1" xmlns="http://www.w3.org/2000/svg" xmlns:xlink="http://www.w3.org/1999/xlink" x="0px" y="0px"
	 viewBox="0 0 100 100" style="enable-background:new 0 0 100 100;" xml:space="preserve">
<style type="text/css">
	.st0{fill:none;}
	.st1{fill:#1C3A47;}
	.st2{opacity:0.4;}
	.st3{fill:url(#SVGID_1_);}
	.st4{opacity:0.34;}
	.st5{fill:url(#SVGID_2_);}
	.st6{fill:#A6C6CE;}
	.st7{fill:#DCF8FF;}
</style>
<rect x="10" y="10" class="st0" width="80" height="80"/>
<g>
	<path class="st1" d="M77.5,83.9c-42.6,16.7-59.1-3.5-60.3-5.2c-8.3-10.7,11.4-20.6,1.6-26C7.8,46.8,2,37.5,15.4,21.6
		c14.8-17.7,61.5-10.8,66.9,6.8c3.4,10.9-8.3,17.1-3,19.2C106.3,58.4,87.6,80,77.5,83.9z"/>
	<g class="st2">
		<linearGradient id="SVGID_1_" gradientUnits="userSpaceOnUse" x1="35.4633" y1="41.0628" x2="35.4633" y2="91.0841">
			<stop  offset="9.475160e-02" style="stop-color:#D2D6FF"/>
			<stop  offset="1" style="stop-color:#FFFFFF;stop-opacity:0"/>
		</linearGradient>
		<path class="st3" d="M46.4,91.1c-0.7,0-1.4,0-2.1,0c-8.5-0.3-16.6-2.6-22.8-7.8l13.3-38.8c1.3-2.9,4.4,0.2,5.3,0.4
			c0,0,8.3-5.5,9.2-3.3C49.9,42.7,46.4,91.1,46.4,91.1z"/>
	</g>
	<g class="st4">
		<linearGradient id="SVGID_2_" gradientUnits="userSpaceOnUse" x1="58.2457" y1="39.1049" x2="58.2457" y2="91.2811">
			<stop  offset="9.475160e-02" style="stop-color:#D2D6FF"/>
			<stop  offset="1" style="stop-color:#FFFFFF;stop-opacity:0"/>
		</linearGradient>
		<path class="st5" d="M72.2,85.3C65.4,93,45,91.1,44.3,91.1c0,0,5-49.2,5.1-49.5c0.3-0.9,1.3-2.3,2.2-2.5c0,0,2.3,0.1,2.7,1.4
			L72.2,85.3z"/>
	</g>
	<g>
		<path class="st6" d="M45.9,30.1c-2.8-1.4-6.5,0.2-10.5,5.1c-5.1,6.3-5.6,11.9-0.2,12.5C41.4,48.4,53.4,33.8,45.9,30.1z M38.2,43
			c-2.5-0.3-2.3-2.9,0.1-5.9c1.9-2.3,3.7-3.1,4.9-2.4C45.8,36.2,41.1,43.3,38.2,43z"/>
	</g>
	<polygon class="st7" points="45.1,35.3 44.8,37 46.1,38.2 44.4,38.4 43.7,40 42.9,38.5 41.2,38.2 42.4,37 42.1,35.4 43.6,36.1 	"/>
	<polygon class="st7" points="76.8,50.2 76.7,52 78.1,53.2 76.3,53.6 75.7,55.4 74.7,53.8 72.9,53.8 74,52.3 73.5,50.6 75.2,51.2 	
		"/>
	<polygon class="st7" points="56.4,57.6 56.3,58.8 57.3,59.5 56.1,59.8 55.7,61 55,60 53.8,59.9 54.6,59 54.2,57.8 55.4,58.3 	"/>
	<g>
		<path class="st6" d="M31,23.2c0,0-8.5,5.4-13.2,17.1l3.5,1.4c3.3-6.4,4.5-8,4.5-8l3.3,1.8c0,0-3.3,3.9-3.9,8.1l3,1.4
			C31.3,33.8,41.5,28,41.5,28L38,26.7c-3.4,1.9-7.5,6.5-7.5,6.5l-3-1.7c0,0,2.5-3.1,7.1-6.6L31,23.2z"/>
	</g>
	<g>
		<path class="st6" d="M53.1,29.7c-2.5,7.5-9.8,15.9-9.8,15.9l2.7,1c0,0,5.5-8.1,6-7.4s-3.4,8.4-3.4,8.4s2,0.7,2.1,0.6
			c2.1-1.4,6.3-6.5,6.9-6.1c0.6,0.4-4.4,6.5-4.4,6.5l2.8,0.7c0,0,5.5-4.3,10.2-14.7c0,0-3.8-1.5-3.8-1.5L55,39.5l3.1-7.7
			C58.1,31.8,53.1,29.7,53.1,29.7z"/>
	</g>
	<g>
		<path class="st6" d="M68,35.8c-0.2-0.1-6.6,10.6-10.3,14.3c0,0,7.4,1,10.4,2.8l2-2.5c0,0-3.8-2.6-6.3-2.8l1.8-2.6
			c0,0,4.4,1.2,6.3,2.6l2-2.6c0,0-3.7-2.5-6.5-3l1.1-1.9c0,0,4.2,0.9,6.3,2.6l1.7-3C76.7,39.8,72.5,37,68,35.8z"/>
	</g>
	<polygon class="st7" points="60.8,26.3 60.6,28 61.9,29.1 60.2,29.5 59.6,31 58.7,29.6 57,29.4 58.2,28.2 57.8,26.5 59.3,27.2 	"/>
	<polygon class="st7" points="27.6,19.8 27.3,22.1 29,23.6 26.8,24.1 25.9,26.2 24.8,24.2 22.5,23.9 24,22.3 23.6,20 25.6,21 	"/>
	<polygon class="st7" points="60.3,48.2 60,49.8 61.1,50.9 59.5,51.1 58.8,52.5 58.1,51.1 56.5,50.8 57.7,49.7 57.5,48.1 58.9,48.9 
			"/>
	<polygon class="st7" points="19.1,37.9 18.8,39.7 20.2,41 18.3,41.3 17.5,43 16.6,41.3 14.8,41.1 16.1,39.8 15.8,37.9 17.5,38.8 	
		"/>
</g>
</svg>
