<?xml version="1.0" encoding="utf-8"?>
<!-- Generator: Adobe Illustrator 22.0.1, SVG Export Plug-In . SVG Version: 6.00 Build 0)  -->
<svg version="1.1" id="Layer_1" xmlns="http://www.w3.org/2000/svg" xmlns:xlink="http://www.w3.org/1999/xlink" x="0px" y="0px"
	 viewBox="0 0 100 100" style="enable-background:new 0 0 100 100;" xml:space="preserve">
<style type="text/css">
	.st0{fill:none;}
	.st1{fill:#AD5544;}
	.st2{fill:#DBAD95;}
	.st3{fill:#38936E;}
	.st4{fill:#BC624A;}
	.st5{fill:#F9EDAA;}
	.st6{fill:#D39F88;}
	.st7{fill:#262030;}
	.st8{fill:#DEF6FF;}
	.st9{fill:#D8D5E0;}
	.st10{fill:none;stroke:#B6AFC6;stroke-width:0.2628;stroke-miterlimit:10;}
	.st11{fill:#B6AFC6;}
	.st12{fill:#3C3449;}
	.st13{fill:#453E59;}
	.st14{fill:#D39475;}
	.st15{fill:#7C4E45;}
	.st16{fill:#FFFFFF;}
</style>
<rect x="10" y="10" class="st0" width="80" height="80"/>
<g>
	<path class="st1" d="M41,43.2c-2.1-2.1-7.7,4.6-9,4.8c-1.9,0.3-4.7-4.1-7.4-1.9c-2.6,2.2-1.2,10.4,1.1,13.1
		C34.4,69.5,47.3,49.5,41,43.2z"/>
</g>
<path class="st2" d="M32.9,39.2c-1.3-1.1-3.5,2.1-4,2.9c-0.2-2.5,0-6.4-1.2-8.6c-2.2-3.9-1.1,4.5-1,5.9c-1.2-0.2-0.5-7.9-2.9-7.5
	c-2.2,0.4,1.8,7.4,0.6,7.9c-0.3-1-1.5-7.1-3-6.9c-1.8,0.3,2,7.3,1,8c-0.3-1-1.2-6.2-2.5-5.3c-0.6,0.5,0.3,3.1,0.4,3.6
	c0.7,2.6,1.4,8.5,4.5,9.4C27.1,49.4,35,41,32.9,39.2z"/>
<g>
	<path class="st1" d="M39.3,40.7c-2.1,2.7,2.1,14.9,4.6,14.9c2,0,9.4-11.9,8.1-14.6C50.5,38.3,41.4,38,39.3,40.7z"/>
</g>
<g>
	<g>
		<path class="st3" d="M53.3,90.1h-8c-0.1-4.3,0.1-13.9,0.2-14.7c0,0,7.9,1,8.1,1.5L53.3,90.1z"/>
	</g>
	<g>
		<path class="st3" d="M44.3,75.5l-2.4,14.6h-8c0.4-3.3,2.5-17.2,2.5-17.2L44.3,75.5z"/>
	</g>
	<g>
		<path class="st4" d="M34.2,77.9h-2.8c1.4-7.2,0-36.2,11.8-36.2L34.2,77.9z"/>
	</g>
	<g>
		<path class="st4" d="M47.6,41.7c0,0,4.6,0.9,6.6,2.8c2.1,1.9,1.6,19.5,5.3,27.5c0,0-4.1,9.9-11.9,6.9
			C47.6,78.8,43.8,53.4,47.6,41.7z"/>
	</g>
	<g>
		<path class="st5" d="M47.6,78.8c-9.2-3.2-13-1.2-13.6-2.2c-0.4-0.6,6.5-35.5,9.3-35.2c2,0.2,2.5,0.9,4.4,0.3
			C45.6,53.9,45.9,66.7,47.6,78.8z"/>
	</g>
</g>
<path class="st6" d="M47.6,35.9l0,5.8c0,0-2.6,2.1-4.2,0l-0.1-4.9C43.3,36.8,45.4,36.3,47.6,35.9z"/>
<g>
	<path class="st7" d="M61.1,56.8c6.6-0.2,7.3,22.1,0.7,22.3c-6.6,0.2-12.1-4.6-12.3-10.8S54.5,57,61.1,56.8z"/>
	<g>
		<path class="st8" d="M50.8,62.8c1.6,0.6,2.9,2.5,2.9,4.9c0.1,2.5-1.3,4.6-3.2,4.9c-0.8-1.5-1.3-3-1.2-4.7
			C49.3,66.1,49.8,64.3,50.8,62.8z"/>
	</g>
	<g>
		<path class="st8" d="M58.7,68.6c0-2.8,1.9-4.8,4.2-5c5.1-0.3,3.7,9.9,0,10C60.5,73.7,58.7,71.4,58.7,68.6z"/>
	</g>
	<path class="st9" d="M61.5,73.1c7.1,0,14.3-1.4,14.4-1.4c0,0-4.7,15.2-21,8.8c-4.2-2.5-6.4-6.8-7-8.8C47.8,71.6,54.6,73,61.5,73.1z
		"/>
	<polyline class="st10" points="50.8,77.2 60.5,76.8 62.7,73.4 72.8,75.2 75.9,71.7 	"/>
	<path class="st11" d="M60.4,77l4.7,4.9c-1.1,0.2-6.2,0.6-10.6-1.7L60.4,77z"/>
	<path class="st11" d="M54.5,72.6c1.2,0.2,2.5,0.3,3.8,0.4l0,0c1.1,1.8,0.3,3.7-2.1,3.7C54.2,76.5,53.1,74.1,54.5,72.6z"/>
	<g>
		<path class="st12" d="M61.5,66.5c2.4,0,2.5,3.9,0,4C59.3,70.5,59.7,66.5,61.5,66.5z"/>
	</g>
	<g>
		<path class="st12" d="M51.5,65.9c1.9,0.1,1.8,3.7,0,4C49.6,70.1,49,65.8,51.5,65.9z"/>
	</g>
	<path class="st9" d="M50.6,58.3c2.5-3.1,6.6-5.4,11-5.3c10.5,0.1,14.1,10.3,14.1,10.3S69.2,65,60,64.6c-6.2-0.1-12.2-1.3-12.2-1.3
		C47.9,63.1,49.4,59.6,50.6,58.3z"/>
	<path class="st11" d="M60.2,59.2l-2.1,5.5c-1-0.1-6-4.2-6-4.2L60.2,59.2z"/>
	<line class="st10" x1="60.1" y1="59.2" x2="66.5" y2="60.2"/>
	<path class="st10" d="M60.7,52.9"/>
	<polyline class="st10" points="49.4,63.6 52,60.5 50.6,58.2 	"/>
</g>
<path class="st2" d="M68.6,74.9c0.5-1.6,0.9-3.3,1.4-4.9c-0.9-0.2-3-0.9-3.6-0.5c-0.9,0.6-0.8,4.7-5.4,7.9c-3,2-0.5,2.8,1.5,0.8
	c0.1,1.1-1.8,4.4-1.2,5.1c1.2,1.3,1,0.8,1.7,1.2c1.2,0.8,1-0.1,1.5,0.2C67.5,86.4,69,77.2,68.6,74.9z"/>
<path class="st1" d="M72.7,56.4c-1.4-7.2-25.5-21.9-21.6-7.5c1.7,6.2,12.4,6.7,14.9,11.3c0.5,0.9-1.5,11.4-1.7,12.6
	c3.7,0.1,6,1.8,7.4-0.6C73.5,68.8,73.6,60.8,72.7,56.4z"/>
<path class="st2" d="M29.7,25c-1.6,1.8-0.7,4.7,1,5.5s4.4-0.5,4.4-0.5S31.3,23.2,29.7,25z"/>
<g>
	<path class="st13" d="M33.8,16.1c-6.8-0.5-1.5,11.2-1.5,11.2L33.8,16.1z"/>
</g>
<path class="st2" d="M57.2,28.1c0.5,11.3-22.8,13.3-24.5,5.3c-0.7-3.2-2.1-16.9,1.6-19.5c2.8-2,22.8,2.2,22.9,3.1
	C57.4,19.5,57.4,25.7,57.2,28.1z"/>
<path class="st12" d="M55.8,15.9c-1.7-2.5-4.4-7.5-13.7-5.6c-2,0.4-2.2-1.8-3.5-2.2c-1.8-0.7-5,0-2.6,2.9c-7-7.1-12,4.6-2,6.1
	c6,0.9,14.7-4.3,19.8-0.3c-7.2-2.8-3.4,11.1,3.7,9.9C56.7,23.5,62,16.3,55.8,15.9z"/>
<path class="st2" d="M52.7,30.5c-0.6-4.8,5.3-7.8,7.2-5.5C66,32.2,53,33.7,52.7,30.5z"/>
<path class="st14" d="M52.8,30.3c0.5-0.5,2-0.4,2.4-1.8c0.3-1-0.6-0.9-1.3-1.1c0.3-0.1,3.9-2.3,5.1,0C60.6,30.7,55.3,31.5,52.8,30.3
	z"/>
<path class="st12" d="M32.9,21.3c0.6-0.7,1.6-1.4,2.6-1.3c0.7,0.1,1.5,0.3,1,1C36.1,21.4,32.2,22,32.9,21.3z"/>
<path class="st12" d="M47.3,20.7c-0.6-0.7-1.6-1.4-2.6-1.3c-0.7,0.1-1.5,0.3-1,1C44.1,20.9,48,21.5,47.3,20.7z"/>
<g>
	
		<ellipse transform="matrix(8.715505e-02 -0.9962 0.9962 8.715505e-02 14.6869 71.0744)" class="st12" cx="46.1" cy="27.5" rx="0.7" ry="0.7"/>
</g>
<g>
	
		<ellipse transform="matrix(8.715505e-02 -0.9962 0.9962 8.715505e-02 4.2343 59.2749)" class="st12" cx="34.5" cy="27.3" rx="0.7" ry="0.7"/>
</g>
<path class="st15" d="M42.2,32.6c-0.1,2.3-4.4,1.9-4.6-0.3C37.3,29.5,42.4,29.5,42.2,32.6z"/>
<path class="st16" d="M42.1,31.6c-2.6,1.2-4.4-0.2-4.4-0.2c0.5-0.8,1.3-1.3,2.3-1.2C41,30.2,41.7,30.8,42.1,31.6z"/>
</svg>
