<?xml version="1.0" encoding="utf-8"?>
<!-- Generator: Adobe Illustrator 22.0.1, SVG Export Plug-In . SVG Version: 6.00 Build 0)  -->
<svg version="1.1" id="Layer_1" xmlns="http://www.w3.org/2000/svg" xmlns:xlink="http://www.w3.org/1999/xlink" x="0px" y="0px"
	 viewBox="0 0 100 100" style="enable-background:new 0 0 100 100;" xml:space="preserve">
<style type="text/css">
	.st0{fill:none;}
	.st1{fill:#38936E;}
	.st2{fill:#DBAD95;}
	.st3{fill:#E6E7ED;}
	.st4{fill:#F9EDAA;}
	.st5{fill:#DEDEE2;}
	.st6{fill:#FFFFFF;}
	.st7{fill:#E0E0E2;}
	.st8{fill:#D39475;}
	.st9{fill:#3C3449;}
	.st10{fill:#262030;}
	.st11{fill:#DEF6FF;}
	.st12{fill:#D8D5E0;}
	.st13{fill:none;stroke:#B6AFC6;stroke-width:0.1859;stroke-miterlimit:10;}
	.st14{fill:#B6AFC6;}
</style>
<rect x="10" y="10" class="st0" width="80" height="80"/>
<g>
	<g>
		<path class="st1" d="M69.9,90h-5.2c-0.8-3-1.8-8.9-1.9-9.4c-0.4-4.5,5.8,1.2,5.8,1.2v0.1L69.9,90z"/>
	</g>
	<path class="st2" d="M34.9,33.4c-0.8-0.1-9.2,1.2-9.5,1.7c-0.3,0.5,1.9,1.3,2.2,1.4c0,0,6.3,0.7,6.4,0.9l1.7,4.8l4.4-1.9
		C40,40.2,36.7,33.6,34.9,33.4z"/>
	<g>
		<path class="st1" d="M60.3,62.3l-3.4,18.5l0,9.2h-5c-0.4-3.6-0.7-7.2-0.6-9.5c0,0,3.4-20.3,4.2-20.5
			C56.9,59.8,59.1,59.9,60.3,62.3z"/>
	</g>
	<path class="st3" d="M50.2,34.5c-2.6,0.3-6.4,6-7.9,8.1L38,36l-4.4,2.5c2.4,6.3,5,14.9,10.5,12.3c0.2-0.1,8.2-8.3,9.7-12.4
		C54.6,36.2,52.6,34.3,50.2,34.5z"/>
	<g>
		<path class="st4" d="M49.5,64.1c0,0,11.3,3.1,18.7,0c0,0-2.6-26.5-6.2-29.7h-7.9L49.5,64.1z"/>
	</g>
	<path class="st5" d="M65.9,34.5C62.2,36,64.3,57.4,66,56.9c3.9-1.1,13.8-6.4,13.9-6.5c0,0,0,0,0,0C84.7,46,70.5,32.8,65.9,34.5z"/>
	<path class="st3" d="M54.3,34.3c0,0,0,9.7,0.3,15.6c0.6,10.6,3,30,3,30s-6.6,2.5-11-1.7L49.2,53l-2.3-13.9
		C46.6,33.1,54.2,34.3,54.3,34.3z"/>
	<polygon class="st6" points="54.1,33.4 51.2,38.1 52.6,38.1 50.7,40.1 54.9,56.6 54.6,34.6 	"/>
	<path class="st3" d="M61,51.1c0,0,1.3,22.5,0.4,28.9c0,0,9,4.7,12.3-1c0,0-0.7-36.9-7.2-43.7c-1.9-2-7.2-2-7.2-2L61,51.1z"/>
	<polygon class="st6" points="59,32.7 56.9,35.6 61.3,56.6 60.6,39 59.4,37.3 60.6,36.8 60.1,33 	"/>
	<path class="st6" d="M61.9,45.4c0,0,0.3,5,1.4,5.8c1.1,0.8,4,1,4.6-1c0.6-2,0-5.1,0-5.1L61.9,45.4z"/>
	<path class="st2" d="M43.7,24.1c-1.2,0.9-0.5,3.1,0.7,3.5C47.9,28.8,46.9,21.6,43.7,24.1z"/>
	<path class="st7" d="M52.4,15c-2.1,0.2-3.9,1.5-2.2,2.4s7.4-0.5,8.5,0.4C58.7,17.8,55.5,14.8,52.4,15z"/>
	<path class="st7" d="M49.2,16.6c-1-0.4-4.1,1.3-4.6,3.5c-0.7,2.8,1.2,5.7,1.2,5.7L49.2,16.6z"/>
	<path class="st2" d="M60.9,26.3c0.3-4.5,0.2-8.2-4.8-9.6c-6.1-1.8-10.6,0.3-10.8,6.7c-0.2,4.3-0.6,11.3,8.6,9.7l0.7,1.7
		c0,0,1.9,1.6,4.7-1.1l-1-2.4C59.7,30,60.7,28.4,60.9,26.3z"/>
	<path class="st7" d="M57.9,24.7c-1.4-1.4-1.1-6,1.7-6c2.8,0,1.8,4.6,1.5,6C60.7,26,59.4,26,57.9,24.7z"/>
	<path class="st2" d="M61.3,28.6c-1.4,0.5-3.5-0.4-3.4-0.8c0-0.1,0-0.1,0.1-0.1c0.3-0.3,1.2-0.3,1.5-1.1c0.2-0.7-0.4-0.6-0.8-0.7h0
		c-0.2-0.1-0.4-0.2-0.3-0.5c0-1,2.5-2.1,3.8-0.8C63.5,25.8,62.8,28,61.3,28.6z"/>
	<path class="st8" d="M58,27.6c0.3-0.3,0.3-1.5,0.7-1.9C63.9,23.6,62.4,29.2,58,27.6z"/>
	<path class="st3" d="M49.2,26.2c0,0-1.4-0.3-2.3,1.2s0.7,1.7,1,0.6c0,0,0.1,0.9,0.6,1.1c0.5,0.1,0.7-0.7,0.7-0.7s0.3,1,1,1
		c0.7,0,0.4-1.1,0.4-1.1s0.8,1,1.3,0.4C52.8,27.9,50.8,26.1,49.2,26.2z"/>
	<g>
		
			<ellipse transform="matrix(8.715505e-02 -0.9962 0.9962 8.715505e-02 23.7071 75.5182)" class="st9" cx="53.1" cy="24.8" rx="0.4" ry="0.5"/>
	</g>
	<g>
		
			<ellipse transform="matrix(8.715505e-02 -0.9962 0.9962 8.715505e-02 18.3329 69.6888)" class="st9" cx="47.2" cy="24.8" rx="0.4" ry="0.5"/>
	</g>
	<path class="st3" d="M45.2,21.9c0.3-0.4,0.7-0.7,1.2-0.8c0.3-0.1,1.4,0,1.1,0.6C47.5,22,44.8,22.3,45.2,21.9z"/>
	<path class="st3" d="M54.5,21.5c-0.3-0.4-0.7-0.7-1.2-0.8c-0.3-0.1-1.4,0-1.1,0.6C52.3,21.6,54.9,22,54.5,21.5z"/>
	<g>
		
			<ellipse transform="matrix(3.193412e-02 -0.9995 0.9995 3.193412e-02 2.9611 53.9554)" class="st10" cx="29.3" cy="25.4" rx="7.9" ry="8.5"/>
		<g>
			<path class="st11" d="M37.8,25.4c0.1,1.2-0.3,2.3-0.9,3.4c-1.3-0.3-2.3-1.7-2.3-3.5c0-1.7,0.9-3.1,2.1-3.5
				C37.5,22.9,37.9,24.1,37.8,25.4z"/>
		</g>
		<g>
			<ellipse transform="matrix(1 -4.969636e-03 4.969636e-03 1 -0.1286 0.1412)" class="st11" cx="28.4" cy="25.9" rx="3" ry="3.6"/>
		</g>
		<path class="st12" d="M39,28c-0.5,1.5-2,4.5-5,6.3c-11.5,4.6-14.9-6.2-14.9-6.2c0.1,0,5.2,1,10.2,1C34.2,29.1,39,28,39,28z"/>
		<polyline class="st13" points="19.1,28.2 21.3,30.6 28.4,29.3 30,31.8 36.8,32 		"/>
		<path class="st14" d="M34.2,34.2c-1.5,0.9-5,1.8-7.5,1.2l3.4-3.5L34.2,34.2z"/>
		<path class="st14" d="M33,31.6c-1.7,0.1-2.3-1.4-1.5-2.6l0,0c1-0.1,1.9-0.1,2.7-0.3C35.2,29.8,34.5,31.6,33,31.6z"/>
		<path class="st14" d="M26.9,31.5l-2.4,2.9c-3.4-1.5-3.3-3.8-3.3-3.8L26.9,31.5z"/>
		<g>
			
				<ellipse transform="matrix(1 -4.969636e-03 4.969636e-03 1 -0.1285 0.1485)" class="st9" cx="29.8" cy="25.9" rx="1.1" ry="1.4"/>
		</g>
		<g>
			<ellipse transform="matrix(1 -4.970160e-03 4.970160e-03 1 -0.1249 0.1834)" class="st9" cx="36.8" cy="25.2" rx="1" ry="1.2"/>
		</g>
		<path class="st12" d="M38.9,22.2c0,0-4.2,0.9-8.6,0.9c-6.5,0.3-11-1-11-1s2.5-7.2,10-7.3C32.3,14.8,38.3,16.9,38.9,22.2z"/>
		<path class="st14" d="M26.1,19.9l-2.3,3c-1.5-0.2-3.1-0.4-4.7-0.7c0,0,0.8-2.3,2.8-4.4L26.1,19.9z"/>
		<circle class="st14" cx="26.9" cy="17.2" r="1.7"/>
		<path class="st14" d="M36,20.2l-2.3,2.8l-2,0.1l-1.5-3.8L36,20.2z"/>
		<polyline class="st13" points="25.7,20 30.3,19.2 29.8,14.8 		"/>
		<polyline class="st13" points="37.2,18.4 36,20.2 37.8,22.4 		"/>
	</g>
</g>
</svg>
