<?xml version="1.0" encoding="utf-8"?>
<!-- Generator: Adobe Illustrator 22.0.1, SVG Export Plug-In . SVG Version: 6.00 Build 0)  -->
<svg version="1.1" id="Layer_1" xmlns="http://www.w3.org/2000/svg" xmlns:xlink="http://www.w3.org/1999/xlink" x="0px" y="0px"
	 viewBox="0 0 100 100" style="enable-background:new 0 0 100 100;" xml:space="preserve">
<style type="text/css">
	.st0{fill:none;}
	.st1{fill:#101926;}
	.st2{fill:#1B2435;}
	.st3{fill:#E6E6E6;}
	.st4{fill:#D19A82;}
	.st5{fill:#D8D5E0;}
	.st6{fill:none;stroke:#B6AFC6;stroke-width:0.2053;stroke-miterlimit:10;}
	.st7{fill:#DBAD95;}
	.st8{fill:#4686B2;}
	.st9{fill:#B6AFC6;}
	.st10{fill:#5196C0;}
	.st11{fill:#5BA5CE;}
	.st12{fill:#3C3449;}
	.st13{fill:#D39475;}
	.st14{fill:none;stroke:#C18063;stroke-width:0.2607;stroke-linecap:round;stroke-linejoin:round;stroke-miterlimit:10;}
	.st15{fill:#342947;}
</style>
<rect x="10" y="10" class="st0" width="80" height="80"/>
<path class="st1" d="M77.6,84.7l-44.7,0.5c0,0-0.6-14.8,5.5-15.6c2.9-0.4,23.1,1.4,24.4,1.6C65.9,71.8,77.6,84.7,77.6,84.7z"/>
<path class="st2" d="M38.2,76.1c-3.4,1.9-4,7.4-1.2,9L48.4,85c0,0,24.3-0.8,30.4-1.6c2.1-0.3,3.4-2.6,2.9-5.6
	c-0.3-1.6-0.4-0.5-2.1-1.3c-5.1-2.4-13.6-2.3-19.2-2.7C53.4,73.2,44.6,72.5,38.2,76.1z"/>
<path class="st3" d="M36.6,68.1c-1.2,0.4-2.5,0.7-3.8,0.7c-0.2,0-0.4,0-0.5,0h-0.1c-0.7,0-1.3-0.1-1.9-0.2l0,0
	c-0.5-0.1-0.9-0.2-1.3-0.4H36.6z"/>
<path class="st3" d="M86.1,48.2L81,82.9H45.8c-0.6,0-1,0.5-1,1v0.2c0,0.6,0.5,1,1,1h35.6c0.8,0,1.7-0.2,1.7-0.9l5.3-35.7
	C88.5,46.9,86.6,46.3,86.1,48.2z"/>
<path class="st3" d="M58,70.8H23.7v14.3h-2.8V70.8h-9.2v-2.7H58C59.7,68.1,60.5,70.8,58,70.8z"/>
<path class="st4" d="M63,47.9c-4.2,2.8-15.6,0.2-17.6-0.4c-2.2-0.7-4-2.3-6.6-1.7c-5.5,1.2-0.8,4.7,2.6,5.6c7.4,2,14.4,7.1,22.3,4.1
	C67.4,54,65.8,46.1,63,47.9z"/>
<path class="st5" d="M44.5,57.1c0,0.2,0,0.4,0,0.6v0c0,0.1,0,0.2,0,0.3c0,0.3-0.1,0.6-0.1,0.9c-0.2,1.2-0.5,2.3-1,3.3
	c-0.4,0.8-0.9,1.5-1.4,2.2c-0.4,0.5-0.9,1-1.4,1.4c-1.1,1-2.4,1.8-3.9,2.2c-1.2,0.4-2.5,0.7-3.8,0.7c-0.2,0-0.4,0-0.5,0h-0.1
	c-0.7,0-1.3-0.1-1.9-0.3c-0.5-0.1-0.9-0.2-1.3-0.4c-3.5-1.2-6.2-4-7.3-7.5c-0.4-1.1-0.5-2.3-0.5-3.5c0-1.1,0.2-2.2,0.5-3.2
	c0.1-0.2,0.1-0.5,0.2-0.7c1.6-4.5,5.9-7.7,11-7.7c1.2,0,2.3,0.2,3.4,0.5c0.4,0.1,0.9,0.3,1.3,0.5c1.2,0.5,2.3,1.2,3.2,2.1
	c0.4,0.3,0.8,0.7,1.1,1.1c0.3,0.4,0.6,0.8,0.9,1.2c0.3,0.5,0.5,0.9,0.8,1.4C44.1,53.6,44.5,55.3,44.5,57.1z"/>
<polyline class="st6" points="21.4,60.4 23.9,63.1 31.7,61.6 33.5,64.4 43.1,51.7 "/>
<path class="st7" d="M77.5,38.8l-5.5,3.8L68.6,38c-1.2,1.5-2.9,2.7-4.8,2.8c-4.9,0.3-5.7-5.4-8.2-8.5c-2.5-3.2-2.8-6-2.8-6
	C52.6,17.3,71,31.4,71,31.7L77.5,38.8z"/>
<g>
	<path class="st8" d="M67.4,42.2c-3.7,3.3-5.4,5.3-5.4,5.3l4.3,9.7C66.3,57.2,77.5,33.2,67.4,42.2z"/>
</g>
<path class="st9" d="M27.1,56.2l2.3,4.2l-8.2-1.9L27.1,56.2z"/>
<polyline class="st6" points="28.7,51.4 33.8,50.5 33.3,45.6 "/>
<path class="st10" d="M85.2,53.4C84.4,69,81.6,77,81.6,77s-5.4,1.8-11.9,0.5c0,0,0,0,0,0c7.2-3.3,5.1-42.2,5.1-42.2
	S85.9,39.1,85.2,53.4z"/>
<path class="st7" d="M36.8,64.2c0,0-3.1-0.8-1.4-3.7C37.1,57.7,38.2,63.5,36.8,64.2z"/>
<path class="st2" d="M46.8,64.7l-9.3-6.6c0,0,0,0,0,0c1-2.4,0.2-5.2-2-6.7c-1.2-0.9-2.7-1-4.1-1c-2.6,0-2.6,2.9,0.1,2.7l1.9,0.2
	l1.2,2.6L33,58.2L30.1,58l-0.8-1.7c-1.3-1.9-2.9-0.7-2.6,0.8c0.3,1.4,1,2.7,2.3,3.5c2.2,1.5,5.1,1.3,7-0.3l9.3,6.6
	C47.2,68,48.5,65.7,46.8,64.7z"/>
<path class="st7" d="M70.9,45.2c-3.4,2.6-12,10.6-25.3,13.8c-1.3,0.3-3.3-1.5-4.6-1.1c-1.7,0.5-4.2,4.3-5.5,5.6
	c1.4,0.8,3.3,1.8,4.7,2.2c3.1,0.9,2.7-1.7,5.8-2C62.2,62.3,71,55.9,74.8,52C77.8,48.8,75.3,42,70.9,45.2z"/>
<g>
	<path class="st11" d="M75.4,39.9c-0.3-2.8-0.5-4.6-0.5-4.6l-4.3,5.8c0,0-0.1,0.5-0.3,1.4c-0.2,0.2-8.5,6.8-8.5,6.8l4.9,11.3
		c-0.2,1-0.4,1.8-0.5,2.4c-0.9,4.4-5,10.9-5,10.9s4.5,2.8,8.6,3.6c0,0,0,0,0,0c5.8,0.6,6.8-12,6.5-23.6c2.1-2.1,3.8-4.6,4.4-7.2
		C81.7,41.9,79.1,39.3,75.4,39.9z"/>
</g>
<path class="st7" d="M57.6,33.3c0,0-1.8,1.8-1.6,2.4c0.2,0.9,1.8,0.7,2.3-0.4S57.6,33.3,57.6,33.3z"/>
<path class="st12" d="M56.7,19.4c-7.3-2.9-9.3,5-6.4,7.3c3.1,2.4,5.4-0.5,8.4,0c1.7,0.3,0.5,2.4,3.3,2.2c1.4-0.1,5.3,7.3,8.9,4.5
	C82,24.7,63.8,6.4,56.7,19.4z"/>
<g>
	<path class="st7" d="M66,32.9c1.8-0.5,2.7-2.4,2.2-4.3c-0.5-1.9-2.5-3.4-4.2-2.5C58.2,29.3,64.3,33.4,66,32.9z"/>
	<path class="st13" d="M66,29.2c-0.7-1.1-2.8-0.8-3,1.2c0,0.2,1.4,1.9,1.5,1.8C65.2,31.8,66.9,30.6,66,29.2z"/>
</g>
<path class="st14" d="M59.3,36.4c0,0,1-0.5,1-1.4"/>
<path class="st15" d="M56,30.6c-0.3,0.4,0.2,1.1,0.6,0.8c0.5-0.3,2.6-0.3,2.3-1C58.6,29.7,56.6,29.8,56,30.6z"/>
<ellipse transform="matrix(0.7827 -0.6224 0.6224 0.7827 -8.2699 43.1897)" class="st15" cx="57.7" cy="33.4" rx="0.3" ry="0.5"/>
<path class="st9" d="M38.5,67.2c-0.5,0.3-1.3,0.6-2.2,0.9c-1.2,0.4-2.7,0.6-4.1,0.6h-0.1c-0.7,0-1.3-0.1-1.9-0.2l0,0l0.3-0.4l3-3.7
	L38.5,67.2z"/>
<path class="st9" d="M41.4,56.3c0.1-1.9,1.5-2.7,2.7-1.7c0,0,0.2,2.5,0.3,3.4C43.1,58.9,41.3,57.9,41.4,56.3z"/>
<path class="st9" d="M30.1,64.1l-2.7,3.2c-3.8-1.7-3.6-4.2-3.6-4.2L30.1,64.1z"/>
<path class="st9" d="M29.2,51.3l-2.5,3.3c-1.7-0.2-3.4-0.4-5.2-0.8c0,0,0.9-2.5,3.1-4.9L29.2,51.3z"/>
<circle class="st9" cx="30.1" cy="48.3" r="1.9"/>
<line class="st6" x1="26.4" y1="53" x2="26.7" y2="58.1"/>
<path class="st1" d="M41.7,49.5l-2.4,2.6c0,0-1.2-1-2.2-1.7c-1-0.7-2.2-0.8-2.2-0.8l1.2-3.7l0-0.1C38.3,46.5,40.2,47.8,41.7,49.5z"
	/>
<path class="st4" d="M44,48.2c-0.3-0.3-0.8-0.4-1.3-0.4c-1.1,0.2-4.3,0.8-4,2.5c0.3,1.9,4.5,0,4.5,0S45,49.2,44,48.2z"/>
</svg>
