<?xml version="1.0" encoding="utf-8"?>
<!-- Generator: Adobe Illustrator 24.1.0, SVG Export Plug-In . SVG Version: 6.00 Build 0)  -->
<svg version="1.1" id="Layer_1" xmlns="http://www.w3.org/2000/svg" xmlns:xlink="http://www.w3.org/1999/xlink" x="0px" y="0px"
	 viewBox="0 0 100 100" style="enable-background:new 0 0 100 100;" xml:space="preserve">
<style type="text/css">
	.st0{fill:#DBAD95;}
	.st1{fill:#D39F88;}
	.st2{fill:#38936E;}
	.st3{fill:#AD5544;}
	.st4{fill:#F9EDAA;}
	.st5{fill:#BC624A;}
	.st6{fill:#1F3972;}
	.st7{fill:#FFFFFF;}
	.st8{fill:#3C3449;}
	.st9{fill:#7C4E45;}
</style>
<path class="st0" d="M71.2,46.92c0.13,0.09-0.24,1.26-1.19,2.11c-0.06,0.05-1.49,1.3-3.11,0.92c-0.04-0.01-0.66-0.16-0.65-0.32
	c0.01-0.24,1.37-0.06,2.68-0.68C70.47,48.23,71.05,46.83,71.2,46.92z"/>
<path class="st1" d="M31.1,51.3c0.1,0.8-1.7,3.6-2.2,4.8c-1.1,2.6-0.2-1.6-0.5-1.2c-3.4,4-2,0.9-1.3-0.7c0.2-0.5-1.9,1.2-2.3,0.6
	C24.5,54.1,30.6,48.4,31.1,51.3z"/>
<path class="st0" d="M29.3,52.3c-0.3,0.3-4.2,2-4.7,1.8c-0.6-0.3,3.4-2.8,4.6-3.6c2.2-1.4,4.8-5.1,5.7-3.7
	C36.3,47.8,31.2,52.2,29.3,52.3z"/>
<path class="st0" d="M54,80.2c0.1,1,0.4,2.5,1.2,2.2s1.2,0,1.2-0.4c0.1-0.5-0.2-1.6-0.3-2.2C55.6,80.2,54.6,80.3,54,80.2z"/>
<path class="st0" d="M46.6,79.3c1.1,5-2,6-2.1,0C45.2,79.8,46,79.9,46.6,79.3z"/>
<g>
	<path class="st2" d="M56.2,80.2c-3.3,4.8-5.6-11.6-6-15.5c-0.3-2.3-1.1-13.1-0.3-14.8l4.5-0.5c-0.1,4.1-0.5,11.5-0.2,15.6
		C54.4,70,55.5,75.2,56.2,80.2z"/>
</g>
<g>
	<path class="st2" d="M49.2,49.1c-0.8,4.7-1.9,9.5-2.3,14.3c-0.4,4.8,0.9,11.9,0,16.6c0,0-1.9,0.3-2.2-0.2
		c-1.2-2.7-1.3-8.7-1.5-11.5c-0.4-4.6,0.3-19.7,1.4-20.6L49.2,49.1z"/>
</g>
<g>
	<path class="st3" d="M46.6,29.9c-1.2,1.5,1.6,8.2,2.9,6.2c0.9-1.3,4.9-4.7,3.9-6.3C52.4,28.3,47.6,28.6,46.6,29.9z"/>
</g>
<path class="st1" d="M51,27.2c0,1,0.7,4.5-1.6,3.7c-0.9-0.3-0.7-1-0.8-2.2C48.5,27.2,49.9,27.2,51,27.2z"/>
<g>
	<path class="st4" d="M52.8,50.9c-1.8-0.6-7.8,0.2-9-1.1c-0.4-0.4,4.4-19.5,4.8-19.6c0.4-0.1,0.8,0.8,2.4,0.2
		C49.9,37.1,51.9,44.1,52.8,50.9z"/>
</g>
<g>
	<path class="st5" d="M68.4,47.8c-1.3,4.5-10.3-3.25-10.83-4.05c0,0-1.7-3.2-1.37-6.05c0,0.1,0.4,7.4,1.6,10.8
		c0.6,1.8-2.7,2.4-4.5,2.7c-2.6,0.5-3.3-10.4-3.2-13.8c0-1.4-0.1-4.7,0.3-6.2c0.6-2.1,2.6-0.6,2.9-0.5
		c2.7,1.6,7.57,10.05,7.67,10.05C62.07,42.45,69,45.7,68.4,47.8z"/>
</g>
<g>
	<path class="st6" d="M36.5,85.2c0.6,2.4,4.6,0.9,6.2,0.5c1.4-0.3,4.9,0.1,4.2-2.1C45.5,83.7,36.5,83.6,36.5,85.2z"/>
</g>
<g>
	<g>
		<path class="st5" d="M48.7,30.1C48.6,30.7,44,50.5,44,50.5h-1.6c-0.2,0-0.4-0.2-0.3-0.4c0.3-1.8,0.3-4.8,0.5-8
			c-3.6,3.6-7.6,7-8.3,7.5c-0.8,0.5-3.2-0.5-2.3-2c0.7-1.3,2.5-2.7,3.5-3.8c0.5-0.6,7.1-9.3,8.3-10.8C45.4,31,47.5,30.1,48.7,30.1z"
			/>
	</g>
</g>
<g>
	<path class="st5" d="M46.9,83.7c-0.5,1-8.2,2.8-9.4,1.3c-1.6-2.1,2.1-2.6,5.3-3c0.8-0.6,0-2.8,1.5-2c0.9,0.5,0.8,1.2,0.5,1.8
		c1.3-0.1,2.2-0.3,2.2-0.5C46.9,81.9,47.2,83.2,46.9,83.7z"/>
</g>
<path class="st7" d="M36.5,84.7c0.2-1.9,2.7-2,3.4-0.3C40.6,86.5,37.3,85.6,36.5,84.7z"/>
<g>
	<path class="st6" d="M58.4,88.5c-0.1,1.9-2.5,3.1-3.8,1.5c-0.6-0.7-0.8-5.7-0.2-6.3C57.2,80.4,58.5,86.6,58.4,88.5z"/>
</g>
<g>
	<path class="st5" d="M58.3,87.9c-0.1,1.9-2.9,2.8-4,1.3c-0.4-0.6-0.5-6.5,0-7.2c0.2-0.3,1.6-1.2,2.2-0.9
		C57.2,81.6,58.4,86.9,58.3,87.9z"/>
</g>
<path class="st7" d="M58.3,87.9c-0.1,1.8-3.4,3-4.1,1.2C53.3,86.6,57.1,86.1,58.3,87.9z"/>
<g>
	<path class="st8" d="M42.9,15c-3.3-0.8-1.5,5.4-0.9,6.7C42.3,19.5,42.6,17.3,42.9,15z"/>
</g>
<path class="st1" d="M42,21c-2.6-2.4-4.7,1.4-2.2,2.6C42.5,25,42.3,22.5,42,21z"/>
<path class="st0" d="M56.9,22.3c-0.3,4.6-4.7,6.3-8.9,6.3c-5.2-0.1-6.3-2.5-6.3-7.2c0-6.7,2.2-9,8.9-8.2c2.6,0.3,6.1,3.1,6.4,4
	C57.5,18.6,57,20.7,56.9,22.3z"/>
<g>
	<path class="st8" d="M49.9,21.9c0.2,0.6,0.5,0.6,0.8,0.1C50.5,21.4,50.2,21.3,49.9,21.9z"/>
</g>
<g>
	<path class="st8" d="M42.9,21.7c0.2,0.6,0.5,0.6,0.8,0.1C43.5,21.2,43.2,21.2,42.9,21.7z"/>
</g>
<g>
	<path class="st8" d="M57.4,21.4c-0.4,0-1.3,0.1-1.7,0c-2.7-1.1-5.2-7.6-0.9-5.9c-2.8-2.3-8,0.4-11.3,0.2c-5.2-0.3-5.2-6.8,0.1-4.2
		c0.1,0-1.8-4.4,4.3,0.1l0,0c1.7-0.4,3.4-0.4,5,0.5c1.4,0.7,3.8,2.9,4.1,3.2C58.9,17.4,57.8,19.2,57.4,21.4z"/>
</g>
<path class="st1" d="M58.7,25.1c-1.5,0.6-3.6,0-3.5-1.1c0-0.3,0.5-1.9,0.5-1.9c0.2-1.2,0.9-2.8,3.1-1.9
	C60.9,21.1,60.9,24.3,58.7,25.1z"/>
<g>
	<g>
		<g>
			<path class="st9" d="M48.7,23.7c-0.5,1.5-2.8,1.5-3.5,0.1C46.4,23.4,47.5,23.5,48.7,23.7z"/>
		</g>
	</g>
	<path class="st7" d="M48.6,23.7c-0.8,0.5-2.4,0.8-3.2,0C46.6,23.5,47.5,23.5,48.6,23.7z"/>
</g>
<path class="st8" d="M42.3,18.1c0.1-0.1,2.4-1.4,2.3-0.3C44.5,18.4,42,18.5,42.3,18.1z"/>
<path class="st8" d="M51,17.8c-0.1-0.1-2.4-1.4-2.3-0.3C48.8,18.1,51.3,18.2,51,17.8z"/>
<g>
	<ellipse class="st7" cx="66" cy="44.23" rx="5.8" ry="5.68"/>
	<g>
		<path class="st8" d="M60.19,44.23c0-3.13,2.6-5.67,5.8-5.67c3.19,0,5.81,2.55,5.81,5.67c0,3.12-2.61,5.68-5.81,5.68
			C62.79,49.91,60.19,47.36,60.19,44.23z M65.21,40.36c0.1,0.62,0.18,1.23,0.29,1.85c0.02,0.1,0.11,0.23,0.21,0.28
			c0.63,0.31,1.26,0.61,1.9,0.9c0.07,0.03,0.19,0.05,0.25,0.01c0.56-0.29,1.12-0.59,1.76-0.92c-0.14-0.67-0.28-1.34-0.44-2.02
			c-0.02-0.07-0.12-0.14-0.2-0.18c-0.41-0.21-0.84-0.41-1.25-0.62c-0.27-0.14-0.53-0.15-0.83-0.04
			C66.32,39.82,65.73,39.98,65.21,40.36z M62.1,44.07c0.54,0.03,1.01,0.06,1.47,0.07c0.08,0,0.18-0.05,0.23-0.11
			c0.49-0.48,0.97-0.97,1.44-1.47c0.06-0.06,0.12-0.18,0.11-0.26c-0.09-0.63-0.19-1.27-0.3-1.97c-0.57-0.02-1.15-0.04-1.73-0.05
			c-0.06,0-0.13,0.06-0.18,0.11c-0.44,0.45-0.87,0.91-1.3,1.37c-0.05,0.05-0.1,0.15-0.09,0.21C61.85,42.67,61.97,43.36,62.1,44.07z
			 M68.7,47.02c0.36-0.16,0.7-0.31,1.06-0.46c0.59-0.24,0.96-0.64,0.96-1.3c0-0.3,0.12-0.63,0.03-0.89
			c-0.23-0.65-0.62-1.23-1.14-1.73c-0.6,0.31-1.19,0.63-1.8,0.95c-0.11,0.78-0.22,1.57-0.33,2.36
			C67.88,46.31,68.28,46.66,68.7,47.02z M64.36,47.67c0.14-0.39,0.29-0.78,0.43-1.17c0.02-0.05,0-0.13-0.02-0.18
			c-0.37-0.68-0.74-1.35-1.11-2.03c-0.54-0.02-1.06-0.05-1.65-0.08c-0.19,0.49-0.38,0.98-0.55,1.47c-0.03,0.09,0,0.22,0.05,0.31
			c0.21,0.4,0.43,0.79,0.66,1.18c0.05,0.08,0.12,0.17,0.21,0.2C63,47.62,63.67,47.69,64.36,47.67z M68.57,47.1
			c-0.36-0.32-0.71-0.63-1.07-0.92c-0.07-0.06-0.2-0.09-0.29-0.07c-0.68,0.11-1.37,0.22-2.05,0.36c-0.1,0.02-0.22,0.13-0.26,0.22
			c-0.12,0.28-0.23,0.56-0.3,0.85c-0.03,0.11,0,0.27,0.06,0.36c0.33,0.45,0.77,0.77,1.28,1.01c0.09,0.04,0.2,0.06,0.29,0.05
			c0.47-0.07,0.94-0.16,1.41-0.25c0.09-0.02,0.19-0.08,0.25-0.15C68.2,48.12,68.44,47.65,68.57,47.1z M60.78,42.2
			c0.48-0.17,0.87-0.37,1.18-0.75c0.3-0.38,0.65-0.74,1.02-1.06c0.34-0.3,0.39-0.7,0.58-1.1C62.37,39.78,61.14,41.07,60.78,42.2z
			 M71.45,42.87c-0.56,1.23-0.89,3.47-0.62,4.19C71.6,45.74,71.81,44.37,71.45,42.87z M65.29,49.66c0.98,0.28,3.18-0.23,3.78-0.88
			c-0.56-0.03-1.11-0.05-1.65,0.1c-0.26,0.07-0.53,0.14-0.8,0.14C66.06,49.03,65.7,49.36,65.29,49.66z M62.3,48.33
			c-0.23-1.26-0.77-2.35-1.83-3.15C60.68,46.45,61.28,47.5,62.3,48.33z M66.72,38.78c-0.02,0.04-0.03,0.07-0.05,0.11
			c0.34,0.2,0.66,0.42,1.01,0.6c0.42,0.22,0.87,0.39,1.28,0.63c0.31,0.19,0.62,0.2,1.03,0.24C69.03,39.46,67.96,38.94,66.72,38.78z"
			/>
	</g>
</g>
</svg>
