<?xml version="1.0" encoding="utf-8"?>
<!-- Generator: Adobe Illustrator 22.0.1, SVG Export Plug-In . SVG Version: 6.00 Build 0)  -->
<svg version="1.1" id="Layer_1" xmlns="http://www.w3.org/2000/svg" xmlns:xlink="http://www.w3.org/1999/xlink" x="0px" y="0px"
	 viewBox="0 0 100 100" style="enable-background:new 0 0 100 100;" xml:space="preserve">
<style type="text/css">
	.st0{fill:#FFF2F0;}
	.st1{fill:#FFE4E1;}
	.st2{fill:#FFC8BD;}
	.st3{fill:#FFFFFF;}
	.st4{fill:#FF855F;}
	.st5{fill:none;}
</style>
<g>
	<circle class="st0" cx="50" cy="50" r="36.4"/>
	<circle class="st1" cx="50" cy="50" r="31.7"/>
	<circle class="st2" cx="50" cy="50" r="28.6"/>
	<circle class="st3" cx="50" cy="50" r="26.8"/>
	<g>
		<g>
			<path class="st4" d="M70.5,32.7c-5-0.7-9.8,2.1-14.4,3.8c-4.3,1.6-10.2,5-15,4.2c-4.2-0.7-4.7-4.8-3.3-8.3c1.3-3.2,4.7-7.3,7.8-9
				c0,0,1.3-0.3,2.8-0.4C45,25,33.7,37.6,41.8,38.8C49.5,39.9,64.7,25.5,70.5,32.7z"/>
		</g>
		<g>
			<g>
				
					<rect x="47.9" y="34.9" transform="matrix(0.9382 -0.3461 0.3461 0.9382 -10.2591 19.2247)" class="st4" width="1.5" height="6.8"/>
			</g>
			<g>
				
					<rect x="54.4" y="32.6" transform="matrix(0.9382 -0.3461 0.3461 0.9382 -9.0435 21.2976)" class="st4" width="1.5" height="6.8"/>
			</g>
			<g>
				
					<rect x="60.8" y="30.2" transform="matrix(0.9382 -0.3461 0.3461 0.9382 -7.828 23.3705)" class="st4" width="1.5" height="6.8"/>
			</g>
		</g>
		<g>
			<g>
				
					<rect x="38.3" y="29.7" transform="matrix(0.2831 -0.9591 0.9591 0.2831 -3.7715 61.1506)" class="st4" width="1.5" height="6.8"/>
			</g>
			<g>
				
					<rect x="41.9" y="23.7" transform="matrix(7.775479e-02 -0.997 0.997 7.775479e-02 12.3019 67.562)" class="st4" width="1.5" height="6.8"/>
			</g>
		</g>
	</g>
	<g>
		<g>
			<path class="st4" d="M60.3,74.7c-8.2,3.4-15.4-9.1-20-14.5c-2.2-2.6-4.7-5.9-8-3.1c-2.5,2.1-3,6.4-3.5,9.4
				c-1.9-2.8-1.2-6.6,1.2-9.8c3.1-4,6.5-3.6,9.8-0.4C46,62.4,50.7,73.3,60.3,74.7z"/>
		</g>
		<g>
			<g>
				
					<rect x="32.2" y="53.3" transform="matrix(0.8393 -0.5437 0.5437 0.8393 -25.5521 27.0172)" class="st4" width="1.5" height="6.8"/>
			</g>
			<g>
				
					<rect x="27.5" y="58.5" transform="matrix(0.934 -0.3573 0.3573 0.934 -20.2611 14.177)" class="st4" width="1.5" height="6.8"/>
			</g>
		</g>
		<g>
			<g>
				
					<rect x="46.6" y="70.2" transform="matrix(0.8025 -0.5966 0.5966 0.8025 -32.4575 43.844)" class="st4" width="6.8" height="1.5"/>
			</g>
			<g>
				
					<rect x="42.5" y="64.7" transform="matrix(0.8025 -0.5966 0.5966 0.8025 -29.9903 40.3279)" class="st4" width="6.8" height="1.5"/>
			</g>
			<g>
				
					<rect x="38.4" y="59.2" transform="matrix(0.8025 -0.5966 0.5966 0.8025 -27.5232 36.8117)" class="st4" width="6.8" height="1.5"/>
			</g>
		</g>
	</g>
</g>
<rect x="10" y="10" class="st5" width="80" height="80"/>
</svg>
