<?xml version="1.0" encoding="utf-8"?>
<!-- Generator: Adobe Illustrator 24.1.0, SVG Export Plug-In . SVG Version: 6.00 Build 0)  -->
<svg version="1.1" id="Layer_1" xmlns="http://www.w3.org/2000/svg" xmlns:xlink="http://www.w3.org/1999/xlink" x="0px" y="0px"
	 viewBox="0 0 100 100" style="enable-background:new 0 0 100 100;" xml:space="preserve">
<style type="text/css">
	.st0{fill:#FFF2F0;}
	.st1{fill:#FFE4E1;}
	.st2{fill:#FFC8BD;}
	.st3{fill:#FFFFFF;}
	.st4{fill:none;}
	.st5{fill:#3C3449;}
</style>
<g>
	<circle class="st0" cx="50" cy="50" r="36.4"/>
	<circle class="st1" cx="50" cy="50" r="31.7"/>
	<circle class="st2" cx="50" cy="50" r="28.6"/>
	<circle class="st3" cx="50" cy="50" r="26.8"/>
</g>
<rect x="10" y="10" class="st4" width="80" height="80"/>
<g>
	<g>
		<path class="st5" d="M23.2,49.99c0-14.77,12-26.78,26.79-26.79C64.74,23.18,76.8,35.24,76.8,49.99
			c0,14.75-12.07,26.82-26.81,26.81C35.23,76.79,23.2,64.76,23.2,49.99z M46.38,31.68c0.44,2.92,0.85,5.83,1.36,8.72
			c0.09,0.49,0.52,1.09,0.95,1.31c2.89,1.47,5.82,2.87,8.75,4.26c0.34,0.16,0.87,0.23,1.18,0.07c2.61-1.36,5.18-2.78,8.11-4.36
			c-0.65-3.14-1.3-6.35-2.02-9.54c-0.08-0.34-0.54-0.67-0.9-0.86c-1.92-1-3.87-1.93-5.78-2.93c-1.26-0.66-2.45-0.72-3.82-0.2
			C51.55,29.15,48.79,29.92,46.38,31.68z M32.02,49.23c2.49,0.13,4.64,0.27,6.81,0.33c0.36,0.01,0.81-0.25,1.08-0.53
			c2.24-2.29,4.47-4.6,6.66-6.94c0.28-0.3,0.54-0.83,0.49-1.22c-0.4-3-0.88-5.98-1.39-9.3c-2.65-0.09-5.31-0.2-7.97-0.25
			c-0.28-0.01-0.61,0.3-0.84,0.54c-2.02,2.14-4.04,4.28-6.02,6.45c-0.24,0.26-0.48,0.69-0.44,1C30.9,42.6,31.46,45.88,32.02,49.23z
			 M62.51,63.16c1.65-0.73,3.25-1.48,4.88-2.16c2.74-1.14,4.42-3,4.43-6.14c0-1.42,0.57-2.98,0.15-4.23
			c-1.05-3.09-2.87-5.8-5.26-8.16c-2.75,1.49-5.48,2.96-8.29,4.48c-0.51,3.7-1.03,7.42-1.55,11.16
			C58.74,59.8,60.58,61.44,62.51,63.16z M42.49,66.22c0.67-1.86,1.34-3.67,1.96-5.5c0.08-0.24,0.02-0.61-0.11-0.85
			c-1.69-3.2-3.41-6.39-5.12-9.59c-2.49-0.12-4.89-0.23-7.62-0.36c-0.87,2.34-1.76,4.61-2.55,6.93c-0.14,0.42,0,1.04,0.22,1.46
			c0.96,1.88,1.98,3.74,3.03,5.58c0.22,0.38,0.57,0.81,0.96,0.96C36.2,66.01,39.27,66.31,42.49,66.22z M61.9,63.53
			c-1.68-1.5-3.27-2.97-4.92-4.37c-0.33-0.28-0.93-0.42-1.36-0.35c-3.16,0.51-6.31,1.05-9.45,1.68c-0.47,0.09-1.02,0.61-1.22,1.06
			c-0.57,1.3-1.05,2.66-1.41,4.04c-0.14,0.52-0.02,1.28,0.29,1.71c1.53,2.11,3.57,3.63,5.9,4.77c0.4,0.2,0.93,0.3,1.36,0.23
			c2.17-0.35,4.34-0.75,6.5-1.19c0.42-0.09,0.89-0.38,1.13-0.72C60.2,68.33,61.31,66.11,61.9,63.53z M25.94,40.37
			c2.2-0.8,4.04-1.73,5.44-3.57c1.38-1.82,3.01-3.47,4.71-5c1.56-1.4,1.82-3.3,2.7-5.18C33.27,28.96,27.61,35.04,25.94,40.37z
			 M75.19,43.54c-2.59,5.8-4.12,16.37-2.87,19.78C75.88,57.1,76.87,50.63,75.19,43.54z M46.75,75.62
			c4.51,1.34,14.67-1.07,17.46-4.15c-2.61-0.15-5.12-0.24-7.62,0.48c-1.2,0.34-2.46,0.67-3.69,0.67
			C50.33,72.62,48.64,74.18,46.75,75.62z M32.95,69.33c-1.04-5.95-3.56-11.09-8.44-14.88C25.47,60.44,28.27,65.4,32.95,69.33z
			 M53.38,24.22c-0.08,0.17-0.15,0.34-0.23,0.51c1.55,0.96,3.07,1.98,4.67,2.85c1.94,1.05,4.03,1.83,5.89,2.99
			c1.41,0.88,2.87,0.92,4.74,1.11C64.02,27.42,59.1,25,53.38,24.22z"/>
	</g>
</g>
</svg>
