<?xml version="1.0" encoding="utf-8"?>
<!-- Generator: Adobe Illustrator 22.0.1, SVG Export Plug-In . SVG Version: 6.00 Build 0)  -->
<svg version="1.1" id="Layer_1" xmlns="http://www.w3.org/2000/svg" xmlns:xlink="http://www.w3.org/1999/xlink" x="0px" y="0px"
	 viewBox="0 0 100 100" style="enable-background:new 0 0 100 100;" xml:space="preserve">
<style type="text/css">
	.st0{fill:#262030;}
	.st1{fill:none;}
	.st2{fill:#BC624A;}
	.st3{fill:#FFDCD2;}
	.st4{fill:#1F3972;}
	.st5{fill:#DBAD95;}
	.st6{fill:#1D704C;}
	.st7{fill:#38936E;}
	.st8{fill:#AD5544;}
	.st9{fill:#F9EDAA;}
	.st10{fill:#D39F88;}
	.st11{fill:#201830;}
	.st12{fill:#3C3449;}
	.st13{fill:#DEF6FF;}
	.st14{fill:#D8D5E0;}
	.st15{fill:none;stroke:#B6AFC6;stroke-width:0.25;stroke-miterlimit:10;}
	.st16{fill:#B6AFC6;}
</style>
<ellipse transform="matrix(0.9946 -0.1035 0.1035 0.9946 -3.4233 3.0311)" class="st0" cx="27.495" cy="34.501" rx="11.1" ry="10.6"/>
<rect x="10" y="10" class="st1" width="80" height="80"/>
<g>
	<g>
		<path class="st2" d="M77.5,83.2c-1.2,0.6-7-5.5-7.2-5.5l-0.1-4c0,0,5.5-2.8,6.7,0.9C77,74.9,78.8,82.6,77.5,83.2z"/>
		<g>
			<circle class="st3" cx="74.8" cy="80.4" r="0.2"/>
		</g>
		<g>
			<circle class="st3" cx="74.5" cy="78.8" r="0.2"/>
		</g>
		<path class="st4" d="M70.3,82.7c0.9,0.2,5,0.7,7.3-0.8c0,0-1.5-8.4-2.3-9l1.3,0.1c0,0,1.8,5.9,2.2,8.6c0.1,0.7-0.3,1.3-0.9,1.5
			c-1.4,0.6-4.3,1.4-7.3,0.6l-0.4-0.9C70.2,82.8,70.3,82.7,70.3,82.7z"/>
	</g>
</g>
<polygon class="st5" points="73.6,80.7 76,80.5 75.3,78.3 72.1,78.1 "/>
<g>
	<path class="st2" d="M82.8,87c-1.1,0.7-6.6-1.6-5.6-2.4c0.1-0.1,1.4-0.8,1.4-0.8s-1-1.5-2.1-2c-0.4-0.2-1.7-0.3-1.9-0.3L74.5,78
		c0,0,5.6-3.3,6.9,0.3C81.5,78.5,84.1,86.2,82.8,87z"/>
	<path class="st4" d="M75.5,87.2c0.9,0.1,5.1,0.2,7.4-1.5c0,0-2.3-8.4-3.2-8.9h1.4c0,0,2.4,5.8,3.1,8.6c0.2,0.7-0.2,1.3-0.8,1.7
		c-1.4,0.7-4.2,1.8-7.4,1.3l-0.5-0.9C75.4,87.2,75.4,87.1,75.5,87.2z"/>
</g>
<g>
	<path class="st6" d="M70.3,71.3c-42.8,16.6-37.5-0.1-37.5-0.2C36.1,61,70.3,71.3,70.3,71.3z"/>
</g>
<path class="st7" d="M72.9,78c-1.8-0.1-3.4-0.1-4.9-0.1c2.9-1.1,5.1-3.2,4.8-6.9c0,0-41.2,0.3-37.1,10.2c1.9,4.7,12.2,4.6,21.4,3.4
	c6.4-0.8,12.7-2.4,16.5-3.9L72.9,78z"/>
<path class="st5" d="M40.2,51.6c-1.4-0.3-10.9-3.4-13-4.6c-5.6-3.3,2.8-6.2,3.7-6c0.9,0.2,4.8,5.9,5,5.9
	C38.7,47.4,40.5,51.7,40.2,51.6z"/>
<g>
	<path class="st8" d="M66.4,47c-2.7,3.8-6.5,8.6-10.2,11.2c-1.9,1.3-21.5-7.7-21.5-7.7l2-4.2L52,52.1c0.4-0.6,7.5-9,9.2-10.5
		C61.2,41.6,69,43.3,66.4,47z"/>
</g>
<g>
	<path class="st9" d="M64.8,72.5c-0.1,0-9.7-1.1-9.7-1.1l6.1-29.6l3.6,0.2C64.7,42.9,64.8,72.4,64.8,72.5z"/>
</g>
<g>
	<path class="st2" d="M73.5,71.5c0,0-6.3,4-12.7,1.5c0,0,3.4-29.6,3.9-31c0,0,3.5-0.3,5.3,2.3C71.2,46.2,73.5,71.5,73.5,71.5z"/>
</g>
<g>
	<g>
		<g>
			<path class="st10" d="M51.4,32.1c-1,0-1.4-1.7,0-1.3C51.6,30.8,51.7,32.1,51.4,32.1z"/>
		</g>
		<path class="st10" d="M64.4,37.6v4.5c0,0-2,1.6-3.2,0l-0.1-3.8C61.1,38.3,62.8,37.9,64.4,37.6z"/>
		<path class="st5" d="M68.1,30.8c-0.3,9-12.8,11.6-16,3.9c1.1-0.1,1.6-0.4,1.9-1.4c-0.5,0.1-1,0.3-1.6,0.3c-1.2,0.1-1-1.5-1-1.5
			c-1.7-17.7,6.3-14.3,7.3-14.4C59.7,17.5,68.5,18.8,68.1,30.8z"/>
		<g>
			<path class="st11" d="M74.2,28.4c-1,6-9.8,9.4-9.8,9.4c-0.1,0-6.1-13.3-3-15.7c1.9-1.5,4.4,0.2,4.4,0.2s-0.4-0.3-1-0.8
				c-3.7-3-8.1,0.5-11.9,0c-8.6-1-4.9-9-1-7.2c3.3,1.4,4.3,3.2,5.3,2.7c0.8-0.4,1.8-0.8,2.7-1.1l0,0C63.4,15.1,76.3,16,74.2,28.4z"
				/>
		</g>
	</g>
</g>
<g>
	<path class="st10" d="M63.8,34.7c-1.6,0.9-3.9-0.5-3.8-1.3c0-0.1,1.4-0.6,1.7-2c0.2-1-1.3-0.6-1.3-2c0.1-1.5,2.8-3.3,4.3-1.2
		C66.3,30.3,65.4,33.8,63.8,34.7z"/>
</g>
<path class="st12" d="M56.4,26.4c-0.6-0.7-1.6-1.4-2.9-0.8c-0.4,0.2-0.3,0.7,0.1,0.8c0.7,0.1,1.7,0.3,2.5,0.6
	C56.4,26.9,56.6,26.6,56.4,26.4z"/>
<g>
	<ellipse class="st12" cx="54.027" cy="29.145" rx="0.6" ry="0.6"/>
</g>
<path class="st8" d="M62.6,51.6c0,0-2.7-10.7,2-11.6c8.2-1.5,5.8,5.8,5.8,5.8L62.6,51.6z"/>
<g>
	<path class="st13" d="M38.6,33.4c0.2,1.6-0.1,3.1-0.7,4.6c-1.8-0.2-3.3-2-3.5-4.4c-0.2-2.2,0.8-4.2,2.3-4.9
		C37.8,30.1,38.5,31.7,38.6,33.4z"/>
</g>
<g>
	<ellipse transform="matrix(0.9946 -0.1035 0.1035 0.9946 -3.5122 2.9215)" class="st13" cx="26.395" cy="35.303" rx="4" ry="4.8"/>
</g>
<path class="st5" d="M44,56.7c-0.9-0.1-4.1-1-6.4-1.9c-1.2,0-6.6-0.8-9-2.1c-4.7-2.7-4.3-5.2-0.6-5.2c2.2,0,6.9,3,9,4.3
	c0,0,7.9,1.2,8.6,1.6C45.8,53.4,44.3,56.8,44,56.7z"/>
<path class="st14" d="M40.9,36.7c-0.4,2-1.8,6-5.5,8.7c-1.9,1.4-8.9,2.6-9.9,2.5c-2.5-0.2-5.6-2.1-6.6-2.9c-2.4-2-4.3-5.2-4.3-5.2
	c-0.1-0.2-0.2-0.4-0.2-0.4c0.1,0,8,0.5,11.7,0.2l0,0c0.3,0,3.7-0.4,4.9-0.6c0,0,2.5-0.4,3.6-0.7C38.4,37.6,40.9,36.7,40.9,36.7z"/>
<polyline class="st15" points="14.3,39.5 17.5,42.5 26.9,39.8 29.4,42.9 38.5,42.3 "/>
<path class="st16" d="M35.4,45.4c-1.9,1.4-4.2,2.3-6.7,2.6c-1.1,0.1-2.2,0.1-3.2,0l4-5.1L35.4,45.4z"/>
<path class="st16" d="M35.3,39.8c0.1,1.3-0.8,2.4-2,2.5c-1.3,0.1-2.4-0.8-2.5-2c0-0.5,0-0.9,0.2-1.3l0,0c1.3-0.2,2.5-0.4,3.6-0.7
	C34.9,38.7,35.2,39.3,35.3,39.8z"/>
<path class="st16" d="M25.2,43l-2.8,4.2c-1.4-0.5-2.6-1.3-3.6-2.1l-1.3-2.6L25.2,43z"/>
<g>
	
		<ellipse transform="matrix(0.9946 -0.1035 0.1035 0.9946 -3.4844 3.0451)" class="st12" cx="27.599" cy="35.097" rx="1.5" ry="1.9"/>
</g>
<g>
	
		<ellipse transform="matrix(0.9946 -0.1035 0.1035 0.9946 -3.2797 3.9894)" class="st12" cx="36.801" cy="33.597" rx="1.5" ry="1.9"/>
</g>
<path class="st14" d="M40,28.9c0,0-3,0.9-6.9,1.7c-0.8,0.2-1.7,0.3-2.6,0.5c-1.1,0.2-2.3,0.3-3.4,0.5c-6.8,0.7-13.6,0.1-13.6,0.1
	s3.1-6.2,3.2-6.2c1.9-2.4,3.6-4.4,9.4-5.1c4.1-0.5,8.2,1.3,10.9,4C38.2,25.5,40,28.7,40,28.9z"/>
<path class="st16" d="M22.6,27.6l-2.7,4.3c-2,0-4.1-0.1-6.3-0.3c0,0,0.8-3.2,3.2-6.2L22.6,27.6z"/>
<circle class="st16" cx="23.3" cy="23.9" r="2.3"/>
<path class="st16" d="M35.8,26.6l-2.7,4c-0.8,0.2-1.7,0.3-2.6,0.5l-2.5-5L35.8,26.6z"/>
<g>
	<path class="st2" d="M69.5,50.5c-2.7,3.3-10.9,10.6-11.7,10.9c-1.6,0.5-18.9-6-18.9-6l1.5-3.4l14.3,2.6c0.5-0.6,10-10,10.1-10
		C68.4,42,72.3,47,69.5,50.5z"/>
</g>
<g>
	<path class="st2" d="M57.7,61.4h-0.1h-0.1C57.6,61.4,57.7,61.4,57.7,61.4z"/>
</g>
<polyline class="st15" points="22.1,27.7 28.1,26.1 26.9,20.3 "/>
<polyline class="st15" points="37,24.3 35.8,26.6 38.6,29.3 "/>
</svg>
