<?xml version="1.0" encoding="utf-8"?>
<!-- Generator: Adobe Illustrator 22.0.1, SVG Export Plug-In . SVG Version: 6.00 Build 0)  -->
<svg version="1.1" id="Layer_1" xmlns="http://www.w3.org/2000/svg" xmlns:xlink="http://www.w3.org/1999/xlink" x="0px" y="0px"
	 viewBox="0 0 100 100" style="enable-background:new 0 0 100 100;" xml:space="preserve">
<style type="text/css">
	.st0{fill:none;stroke:#E6E6E6;stroke-width:0.4341;stroke-miterlimit:10;}
	.st1{fill:#4686B2;}
	.st2{fill:#E6E6E6;}
	.st3{fill:#8FCCB8;}
	.st4{fill:#67A08B;}
	.st5{fill:#F9EDAA;}
	.st6{fill:#DDCA6C;}
	.st7{fill:#1F3972;}
	.st8{fill:none;}
	.st9{fill:#5C839E;}
	.st10{fill:#EEFCFF;}
	.st11{opacity:0.25;fill:url(#SVGID_1_);}
	.st12{opacity:0.25;fill:url(#SVGID_2_);}
	.st13{opacity:0.25;fill:url(#SVGID_3_);}
	.st14{fill:#FF855F;}
	.st15{fill:#BC624A;}
	.st16{fill:none;stroke:#BC624A;stroke-width:0.2;stroke-miterlimit:10;}
</style>
<g>
	<polyline class="st0" points="29.8,22.7 29.8,19.3 50.9,19.3 	"/>
	<polyline class="st0" points="65.2,30.2 65.2,26.9 51.5,26.9 	"/>
	<polyline class="st0" points="36.6,38.8 36.6,36.1 50.9,36.1 	"/>
	<circle class="st1" cx="65.2" cy="33.5" r="3.3"/>
	
		<rect x="50.3" y="11.5" transform="matrix(-1 -4.445656e-11 4.445656e-11 -1 101.8508 54.157)" class="st2" width="1.2" height="31.1"/>
	<g>
		<g>
			<circle class="st3" cx="29.7" cy="25.9" r="3.2"/>
		</g>
		<g>
			<path class="st4" d="M26.6,26.7c0.3,1.2,1.3,2.2,2.6,2.4c-0.6-0.8-1.7-2.8,1-3.4c1.5-0.3,1.6-1.5,1.4-2.4
				c-0.1-0.1-0.2-0.2-0.3-0.2c-0.3,1.9-1.5,1.9-2.8,2.2C27.7,25.5,26.9,26,26.6,26.7z"/>
		</g>
		<g>
			<path class="st4" d="M32.3,27.8c0.7-1,0.6-2.1,0.6-2.2C27.1,26.8,30,28.5,32.3,27.8z"/>
		</g>
		<path class="st4" d="M26.6,25c0.4-0.2,1-0.4,2-0.4c1.5,0,2-1.3,2.1-1.7c-0.3-0.1-0.6-0.1-1-0.1C28.3,22.7,27,23.7,26.6,25z"/>
	</g>
	<g>
		<g>
			<circle class="st5" cx="36.6" cy="42" r="3.2"/>
		</g>
		<g>
			<g>
				<path class="st6" d="M36.5,43.6c-0.4,0-0.6,0-0.9,0.1C34,45.8,38.9,43.7,36.5,43.6z"/>
			</g>
			<path class="st6" d="M35.5,43.3C35.5,44.1,35.5,42.5,35.5,43.3z"/>
			<path class="st6" d="M34.9,44.1c0.4,0,0.4-1.2-0.2-1C34.3,43.6,34.3,43.9,34.9,44.1z"/>
		</g>
		<g>
			<g>
				<path class="st6" d="M36.3,41.5c0.2,0,1,0.1,0.5-0.5C36.3,40.3,35.8,41.6,36.3,41.5z"/>
			</g>
			<g>
				<path class="st6" d="M36.7,40.6c0.3,0,0.6-0.1,0.8-0.4C37.7,38.2,34.4,40.4,36.7,40.6z"/>
			</g>
			<path class="st6" d="M37.6,40.9C37.3,40.1,37.8,41.7,37.6,40.9z"/>
			<path class="st6" d="M37.9,39.9c-0.4,0.1-0.1,1.3,0.5,0.9C38.6,40.3,38.5,40,37.9,39.9z"/>
		</g>
	</g>
	<g>
		<g>
			<g>
				<path class="st7" d="M63.6,34.1c0.5-0.8,3.5-4.3,4.1-2.2C68.2,33.7,64.7,34.3,63.6,34.1z M62,33.4c0,0.7,1,0.5,1.2,0.8
					c0.4,0.5-0.5,0.9,0.5,1.5c1,0.6,4.5-0.7,4.7-1.8c-0.7,0.6-4.4,3-5,1.2c-0.3-1,2.6-0.9,3.3-1.3c1.6-0.8,1.8-3.3-0.5-2.8
					c-1.7,0.3-2.9,4.4-4.3,2.1C62,33.2,62,33.3,62,33.4z"/>
			</g>
		</g>
	</g>
	<g>
		<polygon class="st6" points="42.6,25.5 41.6,27.5 39.4,27.8 41,29.4 40.6,31.6 42.6,30.6 44.6,31.6 44.2,29.4 45.9,27.8 
			43.6,27.5 		"/>
	</g>
	<g>
		<polygon class="st6" points="60.2,15.9 59.2,17.9 56.9,18.2 58.5,19.8 58.2,22 60.2,21 62.2,22 61.8,19.8 63.4,18.2 61.2,17.9 		
			"/>
	</g>
</g>
<rect x="10" y="10" class="st8" width="80" height="80"/>
<path class="st9" d="M13.7,83.2c0,10.5,74.4,8.9,74.4-0.5C88.2,75,13.7,75.1,13.7,83.2z"/>
<g>
	<g>
		<path class="st10" d="M47.3,86c-3.4-0.6-2.2-1.7,0-2.1c2.7-0.4,6.9,0,7,1C54.4,86.7,48.2,86.1,47.3,86z M52,84.9
			c-1.1-0.8-4.5-0.5-4.6,0.1C47.4,85.7,52.9,85.6,52,84.9z"/>
	</g>
</g>
<g>
	<g>
		<g>
			<path class="st10" d="M54.7,80.5l2.8-1.4l1.2,0.2l-1.8,0.9l0.9,0.2l1.6-0.8l1.1,0.2L59,80.5l1.1,0.2l1.8-0.9l1.3,0.2l-2.9,1.4
				L54.7,80.5z"/>
		</g>
	</g>
</g>
<g>
	<g>
		<path class="st10" d="M49.8,82.8l1.4-0.7l4.1,0.4l-3-0.9l1.4-0.7l5.9,1l-0.9,0.4l-4.5-0.8l3.8,1.1l-0.8,0.4l-5.2-0.5l4.5,0.8
			l-0.9,0.4L49.8,82.8z"/>
	</g>
</g>
<g>
	<g>
		<path class="st10" d="M38.4,87.3l1.5-0.6l2.8,0.4l1.6-0.6l-2.8-0.4l1.5-0.6l8,1.1l-1.5,0.6l-3.2-0.5l-1.6,0.6l3.2,0.5l-1.5,0.6
			L38.4,87.3z"/>
	</g>
</g>
<linearGradient id="SVGID_1_" gradientUnits="userSpaceOnUse" x1="57.9176" y1="80.9922" x2="57.9176" y2="51.511">
	<stop  offset="9.475160e-02" style="stop-color:#B1D6FF"/>
	<stop  offset="0.4823" style="stop-color:#B1D6FF"/>
</linearGradient>
<polygon class="st11" points="61.4,80.1 55.3,51.8 54.4,51.5 55.9,81 "/>
<linearGradient id="SVGID_2_" gradientUnits="userSpaceOnUse" x1="50.9652" y1="83.9552" x2="50.9652" y2="44.723">
	<stop  offset="9.475160e-02" style="stop-color:#B1D6FF"/>
	<stop  offset="0.4823" style="stop-color:#B1D6FF"/>
</linearGradient>
<polygon class="st12" points="53.9,84 51.8,45.1 51,44.7 48,82.9 "/>
<linearGradient id="SVGID_3_" gradientUnits="userSpaceOnUse" x1="43.69" y1="87.3236" x2="43.69" y2="51.0793">
	<stop  offset="9.475160e-02" style="stop-color:#B1D6FF"/>
	<stop  offset="0.4823" style="stop-color:#B1D6FF"/>
</linearGradient>
<polygon class="st13" points="38.4,87.3 48,51.1 49,51.9 47.3,86 "/>
<circle class="st14" cx="52" cy="48.6" r="7.4"/>
<g>
	<g>
		<path class="st15" d="M44.8,50.3c0.6,2.6,2.6,4.6,5.2,5.4c-1.1-2.3-1.5-5.5,3.9-5.7c4.4-0.2,3.8-4.8,3.4-6.6
			c-0.4-0.4-0.9-0.8-1.4-1.1C59.4,52.8,46,45.9,44.8,50.3z"/>
	</g>
	<g>
		<path class="st15" d="M48.8,41.9c3-0.6,3.1,4.3,5.3,4c1.4-0.2,0.6-3.4,0.2-4.3c-0.7-0.2-1.5-0.4-2.3-0.4
			C50.8,41.2,49.8,41.4,48.8,41.9z"/>
	</g>
	<g>
		<path class="st15" d="M52.1,55.9c3.1,0,5.8-2,6.8-4.7c-0.5-1.4-1.5-2.3-1.7-0.2c-0.2,2.5-0.8,3.2-1.7,3.7
			c-2.9,1.6-2.9-2.9-3.7-3.5C50.5,50.3,49.5,54.5,52.1,55.9z"/>
	</g>
</g>
<path class="st16" d="M47.1,43.1c3.6-1.1,3.2,2.4,5.2,3.6c0.7,0.5,2.6,0.9,3.4-0.9c0.4-1,0-2.8-0.3-3.9"/>
</svg>
