<?xml version="1.0" encoding="utf-8"?>
<!-- Generator: Adobe Illustrator 22.0.1, SVG Export Plug-In . SVG Version: 6.00 Build 0)  -->
<svg version="1.1" id="Layer_1" xmlns="http://www.w3.org/2000/svg" xmlns:xlink="http://www.w3.org/1999/xlink" x="0px" y="0px"
	 viewBox="0 0 100 100" style="enable-background:new 0 0 100 100;" xml:space="preserve">
<style type="text/css">
	.st0{fill:none;}
	.st1{fill:#3E6B7F;}
	.st2{fill:#38936E;}
	.st3{fill:#DEF6FF;}
	.st4{fill:#D39475;}
	.st5{fill:#D39F88;}
	.st6{fill:#BC624A;}
	.st7{fill:#342947;}
</style>
<rect x="10" y="10" class="st0" width="80" height="80"/>
<g>
	<path class="st1" d="M88,51.9C88,70.1,75.1,81,50.8,81.5C29.8,81.9,12,70.1,12,51.9s17.4-30.1,38.4-31.1C73.9,19.6,88,33.7,88,51.9
		z"/>
	<path class="st2" d="M53.9,57.4c5.5-4.4,9.9-8.6,13.8-4.9c3.4,3.3-2.2,15.1-11.9,17.6C46.1,72.5,48.4,61.8,53.9,57.4z"/>
	<path class="st2" d="M33.7,57.8c2.1-4.2,15.1-2.3,20.3,6.3S31.3,62.6,33.7,57.8z"/>
	<g>
		<path class="st3" d="M52.3,32.1l3,6.2c0.1,0.2,7.3,1.3,7.3,1.3c0.5,0.1,0.7,0.7,0.4,1.1c0,0-5.1,5.2-5.1,5.4l1.2,6.8
			c0.1,0.5-0.5,0.9-0.9,0.7L52,50.3c-0.2-0.1-6.7,3.2-6.7,3.2c-0.5,0.2-1-0.2-0.9-0.7l1.2-6.8c0-0.2-5.1-5.4-5.1-5.4
			c-0.4-0.4-0.2-1,0.4-1.1c0,0,7.2-1.1,7.3-1.3l3-6.2C51.3,31.6,52,31.6,52.3,32.1z"/>
		<path class="st4" d="M75.3,65.9c0.1-1.1-3-0.4-4.2-0.3c0,0,3.2-1.3,3.1-1.8c-0.2-0.9-5.2,0.8-5.4,0c0.7-1,1.4-2.1,1-2.4
			c-0.7-0.5-6.5,4.1-6.5,4.1s-1.3,5.1-0.1,5l2.4-1.5c1.9,0.6,8.5,1.8,8.8,1c0.2-0.6-2.8-1.5-2.8-1.5c1.5,0,3.4,0.3,3.4-0.7
			c0-0.7-2.2-0.8-3.5-0.8C73,67,75.2,66.6,75.3,65.9z"/>
		<path class="st5" d="M43.3,48.9c0,0,3.8-5.2,2.9-5.7c-0.5-0.3-1.6,1-2.5,2.3c0.7-1.2,2.1-3.5,1.1-3.8c-0.6-0.2-1.7,1.6-2.5,3.1
			c0,0,1.9-3.4,1.3-3.7c-0.9-0.5-2.7,2.8-2.7,2.8c0,0,1.3-3.1,0.7-3.4c-0.8-0.2-1.6,1.4-2.2,2.8C39.1,43.4,36,52,36,52l3.4,2.3
			l2.3-3.2C41.8,51.1,51.5,47.1,43.3,48.9z"/>
		<path class="st5" d="M40.8,43.7C40.8,43.7,40.8,43.7,40.8,43.7C40.8,43.7,40.8,43.7,40.8,43.7C40.8,43.7,40.8,43.7,40.8,43.7z"/>
		<path class="st6" d="M66.1,70.3c-0.8,1.2-2.4,3.2-2.4,3.2c-9.6,13.5-43,2.4-33.2-14.9c3.2-5.6,4.9-8.3,4.9-8.3s3.7,0.3,6.3,3.6
			c0,0-2.8,8.6-2.1,11c0.3,1,16.9,2,17.2,2c1.8-2.5,7.6-3.3,7.6-3.3C66.5,65.9,66.1,70.3,66.1,70.3z"/>
		<path class="st6" d="M33.2,74.6L33.2,74.6C33.2,74.6,33.2,74.6,33.2,74.6L33.2,74.6z"/>
		<g>
			<path class="st5" d="M37.2,70.7c-1,0-1.9-1.4-1.9-3.2s0.8-3.2,1.9-3.2C38.2,64.3,38.2,70.7,37.2,70.7z"/>
			<path class="st5" d="M60.2,67.5c0,1.8-0.8,3.2-1.9,3.2c-1,0-1-6.4,0-6.4C59.4,64.3,60.2,65.7,60.2,67.5z"/>
			<path class="st7" d="M49,76.7c-0.4,0.3-1,0.2-1.6-0.1c-4.3,2.9-10.5-2.7-10.5-9.6c0-5.2,3.6-10.2,9.3-9.2
				c0.2-0.8,0.8-1.3,1.4-1.3c0.5,0,0.9,0.2,1.1,0.6c0,0,0,0,0,0c0.4-1.5,1.6-2.5,2.8-2.2c1.1,0.3,1.7,1.5,1.5,2.8
				c2.5,0.7,5,3.1,5.3,9.5C58.6,71.6,56.7,78,49,76.7z"/>
		</g>
		<path class="st3" d="M26,35.9c0,0,2.1,0.3,2.2,0.2l1.3-1.4c0.2-0.2,0.5-0.1,0.5,0.2c0,0,0.3,2.1,0.4,2.1l1.7,0.9
			c0.2,0.1,0.2,0.5,0,0.6c0,0-1.9,1-1.9,1.1L30,41.5c0,0.3-0.4,0.4-0.5,0.2l-1.3-1.4c-0.1-0.1-2.2,0.2-2.2,0.2
			c-0.3,0-0.5-0.2-0.3-0.5l0.9-1.7c0-0.1-0.9-2-0.9-2C25.6,36.1,25.8,35.9,26,35.9z"/>
		<path class="st3" d="M40.7,25.7c0,0,1.3,1.6,1.4,1.6l1.9-0.1c0.3,0,0.4,0.3,0.3,0.5l-1.1,1.6c-0.1,0.1,0.7,2.1,0.7,2.1
			c0.1,0.2-0.1,0.5-0.4,0.4l-1.8-0.5c-0.1,0-1.8,1.3-1.8,1.3c-0.2,0.2-0.5,0-0.5-0.2c0,0-0.1-2.1-0.2-2.2l-1.6-1
			c-0.2-0.1-0.2-0.5,0.1-0.6l1.8-0.7c0.1,0,0.7-2.1,0.7-2.1C40.2,25.6,40.5,25.5,40.7,25.7z"/>
		<path class="st3" d="M61.2,25.5l0.2,1.9c0,0.1,1.9,1.1,1.9,1.1c0.2,0.1,0.2,0.5,0,0.6l-1.7,0.8c-0.1,0-0.5,2.1-0.5,2.1
			c0,0.3-0.4,0.4-0.5,0.2l-1.3-1.4c-0.1-0.1-2.2,0.2-2.2,0.2c-0.3,0-0.5-0.2-0.3-0.5c0,0,1-1.9,0.9-2l-0.8-1.7
			c-0.1-0.2,0.1-0.5,0.3-0.5c0,0,2.1,0.3,2.1,0.3l1.4-1.3C60.9,25.1,61.2,25.2,61.2,25.5z"/>
		<path class="st3" d="M75.7,38.4c0,0-0.9,1.9-0.9,2l0.9,1.7c0.1,0.2-0.1,0.5-0.3,0.5l-1.9-0.3c-0.1,0-1.6,1.5-1.6,1.5
			c-0.2,0.2-0.5,0.1-0.5-0.2l-0.3-1.9c0-0.1-1.9-1.1-1.9-1.1c-0.2-0.1-0.2-0.4,0-0.6l1.7-0.9c0.1,0,0.4-2.1,0.4-2.1
			c0-0.3,0.4-0.4,0.5-0.2c0,0,1.5,1.5,1.6,1.4l1.9-0.3C75.7,37.9,75.9,38.2,75.7,38.4z"/>
		<path class="st3" d="M78.7,54.4l-1.3,1.3c-0.1,0.1-0.1,0.2-0.1,0.3l0.3,1.9c0,0.3-0.2,0.5-0.5,0.3l-1.7-0.9c-0.1,0-0.2,0-0.3,0
			l-1.7,0.9c-0.2,0.1-0.5-0.1-0.5-0.3l0.3-1.9c0-0.1,0-0.2-0.1-0.3l-1.4-1.3c-0.2-0.2-0.1-0.5,0.2-0.5l1.9-0.3
			c0.1,0,0.2-0.1,0.2-0.2l0.8-1.7c0.1-0.2,0.4-0.2,0.6,0l0.9,1.7c0,0.1,0.1,0.2,0.2,0.2l1.9,0.3C78.8,53.9,78.9,54.2,78.7,54.4z"/>
	</g>
</g>
</svg>
