<?xml version="1.0" encoding="utf-8"?>
<!-- Generator: Adobe Illustrator 22.0.1, SVG Export Plug-In . SVG Version: 6.00 Build 0)  -->
<svg version="1.1" id="Layer_1" xmlns="http://www.w3.org/2000/svg" xmlns:xlink="http://www.w3.org/1999/xlink" x="0px" y="0px"
	 viewBox="0 0 100 100" style="enable-background:new 0 0 100 100;" xml:space="preserve">
<style type="text/css">
	.st0{fill:none;}
	.st1{fill:#1B2435;}
	.st2{fill:none;stroke:#769BA8;stroke-width:0.5939;stroke-miterlimit:10;}
	.st3{fill:none;stroke:#769BA8;stroke-width:0.5939;stroke-miterlimit:10;stroke-dasharray:1.3112,1.9669;}
	.st4{fill:#D39F88;}
	.st5{fill:#DBAD95;}
	.st6{fill:#3D374C;}
	.st7{fill:#3C3449;}
	.st8{fill:#AD5544;}
	.st9{fill:#BC624A;}
	.st10{fill:#3E6B7F;}
	.st11{fill:#78CCCC;}
	.st12{fill:#F9EDA9;}
</style>
<rect x="10" y="10" class="st0" width="80" height="80"/>
<g>
	<path class="st1" d="M72.5,80.4c-9.4,8.6-18.9,2.1-29.9,4.5C25.5,88.6,14.2,81.6,13,71.5c-1.5-11.9,6.8-12.4,9.8-20.5
		c3.8-10.2-7.6-19.4,3.7-28.9c14-11.8,46.4-14.6,52.8,6.6c1.4,4.5,0.9,7.6,3.6,12.2c3.2,5.4,5.6,8.6,3.8,14.9
		C84.6,63.2,78.2,75.2,72.5,80.4z"/>
	<g>
		<g>
			<path class="st2" d="M47.9,39.1c0,0,0.2-0.2,0.5-0.5"/>
			<path class="st3" d="M49.9,37.4c2.2-1.5,6.1-3,10.6,0.2C68.1,43.1,59.2,60.2,42,57S25.1,20.9,58,22.8
				c17.7,1.1,27.3,21.6,20.1,37.9c-7,15.6-26,22.2-40.7,20.2C27.2,79.5,19.2,73,15.2,69.4"/>
			<path class="st2" d="M14.5,68.7c-0.2-0.2-0.3-0.3-0.5-0.4"/>
		</g>
	</g>
	<g>
		<g>
			<path class="st4" d="M59,51.6c0.8,1.8-1.2,0.4-0.9,0.1"/>
		</g>
		<path class="st5" d="M73.3,48.2c-0.2,4.7-1.5,10.8-7.2,11.2c-2.1,0.2-5.4-0.6-6.6-3.1c0.9-0.6,1-2.4-0.7-2.8
			c0-0.3,0.7-7.3,2.4-9.3c1.2-1.5,3.6-3,5.7-2.5C67.7,41.9,73.3,47.7,73.3,48.2z"/>
	</g>
	<path class="st6" d="M69.2,58.6c0.6-1-0.2-6.5-0.2-6.6c-0.2-0.4-5.4-2.9-1.1-6.4c0-0.1-6.4-1.1-6.8-1.3c-1.5-0.6-3.2-1.3-3.3-3.4
		c-0.3-4.4,3-2.1,5.4-0.7c-0.7-1.3,0.4-2.4,1.6-2.1c0.6,0.2,1,2,4.1,2.3C78.4,41.4,82.2,55.5,69.2,58.6z"/>
	<path class="st6" d="M69.2,58.6c-0.1,0.1-0.2,0.2-0.4,0.1C69,58.6,69.1,58.6,69.2,58.6z"/>
	<g>
		<path class="st5" d="M69.4,56.1c-1.4,0.5-2.3-4.2-2.2-4.6c0.2-1.2,2.6-2.4,3.6-0.6C71.8,52.8,70.7,55.6,69.4,56.1z"/>
	</g>
	<path class="st7" d="M62.9,49.1c-0.4-0.6-1.1-1.3-2.3-1c-0.3,0.1-0.3,0.5,0,0.6c0.6,0.2,1.3,0.4,1.9,0.7
		C62.8,49.6,63.1,49.3,62.9,49.1z"/>
	<g>
		<ellipse class="st7" cx="60.8" cy="50.9" rx="0.5" ry="0.5"/>
	</g>
	<path class="st8" d="M80,80.5c-4.6,6.9-16.4-16.6-18-16.6s4.8-6.3,10.6-3.4C75,61.7,84,74.5,80,80.5z"/>
	<path class="st5" d="M49,55.8c0-0.4-1.5-1.1-1.8,1.9c-0.5-0.6-2.6-3.8-3-4.6c-0.6-1-2-1-1,0.8c0.4,0.7,0.9,1.4,1.3,2.2
		c0,0-1.3-1.5-1.9-2.4c-0.7-1.2-1.9-0.6-0.9,0.9c0.5,0.9,1.2,1.6,1.7,2.5c-0.6-0.7-1.2-1.4-1.7-2.2c-0.7-1.1-1.7-0.3-1,0.8
		c0.7,1,1.4,1.9,2.2,2.8c0,0.1-1.5-1.1-2.2-1.8c-0.8-0.9-2-0.4-0.9,0.9c0.7,0.8,1.5,1.5,2.3,2.2l0,0c3.6,4.3,5.7,1.3,5.8,1.1l0,0
		C48.2,60.3,48.8,57,49,55.8z"/>
	<g>
		<path class="st9" d="M75.8,87h-17l0.4-11.2c-8.1,7.6-14-12.8-14-12.8s2.3-2.4,3.8-2.4l7.8,8.5c4.9-9.4,14.5-8.7,14.5-8.7
			C78,67.9,75.8,87,75.8,87z"/>
	</g>
	<g>
		<circle class="st10" cx="46" cy="42.6" r="4.1"/>
		<g>
			<path class="st11" d="M48.6,39.5c0.1,0.1,0.1,2-0.3,2.2c-1.3,0.8-1.4-1.7-2.5-1.3c-1.8,0.6,0.4,1.9,0.4,2.3c0,0.1,0.1,2.5-0.6,2
				c-0.3-0.2,0.4-0.9-0.4-1c-0.5-0.1-1.4,0.4-1.7,0.1c-0.3-0.3,0.6-2.6-1.5-2.1C42.9,38.7,46.4,37.6,48.6,39.5z"/>
		</g>
		<g>
			<path class="st11" d="M47.6,46.4c-0.9,0.4-2,0.4-3,0.1c0-0.4,0.2-1.2,1.4-1.2C47.3,45.2,47.2,46.1,47.6,46.4z"/>
		</g>
		<g>
			<path class="st11" d="M49.9,43.8c-0.2,0.5-0.6,1.4-1.3,1.9c-0.1-0.4-0.6-0.9-0.4-1.3C48.3,43.9,49.1,43.5,49.9,43.8z"/>
		</g>
	</g>
	<polygon class="st12" points="30.9,44 31.4,45.1 32.6,45.2 31.8,46.1 32,47.3 30.9,46.7 29.8,47.3 30,46.1 29.2,45.2 30.4,45.1 	
		"/>
	<polygon class="st12" points="58,26.6 58.6,27.6 59.7,27.8 58.9,28.7 59.1,29.9 58,29.3 56.9,29.9 57.1,28.7 56.3,27.8 57.5,27.6 	
		"/>
</g>
</svg>
