<?xml version="1.0" encoding="utf-8"?>
<!-- Generator: Adobe Illustrator 22.0.1, SVG Export Plug-In . SVG Version: 6.00 Build 0)  -->
<svg version="1.1" id="Layer_1" xmlns="http://www.w3.org/2000/svg" xmlns:xlink="http://www.w3.org/1999/xlink" x="0px" y="0px"
	 viewBox="0 0 100 100" style="enable-background:new 0 0 100 100;" xml:space="preserve">
<style type="text/css">
	.st0{fill:none;}
	.st1{fill:#4686B2;}
	.st2{fill:#1B5266;}
	.st3{fill:#163D49;}
	.st4{fill:#937BC6;}
	.st5{fill:#121A28;stroke:#4686B2;stroke-width:0.5941;stroke-linecap:round;stroke-linejoin:round;stroke-miterlimit:10;}
	.st6{fill:none;stroke:#DAE0EA;stroke-width:0.2546;stroke-miterlimit:10;}
	.st7{fill:#3E6B7F;}
	.st8{fill:none;stroke:#4686B2;stroke-width:0.2546;stroke-linecap:round;stroke-linejoin:round;stroke-miterlimit:10;}
	.st9{fill:#F9EDAA;}
	.st10{fill:#FF855F;}
</style>
<rect x="10" y="10" class="st0" width="80" height="80"/>
<g>
	<g>
		<path class="st1" d="M36.3,41.6c0,0-4.7-9.1-19.4-9.3c-0.7,0-0.9,1-0.3,1.3C20.7,35.2,27.4,39,29,45.1L36.3,41.6z"/>
	</g>
	<g>
		<path class="st1" d="M36.3,63.2c0,0-4.7,9.1-19.4,9.3c-0.7,0-0.9-1-0.3-1.3c4.1-1.7,10.8-5.4,12.4-11.5L36.3,63.2z"/>
	</g>
	<path class="st2" d="M81.1,64.8C70,68.6,38.5,70.5,29,61.1V44.9c0,0,17.3-9.2,31.8-7.8L89,55.6C89,55.6,92.2,61.1,81.1,64.8z"/>
	<g>
		<path class="st1" d="M33.4,60.5c-2.2,0-2.2-2.4,0-2.4l55.2,0c1.8,0.1,1.5,2.4,0.1,2.4C88.6,60.4,33.4,60.5,33.4,60.5z"/>
	</g>
	<path class="st3" d="M81.1,64.8c-10.9,4.6-28.8,8-45.6,0H81.1z"/>
	<g>
		<rect x="27.5" y="44.3" class="st4" width="1.5" height="17.2"/>
	</g>
	<path class="st5" d="M53,67.2L44.2,67c-2.4-8.1-1.5-19.5-1.5-19.5L54,47.4C54,47.4,55.3,64.6,53,67.2z"/>
	<g>
		<path class="st1" d="M34.4,52.9c0,2-2.5,3.6-9.4,3.6S9.5,54.3,9.5,52.9c0-1.3,8.6-3.6,15.5-3.6S34.4,51,34.4,52.9z"/>
	</g>
	<path class="st6" d="M16.2,32.7c0,0,11.7,0.8,17.3,10"/>
	<path class="st6" d="M16.5,72.3c0,0,13.9-2.5,16.4-8.9"/>
	<line class="st6" x1="9.5" y1="52.9" x2="34.4" y2="52.9"/>
	<g>
		<polygon class="st7" points="43.6,77.6 32.2,77.6 32.3,76.2 34.7,75.1 34.8,73.7 37.2,72.6 37.2,71.2 39.7,70.1 39.7,68.7 
			42.9,67.1 53.5,67 49.1,73 		"/>
		<g>
			<g>
				<rect x="42.2" y="66.2" class="st1" width="11.4" height="1.4"/>
			</g>
			<g>
				<rect x="39.7" y="68.7" class="st1" width="11.4" height="1.4"/>
			</g>
			<g>
				<rect x="37.2" y="71.2" class="st1" width="11.4" height="1.4"/>
			</g>
			<g>
				<rect x="34.7" y="73.7" class="st1" width="11.4" height="1.4"/>
			</g>
			<g>
				<rect x="32.2" y="76.2" class="st1" width="11.4" height="1.4"/>
			</g>
		</g>
		<path class="st2" d="M43.7,77.6L43.7,77.6l0-1.4l2.5-1.1l0-1.4l2.5-1.1v-1.3l2.4-1.2v-1.4l2.6-1.9l0,0c0,0,0,0,0,0
			C53.8,67.5,53.9,78.2,43.7,77.6z"/>
		<path class="st2" d="M53.8,66.7C53.8,66.7,53.8,66.8,53.8,66.7L53.8,66.7L53.8,66.7z"/>
	</g>
	<g>
		<line class="st8" x1="54.2" y1="37.4" x2="54.2" y2="32.3"/>
		<circle class="st9" cx="54.1" cy="32.2" r="1"/>
	</g>
	<g>
		<line class="st8" x1="56.1" y1="37.2" x2="56.1" y2="30"/>
		<circle class="st10" cx="56" cy="29.6" r="0.8"/>
	</g>
	<path class="st2" d="M53.8,66.7L53.8,66.7C53.8,66.8,53.8,66.8,53.8,66.7L53.8,66.7z"/>
	<path class="st5" d="M86.9,58.4c0,0-26.4-0.1-26.6-0.2c-0.5-0.3-0.9-0.8-0.9-1.4V39c0-1.1,0.9-1.8,2-1.8C75.3,37.4,87.3,50,89,55.3
		C89.4,56.8,90.2,58.4,86.9,58.4z"/>
</g>
</svg>
