<?xml version="1.0" encoding="utf-8"?>
<!-- Generator: Adobe Illustrator 22.0.1, SVG Export Plug-In . SVG Version: 6.00 Build 0)  -->
<svg version="1.1" id="Layer_1" xmlns="http://www.w3.org/2000/svg" xmlns:xlink="http://www.w3.org/1999/xlink" x="0px" y="0px"
	 viewBox="0 0 100 100" style="enable-background:new 0 0 100 100;" xml:space="preserve">
<style type="text/css">
	.st0{fill:none;}
	.st1{fill:#B6AFC6;}
	.st2{fill:#F4CF34;}
	.st3{fill:#FFEC5F;}
	.st4{fill:#FFFFFF;}
	.st5{fill:#78CCCC;}
	.st6{fill:#FFF255;}
	.st7{fill:#262030;}
	.st8{fill:#DEF6FF;}
	.st9{fill:#D8D5E0;}
	.st10{fill:none;stroke:#B6AFC6;stroke-width:0.3716;stroke-miterlimit:10;}
	.st11{fill:#3C3449;}
</style>
<rect x="10" y="10" class="st0" width="80" height="80"/>
<g>
	<g>
		<rect x="48.7" y="39.9" class="st1" width="1.2" height="13.7"/>
		<g>
			<path class="st2" d="M45.4,7.9c2.5,3.7,1.5,8.7-2.2,11.1c-3.7,2.5-8.7,1.5-11.1-2.2c0,0,0-0.1-0.1-0.1L45.4,7.9
				C45.4,7.8,45.4,7.8,45.4,7.9z"/>
			<path class="st3" d="M44.1,8.7c3.7,4.7-2.8,14.7-10.7,7.2c0,0,0,0,0-0.1L44.1,8.7C44.1,8.6,44.1,8.7,44.1,8.7z"/>
			<path class="st2" d="M40.2,11.3c1.1,1.8-1.2,3.7-3,2L40.2,11.3z"/>
			<path class="st4" d="M41.9,16c-0.5,0.3-1.6-1.3-1.2-1.8C41,14,42.7,15.5,41.9,16z"/>
			<path class="st4" d="M39,16.9c-0.6,0-0.4-2.1,0-2.1C39.6,14.8,39.7,17,39,16.9z"/>
		</g>
		<g>
			<path class="st2" d="M65.9,34.3c-3.4-1-5.4-4.6-4.3-8c1-3.4,4.7-5.3,8.1-4.3h0.1L65.9,34.3L65.9,34.3z"/>
			<path class="st3" d="M66.2,33.1c-7.4-3.8-2-11.6,3-9.8c0,0,0,0,0.1,0L66.2,33.1C66.3,33.1,66.3,33.1,66.2,33.1z"/>
			<path class="st2" d="M67.4,29.5c-1.8-0.9-0.9-3.1,0.8-2.7L67.4,29.5z"/>
			<path class="st4" d="M63.9,27.5c0.2-0.6,1.8,0.1,1.7,0.5C65.5,28.2,63.8,27.7,63.9,27.5z"/>
			<path class="st4" d="M65.2,25.4c0.4-0.4,1.6,0.8,1.1,1.3C66.1,26.9,65,25.6,65.2,25.4z"/>
		</g>
		<g>
			<circle class="st5" cx="49.2" cy="40.5" r="1.7"/>
		</g>
		<g>
			<path class="st5" d="M59.5,29.2c0,5.7-4.6,10.3-10.3,10.3s-10.3-4.6-10.3-10.3v-0.1L59.5,29.2C59.5,29.1,59.5,29.2,59.5,29.2z"/>
		</g>
		<g>
			<path class="st5" d="M55.1,44.3H42.8c0-1.3,2.8-2.3,6.2-2.3S55.1,43,55.1,44.3z"/>
		</g>
		<path class="st3" d="M46.1,32.7c-1.6,1.5-1.8-1.5-3-2.3c-0.2-0.1-1.3-0.2-1.5-0.1c-0.9,0.8-0.3,3.5-1.5,3.8
			c-1.4,0.3-1.8-6.4-1.7-7.1c0.2-3.1,2.9-5.4,6-5.2C47.5,22.1,52.4,26.8,46.1,32.7z"/>
		<circle class="st2" cx="49.2" cy="24" r="5.9"/>
		<path class="st6" d="M55,27.9c-3,0.4-5.5-2.5-5.5-5.5s2.5-5.1,5.5-5.5C61.2,16,65.3,26.5,55,27.9z"/>
	</g>
	
		<ellipse transform="matrix(0.9995 -0.0319 0.0319 0.9995 -2.2324 1.6232)" class="st7" cx="49.7" cy="70.701" rx="16.9" ry="15.8"/>
	<g>
		<path class="st8" d="M35.4,63.4c2.3,0.8,4.1,3.6,4.1,6.9c0.1,3.6-1.9,6.5-4.5,7c-1.1-2.1-1.8-4.3-1.7-6.7
			C33.2,68.1,34,65.6,35.4,63.4z"/>
	</g>
	<g>
		<ellipse transform="matrix(0.005 -1 1 0.005 -20.2888 123.0032)" class="st8" cx="51.664" cy="71.697" rx="7.1" ry="5.9"/>
	</g>
	<path class="st9" d="M49.7,78c10,0,20.2-2,20.3-2c0,0-6.7,21.5-29.7,12.4c-5.9-3.5-9-9.6-9.9-12.5C30.4,75.9,40,77.9,49.7,78z"/>
	<polyline class="st10" points="34.7,83.8 48.3,83.3 51.5,78.4 65.8,81 70.1,76.1 	"/>
	<path class="st1" d="M48.2,83.5l6.7,7c-1.5,0.3-3.1,0.5-4.7,0.5c-3.7-0.1-7.3-1.1-10.3-2.9L48.2,83.5z"/>
	<path class="st1" d="M39.9,77.3c1.7,0.3,3.5,0.4,5.4,0.5l0,0c1.6,2.5,0.4,5.3-2.9,5.2C39.4,82.9,37.9,79.4,39.9,77.3z"/>
	<path class="st1" d="M65.8,81l-1.5,4c-1.4,1.3-3,2.7-5,3.6l-4.8-5.8L65.8,81z"/>
	<g>
		<ellipse transform="matrix(0.005 -1 1 0.005 -22.0207 120.9811)" class="st11" cx="49.782" cy="71.556" rx="2.8" ry="2.2"/>
	</g>
	<g>
		<ellipse transform="matrix(0.005 -1 1 0.005 -34.8122 106.3257)" class="st11" cx="36.022" cy="70.656" rx="2.8" ry="2.2"/>
	</g>
	<path class="st9" d="M34.3,57.1c3.6-4.4,9.4-7.7,15.5-7.5c14.9,0.1,19.9,14.5,19.9,14.5s-9.1,2.5-22,1.9
		c-8.8-0.1-17.2-1.8-17.2-1.8C30.5,63.9,32.7,58.9,34.3,57.1z"/>
	<path class="st1" d="M64.4,55.6c4,4.1,5.6,8.7,5.6,8.7c-3.2,0.6-6.3,1.1-9.3,1.4l-4.6-6L64.4,55.6z"/>
	<circle class="st1" cx="54.5" cy="54.3" r="3.4"/>
	<path class="st1" d="M47.9,58.3l-3,7.8c-1.4-0.2-2.7-0.2-3.9-0.4l-4.6-5.5L47.9,58.3z"/>
	<polyline class="st10" points="48.7,49.5 47.8,58.3 56.9,59.8 	"/>
	<polyline class="st10" points="32.7,64.6 36.4,60.2 34.3,56.9 	"/>
</g>
</svg>
