<?xml version="1.0" encoding="utf-8"?>
<!-- Generator: Adobe Illustrator 22.0.1, SVG Export Plug-In . SVG Version: 6.00 Build 0)  -->
<svg version="1.1" id="Layer_1" xmlns="http://www.w3.org/2000/svg" xmlns:xlink="http://www.w3.org/1999/xlink" x="0px" y="0px"
	 viewBox="0 0 100 100" style="enable-background:new 0 0 100 100;" xml:space="preserve">
<style type="text/css">
	.st0{fill:none;}
	.st1{fill:#DBAD95;}
	.st2{fill:#1F3972;}
	.st3{fill:#FFFFFF;}
	.st4{fill:#AD5544;}
	.st5{fill:#38936E;}
	.st6{fill:#F9EDAA;}
	.st7{fill:#BC624A;}
	.st8{fill:#3C3449;}
	.st9{fill:#D39F88;}
	.st10{fill:#7C4E45;}
</style>
<rect x="10" y="10" class="st0" width="80" height="80"/>
<path class="st1" d="M75.2,63.4l2.2,1.3c0,0,1.1-0.5,0.9-1.6l-2-1.5C76.3,61.6,76.6,63,75.2,63.4z"/>
<g>
	<g>
		<path class="st2" d="M86,58.6c-0.1,0.7-0.4,1.8-1.3,2.6c-1.4,1.3-4.8,5.4-4.8,5.4l-1.2-0.7l5.1-8.5C84.2,57.1,86.2,56.8,86,58.6z"
			/>
	</g>
	<path class="st3" d="M77.8,65.3c0.7,0.4,1.6,0.9,1.6,0.9s0.3-0.5,0.8-1.1C79,64.5,77.8,65.3,77.8,65.3z"/>
	<g>
		<path class="st4" d="M82,58.4c-0.5,0.5-2,2.4-2.6,2.9c-0.8,0.7-1.7-0.6-2.5-0.2c-1.3,0.6,0.5,1.6,1.6,1.8c-0.9,1.1-1.5,2-1.7,1.8
			c2.7,2.8,7.6-4.3,7.6-4.3C83.6,59.8,83.8,56.2,82,58.4z"/>
	</g>
	<path class="st3" d="M85.1,57.3c0,0-1.6-0.9-2.3,0.9c-0.6,1.8,1.1,2.6,1.1,2.6S85.8,59.2,85.1,57.3z"/>
</g>
<g>
	<path class="st1" d="M70.3,72.6l1.1,1.7c0,0-0.6,1.3-1.7,1.3l-1.4-1.7C68.4,73.8,70,73.2,70.3,72.6z"/>
	<g>
		<g>
			<path class="st2" d="M74.2,81.7c1,0.5,2.5-0.1,3-1.4c0.2-0.6-0.3-2.4-0.3-1.7C76.5,81,74,81.6,74.2,81.7z"/>
		</g>
		<g>
			<path class="st4" d="M76.9,78.5c0.8,0.6-3.4-3.1-4.1-3.3c-0.1,0-1.1-1.3-2.1-1.2c-1.2,0.7-0.9,1.8-0.2,2.8
				c0.3,1.4,3.7,5.5,2.9,4.1C71.7,78.2,74.6,76.8,76.9,78.5z"/>
		</g>
	</g>
</g>
<g>
	<path class="st5" d="M63,51.9c-4.6-2.5-9.7-4.6-14.6-6.3c-0.7,2-1.4,4-2,6.1c-0.6,1.9-0.5,1.7,1.1,2.8c3.6,2.3,8.1,4.4,11.2,7.3
		c2.9,2.7,5.2,6.7,7.7,9.8c0.6,0.8,1.6,3.1,2.6,2.8c3-0.7,0.3-3.6,0-4.4C66.4,62,55.6,54.3,51.8,51.8c8.9,2.1,22.1,11.6,23.3,11.7
		c1.5,0.1,1.7-1.3,1-2.3C74.6,59.4,65.5,53.2,63,51.9z"/>
</g>
<path class="st6" d="M35.8,38c0,0,2.4,0.5,3.6-0.9L52,49c0,0-4.3,6.4-6.8,6.7C44.9,55.7,35.8,38,35.8,38z"/>
<g>
	<path class="st7" d="M44.4,59.3C38.8,57.2,32.1,44.4,34,38.4c2.8,1.1,12.6,11.2,12.6,11.4C48,53.5,43.4,58.9,44.4,59.3z"/>
</g>
<path class="st1" d="M61.8,32.2c0.1-0.3-1.4,0-1.9,0.3c0-0.1,1.4-2.5,1.3-3.3c-0.1-0.5-1.1,0.9-1.6,1.9c0.3-0.8,1-2.4,0.7-2.8
	c-0.3-0.5-1.1,1.4-1.5,2.5c0.2-0.7,0.6-2.1,0.5-2.5c-0.3-0.7-1.1,1.3-1.2,2.5c0,0,0.3-2.4-0.1-2.1c-0.6,0.4-1.1,3.6-1.4,4
	c-0.5,0.6-1.6,1-2.2,1.5c1.4,1.4,2.3,1.4,4.1,0.2C58.6,34.3,61.2,33.2,61.8,32.2z"/>
<g>
	<path class="st7" d="M57.2,35.3c0,0-2-2.6-2-2.5c-2.2,1.1-4.8,2.8-6,3c-1.1,0.2-8.1,1.3-8.3,1.3c0,0.1,0,2.2,0.4,2.6
		c0.3,0.4,11.3,12.4,14.3,8.5c-2.1-1.5-5.7-4.9-8.9-7.6C46.7,40.6,53.3,39.5,57.2,35.3z"/>
</g>
<g>
	<path class="st4" d="M30.9,32.3c-0.6,5.3,8.9,3.9,8.6,9.1c-4.7,0.1-16.1-4.3-9.3-10.1C30.5,31.6,30.7,32,30.9,32.3z"/>
</g>
<path class="st4" d="M41.6,38.7c0,0.4,0,0.8-0.1,1.2C34.7,36,41.7,32.8,41.6,38.7z"/>
<path class="st8" d="M43.3,28.2c-0.2,2.9-3.6,3.6-4.5,0.7C37.7,25,43.6,23.8,43.3,28.2z"/>
<g>
	<path class="st9" d="M43.3,33.3c-2.6,1.4-3.3-2.8-1-3.5C44.3,29.2,45.1,32.3,43.3,33.3z"/>
</g>
<path class="st8" d="M33.6,35.2c0-0.8-2-10.8-4.8-6.2c-1.3,2.2,0.8,5.7,2.4,7.1C32.7,37.4,35.6,38.7,33.6,35.2z"/>
<path class="st1" d="M32,33.8c-0.2-2-1.1-4,0-5.9c1.7-2.8,8.2-3.5,10.1-0.4c0.8,1.4,0.7,3.4,0.9,5C43.9,39.5,32.7,39.3,32,33.8z"/>
<g>
	<g>
		<path class="st10" d="M41,33.8L38,34.3c0,0,0.2,1.2,1.7,0.9C41.1,35,41,33.8,41,33.8z"/>
	</g>
	<path class="st3" d="M41,33.8c0,0-0.3,0.6-1.2,0.7c-1,0.2-1.1,0.1-1.7-0.2L41,33.8z"/>
</g>
<g>
	<circle class="st8" cx="36.7" cy="32.9" r="0.3"/>
</g>
<g>
	<circle class="st8" cx="41.7" cy="32.1" r="0.3"/>
</g>
<g>
	<path class="st1" d="M32.6,32.6c0,0-1.3-1.4-2.5-0.3c-1.2,1-0.2,3.7,2.1,3.2C34.1,35.1,33.3,33,32.6,32.6z"/>
</g>
<path class="st8" d="M36.5,30.4c-0.5,0.2-2.2,1.8-1.8,0.3C35.1,29.3,37.1,30.1,36.5,30.4z"/>
<path class="st8" d="M42.1,29.8c-0.5-0.1-3.1-0.5-1.4-1C42,28.4,42.7,30,42.1,29.8z"/>
<path class="st8" d="M37.2,23.1c-1-3.8-3.8-1.3-3.6,0.6c0.2,2.2-5.1,1.7-2.7,5.8c3-1.9,5.8-1.3,9-2.5C45.4,24.8,42,19.7,37.2,23.1z"
	/>
<path class="st1" d="M16.3,39.2c0.3-0.6,1.4-2.9,0.7-3.2c-0.6-0.3-1.2,1-1.5,1.7c-0.3-1.1-1.2-4.5-1.9-4.2c-0.1,0.1,0.2,1.9,0.6,3.2
	c-0.1,0-1.2-3-2-3.1c-0.6,0,0.5,2.4,1.1,3.5c0,0,0,0,0,0c-0.5-1.1-1.3-2.6-2-2.7c-0.2-0.1,0.5,2.3,1.4,3.3c0,0-1.4-1.6-1.9-1.6
	c-0.2,0.1,0.6,1.5,1.4,2.5c0.2,0.5,1,1.6,1.9,2.1c1.8,1.5,5.6,3.1,7.9,2.6C25.5,42.6,16.5,39.3,16.3,39.2z"/>
<path class="st7" d="M18.2,39c0.5,1.3,0.7,3.8-0.5,4.8c3.1,0.7,20.9,4.5,19.9-1.5C36.8,37.3,21.2,39.4,18.2,39z"/>
</svg>
