<svg id="Layer_1" data-name="Layer 1" xmlns="http://www.w3.org/2000/svg" xmlns:xlink="http://www.w3.org/1999/xlink" viewBox="0 0 100 100"><defs><style>.cls-1{fill:none;}.cls-2{fill:#259afc;}.cls-3{fill:#fbbf65;}.cls-4{fill:#322980;}.cls-5{fill:#fcc065;}.cls-6{fill:#fbc265;}.cls-7{fill:#ffc164;}.cls-8{fill:#ef9f00;}.cls-9{fill:#2a1f07;}.cls-10{fill:#7a5817;}.cls-11{fill:#f9c265;}.cls-12{fill:#2a1e04;}.cls-13{fill:#1d1d1b;}.cls-14{clip-path:url(#clip-path);}.cls-15{fill:#fff;}.cls-16{fill:#b7b2b2;}.cls-17{fill:#d1cdcd;}.cls-18{clip-path:url(#clip-path-2);}.cls-19{fill:#c5ebe4;}</style><clipPath id="clip-path"><path class="cls-1" d="M49.63,19.17c-4.8-.39-6.2,5.24-6.49,8.66s3.55,5.1,3.23,9l-.13,1.56a2.19,2.19,0,0,0,4.37.36l.11-1.34c.63.13.08.23,1.25.6,2.75.89,4.54-3.73,5.14-4.27,1.64-1.47,0-.59,1.22-4.4C60.31,23.32,57.85,19.85,49.63,19.17Z"/></clipPath><clipPath id="clip-path-2"><path class="cls-1" d="M17.13,62.51H50.19a3.17,3.17,0,0,1,3.08,2.42l4.14,13.62S47.22,81.63,44,81.63l-26.84,0Z"/></clipPath></defs><title>CH1-1</title><path class="cls-2" d="M56.44,58.83l-.15,1L56.1,61l-.1.67-.23,1.5H53.36l-6.84,0a4.06,4.06,0,0,1-4-4.09V56.94l5.11.57h0l3.25.36v-.2l.86.18h0a3.34,3.34,0,0,0,1.07.73l.09,0a3,3,0,0,0,1.62.13,5.29,5.29,0,0,1,1.18-.07h0l.64.13Z"/><path class="cls-2" d="M58.3,60.74a2.24,2.24,0,0,1-1.68,2.41,2,2,0,0,1-.85,0h0a2.22,2.22,0,0,1-.67-.23,2.1,2.1,0,0,1-.91-.93,1.67,1.67,0,0,1-.19-.5,2.18,2.18,0,0,1,.68-2.16,2.14,2.14,0,0,1,.94-.5,2.17,2.17,0,0,1,.8,0h0l.17,0h0a2,2,0,0,1,.91.48,2.15,2.15,0,0,1,.71,1.14Z"/><polygon class="cls-2" points="53.97 61.52 57.54 74.33 60.84 73.53 58.25 60.49 53.97 61.52"/><rect class="cls-2" x="57.45" y="73.92" width="3.68" height="0.81" transform="translate(-15.81 16.01) rotate(-13.59)"/><polygon class="cls-3" points="61.3 78.14 60.85 78.17 58.99 78.27 58.93 77.96 58.83 77.47 58.58 76.15 58.46 75.56 58.46 75.55 58.43 75.39 58.35 74.97 59.56 74.68 60.55 74.44 60.68 75.08 60.86 75.98 60.93 76.3 60.93 76.32 61.03 76.8 61.22 77.74 61.3 78.14"/><path class="cls-4" d="M66.59,77.49l.08.43a11.71,11.71,0,0,1-3.27.57,11.43,11.43,0,0,1-4.31-.75l1.84-1.42Z"/><path class="cls-2" d="M55.76,59.65l-.32,1.52-.13.64L55.07,63l0,.23-.16.78h-.21l-1.13-.07-7.88-.47a4.05,4.05,0,0,1-3.81-4.28L42,56.88l.55.06,5.11.57h0l7,1.85,1,.26h.05Z"/><polygon class="cls-2" points="53.15 62.21 56.05 75.19 59.39 74.56 57.48 61.4 53.15 62.21"/><rect class="cls-2" x="55.96" y="74.86" width="3.68" height="0.81" transform="matrix(0.98, -0.18, 0.18, 0.98, -12.88, 11.94)"/><path class="cls-3" d="M59.41,77.83l-.33-.08c-.3.45-.77,1-1.15,1.09a.84.84,0,0,1-.76-.46l-.35-2.51h0l1.5-.28.74-.13.1.65.13.9h0l.05.32h0Z"/><path class="cls-4" d="M65,79.24l-7.87,1c0-.6-.11-.36.23-1.61.12-.18,1.4-.25,2.07-1.37C60.06,77.8,62.9,77.47,65,79.24Z"/><path class="cls-4" d="M50.88,56.93v.94l-3.25-.36h0l-5.11-.57L42,56.88l-.16,0L43,47.43a17.7,17.7,0,0,1,1.25-5.49,19.77,19.77,0,0,1,2-3.52l4.37,1.32L50.76,49,51,50.8l.15,0,.12.8-.45.05,0,0v0l-.28,0L49,51.84,47.66,52a1.5,1.5,0,0,0,.25.4l-.07,0a29.19,29.19,0,0,0,3,4.5Z"/><path class="cls-5" d="M57.64,59c0,.21,0,.31-.1.33a2,2,0,0,0-.91-.48h0a2.44,2.44,0,0,0-.86-.17h0a5.29,5.29,0,0,0-1.18.07,3,3,0,0,1-1.62-.13l-.09,0a3.34,3.34,0,0,1-1.07-.73h0a11.28,11.28,0,0,1-.87-.92h0a29.19,29.19,0,0,1-3-4.5l.07,0a1.5,1.5,0,0,1-.25-.4L49,51.84l1.51-.17.28,0h0c.92,1.78,2,3.57,3.41,4.37h0a3.69,3.69,0,0,1,3,1.77l0,0a2.79,2.79,0,0,1,.21.53,1.13,1.13,0,0,1,0,.15A3,3,0,0,1,57.64,59Z"/><path class="cls-6" d="M50.82,51.63h0v0Z"/><path class="cls-4" d="M50.82,51.63h0v0Z"/><path class="cls-7" d="M57.54,59.35c-.11,0-.31-.08-.6-.3a1.57,1.57,0,0,0-.31-.18A2,2,0,0,1,57.54,59.35Z"/><path class="cls-8" d="M55.87,57.72a3.5,3.5,0,0,1,1,.47,2.38,2.38,0,0,1,.75.83A4.35,4.35,0,0,0,55.87,57.72Z"/><path class="cls-8" d="M55.76,57.22a3.5,3.5,0,0,1,1,.47,2.35,2.35,0,0,1,.75.82A4.33,4.33,0,0,0,55.76,57.22Z"/><path class="cls-8" d="M57.25,57.78a4.54,4.54,0,0,0-1.74-1.25,3.43,3.43,0,0,1,1,.46A2.46,2.46,0,0,1,57.25,57.78Z"/><path class="cls-5" d="M59,25.4a.39.39,0,0,1-.2.14l-.07-1.38a3.27,3.27,0,0,1-1.15.2c-2.51,0-2.46-.64-5.35-1.12h-.09c-4.93-.39-7.75.23-8.65,2.37a20.44,20.44,0,0,0-.32,2.24c-.19,2.37,1.6,3.91,2.6,6h0a5.75,5.75,0,0,1,.62,3.07l-.13,1.56a2.19,2.19,0,0,0,4.37.36l.09-1.14c.32.09.74.23,1.27.4,2.75.89,4.07-3,4.67-3.53a4.25,4.25,0,0,1,1.22-.7.23.23,0,0,0,.12-.33,7.38,7.38,0,0,1,.35-4.11A11.23,11.23,0,0,0,59,25.4ZM44.55,30.91a1.72,1.72,0,0,1-1-1.57,1.78,1.78,0,0,1,.15-.71A1.71,1.71,0,0,1,46,27.77l1.28.57.38,4Z"/><path class="cls-5" d="M47.63,32.3l-3.08-1.39a1.72,1.72,0,0,1-1-1.57,1.78,1.78,0,0,1,.15-.71A1.71,1.71,0,0,1,46,27.77l1.28.57Z"/><path class="cls-9" d="M52.21,23.23h0Z"/><path class="cls-9" d="M57.77,20.12v0h0Z"/><path class="cls-9" d="M57.77,20.12v0h0Z"/><path class="cls-9" d="M57.77,20.12v0h0Z"/><path class="cls-10" d="M52.21,23.23h0a2.58,2.58,0,0,0-.32,1.43,16.81,16.81,0,0,0,0,2c0,1.3-2.05,1.34-4.63,1.68l-.68.1-.15,0a.6.6,0,0,0-.32.59,13.19,13.19,0,0,0,.54,2.75,1.09,1.09,0,0,1,0,.24h0c.19,1,.12,1.79-.93,1.7h0c-.23-.21-3.22-3.13-2.56-7,0-.19,0-.38.07-.57a3,3,0,0,1,.21-.62c.9-2.14,3.72-2.76,8.65-2.37h.1Z"/><path class="cls-9" d="M43.33,25.41c0,.26-.06.53-.08.8l0,.1C43.24,26,43.28,25.71,43.33,25.41Z"/><path class="cls-9" d="M60.75,22.48A1.86,1.86,0,0,1,61,24.59s-.58-.65-.94-.66a1.28,1.28,0,0,1-.24,1.6l-.35-1.06a11.67,11.67,0,0,1-.67,1.07l-.07-1.38a3.27,3.27,0,0,1-1.15.2c-2.51,0-2.46-.64-5.35-1.12h-.05s-7.79.22-8.69,2.36a3,3,0,0,0-.21.62c0-.27,0-.54.08-.8v-.05a9.7,9.7,0,0,1,2-4.63l-2-.59c.9-.73,2.19.35,2.19.35L44,18.28c1.37,0,1.72,1.16,1.79,1.94a4.72,4.72,0,0,1,3.83-1.39c1.45.15,2.69.33,3.73.54h0a8.54,8.54,0,0,0,4.19-1.09,3.49,3.49,0,0,1,.24.76,7.58,7.58,0,0,1,3.08-.48,2.68,2.68,0,0,0-.8,1.34,19.35,19.35,0,0,0,2.1-.45A9.84,9.84,0,0,1,60.75,22.48Z"/><path class="cls-11" d="M47.63,32.3l-3.08-1.39a1.72,1.72,0,0,1-1-1.57,1.78,1.78,0,0,1,.15-.71A1.71,1.71,0,0,1,46,27.77l1.28.57Z"/><path class="cls-12" d="M57.05,29.19,55,29a.68.68,0,0,0-.73.63.67.67,0,0,0,.62.73l2.08.17a.68.68,0,0,0,.11-1.36Z"/><path class="cls-13" d="M56.91,31.82A7.61,7.61,0,0,1,55,31.4a1.3,1.3,0,0,1,1-.1C56.56,31.41,56.93,31.74,56.91,31.82Z"/><g class="cls-14"><path class="cls-15" d="M54.45,33.66a2.81,2.81,0,0,0,2,1.66.29.29,0,0,1,.23.35.3.3,0,0,1-.36.23l-.06,0h0A3.07,3.07,0,0,1,54.45,33.66Z"/></g><polygon class="cls-16" points="51.81 42.82 45.15 39.52 45.42 37.57 51.37 39.92 51.81 42.82"/><path class="cls-17" d="M53.27,64.93a3.17,3.17,0,0,0-3.08-2.42H36.37c-3.45.2-6.87.69-10.25,0h-1.7c0,1.6,0,3.22-.05,4.85s0,3.36,0,5v9.18h0a.06.06,0,0,1,0,0l19.62,0c3.24,0,13.43-3.08,13.43-3.08Z"/><g class="cls-18"><path class="cls-19" d="M30.3,62.87V82.24h.95V62.84Z"/><path class="cls-19" d="M36.24,62.52V82.25l.94,0V62.47Z"/><path class="cls-19" d="M43.12,82V60.07h-.94v22Z"/><path class="cls-19" d="M48.85,81.58l.21,0V60.07h-1V81.64Z"/></g><path class="cls-16" d="M34.1,31.58c-.36.3-2.38,1.88-3.14,0-1-2.29,2-3.4,2-3.4l-3.91-4.73L23,28.64,27.51,34a2.49,2.49,0,0,1-.11,3.29c-.35.3-2.36,1.88-3.14,0-1-2.29,2-3.41,2-3.41l-3.92-4.73-.06-.08-3.06-3.59,7.3-6.21,1.62,1.91,1.5,1.76,4.54,5.35A2.48,2.48,0,0,1,34.1,31.58Z"/><path class="cls-16" d="M75.12,19.44s-3.34-.71-3.81,1.94c-.38,2.16,2.38,1.89,2.88,1.82a2.7,2.7,0,0,0,2-2.95l-1.39-10s3.71.24,4.09,3a7.87,7.87,0,0,1-.44,3s1.34-.47,1-3.09-4.19-4.36-4.62-5.61-1.26-.37-1.11.72S75.12,19.44,75.12,19.44Z"/><path class="cls-16" d="M67.26,52.41s-3.23-.68-3.68,1.88c-.37,2.09,2.29,1.82,2.77,1.75a2.59,2.59,0,0,0,1.94-2.85l-1.35-9.64s3.59.23,4,2.86a7.65,7.65,0,0,1-.43,2.86s1.3-.46.94-3-4-4.21-4.45-5.41-1.22-.36-1.07.69S67.26,52.41,67.26,52.41Z"/></svg>