<svg id="Layer_1" data-name="Layer 1" xmlns="http://www.w3.org/2000/svg" viewBox="0 0 100 100"><defs><style>.cls-1{fill:#dbdbdb;opacity:0.5;}.cls-2{fill:#2a2a2b;}.cls-3{fill:#403c42;}.cls-4{fill:#474249;}.cls-5{fill:#3b383d;}.cls-6{fill:#212023;}.cls-7{fill:#343336;}.cls-8{fill:#fff;}.cls-9{fill:#635d66;}.cls-10{fill:#202021;}.cls-11{fill:#ffc800;fill-rule:evenodd;}.cls-12{fill:#89cec5;}.cls-13{fill:#75a6fc;}.cls-14{fill:#c2e5e0;}.cls-15{fill:#5641c9;}.cls-16{fill:#fad8c2;}.cls-17{fill:#c76843;}</style></defs><title>CH2-6</title><path class="cls-1" d="M8.93,35.54c5,2.85,17.48,3.23,19.38-.82s5-1.83,4,1.54-6,14.41,3.21,20.05S51.17,52.8,55.11,51c5.15-2.36,5,1.31,1,5.81S35.86,72.81,39,81.48,60.72,95.6,73.22,86.33s10-27.58,4.43-33.42a12.56,12.56,0,0,1-2-4.12c-1.67-5,.24-7.06-1.37-11.65-1.22-3.49-2.81-3.68-2.56-5.6.49-3.68,6.55-4,7-7.09s-4.28-8.26-9.53-8.88C57.7,14.21,49.91,35.43,42.14,33.24c-4.87-1.37-2.94-10-10.31-14.64-5.12-3.22-13.48-3.75-18.91,1C8.24,23.66,4.54,33,8.93,35.54Z"/><path class="cls-2" d="M83.23,75.88a.83.83,0,0,1-.58.9l-1.43.45a.94.94,0,0,0-.67.9.49.49,0,0,0,0,.12l.56,6.34L81.25,86l-.56.07-1.5.19-.56.07-.18-1.4-.8-6.31a1.13,1.13,0,0,0-.87-1l-.28-.06a.91.91,0,0,1-.72-.78l.56-.07,6.33-.8Z"/><path class="cls-3" d="M81.54,60.71A5,5,0,0,1,79,65.05L73.25,68.4,63,69.7a.76.76,0,0,0-.62.55l-.31,1.13-.71,2.55A1.7,1.7,0,0,1,60,75.15l-1.61.2a.78.78,0,0,0-.68.87l.24,1.93.12.92L45.13,80.7l-.57.07-.94.12L43.26,78a.77.77,0,0,1,.67-.86l.94-.12,1.61-.2a1.7,1.7,0,0,0,1.41-1.22l.71-2.55L48.91,72a.76.76,0,0,1,.42-.49.21.21,0,0,1,.12,0,.2.2,0,0,1,.11,0l1.9-.24L62.29,52.62A2.31,2.31,0,0,1,64,51.49l6.47-.82a.54.54,0,0,1,.57.74l-.53,1.31a2,2,0,0,0,1.55,2.74l5.93,1a4.23,4.23,0,0,1,3.52,3.65A4.58,4.58,0,0,1,81.54,60.71Z"/><path class="cls-4" d="M68.65,77.72h0l-6.75.85-3.85.49-.12-.92-.24-1.93a.78.78,0,0,1,.68-.87l1.61-.2a1.7,1.7,0,0,0,1.41-1.22l1-3.68A.76.76,0,0,1,63,69.7h0l4.06-.51a.49.49,0,0,1,.54.42Z"/><path class="cls-5" d="M69.59,77.6h0l-.94.12-6.75.85-3.85.49-.12-.92-.24-1.93a.78.78,0,0,1,.68-.87l1.61-.2a1.7,1.7,0,0,0,1.41-1.22l1-3.68A.76.76,0,0,1,63,69.7h0l4.06-.51.93-.12a.48.48,0,0,1,.54.42Z"/><path class="cls-3" d="M64.64,71.06l-2.54.32.31-1.13A.76.76,0,0,1,63,69.7l1.42-.18Z"/><path class="cls-6" d="M66.33,71.25a.39.39,0,0,0-.44-.34L50.72,72.82a.66.66,0,0,0-.53.47l-.26.92-.58,2.09a1.36,1.36,0,0,1-1.15,1L66.78,75Z"/><path class="cls-7" d="M48.2,77.3l-.19,0-1.13.15a.64.64,0,0,0-.56.71l.3,2.33,20.53-2.59-.37-3Z"/><polygon class="cls-4" points="58.05 79.07 57.93 78.15 57.94 78.15 58.05 79.07"/><rect class="cls-8" x="45.71" y="77.81" width="12.21" height="1.11" transform="matrix(0.99, -0.13, 0.13, 0.99, -9.42, 7.12)"/><path class="cls-9" d="M83.9,74.8a1,1,0,0,1-.85,1.09l-11.6,1.48-1.83.23-1,.12L59,79l-.94.12-.12-.92-.24-1.93a.78.78,0,0,1,.68-.87l.88-.11h0l.74-.09a1.69,1.69,0,0,0,1.35-1.21l1-3.68A.76.76,0,0,1,63,69.7h0l.91-.11h0L68.53,69l14-1.76a.47.47,0,0,1,.54.42Z"/><path class="cls-2" d="M68.73,77.72a.82.82,0,0,1-.57.89l-1.44.45a1,1,0,0,0-.67.91s0,.07,0,.11l.56,6.35h0l.12,1.41-.56.07-.46.06-.56.07-1,.13-.46.06-.56.07-.18-1.41-.8-6.31a1.12,1.12,0,0,0-.88-1L61,79.57a.91.91,0,0,1-.72-.78l.56-.07.47-.06.56-.07,5.3-.67.56-.07.46-.06Z"/><path class="cls-2" d="M53.21,79.68a.83.83,0,0,1-.57.9L51.2,81a1,1,0,0,0-.67.91.49.49,0,0,0,0,.12l.56,6.34.13,1.41-.56.07-1.5.19-.56.07-1-7.72a1.12,1.12,0,0,0-.88-1l-.28-.06a.91.91,0,0,1-.72-.78l.57-.07,6.32-.8Z"/><polygon class="cls-10" points="51.23 89.8 51.1 88.39 51.11 88.39 51.23 89.8"/><path class="cls-11" d="M33.44,35.85c.23.24,1.25,1.93,1.25,1.93l2.81,6.58a9.62,9.62,0,0,0,9.93,8.2C52.88,52.47,56.3,48,59.29,44a12.65,12.65,0,0,1,5.22-3.61c2.44-.81,3.81-.27,6.08.42.72.14.84-.15.47-.79a41.38,41.38,0,0,0-10.85-8.58,11.25,11.25,0,0,0-2.07-1.09,4.46,4.46,0,0,0-1.7-.47c-.7,0-1.11.16-.55.78a6.8,6.8,0,0,1,1,1.61c1.45,2.88,1.51,5.45.12,8.85q-1.15,2.18-2.29,4.35c1.38-5.24-1.3-10-6.52-11.27-5.54-.54-10.76,2.68-10.8,8.55l-.47-1.22c-.2-.52-1.16-2.83-1.41-3.48a25.86,25.86,0,0,1-.68-2.75c-.05-.34-.2-.49-.33-.44s-.81.22-1.07.31S33.21,35.62,33.44,35.85ZM40.7,39a1.37,1.37,0,0,1,1-.39,1.32,1.32,0,0,1,1,.4l1.62,1.63L42.5,42.33a.56.56,0,0,0-.45.17.59.59,0,0,0-.17.45l-.33.33-1.63-1.65a1.37,1.37,0,0,1-.39-1,1.32,1.32,0,0,1,.4-1Zm.85,5.44.37.38-.24.23-.37-.37Zm1.48.38.29-.29a.6.6,0,0,0,.7-.7l1.7-1.69.74.75-1.72,1.73a.57.57,0,0,0-.47.17.54.54,0,0,0-.17.46l-.32.32Zm.74,1.86.4.4-.24.24-.39-.4Zm.89-.88a.61.61,0,0,0,.45-.17.59.59,0,0,0,.17-.45L47,43.4l.38.39-1.76,1.77a.6.6,0,0,0-.39.17.66.66,0,0,0-.17.39l-.35.35-.4-.39Zm-1.44.33-.24.23-.74-.75.23-.24Zm-1.11-2.25.32-.32a.59.59,0,0,0,.45-.17.61.61,0,0,0,.18-.47l1.72-1.73.38.39L43.39,43.3a.59.59,0,0,0-.54.54l-.37.37Zm7.11-8.12a2,2,0,0,0-.52.39L44.78,40,43.17,38.4a2.1,2.1,0,0,0-1.51-.63,2.18,2.18,0,0,0-.76.14c.1-.12.21-.23.32-.34A7.73,7.73,0,0,1,49.22,35.71Zm1.21.57-.06.06L45.72,41l-.38-.39,3.91-3.94a1.33,1.33,0,0,1,.94-.39Zm1.35,1.13a.28.28,0,0,1-.08.21h0L47,42.29l-.74-.76,4.64-4.63a.33.33,0,0,1,.23-.09h.11l.27.23,0,0,.17.16A.32.32,0,0,1,51.78,37.41Zm.5.92a1.32,1.32,0,0,1-.38.93h0l-3.94,4-.39-.39,4.68-4.66h0C52.27,38.22,52.28,38.28,52.28,38.33ZM51.78,48a2.15,2.15,0,0,0-.62-1.51l-2.65-2.67,3.94-4h0a2.13,2.13,0,0,0,.56-1,7.67,7.67,0,0,1-1.23,9.44l0,0A2.83,2.83,0,0,0,51.78,48Zm-3.87,1.71L45.28,47l.3-.3a.58.58,0,0,0,.51-.16.61.61,0,0,0,.17-.52L48,44.34,50.6,47A1.37,1.37,0,0,1,51,48a1.32,1.32,0,0,1-.4,1l-.7.7a9.07,9.07,0,0,1-1.07.46A1.31,1.31,0,0,1,47.91,49.68Zm-5.28-.13a2.17,2.17,0,0,0,.52-.38l.69-.69.15.15a.24.24,0,0,0,.35,0l.3-.3a.26.26,0,0,0,0-.35l-.16-.15.24-.24,2.63,2.65.18.16A7.49,7.49,0,0,1,42.63,49.55Zm-1.05-.73,1.31-1.3.39.4-.68.69a1.3,1.3,0,0,1-.81.38Zm-1.27-1.34,1.28-1.27.74.75L41,48.29A7.57,7.57,0,0,1,40.31,47.48Zm-.64-1.06A1.15,1.15,0,0,1,40,46h0l.71-.72.37.37-1.16,1.16C39.8,46.68,39.73,46.55,39.67,46.42ZM39,41.74a1.79,1.79,0,0,0,.34.44L41,43.83l-.24.24L40.67,44a.26.26,0,0,0-.35,0l-.3.3a.24.24,0,0,0,0,.35l.09.09-.71.72h0l-.09.1A7.55,7.55,0,0,1,39,41.74Z"/><ellipse class="cls-12" cx="20.49" cy="31.72" rx="8.56" ry="1.59" transform="translate(-4.54 3.45) rotate(-8.66)"/><path class="cls-13" d="M29.14,31.61c.13.87-3.55,2.15-8.23,2.86s-8.57.59-8.7-.28L12,33c-.13-.87,3.55-2.15,8.22-2.86s8.57-.59,8.71.28Z"/><path class="cls-14" d="M19.58,25.75a34.88,34.88,0,0,1-5.84.45c-2.09-.05-2.44-.4-2.48-.45s.25-.5,2.23-1.17a35.66,35.66,0,0,1,5.72-1.31,35,35,0,0,1,5.84-.45c2.09.05,2.44.41,2.48.45s-.25.51-2.23,1.18A35.74,35.74,0,0,1,19.58,25.75Z"/><path class="cls-15" d="M28.63,30.48c0,.06-.25.5-2.24,1.17A35.77,35.77,0,0,1,20.68,33a35,35,0,0,1-5.84.45c-2.09,0-2.44-.41-2.48-.45l-1.1-7.21,16.27-2.48Z"/><path class="cls-13" d="M28,24.43c.13.87-3.55,2.14-8.22,2.86s-8.57.58-8.7-.28l-.18-1.19,16.92-2.57Z"/><path class="cls-13" d="M27.86,23.25,10.94,25.82C10.8,25,14.49,23.68,19.16,23S27.73,22.38,27.86,23.25Z"/><ellipse class="cls-16" cx="19.62" cy="24.7" rx="8.44" ry="1.46" transform="translate(-3.49 3.23) rotate(-8.66)"/><path class="cls-17" d="M24.47,23a1,1,0,1,1-1.5-.17,1,1,0,0,1,1.24-.09l5.16-5.15.41.42Z"/><path class="cls-17" d="M17.75,24.46a1,1,0,0,1-1.34.36A1,1,0,0,1,16,23.65L9.61,20.1l.29-.51,6.27,3.74a1,1,0,0,1,1.22-.21A1,1,0,0,1,17.75,24.46Z"/></svg>