<svg id="Layer_1" data-name="Layer 1" xmlns="http://www.w3.org/2000/svg" viewBox="0 0 100 100"><defs><style>.cls-1{fill:#292a2c;}.cls-2{fill:#636365;}</style></defs><title>CH3-1</title><path class="cls-1" d="M89.72,38.24c0,.14,0,.27,0,.41a6.21,6.21,0,0,1-.12.85c0,.14-.07.28-.11.42s0,.1,0,.14-.08.28-.13.41a9.13,9.13,0,0,1-1.12,2,8.35,8.35,0,0,1-.66.81,9.88,9.88,0,0,1-.72.73l-.47.4c-.16.14-.33.26-.5.39a11.87,11.87,0,0,1-3.11,1.62,89.81,89.81,0,0,1-12.56,2.78h15s.47,11.08-1.62,11.08h-.44A3.07,3.07,0,0,1,80,63.56h-.85c-.27.82-.86,2.4-1.4,2.44h-.17l-.34,16.57c1.33.7,1,3.1,1,3.1H74.56s-.27-2.29,1-3.05L74.62,66a3.22,3.22,0,0,1-.45,0c-.54,0-1.12-1.62-1.39-2.44h-2a3.07,3.07,0,0,1-3.06-3.24H47.49a7.51,7.51,0,0,1-.66,1.16c0,.74-.4,3.25-3.87,3.25s-4.26.64-4.36,1.69h0l-.36,16.23c1.19.78.93,3,.93,3H35.44s-.28-2.43,1.07-3.11L35.6,66.24c-.17-.94-1-1.51-4.34-1.51-2.79,0-3.58-1.63-3.8-2.65h-.7V58.31a.86.86,0,0,1,.82-.85c8.75-.29,9.61-5.33,9.59-7.37a.85.85,0,0,1,.85-.85h.87l2.38-5.93h2.15l-2.64,5.93h4.28L53,25.3l.4-1.22s20-2.18,20.56,3.63,6.54,2.72,14,7.2a3.47,3.47,0,0,1,.78.63,3.8,3.8,0,0,1,.55.78A4.21,4.21,0,0,1,89.72,38.24Z"/><path class="cls-2" d="M89.28,36.32a3.8,3.8,0,0,0-.55-.78A3,3,0,0,1,89.28,36.32Z"/><path class="cls-1" d="M27.78,70.27s-.42,2.41-.47,2.41a3.09,3.09,0,0,0-.54,0,8.09,8.09,0,0,1-.51,1.46h-.47l-.12,10.48A2.2,2.2,0,0,1,26,86H24.35a2.12,2.12,0,0,1,.33-1.42l-.32-10.45c-1.17,0-2.66,0-3.79,0l-.12,10.48a2.24,2.24,0,0,1,.3,1.39H19.14s-.11-1,.33-1.43l-.32-10.45h-.3a7.23,7.23,0,0,1-.52-1.46,2.94,2.94,0,0,0-.53,0c-.06,0-.48-2.41-.48-2.41Z"/></svg>