<svg id="Layer_1" data-name="Layer 1" xmlns="http://www.w3.org/2000/svg" viewBox="0 0 100 100"><defs><style>.cls-1{fill:#e8e6e8;}.cls-2{fill:#ff5900;}.cls-3{fill:#6c311d;}.cls-4{fill:#fff;stroke:#ffd6be;stroke-miterlimit:10;}</style></defs><title>CH3-2</title><ellipse class="cls-1" cx="51.24" cy="87.48" rx="22.39" ry="2.62"/><path class="cls-2" d="M35.63,79.05c0,4,4.42,9.49,15.35,9.53h0c10.93,0,15.4-5.46,15.41-9.4s-2.74-8.86-2.74-10,1.3-1.67.62-2.47-2,1.74-3.64,0-2.18-6.12-2.17-8.16S59.61,54,62,55.23c0,0,1,.37-.07-1.6s1.3-2.69,1.32-7.21S60.59,37,51.18,37h0c-9.41,0-12.09,4.83-12.11,9.35s2.34,5.25,1.27,7.21-.08,1.61-.08,1.61c2.35-1.23,3.48,1.25,3.47,3.29s-.55,6.4-2.23,8.15-3-.82-3.64,0,.6,1.32.59,2.48S35.65,75.11,35.63,79.05Z"/><polygon class="cls-3" points="53.83 65.57 51.06 67.69 48.3 65.55 53.83 65.57"/><path class="cls-3" d="M59.6,69.12c0-.2-.58-.3-.58-.75s.17-.69.69-.69a.75.75,0,0,1,.75.82A1.45,1.45,0,0,1,59,70c-1.81,0-2.41-2.15-2.42-3.17,0,0-.15-4.78-.31-5.28S56,60,55.12,60s-.68.73-.31.86c.18.06.25.65-.39.65s-1.05-1.9.72-1.91,2,3.62,2,5.19-.09,4.79,1.82,4.88C59.89,69.72,59.6,69.12,59.6,69.12Z"/><path class="cls-3" d="M42.51,69.05c0-.2.58-.29.58-.75s-.16-.69-.69-.69a.75.75,0,0,0-.75.82,1.44,1.44,0,0,0,1.5,1.5c1.8,0,2.42-2.13,2.44-3.15,0,0,.19-4.77.35-5.27S46.19,60,47.06,60s.67.73.3.86c-.18.06-.25.65.38.65s1.07-1.89-.7-1.91S45,63.19,45,64.76s.06,4.78-1.85,4.86C42.22,69.65,42.51,69.05,42.51,69.05Z"/><polygon class="cls-3" points="48.2 54.18 49.98 17.24 49.6 17.24 49.71 15.2 49.3 15.2 49.3 14.8 49.73 14.8 49.82 13.3 49.35 13.3 49.36 12.9 49.84 12.9 50.05 9.15 49.63 9.15 49.63 8.1 52.96 8.11 52.95 9.16 52.53 9.16 52.66 11.96 53.05 11.96 53.05 12.36 52.68 12.36 52.75 13.86 53.04 13.86 53.04 14.26 52.77 14.26 52.92 17.25 52.6 17.25 54.03 54.21 48.2 54.18"/><polygon class="cls-4" points="50.99 75.03 51.04 60.72 51.11 46.41 51.22 32.11 51.34 17.8 51.3 32.11 51.23 46.41 51.12 60.72 50.99 75.03"/><path class="cls-3" d="M49,80.41c.43,2.33.16,7.57.26,8S49.42,89,51,89s1.66-.19,1.76-.58-.13-5.63.32-8,1.34-6.69,1.19-7.13H51l-3.21,0C47.68,73.7,48.54,78.07,49,80.41Z"/></svg>