<svg id="Layer_1" data-name="Layer 1" xmlns="http://www.w3.org/2000/svg" xmlns:xlink="http://www.w3.org/1999/xlink" viewBox="0 0 100 100"><defs><style>.cls-1{fill:none;}.cls-2{fill:#ffc671;}.cls-3{fill:#292a2c;}.cls-4{fill:#535557;}.cls-5{fill:#2c1f00;}.cls-6{fill:#815800;}.cls-7{fill:#2c1e00;}.cls-8{fill:#1d1d1b;}.cls-9{clip-path:url(#clip-path);}.cls-10{fill:#fff;}.cls-11{fill:#0098ff;}.cls-12{fill:#352684;}.cls-13{fill:#faf3f3;}.cls-14{fill:#362185;}.cls-15{fill:#f5f5f6;}</style><clipPath id="clip-path"><path id="SVGID" class="cls-1" d="M16.58,38.34c-3.23.9-2.78,4.92-2.14,7.22S18,48,18.74,50.68l.29,1A1.53,1.53,0,0,0,22,50.91l-.26-.9c.45-.07.11.13,1,.09,2-.09,2-3.53,2.31-4,.72-1.37-.16-.38-.27-3.18C24.56,38.45,22.11,36.79,16.58,38.34Z"/></clipPath></defs><title>CH3-3</title><path class="cls-2" d="M24,59a1,1,0,0,1-1.22,1.41,1,1,0,0,1-.52-.56.41.41,0,0,1,0-.08l-1-3.14,2-.54,1,2.81Z"/><path class="cls-3" d="M27.72,69s-.22,1.27-.36,2c0,.09,0,.17-.05.24a.61.61,0,0,1-.07.22h-.55a7.43,7.43,0,0,1-.5,1.47h-.47l-.13,12.42a2.18,2.18,0,0,1,.3,1.4H24.27s-.11-1,.33-1.43l-.32-12.39c-1.17,0-2.67,0-3.81,0l-.12,12.43a2.21,2.21,0,0,1,.29,1.39H19s-.1-1,.34-1.43h0L19,72.85h-.3a6.37,6.37,0,0,1-.51-1.46h-.55a.78.78,0,0,1-.06-.22,1.24,1.24,0,0,0,0-.16s0,0,0-.08c-.15-.7-.37-2-.37-2Z"/><path class="cls-4" d="M17.57,71s0,0,0-.08h0S17.57,71,17.57,71Z"/><path class="cls-4" d="M18.22,71.38h0Z"/><path class="cls-4" d="M27.37,70.92q0,.14-.06.24c0-.07,0-.15.05-.24Z"/><path class="cls-2" d="M25.51,45.91a2.73,2.73,0,0,0-.63.75c-.26.5-.18,3.35-2.19,3.44l-.93,0,.22.77a1.53,1.53,0,0,1-2.95.82l-.29-1,0-.08c-.77-2.56-3.63-2.76-4.27-5s-1.09-6.32,2.14-7.22c5.53-1.55,8,.11,8.15,4.55a5.15,5.15,0,0,0,.77,2.77A.17.17,0,0,1,25.51,45.91Z"/><path class="cls-5" d="M25.3,39.13a1.3,1.3,0,0,0-.65-1.33,6.78,6.78,0,0,0,.16-2.32s-.51.37-1.26.8a1.88,1.88,0,0,1,.19-1.06,5.27,5.27,0,0,0-1.89,1.06,2.22,2.22,0,0,0-.34-.44A5.91,5.91,0,0,1,19,37.57h0c-.74.11-1.59.3-2.59.55A3.23,3.23,0,0,0,14.33,40a1.29,1.29,0,0,0-1.65-.84l1.54,1.07s0,0,0,0a1.06,1.06,0,0,0-1.51.29l1.44-.1A6.76,6.76,0,0,0,14,43.86L14,44a2,2,0,0,0,.06.23,2.1,2.1,0,0,0,.06.24c-.23-1.89,1.48-3.09,5.14-4.11h.05c1.95-.35,2.08,0,3.71-.54a2.51,2.51,0,0,0,.7-.4l.38.87c.19-.1.18-.86.18-.86l.48.6a.87.87,0,0,0-.22-1.09C24.76,38.84,25.3,39.13,25.3,39.13ZM14.5,40.39h0l-.14-.1.14.09h0Z"/><path class="cls-5" d="M14.49,40.37h0l-.14-.1Z"/><path class="cls-5" d="M14.5,40.38h0Z"/><path class="cls-5" d="M14.49,40.37h0l-.14-.1Z"/><path class="cls-6" d="M17.59,48.83a5.91,5.91,0,0,1-3.38-4,2.22,2.22,0,0,0-.1-.39c-.23-1.89,1.48-3.09,5.14-4.11a1.67,1.67,0,0,0,.13,1,13.1,13.1,0,0,0,.49,1.32c.37.91-1.26,1.46-3,2.45C15.8,45.73,19.36,48.33,17.59,48.83Z"/><path class="cls-5" d="M14.49,40.37h0l-.14-.1Z"/><path class="cls-5" d="M14.5,40.38h0Z"/><path class="cls-5" d="M19.3,40.35l-.05,0h.05Z"/><path class="cls-2" d="M17.25,44.9l-1-.06A1.2,1.2,0,0,0,15,46h0a1.21,1.21,0,0,0,1.12,1.28l2.34.17Z"/><path class="cls-7" d="M23.85,43.08l-1.4.39a.48.48,0,0,0,.26.92l1.4-.39a.48.48,0,1,0-.26-.92Z"/><path class="cls-8" d="M24.4,44.83a5.49,5.49,0,0,1-1.34.19.9.9,0,0,1,.64-.32A.94.94,0,0,1,24.4,44.83Z"/><g class="cls-9"><path class="cls-10" d="M23.24,46.63a1.93,1.93,0,0,0,1.68.61.21.21,0,0,1,.24.17.22.22,0,0,1-.18.24h-.05A2.11,2.11,0,0,1,23.24,46.63Z"/></g><path class="cls-11" d="M34.45,75.5,32.19,76l-1.81-7.11h-.3l-2,7.31.07-.28-2.3-.28,1.26-6.47L21.76,69a3.49,3.49,0,0,1-3.37-3.74l.11-1.64,4.7,1.08h0l0-.2,8.47,1.42A1.47,1.47,0,0,1,33,67.22a.78.78,0,0,1,0,.14Z"/><rect class="cls-11" x="32.12" y="75.72" width="2.49" height="0.55" transform="matrix(0.98, -0.2, 0.2, 0.98, -14.32, 8.06)"/><polygon class="cls-2" points="34.63 78.63 33.07 78.66 32.72 76.4 34.23 76.1 34.63 78.63"/><path class="cls-12" d="M38.29,78.58,33,79.24l0-.29,0-.94a.05.05,0,0,1,.1,0,.58.58,0,0,0,.53.33c.25,0,.57-.43.77-.74l2.42.56a.66.66,0,0,0,.62-.11l.93.26Z"/><path class="cls-12" d="M37.32,78a.66.66,0,0,1-.62.11l-2.42-.56.23-.36Z"/><path class="cls-13" d="M37.32,78a.66.66,0,0,1-.62.11l-2.42-.56.23-.36Z"/><polygon class="cls-11" points="28.1 75.87 28.03 76.15 25.8 75.59 28.1 75.87"/><polygon class="cls-2" points="26.85 78.84 25.51 78.35 25.86 76.09 27.39 76.26 26.85 78.84"/><rect class="cls-11" x="25.6" y="75.86" width="2.49" height="0.55" transform="translate(19.11 -4.22) rotate(13.92)"/><path class="cls-12" d="M30.74,79v.3l-5.38,0V79l.08-.93c0-.06.08-.07.1,0s.24.4.49.4.62-.36.86-.64l2.32.85a.64.64,0,0,0,.63,0Z"/><path class="cls-12" d="M29.84,78.66a.64.64,0,0,1-.63,0l-2.32-.85,0,0,.13-.16.11-.15Z"/><path class="cls-13" d="M29.84,78.66a.64.64,0,0,1-.63,0l-2.32-.85,0,0,.13-.16.11-.15Z"/><text/><path class="cls-2" d="M29.83,60.26c-.21.74-.24,1.06-.79,1.15a13,13,0,0,1-1.77.17,14.94,14.94,0,0,1-4.48-1.19A1,1,0,0,0,24,59l.2-.1a9.61,9.61,0,0,0,2.95.74h0a2.71,2.71,0,0,0,.41-.23l.06,0c.43-.3.37-.51.75-.59a4,4,0,0,1,.56-.11c.27,0,.42.19.66.23s.09.21.08.21l-.62.09.75.09C30.13,59.29,30,59.8,29.83,60.26Z"/><path class="cls-14" d="M23.23,58.61l.83,6-5.78.11L18,55.6v-.3a10.54,10.54,0,0,1,1.11-4.7l3.06.5s.26,1.48.54,3.46l1.28,3.24.09,0,.16.42Z"/><polygon class="cls-15" points="18.55 51.84 23.16 52.93 22.59 51.17 18.24 50.39 18.55 51.84"/><path class="cls-3" d="M85.06,46.63a94.82,94.82,0,0,1-12.88,2.84H87.55S88,60.78,85.9,60.78h-.45c0,.89-.43,3.31-3.12,3.31h-.88c-.27.84-.87,2.45-1.42,2.49h-.17l-.36,16.9c1.37.72,1.08,3.19,1.08,3.19H76.73s-.27-2.35,1-3.13l-.91-17a3.41,3.41,0,0,1-.46,0c-.55,0-1.15-1.65-1.43-2.49h-2a3.14,3.14,0,0,1-3.13-3.31H49.1a7.53,7.53,0,0,1-.68,1.2c0,.76-.41,3.3-4,3.3S40.12,65.93,40,67h0l-.36,16.56c1.22.79,1,3.11,1,3.11H36.79s-.29-2.49,1.09-3.19L37,66.84c-.16-1-1-1.56-4.43-1.56-2.86,0-3.66-1.66-3.88-2.7h-.71V57.87c12.12,0,10.56-8.4,10.56-8.4h1.82l2.44-6.06h2.19l-2.7,6.06h4.37l8.52-25.7s20.4-2.23,21,3.71,6.68,2.77,14.29,7.35C94.17,37.09,91.9,44.23,85.06,46.63Z"/></svg>