<svg id="Layer_1" data-name="Layer 1" xmlns="http://www.w3.org/2000/svg" viewBox="0 0 100 100"><defs><style>.cls-1{fill:#363739;}.cls-2{fill:#f1f1f1;}.cls-3{fill:#292a2c;}.cls-4{fill:#e0e2e4;}.cls-5{fill:#ff9d00;}.cls-6{fill:#009bff;}.cls-7{fill:#352684;}.cls-8{fill:#2c1f03;}.cls-9{fill:#ffc671;}.cls-10{fill:#805700;}.cls-11{fill:#353638;}.cls-12{fill:#535557;}</style></defs><title>CH3-4</title><polygon class="cls-1" points="66.99 47.13 66.99 47.89 59.57 48.04 59.54 48.04 52.11 47.89 52.11 47.13 66.99 47.13"/><polygon class="cls-1" points="83.78 47.27 83.16 47.71 82.75 47.13 83.68 47.13 83.78 47.27"/><rect class="cls-1" x="23.53" y="57.91" width="60.3" height="1.2"/><rect class="cls-2" x="23.53" y="57.91" width="60.3" height="1.2"/><polygon class="cls-1" points="85.43 61.28 85.42 61.45 85.42 61.28 85.43 61.28"/><path class="cls-3" d="M87,59.11v-12H83.68l.1.14-.62.44-.41-.58H67.88V41.92H67v6L59.57,48h0l-7.43-.15v-6h-.88v5.21H20.37v12H19.32v2.17h2.93v5.31h.3l.88,15.66c-1.13.72-.88,2.85-.88,2.85h3.52s.25-2.21-.95-2.88l.93-15.63h.31V61.28H50.85v5.31h.3L52,82.26c-1.12.72-.88,2.84-.88,2.84h3.52s.26-2.2-.94-2.89l.92-15.62H55V61.28H81.32v5.31h.31l.87,15.66c-1.13.72-.88,2.85-.88,2.85h3.52s.26-2.2-.94-2.89l.92-15.62h.3V61.28H88V59.11Zm-3.17,0H23.53v-1.2h60.3Z"/><polygon class="cls-1" points="83.78 47.27 83.16 47.71 82.75 47.13 75.5 36.94 75.65 36.84 67.31 25.1 20.99 47.13 20.37 46.09 79.76 17.85 80.37 18.89 67.67 24.93 75.97 36.61 76.12 36.5 83.68 47.13 83.78 47.27"/><polygon class="cls-1" points="66.99 41.92 66.99 47.89 59.57 48.04 59.54 48.04 52.11 47.89 52.11 41.92 66.99 41.92"/><polygon class="cls-4" points="66.99 39.07 66.99 47.89 59.57 48.04 59.54 48.04 52.11 47.89 52.11 39.07 52.55 39.08 52.55 38.56 59.54 39.22 59.57 39.22 66.57 38.56 66.57 39.08 66.99 39.07"/><g id="legs"><rect class="cls-5" x="33.5" y="75.06" width="1.93" height="1.45"/><polygon class="cls-5" points="39.61 75.06 39.61 76.51 37.68 76.51 37.68 76.49 37.69 75.28 37.68 75.28 37.68 75.06 39.61 75.06"/><path class="cls-6" d="M40.11,64.83a11.83,11.83,0,0,1-3.19.46,1.59,1.59,0,0,1,.42-1.07,1.22,1.22,0,0,1,.39-.32,1.53,1.53,0,0,1,.82-.23,1.57,1.57,0,0,1,.83.23,1.22,1.22,0,0,1,.39.32A1.42,1.42,0,0,1,40.11,64.83Z"/><path class="cls-7" d="M35.81,77.88h-2.7l.36-1.38a4.18,4.18,0,0,1,1-.12,3,3,0,0,1,1,.13Z"/><path class="cls-7" d="M40,77.88H37.3l.35-1.38a4.32,4.32,0,0,1,1-.12,3,3,0,0,1,1,.13Z"/><path class="cls-6" d="M36,65.29a12,12,0,0,1-3.16-.52,1.4,1.4,0,0,1,.32-.55,1.22,1.22,0,0,1,.39-.32,1.58,1.58,0,0,1,1.64,0,1.22,1.22,0,0,1,.39.32A1.59,1.59,0,0,1,36,65.29Z"/></g><path class="cls-8" d="M39.81,41.11a1.77,1.77,0,0,0-.12.19h0a2.09,2.09,0,0,1,.08-.25Z"/><path class="cls-8" d="M41.24,39.07a2.7,2.7,0,0,1-1.36,2.11.46.46,0,0,1-.07-.07,2.21,2.21,0,0,0,.25-.65A6,6,0,0,1,41.24,39.07Z"/><path class="cls-8" d="M41.24,43.59h0v.67a.25.25,0,0,1,0,.08,2.9,2.9,0,0,1-.15.71h0a3.17,3.17,0,0,1-.41.85A4.6,4.6,0,0,1,39.81,47h0l-.4.14.06.16a5.33,5.33,0,0,1-3,1.27,5.39,5.39,0,0,1-3-1.4v0l-.06,0a5.24,5.24,0,0,1-1-1.19,3.28,3.28,0,0,1-.4-.82,3.34,3.34,0,0,1-.17-.71h0c0-.12,0-.24,0-.36a4.11,4.11,0,0,0-1-2.58c1.52.31,1.72-.62,3.79-.89a3.08,3.08,0,0,0-1.26-.31c1.12-1.06,2.5-1.11,4.35.2a1.67,1.67,0,0,0-1-1,9.44,9.44,0,0,1,3,1.58,4.54,4.54,0,0,1,.28-1.48,1.25,1.25,0,0,1,.13,1,2.21,2.21,0,0,1-.25.65l-.06,0a2.09,2.09,0,0,0-.08.25h0a1.54,1.54,0,0,0,.19-.12,3.92,3.92,0,0,1,1.31,2.15.24.24,0,0,1,0,.08Z"/><path class="cls-8" d="M39.88,41.18a1.54,1.54,0,0,1-.19.12h0a2.09,2.09,0,0,1,.08-.25l.06,0A.46.46,0,0,0,39.88,41.18Z"/><g id="albert"><path class="cls-6" d="M36,65.29h0l0,1.09-.25,8.07h.1v.6H33.1v-.6h.1l-.42-8.29a1,1,0,0,1-.32-.94l.12-.55.26.09A12,12,0,0,0,36,65.29Z"/><path class="cls-6" d="M40.16,66.19l-.25,8.27H40v.6H37.29v-.6h.1L37,66.39l-.06-1.09h0a11.83,11.83,0,0,0,3.19-.46c.16,0,.27-.1.32-.12l.1.55A.93.93,0,0,1,40.16,66.19Z"/><path class="cls-6" d="M36.92,65.29h0L37,66.39H36l0-1.09h0a12,12,0,0,1-3.16-.52l-.26-.09.11-.46h7.65l.09.49s-.16.07-.32.12A11.83,11.83,0,0,1,36.92,65.29Z"/><path class="cls-9" d="M31,61.66h0a.7.7,0,0,1-.16-.1.82.82,0,0,1-.31-.56l2,.38,0,.83A9.16,9.16,0,0,1,31,61.66Z"/><path class="cls-9" d="M42.37,61a.86.86,0,0,1-.28.54.76.76,0,0,1-.19.12.2.2,0,0,1-.08,0c-.38.14-.82.3-1.29.44l0-.79Z"/><path class="cls-9" d="M41.91,61.66l-.09,0a.2.2,0,0,0,.08,0Z"/><polygon class="cls-9" points="40.67 53.9 36.44 52.01 32.2 53.89 32.71 63.9 40.18 63.9 40.67 53.9"/><path class="cls-9" d="M36.44,49.18a1.32,1.32,0,0,0-1.32,1.32v1.89c0,.73.59,1,1.32,1s1.33-.26,1.33-1V50.5A1.32,1.32,0,0,0,36.44,49.18Z"/><path class="cls-7" d="M42.6,61l-.23,0-1.82.35,0,.79-.05,2.56,0,0s-.16.07-.32.12a11.83,11.83,0,0,1-3.19.46H36a12,12,0,0,1-3.16-.52l-.26-.09-.07-2.48,0-.83-2-.38-.23,0,.06-.42.09,0c.29-1.52,1.09-6.23,1.76-6.67l.1,0,2.27-1h0l.55-.25h2.65l.53.24,2.28,1,.1,0c.67.44,1.48,5.15,1.76,6.67l.09,0Z"/><path class="cls-9" d="M42.71,47.42a1,1,0,0,1-.69,1l-1.66.6a5.84,5.84,0,0,1-2.44,2.89l-.15.07a2.9,2.9,0,0,1-.87.25h0a2.22,2.22,0,0,1-.37,0,2.74,2.74,0,0,1-.5,0h0a3,3,0,0,1-.89-.31,5.73,5.73,0,0,1-2.41-2.81L30.8,48.4a1,1,0,0,1-.69-1,1.12,1.12,0,0,1,.06-.35,1,1,0,0,1,1.33-.63l.26.09.25.09.23.08h0l1.13.4.06,0v0a5.39,5.39,0,0,0,3,1.4,5.33,5.33,0,0,0,3-1.27l-.06-.16.4-.14h0l.94-.34.26-.09h0l.21-.07.08,0a1,1,0,0,1,1.33.63A1.12,1.12,0,0,1,42.71,47.42Z"/><path class="cls-9" d="M32.24,46.71h0L32,46.62A6.52,6.52,0,0,1,32,45.1a3.28,3.28,0,0,0,.4.82,5.24,5.24,0,0,0,1,1.19Z"/><path class="cls-9" d="M41.06,46.3a1,1,0,0,1,0,.24h0l-.26.09-.94.34a4.6,4.6,0,0,0,.86-1.06,3.17,3.17,0,0,0,.41-.85A6.35,6.35,0,0,1,41.06,46.3Z"/><path class="cls-10" d="M41.24,44.45v2l-.21.07h0a5.9,5.9,0,0,1-1,2.26,4.64,4.64,0,0,1-2.23,1.67,3.79,3.79,0,0,1-1.25.22,4,4,0,0,1-1.39-.26,4.58,4.58,0,0,1-2.25-1.78,5.82,5.82,0,0,1-.87-2h0l-.25-.09V44c0,.12,0,.24,0,.36h0a3.34,3.34,0,0,0,.17.71,3.28,3.28,0,0,0,.4.82,5.24,5.24,0,0,0,1,1.19l.06,0v0a5.39,5.39,0,0,0,3,1.4,5.33,5.33,0,0,0,3-1.27l-.06-.16.4-.14h0a4.6,4.6,0,0,0,.86-1.06,3.17,3.17,0,0,0,.41-.85h0a2.9,2.9,0,0,0,.15-.71A.34.34,0,0,1,41.24,44.45Z"/><path class="cls-10" d="M41.24,44.27v.18a.34.34,0,0,0,0-.1A.25.25,0,0,0,41.24,44.27Z"/><path class="cls-8" d="M33.43,47.13v0l-.05,0Z"/><path class="cls-8" d="M39.8,47l-.34.3-.06-.16Z"/><path class="cls-8" d="M39.88,41.18a1.54,1.54,0,0,1-.19.12h0a2.09,2.09,0,0,1,.08-.25l.06,0A.46.46,0,0,0,39.88,41.18Z"/><path class="cls-8" d="M41.26,44a1.06,1.06,0,0,1,0,.25v-.61C41.25,43.74,41.26,43.86,41.26,44Z"/><polygon class="cls-2" points="38.33 52.81 34.56 52.81 34.89 51.89 38 51.89 38.33 52.81"/></g><path class="cls-11" d="M31.83,83.58v.11H30.74v-.16a.68.68,0,0,1,.52-.21A.69.69,0,0,1,31.83,83.58Z"/><path class="cls-3" d="M44.71,66.39s-.24,1.39-.39,2.16c0,0,0,.06,0,.09a2.42,2.42,0,0,0-.06.28c0,.1,0,.14-.05.14h-.62L43,70.67h-.52l-.13,12.91a.69.69,0,0,0-.57-.26.68.68,0,0,0-.52.21l-.36-12.86H32l-.13,12.91a.69.69,0,0,0-.57-.26.68.68,0,0,0-.52.21l-.36-12.86h-.33l-.55-1.61h-.61s0,0-.05-.14,0-.1,0-.16a1.91,1.91,0,0,0,0-.21c-.16-.77-.4-2.16-.4-2.16Z"/><path class="cls-11" d="M42.38,83.58v.11H41.29v-.16a.68.68,0,0,1,.52-.21A.69.69,0,0,1,42.38,83.58Z"/><path class="cls-11" d="M32.15,85.1H30.37a2.32,2.32,0,0,1,.37-1.57.68.68,0,0,1,.52-.21.69.69,0,0,1,.57.26A2.47,2.47,0,0,1,32.15,85.1Z"/><path class="cls-11" d="M42.7,85.1H40.92a2.32,2.32,0,0,1,.37-1.57.68.68,0,0,1,.52-.21.69.69,0,0,1,.57.26A2.47,2.47,0,0,1,42.7,85.1Z"/><path class="cls-12" d="M28.8,68.76a1.29,1.29,0,0,1-.05-.21h0A1.91,1.91,0,0,1,28.8,68.76Z"/><path class="cls-12" d="M29.5,69.05h0Z"/></svg>