<svg id="Layer_1" data-name="Layer 1" xmlns="http://www.w3.org/2000/svg" xmlns:xlink="http://www.w3.org/1999/xlink" viewBox="0 0 100 100"><defs><style>.cls-1{fill:none;}.cls-2{fill:#eae1ea;}.cls-3{fill:#ff9d00;}.cls-4{fill:#0098ff;}.cls-5{fill:#ffc671;}.cls-6{fill:#352684;}.cls-7{fill:#faf3f3;}.cls-8{fill:#ffc675;}.cls-9{fill:#2c1f00;}.cls-10{fill:#815800;}.cls-11{fill:#2c1e00;}.cls-12{fill:#1d1d1b;}.cls-13{clip-path:url(#clip-path);}.cls-14{fill:#fff;}.cls-15{fill:#362185;}.cls-16{fill:#26343e;}.cls-17{fill:#f5f5f6;}.cls-18{fill:#ff2b15;}</style><clipPath id="clip-path"><path id="SVGID" class="cls-1" d="M59.2,21.09c4.78,1.34,4.12,7.3,3.17,10.7S57.1,35.46,56,39.38l-.44,1.55a2.26,2.26,0,0,1-4.36-1.22l.38-1.33c-.66-.1-.17.19-1.43.14-3-.13-3-5.24-3.43-6-1.07-2,.24-.56.4-4.7C47.39,21.27,51,18.8,59.2,21.09Z"/></clipPath></defs><title>CH3-5</title><ellipse class="cls-2" cx="51.02" cy="88.5" rx="13.96" ry="1.3"/><path class="cls-3" d="M52,60A4.84,4.84,0,0,1,50.9,61a3.37,3.37,0,0,1-1.38.58,4.28,4.28,0,0,0,1.31-.67A6.51,6.51,0,0,0,52,60Z"/><path class="cls-3" d="M52.63,60a4.64,4.64,0,0,1-1.05,1.07,3.37,3.37,0,0,1-1.38.58A4.17,4.17,0,0,0,51.51,61,6.51,6.51,0,0,0,52.63,60Z"/><path class="cls-3" d="M53.61,60a4.8,4.8,0,0,1-1,1.06,3.12,3.12,0,0,1-1.38.58A4.17,4.17,0,0,0,52.49,61,6.9,6.9,0,0,0,53.61,60Z"/><path class="cls-4" d="M60.09,84.44l-.4.1-2.2.54-1,.25-.19-.8.13,0L53.11,72.63h0a.36.36,0,0,1,0-.11l0,.11L51.73,68.8l-1.29,3.31s0,0,0,0h0L47.39,84.21l.14,0-.16.8-3.62-.73.16-.8.14,0,2.07-12.22a.09.09,0,0,1,0,0,1.78,1.78,0,0,1,.07-.39l2.38-10.82-.28-.77.45,0,.18-.8,2.48.55,4.16-.39a9.93,9.93,0,0,1,.79,5.68l1,7.06h0a.36.36,0,0,1,0,.11l.05.27,2.33,12,.14,0Z"/><polygon class="cls-5" points="43.77 88.17 46.09 88.22 46.6 84.88 44.37 84.44 43.77 88.17"/><path class="cls-6" d="M46.36,87.27a.08.08,0,0,0-.14,0,.85.85,0,0,1-.79.5c-.62-.08-1.47-1.63-1.47-1.63l-5.55,1.59,7.9,1Z"/><path class="cls-7" d="M44,86.09l.33.54-3.58.82a1,1,0,0,1-.92-.16h0Z"/><path class="cls-4" d="M53.12,72.63h0l0-.11A.36.36,0,0,0,53.12,72.63Z"/><path class="cls-4" d="M53.12,72.63h0l0-.11A.36.36,0,0,0,53.12,72.63Z"/><polygon class="cls-5" points="60.18 87.76 58.2 88.49 57.49 85.08 59.69 84.54 60.18 87.76"/><path class="cls-6" d="M60.28,87.39a.08.08,0,0,0-.15,0,.87.87,0,0,1-.72.6c-.63,0-1.66-1.44-1.66-1.44l-5.31,2.27,8,0Z"/><path class="cls-7" d="M57.75,86.52l.39.5-3.45,1.25a.94.94,0,0,1-.93,0h0Z"/><path class="cls-8" d="M49.72,52a21.82,21.82,0,0,1-6.17,3,.53.53,0,0,1-.12,0l-.15,0a19.42,19.42,0,0,1-2.35.21c-.83,0-1-.43-1.47-1.44-.32-.63-.72-1.32-.27-1.45.1,0,1.88-.62,2.25-.65.78-.06,1.16.33,1.71.41a15,15,0,0,0,4.94-2.5A1.45,1.45,0,0,1,49.72,52Z"/><path class="cls-8" d="M43.79,56.2h0l-.12,0Z"/><path class="cls-5" d="M62.37,31.79c-.95,3.41-5.27,3.67-6.36,7.59,0,0,0,0,0,0l-.42,1.5a2.26,2.26,0,0,1-4.36-1.22l.32-1.14-1.37,0c-3-.13-2.86-4.35-3.25-5.1A4.31,4.31,0,0,0,46,32.31a.24.24,0,0,1,0-.37,7.66,7.66,0,0,0,1.14-4.1c.26-6.57,3.88-9,12.07-6.75C64,22.43,63.32,28.39,62.37,31.79Z"/><path class="cls-9" d="M51,19.11H51v0Z"/><path class="cls-9" d="M51,19.11H51v0Z"/><path class="cls-9" d="M62.71,23.87s0,0,0,0L65,22.26a1.9,1.9,0,0,0-2.44,1.24,4.8,4.8,0,0,0-3.2-2.73c-1.45-.37-2.7-.65-3.78-.81a8.8,8.8,0,0,1-3.65-2.56,3.4,3.4,0,0,0-.51.64,7.74,7.74,0,0,0-2.81-1.57,2.83,2.83,0,0,1,.3,1.59A21,21,0,0,1,47,16.87a10,10,0,0,0,.24,3.43,1.94,1.94,0,0,0-1,2s.79-.42,1.15-.3a1.3,1.3,0,0,0-.34,1.62l.72-.89s0,1.13.25,1.27l.57-1.3a3.42,3.42,0,0,0,1,.6c2.41.89,2.6.27,5.52.82h0c5.4,1.51,7.93,3.28,7.61,6,.06-.23.13-.45.18-.66a.11.11,0,0,1,0,0c0-.07,0-.14,0-.21a9.9,9.9,0,0,0-.27-5.08l2.13.14A1.58,1.58,0,0,0,62.71,23.87ZM51,19.12v0l.06,0Zm11.31,5a0,0,0,0,1,0,0h0l0,0v0h0Z"/><path class="cls-9" d="M51,19.11H51v0Z"/><path class="cls-9" d="M62.32,24.12l0,0a0,0,0,0,1,0,0Z"/><path class="cls-9" d="M62.3,24.1v0h0Z"/><path class="cls-10" d="M62.86,30.15h0a6,6,0,0,0-.15.61c-.78,4.15-5,5.86-5,5.86-2.62-.73,2.65-4.58,1.12-5.44-2.63-1.47-5-2.28-4.5-3.63a18.5,18.5,0,0,0,.73-2,2.6,2.6,0,0,0,.19-1.5C60.65,25.61,63.18,27.38,62.86,30.15Z"/><path class="cls-9" d="M62.3,24.1v0h0Z"/><path class="cls-9" d="M62.32,24.12l0,0a0,0,0,0,1,0,0Z"/><path class="cls-9" d="M63,29.49c-.06.27-.12.54-.2.81,0-.05,0-.09,0-.14h0C62.92,29.92,63,29.7,63,29.49Z"/><path class="cls-8" d="M58.22,30.82l1.43-.1a1.77,1.77,0,0,1,1.9,1.65h0a1.78,1.78,0,0,1-1.65,1.9l-3.47.24Z"/><path class="cls-11" d="M48.43,28.12l2.07.58a.71.71,0,0,1-.38,1.36l-2.07-.58a.71.71,0,1,1,.38-1.36Z"/><path class="cls-12" d="M47.62,30.72a7.8,7.8,0,0,0,2,.26,1.66,1.66,0,0,0-2-.26Z"/><g class="cls-13"><path class="cls-14" d="M49.34,33.37a3.15,3.15,0,0,1-2.5,1.52h0a.31.31,0,0,1-.33-.29.3.3,0,0,1,.28-.33h.07A2.86,2.86,0,0,0,49.34,33.37Z"/></g><path class="cls-15" d="M57.18,46.18c0,.16,0,.32,0,.48l-.48,13.57-8.56-.17s.6-4.45,1.26-9.16l-1.88-.84.27-.61.26.12,2.4-6.07h0C50.74,41.42,51,40,51,40l4.54-.74A15.61,15.61,0,0,1,57.18,46.18Z"/><text/><polygon class="cls-16" points="39.02 87.16 39.47 87.2 42.84 50.73 42.38 50.77 39.02 87.16"/><path class="cls-16" d="M41.5,60.31l.43,0a.11.11,0,0,0,.12-.1l.87-9.4a.1.1,0,0,0-.11-.12l-.44,0a.09.09,0,0,0-.1.09L41.4,60.2A.11.11,0,0,0,41.5,60.31Z"/><rect class="cls-16" x="39.43" y="78.24" width="0.45" height="8.96" transform="translate(71.56 168.72) rotate(-174.74)"/><path class="cls-16" d="M39.06,89.22h0a.31.31,0,0,0,.32-.27l.09-1.75-.45,0-.23,1.74A.31.31,0,0,0,39.06,89.22Z"/><polygon class="cls-17" points="56.42 40.27 49.84 42.4 50.38 39.89 56.63 38.23 56.42 40.27"/><path class="cls-18" d="M61.32,57c-.49,1.09-4.57,1.53-4.57,1.53l0-1.45c-1.56,0-5.16-.53-7.17-5.66l.87-1.21a9.35,9.35,0,0,0,6.32,5.52L57,45.16c-1.58-3-4-4.9-6.06-2.68l-.76,1.68c-.14,0,0-.73.37-1.57,1.86-2.7,5.08-1.3,6.51.11a.55.55,0,0,1,.72-.35,12.55,12.55,0,0,1,1.5.71C61.07,44,62.78,53.68,61.32,57Z"/><path class="cls-16" d="M44.12,54.79a1.1,1.1,0,0,0,.84.44.85.85,0,0,0,.76-.33c.21-.35.08-.95-.41-1.94s-1.75-1.61-2.25-1.39c-.09,0-.31.17-.16.55l.17,0c-.1-.26,0-.33.07-.35.38-.17,1.52.32,2,1.3s.59,1.5.42,1.78a.64.64,0,0,1-.62.24.75.75,0,0,1-.63-.32Z"/></svg>