<svg id="Layer_1" data-name="Layer 1" xmlns="http://www.w3.org/2000/svg" viewBox="0 0 100 100"><defs><style>.cls-1{fill:#0098ff;}.cls-2{fill:#fff;}</style></defs><title>CH3-6</title><path class="cls-1" d="M39.55,86.54C77.82,78.78,83.4,98.59,83.4,37c0-13.27,1.23-22.34-39.34-27.52C19.34,6.3,10.47,29.8,20.87,48,34.07,71.2,23.62,89.77,39.55,86.54Z"/><path class="cls-2" d="M66.49,71.55a4.83,4.83,0,0,0,.39-.87,4.25,4.25,0,0,0,.23-.9,5,5,0,0,0-.63-3.43,3.9,3.9,0,0,0-.52-.69,4.07,4.07,0,0,0-.64-.54L65.14,65c.53-.7,1.08-1.41,1.64-2.12a18.93,18.93,0,0,0,3.52-.44,8.34,8.34,0,0,0,2.36-.91,7.64,7.64,0,0,0,1-.74l.47-.42.2-.2.21-.23A9.61,9.61,0,0,0,76,58a7,7,0,0,0,.82-2.36,3.66,3.66,0,0,0,0-.67,2.5,2.5,0,0,0-.13-.73,1.74,1.74,0,0,0-.2-.38,1.46,1.46,0,0,0-.16-.19l-.06,0,0,0-.13-.09a1.2,1.2,0,0,0-.5-.15,1.44,1.44,0,0,0-.42,0,3.44,3.44,0,0,0-1.19.53,10,10,0,0,0-.94.7A30.34,30.34,0,0,0,70,57.77c-.85,1-1.66,1.94-2.44,2.91-.64,0-1.29.08-1.93.11l-1.11.06a11.79,11.79,0,0,0-1.18.12,11.29,11.29,0,0,0-2.29.57,9.17,9.17,0,0,0-2.1,1.05,7.6,7.6,0,0,0-1.74,1.56c-.13.15-.23.31-.35.46s-.21.33-.3.5a6.13,6.13,0,0,0-.45,1.06,5.18,5.18,0,0,0-.18,2.24l0,.27L56,69c0,.17.11.35.16.53l.09.23.06.13,0,.12.11.23.13.23A6.65,6.65,0,0,0,59,72.94l-.53.79c-.32.46-.64.91-1,1.33a13.25,13.25,0,0,1-1,1.18c-.18.18-.36.35-.55.51l-.13.11-.16.1a2,2,0,0,1-.29.17,2.75,2.75,0,0,1-1.26.33,2.42,2.42,0,0,1-1.17-.29l-.12-.07,0,0s0,0,0,0l0,0-.06,0a1.84,1.84,0,0,1-.22-.17,2.74,2.74,0,0,1-.37-.4,2.46,2.46,0,0,1-.24-.45,1.54,1.54,0,0,1-.11-.46,1.44,1.44,0,0,1,.14-.81,1.1,1.1,0,0,1,.2-.31l.12-.13.07-.06h0l0,0,0,0a2.71,2.71,0,0,1,.25-.17l.25-.11a1.17,1.17,0,0,1,.3,0,1.42,1.42,0,0,0,.43.78,1.44,1.44,0,0,0,2-.09,1.47,1.47,0,0,0,0-2,2.17,2.17,0,0,0-1.72-.62,3.2,3.2,0,0,0-1.82.72,3.24,3.24,0,0,0-.38.36,3.27,3.27,0,0,0-.33.45,3.46,3.46,0,0,0-.4,1.08A2.91,2.91,0,0,0,51,75.7a2.75,2.75,0,0,0,.25.59,3.29,3.29,0,0,0,.38.54,2.94,2.94,0,0,0,.48.45l.29.2.07,0,0,0,0,0,.15.08a3.86,3.86,0,0,0,.68.22,3.54,3.54,0,0,0,.73,0,3.29,3.29,0,0,0,1.44-.43,3,3,0,0,0,.33-.21l.15-.11.15-.13a7.14,7.14,0,0,0,.56-.54,23,23,0,0,0,2-2.56l.57-.8a6.08,6.08,0,0,0,2.09.74,5.33,5.33,0,0,0,2-.05,4.79,4.79,0,0,0,1-.31,3.61,3.61,0,0,0,.44-.22l.23-.14.2-.14.17-.13.21-.18a3.06,3.06,0,0,0,.36-.36A4.4,4.4,0,0,0,66.49,71.55Zm9.12-17.11h0Zm0-.07Zm-5,4c.49-.53,1-1,1.51-1.55a19.59,19.59,0,0,1,1.62-1.42,8.32,8.32,0,0,1,.87-.59,2.47,2.47,0,0,1,.84-.34.23.23,0,0,1,.15,0l0,0s0,0,0,0l0,0a.73.73,0,0,1,.05.12,1.67,1.67,0,0,1,0,.82,5.27,5.27,0,0,1-.89,1.77,11.09,11.09,0,0,1-1.39,1.52l-.19.17-.21.18-.39.31a6.43,6.43,0,0,1-.82.5,7,7,0,0,1-1.87.57c-.4.07-.82.12-1.24.16C69.27,59.83,69.93,59.07,70.61,58.33ZM58.31,71.61a4.52,4.52,0,0,1-.6-.7,4.63,4.63,0,0,1-.49-.8l-.1-.21L57,69.68l0-.11,0-.1-.08-.24a4.55,4.55,0,0,1-.15-.91,3.58,3.58,0,0,1,.05-.92,4.48,4.48,0,0,1,.27-.88,4.93,4.93,0,0,1,.47-.8c.09-.13.2-.25.3-.37s.21-.23.33-.33a7.76,7.76,0,0,1,3.44-1.74,11.84,11.84,0,0,1,2-.31c.34,0,.68,0,1,0h1.24c-.45.6-.89,1.19-1.32,1.78l-.06,0-.18-.07-.35-.09a4.31,4.31,0,0,0-2.57.17,3.87,3.87,0,0,0-1.63,1.19,2.89,2.89,0,0,0-.61,1.31,1.79,1.79,0,0,0,0,.88l.05.12,0,.08,0,.06v-.07a1.79,1.79,0,0,1,0-.21,2,2,0,0,1,.25-.71,2.8,2.8,0,0,1,.8-.82A3.42,3.42,0,0,1,61.71,66a3.28,3.28,0,0,1,1.73.18h0c-.35.5-.7,1-1,1.5-.73,1.07-1.41,2.13-2.07,3.15-.33.51-.66,1-1,1.5l-.06.08A4.21,4.21,0,0,1,58.31,71.61Zm5.9.27A3.75,3.75,0,0,1,61.46,73a4.32,4.32,0,0,1-1.78-.41c1-1.46,2.08-3,3.23-4.57L64,66.45h0l.19.13a3,3,0,0,1,.6.74,3.85,3.85,0,0,1,.39,2.19,4.16,4.16,0,0,1-.3,1.24,3.19,3.19,0,0,1-.3.58,1.65,1.65,0,0,1-.19.27l0,.07,0,0v0h0Z"/><path class="cls-2" d="M56.91,42.82a4.34,4.34,0,0,0-.42-.73,4,4,0,0,0-.53-.63,4.37,4.37,0,0,0-2.78-1.31,4,4,0,0,0-.77,0,4.46,4.46,0,0,0-.72.18l-.18.07c-.23-.74-.45-1.5-.67-2.27a17.25,17.25,0,0,0,1.49-2.76,7.24,7.24,0,0,0,.56-2.15,6.22,6.22,0,0,0,0-1.14c0-.19,0-.36-.06-.56l0-.24,0-.27a8.74,8.74,0,0,0-.68-2,5.89,5.89,0,0,0-1.27-1.81,3.38,3.38,0,0,0-.46-.37,2.31,2.31,0,0,0-.59-.28,2,2,0,0,0-.38-.06l-.21,0-.07,0h0l-.14,0a1.15,1.15,0,0,0-.36.28,1.66,1.66,0,0,0-.2.32,3.08,3.08,0,0,0-.23,1.13,7.17,7.17,0,0,0,0,1,27,27,0,0,0,.66,3.89c.26,1.1.55,2.18.85,3.24-.3.49-.61,1-.92,1.45l-.53.83a10,10,0,0,0-.52.9,10.45,10.45,0,0,0-.77,1.94,9,9,0,0,0-.33,2.05,7,7,0,0,0,.23,2c0,.17.1.33.15.49s.13.32.21.48a4.81,4.81,0,0,0,.53.87,4.39,4.39,0,0,0,1.51,1.27l.22.11.22.09a4.34,4.34,0,0,0,.47.16l.21.05.12,0,.12,0,.22,0,.23,0a6.16,6.16,0,0,0,1.82,0A6,6,0,0,0,54,48.94c.1.27.2.53.29.79.17.47.32.93.46,1.38a13.76,13.76,0,0,1,.33,1.34,4.81,4.81,0,0,1,.08.65s0,.11,0,.15v.17a2.85,2.85,0,0,1,0,.29,2.5,2.5,0,0,1-.42,1.08,2.19,2.19,0,0,1-.8.69l-.12.05h-.05l-.07,0-.23.07a2.61,2.61,0,0,1-.48.05,2.14,2.14,0,0,1-.45-.05,1.45,1.45,0,0,1-.38-.16,1.3,1.3,0,0,1-.52-.52,1.08,1.08,0,0,1-.11-.3.94.94,0,0,1,0-.16v-.07h0v-.09a2.62,2.62,0,0,1,0-.27,2,2,0,0,1,0-.24.71.71,0,0,1,.12-.23,1.28,1.28,0,0,0,.78.08,1.25,1.25,0,0,0,1-1.5,1.29,1.29,0,0,0-1.49-1,1.87,1.87,0,0,0-1.33.91,2.83,2.83,0,0,0-.42,1.68,3.87,3.87,0,0,0,.06.46,3.6,3.6,0,0,0,.15.47,2.91,2.91,0,0,0,.58.83,2.32,2.32,0,0,0,.93.59,2.57,2.57,0,0,0,.55.12,2.8,2.8,0,0,0,.58,0,3,3,0,0,0,.58-.12,1.57,1.57,0,0,0,.28-.1L54,56l0,0,0,0,.14-.07a2.94,2.94,0,0,0,.5-.37,2.8,2.8,0,0,0,.41-.5,3,3,0,0,0,.44-1.25c0-.11,0-.23,0-.35v-.16c0-.07,0-.12,0-.18,0-.23-.06-.45-.1-.68a20.37,20.37,0,0,0-.81-2.76c-.09-.27-.19-.54-.28-.82A5.48,5.48,0,0,0,56,47.69a4.76,4.76,0,0,0,1-1.45,4.32,4.32,0,0,0,.27-.84c0-.15,0-.29.07-.44a1.77,1.77,0,0,0,0-.23,1.86,1.86,0,0,0,0-.22v-.19l0-.24a2.13,2.13,0,0,0-.07-.44A3.78,3.78,0,0,0,56.91,42.82Zm-7.6-15.36h0Zm0-.06h0Zm.26,5.66c-.13-.63-.24-1.25-.34-1.88a17.44,17.44,0,0,1-.18-1.9,7,7,0,0,1,0-.92,2.24,2.24,0,0,1,.18-.78.29.29,0,0,1,.08-.11h0s0,0,0,0h0l.11,0a1.7,1.7,0,0,1,.57.45,4.67,4.67,0,0,1,.81,1.55,9.72,9.72,0,0,1,.38,1.78l0,.23,0,.24c0,.14,0,.3,0,.44a4.8,4.8,0,0,1-.07.85,6,6,0,0,1-.55,1.63c-.16.33-.34.65-.52,1C49.93,34.79,49.72,33.93,49.54,33.06Zm3.21,15.67a4.36,4.36,0,0,1-.81.07,3.79,3.79,0,0,1-.82-.07l-.21,0-.2-.05-.11,0-.09,0-.21-.07a3.49,3.49,0,0,1-.73-.35,3.13,3.13,0,0,1-.63-.51,3.88,3.88,0,0,1-.5-.65,3.57,3.57,0,0,1-.33-.75,3,3,0,0,1-.11-.4,3.07,3.07,0,0,1-.07-.42,6.79,6.79,0,0,1,.52-3.36,11.16,11.16,0,0,1,.8-1.58,8.9,8.9,0,0,1,.49-.76L50.3,39a.36.36,0,0,1,.07-.1c.19.62.39,1.25.6,1.86l-.06,0-.13.1-.25.2A3.8,3.8,0,0,0,49.33,43a3.39,3.39,0,0,0,0,1.77A2.48,2.48,0,0,0,50,45.88a1.44,1.44,0,0,0,.65.41l.11,0h.14l-.05,0a.92.92,0,0,1-.14-.11,1.44,1.44,0,0,1-.38-.54,2.27,2.27,0,0,1-.18-1,3,3,0,0,1,.31-1.28,2.9,2.9,0,0,1,1-1.14h0c.18.51.36,1,.55,1.51.39,1.07.8,2.11,1.19,3.11.2.49.39,1,.58,1.47l0,.08A4,4,0,0,1,52.75,48.73ZM56,44.63a3.36,3.36,0,0,1-.63,2.54,3.81,3.81,0,0,1-1.22,1.06c-.52-1.48-1.07-3-1.61-4.67C52.34,43,52.17,42.49,52,42h0a1.52,1.52,0,0,1,.2-.06,2.28,2.28,0,0,1,.83-.06,3.49,3.49,0,0,1,1.78.85,4,4,0,0,1,.74.85,3.16,3.16,0,0,1,.26.52c0,.09.07.18.1.27l0,.07v.06h0Z"/><path class="cls-2" d="M72.94,43.44h0l7.29-16.74-.91-.41L72.9,41a4.4,4.4,0,0,0-2.3-2.27c-2-.89-4.27-.25-5,1.44s.3,3.74,2.32,4.64,4.19.36,5-1.42h0Z"/><path class="cls-2" d="M38.42,66.23h0L35.66,49.16l-.94.14,2.41,15a4.08,4.08,0,0,0-3-.63c-2.07.32-3.53,2-3.26,3.71s2.16,2.83,4.23,2.5,3.52-1.85,3.26-3.69h0Z"/><path class="cls-2" d="M41.7,29h0l2.43-15.65h0l0-.26-12.29-.41-.27,1.86L29.75,26.6a3.84,3.84,0,0,0-2.43-1.39,3.22,3.22,0,0,0-3.88,2.32c-.25,1.58,1.08,3.06,3,3.37s3.58-.62,3.88-2.3h0v0h0l1.9-12.24,10.55.22L41.15,27a3.8,3.8,0,0,0-2.43-1.39,3.22,3.22,0,0,0-3.88,2.32,3.24,3.24,0,0,0,3,3.44,3.23,3.23,0,0,0,3.87-2.22h0ZM32.34,15.44l.13-.83L43,14.9l-.12.77Z"/></svg>