<svg id="Layer_1" data-name="Layer 1" xmlns="http://www.w3.org/2000/svg" xmlns:xlink="http://www.w3.org/1999/xlink" viewBox="0 0 100 100"><defs><style>.cls-1{fill:#5c0759;}.cls-2{clip-path:url(#clip-path);}.cls-3{fill:#6a5de2;}.cls-4{fill:#9561b8;}.cls-5{fill:#bf658d;}.cls-6{fill:#ff651a;}.cls-7{fill:#ffd588;}.cls-8{fill:#f4e100;}.cls-9{fill:#0a0a0c;}.cls-10{fill:#f9c800;}.cls-11{fill:#fff;}</style><clipPath id="clip-path"><path class="cls-1" d="M81.55,33c-3.5,22,6.64,50.11-21.81,50.11-17.36,0-37.08-14.92-37.08-27.92,0-8,2.75-6.89,1.89-17.37-.75-9.28-1.89-21.58,27.13-18.56C62.81,20.4,66,15.91,73.49,15.91S83.8,18.81,81.55,33Z"/></clipPath></defs><title>CH4-1</title><g id="thoughs_bubble" data-name="thoughs bubble"><path class="cls-1" d="M12.24,31.06c6.44-1,9.26,4.11,9.26,6.36s-.91,7.23-4.32,7.23S9.08,39,9,35.57,10.87,31.27,12.24,31.06Z"/><path class="cls-1" d="M81.55,33c-3.5,22,6.64,50.11-21.81,50.11-17.36,0-37.08-14.92-37.08-27.92,0-8,2.75-6.89,1.89-17.37-.75-9.28-1.89-21.58,27.13-18.56C62.81,20.4,66,15.91,73.49,15.91S83.8,18.81,81.55,33Z"/><g class="cls-2"><path class="cls-3" d="M44.76,13A38.54,38.54,0,0,0,34.13,21,29.31,29.31,0,0,0,27.5,32.46a26.74,26.74,0,0,0-1,6.52,26.08,26.08,0,0,0,.75,6.53,29,29,0,0,0,5.87,11.66,39.78,39.78,0,0,0,10,8.49,55,55,0,0,0,12,5.39c8.45,2.73,17.3,4,26.18,5.19l-.42,2.93c-8.88-1.4-17.87-3-26.48-6a56.94,56.94,0,0,1-12.34-5.92,41.34,41.34,0,0,1-10.21-9.13,30.44,30.44,0,0,1-5.83-12.36,25.91,25.91,0,0,1,.61-13.57A29.88,29.88,0,0,1,33.77,20.7,38.94,38.94,0,0,1,44.7,12.83Z"/><path class="cls-4" d="M45.8,14a36,36,0,0,0-9.61,7.45A26.29,26.29,0,0,0,30.33,32a20.53,20.53,0,0,0,.35,11.8l.51,1.4c.09.23.16.46.27.69l.38.65c.5.86,1,1.74,1.51,2.59l1.74,2.47c.57.82,1.27,1.55,1.91,2.33a45.42,45.42,0,0,0,9.07,7.87,54.1,54.1,0,0,0,10.77,5.36,71.52,71.52,0,0,0,23.63,4.22l-.08,3A74,74,0,0,1,56,69.24a56,56,0,0,1-11-5.88,47.56,47.56,0,0,1-9.19-8.44c-.64-.83-1.34-1.61-1.92-2.47l-1.72-2.61c-.52-.91-1-1.84-1.5-2.75l-.37-.69c-.11-.24-.18-.5-.27-.75l-.51-1.5a21.46,21.46,0,0,1,0-12.4,27,27,0,0,1,6.3-10.6,36.25,36.25,0,0,1,9.92-7.25Z"/><path class="cls-5" d="M46.68,14.42A24.06,24.06,0,0,0,33.12,30.79a19.63,19.63,0,0,0-.31,5.4c0,.45.14.89.2,1.34a8.25,8.25,0,0,0,.28,1.31l.37,1.29.55,1.26a28.67,28.67,0,0,0,5.88,9.08,34.51,34.51,0,0,0,8.57,6.61,57.19,57.19,0,0,0,10,4.38,157.63,157.63,0,0,0,21.49,5.05l-.58,2.89a159.33,159.33,0,0,1-21.66-5.82A58.65,58.65,0,0,1,47.7,58.72a35.72,35.72,0,0,1-8.76-7.21,30.19,30.19,0,0,1-5.85-9.68l-.52-1.32-.36-1.4A8.53,8.53,0,0,1,32,37.7c-.05-.48-.15-1-.16-1.42a20.32,20.32,0,0,1,.5-5.67A24.58,24.58,0,0,1,46.62,14.28Z"/><path class="cls-6" d="M47.46,15a18.21,18.21,0,0,0-5.9,3.66A11.78,11.78,0,0,0,38,24.47h0v0a20.63,20.63,0,0,0-1.15,8,21.7,21.7,0,0,0,2,7.82,27.46,27.46,0,0,0,4.5,6.74,18.74,18.74,0,0,0,2.92,2.78c.51.43,1.06.83,1.62,1.22s1.1.8,1.68,1.15a51.93,51.93,0,0,0,15,6.37,164.12,164.12,0,0,0,16.21,3.2l-.52,2.91c-5.45-1.1-11-2.17-16.34-3.82a54.16,54.16,0,0,1-15.32-7.17c-.59-.38-1.15-.83-1.71-1.26s-1.12-.86-1.66-1.34a20.68,20.68,0,0,1-3-3.06,28.78,28.78,0,0,1-4.46-7.23,22.72,22.72,0,0,1-1.85-8.27,21.52,21.52,0,0,1,1.48-8.3v0A12.19,12.19,0,0,1,41.3,18.4a18.68,18.68,0,0,1,6.11-3.51Z"/><path class="cls-7" d="M47.32,15.47a23,23,0,0,0-6.79,7.24,13.34,13.34,0,0,0-1.41,4.69,18.38,18.38,0,0,0,.16,4.91v-.05a24.69,24.69,0,0,0,6.54,11.08,46.31,46.31,0,0,0,10.61,7.59l-.1,0A75.51,75.51,0,0,0,69,54.48c4.35.92,8.77,1.72,13.18,2.85l-.79,2.85C77.2,58.92,72.84,58,68.48,56.86a77,77,0,0,1-12.92-4.21l-.07,0,0,0a47.42,47.42,0,0,1-10.67-8.27,27.4,27.4,0,0,1-4-5.51,24.91,24.91,0,0,1-2.41-6.33v-.05a18.83,18.83,0,0,1,0-5.14,13.92,13.92,0,0,1,1.67-4.85,23.13,23.13,0,0,1,7.17-7.1Z"/><path class="cls-8" d="M71.4,30.7l-4.78,6.17a.9.9,0,0,0,.43.6,1.74,1.74,0,0,0,1.24.07l4.78-6.17Z"/><path class="cls-9" d="M81.15,18.11l-9.76,12.6,1.07.43.61.24,2.14-2.77,7.1-9.16A4.94,4.94,0,0,1,81.15,18.11Z"/><path class="cls-10" d="M63.62,41.88s-3.25,3.37-2.14,5.62a4.7,4.7,0,0,0-5.38-.86,6.45,6.45,0,0,0,1.65-5.7S59.18,42.87,63.62,41.88Z"/><path class="cls-10" d="M73.79,40.47S71,43.36,72,45.29a4,4,0,0,0-4.61-.73,5.59,5.59,0,0,0,1.42-4.9S70,41.32,73.79,40.47Z"/><path class="cls-10" d="M65.1,30.05S61.85,33.42,63,35.66a4.69,4.69,0,0,0-5.37-.85,6.48,6.48,0,0,0,1.65-5.7S60.66,31,65.1,30.05Z"/><path class="cls-11" d="M64.65,78.61h0L77.92,58h0l.22-.33L61.05,49.39l-1.57,2.47L49.3,67.68a5.81,5.81,0,0,0-2.55-3.48c-2.49-1.62-5.6-1.25-6.94.82s-.4,5,2.08,6.64,5.46,1.38,6.93-.81h0l0,0h0L60.69,52.46l14.69,7L65.14,75.41a5.84,5.84,0,0,0-2.55-3.48c-2.48-1.62-5.59-1.25-6.94.82s-.4,5,2.08,6.64,5.46,1.38,6.93-.81h0Z"/><path class="cls-11" d="M45.16,43.53a5.35,5.35,0,0,0,.42-1,5.09,5.09,0,0,0,.23-1A5.57,5.57,0,0,0,45,37.7a4.46,4.46,0,0,0-.6-.76,4.17,4.17,0,0,0-.74-.59,1.07,1.07,0,0,0-.21-.13c.58-.8,1.18-1.61,1.79-2.42a21.26,21.26,0,0,0,3.94-.6,9.65,9.65,0,0,0,2.62-1.07A8.36,8.36,0,0,0,53,31.26c.18-.16.34-.31.51-.49l.22-.22.24-.26A11,11,0,0,0,55.49,28a7.44,7.44,0,0,0,.87-2.66,3.84,3.84,0,0,0,0-.76,2.8,2.8,0,0,0-.17-.81,1.8,1.8,0,0,0-.23-.43,1.12,1.12,0,0,0-.18-.2l-.07-.06,0,0a1.3,1.3,0,0,0-.15-.1,1.26,1.26,0,0,0-.57-.16,1.75,1.75,0,0,0-.47,0,4,4,0,0,0-1.33.63,10.51,10.51,0,0,0-1,.81A34.57,34.57,0,0,0,48.71,28q-1.38,1.66-2.65,3.34c-.72.07-1.44.12-2.17.18l-1.24.09c-.44,0-.88.09-1.32.16a13.21,13.21,0,0,0-2.55.71,10.25,10.25,0,0,0-2.34,1.23,8.79,8.79,0,0,0-1.9,1.8,6.42,6.42,0,0,0-.38.53c-.11.19-.23.37-.33.57a6.5,6.5,0,0,0-.47,1.2,5.5,5.5,0,0,0-.14,2.51l.06.31.07.29c0,.2.13.4.2.6l.11.25.06.15.07.13.13.26.14.26a7.86,7.86,0,0,0,1.44,1.8,6.76,6.76,0,0,0,1.25.95c-.19.31-.39.61-.58.9-.34.53-.69,1-1.05,1.52A12.54,12.54,0,0,1,34,49.07a6.55,6.55,0,0,1-.6.58l-.15.13-.17.12a2.49,2.49,0,0,1-.32.2,3.2,3.2,0,0,1-1.41.4,2.71,2.71,0,0,1-1.31-.29l-.14-.08,0,0h0l0,0-.07,0-.25-.19a3,3,0,0,1-.43-.44,2.76,2.76,0,0,1-.28-.5,1.94,1.94,0,0,1-.14-.51,1.6,1.6,0,0,1,.14-.91,1.34,1.34,0,0,1,.22-.36l.13-.15.07-.07s0,0,0,0h0l0,0,.05,0a1.89,1.89,0,0,1,.27-.2,2.38,2.38,0,0,1,.29-.13,1.51,1.51,0,0,1,.33-.07,1.58,1.58,0,0,0,.5.86A1.62,1.62,0,0,0,33,47.16a1.65,1.65,0,0,0-.1-2.3,2.44,2.44,0,0,0-1.95-.65,3.63,3.63,0,0,0-2,.86,3.28,3.28,0,0,0-.41.42,4.16,4.16,0,0,0-.36.51,3.73,3.73,0,0,0-.41,1.22,3.14,3.14,0,0,0,.12,1.39,2.8,2.8,0,0,0,.3.66,3.41,3.41,0,0,0,.43.59,3.84,3.84,0,0,0,.56.5l.33.21.07,0,.05,0,0,0,.18.08a4,4,0,0,0,.77.23,3.73,3.73,0,0,0,.82,0,3.58,3.58,0,0,0,1.6-.51,3,3,0,0,0,.37-.25l.16-.13c.07,0,.11-.1.17-.15a7.15,7.15,0,0,0,.61-.62,26,26,0,0,0,2.19-2.93c.2-.3.41-.6.61-.91a6.94,6.94,0,0,0,2.37.77,6.2,6.2,0,0,0,2.23-.1,5.83,5.83,0,0,0,1.06-.38c.17-.08.33-.17.49-.26l.25-.17.22-.16.19-.14.23-.21a5,5,0,0,0,.39-.41A5.42,5.42,0,0,0,45.16,43.53Zm9.77-19.45h0ZM55,24h0Zm-5.54,4.58c.53-.6,1.08-1.2,1.65-1.77a21.08,21.08,0,0,1,1.78-1.64,8.92,8.92,0,0,1,1-.69,3.08,3.08,0,0,1,.93-.41.87.87,0,0,1,.17,0l0,0s0,0,0,0l0,0,0,.13a1.92,1.92,0,0,1,0,.92,5.77,5.77,0,0,1-1,2,12,12,0,0,1-1.52,1.75l-.2.19-.24.21a5.12,5.12,0,0,1-.43.36,5.83,5.83,0,0,1-.91.58,7.59,7.59,0,0,1-2.08.69c-.45.09-.91.16-1.39.22C48,30.31,48.68,29.44,49.43,28.58ZM36,43.83a6.32,6.32,0,0,1-.69-.77,5.53,5.53,0,0,1-.56-.89l-.13-.24-.1-.24-.06-.12,0-.12-.1-.26a4.75,4.75,0,0,1-.19-1,3.62,3.62,0,0,1,0-1,3.92,3.92,0,0,1,.28-1,4.76,4.76,0,0,1,.5-.91c.1-.15.21-.28.32-.42a4.4,4.4,0,0,1,.37-.38,8.65,8.65,0,0,1,3.81-2,12.48,12.48,0,0,1,2.21-.4c.38,0,.76-.07,1.15-.08l1.23,0h.16c-.49.68-1,1.35-1.43,2l-.08,0-.2-.06-.4-.1a4.9,4.9,0,0,0-2.88.26,4.46,4.46,0,0,0-1.79,1.38,3.17,3.17,0,0,0-.65,1.49,2,2,0,0,0,.08,1l.06.14,0,.08,0,.07V40a2.2,2.2,0,0,1,0-.23,2,2,0,0,1,.26-.8,3.07,3.07,0,0,1,.88-1,3.81,3.81,0,0,1,1.53-.65,3.73,3.73,0,0,1,1.94.15h0c-.39.58-.76,1.15-1.12,1.72-.78,1.22-1.53,2.42-2.24,3.58l-1,1.72-.06.09A5.29,5.29,0,0,1,36,43.83Zm6.63.13a4.2,4.2,0,0,1-3.06,1.3,5,5,0,0,1-2-.41c1.11-1.66,2.26-3.41,3.51-5.22.4-.58.81-1.16,1.23-1.75h0l.21.15a2.88,2.88,0,0,1,.69.81,4.36,4.36,0,0,1,.51,2.45,5,5,0,0,1-.31,1.4,3.35,3.35,0,0,1-.32.66,2.11,2.11,0,0,1-.21.31l0,.07,0,0,0,0s0,0,0,0Z"/></g></g></svg>