<svg id="Layer_1" data-name="Layer 1" xmlns="http://www.w3.org/2000/svg" viewBox="0 0 100 100"><defs><style>.cls-1{fill:#e5e3e3;}.cls-2{fill:#6fcfc4;}.cls-3{fill:#65a5ff;}.cls-4{fill:#5c3cd0;}.cls-5{fill:#b7e5df;}.cls-6{fill:#ffd6be;}.cls-7{fill:#d66238;}.cls-8{fill:#26262a;}.cls-9{fill:#cdccbe;}</style></defs><title>CH4-2</title><path class="cls-1" d="M37.41,11.23C22.8,14.54,11,15.5,11,25.67c0,8,7.6,14.86,18.18,17.37l-1.14,3.72,5.38-3a40.27,40.27,0,0,0,4.71.28c15,0,27.12-8.24,27.12-18.4S58,6.57,37.41,11.23Z"/><ellipse class="cls-2" cx="40.45" cy="33.51" rx="13.02" ry="2.41" transform="translate(-4.58 6.47) rotate(-8.66)"/><path class="cls-3" d="M53.59,33.35c.2,1.32-5.4,3.26-12.51,4.34s-13,.9-13.23-.42c0,0,0-.05,0-.07l-.26-1.73c-.2-1.32,5.39-3.26,12.5-4.34s13-.9,13.23.42c0,0,0,.05,0,.07Z"/><path class="cls-4" d="M52.81,31.63c0,.08-.37.76-3.39,1.78a53.75,53.75,0,0,1-8.69,2,52.43,52.43,0,0,1-8.88.69c-3.19-.07-3.72-.61-3.77-.69l-1.67-11,24.73-3.76Z"/><path class="cls-5" d="M39.06,24.44a53.37,53.37,0,0,1-8.88.68c-3.18-.07-3.71-.61-3.77-.69s.38-.76,3.39-1.78a53.75,53.75,0,0,1,8.69-2A53.56,53.56,0,0,1,47.37,20c3.19.07,3.72.62,3.77.69s-.37.76-3.39,1.78A53.67,53.67,0,0,1,39.06,24.44Z"/><path class="cls-3" d="M51.93,22.43c.2,1.31-5.4,3.26-12.51,4.34s-13,.89-13.23-.42v-.07l-.27-1.73c-.2-1.32,5.4-3.26,12.51-4.35s13-.89,13.23.43c0,0,0,.05,0,.07Z"/><ellipse class="cls-6" cx="39.12" cy="22.84" rx="12.83" ry="2.22" transform="translate(-2.99 6.15) rotate(-8.66)"/><path class="cls-7" d="M46.29,20.76a1.76,1.76,0,0,1-2.75,2.18,1.74,1.74,0,0,1,.05-2.48,1.78,1.78,0,0,1,2.24-.18l9.24-9.23.73.77Z"/><path class="cls-7" d="M34.69,24.16a1.76,1.76,0,0,1-3.19-1.45L20.09,16.35l.53-.92,11.21,6.71a1.76,1.76,0,0,1,2.86,2Z"/><path class="cls-1" d="M65.86,50.72c-15-12.34-24,2.86-23.89,12.1S53,79.47,66.35,79.36l1.84,0,1.27,4.54,2-4.74c11-1,19.43-4.89,19.36-12.92C90.77,57,76.83,59.75,65.86,50.72Z"/><path class="cls-8" d="M86.27,70.76l-.83,1.84L85,73.66,46.69,56.31a2,2,0,0,1-1.28-1.86,1.4,1.4,0,0,1,.06-.28l.05-.14.11-.19,0,0a1.48,1.48,0,0,1,.24-.26l.06-.05a1.34,1.34,0,0,1,.31-.17l0,0,.22-.07a2.28,2.28,0,0,1,1.48.16L70.82,63.75l1.49.68,8.79,4,1.48.67Z"/><circle class="cls-9" cx="56.85" cy="59.15" r="1.39"/><circle class="cls-9" cx="61.94" cy="61.46" r="1.39"/><circle class="cls-9" cx="67.03" cy="63.75" r="1.39"/><circle class="cls-9" cx="72.12" cy="66.06" r="1.39"/><circle class="cls-9" cx="76.73" cy="68.26" r="1.39"/><circle class="cls-9" cx="81.82" cy="70.57" r="1.39"/><path class="cls-9" d="M71.66,63h0Z"/><path class="cls-9" d="M84.17,68.65h0Z"/><path class="cls-9" d="M84.45,73v0h0Z"/></svg>