<svg id="Layer_1" data-name="Layer 1" xmlns="http://www.w3.org/2000/svg" xmlns:xlink="http://www.w3.org/1999/xlink" viewBox="0 0 100 100"><defs><style>.cls-1{fill:none;}.cls-2{fill:#ced9ef;}.cls-3{fill:#a7bcf7;}.cls-4{fill:#26343e;}.cls-5{fill:#ffc140;}.cls-6{fill:#ffc365;}.cls-7{fill:#362185;}.cls-8{fill:#009aff;}.cls-9{fill:#f7a000;}.cls-10{fill:#46160a;}.cls-11{clip-path:url(#clip-path);}.cls-12{fill:red;}.cls-13{fill:#fff;}.cls-14{fill:#815800;}.cls-15{fill:#2c1e00;}.cls-16{fill:#1d1d1b;}.cls-17{fill:#2c1f00;}.cls-18{fill:#161176;opacity:0.55;}.cls-19{fill:#ffc340;}.cls-20{fill:#fbf4f4;}.cls-21{fill:#ea3228;}.cls-22{fill:#0035ca;stroke:#0035ca;stroke-miterlimit:10;stroke-width:0.15px;}</style><clipPath id="clip-path"><path id="SVGID" class="cls-1" d="M62.69,32.35a2.08,2.08,0,0,1-4.16,0,8.78,8.78,0,0,0,4.16,0Z"/></clipPath></defs><title>CH4-3</title><path class="cls-2" d="M81.82,60.79H16q.08,7.14.14,14.28H82.27C82.12,70.31,82,65.56,81.82,60.79Z"/><path class="cls-3" d="M81.74,45.5H15.55c0,1.9.07,3.8.12,5.7.08,3.2.17,6.39.26,9.59H81.67C81.6,55.7,81.7,50.6,81.74,45.5Z"/><g id="albert"><g id="stick"><path class="cls-4" d="M35.78,92.76a.43.43,0,0,1-.42.43.42.42,0,0,1-.43-.42L35,90.24l-.09-12.91-.17-25.94-.08-12.16h0l.62.1.08,12.05.17,25.94.09,12.92Z"/><path class="cls-4" d="M34.75,51.39a.15.15,0,0,1-.14-.15l-.08-11.86a.14.14,0,0,1,.14-.15Z"/><path class="cls-4" d="M35.55,51.23a.15.15,0,0,1-.15.15l-.08-12.05h0a.15.15,0,0,1,.13.15Z"/><polygon class="cls-4" points="35.66 90.24 35.57 77.32 35.58 77.32 35.66 90.24"/></g><path class="cls-5" d="M69.58,54a.69.69,0,0,1,0,.13l0-.1Z"/><path class="cls-5" d="M73.19,54.48h0l-1.94.2h0l-1.76.17,0-.35h0l0-.18.09,0h0a.64.64,0,0,0,0-.07.13.13,0,0,0,0,.06l.42-.11,2.78-.77.28-.08c.06.33.13.68.17.92,0,0,0,0,0,0S73.19,54.45,73.19,54.48Z"/><path class="cls-6" d="M73.17,54.48a1.69,1.69,0,0,1-.07.83h0a1.69,1.69,0,0,1-.12.27,17.14,17.14,0,0,1-4.69,6.9c-1.15,1-3.17.46-2.34-1.35a3.38,3.38,0,0,1,.34-.59,25.9,25.9,0,0,0,1.85-3.08,23.47,23.47,0,0,0,1.27-3h0a1.18,1.18,0,0,0,.07-.2h0a.64.64,0,0,0,0-.07.13.13,0,0,0,0,.06l.42-.11,2.78-.77a1.86,1.86,0,0,1,.45.84s0,0,0,0,0,.19,0,.22Z"/><path class="cls-6" d="M69.58,54a.69.69,0,0,1,0,.13l0-.1Z"/><path class="cls-7" d="M73.19,52.34l-.16,0c-1-3.62-3.12-11.45-4.45-12.2l-.1,0h0l-5.4-2.41,0,.06h0a1.62,1.62,0,0,1-1,1.09l-.31.36-.93,3.29h0a.37.37,0,0,1-.32.19.37.37,0,0,1-.38-.33h0l-.41-3.1-.22-.19h0a1.83,1.83,0,0,1-1.51-1.3h0l-.08-.07-2.29,1a.12.12,0,0,0-.14,0c-1.5.67-4.84.45-7.91.12a3,3,0,0,1-.31,0h0c-1.91-.21-3.68-.45-4.82-.53v-.17l-.84,0,0,.43v0l-.21,3.17v.16l0,.67.89,0v-.17c1.4.08,9.82.68,10.24,3.26l.72,15.22,7.19.1.17.65L66,61.14a3.38,3.38,0,0,1,.34-.59,25.9,25.9,0,0,0,1.85-3.08l.12-6.25.59,2.27-.22.06.23.91.53-.15.09,0h0a.64.64,0,0,0,0-.07.13.13,0,0,0,0,.06l.42-.11,2.78-.77.28-.08.42-.11Zm-3.66,1.81,0-.1,0,0A.69.69,0,0,1,69.53,54.15Z"/><path class="cls-7" d="M69.49,54.29a.64.64,0,0,0,0-.07.13.13,0,0,0,0,.06Z"/><path class="cls-7" d="M69.58,54a.69.69,0,0,1,0,.13l0-.1Z"/><rect class="cls-8" x="54.03" y="60.85" width="13.35" height="4.56"/><path class="cls-6" d="M72.69,26.77a2.05,2.05,0,0,0-2.62-1.24l-.15,0-.4.14h0l-.56.19c0-1.84-1-3.79-1.47-5.05a.3.3,0,0,1,0-.1,15.91,15.91,0,0,1-9-.58s.1.69,1.82,1.2c-3.21.31-5.41,0-6.76-.74-.43,1.63-1.34,3.7-1.35,5.27l-.48-.17-.47-.17-.15,0a2.05,2.05,0,0,0-2.62,1.24,2.09,2.09,0,0,0-.12.69,2,2,0,0,0,1.36,1.93l3.34,1.19a11.32,11.32,0,0,0,4.8,5.67v1a2.38,2.38,0,0,0,.06.55h0a1.83,1.83,0,0,0,1.51,1.3h0a4.61,4.61,0,0,0,1,.1,3.6,3.6,0,0,0,1.6-.31,1.62,1.62,0,0,0,1-1.09h0a2.23,2.23,0,0,0,.06-.54v-.85a11.1,11.1,0,0,0,5.1-5.83h0l3.26-1.16a2,2,0,0,0,1.36-1.93A2.09,2.09,0,0,0,72.69,26.77ZM61.94,30.53a4.23,4.23,0,0,1-2.72,0A3.25,3.25,0,0,1,61.94,30.53Zm-6.52-2a1.54,1.54,0,0,1,1.19-.22c.63.09,1.1.44,1.08.54A9.21,9.21,0,0,1,55.42,28.54Zm2.36-1.19H55.3a.78.78,0,0,1-.51-.19.73.73,0,0,1-.27-.41.71.71,0,0,1,0-.21.81.81,0,0,1,.81-.81h2.48a.81.81,0,1,1,0,1.62Zm2.83,7.07a2.08,2.08,0,0,1-2.08-2.07,8.78,8.78,0,0,0,4.16,0A2.08,2.08,0,0,1,60.61,34.42Zm2.67-5.56c0-.1.45-.45,1.08-.54a1.54,1.54,0,0,1,1.19.22A9.21,9.21,0,0,1,63.28,28.86Zm3.13-2c0,.05,0,.1-.08.14a.79.79,0,0,1-.68.37H63.17a.81.81,0,1,1,0-1.62h2.48a.81.81,0,0,1,.81.81A.94.94,0,0,1,66.41,26.84Z"/><path class="cls-6" d="M62.69,32.35a2.08,2.08,0,0,1-4.16,0,8.78,8.78,0,0,0,4.16,0Z"/><path class="cls-7" d="M68.14,57.47l-.07,3.47-2.12.2a3.38,3.38,0,0,1,.34-.59A25.9,25.9,0,0,0,68.14,57.47Z"/><path class="cls-5" d="M47.51,38.85h0a3,3,0,0,1-.31,0Z"/><path class="cls-6" d="M41.51,38.54v0l-.21,3.17v.16a17.46,17.46,0,0,0-4.4.71,2.41,2.41,0,0,0,0,1.43,4.41,4.41,0,0,1-.42,2.49c-.19.41-1.26.31-1-.79s.16-1.41-.43-1.16-.42,1.48-.54,2.86-.72,1.28-1.29-.35A6.47,6.47,0,0,1,34.8,40l0,0a5.09,5.09,0,0,1,.5-.38l.25-.14.06,0C37.06,38.75,39.24,38.74,41.51,38.54Z"/><path class="cls-6" d="M35.33,39.6a5.09,5.09,0,0,0-.5.38s0,0,0,0A2.69,2.69,0,0,1,35.33,39.6Z"/><path class="cls-6" d="M62.69,32.35a2.08,2.08,0,0,1-4.16,0,8.78,8.78,0,0,0,4.16,0Z"/><path class="cls-6" d="M57.69,28.86a9.21,9.21,0,0,1-2.27-.32,1.54,1.54,0,0,1,1.19-.22C57.24,28.41,57.71,28.76,57.69,28.86Z"/><path class="cls-6" d="M61.94,30.53a4.23,4.23,0,0,1-2.72,0A3.25,3.25,0,0,1,61.94,30.53Z"/><path class="cls-6" d="M65.55,28.54a9.21,9.21,0,0,1-2.27.32c0-.1.45-.45,1.08-.54A1.54,1.54,0,0,1,65.55,28.54Z"/><path class="cls-6" d="M66.46,26.54a.94.94,0,0,1,0,.3c0,.05,0,.1-.08.14a.79.79,0,0,1-.68.37H63.17a.81.81,0,1,1,0-1.62h2.48A.81.81,0,0,1,66.46,26.54Z"/><path class="cls-6" d="M58.59,26.54a.81.81,0,0,1-.81.81H55.3a.78.78,0,0,1-.51-.19.73.73,0,0,1-.27-.41.71.71,0,0,1,0-.21.81.81,0,0,1,.81-.81h2.48A.81.81,0,0,1,58.59,26.54Z"/><path class="cls-6" d="M69.52,25.72h0l-.56.19c0-1.84-1-3.79-1.47-5.05a.3.3,0,0,1,0-.1,15.91,15.91,0,0,1-9-.58s.1.69,1.82,1.2c-3.21.31-5.41,0-6.76-.74-.43,1.63-1.34,3.7-1.35,5.27l-.48-.17a11.85,11.85,0,0,1,.63-6.11c.09-.21.19-.41.3-.61a10.83,10.83,0,0,1,1-1.46h0c3.77-5,10.11-5.08,13.92-.12h0a12,12,0,0,1,1,1.58,5.77,5.77,0,0,1,.4.87A11.94,11.94,0,0,1,69.52,25.72Z"/><path class="cls-9" d="M61.94,30.53a4.23,4.23,0,0,1-2.72,0A3.25,3.25,0,0,1,61.94,30.53Z"/><path class="cls-10" d="M62.69,32.35a2.08,2.08,0,0,1-4.16,0,8.78,8.78,0,0,0,4.16,0Z"/><g class="cls-11"><circle class="cls-12" cx="60.61" cy="36.06" r="2.52"/><rect class="cls-13" x="58.24" y="32.04" width="4.56" height="1.03"/></g><path class="cls-14" d="M53.68,20.17q0,.22-.12.48c-.43,1.63-1.34,3.7-1.35,5.27l-.48-.17-.47-.17V20a2,2,0,0,1,.43-1.15,6.31,6.31,0,0,1,2-1.64,1.32,1.32,0,0,0-.06.39h0A22.93,22.93,0,0,1,53.68,20.17Z"/><path class="cls-14" d="M69.92,20v5.62l-.4.14-.56.2c0-1.84-1-3.79-1.47-5.05a.3.3,0,0,1,0-.1c-.3-1,.17-2.37.07-3.32h0a1.17,1.17,0,0,0-.05-.27A6.06,6.06,0,0,1,69.64,19,1.77,1.77,0,0,1,69.92,20Z"/><path class="cls-6" d="M54.89,26.88l-.1.28a.73.73,0,0,1-.27-.41Z"/><path class="cls-6" d="M66.41,26.84c0,.05,0,.1-.08.14l0-.1Z"/><path class="cls-15" d="M58.59,26.54a.81.81,0,0,1-.81.81H55.3a.78.78,0,0,1-.51-.19.73.73,0,0,1-.27-.41.71.71,0,0,1,0-.21.81.81,0,0,1,.81-.81h2.48A.81.81,0,0,1,58.59,26.54Z"/><path class="cls-16" d="M57.69,28.86a9.21,9.21,0,0,1-2.27-.32,1.54,1.54,0,0,1,1.19-.22C57.24,28.41,57.71,28.76,57.69,28.86Z"/><path class="cls-15" d="M66.46,26.54a.94.94,0,0,1,0,.3c0,.05,0,.1-.08.14a.79.79,0,0,1-.68.37H63.17a.81.81,0,1,1,0-1.62h2.48A.81.81,0,0,1,66.46,26.54Z"/><path class="cls-16" d="M65.55,28.54a9.21,9.21,0,0,1-2.27.32c0-.1.45-.45,1.08-.54A1.54,1.54,0,0,1,65.55,28.54Z"/><path class="cls-17" d="M70.64,15.68a8.48,8.48,0,0,1-1,3.36,4.19,4.19,0,0,1-.66.86,3.25,3.25,0,0,1-1.46.86h0a15.91,15.91,0,0,1-9-.58s.1.69,1.82,1.2c-3.21.31-5.41,0-6.76-.74a3.38,3.38,0,0,1-1.2-1A2.73,2.73,0,0,1,52,18.9l-.29-.09c-1-.35-3.07-1.31-3.55-3.32a12.42,12.42,0,0,1,2.89,2,2.53,2.53,0,0,1-.19-1.84,11,11,0,0,1,1,1.91,4.58,4.58,0,0,1,.34-1.22c2.51-5.92,7-4.72,7-4.72a3.31,3.31,0,0,0-2,2.06c3.64-2.58,6.34-2.49,8.55-.39a6,6,0,0,0-2.48.61C67.25,14.45,67.64,16.29,70.64,15.68Z"/><rect class="cls-18" x="54.03" y="60.85" width="13.35" height="4.56"/><rect class="cls-19" x="54.82" y="82.32" width="3.81" height="2.86"/><polygon class="cls-7" points="59.98 87.9 53.47 87.9 54.76 85.17 58.7 85.18 59.98 87.9"/><path class="cls-20" d="M58.69,85.93a2,2,0,1,0-3.93,0l-.33,1h4.65Z"/><path class="cls-8" d="M59.21,81.13h.21v1.19H54V81.13h.21l-.91-17.82c0-.11,0-.22,0-.33a3.23,3.23,0,0,1,6.46,0Z"/><rect class="cls-19" x="63.41" y="82.32" width="3.81" height="2.86"/><polygon class="cls-7" points="68.57 87.9 62.06 87.9 63.34 85.17 67.28 85.18 68.57 87.9"/><path class="cls-20" d="M67.28,85.93a2,2,0,1,0-3.94,0L63,87h4.65Z"/><path class="cls-8" d="M67.8,81.13H68v1.19H62.62V81.13h.2l-.9-17.82c0-.11,0-.22,0-.33a3.23,3.23,0,1,1,6.45,0Z"/><path class="cls-4" d="M37.66,41.85l-.4.33a2,2,0,0,0,.22-2.28,1.46,1.46,0,0,0-1.17-.83.23.23,0,0,0-.22.18l-.18.06a.44.44,0,0,1,.38-.4,1.63,1.63,0,0,1,1.33.9A1.88,1.88,0,0,1,37.66,41.85Z"/><g id="bag"><path class="cls-7" d="M48.79,38.58H50.3a.69.69,0,0,1,.69.69v4.94a0,0,0,0,1,0,0H48.1a0,0,0,0,1,0,0V39.26A.69.69,0,0,1,48.79,38.58Z"/><path class="cls-21" d="M48.1,65.23H39.4a5.08,5.08,0,0,1-5.06-5.58l1.58-16.17a2.4,2.4,0,0,1,1-1.54l.07-.06a8.93,8.93,0,0,1,5.35-2.2h3c2.41,0,6.66,2.08,6.43,4.48l-.11,1.14,1.4,14.35A5.08,5.08,0,0,1,48.1,65.23Z"/><circle class="cls-22" cx="43.91" cy="47.04" r="2.66"/></g></g></svg>