<svg id="Layer_1" data-name="Layer 1" xmlns="http://www.w3.org/2000/svg" xmlns:xlink="http://www.w3.org/1999/xlink" viewBox="0 0 100 100"><defs><style>.cls-1{fill:none;}.cls-2{fill:#2a1f07;}.cls-3{fill:#fcc364;}.cls-4{fill:#fcc065;}.cls-5{fill:#7a5817;}.cls-6{fill:#2a1e04;}.cls-7{fill:#1d1d1b;}.cls-8{clip-path:url(#clip-path);}.cls-9{fill:#fff;}.cls-10{fill:#29082e;opacity:0.5;}.cls-11{fill:#a9b929;stroke:#e3eedd;stroke-miterlimit:10;stroke-width:0.22px;}.cls-12{fill:#259afc;}.cls-13{fill:#322980;}.cls-14{fill:#f9f3f3;}.cls-15{fill:#ee9e01;}.cls-16{fill:#f1a101;}.cls-17{fill:#b7b2b2;}.cls-18{fill:#ef4737;}.cls-19{fill:#29343d;}</style><clipPath id="clip-path"><path id="SVGID" class="cls-1" d="M57.76,9.65c-5-.2-6.12,6.53-5.73,9.73.47,2,2.23,3.27,3,5.28a8.28,8.28,0,0,1,.33,3.66c.46,3.78,4.92,2.33,4.27-1.13,3.87,2.48,5.57-3.86,6.66-4.73a7.49,7.49,0,0,1,.29-3.4C68.23,13.17,65.71,9.9,57.76,9.65Z"/></clipPath></defs><title>CH1-2</title><path class="cls-2" d="M60.45,13.44h0Z"/><path class="cls-3" d="M67.05,15.19a.34.34,0,0,1-.19.16L66.72,14a3.16,3.16,0,0,1-1.09.24c-2.39.11-2.4-.48-5.11-.82-1.71,2.16,2.8,4.41-4.61,5.18v0c-3.36-1.83-4.32,1.24-2.84,2.4a18.64,18.64,0,0,0,2.41,1c.28,1.05.33,1.95-.76,1.91a5.49,5.49,0,0,1,.74,2.68v.32c-.2,2,.09,3.55,2.21,3.61,1.79-.3,2-1.32,2-3,4.47,1.41,4-2.62,6.7-4.12.16-.66-.43-2.3.25-4.31A10.53,10.53,0,0,0,67.05,15.19Zm-3.46,6c-.4-.34,1.78-.17,1.77.29A9.07,9.07,0,0,1,63.59,21.2Zm-.27-1c-.83-.21-1.46-1.71,2.06-1.24C66.21,19.16,66.84,20.66,63.32,20.19Z"/><path class="cls-4" d="M65.36,21.49a9.07,9.07,0,0,1-1.77-.29C63.19,20.86,65.37,21,65.36,21.49Z"/><path class="cls-4" d="M63.32,20.19c-.83-.21-1.46-1.71,2.06-1.24C66.21,19.16,66.84,20.66,63.32,20.19Z"/><path class="cls-4" d="M67.05,15.19a.34.34,0,0,1-.19.16L66.72,14a3.16,3.16,0,0,1-1.09.24c-2.39.11-2.4-.48-5.11-.82-1.71,2.16,2.8,4.41-4.61,5.18v0c-3.36-1.83-4.32,1.24-2.84,2.4a18.64,18.64,0,0,0,2.41,1c.28,1.05.33,1.95-.76,1.91-.85-1.55-2.18-2.76-2.64-4.37a7.18,7.18,0,0,1-.14-.83c0-.14,0-.28,0-.43a18.41,18.41,0,0,1,.21-2.21A10.1,10.1,0,0,1,54,11.31h0a4.41,4.41,0,0,1,3.73-1.65C63.76,9.85,66.68,11.73,67.05,15.19Z"/><path class="cls-2" d="M65.65,10.17s0,0,0,0a.19.19,0,0,1-.08,0Z"/><path class="cls-2" d="M65.65,10.17s0,0,0,0a.19.19,0,0,1-.08,0Z"/><path class="cls-2" d="M65.65,10.17s0,0,0,0a.19.19,0,0,1-.08,0Z"/><path class="cls-2" d="M54.16,11.46h0v0l0,0L54,11.25A1.55,1.55,0,0,1,54.16,11.46Z"/><path class="cls-2" d="M54.16,11.46h0L54,11.25A1.55,1.55,0,0,1,54.16,11.46Z"/><path class="cls-5" d="M60.52,13.45c-1.71,2.16,2.8,4.41-4.61,5.18v0c-3.36-1.83-4.32,1.24-2.84,2.4a18.64,18.64,0,0,0,2.41,1c.28,1.05.33,1.95-.76,1.91a8.34,8.34,0,0,1-2.64-4.37,7.18,7.18,0,0,1-.14-.83,9.77,9.77,0,0,1,0-2.79.83.83,0,0,1,0-.15,9.3,9.3,0,0,0-.09,1.05,3.44,3.44,0,0,1,.2-.75c.8-2.08,3.52-2.79,8.31-2.63h.08Z"/><path class="cls-2" d="M53.87,11.12h0l0,.05Zm.11.13.16.21,0,0v0h0A1.55,1.55,0,0,0,54,11.25Z"/><path class="cls-2" d="M69.82,9.32a19.19,19.19,0,0,1-2,.54,2.65,2.65,0,0,1,.71-1.34,7.41,7.41,0,0,0-2.94.6,3.4,3.4,0,0,0-.27-.71,8.24,8.24,0,0,1-4,1.25c-1-.15-2.2-.26-3.59-.34a4.55,4.55,0,0,0-3.61,1.5C54,10.08,53.6,9,52.29,9.05l1.58,2.07,0,.05,0-.05a1.46,1.46,0,0,0-2.11-.25l1.94.48A9.21,9.21,0,0,0,52,15.73s0,0,0,0a9.3,9.3,0,0,0-.09,1.05,3.44,3.44,0,0,1,.2-.75c.8-2.08,3.52-2.79,8.31-2.63h.08c2.71.34,2.72.93,5.11.82A3.16,3.16,0,0,0,66.72,14l.14,1.32a.34.34,0,0,0,.19-.16,3.62,3.62,0,0,0,.4-.9l.39,1A1.22,1.22,0,0,0,68,13.75c.35,0,.93.59.93.59a1.8,1.8,0,0,0-.3-2A9.44,9.44,0,0,0,69.82,9.32Zm-4.17.85s0,0,0,0a.19.19,0,0,1-.08,0Zm-11.49,1.3v0l0,0L54,11.31l0-.06.05.05.13.16Z"/><path class="cls-6" d="M63.32,20.19c-.83-.21-1.46-1.71,2.06-1.24C66.21,19.16,66.84,20.66,63.32,20.19Z"/><path class="cls-7" d="M65.36,21.49a9.07,9.07,0,0,1-1.77-.29C63.19,20.86,65.37,21,65.36,21.49Z"/><g class="cls-8"><path class="cls-9" d="M63.08,23.37a2.7,2.7,0,0,0,2,1.5.29.29,0,0,1,.23.34.28.28,0,0,1-.33.23h-.07A3,3,0,0,1,63.08,23.37Z"/></g><g id="map"><path class="cls-10" d="M85.26,67.28H31.18L11.06,87.88H86C86,81,85.46,74.15,85.26,67.28Z"/><g id="map-2" data-name="map"><path class="cls-11" d="M85.22,66H31.55L13.38,84.82H86C85.8,78.54,85.37,72.26,85.22,66Z"/></g></g><polygon class="cls-12" points="62.39 69.92 59.17 70.57 59.03 69.86 59.15 69.84 56.39 59.08 53.03 47.85 58.72 47.06 60.25 58.3 62.13 69.22 62.25 69.2 62.39 69.92"/><polygon class="cls-4" points="62.39 73.36 60.31 73.41 59.85 70.43 61.84 70.03 62.39 73.36"/><path class="cls-13" d="M60.12,72.76c1.27.95,1.73-.66,2.07-1.19l5,1.06-7,1.36Z"/><rect class="cls-14" x="60.22" y="73.31" width="7.1" height="0.39" transform="translate(-12.85 13.52) rotate(-11)"/><path class="cls-14" d="M62.19,71.57l-.26.5c.7,0,3.5.85,4,.3Z"/><path class="cls-14" d="M62.19,71.57c-.08-.38-.39-.16-.26.5Z"/><polygon class="cls-12" points="58.58 48.01 52.24 47.06 50.66 58.41 54.43 59.56 58.58 48.01"/><path class="cls-12" d="M53.61,60.64a2,2,0,0,0-2.14-3.31A2,2,0,0,0,53.61,60.64Z"/><polygon class="cls-12" points="51.47 57.33 42.47 63.82 44.12 66.37 53.61 60.64 51.47 57.33"/><rect class="cls-12" x="42.62" y="63.65" width="0.73" height="3.29" transform="translate(-28.55 33.77) rotate(-32.86)"/><polygon class="cls-4" points="40.36 68.12 39.57 66.21 42.17 64.69 43.27 66.4 40.36 68.12"/><path class="cls-13" d="M40.14,65.69c-.52,1.5,1.2,1.44,1.78,1.59l.55,5.12L39,66.2Z"/><rect class="cls-14" x="40.38" y="65.84" width="0.39" height="7.1" transform="translate(-28.66 28.54) rotate(-29.14)"/><path class="cls-14" d="M41.92,67.28l-.55-.09c.22.67.27,3.6,1,3.94Z"/><path class="cls-14" d="M41.92,67.28c.33-.18,0-.41-.55-.09Z"/><path class="cls-12" d="M52.24,47.06a8.79,8.79,0,0,0-.7,5.07C52.59,50.71,52.24,47.06,52.24,47.06Z"/><path class="cls-3" d="M60.3,40.87h0l-.14-.32h0A1.46,1.46,0,0,0,60.3,40.87Z"/><path class="cls-3" d="M62.65,39.56h0l-.1,0,.09-.06S62.65,39.55,62.65,39.56Z"/><path class="cls-3" d="M62.65,39.56h0l-.1,0,.09-.06S62.65,39.55,62.65,39.56Z"/><path class="cls-3" d="M62.65,39.56h0l-.1,0,.09-.06S62.65,39.55,62.65,39.56Z"/><path class="cls-13" d="M63.09,39.39l-.44.17s0,0,0,0l-.09.06h0l-2.36.93h0l-.18.07s0-.08-.13-.24c-.06,4.09-.11,7.72-.11,7.72l-7.94-1c.8-4.69.75-15.43,4-19.22l4.09,1.32s0,1.23,0,3.05h0Z"/><path class="cls-13" d="M62.65,39.56h0l-.1,0,.09-.06S62.65,39.55,62.65,39.56Z"/><path class="cls-15" d="M68.69,49.15l-.71-1a4.61,4.61,0,0,0-.13-2.3l.05-.1C68.25,46.89,69.14,49,68.69,49.15Z"/><path class="cls-3" d="M50.07,43.78c.43.69.64,2.49-.53,1.56-1.73-3.14-1.48,2.45-1.41,2.91-3.14-.72-3.36-5.35-2-6.89a17,17,0,0,1,2.8-5A21.22,21.22,0,0,0,51,38,12.54,12.54,0,0,0,48.61,42C48.82,42.59,49.83,43.28,50.07,43.78Z"/><path class="cls-16" d="M46.88,45.73a5.15,5.15,0,0,0,.91,2.46,2.8,2.8,0,0,1-.7-1.14A4.24,4.24,0,0,1,46.88,45.73Z"/><path class="cls-16" d="M46.34,45.44a5.24,5.24,0,0,0,.9,2.46,2.89,2.89,0,0,1-.69-1.14A4.24,4.24,0,0,1,46.34,45.44Z"/><path class="cls-16" d="M45.63,44.93a5.41,5.41,0,0,0,.91,2.46,2.8,2.8,0,0,1-.7-1.14A4.24,4.24,0,0,1,45.63,44.93Z"/><polygon class="cls-17" points="54.82 28.66 60.6 31.55 60.46 29.15 54.92 26.75 54.82 28.66"/><path class="cls-18" d="M59.57,31.45h0c-1.6-2.32-4.09-.89-6,1.66-.35,2.6-.92,7-1.29,9.75a8.74,8.74,0,0,0,6.61-4.21c.09.15.27.5.64,1.23-2.58,4.47-6,4.47-7.42,4.23-.11.83-.18,1.34-.18,1.34-1.14-.38-4.43-1-4.15-3.06-.36-4.79,3.65-14.34,5.92-11.47,1.43-1.16,5.14-2,6,.64l.13.07C60.74,34.34,60,32.4,59.57,31.45Z"/><path class="cls-19" d="M67.15,47.37a.22.22,0,0,0-.07.09l0,0Z"/><path class="cls-19" d="M82.31,69.29c-.24.28-.86-1-1-1.1l-3.62-5.26L70.31,52.15c-1-.8-3-4.87-3-4.87a38.58,38.58,0,0,1,3.38,4.91L78,62.74,81.61,68C81.71,68.28,82.63,69,82.31,69.29Z"/><path class="cls-3" d="M68,48.1a8.76,8.76,0,0,1-.34,1.45c-.88-1-2.7-1.57-3.85-4.23h0A24.51,24.51,0,0,1,60.34,41l0-.08a1.46,1.46,0,0,1-.12-.33l2.36-.93h0l.1,0s0,0,0,0a13.64,13.64,0,0,0,3.61,4.25,1.48,1.48,0,0,1,.29.26,3.81,3.81,0,0,1,1.29,1.7A4.61,4.61,0,0,1,68,48.1Z"/><path class="cls-3" d="M63.79,45.31a2,2,0,0,1,.46.67l0-1Z"/><path class="cls-19" d="M64.28,46.15c-4.67-1.46,2.81-4.63,1.88-2.37L66,43.66c.38-1.66-5.68,1.16-1.86,2.28Z"/></svg>