<svg id="Layer_1" data-name="Layer 1" xmlns="http://www.w3.org/2000/svg" xmlns:xlink="http://www.w3.org/1999/xlink" viewBox="0 0 100 100"><defs><style>.cls-1,.cls-17{fill:none;}.cls-2{fill:#dbe9f1;}.cls-3{clip-path:url(#clip-path);}.cls-4{fill:#64964f;}.cls-5{fill:#dddbdd;}.cls-6,.cls-8{fill:#fff;}.cls-7{fill:#21203b;}.cls-8{stroke:#fff;stroke-width:0.1px;}.cls-17,.cls-8{stroke-linecap:round;stroke-miterlimit:10;}.cls-9{fill:#ffbf51;}.cls-10{fill:#f49e00;}.cls-11{fill:#2c1f03;}.cls-12{fill:#ffba40;}.cls-13{fill:#3e5d82;}.cls-14{fill:#491d40;}.cls-15{fill:#1d1d1b;}.cls-16{fill:#ff9800;}.cls-17{stroke:#1d1d1b;stroke-width:1.75px;}</style><clipPath id="clip-path"><path class="cls-1" d="M45.55,10C60.4,10,58.33,9.34,70,9.34s19,13.71,19,29.46-6.46,29.69-6.46,40.41S74.73,92.7,69,92.7s-21.75-8.33-34.92-9.49-18.55-16-18.55-25.95S5.64,10,45.55,10Z"/></clipPath></defs><title>CH4-4</title><path class="cls-2" d="M45.55,10C60.4,10,58.33,18.14,70,18.14s19,4.91,19,20.66-6.46,29.69-6.46,40.41S74.73,92.7,69,92.7s-21.75-8.33-34.92-9.49-18.55-16-18.55-25.95S27.22,10,45.55,10Z"/><g class="cls-3"><path class="cls-4" d="M22.13,77.28c-1.91,4.77-3.8,8.36-3.8,8.36s4.24,4.75,15.27,5.22S46.85,88.8,46.85,88.8s.63-8.8-1.56-12.52C42.35,71.28,22.13,77.28,22.13,77.28Z"/><circle class="cls-5" cx="27.43" cy="44.73" r="2.71"/><path class="cls-5" d="M30.06,45.39,24.81,44s-3.6,14.68-3.91,16.4l4.46,1.17S28.46,51.51,30.06,45.39Z"/><path class="cls-5" d="M30.06,45.39,24.81,44s-3.6,14.68-3.91,16.4l4.46,1.17S28.46,51.51,30.06,45.39Z"/><path class="cls-6" d="M28.09,41.59a8.08,8.08,0,0,0-2.05.83c-.12.26-.65,3.25-1.56,4.6s-3,3.93-2.63,6.66c.45,3.62,3.27,5,3.56,5.67a25.61,25.61,0,0,1-.21,9,76.23,76.23,0,0,1-3.59,8.61s.8,2.33,8.69,2.61a35.2,35.2,0,0,0,15-3.25s-3.71-8.82-3.86-12.47a47.83,47.83,0,0,1,1-12.44,47.75,47.75,0,0,0,1-8.54l-3.16-.77Z"/><path class="cls-7" d="M34.64,15.09h0Z"/><path class="cls-7" d="M34.81,18.12c0,.49.06,1,.09,1.63C34.86,19.16,34.83,18.61,34.81,18.12Z"/><path class="cls-7" d="M41.62,17.85a12.54,12.54,0,0,0-2.82-1.73,12.72,12.72,0,0,0-2.27-.78l-.68-.14H36A9.38,9.38,0,0,1,41.62,17.85Z"/><path class="cls-7" d="M36.82,28.9a5.31,5.31,0,0,1-1.73.12c0-.11.38-.42.85-.45S36.82,28.8,36.82,28.9Z"/><path class="cls-7" d="M38,27.15a24.72,24.72,0,0,1-2.9.43,1.5,1.5,0,0,0,0-.3h0l.21,0A19.35,19.35,0,0,1,38,27.15Z"/><path class="cls-7" d="M41.35,32.67a.21.21,0,0,1-.22.21.26.26,0,0,1-.16-.09.2.2,0,0,1,0-.13.21.21,0,0,1,.22-.21.19.19,0,0,1,.17.12A.12.12,0,0,1,41.35,32.67Z"/><path class="cls-7" d="M42.16,29.11a0,0,0,0,1,0,0l-.06,0Z"/><path class="cls-7" d="M34.61,15.09h0Z"/><path class="cls-7" d="M34.9,19.75c0-.59-.07-1.14-.09-1.63C34.84,18.61,34.87,19.15,34.9,19.75Z"/><path class="cls-7" d="M34.48,15.09a9.06,9.06,0,0,0-2.33.34,10.69,10.69,0,0,0-3,1.36,8.13,8.13,0,0,0-1.28,1,7.55,7.55,0,0,1,1.25-1.15,7.42,7.42,0,0,1,2.77-1.32,1.45,1.45,0,0,1,.3-.06l.34-.07.41-.05a6.74,6.74,0,0,1,1.37-.08Z"/><path class="cls-7" d="M27.83,31.18a.21.21,0,0,1,0,.11.21.21,0,0,1-.18.1.22.22,0,0,1,0-.43l.08,0A.22.22,0,0,1,27.83,31.18Z"/><path class="cls-7" d="M30.08,28.8a5.39,5.39,0,0,1-1.78-.28,1,1,0,0,1,.94-.26A1.13,1.13,0,0,1,30.08,28.8Z"/><path class="cls-7" d="M31.27,27.59s-3.93-.8-3.93-.89A19.19,19.19,0,0,1,30,27C31.1,27.26,31.27,27.59,31.27,27.59Z"/><path class="cls-7" d="M33.54,31.79A2.06,2.06,0,0,1,33,32a2.73,2.73,0,0,1-1.09-.05,1.67,1.67,0,0,1-.53-.24,1.69,1.69,0,0,1,.55-.18,2,2,0,0,1,.55,0,3.35,3.35,0,0,1,.54.08A1.83,1.83,0,0,1,33.54,31.79Z"/><path class="cls-7" d="M35.06,27.27v.31L34,27.71S34.14,27.43,35.06,27.27Z"/><path class="cls-8" d="M27.83,31.18a.21.21,0,0,1,0,.11.21.21,0,0,1-.18.1.22.22,0,0,1,0-.43l.08,0A.22.22,0,0,1,27.83,31.18Z"/><path class="cls-9" d="M34.64,15.09h0Z"/><path class="cls-9" d="M35,15.11h0Z"/><path class="cls-9" d="M34.9,19.75c0-.59-.07-1.14-.09-1.63C34.84,18.61,34.87,19.15,34.9,19.75Z"/><path class="cls-9" d="M36.82,28.9a5.31,5.31,0,0,1-1.73.12c0-.11.38-.42.85-.45S36.82,28.8,36.82,28.9Z"/><path class="cls-9" d="M42.16,29.11a0,0,0,0,1,0,0l-.06,0H42a30.32,30.32,0,0,1-7-4c0,.7,0,1.43,0,2.19l.21,0A19.35,19.35,0,0,1,38,27.15a24.72,24.72,0,0,1-2.9.43c0,.47,0,1,0,1.44,0,1.32,0,2.69,0,4.12l-.06,0q.09-3,.09-5.58L34,27.71s.17-.28,1.09-.44c0-.76,0-1.49,0-2.19a18.66,18.66,0,0,1-4.34-4.67,27.63,27.63,0,0,1-3.95,6A39.77,39.77,0,0,0,27.7,31a.22.22,0,0,1,.13.2.21.21,0,0,1,0,.11,16.93,16.93,0,0,0,2.66,5.94h0A5,5,0,0,0,32,38.56h0a2.88,2.88,0,0,1-1.19,2,10.81,10.81,0,0,1-2.7,1,33.23,33.23,0,0,0-.17,4v.09a3,3,0,0,0,4.53,2.49l.42-.26a39.78,39.78,0,0,0,7.4-5.86c-1-.13-3.17-1.21-3.28-2.86,0-.46,0-1.19,0-2l.39-.36A19.4,19.4,0,0,0,40.19,33a1.88,1.88,0,0,0,.78-.2.2.2,0,0,1,0-.13.21.21,0,0,1,.22-.21.19.19,0,0,1,.17.12C42.67,31.61,43.6,29.3,42.16,29.11ZM28.3,28.52a1,1,0,0,1,.94-.26,1.13,1.13,0,0,1,.84.54A5.39,5.39,0,0,1,28.3,28.52Zm-1-1.82A19.19,19.19,0,0,1,30,27c1.09.25,1.26.58,1.26.58S27.34,26.79,27.34,26.7ZM33,32a2.73,2.73,0,0,1-1.09-.05,1.67,1.67,0,0,1-.53-.24,1.69,1.69,0,0,1,.55-.18,2,2,0,0,1,.55,0,3.35,3.35,0,0,1,.54.08,1.83,1.83,0,0,1,.54.24A2.06,2.06,0,0,1,33,32Zm2.11-3c0-.11.38-.42.85-.45s.88.23.88.33A5.31,5.31,0,0,1,35.09,29Z"/><path class="cls-9" d="M27.83,31.18a.21.21,0,0,1,0,.11A1.81,1.81,0,0,1,27.7,31,.22.22,0,0,1,27.83,31.18Z"/><path class="cls-9" d="M30.08,28.8a5.39,5.39,0,0,1-1.78-.28,1,1,0,0,1,.94-.26A1.13,1.13,0,0,1,30.08,28.8Z"/><path class="cls-9" d="M31.27,27.59s-3.93-.8-3.93-.89A19.19,19.19,0,0,1,30,27C31.1,27.26,31.27,27.59,31.27,27.59Z"/><path class="cls-9" d="M33.54,31.79A2.06,2.06,0,0,1,33,32a2.73,2.73,0,0,1-1.09-.05,1.67,1.67,0,0,1-.53-.24,1.69,1.69,0,0,1,.55-.18,2,2,0,0,1,.55,0,3.35,3.35,0,0,1,.54.08A1.83,1.83,0,0,1,33.54,31.79Z"/><path class="cls-9" d="M35.07,27.58c0,.47,0,1,0,1.44,0,1.32,0,2.69,0,4.12l-.06,0q.09-3,.09-5.58L34,27.71s.17-.28,1.09-.44c0-.76,0-1.49,0-2.19,0-.3,0-.59,0-.87,0,.28,0,.57,0,.87,0,.7,0,1.43,0,2.19l.21,0A19.35,19.35,0,0,1,38,27.15,24.72,24.72,0,0,1,35.07,27.58Z"/><path class="cls-9" d="M43.94,21.52a4.34,4.34,0,0,1,0,.51,9.53,9.53,0,0,0-2.32-4.18,6.88,6.88,0,0,1,2.06,2.62c0,.11.07.21.1.32s.08.29.11.44A2.93,2.93,0,0,1,43.94,21.52Z"/><path class="cls-7" d="M30.08,28.8a5.39,5.39,0,0,1-1.78-.28,1,1,0,0,1,.94-.26A1.13,1.13,0,0,1,30.08,28.8Z"/><path class="cls-7" d="M31.27,27.59s-3.93-.8-3.93-.89A19.19,19.19,0,0,1,30,27C31.1,27.26,31.27,27.59,31.27,27.59Z"/><path class="cls-7" d="M36.82,28.9a5.31,5.31,0,0,1-1.73.12c0-.11.38-.42.85-.45S36.82,28.8,36.82,28.9Z"/><path class="cls-7" d="M38,27.15a24.72,24.72,0,0,1-2.9.43h0L34,27.71s.17-.28,1.09-.44h0l.21,0A19.35,19.35,0,0,1,38,27.15Z"/><path class="cls-10" d="M33.54,31.79c-.54.58-3.37-.2-1.08-.32A2.13,2.13,0,0,1,33.54,31.79Z"/><path class="cls-6" d="M30.85,33.82a13.1,13.1,0,0,0,1.88.27,15.52,15.52,0,0,0,1.9-.1,3.3,3.3,0,0,1-3.78-.17Z"/><path class="cls-11" d="M35.74,15.18l-.36,0,.4,0Z"/><path class="cls-7" d="M43.29,37.34c-1.21,1.07-3.45.32-5.93-.5A19.4,19.4,0,0,0,40.19,33a1.88,1.88,0,0,0,.78-.2.26.26,0,0,0,.16.09.21.21,0,0,0,.22-.21.12.12,0,0,0,0-.1c1.35-1,2.28-3.27.84-3.46H42a30.32,30.32,0,0,1-7-4c0-.3,0-.59,0-.87,0,.28,0,.57,0,.87a18.66,18.66,0,0,1-4.34-4.67,27.63,27.63,0,0,1-3.95,6A39.77,39.77,0,0,0,27.7,31l-.08,0a.22.22,0,0,0,0,.43.21.21,0,0,0,.18-.1,16.93,16.93,0,0,0,2.66,5.94h0c-1.58.56-2.88.87-4.05.13s-1.55-4.9-1.48-9c-.25-1.12-.54-5.93.65-8.51a6.39,6.39,0,0,1,1.59-2.27,10.93,10.93,0,0,1,5-2.43s0,.08,0,.11a.68.68,0,0,1,0,.14,9.06,9.06,0,0,1,2.33-.34H35a2.6,2.6,0,0,1,.4,0l.22,0h0l.14,0H36c4.46.49,6.86,2.71,7.71,5.26,0,.11.07.21.1.32s.08.29.11.44a2.93,2.93,0,0,1,0,.29,6.71,6.71,0,0,1,.07.76h0a14.85,14.85,0,0,1,.42,4.29C44.22,31.35,45.4,35.44,43.29,37.34Z"/><path class="cls-7" d="M34.48,15.09a9.06,9.06,0,0,0-2.33.34,10.69,10.69,0,0,0-3,1.36.27.27,0,0,1,0-.12l0-.11a6.52,6.52,0,0,1,2.8-1.21,1.45,1.45,0,0,1,.3-.06l.34-.07.41-.05a11.49,11.49,0,0,1,1.37-.08Z"/><path class="cls-7" d="M34.81,18.12c0,.49.06,1,.09,1.63C34.86,19.16,34.83,18.61,34.81,18.12Z"/><path class="cls-7" d="M35.05,25.08h0c0-.3,0-.59,0-.87C35,24.49,35.05,24.78,35.05,25.08Z"/><path class="cls-7" d="M35,15.11h0Z"/><path class="cls-7" d="M35.78,15.19l-.4,0,.36,0Z"/><path class="cls-7" d="M42.16,29.11a0,0,0,0,1,0,0l-.06,0Z"/><path class="cls-9" d="M41.32,32.57c-.11.08-.23.15-.35.22a.2.2,0,0,1,0-.13.21.21,0,0,1,.22-.21A.19.19,0,0,1,41.32,32.57Z"/><path class="cls-9" d="M42.16,29.11a0,0,0,0,1,0,0l-.06,0Z"/><path class="cls-8" d="M41.35,32.67a.21.21,0,0,1-.22.21.26.26,0,0,1-.16-.09.2.2,0,0,1,0-.13.21.21,0,0,1,.22-.21.19.19,0,0,1,.17.12A.12.12,0,0,1,41.35,32.67Z"/><circle class="cls-5" cx="42.38" cy="45.35" r="2.71"/><path class="cls-5" d="M44.94,46.25l-5.12-1.8s-5,15.11-5.45,16.8l4.35,1.52S42.85,52.21,44.94,46.25Z"/><path class="cls-12" d="M24.62,63l-.15,0h0l-.17,0h0v0a.11.11,0,0,0,.08,0h.14Z"/><path class="cls-12" d="M38.86,62a2.3,2.3,0,0,1-2.22,2.38h-.21a100.65,100.65,0,0,1-12-1.33l.15,0-.15,0h-.14a.11.11,0,0,1-.08,0v0h0a1.75,1.75,0,0,1-.5.23h0l-.36.06-.33,0H23a2.3,2.3,0,0,1-.46-4.51,2,2,0,0,1,.43-.08h.26c1.49,0,9-.15,11.75,1.08l1.53-.06A2.3,2.3,0,0,1,38.86,62Z"/><path class="cls-12" d="M24.33,63s0,0,0,0h0v0A.11.11,0,0,0,24.33,63Z"/><path class="cls-12" d="M24.62,63l-.15,0h0a5.62,5.62,0,0,1-.67.21,1.75,1.75,0,0,0,.5-.23h0v0a.11.11,0,0,0,.08,0h.14Z"/><polygon class="cls-13" points="55.94 79.55 55.76 93.44 80.3 92.09 80.34 78.34 55.94 79.55"/><path class="cls-14" d="M81.56,43.76h.19a4.59,4.59,0,0,0-3-4.39h0l-.32-.1h0L70.78,36.9l-2.3-.71h0l-2.08-.65-3.36.8-1.32.31-8.1,1.92-.34.08A4.49,4.49,0,0,0,50,42.36l0,.52L48.79,56.09l7,.32-.15,1.88c3.9-.38,9.92-.91,15.48-1.23.7-.12,1.32-.24,1.88-.36V56l3.72-.19a24.91,24.91,0,0,1,4.18-.58c.22,0,.39.16.51.46L81.74,44h0Zm-.77,17.46-.1.06-.2,2.52v.06a3.7,3.7,0,0,1-3.61,3.63,3.31,3.31,0,0,1-.45,0c-2.27-.1-12.72-.59-20.52-1.82l-.32-.05-.07,14,12.77-.61,1.4-.07,1.69-.08h.28l8.68-.41.41,0,.51-17.84A1.66,1.66,0,0,1,80.79,61.22Z"/><path class="cls-14" d="M81.75,43.76a2.11,2.11,0,0,1,0,.26l-.17-.26Z"/><polygon class="cls-14" points="81.75 43.76 81.74 44.02 81.73 44.02 81.56 43.76 81.75 43.76"/><path class="cls-12" d="M74.83,22.3l-.22,0c-.6,0-.79.52-.93,1.27h0s0,0,0,0,0,.19-.06.3v.21a1.93,1.93,0,0,1-.2.92c-.3.45-.77.26-.78-.91s.29-3.76.45-5.44v0L73,17.47A26.17,26.17,0,0,1,64.18,19a16,16,0,0,1-6.33-1.22l-.22-.1a12.46,12.46,0,0,0-.4,3.41c0,1.68.07,3.74.11,5.56,0,1.11,0,2.13,0,2.9,0,1.39,1.73,4.36,4.31,6.06l0,2.15a4.54,4.54,0,1,0,9.07-.09l0-3c2-1.75,3.37-4.11,3.36-5.3,0-.5,0-1.11-.09-1.79a2.51,2.51,0,0,0,2.27-2.25C76.59,23.88,75.93,22.52,74.83,22.3ZM60.22,25.93c-.58-.06-1.06-.18-1.06-.27a1.34,1.34,0,0,1,1.09-.33,1.46,1.46,0,0,1,1.06.54C61.3,26,60.82,26,60.22,25.93Zm7.58-.08c-.59.07-1.08,0-1.09,0a1.49,1.49,0,0,1,1.05-.56,1.28,1.28,0,0,1,1.1.31C68.86,25.65,68.39,25.78,67.8,25.85Z"/><path class="cls-12" d="M55.59,64.74v.86l-.81-.14h0l-.35-.06A8.5,8.5,0,0,1,55.59,64.74Z"/><path class="cls-10" d="M55.59,64.74v.86l-.81-.14h0l-.35-.06A8.5,8.5,0,0,1,55.59,64.74Z"/><path class="cls-15" d="M73.17,17.61v0c0,.28,0,.6-.08,1L73,17.47l-.08-.74a4.65,4.65,0,0,1,.23.69A.77.77,0,0,1,73.17,17.61Z"/><path class="cls-15" d="M73.68,23.54h0s0,0,0,0,0,.19-.06.3c0-.24,0-.56,0-.93C73.64,23.14,73.66,23.33,73.68,23.54Z"/><path class="cls-15" d="M57.91,16.89l-.06.9-.22-.1A7.58,7.58,0,0,1,57.91,16.89Z"/><path class="cls-12" d="M57.91,16.89l-.06.9-.22-.1A7.58,7.58,0,0,1,57.91,16.89Z"/><path class="cls-12" d="M61.31,25.87c0,.09-.49.12-1.09.06s-1.06-.18-1.06-.27a1.34,1.34,0,0,1,1.09-.33A1.46,1.46,0,0,1,61.31,25.87Z"/><path class="cls-12" d="M68.86,25.56c0,.09-.47.22-1.06.29s-1.08,0-1.09,0a1.49,1.49,0,0,1,1.05-.56A1.28,1.28,0,0,1,68.86,25.56Z"/><path class="cls-12" d="M73.17,17.61v0c0,.28,0,.6-.08,1L73,17.47l-.08-.74a4.65,4.65,0,0,1,.23.69A.77.77,0,0,1,73.17,17.61Z"/><path class="cls-12" d="M73.62,23.87v.2a1.93,1.93,0,0,1-.2.92c0-.07,0-.14,0-.23C73.52,24.45,73.58,24.15,73.62,23.87Z"/><path class="cls-12" d="M73.68,23.54h0s0,0,0,0,0,.19-.06.3c0-.24,0-.56,0-.93C73.64,23.14,73.66,23.33,73.68,23.54Z"/><path class="cls-15" d="M61.31,25.87c0,.09-.49.12-1.09.06s-1.06-.18-1.06-.27a1.34,1.34,0,0,1,1.09-.33A1.46,1.46,0,0,1,61.31,25.87Z"/><path class="cls-15" d="M68.86,25.56c0,.09-.47.22-1.06.29s-1.08,0-1.09,0a1.49,1.49,0,0,1,1.05-.56A1.28,1.28,0,0,1,68.86,25.56Z"/><path class="cls-12" d="M73.62,23.87v.2a1.93,1.93,0,0,1-.2.92c0-.07,0-.14,0-.23C73.52,24.45,73.58,24.15,73.62,23.87Z"/><path class="cls-11" d="M74.61,22.27c-.6,0-.79.52-.93,1.27,0-.21,0-.4-.05-.61,0,.37,0,.69,0,.93h0c0,.28-.1.58-.16.89,0,.09,0,.16,0,.23-.3.45-.77.26-.78-.91s.29-3.76.45-5.44v0c0-.36.07-.68.08-1v0a.77.77,0,0,0,0-.19,4.65,4.65,0,0,0-.23-.69l.08.74A26.17,26.17,0,0,1,64.18,19a16,16,0,0,1-6.33-1.22l.06-.9a7.58,7.58,0,0,0-.28.8,12.46,12.46,0,0,0-.4,3.41c0,1.68.07,3.74.11,5.56-.21-.73-1.67-6.14-1.23-9.36a1,1,0,0,1,.14-.38,6.58,6.58,0,0,1-1.51-1.33c3,.81,12.73-11,19.69,1l.1.18a.14.14,0,0,1,0,.06.62.62,0,0,1,.1.25A21.38,21.38,0,0,1,74.61,22.27Z"/><path class="cls-15" d="M57.91,16.89l-.06.9-.22-.1A7.58,7.58,0,0,1,57.91,16.89Z"/><path class="cls-15" d="M73.12,17.42l-.15,0-.08-.74A4.65,4.65,0,0,1,73.12,17.42Z"/><path class="cls-15" d="M74.56,16.84h0a.14.14,0,0,0,0-.06Z"/><path class="cls-6" d="M66.65,31.66c-.81-.06-1.56-.06-2.34-.05a23.32,23.32,0,0,0-2.33.12.05.05,0,0,1,0,0l0,0a2.94,2.94,0,0,1,1.12-.52A5.12,5.12,0,0,1,64.31,31a5,5,0,0,1,1.22.13,3.19,3.19,0,0,1,1.14.48,0,0,0,0,1,0,0Z"/><path class="cls-16" d="M62.19,28.88a8.47,8.47,0,0,1,.84-.66,2.38,2.38,0,0,1,1.09-.35,2.17,2.17,0,0,1,1.13.27,2.42,2.42,0,0,1,.84.71.05.05,0,0,1,0,.08.06.06,0,0,1-.06,0c-.33-.13-.63-.29-1-.38a2.44,2.44,0,0,0-.92-.13,2.56,2.56,0,0,0-.92.21,5.94,5.94,0,0,1-1,.36.06.06,0,0,1-.06,0,.08.08,0,0,1,0-.05Z"/><path class="cls-15" d="M73.62,23.87v.2a1.93,1.93,0,0,1-.2.92c0-.07,0-.14,0-.23C73.52,24.45,73.58,24.15,73.62,23.87Z"/><path class="cls-12" d="M54.77,65.46c-.81.16-1.59.28-2.36.38a3.63,3.63,0,0,0,1.34-.56l.67.12Z"/><path class="cls-17" d="M58.79,23.79a3.4,3.4,0,0,1,2.8,0"/><path class="cls-17" d="M69.2,23.91s-1.87-1-2.79,0"/><path class="cls-12" d="M81.27,60.49v0a1.66,1.66,0,0,1-.47.71l-.1.06-.2,2.52v.06a3.7,3.7,0,0,1-3.61,3.63,3.31,3.31,0,0,1-.45,0c-2.27-.1-12.72-.59-20.52-1.82l-.32-.05v-.86a8.5,8.5,0,0,0-1.17.66l-.67-.12a3.63,3.63,0,0,1-1.34.56l-.39,0h-.17a3.6,3.6,0,0,1-3.72-3.3,3.35,3.35,0,0,1,0-.71h0l.65-5.8,7,.32-.15,1.88c3.9-.38,9.92-.91,15.48-1.23.7-.12,1.32-.24,1.88-.36V56l3.72-.19a24.91,24.91,0,0,1,4.18-.58c.22,0,.39.16.51.46A8.27,8.27,0,0,1,81.27,60.49Z"/></g></svg>