<svg xmlns="http://www.w3.org/2000/svg" viewBox="0 0 100 100"><defs><style>.cls-1{isolation:isolate;}.cls-2{fill:#e8e3e7;}.cls-3{fill:#b73a06;}.cls-4{fill:#c53d00;}.cls-5{fill:none;stroke:#802b2b;stroke-miterlimit:10;stroke-width:0.14px;}.cls-6{fill:#c9592d;}.cls-7{fill:#cd7351;}.cls-8{fill:#fbbf62;}.cls-10,.cls-9{fill:#491d40;}.cls-10{opacity:0.25;mix-blend-mode:multiply;}</style></defs><title>CH4-5</title><g class="cls-1"><g id="Layer_1" data-name="Layer 1"><ellipse class="cls-2" cx="52.2" cy="70.81" rx="35.61" ry="5.13"/><polygon class="cls-3" points="78.41 22.18 78.41 22.89 77.57 22.89 77.57 43.37 28.69 43.37 28.69 22.89 27.85 22.89 27.85 22.18 78.41 22.18"/><rect class="cls-3" x="75.33" y="43.37" width="2.24" height="3.77"/><polygon class="cls-3" points="75.59 64.69 75.59 65.89 75.4 65.89 75.4 66.36 28.69 66.36 28.69 64.69 75.59 64.69"/><polygon class="cls-3" points="75.59 52.14 75.59 64.56 28.69 64.56 28.69 49.91 75.23 49.91 75.23 52.14 75.59 52.14"/><polygon class="cls-4" points="77.57 49.18 77.57 66.36 75.4 66.36 75.4 65.89 75.59 65.89 75.59 64.69 28.69 64.69 28.69 64.56 75.59 64.56 75.59 52.14 75.23 52.14 75.23 49.91 28.69 49.91 28.69 49.18 77.57 49.18"/><rect class="cls-5" x="35.78" y="51.91" width="34.71" height="9.47"/><rect class="cls-6" x="75.59" y="65.57" width="2.81" height="1.93"/><path class="cls-7" d="M75.24,49.91v.14h.09v-.14Z"/><path class="cls-7" d="M80.64,48.46v1.46h-1V51.1h-.82v1h-.35V65.9h.5v.47h.42v2.82H77.83l.74.74-.61.6-1.34-1.34H75V66.37h.42V65.9h.19V52.15h-.35V50.06h.09v-.14h-.09v.14H30.69v-.14h-5V48.46h5V46.81h0V43.36H75.28v0h2.29A1.73,1.73,0,0,1,79.32,45v3.51Z"/><path class="cls-8" d="M77.34,70h1.23a1,1,0,0,1,1,1v.39a0,0,0,0,1,0,0H76.39a0,0,0,0,1,0,0v-.39A1,1,0,0,1,77.34,70Z"/><rect class="cls-6" x="27.67" y="65.57" width="2.81" height="1.93" transform="translate(58.15 133.07) rotate(-180)"/><polygon class="cls-7" points="31.09 66.36 31.09 69.18 29.48 69.18 28.68 69.98 28.14 70.52 27.54 69.92 28.28 69.18 26.75 69.18 26.75 66.36 27.17 66.36 27.17 65.89 27.67 65.89 27.67 49.91 30.83 49.91 30.83 52.14 30.48 52.14 30.48 65.89 30.67 65.89 30.67 66.36 31.09 66.36"/><path class="cls-8" d="M29.68,70.93v.39H26.54v-.39a1,1,0,0,1,.95-1h1.24A1,1,0,0,1,29.68,70.93Z"/><path class="cls-9" d="M62.1,22.18l-.06.44c0,.08,0,.17,0,.27-.09.61-.22,1.56-.39,2.73,0,0,0,.07,0,.11l-.09.65q-.12.77-.24,1.62c-.28,1.87-.62,4-1,6.06-.5,8.35-.7,11.73-3.31,11.73h0c0,.17-.64,2.43-.65,2.65s0,.46,0,.73,0,.47,0,.73a.71.71,0,0,0,0,.14c0,.58.08,1.22.12,1.86a17.29,17.29,0,0,1,0,3.89A11.78,11.78,0,0,1,56,57.29c-.44,1.19-1.1,2.73-1.7,4.09S53.26,63.71,53,64.23a.28.28,0,0,1-.4.11c-1.12-.73-3.82-.06-5.51.21h0c-.49.07-.79.13-.79.13a.15.15,0,0,0,0-.13.27.27,0,0,0-.08-.07c-.48-.3-2.35-.2-3.7-.08-.65,0-1.18.11-1.37.14H41c.33-.37-1-.42-2.34-.38h-.55l-.5,0-1.16.07h0c-.14-.88-4.64.14-5.15.26h-.05c0-.22-.37-.35-.89-.43l-.11,0-.26,0-.93,0h-.49l-1,0c-1.1,0-2,.11-2,.11s-.24-9.58-.24-14.25c0-.52,0-1,.05-1.46a12.07,12.07,0,0,1,.35-2.15c.05-.17.09-.34.14-.5l.06-.2A8.3,8.3,0,0,1,27,43.35l0-.07A1.43,1.43,0,0,0,27,43.1c0-.12.06-.29.1-.5a88.92,88.92,0,0,0,.92-14.42c0-.91-.08-1.78-.12-2.55,0-.08,0-.16,0-.23,0-.5-.05-1-.07-1.36,0-.22,0-.42,0-.61s0-.38,0-.54c0-.46,0-.71,0-.71Z"/><path class="cls-10" d="M43.54,76.11c0,.06,0,0-.06-.17A.19.19,0,0,1,43.54,76.11Z"/><path class="cls-10" d="M27.39,24.57l0,0S27.38,24.54,27.39,24.57Z"/></g></g></svg>