<svg id="Layer_1" data-name="Layer 1" xmlns="http://www.w3.org/2000/svg" xmlns:xlink="http://www.w3.org/1999/xlink" viewBox="0 0 100 100"><defs><style>.cls-1{fill:none;}.cls-2{fill:#0054c5;}.cls-3{fill:#abe9f3;stroke:#abe9f3;stroke-miterlimit:10;stroke-width:0.05px;}.cls-4{fill:#00a0dc;}.cls-5{fill:#ffc365;}.cls-6{fill:#ff2f26;}.cls-7{fill:#f59f00;}.cls-8{fill:#45160d;}.cls-9{clip-path:url(#clip-path);}.cls-10{fill:#ff0006;}.cls-11{fill:#fff;}.cls-12{fill:#805700;}.cls-13{fill:#2c1e00;}.cls-14{fill:#1d1d1b;}.cls-15{fill:#2c1f03;}.cls-16{fill:#0083f9;}.cls-17{opacity:0.55;}</style><clipPath id="clip-path"><path id="SVGID" class="cls-1" d="M56.44,36.57a1.21,1.21,0,0,1-2.32-.68,5.34,5.34,0,0,0,1.12.48A5,5,0,0,0,56.44,36.57Z"/></clipPath></defs><title>CH4-6</title><rect class="cls-2" x="30.9" y="19.22" width="39.69" height="62.67" transform="translate(16.22 -12.2) rotate(16.29)"/><rect class="cls-3" x="36.26" y="19.94" width="35.91" height="37.52" rx="0.99" transform="translate(13.03 -13.65) rotate(16.29)"/><path class="cls-4" d="M48.6,22.85s-.51-1,.14-1.39,1.63.24,2,1.05c0,0,2-.85,6.87,1.25a64,64,0,0,0,9,3.11,2.45,2.45,0,0,1,1.58-.22c.69.24-.34,1.83-.34,1.83a13.9,13.9,0,0,1-1.71,7.38c-2.08,3.9-1.86,4.19-1.86,4.19s.66,1.1,0,1.58-1.5-.43-1.5-.43a18.58,18.58,0,0,1-5.86-1.41c-3.3-1.34-10.14-2.81-11.39-4.5a1.81,1.81,0,0,1-1.45-.35c-.49-.52.13-1.36.89-1.37a9.18,9.18,0,0,0,1.68-4.69A18.3,18.3,0,0,1,48.6,22.85Z"/><rect class="cls-2" x="38.9" y="18.23" width="41.9" height="2.3" transform="translate(7.84 -16.01) rotate(16.29)"/><g id="albert"><path class="cls-5" d="M61.67,34h-.34L61,34a9,9,0,0,0,0-3.06v-.05a9.41,9.41,0,0,1-4.91-1.79s0,.4.83,1a7.09,7.09,0,0,1-3.66-1.51,14.49,14.49,0,0,0-1.61,2.72l-.48-.34h0l-.07-.05a1.21,1.21,0,0,0-1.67.27,1.18,1.18,0,0,0-.22.69,1.19,1.19,0,0,0,.49,1L51.37,34a6.61,6.61,0,0,0,1.72,3.92l-.17.59c-.24.81.34,1.29,1.15,1.53s1.57.15,1.8-.67l.15-.51a6.51,6.51,0,0,0,3.77-2.42l2-.12a1.18,1.18,0,0,0,1.12-1.19v-.07A1.2,1.2,0,0,0,61.67,34ZM52.79,32.1a.36.36,0,0,1,0-.11.48.48,0,0,1,.59-.32l1.38.4a.48.48,0,0,1,.32.59.47.47,0,0,1-.58.32l-1.39-.41a.49.49,0,0,1-.26-.18A.55.55,0,0,1,52.79,32.1Zm3.53,3.33A2.56,2.56,0,0,1,54.79,35,1.87,1.87,0,0,1,56.32,35.43ZM53,33.26a.86.86,0,0,1,.7.07c.34.15.54.42.52.47A5.53,5.53,0,0,1,53,33.26Zm1.94,4.13a1.21,1.21,0,0,1-.82-1.5,4.92,4.92,0,0,0,2.32.67A1.22,1.22,0,0,1,54.94,37.39Zm2.4-2.68a.91.91,0,0,1,.69-.12.9.9,0,0,1,.63.32A5.34,5.34,0,0,1,57.34,34.71Zm2.15-.77a.6.6,0,0,1-.08.16.13.13,0,0,1-.07.06.44.44,0,0,1-.43.1l-1.39-.4a.47.47,0,0,1,.27-.91l1.38.41A.47.47,0,0,1,59.49,33.94Z"/><path class="cls-5" d="M56.44,36.56a1.22,1.22,0,0,1-1.5.83,1.21,1.21,0,0,1-.82-1.5,4.92,4.92,0,0,0,2.32.67Z"/><path class="cls-6" d="M48.87,42.56c2.81,1.16,5.58,2.45,8.32,3.79L58.62,42,55.8,39.63l-.36.09A2.38,2.38,0,0,1,53.1,39l-.26-.28-3.67.5-.76,3.14A2.51,2.51,0,0,1,48.87,42.56Z"/><path class="cls-5" d="M56.44,36.56a1.22,1.22,0,0,1-1.5.83,1.21,1.21,0,0,1-.82-1.5,4.92,4.92,0,0,0,2.32.67Z"/><path class="cls-5" d="M54.22,33.8A5.53,5.53,0,0,1,53,33.26a.86.86,0,0,1,.7.07C54,33.48,54.24,33.75,54.22,33.8Z"/><path class="cls-5" d="M56.32,35.43A2.56,2.56,0,0,1,54.79,35,1.87,1.87,0,0,1,56.32,35.43Z"/><path class="cls-5" d="M58.66,34.91a5.34,5.34,0,0,1-1.32-.2.91.91,0,0,1,.69-.12A.9.9,0,0,1,58.66,34.91Z"/><path class="cls-5" d="M59.49,33.94a.6.6,0,0,1-.08.16.13.13,0,0,1-.07.06.44.44,0,0,1-.43.1l-1.39-.4a.47.47,0,0,1,.27-.91l1.38.41A.47.47,0,0,1,59.49,33.94Z"/><path class="cls-5" d="M55.1,32.66a.47.47,0,0,1-.58.32l-1.39-.41a.49.49,0,0,1-.26-.18.55.55,0,0,1-.08-.29.36.36,0,0,1,0-.11.48.48,0,0,1,.59-.32l1.38.4A.48.48,0,0,1,55.1,32.66Z"/><path class="cls-5" d="M61.33,34,61,34a9,9,0,0,0,0-3.06v-.05a9.41,9.41,0,0,1-4.91-1.79s0,.4.83,1a7.09,7.09,0,0,1-3.66-1.51,14.49,14.49,0,0,0-1.61,2.72l-.24-.17a7,7,0,0,1,1.35-3.3,2.61,2.61,0,0,1,.27-.3,6.52,6.52,0,0,1,.76-.66h0A4.84,4.84,0,0,1,61.57,29a8.52,8.52,0,0,1,.33,1.08,3.05,3.05,0,0,1,.08.54A6.87,6.87,0,0,1,61.33,34Z"/><path class="cls-7" d="M56.32,35.43A2.56,2.56,0,0,1,54.79,35,1.87,1.87,0,0,1,56.32,35.43Z"/><path class="cls-8" d="M56.44,36.56a1.22,1.22,0,0,1-1.5.83,1.21,1.21,0,0,1-.82-1.5,4.92,4.92,0,0,0,2.32.67Z"/><g class="cls-9"><circle class="cls-10" cx="54.68" cy="38.3" r="1.46"/><rect class="cls-11" x="53.87" y="36.04" width="2.65" height="0.6" transform="translate(12.41 -14.02) rotate(16.29)"/></g><path class="cls-12" d="M53.89,26.63a1.24,1.24,0,0,0-.1.2h0a12.45,12.45,0,0,1-.38,1.46,2.36,2.36,0,0,1-.15.25,14.49,14.49,0,0,0-1.61,2.72l-.48-.34h0c.06-.2.71-2.4.92-3.13a1.13,1.13,0,0,1,.43-.58A3.85,3.85,0,0,1,53.89,26.63Z"/><path class="cls-12" d="M62.49,30.83,61.57,34h-.24L61,34a9,9,0,0,0,0-3.06v-.05c0-.62.5-1.32.58-1.87a.78.78,0,0,0,0-.14,3.49,3.49,0,0,1,.9,1.38A1.22,1.22,0,0,1,62.49,30.83Z"/><path class="cls-5" d="M51.16,30.92l.24.18-.24-.17Z"/><path class="cls-5" d="M53,32.24l-.11.15a.55.55,0,0,1-.08-.29Z"/><path class="cls-5" d="M59.41,34.1a.13.13,0,0,1-.07.06V34.1Z"/><path class="cls-13" d="M55.1,32.66a.47.47,0,0,1-.58.32l-1.39-.41a.49.49,0,0,1-.26-.18.55.55,0,0,1-.08-.29.36.36,0,0,1,0-.11.48.48,0,0,1,.59-.32l1.38.4A.48.48,0,0,1,55.1,32.66Z"/><path class="cls-14" d="M54.22,33.8A5.53,5.53,0,0,1,53,33.26a.86.86,0,0,1,.7.07C54,33.48,54.24,33.75,54.22,33.8Z"/><path class="cls-13" d="M59.49,33.94a.6.6,0,0,1-.08.16.13.13,0,0,1-.07.06.44.44,0,0,1-.43.1l-1.39-.4a.47.47,0,0,1,.27-.91l1.38.41A.47.47,0,0,1,59.49,33.94Z"/><path class="cls-14" d="M58.66,34.91a5.34,5.34,0,0,1-1.32-.2.91.91,0,0,1,.69-.12A.9.9,0,0,1,58.66,34.91Z"/><path class="cls-15" d="M52.77,27.39a.28.28,0,0,1-.11-.07.13.13,0,0,1,0-.12A1.65,1.65,0,0,0,52.77,27.39Z"/><path class="cls-15" d="M63.58,28.56a4.94,4.94,0,0,1-1.09,1.7,2.42,2.42,0,0,1-.51.38,1.81,1.81,0,0,1-1,.25h0a9.41,9.41,0,0,1-4.91-1.79s0,.4.83,1a7.09,7.09,0,0,1-3.66-1.51,2,2,0,0,1-.5-.75,1.65,1.65,0,0,1-.1-.48.41.41,0,0,0,.11.06l-.11-.18a.24.24,0,0,0,0,.12,1.1,1.1,0,0,1-.14-.11,3.07,3.07,0,0,1-1.44-2.42,7.64,7.64,0,0,1,1.29,1.58,1.45,1.45,0,0,1,.18-1,7.31,7.31,0,0,1,.26,1.22,2.25,2.25,0,0,1,.39-.61c2.37-2.9,4.65-1.51,4.65-1.51a1.9,1.9,0,0,0-1.47.82c2.45-.85,3.94-.35,4.83,1.17a3.58,3.58,0,0,0-1.49-.06C61.91,27.32,61.82,28.41,63.58,28.56Z"/><path class="cls-15" d="M52.77,27.39a.28.28,0,0,1-.11-.07.13.13,0,0,1,0-.12A1.65,1.65,0,0,0,52.77,27.39Z"/></g><path class="cls-16" d="M71.72,46.68,69.79,53.3a.69.69,0,0,1-.86.47l-.39-.11L59.61,84.24,25.14,74.17l8.94-30.58h0a.69.69,0,0,1-.47-.86l1.94-6.62a.68.68,0,0,1,.85-.47l34.9,10.2A.68.68,0,0,1,71.72,46.68Z"/><g class="cls-17"><rect class="cls-1" x="32.72" y="24.21" width="37.41" height="56.19" transform="translate(16.73 -12.32) rotate(16.29)"/></g></svg>