<svg id="Layer_1" data-name="Layer 1" xmlns="http://www.w3.org/2000/svg" xmlns:xlink="http://www.w3.org/1999/xlink" viewBox="0 0 100 100"><defs><style>.cls-1{fill:none;}.cls-2{fill:#b6471a;}.cls-3{fill:#259afc;}.cls-4{fill:#f1a101;}.cls-5{fill:#fcc364;}.cls-6{fill:#322980;}.cls-7{fill:#f9f3f3;}.cls-8{fill:#e9a314;}.cls-9{fill:#3f1910;}.cls-10{clip-path:url(#clip-path);}.cls-11{fill:#ea1c24;}.cls-12{fill:#fff;}.cls-13{fill:#7a5817;}.cls-14{fill:#f9c265;}.cls-15{fill:#2a1e04;}.cls-16{fill:#1d1d1b;}.cls-17{fill:#2a1f07;}.cls-18{fill:#88a4bb;}</style><clipPath id="clip-path"><path id="SVGID" class="cls-1" d="M48.69,31.35a1.86,1.86,0,1,1-3.71,0,7.6,7.6,0,0,0,3.71,0Z"/></clipPath></defs><title>CH1-3</title><path class="cls-2" d="M48.69,31.35a1.86,1.86,0,1,1-3.71,0,7.6,7.6,0,0,0,3.71,0Z"/><path class="cls-2" d="M44.22,28.24a8.21,8.21,0,0,1-2-.28,1.37,1.37,0,0,1,1.07-.2C43.82,27.84,44.24,28.16,44.22,28.24Z"/><path class="cls-2" d="M45,26.34a.71.71,0,0,1-.51.52l-.07,0H42.09a.74.74,0,0,1-.7-.54H45Z"/><path class="cls-2" d="M48,29.73a3.75,3.75,0,0,1-2.43,0A2.89,2.89,0,0,1,48,29.73Z"/><path class="cls-2" d="M51.24,28a8.21,8.21,0,0,1-2,.28,1.43,1.43,0,0,1,1-.48A1.33,1.33,0,0,1,51.24,28Z"/><path class="cls-2" d="M52,26.34l0,.09a.35.35,0,0,1-.08.13h0a.73.73,0,0,1-.6.32H49l-.07,0a.71.71,0,0,1-.51-.52Z"/><path class="cls-2" d="M42.51,33.45H39v9.61H37.37v-9.6h-.23a1.27,1.27,0,0,1-1.24-1l-1-4.62A1.25,1.25,0,0,1,36,26.35v0a1.88,1.88,0,0,0-.11.62,1.81,1.81,0,0,0,1.22,1.71l3,1.07A12.25,12.25,0,0,0,42.51,33.45Z"/><path class="cls-2" d="M58.92,27.77l-.72,4.62a1.27,1.27,0,0,1-1.26,1.06h-.53v9.33a14.77,14.77,0,0,0-1.61.07v-9.4H51.17a12.18,12.18,0,0,0,2.42-3.69h0l2.92-1A1.82,1.82,0,0,0,57.73,27a1.87,1.87,0,0,0-.11-.61l0,0h.07A1.25,1.25,0,0,1,58.92,27.77Z"/><path class="cls-2" d="M56.53,77h0l.43,0-.08,2.13H57v.8H55.41v12h1.68v-15A3.5,3.5,0,0,1,56.53,77Z"/><path class="cls-2" d="M39.56,81.05V91.83H37.88v-19l.39,6.2h-.13v.8h.53V81.8h.06a1.26,1.26,0,0,1,.29-.43A1.15,1.15,0,0,1,39.56,81.05Z"/><g id="albert"><path class="cls-3" d="M41.63,79.07h.14v.8H38.14v-.8h.13c0-.78-.4-5.36-.39-6.81a9.91,9.91,0,0,1,4,.83Z"/><path class="cls-3" d="M42,69.22l-.15,3.87c-.93-.12-1.38-.84-4-.83v.61c-.05-.71-.11-1.79-.23-3.65Z"/><path class="cls-4" d="M41.24,79.87V81.8h-.06A1.34,1.34,0,0,0,40,81a1,1,0,0,0-.39.07,1.15,1.15,0,0,0-.54.32,1.26,1.26,0,0,0-.29.43h-.06V79.87Z"/><path class="cls-5" d="M41.18,81.8H38.73a1.26,1.26,0,0,1,.29-.43,1.15,1.15,0,0,1,.54-.32A1,1,0,0,1,40,81,1.34,1.34,0,0,1,41.18,81.8Z"/><polygon class="cls-6" points="42.15 83.64 39.56 83.63 37.76 83.63 37.88 83.38 38.63 81.8 41.28 81.8 42.15 83.64"/><path class="cls-7" d="M41.55,83H38.41l.22-.7a1.45,1.45,0,0,1,.1-.51,1.26,1.26,0,0,1,.29-.43,1.15,1.15,0,0,1,.54-.32A1,1,0,0,1,40,81a1.34,1.34,0,0,1,1.23.82,1.45,1.45,0,0,1,.1.51Z"/><path class="cls-3" d="M57,79.07v.8H53.4v-.8h.14l-.14-2.23a20.84,20.84,0,0,0,3.58.1l-.08,2.13Z"/><path class="cls-3" d="M57.27,69.22c-.07,1.88-.19,5.06-.29,7.72a18.57,18.57,0,0,1-3.58-.1l-.48-7.62Z"/><path class="cls-4" d="M56.51,79.87V81.8h-.06a1.31,1.31,0,0,0-1-.8.62.62,0,0,0-.19,0,1.34,1.34,0,0,0-.35,0,1.29,1.29,0,0,0-.87.77h-.06V79.87Z"/><path class="cls-5" d="M56.45,81.8H54A1.31,1.31,0,0,1,55.22,81,1.33,1.33,0,0,1,56.45,81.8Z"/><polygon class="cls-6" points="57.42 83.64 53.03 83.63 53.89 81.8 56.55 81.8 57.42 83.64"/><path class="cls-7" d="M56.81,83H53.67l.22-.7A1.26,1.26,0,0,1,54,81.8,1.31,1.31,0,0,1,55.22,81a1.33,1.33,0,0,1,1.23.82,1.45,1.45,0,0,1,.1.51Z"/><path class="cls-5" d="M45.88,37.38a1.62,1.62,0,0,1-1.44-1.22Z"/><path class="cls-5" d="M49,36.14a1.47,1.47,0,0,1-.94,1.09Z"/><path class="cls-5" d="M48.69,31.35a1.86,1.86,0,1,1-3.71,0,7.6,7.6,0,0,0,3.71,0Z"/><path class="cls-6" d="M54.14,38.38,54,42.71l0,.53H52.53c-3.43,0-6.86.26-10.3.33-.76,0-1.52-.08-2.29-.12l-.45,0,0-.7-.21-4.34.22-.1,4.9-2.17.07.06,1.44,1.22.13.11.36,2.77.67.14.82-2.94.2-.23L49,36.14h0l0,0,4.87,2.17h0Z"/><path class="cls-6" d="M55.89,43.35c-.54-2.44-1.15-4.62-1.72-5-.85-.58-1.65,1.9-1.64,4.87C53.65,43.22,54.77,43.26,55.89,43.35Z"/><path class="cls-6" d="M40.57,43.45c.23-3-.43-5.64-1.33-5.11-.6.36-1.36,2.56-2.06,5Z"/><path class="cls-5" d="M44.22,28.24a8.21,8.21,0,0,1-2-.28,1.37,1.37,0,0,1,1.07-.2C43.82,27.84,44.24,28.16,44.22,28.24Z"/><path class="cls-5" d="M45,26.17a1,1,0,0,1,0,.17.71.71,0,0,1-.51.52l-.07,0H42.09a.74.74,0,0,1-.7-.54h0a1,1,0,0,1,0-.17.72.72,0,0,1,.72-.72h2.22A.72.72,0,0,1,45,26.17Z"/><path class="cls-5" d="M48,29.73a3.75,3.75,0,0,1-2.43,0A2.89,2.89,0,0,1,48,29.73Z"/><path class="cls-5" d="M57.62,26.38l0,0a1.82,1.82,0,0,0-2.32-1.07l-.14.05-.36.13-.49.17c0-1.64-.91-3.39-1.31-4.52L53,21a14.13,14.13,0,0,1-8-.52s.08.61,1.62,1.07c-2.86.28-4.82,0-6-.66-.39,1.45-1.2,3.3-1.21,4.71l-.42-.15-.43-.15-.13-.05A1.82,1.82,0,0,0,36,26.35v0a1.88,1.88,0,0,0-.11.62,1.81,1.81,0,0,0,1.22,1.71l3,1.07a12.25,12.25,0,0,0,2.41,3.67,7.31,7.31,0,0,0,1.88,1.4v.88a1.88,1.88,0,0,0,0,.43l1.44,1.22a3.8,3.8,0,0,0,.84.08,3.49,3.49,0,0,0,1.34-.23L49,36.14h0a1.64,1.64,0,0,0,0-.4V35a7.2,7.2,0,0,0,2.13-1.52,12.18,12.18,0,0,0,2.42-3.69h0l2.92-1A1.82,1.82,0,0,0,57.73,27,1.87,1.87,0,0,0,57.62,26.38ZM48,29.73a3.75,3.75,0,0,1-2.43,0A2.89,2.89,0,0,1,48,29.73ZM42.19,28a1.37,1.37,0,0,1,1.07-.2c.56.08,1,.4,1,.48A8.21,8.21,0,0,1,42.19,28Zm2.31-1.1-.07,0H42.09a.74.74,0,0,1-.7-.54h0a1,1,0,0,1,0-.17.72.72,0,0,1,.72-.72h2.22a.72.72,0,0,1,.72.72,1,1,0,0,1,0,.17A.71.71,0,0,1,44.5,26.86Zm2.33,6.35A1.85,1.85,0,0,1,45,31.35a7.6,7.6,0,0,0,3.71,0A1.86,1.86,0,0,1,46.83,33.21Zm2.38-5a1.43,1.43,0,0,1,1-.48,1.33,1.33,0,0,1,1.06.2A8.21,8.21,0,0,1,49.21,28.24ZM52,26.43a.35.35,0,0,1-.08.13h0a.73.73,0,0,1-.6.32H49l-.07,0a.71.71,0,0,1-.51-.52,1,1,0,0,1,0-.17.72.72,0,0,1,.72-.72h2.21a.73.73,0,0,1,.73.72.88.88,0,0,1,0,.17Z"/><path class="cls-5" d="M48.69,31.35a1.86,1.86,0,1,1-3.71,0,7.6,7.6,0,0,0,3.71,0Z"/><path class="cls-5" d="M51.24,28a8.21,8.21,0,0,1-2,.28,1.43,1.43,0,0,1,1-.48A1.33,1.33,0,0,1,51.24,28Z"/><path class="cls-5" d="M52.06,26.17a.88.88,0,0,1,0,.17l0,.09a.35.35,0,0,1-.08.13h0a.73.73,0,0,1-.6.32H49l-.07,0a.71.71,0,0,1-.51-.52,1,1,0,0,1,0-.17.72.72,0,0,1,.72-.72h2.21A.73.73,0,0,1,52.06,26.17Z"/><path class="cls-5" d="M54.78,25.45l-.49.17c0-1.64-.91-3.39-1.31-4.52L53,21a14.13,14.13,0,0,1-8-.52s.08.61,1.62,1.07c-2.86.28-4.82,0-6-.66-.39,1.45-1.2,3.3-1.21,4.71l-.42-.15A10.57,10.57,0,0,1,39.47,20a5.6,5.6,0,0,1,.27-.55,11.69,11.69,0,0,1,.86-1.33c3.38-4.5,9-4.53,12.42-.09A10.55,10.55,0,0,1,54,19.47a4.93,4.93,0,0,1,.36.77A10.85,10.85,0,0,1,54.78,25.45Z"/><path class="cls-8" d="M48,29.73a3.75,3.75,0,0,1-2.43,0A2.89,2.89,0,0,1,48,29.73Z"/><path class="cls-9" d="M48.69,31.35a1.86,1.86,0,1,1-3.71,0,7.6,7.6,0,0,0,3.71,0Z"/><g class="cls-10"><circle class="cls-11" cx="46.83" cy="34.67" r="2.25"/><rect class="cls-12" x="44.72" y="31.08" width="4.07" height="0.92"/></g><path class="cls-13" d="M40.65,20.48c0,.14-.07.28-.11.43-.39,1.45-1.2,3.3-1.21,4.71l-.42-.15-.43-.15v-5a1.74,1.74,0,0,1,.38-1,5.83,5.83,0,0,1,1.79-1.46,1.27,1.27,0,0,0,0,.34C40.51,18.92,40.81,19.76,40.65,20.48Z"/><path class="cls-13" d="M55.14,20.29v5l-.36.13-.49.17c0-1.64-.91-3.39-1.31-4.52L53,21c-.27-.89.15-2.12.07-3a1.87,1.87,0,0,0,0-.25,5.32,5.32,0,0,1,1.91,1.67A1.52,1.52,0,0,1,55.14,20.29Z"/><path class="cls-14" d="M41.72,26.47l-.09.25a.67.67,0,0,1-.24-.37Z"/><path class="cls-14" d="M52,26.43a.35.35,0,0,1-.08.13l0-.09Z"/><path class="cls-15" d="M45,26.17a1,1,0,0,1,0,.17.71.71,0,0,1-.51.52l-.07,0H42.09a.74.74,0,0,1-.7-.54h0a1,1,0,0,1,0-.17.72.72,0,0,1,.72-.72h2.22A.72.72,0,0,1,45,26.17Z"/><path class="cls-16" d="M44.22,28.24a8.21,8.21,0,0,1-2-.28,1.37,1.37,0,0,1,1.07-.2C43.82,27.84,44.24,28.16,44.22,28.24Z"/><path class="cls-15" d="M52.06,26.17a.88.88,0,0,1,0,.17l0,.09a.35.35,0,0,1-.08.13h0a.73.73,0,0,1-.6.32H49l-.07,0a.71.71,0,0,1-.51-.52,1,1,0,0,1,0-.17.72.72,0,0,1,.72-.72h2.21A.73.73,0,0,1,52.06,26.17Z"/><path class="cls-16" d="M51.24,28a8.21,8.21,0,0,1-2,.28,1.43,1.43,0,0,1,1-.48A1.33,1.33,0,0,1,51.24,28Z"/><path class="cls-17" d="M55.78,16.47a7.59,7.59,0,0,1-.89,3,4,4,0,0,1-.58.77A2.88,2.88,0,0,1,53,21h0a14.13,14.13,0,0,1-8-.52s.08.61,1.62,1.07c-2.86.28-4.82,0-6-.66A3.1,3.1,0,0,1,39.47,20a2.26,2.26,0,0,1-.35-.67l-.26-.09c-.9-.32-2.74-1.18-3.16-3a11,11,0,0,1,2.59,1.81,2.19,2.19,0,0,1-.19-1.65A10.19,10.19,0,0,1,39,18.18a4.24,4.24,0,0,1,.31-1.1c2.24-5.28,6.2-4.21,6.2-4.21A2.91,2.91,0,0,0,43.7,14.7c3.25-2.3,5.66-2.22,7.64-.34a5.45,5.45,0,0,0-2.22.54C52.76,15.37,53.11,17,55.78,16.47Z"/></g><g id="table"><path class="cls-2" d="M18.06,71.28a7.72,7.72,0,0,1-.9-.91,8.13,8.13,0,0,1-1-.63l-.72,22.09h1.36l1.53-20.35C18.26,71.41,18.16,71.36,18.06,71.28Z"/><path class="cls-2" d="M80.82,70.71l1.59,21.12h1.35L83.1,71.42A2.91,2.91,0,0,1,80.82,70.71Z"/><path class="cls-18" d="M83.33,72l-.21-.08c-.36-.13-1.19-.42-2.27-.7-2.61-.69-6.68-1.37-9.15.22-5.31,3.41-10.05,5.24-14.61,5.53H57l-.43,0a10.84,10.84,0,0,1-1.14,0h-.54q-.73,0-1.47-.12A24.08,24.08,0,0,1,44.91,74l-3-1-2.3-.71-.23-.07-.31,0c-.34,0-.73,0-1.14,0h-.54A22.09,22.09,0,0,0,27.09,75c-2.74,1.57-6.41-1-8.76-3a26.23,26.23,0,0,1-2.15-2.14L16,69.65l.23-25.42a1.51,1.51,0,0,1,.81-1.48.49.49,0,0,1,.21,0H82a.49.49,0,0,1,.21,0A1.49,1.49,0,0,1,83,44.22Z"/></g></svg>