<svg id="Layer_1" data-name="Layer 1" xmlns="http://www.w3.org/2000/svg" xmlns:xlink="http://www.w3.org/1999/xlink" viewBox="0 0 100 100"><defs><style>.cls-1{fill:none;}.cls-2{fill:#cecece;}.cls-12,.cls-2{opacity:0.6;}.cls-3{fill:#f4b22d;}.cls-4{fill:#e89603;}.cls-5{clip-path:url(#clip-path);}.cls-6{fill:#77a8f9;}.cls-7{fill:#5647c6;}.cls-8{fill:#597fba;}.cls-9{fill:#c56848;}.cls-10{clip-path:url(#clip-path-2);}.cls-11{fill:#f9d8c3;}.cls-13{fill:#9099a0;}</style><clipPath id="clip-path"><path class="cls-1" d="M64.13,22c-.46,1.06-3.45.78-6.69-.63s-5.48-3.41-5-4.47c.4-.91,5.13.23,6.39.55a2.41,2.41,0,0,1,.57.25C60.47,18.36,64.53,21.05,64.13,22Z"/></clipPath><clipPath id="clip-path-2"><path class="cls-1" d="M45.45,68.22c-11.17,0-17.35-1.78-17.35-3s6.18-3,17.35-3,17.42,1.77,17.42,3S56.62,68.22,45.45,68.22Z"/></clipPath></defs><title>CH1-4</title><path class="cls-2" d="M48.79,10.87c-17.58,0-13.69,3.81-13.69,10.33s-7.63,5-7.63,12.31S43.74,38.9,43.74,45.2s-21,1.53-21,12.12-.86,12.74-1.52,24.55c-.55,9.78,47.76,18.6,50.07,0,3.93-31.71-2.31-26-10.37-30.28s-4.76-9,9.22-12.16S84.08,10.87,48.79,10.87Z"/><path class="cls-3" d="M66.85,27.83c-.64,2.22-6.78,4.25-14.37,4.69C44.38,33,37.7,31.42,37.57,29S43.89,24.36,52,23.9l1.62-.06c.63.3,1.28.6,2,.89A35,35,0,0,0,66.85,27.83Z"/><path class="cls-4" d="M56.69,26.91C56.75,28,54.16,29,50.9,29.18s-5.95-.53-6-1.6,4.33-1.95,5.5-2.21a1.89,1.89,0,0,1,.58,0C52.16,25.46,56.64,26,56.69,26.91Z"/><path class="cls-3" d="M70.77,26.64c-.4.92-1.84,1.3-3.92,1.19a35,35,0,0,1-11.28-3.1c-.67-.29-1.32-.59-2-.89-6.38-3.12-10.66-6.94-9.8-8.93,1-2.19,7.76-1.33,15.2,1.91S71.72,24.45,70.77,26.64Z"/><g class="cls-5"><path class="cls-4" d="M63.25,21c-.43,1-3.2.72-6.19-.58S52,17.24,52.41,16.25s4.75.22,5.91.52a1.48,1.48,0,0,1,.53.23C59.86,17.64,63.62,20.12,63.25,21Z"/></g><path class="cls-6" d="M63.05,80.15v2.46c0,1.81-7.88,3.26-17.6,3.26s-17.6-1.45-17.6-3.26V80.15h.68c0,.07.29.43,1.55.88a23.15,23.15,0,0,0,3.35.81,61.07,61.07,0,0,0,7.33.77h9.38a60.89,60.89,0,0,0,7.32-.77A23.08,23.08,0,0,0,60.82,81c1.25-.44,1.5-.8,1.54-.87Z"/><path class="cls-7" d="M50.14,82.61c-1.51.08-3.09.12-4.69.12s-3.18,0-4.69-.12Z"/><path class="cls-7" d="M28.56,65.21h0v0S28.54,65.19,28.56,65.21Z"/><path class="cls-7" d="M62.36,65.17v0h0S62.36,65.18,62.36,65.17Z"/><path class="cls-7" d="M62.36,68.59V80.15c0,.07-.29.43-1.54.87a23.08,23.08,0,0,1-3.36.82,60.89,60.89,0,0,1-7.32.77H40.76a61.07,61.07,0,0,1-7.33-.77A23.15,23.15,0,0,1,30.08,81c-1.26-.45-1.51-.81-1.55-.88V68.58c2.1,1.36,8.88,2.36,16.92,2.36S60.24,70,62.36,68.59Z"/><path class="cls-7" d="M62.36,65.86v2.73c-2.12,1.36-8.89,2.35-16.91,2.35s-14.82-1-16.92-2.36V65.75a4.38,4.38,0,0,0,1,.54,26,26,0,0,0,6.22,1.39,79.63,79.63,0,0,0,9.78.54,79.63,79.63,0,0,0,9.78-.54,26.87,26.87,0,0,0,6.15-1.36A5.85,5.85,0,0,0,62.36,65.86Z"/><path class="cls-6" d="M63.05,65.21v2.47c0,.31-.24.62-.69.91-2.12,1.36-8.89,2.35-16.91,2.35s-14.82-1-16.92-2.36c-.44-.29-.68-.59-.68-.9V65.21h.68v.54a4.38,4.38,0,0,0,1,.54,26,26,0,0,0,6.22,1.39,79.63,79.63,0,0,0,9.78.54,79.63,79.63,0,0,0,9.78-.54,26.87,26.87,0,0,0,6.15-1.36,5.85,5.85,0,0,0,.91-.46c.34-.23.51-.45.51-.65Z"/><path class="cls-8" d="M45.52,62.21c-11.17,0-17.35,1.77-17.35,3a.76.76,0,0,0,.36.54v-.54h0s0,0,0,0,.66-1,4.9-1.69a71.92,71.92,0,0,1,12-.89,71.71,71.71,0,0,1,12,.89c4.24.74,4.84,1.57,4.9,1.69s0,0,0,0h.54C62.87,64,56.69,62.21,45.52,62.21Z"/><path class="cls-9" d="M62.87,65.21c0,.2-.17.42-.51.65a5.85,5.85,0,0,1-.91.46,26.87,26.87,0,0,1-6.15,1.36,79.63,79.63,0,0,1-9.78.54,79.63,79.63,0,0,1-9.78-.54,26,26,0,0,1-6.22-1.39,4.38,4.38,0,0,1-1-.54v-.54h0s0,0,0,0,.66-1,4.9-1.69a71.92,71.92,0,0,1,12-.89,71.71,71.71,0,0,1,12,.89c4.24.74,4.84,1.57,4.9,1.69s0,0,0,0Z"/><g class="cls-10"><ellipse class="cls-11" cx="45.85" cy="65.62" rx="17.35" ry="3"/></g><path class="cls-9" d="M56.25,63.58a2,2,0,1,1-3-.8A2,2,0,0,1,55.8,63L67.88,54.1l.71,1Z"/><path class="cls-9" d="M42.12,64.55a2,2,0,0,1-3.36-2.21L26.92,53.16l.76-.95,11.56,9.54a2,2,0,0,1,2.88,2.8Z"/><g class="cls-12"><path class="cls-13" d="M24.08,20.44l-1.19,2.11-1.1,1.94c-1.12,2-2.77,4.9-3.34,5.89a2.41,2.41,0,0,1-3,1c-.38-.22-2.48-1.52-1-2.85,1.76-1.61,3.75.7,3.75.7l3-5.12-6.71-3.79-3.35,5.89a2.42,2.42,0,0,1-3,1c-.37-.23-2.47-1.53-1-2.84,1.76-1.63,3.75.69,3.75.69s1.59-2.7,3-5.11h0L16,15.88Z"/></g><g class="cls-12"><path class="cls-13" d="M84.82,80.63s-4.68.19-4.41,3.86c.22,3,3.79,1.71,4.43,1.45a3.7,3.7,0,0,0,1.67-4.6l-5.22-12.8s5-.93,6.44,2.55a10.82,10.82,0,0,1,.41,4.09s1.63-1.08.26-4.43-7-4.38-8-5.9-1.8-.07-1.24,1.32S84.82,80.63,84.82,80.63Z"/></g></svg>