<svg xmlns="http://www.w3.org/2000/svg" xmlns:xlink="http://www.w3.org/1999/xlink" viewBox="0 0 100 100"><defs><style>.cls-1{fill:none;}.cls-2{isolation:isolate;}.cls-3{fill:#f8b955;}.cls-4{fill:#fdc15d;}.cls-5{fill:#7b590c;}.cls-6{fill:#fac35c;}.cls-7{fill:#2a1e02;}.cls-8{fill:#1d1d1b;}.cls-9{clip-path:url(#clip-path);}.cls-10{fill:#fff;}.cls-11{fill:#2a1f05;}.cls-12{fill:#1698ff;}.cls-13{fill:#322581;}.cls-14{fill:#b7b2b2;}.cls-15{fill:#f2452e;}.cls-16{fill:#dd1d00;}.cls-17{fill:#f09f00;}.cls-18{fill:#29343d;}.cls-19{fill:#fdc45b;}.cls-20{fill:#2d164f;}.cls-21{fill:#f9f3f3;}.cls-22{fill:#da6c65;mix-blend-mode:multiply;}</style><clipPath id="clip-path"><path id="SVGID" class="cls-1" d="M47.62,9.61c-4.82-.16-6,5.55-6.07,9s3.8,4.94,3.66,8.89l-.05,1.57a2.2,2.2,0,0,0,4.4.15l0-1.34c.63.09.09.22,1.28.54,2.79.75,4.36-4,4.93-4.53,1.58-1.55,0-.59,1-4.47C58.52,13.24,55.89,9.89,47.62,9.61Z"/></clipPath></defs><title>CH2-1</title><g class="cls-2"><g id="Layer_1" data-name="Layer 1"><g id="albert"><path class="cls-3" d="M48.61,44.18a6.25,6.25,0,0,1,2.28,2.1c.28.46,1,1.88,2.07,2.18s1.08.57-.29,1.06c-3.14,1.11-5.31-2.07-6-3.25S48.61,44.18,48.61,44.18Z"/><path class="cls-4" d="M47.63,9.61c-4.83-.16-6,5.55-6.08,9s3.8,4.94,3.67,8.89v.05l0,1.52a2.2,2.2,0,0,0,4.39.15l0-1.14,1.29.34c2.8.75,3.93-3.19,4.51-3.76a3.88,3.88,0,0,1,1.18-.76.24.24,0,0,0,.11-.35,7.35,7.35,0,0,1,.15-4.13C58.53,13.24,55.89,9.89,47.63,9.61Zm-4.52,12A1.72,1.72,0,0,1,42,20a1.63,1.63,0,0,1,.13-.64,1.71,1.71,0,0,1,2.24-1l1.3.51.58,3.95Z"/><path class="cls-4" d="M46.26,22.86l-3.15-1.25A1.72,1.72,0,0,1,42,20a1.63,1.63,0,0,1,.13-.64,1.71,1.71,0,0,1,2.24-1l1.3.51Z"/><path class="cls-5" d="M41.61,16.14c0,.44,0,.91-.08,1.4-.5,4.08,2.92,6.91,2.92,6.91,2.64.09-1.12-5,.55-5.37,2.87-.59,5.35-.63,5.24-2a18,18,0,0,1-.1-2,2.52,2.52,0,0,1,.26-1.46c.09-.11.67-.71.87-.68C45.93,11.76,42.05,13.36,41.61,16.14Z"/><path class="cls-6" d="M46.26,22.86l-3.15-1.25A1.72,1.72,0,0,1,42,20a1.63,1.63,0,0,1,.13-.64,1.71,1.71,0,0,1,2.24-1l1.3.51Z"/><path class="cls-7" d="M55.54,19.29l-2.09-.07a.68.68,0,1,0-.05,1.36l2.1.07a.68.68,0,1,0,0-1.36Z"/><path class="cls-8" d="M55.53,21.93a7.64,7.64,0,0,1-1.91-.33,1.59,1.59,0,0,1,1.91.33Z"/><g class="cls-9"><path class="cls-10" d="M53.15,23.89a2.63,2.63,0,0,0,2.13,1.29.6.6,0,0,1,.57.62.59.59,0,0,1-.62.57.46.46,0,0,1-.23-.06l0,0A3.21,3.21,0,0,1,53.15,23.89Z"/></g><path class="cls-11" d="M58.93,12.4a1.87,1.87,0,0,1,.31,2.09s-.61-.63-1-.62a1.27,1.27,0,0,1-.17,1.61l-.4-1s-.31,1.05-.6,1.11L57,14.17a3.86,3.86,0,0,1-1.16.26c-2.53.11-2.49-.53-5.49-.88-5.48-.17-8.32.76-8.76,3.52a10.19,10.19,0,0,1,1.82-5.69l-2-.5a1.54,1.54,0,0,1,2.2.26h0L41.93,9c1.38-.07,1.78,1.09,1.89,1.86a4.71,4.71,0,0,1,3.77-1.58,36.59,36.59,0,0,1,3.74.36,8.54,8.54,0,0,0,4.14-1.31,3.8,3.8,0,0,1,.29.75,7.68,7.68,0,0,1,3.06-.63,2.7,2.7,0,0,0-.74,1.38,20.5,20.5,0,0,0,2.09-.55A10.18,10.18,0,0,1,58.93,12.4Z"/><circle class="cls-12" cx="45.18" cy="48.54" r="3.25"/><text/><path class="cls-12" d="M50.2,73.15l-.59.06-2.1.21h0l-.72.08-.08-.76h.13L45.06,61.33,43,50.89a2.89,2.89,0,0,1-1.12-2.35,13.57,13.57,0,0,1,1.33.8l5.46-.23.46,11.79L50,72.41h.13Z"/><polygon class="cls-12" points="49.61 73.21 47.51 73.43 47.51 73.42 49.61 73.21"/><path class="cls-13" d="M55,76.85l-7.35.71,0-.41V75.87a.08.08,0,0,1,.09-.08h0s0,0,0,0a.81.81,0,0,0,.72.48c.35,0,.79-.57,1.09-1l.25.06h0l3,.78a.91.91,0,0,0,.86-.13l1.27.4Z"/><path class="cls-4" d="M49.75,75.39l-.25-.06c-.3.41-.74.94-1.09,1a.81.81,0,0,1-.72-.48s0,0,0,0h0l-.14-2.36h0l2.1-.21.09,1.43Z"/><path class="cls-12" d="M53,57.61l-9.78,6.12.07.11-.63.42-.32-.49L41.17,62h0l-.4-.6.63-.42.07.1,7.33-5.45-6.91-7.11,4.82-4.6,6.84,10.79,0,0A2,2,0,0,1,53,57.61Z"/><polygon class="cls-12" points="42.34 63.77 42.33 63.77 41.16 62.02 41.17 62.01 42.34 63.77"/><path class="cls-4" d="M42.34,63.77h0l-1.24.77-.26.16h0l-.37.25-.06-.32c-.5-.09-1.17-.27-1.34-.58a.75.75,0,0,1,.11-.81l2-1.22h0Z"/><path class="cls-13" d="M49.86,32v.4c0,.27,0,.56,0,.86v1.23c0,2.37-.05,5.31-.09,8,0,.51,0,1,0,1.5h0c0,.32,0,.64,0,.94h0c0,1.55,0,2.85-.06,3.68,0,.29,0,.53,0,.7v.28l-1-.13-.38-.05-1.81-.24h0L42,48.62h-.15l-.47-.06.19-1.68,0-.17.09-.78.06-.46,1.15-10A13.84,13.84,0,0,1,44,31.38a11.41,11.41,0,0,1,.92-1.81,3.26,3.26,0,0,1,.24-.4c.12-.21.26-.42.4-.63l3.88,1.26.37.12S49.86,30.74,49.86,32Z"/><polygon class="cls-14" points="50.58 32.4 44.56 29.39 44.66 27.4 50.43 29.9 50.58 32.4"/><path class="cls-15" d="M44,31.38a13.84,13.84,0,0,0-1.09,4.05l-1.15,10-.7-.16s.35.54.64.62l-.09.78,0,.17s-3.85-1-4.16-2.14c-.93-3.36,2.12-12.39,4-13.06A14.53,14.53,0,0,1,43,31.19a.54.54,0,0,1,.65.45A4.1,4.1,0,0,1,44,31.38Z"/><path class="cls-15" d="M50.11,34l-.26-.73-.35-1a2.89,2.89,0,0,0-.83-.84l-.05,0a1.42,1.42,0,0,0-.46-.23h0a2.3,2.3,0,0,0-1.51,0A7.46,7.46,0,0,0,43.3,34L42,44.16a9,9,0,0,0,6.14-3.33,7.27,7.27,0,0,0,.74-1.06c.08.15.27.51.66,1.29a10.69,10.69,0,0,1-.93,1.38,8.54,8.54,0,0,1-1.72,1.73,7,7,0,0,1-1.1.68h0a6.46,6.46,0,0,1-4,.61l-.06.46-.11.77.09-.78c-.29-.08-.64-.62-.64-.62l.7.16,1.15-10A13.84,13.84,0,0,1,44,31.38a5.87,5.87,0,0,1,1.78-.71,4.44,4.44,0,0,1,1.09-.12h0a3.34,3.34,0,0,1,1.65.44,2.92,2.92,0,0,1,1,.87,4.08,4.08,0,0,1,.36.58s0,0,0,0C50.16,33.34,50.25,34,50.11,34Z"/><path class="cls-16" d="M41.79,45.46l-.06.46h0c-.29-.08-.64-.62-.64-.62l.7.16Z"/><path class="cls-3" d="M51.76,47.81c1.34.06,3.91,1.5,2.64,1.81S51.76,47.81,51.76,47.81Z"/><path class="cls-3" d="M51.06,43.94a19.77,19.77,0,0,0,.77,1.94c0,.28.78.47.82.12a3.6,3.6,0,0,0-.08-1.2C52.38,44,51.06,43.94,51.06,43.94Z"/><path class="cls-17" d="M56,48.28c.1.79.47,1.27.38,1.87s.34,1.22.29,1.43a.68.68,0,0,1-.25.36l-1.28-2.42Z"/><path class="cls-18" d="M68.6,74l-.66-1.12L64.79,67,58.44,55.3a.07.07,0,0,0,0-.1l-2.55-4.71a1.16,1.16,0,0,1-.21.63l2.33,4.31a.08.08,0,0,0,.1,0L64.49,67.2,67.64,73l.58,1.17a.21.21,0,0,0,.29.09A.22.22,0,0,0,68.6,74Z"/><path class="cls-19" d="M55.36,52.14c-.57-1.34-2.62-2.19-2.8-3.38a4.61,4.61,0,0,0-.47-1.29s0,0,0,0l0,0c-.22-.26-.46-.55-.69-.87l-.1-.14a28.63,28.63,0,0,1-2-3.3l-.2-.39h0l2.57-.78h0l.12,0h0a15.45,15.45,0,0,0,2,3.3l.17.19a7.41,7.41,0,0,0,.62.63l.08.08.07.06.11.12a.65.65,0,0,1,.17.2l0,0A11.15,11.15,0,0,1,56.18,48C56.55,48.63,55.76,53.06,55.36,52.14Z"/><path class="cls-20" d="M52.31,41.72l-.54.17h0l-.12,0h0l-2.57.78h0l-.36.11-.23-.67.14,0a43.56,43.56,0,0,1-2.74-9c-.23-1.65,2.45-3.39,3.63.33l2.43,7.62.14,0Z"/><path class="cls-19" d="M52,47.41a2.22,2.22,0,0,1,.41.75l.13-1Z"/><path class="cls-18" d="M52.46,48.34l-1-.66a.82.82,0,0,1-.48-.64c0-.4.4-.84,1.31-1.43a2.22,2.22,0,0,1,2.56-.06c.06.08.16.3-.14.54L54.56,46c.21-.17.13-.28.11-.31a2.12,2.12,0,0,0-2.33.1c-.83.54-1.23,1-1.23,1.28s.14.34.4.51c.44.27.86.56.86.56Z"/><path class="cls-13" d="M42.18,68.25v.4H40.34l-2.78-4.81.35-.2,1.17-.55a.08.08,0,0,1,.09.11l0,0a.75.75,0,0,0-.11.81c.17.31.84.49,1.34.58l.06.32.49,2.81a.14.14,0,0,0,0,.07,0,0,0,0,0,0,0c.11.15.44.07.44.07Z"/><path class="cls-13" d="M40.94,67.83a.14.14,0,0,1,0-.07L40.43,65Z"/><path class="cls-21" d="M40.37,64.63l.58.09Z"/><polygon class="cls-13" points="42.18 68.65 42.18 68.66 40.35 68.66 40.36 68.65 42.18 68.65"/></g><polygon class="cls-22" points="63.55 86.47 63.55 90.05 53.4 90.05 53.4 81.16 40.48 81.16 40.48 72.25 27.57 72.25 27.57 63.34 24.87 63.34 24.87 59.75 31.18 59.75 31.18 68.65 44.09 68.65 44.09 77.56 57.02 77.56 57.02 86.47 63.55 86.47"/></g></g></svg>