<svg xmlns="http://www.w3.org/2000/svg" xmlns:xlink="http://www.w3.org/1999/xlink" viewBox="0 0 100 100"><defs><style>.cls-1{fill:none;}.cls-2{isolation:isolate;}.cls-3{mix-blend-mode:multiply;}.cls-4{fill:#9893c0;}.cls-5{fill:#acbdf3;}.cls-6{fill:#f1f1f1;}.cls-7{fill:#f5a400;}.cls-8{fill:#322581;}.cls-9{fill:#fbf5f5;}.cls-10{fill:#149aff;}.cls-11{fill:#ffc65b;}.cls-12{fill:#fdc45b;}.cls-13{fill:#29343d;}.cls-14{mix-blend-mode:screen;}.cls-15{fill:#fff;}.cls-16{fill:#eba400;}.cls-17{fill:#40190e;}.cls-18{clip-path:url(#clip-path);}.cls-19{fill:#ed1616;}.cls-20{fill:#7b590c;}.cls-21{mix-blend-mode:overlay;}.cls-22{fill:#2a1e02;}.cls-23{fill:#1d1d1b;}.cls-24{fill:#2a1f05;}.cls-25{fill:#f2452e;}.cls-26{clip-path:url(#clip-path-2);}.cls-27{fill:#dd1d00;}.cls-28{fill:#0038c3;stroke:#0038c3;stroke-miterlimit:10;stroke-width:0.14px;}</style><clipPath id="clip-path"><path id="SVGID" class="cls-1" d="M61.54,29.71a1.94,1.94,0,1,1-3.88,0A8,8,0,0,0,59.6,30,8.12,8.12,0,0,0,61.54,29.71Z"/></clipPath><clipPath id="clip-path-2"><path class="cls-1" d="M48.1,60.58H40a4.7,4.7,0,0,1-4.68-5.16l1.47-15c.17-1.74,3.9-3.07,5.65-3.07h3.18c1.75,0,5.48,1.33,5.65,3.07l1.47,15A4.7,4.7,0,0,1,48.1,60.58Z"/></clipPath></defs><title>CH2-2</title><g class="cls-2"><g id="Layer_1" data-name="Layer 1"><g class="cls-3"><path class="cls-4" d="M23.62,71.65c.05.32.12.65.18,1a11.17,11.17,0,0,1,.39,2.79H78.26c-.15-3.76-.35-7.53-.51-11.3L23.39,65A58.86,58.86,0,0,0,23.62,71.65Z"/><path class="cls-4" d="M77.64,43.15,23.91,45v.76c0,1.37-.07,2.74-.12,4.12-.1,2.63-.09,5.26-.17,7.9,0,.37,0,.74-.05,1.11h54C77.38,53.67,77.35,48.4,77.64,43.15Z"/></g><path class="cls-5" d="M23.47,69.64H78q-.15-3-.28-6.09H23.42C23.37,65.58,23.36,67.62,23.47,69.64Z"/><path class="cls-6" d="M23.42,63.55h54.3l-.12-3H23.52C23.48,61.52,23.44,62.53,23.42,63.55Z"/><path class="cls-5" d="M77.71,42h-54a33.82,33.82,0,0,1,.18,3.78c0,1.37-.07,2.74-.12,4.12-.08,2.13-.09,4.25-.13,6.38H77.48C77.37,51.54,77.4,46.78,77.71,42Z"/><g id="albert"><rect class="cls-7" x="54.19" y="76.36" width="3.56" height="2.67"/><polygon class="cls-8" points="59.01 81.57 52.93 81.57 54.13 79.03 57.81 79.03 59.01 81.57"/><path class="cls-9" d="M57.81,79.73A1.86,1.86,0,0,0,56,77.89a1.84,1.84,0,0,0-1.84,1.84l-.3,1h4.34Z"/><path class="cls-10" d="M58.06,56.33H53.53a3,3,0,0,1,4.53,0Z"/><rect class="cls-10" x="53.45" y="75.25" width="5.03" height="1.11"/><polygon class="cls-11" points="65.77 76.62 65.76 79.03 62.2 79.03 62.21 76.77 62.2 76.77 62.2 76.36 65.76 76.36 65.76 76.62 65.77 76.62"/><polygon class="cls-8" points="67.02 81.57 60.95 81.57 62.15 79.03 65.82 79.03 67.02 81.57"/><path class="cls-9" d="M65.82,79.73A1.85,1.85,0,0,0,64,77.89a1.83,1.83,0,0,0-1.83,1.84l-.31,1h4.35Z"/><rect class="cls-10" x="61.47" y="75.25" width="5.03" height="1.11"/><path class="cls-10" d="M66.82,58.31l-.51,16.94H61.66l-.74-14.67H58.74l-.45,14.67H53.64L52.8,58.62c0-.1,0-.21,0-.31a3,3,0,0,1,.67-1.88.35.35,0,0,1,.08-.1h8a3,3,0,0,1,5.27,2Z"/><path class="cls-10" d="M53.53,56.33a.35.35,0,0,0-.08.1v-.1Z"/><path class="cls-12" d="M52.32,37.4a5.11,5.11,0,0,1,4.73.19,3,3,0,0,0,.39.14,21.94,21.94,0,0,1,6.56-1,5.23,5.23,0,0,1,3.22,1.18l0-.82L66.91,37l-5-2.22,0,0L60.23,34l-.75-.33-.68.3-1.72.77-.06,0-1.11.49a.05.05,0,0,1,0,0l-1,.44h0l-.36.16h0l-2.8,1.25v.3Z"/><path class="cls-12" d="M59.47,28.39A2.43,2.43,0,0,0,57,30.82v3.47c0,1.34,1.09,1.81,2.43,1.81s2.44-.47,2.44-1.81V30.82A2.43,2.43,0,0,0,59.47,28.39Z"/><path class="cls-8" d="M67.24,37.15l0,1.42v.06l-.06,1.58,0,0A6.07,6.07,0,0,0,65.86,39a2.4,2.4,0,0,0-1.31-.45c-1.53,0-.84,1.91-.17,3.73.15.42.71.55,1.2.87a1.62,1.62,0,0,1,.73.81,22.81,22.81,0,0,1,.48,2.73v0h0c0,.24.07.5.09.75l-.09,2.66v.17l0,.68-.2,5.73-.39,0-.26,0-4.77.46-1.69.16-.15-.62-1.14,0-4.68-.06h-.89L51.91,42.3a0,0,0,0,0,0,0l-.24-5.13h0l2.8-1.27h0l.36-.17h0l1-.44a.05.05,0,0,0,0,0l1.11-.5.08.06h0L58.5,36h0l.21.19.39,2.94h0l.66.13h0l.86-3.12.27-.32h0l.9-1.05,0-.06,5,2.26Z"/><path class="cls-8" d="M67,49.92v0c0-.91,0-1.77-.11-2.58,0-.25,0-.5-.09-.74h0v0a22.14,22.14,0,0,0-.48-2.69,1.64,1.64,0,0,0-.73-.8,14.68,14.68,0,0,0,.18,1.61l.86,5.3v0l0,.13.13,0,.22,0A.66.66,0,0,1,67,49.92Zm3.44-.59a.08.08,0,0,0,0,0c-.52-2.81-2-11.44-3.15-12.27a.44.44,0,0,0-.36-.07h0c-.42.12-.79.89-1,2a6,6,0,0,1,1.25,1.13l0,0a11.51,11.51,0,0,1,2,3.31.76.76,0,0,1,0,.11,23.37,23.37,0,0,1,1,5.8v0Z"/><path class="cls-8" d="M67.2,50.69l-.44.08-.14,0,0-.17v0L66.5,50l.12,0,.17,0,.2,0v0a.66.66,0,0,0,0,.14.75.75,0,0,0,0,.2A1.33,1.33,0,0,0,67.2,50.69Z"/><path class="cls-8" d="M70.1,50a.13.13,0,0,0,0-.06c0-.06,0-.13,0-.2s0-.24,0-.36v0l.34-.06.27,0,.12.78-.73.14A.68.68,0,0,0,70.1,50Z"/><path class="cls-12" d="M70.11,50a.13.13,0,0,1,0,.06.68.68,0,0,1,0,.14,1.52,1.52,0,0,1-1.19,1.28,1.55,1.55,0,0,1-1.69-.75,1.33,1.33,0,0,1-.17-.43.75.75,0,0,1,0-.2.66.66,0,0,1,0-.14v0c0-.91,0-1.77-.11-2.58,0-.25,0-.5-.09-.74h0v0a22.14,22.14,0,0,0-.48-2.69,1.64,1.64,0,0,0-.73-.8c-.49-.31-1-.44-1.2-.85-.67-1.8-1.36-3.68.17-3.68a2.4,2.4,0,0,1,1.31.45,6,6,0,0,1,1.25,1.13l0,0a11.51,11.51,0,0,1,2,3.31.76.76,0,0,1,0,.11,23.37,23.37,0,0,1,1,5.8v0c0,.12,0,.24,0,.36S70.11,49.9,70.11,50Z"/><path class="cls-12" d="M70.11,50V50h0A.13.13,0,0,0,70.11,50Z"/><path class="cls-13" d="M65.92,90.3a.39.39,0,0,1-.39.4.41.41,0,0,1-.4-.4L65.21,88l-.08-12.06L65,51.68a.14.14,0,0,1-.14-.14l-.07-11.07a.13.13,0,0,1,.13-.14h0l.58.09h0a.15.15,0,0,1,.12.14l.07,11a.15.15,0,0,1-.13.15l.16,24.21.08,12Z"/><polygon class="cls-12" points="47.37 35.79 42.11 35.47 41.97 38.56 46.77 39.08 47.37 35.79"/><circle class="cls-12" cx="42.12" cy="37.03" r="1.56"/><path class="cls-12" d="M42,35.48c-2.65.24-5.18.18-6.44,1.32-1,.93-1.05,4.36.36,3.28s4-1.37,6.33-1.49A24.57,24.57,0,0,1,42,35.48Z"/><path class="cls-8" d="M54.75,35.68c-2.33,1-9.4-.21-12.21-.4l-.37,3.84s9.62.43,9.76,3.18C52.1,45.76,56,35.13,54.75,35.68Z"/><g class="cls-14"><path class="cls-15" d="M55.91,35.22a5.54,5.54,0,0,1-2.83,1.09,15.47,15.47,0,0,1-3,.11,32.31,32.31,0,0,1-6-1c1,0,2,.1,3,.18s2,.15,3,.2a26.75,26.75,0,0,0,3,0A7.15,7.15,0,0,0,55.91,35.22Z"/></g><polygon class="cls-8" points="42.58 35.12 41.79 35.09 41.51 39.26 42.35 39.29 42.58 35.12"/><path class="cls-12" d="M67.91,23.54l-3,1.07,1.28,3.6.49-.17c-1.46,3.33-4,6-7.06,6s-5.59-2.62-7-5.94l.41.14,1.28-3.6-2.94-1.05a10.42,10.42,0,0,1,.87-6.27c3.64-6.58,11.22-6.58,14.86,0A10.44,10.44,0,0,1,67.91,23.54Z"/><path class="cls-16" d="M60.84,28a4,4,0,0,1-2.54,0A3,3,0,0,1,60.84,28Z"/><path class="cls-17" d="M61.54,29.71a1.94,1.94,0,1,1-3.88,0A8,8,0,0,0,59.6,30,8.12,8.12,0,0,0,61.54,29.71Z"/><g class="cls-18"><circle class="cls-19" cx="59.6" cy="33.18" r="2.35"/><rect class="cls-15" x="57.38" y="29.43" width="4.26" height="0.96"/></g><path class="cls-20" d="M50.87,23.4l.89.32c0-1.62,1-3.8,1.37-5.37.19-.86-.24-1.89,0-2.8,0,0-2.26,1.15-2.26,2.6Z"/><g class="cls-21"><path class="cls-15" d="M51.26,17.07a2.44,2.44,0,0,0-.15.77,5.51,5.51,0,0,0,.07.75,14.3,14.3,0,0,1,.09,1.6,11.4,11.4,0,0,1-.4,3.21,11.41,11.41,0,0,1-.41-3.21c0-.53,0-1.07.09-1.6l.05-.4a1.76,1.76,0,0,1,.12-.45A1.88,1.88,0,0,1,51.26,17.07Z"/></g><path class="cls-20" d="M68.28,23.4l-.89.32c0-1.72-1-3.54-1.37-4.72s.23-2.54,0-3.45c0,0,2.26,1.15,2.26,2.6Z"/><path class="cls-12" d="M54.25,24.61,53,28.21l-.41-.14h0L49.44,27a1.91,1.91,0,0,1-1.27-1.8,1.85,1.85,0,0,1,.11-.65,1.92,1.92,0,0,1,2.44-1.16l.59.21Z"/><path class="cls-12" d="M71,25.16A1.91,1.91,0,0,1,69.71,27l-3,1.08-.49.17-1.28-3.6,3-1.07.52-.19a1.92,1.92,0,0,1,2.44,1.16A1.85,1.85,0,0,1,71,25.16Z"/><path class="cls-22" d="M57,23.54H54.64a.76.76,0,0,0,0,1.51H57a.76.76,0,0,0,0-1.51Z"/><path class="cls-23" d="M56.87,26.46a8.48,8.48,0,0,1-2.12-.3,1.43,1.43,0,0,1,1.11-.2A1.41,1.41,0,0,1,56.87,26.46Z"/><path class="cls-22" d="M64.3,23.54H62a.76.76,0,1,0,0,1.51H64.3a.76.76,0,1,0,0-1.51Z"/><path class="cls-23" d="M62.08,26.46a8.49,8.49,0,0,0,2.13-.3A1.46,1.46,0,0,0,63.1,26,1.44,1.44,0,0,0,62.08,26.46Z"/><path class="cls-24" d="M51.75,17.22a.81.81,0,0,1-.22-.06,1.33,1.33,0,0,1-.05-.19Z"/><path class="cls-24" d="M69,14.16s-.24,4-2.91,4.74a14.82,14.82,0,0,1-8.41-.53s.09.64,1.69,1.12c-4.85.48-7.23-.63-7.79-2.33a.81.81,0,0,0,.22.06L51.48,17a1.33,1.33,0,0,0,.05.19c-.76-.23-3.08-1.11-3.57-3.18a12,12,0,0,1,2.69,1.87,2.32,2.32,0,0,1-.18-1.7,10.34,10.34,0,0,1,1,1.79,4.26,4.26,0,0,1,.32-1.14c2.34-5.53,6.48-4.41,6.48-4.41a3,3,0,0,0-1.9,1.92c3.4-2.41,5.92-2.32,8-.36a5.7,5.7,0,0,0-2.32.56C65.79,13,66.16,14.73,69,14.16Z"/><path class="cls-24" d="M51.75,17.22a.81.81,0,0,1-.22-.06,1.33,1.33,0,0,1-.05-.19Z"/><g id="bag"><path class="cls-25" d="M46.53,43.75a2.47,2.47,0,1,1-2.46-2.46A2.47,2.47,0,0,1,46.53,43.75Z"/><g class="cls-26"><path class="cls-27" d="M36.42,41.71l.41,4.21A3.39,3.39,0,0,0,40.21,49h7.72a3.39,3.39,0,0,0,3.38-3.06l.41-4.21a3.93,3.93,0,0,0-3.91-4.32H40.33A3.93,3.93,0,0,0,36.42,41.71Z"/></g><path class="cls-25" d="M46.53,43.75a2.47,2.47,0,1,1-2.46-2.46A2.47,2.47,0,0,1,46.53,43.75Z"/><path class="cls-28" d="M46.53,43.75a2.47,2.47,0,1,1-2.46-2.46A2.47,2.47,0,0,1,46.53,43.75Z"/><path class="cls-27" d="M54,53a4.49,4.49,0,0,0-1.76-2.81l-.87-8.8,0-.29c.22-2.22-3.72-4.15-6-4.15H42.66c-2.24,0-6.17,1.93-5.95,4.15l0,.29-.86,8.78A4.43,4.43,0,0,0,34.08,53c-.18,1.17-.56,3.28,1.26,3.28,0,0,0-.05,0-.08A4.71,4.71,0,0,0,40,60.58H48.1a4.7,4.7,0,0,0,4.68-4.31C54.59,56.26,54.21,54.16,54,53Zm-10-6.77a2.47,2.47,0,1,1,2.46-2.47A2.48,2.48,0,0,1,44.07,46.22Z"/></g><path class="cls-12" d="M37.61,39a2,2,0,0,0-.2,1.65A4.06,4.06,0,0,1,37,43c-.17.39-1.17.29-.93-.74s.15-1.31-.4-1.08-.4,1.38-.5,2.67S34.5,45,34,43.47c-1.22-3.5.28-5.89,1.59-6.67S37.61,39,37.61,39Z"/></g></g></g></svg>