<svg xmlns="http://www.w3.org/2000/svg" xmlns:xlink="http://www.w3.org/1999/xlink" viewBox="0 0 100 100"><defs><style>.cls-1{fill:none;}.cls-2{isolation:isolate;}.cls-3{fill:#ad2b01;}.cls-4{fill:#d45d00;}.cls-5{fill:#c5c1c2;}.cls-6{fill:#9f989a;}.cls-7{fill:#b65000;}.cls-8{fill:#813900;}.cls-9{fill:#812004;mix-blend-mode:multiply;}.cls-10,.cls-9{opacity:0.55;}.cls-10{fill:#141571;}.cls-11{fill:#fdc45b;}.cls-12{fill:#322581;}.cls-13{fill:#2d164f;}.cls-14{fill:#eba400;}.cls-15{fill:#40190e;}.cls-16{clip-path:url(#clip-path);}.cls-17{fill:#ed1616;}.cls-18{fill:#fff;}.cls-19{fill:#7b590c;}.cls-20{fill:#fac35c;}.cls-21{fill:#2a1e02;}.cls-22{fill:#1d1d1b;}.cls-23{fill:#2a1f05;}.cls-24{fill:#149aff;}.cls-25{fill:#f5a400;}.cls-26{fill:#fbf5f5;}.cls-27{fill:#ffc65b;}</style><clipPath id="clip-path"><path id="SVGID" class="cls-1" d="M52.63,32.15a1.83,1.83,0,0,1-3.65,0,7.41,7.41,0,0,0,1.82.23A7.54,7.54,0,0,0,52.63,32.15Z"/></clipPath></defs><title>CH2-3</title><g class="cls-2"><g id="Layer_1" data-name="Layer 1"><polygon class="cls-3" points="38.55 40.74 38.55 49.59 35.54 49.59 35.08 40.74 38.55 40.74"/><path class="cls-3" d="M68.08,22.61l-.94,18.13H63.68v8.85h3L66.1,60.84H57.67l0-1.81a2.81,2.81,0,0,0,0-.29,2.12,2.12,0,0,0,0-.44,15.93,15.93,0,0,0,2.63-4.8c.24-.61.45-1.21.63-1.74h-.16a1.12,1.12,0,0,0,.13-.45l.4-.08-.11-.73-.16,0c-.16-.86-.42-2.31-.73-3.89C59.68,43.38,58.8,39.54,58,39a.41.41,0,0,0-.17-.07L53,36.75l0,0a1.9,1.9,0,0,0,0-.35v-.76a9.69,9.69,0,0,0,4.47-5.11l2.87-1a1.54,1.54,0,0,0,.34-.17,1.8,1.8,0,0,0,.75-2.12,1.82,1.82,0,0,0-2.3-1.09l-.14.05V21.29a1.56,1.56,0,0,0-.24-.8,7.55,7.55,0,0,0,.87-2.95c-2.63.54-3-1.08-6.55-1.54a5.22,5.22,0,0,1,2.18-.53c-1.94-1.84-4.31-1.92-7.51.33A2.89,2.89,0,0,1,49.51,14s-3.9-1.05-6.1,4.14a4.47,4.47,0,0,0-.3,1.06,10.47,10.47,0,0,0-.89-1.67,2.19,2.19,0,0,0,.17,1.59,13.46,13.46,0,0,0-2.53-1.75,3.5,3.5,0,0,0,1.22,1.87l.54,6.85a1.78,1.78,0,0,0-1.46,1.18,1.8,1.8,0,0,0-.1.6,1.78,1.78,0,0,0,1.19,1.69l.64.23,2.29.81a10,10,0,0,0,4.22,5v.87a1.55,1.55,0,0,0,0,.31h0L43.46,39l-.08,0h0l0,0a6.25,6.25,0,0,0-1.19,2.78c-.79,2.82-1.51,7-1.84,8.74l-.16,0-.11.73.41.08a1.16,1.16,0,0,0,.12.45h-.15a30.32,30.32,0,0,0,1.8,4.38,9.17,9.17,0,0,0,1.68,2.39,1.48,1.48,0,0,0,0,.21c0,.11,0,.22,0,.33L44,60.84H36.12l-.58-11.25h3V40.74H35.08l-.93-18.13a8.42,8.42,0,0,1,6.41-8.67,8.74,8.74,0,0,1,2-.24H59.67a8.14,8.14,0,0,1,2.11.27l.1,0A8.42,8.42,0,0,1,68.08,22.61Z"/><path class="cls-3" d="M61.51,27.87a1.79,1.79,0,0,1-.85,1.52,1.54,1.54,0,0,1-.34.17l-2.87,1A9.69,9.69,0,0,1,53,35.69v.76a1.9,1.9,0,0,1,0,.35,0,0,0,0,1,0,0,1.43,1.43,0,0,1-1,1.12h0l-2,.15a1.63,1.63,0,0,1-1.55-1.3v0h0a1.55,1.55,0,0,1,0-.31v-.87a10,10,0,0,1-4.22-5l-2.29-.81-.64-.23a1.78,1.78,0,0,1-1.19-1.69,1.8,1.8,0,0,1,.1-.6,1.78,1.78,0,0,1,1.46-1.18l-.54-6.85a3.5,3.5,0,0,1-1.22-1.87,13.46,13.46,0,0,1,2.53,1.75,2.19,2.19,0,0,1-.17-1.59,10.47,10.47,0,0,1,.89,1.67,4.47,4.47,0,0,1,.3-1.06C45.61,13,49.51,14,49.51,14a2.89,2.89,0,0,0-1.79,1.8c3.2-2.25,5.57-2.17,7.51-.33a5.22,5.22,0,0,0-2.18.53c3.58.46,3.92,2.08,6.55,1.54a7.55,7.55,0,0,1-.87,2.95,1.56,1.56,0,0,1,.24.8v4.94l.14-.05a1.82,1.82,0,0,1,2.3,1.09A1.8,1.8,0,0,1,61.51,27.87Z"/><path class="cls-3" d="M43.37,51.23h0v0Z"/><path class="cls-3" d="M43.39,51.07l0,.12a.62.62,0,0,0,0-.13Z"/><path class="cls-3" d="M43.46,39l-.08,0h0Z"/><polygon class="cls-3" points="43.96 51.17 43.94 51.16 43.88 51.15 43.93 50.94 43.93 50.88 43.94 50.79 43.96 51.17"/><polygon class="cls-3" points="44.03 51.18 43.98 51.51 43.96 51.17 44.03 51.18"/><path class="cls-3" d="M55.72,52.93v0l0,.15-.21.59,0-.72Z"/><path class="cls-3" d="M58,51.06a.61.61,0,0,0,0,.14l0-.13Z"/><path class="cls-3" d="M60.79,51.76H61c-.18.53-.39,1.13-.63,1.74a15.93,15.93,0,0,1-2.63,4.8,2.12,2.12,0,0,1,0,.44,2.81,2.81,0,0,1,0,.29l0,1.81H44l-.09-1.77c0-.11,0-.22,0-.33a1.48,1.48,0,0,1,0-.21,9.17,9.17,0,0,1-1.68-2.39,30.32,30.32,0,0,1-1.8-4.38h.15a1.16,1.16,0,0,1-.12-.45L40,51.23l.11-.73.16,0c.33-1.75,1-5.92,1.84-8.74l.07,3.33v6.52l1.36.26.32.06.06-.34h0l0-.1.08,1.7a14.68,14.68,0,0,0,1.31,2.44,3,3,0,0,1,1.54-.34,1.78,1.78,0,0,1,1.7,1,2.66,2.66,0,0,1,.11.28c0,.06,0,.1,0,.14a.09.09,0,0,1,0,0v0l0,.05h4l.05-.05h-.06a.1.1,0,0,1,0,0,1.32,1.32,0,0,1,.05-.18l.07-.18a.21.21,0,0,1,0-.1,2.43,2.43,0,0,1,.15-.26,1.34,1.34,0,0,1,.11-.14l.13-.14a.58.58,0,0,1,.12-.1l0,0,0,0,.12-.08.06,0a1.33,1.33,0,0,1,.21-.09H54l.15,0a.41.41,0,0,1,.16,0,1.66,1.66,0,0,1,.32,0,3.16,3.16,0,0,1,1.39.26l.24-.38c.08-.12.15-.25.22-.37s.17-.29.25-.43.2-.38.29-.57.17-.38.25-.58h0v0l.05-.07a.42.42,0,0,0,0-.1,2.39,2.39,0,0,0,.15-.37l0-.71.24,0,2.53-.48V46.64c.31,1.58.57,3,.73,3.89l.16,0,.11.73-.4.08A1.12,1.12,0,0,1,60.79,51.76Z"/><polygon class="cls-3" points="67.14 40.74 66.76 48.15 66.68 49.59 63.68 49.59 63.68 40.74 67.14 40.74"/><path class="cls-4" d="M36.39,60.84v18a1.55,1.55,0,0,1-1.55,1.56H30.1a1.55,1.55,0,0,1-1.55-1.56V49.59h7l.58,11.25Z"/><path class="cls-4" d="M41.08,19.24a3.5,3.5,0,0,1-1.22-1.87A10.36,10.36,0,0,1,41,18Z"/><path class="cls-4" d="M41.89,29.79l-.64-.23a1.78,1.78,0,0,1-1.19-1.69,1.8,1.8,0,0,1,.1-.6,1.78,1.78,0,0,1,1.46-1.18l.07.87.19,2.45Z"/><path class="cls-4" d="M42.22,45.12v11a30.32,30.32,0,0,1-1.8-4.38h.15a1.16,1.16,0,0,1-.12-.45L40,51.23l.11-.73.16,0c.33-1.75,1-5.92,1.84-8.74Z"/><polygon class="cls-4" points="38.55 40.74 38.55 49.59 35.64 49.59 35.18 40.74 38.55 40.74"/><path class="cls-4" d="M60.79,51.76H61c-.18.53-.39,1.13-.63,1.74V46.64c.31,1.58.57,3,.73,3.89l.16,0,.11.73-.4.08A1.12,1.12,0,0,1,60.79,51.76Z"/><path class="cls-4" d="M61.51,27.87a1.79,1.79,0,0,1-.85,1.52l.23-2.87a1.75,1.75,0,0,1,.52.75A1.8,1.8,0,0,1,61.51,27.87Z"/><path class="cls-4" d="M68.17,22.61l-.93,18.13h-.1l.94-18.13A8.42,8.42,0,0,0,61.88,14v0A8.41,8.41,0,0,1,68.17,22.61Z"/><path class="cls-4" d="M73.63,49.59V78.83a1.56,1.56,0,0,1-1.56,1.56H67.34a1.56,1.56,0,0,1-1.56-1.56v-18h.32l.58-11.25Z"/><polygon class="cls-4" points="67.24 40.74 66.86 48.12 66.78 49.59 63.68 49.59 63.68 40.74 67.24 40.74"/><rect class="cls-5" x="26.44" y="40.74" width="12.11" height="8.85"/><polygon class="cls-6" points="36.09 89.05 36.09 90.98 28.85 90.98 28.85 89.05 30.41 89.05 30.41 80.39 34.53 80.39 34.53 89.05 36.09 89.05"/><path class="cls-7" d="M73.63,49.59H65.78a1.55,1.55,0,0,1,1-1.44l.1,0a1.51,1.51,0,0,1,.48-.08h4.73A1.55,1.55,0,0,1,73.63,49.59Z"/><rect class="cls-6" x="63.68" y="40.74" width="12.1" height="8.85"/><polygon class="cls-6" points="73.33 89.05 73.33 90.98 66.08 90.98 66.08 89.05 67.64 89.05 67.64 80.39 71.76 80.39 71.76 89.05 73.33 89.05"/><path class="cls-8" d="M68.46,62.82V71.4a1,1,0,0,1-1,1.07h-1.7v-1H36.39v1H34.7a1,1,0,0,1-1-1.07V62.82a.77.77,0,0,1,.76-.77h0a1.22,1.22,0,0,1,1.22-1.21h30.8a1.22,1.22,0,0,1,1.22,1.21A.77.77,0,0,1,68.46,62.82Z"/><path class="cls-9" d="M41.88,52.7l0,.29-.33-.06v0l.05.15c.12.37.25.71.39,1Zm13.6.27,0,.72.21-.59,0-.15v0ZM41.85,52l0,.23h0Z"/><polygon class="cls-10" points="44.69 57.82 50.08 57.7 50.58 58.62 57.15 57.39 57.11 57.04 45.34 56.86 44.69 57.82"/><path class="cls-11" d="M52.63,32.15a1.83,1.83,0,0,1-3.65,0,7.41,7.41,0,0,0,1.82.23A7.54,7.54,0,0,0,52.63,32.15Z"/><path class="cls-12" d="M43.46,39l-.08,0h0Z"/><polygon class="cls-12" points="44.03 51.18 43.98 51.51 43.96 51.17 44.03 51.18"/><path class="cls-12" d="M48.78,56.83l-1.42.05h-.21l-.92,0a1.54,1.54,0,0,1,.08.19l-1.13,0h-.94l-.18-3.87a14.68,14.68,0,0,0,1.31,2.44,3,3,0,0,1,1.54-.34,1.78,1.78,0,0,1,1.7,1,2.66,2.66,0,0,1,.11.28c0,.06,0,.1,0,.14a.09.09,0,0,1,0,0Z"/><path class="cls-11" d="M43.37,51.23h0v0Z"/><path class="cls-11" d="M48.78,56.83l-1.42.05h-.21l-.92,0a1.54,1.54,0,0,1,.08.19,1.3,1.3,0,0,1,.06.67A1.55,1.55,0,0,1,44.75,59a1.25,1.25,0,0,1-.42-.08,3.67,3.67,0,0,1-.43-.37,9.17,9.17,0,0,1-1.68-2.39,30.32,30.32,0,0,1-1.8-4.38h.15a1.16,1.16,0,0,1-.12-.45l1.77.33,1.36.26c.14.44.29.83.45,1.23h0a.14.14,0,0,0,0,.06,14.68,14.68,0,0,0,1.31,2.44,3,3,0,0,1,1.54-.34,1.78,1.78,0,0,1,1.7,1,2.66,2.66,0,0,1,.11.28c0,.06,0,.1,0,.14a.09.09,0,0,1,0,0Z"/><path class="cls-11" d="M40.55,50.57a.05.05,0,0,0,0,0h0v0Z"/><path class="cls-11" d="M43.39,51.07l0,.12a.62.62,0,0,0,0-.13Z"/><path class="cls-13" d="M44,51.17l0,.34.05-.33Z"/><path class="cls-13" d="M61.21,50.5l-.16,0c-.16-.86-.42-2.31-.73-3.89v4.78l.6-.11.4-.08ZM57.38,53a.42.42,0,0,1,0,.1.54.54,0,0,1-.05.11h0c-.08.2-.16.39-.25.58s-.19.38-.29.57-.16.29-.25.43-.14.25-.22.37l-.24.38a3.16,3.16,0,0,0-1.39-.26,1.66,1.66,0,0,0-.32,0,.41.41,0,0,0-.16,0l-.15,0h-.09a1.33,1.33,0,0,0-.21.09l-.06,0-.12.08,0,0,0,0a.58.58,0,0,0-.12.1l-.13.14a1.34,1.34,0,0,0-.11.14,2.43,2.43,0,0,0-.15.26.21.21,0,0,0,0,.1l-.07.18a1.32,1.32,0,0,0-.05.18.1.1,0,0,0,0,0h.06l-.05.05h-4l0-.05-1.42.05h-.21l-.92,0a1.54,1.54,0,0,1,.08.19l2.72,0,1.52,0,.15.57,1.64-.15h0L55,57.34l1.43-.14.71-.06h.1l.16,0,.15-4.46A2.39,2.39,0,0,1,57.38,53ZM55.48,53l0,.72.21-.59,0-.15v0ZM52,37.94a1.43,1.43,0,0,0,1-1.12Zm-3.52-1.16h0v0A1.63,1.63,0,0,0,50,38.09Zm-5.1,14.28a.62.62,0,0,1,0,.13l0-.12Zm-1.2-9.27c-.79,2.82-1.51,7-1.84,8.74l.21,0h0a.05.05,0,0,0,0,0h0l-.21,0a0,0,0,0,1,0,0l-.16,0-.11.73.41.08,1.77.33V45.12Z"/><path class="cls-12" d="M40.55,50.57a.05.05,0,0,0,0,0h0l-.21,0a0,0,0,0,1,0,0l.21,0Z"/><path class="cls-12" d="M43.37,51.23h0v0Z"/><path class="cls-12" d="M43.39,51.07l0,.12a.62.62,0,0,0,0-.13Z"/><path class="cls-12" d="M40.55,50.57a.05.05,0,0,0,0,0h0l-.21,0a0,0,0,0,1,0,0l.21,0Z"/><path class="cls-12" d="M43.37,51.23h0v0Z"/><path class="cls-12" d="M43.39,51.07l0,.12a.62.62,0,0,0,0-.13Z"/><path class="cls-11" d="M58,51.06a.61.61,0,0,0,0,.14l0-.13Z"/><path class="cls-11" d="M61,51.76c-.18.53-.39,1.13-.63,1.74a15.93,15.93,0,0,1-2.63,4.8,4.07,4.07,0,0,1-.66.6,1.32,1.32,0,0,1-.62.08A1.53,1.53,0,0,1,55,57.79a1.13,1.13,0,0,1,0-.45,1.42,1.42,0,0,1,.11-.33.42.42,0,0,1,0-.1l-.88,0-1.41-.05h-.06a.1.1,0,0,1,0,0,1.32,1.32,0,0,1,.05-.18l.07-.18a.21.21,0,0,1,0-.1,2.43,2.43,0,0,1,.15-.26,1.34,1.34,0,0,1,.11-.14l.13-.14a.58.58,0,0,1,.12-.1l0,0,0,0,.12-.08.06,0a1.33,1.33,0,0,1,.21-.09H54l.15,0a.41.41,0,0,1,.16,0,1.66,1.66,0,0,1,.32,0,3.16,3.16,0,0,1,1.39.26l.24-.38c.08-.12.15-.25.22-.37s.17-.29.25-.43.2-.38.29-.57.17-.38.25-.58h0v0l.05-.07a.42.42,0,0,0,0-.1,2.39,2.39,0,0,0,.15-.37c.09-.24.18-.49.26-.75l2.53-.48.6-.11a1.12,1.12,0,0,1-.13.45Z"/><path class="cls-12" d="M58,51.06a.61.61,0,0,0,0,.14l0-.13Z"/><path class="cls-12" d="M58,51.06a.61.61,0,0,0,0,.14l0-.13Z"/><path class="cls-11" d="M52.63,32.15a1.83,1.83,0,0,1-3.65,0,7.41,7.41,0,0,0,1.82.23A7.54,7.54,0,0,0,52.63,32.15Z"/><path class="cls-11" d="M48.24,29.1a8.46,8.46,0,0,1-2-.28,1.66,1.66,0,0,1,2,.28Z"/><path class="cls-11" d="M52,30.56a3.77,3.77,0,0,1-2.39,0A2.84,2.84,0,0,1,52,30.56Z"/><path class="cls-11" d="M55.14,28.82a8.46,8.46,0,0,1-2,.28,1.66,1.66,0,0,1,2-.28Z"/><path class="cls-11" d="M55.94,27.06a.76.76,0,0,1,0,.27.75.75,0,0,1-.07.12h0a.72.72,0,0,1-.59.31H53.05a.71.71,0,0,1,0-1.42h2.18A.71.71,0,0,1,55.94,27.06Z"/><path class="cls-11" d="M49,27.06a.71.71,0,0,1-.71.71H46.14a.71.71,0,0,1-.45-.16.67.67,0,0,1-.24-.37,1.1,1.1,0,0,1,0-.18.71.71,0,0,1,.71-.71h2.18A.71.71,0,0,1,49,27.06Z"/><path class="cls-11" d="M58.62,26.35l-.49.17c0-1.61-.89-3.32-1.29-4.43a.24.24,0,0,1,0-.08A14.07,14.07,0,0,1,49,21.5s.08.6,1.59,1.05c-2.81.28-4.74,0-5.93-.64-.38,1.42-1.17,3.23-1.18,4.61L43,26.37A10.36,10.36,0,0,1,43.57,21a3.94,3.94,0,0,1,.26-.55,11.16,11.16,0,0,1,.84-1.3c3.31-4.41,8.86-4.45,12.21-.11h0a10.27,10.27,0,0,1,.92,1.4,5.87,5.87,0,0,1,.35.76A10.44,10.44,0,0,1,58.62,26.35Z"/><path class="cls-14" d="M52,30.56a3.77,3.77,0,0,1-2.39,0A2.84,2.84,0,0,1,52,30.56Z"/><path class="cls-15" d="M52.63,32.15a1.83,1.83,0,0,1-3.65,0,7.41,7.41,0,0,0,1.82.23A7.54,7.54,0,0,0,52.63,32.15Z"/><g class="cls-16"><circle class="cls-17" cx="50.8" cy="35.41" r="2.21"/><rect class="cls-18" x="48.72" y="31.89" width="4" height="0.9"/></g><path class="cls-19" d="M44.72,21.48a3.89,3.89,0,0,1-.11.43c-.38,1.42-1.17,3.23-1.18,4.61L43,26.37l-.41-.14V21.29a1.69,1.69,0,0,1,.38-1,5.61,5.61,0,0,1,1.75-1.43,1.26,1.26,0,0,0,0,.33A22.43,22.43,0,0,1,44.72,21.48Z"/><path class="cls-19" d="M59,21.29v4.94l-.35.12-.49.17c0-1.61-.89-3.32-1.29-4.43a.24.24,0,0,1,0-.08c-.27-.88.15-2.09.06-2.93h0a1.7,1.7,0,0,0,0-.22,5.25,5.25,0,0,1,1.89,1.64A1.56,1.56,0,0,1,59,21.29Z"/><path class="cls-20" d="M45.78,27.36l-.09.25a.67.67,0,0,1-.24-.37Z"/><path class="cls-14" d="M43.57,28.89c-.09,0-.09-.08-.14-.12s0-.1,0-.18.09.08.14.12S43.62,28.82,43.57,28.89Z"/><path class="cls-14" d="M40.92,26.79a2.53,2.53,0,0,1,1.56.48,2.66,2.66,0,0,1,1,1.31,3.47,3.47,0,0,0-1.08-1.17A3.29,3.29,0,0,0,40.92,26.79Z"/><path class="cls-20" d="M55.89,27.33a.75.75,0,0,1-.07.12l0-.09Z"/><path class="cls-11" d="M61.41,27.27a1.82,1.82,0,0,0-2.3-1.09l-.14.05-.35.12-.49.17c0-1.61-.89-3.32-1.29-4.43a.24.24,0,0,1,0-.08A14.07,14.07,0,0,1,49,21.5s.08.6,1.59,1.05c-2.81.28-4.74,0-5.93-.64-.38,1.42-1.17,3.23-1.18,4.61L43,26.37l-.41-.14-.13-.05a1.75,1.75,0,0,0-.84-.09,1.78,1.78,0,0,0-1.46,1.18,1.8,1.8,0,0,0-.1.6,1.78,1.78,0,0,0,1.19,1.69l.64.23,2.29.81a10,10,0,0,0,4.22,5v.87a1.55,1.55,0,0,0,0,.31h0v0A1.63,1.63,0,0,0,50,38.09l2-.15h0a1.43,1.43,0,0,0,1-1.12,0,0,0,0,0,0,0,1.9,1.9,0,0,0,0-.35v-.76a9.69,9.69,0,0,0,4.47-5.11l2.87-1a1.54,1.54,0,0,0,.34-.17,1.8,1.8,0,0,0,.75-2.12ZM52,30.56a3.77,3.77,0,0,1-2.39,0A2.84,2.84,0,0,1,52,30.56Zm-5.73-1.74a1.66,1.66,0,0,1,2,.28A8.46,8.46,0,0,1,46.24,28.82Zm2.08-1.05H46.14a.71.71,0,0,1-.45-.16.67.67,0,0,1-.24-.37,1.1,1.1,0,0,1,0-.18.71.71,0,0,1,.71-.71h2.18a.71.71,0,1,1,0,1.42ZM50.8,34A1.81,1.81,0,0,1,49,32.15a7.41,7.41,0,0,0,1.82.23,7.54,7.54,0,0,0,1.83-.23A1.82,1.82,0,0,1,50.8,34Zm2.34-4.87a1.66,1.66,0,0,1,2-.28A8.46,8.46,0,0,1,53.14,29.1Zm2.75-1.77a.75.75,0,0,1-.07.12h0a.72.72,0,0,1-.59.31H53.05a.71.71,0,0,1,0-1.42h2.18a.71.71,0,0,1,.71.71A.76.76,0,0,1,55.89,27.33Z"/><path class="cls-21" d="M49,27.06a.71.71,0,0,1-.71.71H46.14a.71.71,0,0,1-.45-.16.67.67,0,0,1-.24-.37,1.1,1.1,0,0,1,0-.18.71.71,0,0,1,.71-.71h2.18A.71.71,0,0,1,49,27.06Z"/><path class="cls-22" d="M48.24,29.1a8.46,8.46,0,0,1-2-.28,1.66,1.66,0,0,1,2,.28Z"/><path class="cls-21" d="M55.94,27.06a.76.76,0,0,1,0,.27.75.75,0,0,1-.07.12h0a.72.72,0,0,1-.59.31H53.05a.71.71,0,0,1,0-1.42h2.18A.71.71,0,0,1,55.94,27.06Z"/><path class="cls-22" d="M55.14,28.82a8.46,8.46,0,0,1-2,.28,1.66,1.66,0,0,1,2-.28Z"/><path class="cls-23" d="M59.6,17.54a7.55,7.55,0,0,1-.87,2.95,3.5,3.5,0,0,1-.58.75,2.76,2.76,0,0,1-1.28.76h0A14.07,14.07,0,0,1,49,21.5s.08.6,1.59,1.05c-2.81.28-4.74,0-5.93-.64a3.06,3.06,0,0,1-1-.88,2.26,2.26,0,0,1-.35-.67L43,20.28a6.49,6.49,0,0,1-1.89-1,3.5,3.5,0,0,1-1.22-1.87,13.46,13.46,0,0,1,2.53,1.75,2.19,2.19,0,0,1-.17-1.59,10.47,10.47,0,0,1,.89,1.67,4.47,4.47,0,0,1,.3-1.06C45.61,13,49.51,14,49.51,14a2.89,2.89,0,0,0-1.79,1.8c3.2-2.25,5.57-2.17,7.51-.33a5.22,5.22,0,0,0-2.18.53C56.63,16.46,57,18.08,59.6,17.54Z"/><rect class="cls-24" x="44.75" y="56.88" width="11.66" height="3.98"/><rect class="cls-10" x="44.75" y="56.88" width="11.66" height="3.98"/><polygon class="cls-25" points="48.54 75.61 48.54 78.1 45.2 78.1 45.21 75.99 45.2 75.99 45.2 75.61 48.54 75.61"/><polygon class="cls-12" points="49.71 80.47 44.03 80.47 45.15 78.1 48.59 78.1 49.71 80.47"/><path class="cls-26" d="M48.59,78.75A1.73,1.73,0,0,0,46.87,77a1.71,1.71,0,0,0-1.72,1.71l-.28.91h4.06Z"/><path class="cls-24" d="M49.53,58.74c0,.1,0,.19,0,.29l-.06,1.81v0l-.32,10.61-.1,3.1h.18v1h-4.7v-1h.18l-.16-3.1L44,60.84l-.09-1.77c0-.11,0-.22,0-.33a1.48,1.48,0,0,1,0-.21,2.84,2.84,0,0,1,.53-1.45,2.62,2.62,0,0,1,.83-.76,2.81,2.81,0,0,1,2.89,0,2.61,2.61,0,0,1,.63.51l0,.05,0,0,.17.24a2.63,2.63,0,0,1,.31.57A2.89,2.89,0,0,1,49.53,58.74Z"/><rect class="cls-27" x="53.41" y="75.61" width="3.33" height="2.49"/><polygon class="cls-12" points="57.92 80.47 52.23 80.47 53.36 78.1 56.8 78.1 57.92 80.47"/><path class="cls-26" d="M57.14,79.66H53.07l.29-.91A1.71,1.71,0,0,1,55.08,77a1.73,1.73,0,0,1,1.72,1.71Z"/><path class="cls-24" d="M57.73,58.74a2.81,2.81,0,0,1,0,.29l0,1.81-.33,10.63-.09,3.1h.18v1H52.72v-1h.18l-.16-3.1-.53-10.61v0l-.09-1.77c0-.11,0-.22,0-.33a2.73,2.73,0,0,1,0-.41,3,3,0,0,1,.21-.74h0a2.61,2.61,0,0,1,.37-.62l.07-.09.05-.05a2.72,2.72,0,0,1,.62-.5,2.75,2.75,0,0,1,1.45-.41,2.79,2.79,0,0,1,1.46.41,2.71,2.71,0,0,1,.85.8,2.61,2.61,0,0,1,.47,1.17A2.12,2.12,0,0,1,57.73,58.74Z"/><path class="cls-13" d="M58,39a.41.41,0,0,0-.17-.07L53,36.75l0,0a0,0,0,0,1,0,0,1.43,1.43,0,0,1-1,1.12h0l-2,.15a1.63,1.63,0,0,1-1.55-1.3v0h0L43.46,39l-.08,0,0,0a6.25,6.25,0,0,0-1.19,2.78l.07,3.33v6.52l1.36.26.32.06.06-.34h0l0-.1,0-.34h-.08l0-.21v-.15l0,.38H44l-.05.33.08,1.7a14.68,14.68,0,0,0,1.31,2.44,3,3,0,0,1,1.54-.34,1.78,1.78,0,0,1,1.7,1,2.66,2.66,0,0,1,.11.28c0,.06,0,.1,0,.14a.09.09,0,0,1,0,0v0l0,.05h4l.05-.05h-.06a.1.1,0,0,1,0,0,1.32,1.32,0,0,1,.05-.18l.07-.18a.21.21,0,0,1,0-.1,2.43,2.43,0,0,1,.15-.26,1.34,1.34,0,0,1,.11-.14l.13-.14a.58.58,0,0,1,.12-.1l0,0,0,0,.12-.08.06,0a1.33,1.33,0,0,1,.21-.09H54l.15,0a.41.41,0,0,1,.16,0,1.66,1.66,0,0,1,.32,0,3.16,3.16,0,0,1,1.39.26l.24-.38c.08-.12.15-.25.22-.37s.17-.29.25-.43.2-.38.29-.57.17-.38.25-.58h0v0l.05-.07a.42.42,0,0,0,0-.1,2.39,2.39,0,0,0,.15-.37l0-.71.24,0,2.53-.48V46.64C59.68,43.38,58.8,39.54,58,39ZM43.35,51.22v0Zm0,0a.62.62,0,0,0,0-.13h0ZM55.72,53l0,.15-.21.59,0-.72.24,0ZM58,51.2l0-.13H58A.61.61,0,0,0,58,51.2Z"/></g></g></svg>