<svg id="Layer_1" data-name="Layer 1" xmlns="http://www.w3.org/2000/svg" viewBox="0 0 100 100"><defs><style>.cls-1{fill:#5c0759;}.cls-2{fill:#6760db;}.cls-3{fill:#8e65b4;}.cls-4{fill:#b36a8d;}.cls-5{fill:#ff7138;}.cls-6{fill:#ffd794;}.cls-7{fill:#6c56b3;}.cls-8{fill:#fff;}</style></defs><title>CH2-4</title><g id="thoughs_bubble" data-name="thoughs bubble"><path class="cls-1" d="M48.25,17.3C61.38,18.56,65.14,13.7,74,13.7s12.17,3.14,9.51,18.46C79.37,56,91.33,86.34,57.76,86.34,37.28,86.34,14,70.2,14,56.16c0-8.7,3.24-7.46,2.23-18.79C15.35,27.34,14,14,48.25,17.3Z"/><path class="cls-1" d="M48.25,17.3C61.38,18.56,65.14,13.7,74,13.7s12.17,3.14,9.51,18.46C79.37,56,91.33,86.34,57.76,86.34,37.28,86.34,14,70.2,14,56.16c0-8.7,3.24-7.46,2.23-18.79C15.35,27.34,14,14,48.25,17.3Z"/></g><path class="cls-2" d="M34,51.35a23.93,23.93,0,0,0-7.91,6.2,14.87,14.87,0,0,0-2.53,4.33,9.61,9.61,0,0,0-.5,4.92,9.34,9.34,0,0,0,2.07,4.47,10,10,0,0,0,4,2.81,21.84,21.84,0,0,0,9.91.89,55.74,55.74,0,0,0,9.88-2c3.22-1,6.41-2.14,9.65-3.14,6.45-2,13.22-3.62,20.11-3.31l0,1.07c-6.7-.38-13.37,1.07-19.82,3-3.24,1-6.42,2.1-9.7,3a56.05,56.05,0,0,1-10,2A22.48,22.48,0,0,1,29,74.49a10.24,10.24,0,0,1-4.16-3,9.7,9.7,0,0,1-2.1-4.66,9.88,9.88,0,0,1,.58-5,15.17,15.17,0,0,1,2.62-4.37,24.22,24.22,0,0,1,8-6.13Z"/><path class="cls-3" d="M34.14,51.58a22.88,22.88,0,0,0-7.62,6,12.4,12.4,0,0,0-2.33,4.22,7.72,7.72,0,0,0,0,4.73,9.13,9.13,0,0,0,2.65,3.93,10.68,10.68,0,0,0,4.21,2.22A23.91,23.91,0,0,0,40.7,73a58.35,58.35,0,0,0,9.47-2.21c3.08-1,6.14-2.16,9.26-3.15a62.38,62.38,0,0,1,19.31-3.59v1.08a61.26,61.26,0,0,0-19.05,3.29c-3.12.95-6.17,2.07-9.31,3a58.1,58.1,0,0,1-9.6,2.11,24.37,24.37,0,0,1-9.8-.5,11.16,11.16,0,0,1-4.34-2.36,9.4,9.4,0,0,1-2.69-4.12,7.93,7.93,0,0,1,0-4.89,12.43,12.43,0,0,1,2.42-4.26,22.84,22.84,0,0,1,7.74-5.91Z"/><path class="cls-4" d="M34.29,51.8A21.66,21.66,0,0,0,27,57.55a10.25,10.25,0,0,0-2.08,4.12,6.4,6.4,0,0,0,.64,4.46,9.42,9.42,0,0,0,3.14,3.32A12.61,12.61,0,0,0,33,71.14,26.26,26.26,0,0,0,42.22,71a57.8,57.8,0,0,0,9.05-2.33c2.95-1,5.88-2.19,8.87-3.17a65.55,65.55,0,0,1,18.5-3.82l0,1.07a64.92,64.92,0,0,0-18.29,3.53c-3,.94-5.9,2.07-8.9,3a59.09,59.09,0,0,1-9.18,2.24,26.56,26.56,0,0,1-9.45,0,12.83,12.83,0,0,1-4.4-1.8,9.87,9.87,0,0,1-3.21-3.49,6.66,6.66,0,0,1-.6-4.65,10.59,10.59,0,0,1,2.17-4.18,21.76,21.76,0,0,1,7.44-5.68Z"/><path class="cls-5" d="M34.44,52a20.47,20.47,0,0,0-7.06,5.58,8,8,0,0,0-1.75,4A5.45,5.45,0,0,0,27,65.73a9.8,9.8,0,0,0,1.64,1.51,5.82,5.82,0,0,0,.94.61,9.27,9.27,0,0,0,1,.53,13.2,13.2,0,0,0,2.11.74l1.08.28,1.12.15a27.8,27.8,0,0,0,9-.53,62.48,62.48,0,0,0,8.69-2.5c2.83-1,5.63-2.25,8.51-3.23A68.33,68.33,0,0,1,78.9,59.38L79,60.46a66.85,66.85,0,0,0-17.65,3.61c-2.87.93-5.66,2.09-8.54,3.11A64.75,64.75,0,0,1,44,69.58a28.5,28.5,0,0,1-9.12.41l-1.14-.18-1.11-.29a13.64,13.64,0,0,1-2.16-.8,8.41,8.41,0,0,1-1-.57,6.61,6.61,0,0,1-1-.63,10.41,10.41,0,0,1-1.66-1.59,5.73,5.73,0,0,1-1.43-4.29,8.24,8.24,0,0,1,1.86-4.14A20.59,20.59,0,0,1,34.41,52Z"/><path class="cls-6" d="M34.58,52.26a19,19,0,0,0-6.8,5.46,6,6,0,0,0-1.33,4,5.35,5.35,0,0,0,2.3,3.5,14.68,14.68,0,0,0,8.17,2.66,30.34,30.34,0,0,0,8.68-1A66.17,66.17,0,0,0,54,64.25c2.73-1.06,5.42-2.31,8.22-3.28a70.21,70.21,0,0,1,17.31-3.91l.09,1.07a69,69,0,0,0-17.13,3.62c-2.78.91-5.46,2.11-8.24,3.15a65.84,65.84,0,0,1-8.48,2.59,31.29,31.29,0,0,1-8.84.86,15,15,0,0,1-8.33-2.86,5.6,5.6,0,0,1-2.35-3.72,6.28,6.28,0,0,1,1.42-4.16,19.17,19.17,0,0,1,6.93-5.4Z"/><path class="cls-6" d="M71.29,44.92c1.71-.05,3.41-.15,5.1-.34a22.6,22.6,0,0,0,5-1A3.9,3.9,0,0,0,82.44,43a.83.83,0,0,0,.37-1A4.2,4.2,0,0,0,81,40.45a31,31,0,0,0-4.7-1.91,189,189,0,0,0-19.81-4.9q-5-1-10-1.93c-3.35-.6-6.69-1.26-10.06-1.67A177.22,177.22,0,0,0,16,28.79V27.71a176.89,176.89,0,0,1,20.44,1.51c3.39.45,6.74,1.15,10.08,1.79s6.69,1.33,10,2.05a193.12,193.12,0,0,1,19.8,5.14,32.66,32.66,0,0,1,4.73,2,8.86,8.86,0,0,1,1.09.71,2.6,2.6,0,0,1,.86,1,1.09,1.09,0,0,1-.45,1.25,4.31,4.31,0,0,1-1.16.61,22.91,22.91,0,0,1-5,1c-1.69.17-3.4.25-5.1.28Z"/><path class="cls-5" d="M71.25,45.15l5-.24a43.16,43.16,0,0,0,5-.46,3.42,3.42,0,0,0,1.13-.37c.36-.21-.12-.54-.44-.72a14.22,14.22,0,0,0-2.29-.92c-1.57-.52-3.17-1-4.78-1.38C68.37,39.4,61.87,38,55.37,36.62l-9.75-2c-3.26-.65-6.51-1.38-9.77-1.88a149.21,149.21,0,0,0-19.8-1.53V30.11A149.25,149.25,0,0,1,36,31.91c3.29.55,6.53,1.32,9.78,2l9.74,2.15c6.48,1.47,13,3,19.38,4.69,1.61.44,3.21.9,4.78,1.44a15.17,15.17,0,0,1,2.32,1,2.41,2.41,0,0,1,.52.4.49.49,0,0,1,.14.35.44.44,0,0,1-.21.32,3.48,3.48,0,0,1-1.22.39,43.78,43.78,0,0,1-5,.4l-5,.17Z"/><path class="cls-4" d="M71.2,45.35a88.63,88.63,0,0,1,9.78,0l.61,0h.47a.08.08,0,0,0,0,.09c0,.1,0,0,0,0-.36-.12-.78-.19-1.17-.28l-2.39-.49-4.8-1q-9.57-2-19.13-4.08L45,37.54c-3.19-.7-6.35-1.5-9.54-2.08a123.35,123.35,0,0,0-19.36-1.87V32.51a125,125,0,0,1,19.5,2.14c3.22.64,6.37,1.47,9.54,2.21l9.52,2.26c6.34,1.48,12.7,2.94,19.07,4.33l4.78,1,2.39.52c.4.1.79.17,1.2.31,0,0,0,0,.12.11a.13.13,0,0,1-.06.12h-.57l-.61,0a88.44,88.44,0,0,0-9.77-.12Z"/><path class="cls-3" d="M71.15,45.55a34.27,34.27,0,0,1,4.86,0,21.69,21.69,0,0,1,4.79.79,4.45,4.45,0,0,1,.57.22,2,2,0,0,1,.27.17c0,.05.09.08.1.16a.17.17,0,0,1-.09.18,2.9,2.9,0,0,1-1.22.2c-.81,0-1.62,0-2.43-.12-1.61-.15-3.22-.37-4.82-.62-6.4-1-12.73-2.38-19-3.83C51,42,47.85,41.2,44.71,40.42s-6.27-1.64-9.41-2.35a106.17,106.17,0,0,0-19.19-2.35v-.54a106.78,106.78,0,0,1,19.27,2.48c3.16.74,6.27,1.63,9.41,2.41s6.27,1.58,9.41,2.33c6.3,1.49,12.62,2.9,19,4,1.59.26,3.19.49,4.8.64.81.08,1.61.14,2.42.14A3.05,3.05,0,0,0,81.58,47c.14-.07-.1-.23-.26-.3a3.83,3.83,0,0,0-.56-.22A21.76,21.76,0,0,0,76,45.62a34,34,0,0,0-4.84,0Z"/><path class="cls-7" d="M71.11,45.75a21.37,21.37,0,0,1,4.86.09,11.93,11.93,0,0,1,4.63,1.45,1.47,1.47,0,0,1,.77,1c0,.53-.53.75-.89.89a8.77,8.77,0,0,1-2.42.41,36,36,0,0,1-4.87-.14A148.06,148.06,0,0,1,54,46.06c-6.31-1.46-12.59-3.18-18.81-4.9a93,93,0,0,0-19.1-2.78l0-1.07a93.57,93.57,0,0,1,19.28,3c6.23,1.81,12.44,3.61,18.73,5.15a147.56,147.56,0,0,0,19.06,3.63,33.88,33.88,0,0,0,4.83.2A8.87,8.87,0,0,0,80.41,49c.35-.13.76-.34.76-.69s-.36-.63-.67-.85A11.8,11.8,0,0,0,76,46a21.77,21.77,0,0,0-4.84-.14Z"/><path class="cls-8" d="M29.84,19.76s0,0,0,0Z"/><path class="cls-8" d="M29.84,19.67Z"/><path class="cls-8" d="M29.64,41.43a5.3,5.3,0,0,0-.06-1.06,5.5,5.5,0,0,0-.23-1A5.59,5.59,0,0,0,27,36.28a4.92,4.92,0,0,0-.87-.41,5,5,0,0,0-.92-.2,2,2,0,0,0-.24,0c.16-1,.34-2,.53-3a21.93,21.93,0,0,0,3.26-2.26,9.55,9.55,0,0,0,1.87-2.11A9.11,9.11,0,0,0,31.24,27c.09-.22.16-.43.24-.66l.1-.3.09-.34a10.55,10.55,0,0,0,.41-2.69,7.58,7.58,0,0,0-.4-2.76,3.76,3.76,0,0,0-.31-.68,2.79,2.79,0,0,0-.51-.66,2,2,0,0,0-.39-.28l-.26-.1-.09,0h0l-.18,0a1.29,1.29,0,0,0-.57.11,1.64,1.64,0,0,0-.41.24A3.93,3.93,0,0,0,28,20a11.6,11.6,0,0,0-.57,1.18A33,33,0,0,0,26,26c-.35,1.39-.64,2.77-.91,4.14-.61.38-1.24.75-1.86,1.11l-1.07.63c-.38.23-.75.47-1.1.73a12.66,12.66,0,0,0-2,1.75,10.41,10.41,0,0,0-1.54,2.13,8.89,8.89,0,0,0-.92,2.44c-.05.21-.07.43-.1.64a4.73,4.73,0,0,0,0,.65,5.86,5.86,0,0,0,1.08,3.59l.18.25.2.23a6.09,6.09,0,0,0,.44.44l.21.18.12.1.12.09.23.18.24.16a7.58,7.58,0,0,0,2.07,1,7.49,7.49,0,0,0,1.54.3l-.12,1.06c-.07.62-.17,1.23-.27,1.82a16.12,16.12,0,0,1-.39,1.69,7.91,7.91,0,0,1-.28.78l-.08.18-.1.19a2.8,2.8,0,0,1-.2.32,3.11,3.11,0,0,1-1.08,1,2.69,2.69,0,0,1-1.3.32h-.33l-.3-.06a2.58,2.58,0,0,1-.57-.21,2.33,2.33,0,0,1-.48-.31,2.49,2.49,0,0,1-.34-.4,1.7,1.7,0,0,1-.29-.88,1.84,1.84,0,0,1,.05-.41,1.05,1.05,0,0,1,.05-.19l0-.1s0,0,0,0v-.05l0-.06a2.09,2.09,0,0,1,.16-.29,1.29,1.29,0,0,1,.2-.25,1,1,0,0,1,.26-.2,1.57,1.57,0,0,0,.83.54,1.59,1.59,0,0,0,2-1.13,1.64,1.64,0,0,0-1.1-2,2.44,2.44,0,0,0-2,.27,3.59,3.59,0,0,0-1.43,1.66,3.24,3.24,0,0,0-.19.55,5,5,0,0,0-.1.62,3.87,3.87,0,0,0,.17,1.27,3.12,3.12,0,0,0,.72,1.19A3.44,3.44,0,0,0,17,54a4,4,0,0,0,.65.33,4.27,4.27,0,0,0,.72.21l.38,0h.39a3,3,0,0,0,.78-.13,3.57,3.57,0,0,0,.75-.33A3.62,3.62,0,0,0,21.83,53c.08-.12.15-.26.22-.39l.09-.18.08-.21a7.92,7.92,0,0,0,.28-.82,27.71,27.71,0,0,0,.67-3.58c0-.36.09-.72.14-1.09a7,7,0,0,0,2.46-.34,6.07,6.07,0,0,0,1.94-1.08,4.55,4.55,0,0,0,.78-.8,3.72,3.72,0,0,0,.33-.45l.15-.26c.05-.08.1-.18.13-.24l.11-.21.11-.29a4.68,4.68,0,0,0,.17-.53A5.11,5.11,0,0,0,29.64,41.43Zm.2-21.67h0S29.84,19.75,29.84,19.76Zm0-.09ZM26.89,26.2c.22-.77.44-1.55.7-2.31a19,19,0,0,1,.87-2.25,8.46,8.46,0,0,1,.56-1,2.75,2.75,0,0,1,.65-.78.35.35,0,0,1,.15-.07h0s0,0,0,0l0,0a.47.47,0,0,1,.11.1,2,2,0,0,1,.39.82,6.11,6.11,0,0,1,0,2.22,12.65,12.65,0,0,1-.59,2.23l-.1.26-.12.3c-.06.15-.14.34-.22.5a7,7,0,0,1-.56.92,7.32,7.32,0,0,1-1.56,1.53c-.36.28-.75.54-1.14.8C26.35,28.38,26.6,27.29,26.89,26.2ZM21.57,45.73a5.68,5.68,0,0,1-1-.39,6.21,6.21,0,0,1-.89-.54l-.21-.16-.21-.17-.1-.09-.09-.08-.2-.2a4.57,4.57,0,0,1-.62-.81,3.67,3.67,0,0,1-.42-.95,4.2,4.2,0,0,1-.19-1,5.22,5.22,0,0,1,.05-1,4.64,4.64,0,0,1,.11-.51c.05-.17.09-.34.15-.51a8.77,8.77,0,0,1,2.51-3.49,15.13,15.13,0,0,1,1.81-1.34c.32-.2.65-.39,1-.56l1.08-.58.14-.08c-.14.82-.27,1.63-.39,2.44h-.08l-.21,0c-.13,0-.27,0-.4.09A4.86,4.86,0,0,0,21,37.29a4.46,4.46,0,0,0-1,2,3.31,3.31,0,0,0,.07,1.63,1.82,1.82,0,0,0,.51.83l.1.1.09.06.06,0,0-.07s-.06-.12-.09-.21a2,2,0,0,1-.12-.83,3,3,0,0,1,.37-1.23A3.72,3.72,0,0,1,22,38.36a3.76,3.76,0,0,1,1.8-.71h0c-.09.68-.17,1.35-.25,2-.16,1.44-.29,2.83-.42,4.19-.06.67-.13,1.34-.19,2,0,0,0,.07,0,.11A5.69,5.69,0,0,1,21.57,45.73Zm6-2.79a4.16,4.16,0,0,1-2.16,2.5,4.84,4.84,0,0,1-2,.51c.26-2,.53-4,.85-6.2.1-.69.21-1.39.32-2.11h0a2.21,2.21,0,0,1,.25,0,2.73,2.73,0,0,1,1,.41,4.37,4.37,0,0,1,1.53,2,4.9,4.9,0,0,1,.34,1.38,4.57,4.57,0,0,1,0,.74c0,.12,0,.24-.05.36l0,.1v.06s0,0,0,0Z"/><path class="cls-8" d="M56.89,43.78h0l3.84-13.89L60,29.67,56.58,41.89a3.47,3.47,0,0,0-2-1.52,3,3,0,0,0-3.77,1.68,2.93,2.93,0,0,0,2.34,3.37,2.88,2.88,0,0,0,3.75-1.67h0Z"/><path class="cls-8" d="M43.66,37.82h0l3.62-8.46h0l.06-.14-6.85-2-.43,1-2.77,6.51a2.2,2.2,0,0,0-1.17-1.13,1.87,1.87,0,0,0-2.52.75,2.06,2.06,0,0,0,3.71,1.59h0l2.83-6.61L46,31l-2.4,5.63a2.21,2.21,0,0,0-1.16-1.13,1.88,1.88,0,0,0-2.52.74,2.05,2.05,0,0,0,3.67,1.67h0Zm-3.31-9,.19-.45,5.89,1.68-.18.41Z"/><path class="cls-8" d="M76.93,44.59h0l5.43-10.45h0l.09-.17-8.56-3.22L73.24,32l-4.16,8a2.8,2.8,0,0,0-1.38-1.55,2.39,2.39,0,0,0-3.29.71,2.37,2.37,0,0,0,1.3,3.08,2.35,2.35,0,0,0,3.28-.7h0v0h0l4.86-9.36,7.36,2.71L77,43a2.8,2.8,0,0,0-1.38-1.55,2.4,2.4,0,0,0-3.29.7,2.39,2.39,0,0,0,1.3,3.09,2.36,2.36,0,0,0,3.29-.7h0Z"/><path class="cls-8" d="M54.6,52.87h0Z"/><path class="cls-8" d="M54.6,52.82Z"/><path class="cls-8" d="M54.49,65.27c-.06-.91,0-2.44-2.71-3.32.1-.55.2-1.11.31-1.68,6.27-.81,2.62-16.66-.21-1.48-1.88.43-9.54,7.28-1.25,9.49-.29,1.16,0,4.14-2.31,4.19-.48-.07-1.43-.39-1.12-1.47h0a.84.84,0,0,1,.37-.48c3,2,.29-5.29-1.07,1,1.36,1.86,4,2.45,4.37-3.23C51.43,68.47,54.67,67.52,54.49,65.27Zm.11-12.4h0Zm0,0Zm-1.69,3.73c.23-.31.37-2.44,1.7-3.68h0c.73,1.15.4,4.14-2.14,5.55C52.6,57.8,52.75,57.18,52.91,56.55Zm-3,11.17c-3.14-1.35-3.37-4.52,1.69-7.15-.08.47-.16.93-.23,1.4-.57-.14-3.55,1.59-1.89,3.6-.13-.79-.44-1.85,1.73-2.47-.1.9-.12.79-.5,4.76A2.8,2.8,0,0,1,49.87,67.72Zm3.42-1.59c-.39.25.39.79-2.37,1.73.18-1.19,0,0,.67-4.76C52.18,63,53.69,64.38,53.29,66.13Z"/><path class="cls-8" d="M32.83,70.76h0l5.75-11.59L38,58.85,32.88,69a3.11,3.11,0,0,0-1.54-1.69,2.65,2.65,0,0,0-3.6.84,2.62,2.62,0,0,0,1.48,3.37,2.6,2.6,0,0,0,3.6-.83h0Z"/><path class="cls-8" d="M78.48,63h0L74.24,54h0l-.07-.15L67.69,58,68.2,59l3.26,6.87a2.37,2.37,0,0,0-1.74.14,1.83,1.83,0,1,0,2.73.7h0l-3.31-7,5.53-3.58,2.82,5.93a2.37,2.37,0,0,0-1.74.14,1.84,1.84,0,1,0,2.76.79h0Zm-9.59-3.73-.23-.47,5.55-3.54.2.43Z"/></svg>