<svg xmlns="http://www.w3.org/2000/svg" xmlns:xlink="http://www.w3.org/1999/xlink" viewBox="0 0 100 100"><defs><style>.cls-1{fill:#e8e6e8;}.cls-2{fill:none;}.cls-3{isolation:isolate;}.cls-4{clip-path:url(#clip-path);}.cls-5{fill:#fdc45b;}.cls-6{fill:#322581;}.cls-7{fill:#fdc15d;}.cls-8{fill:#f09f00;}.cls-9{fill:#2a1f05;}.cls-10{fill:#7b590c;}.cls-11{fill:#fac35c;}.cls-12{fill:#2a1e02;}.cls-13{fill:#1d1d1b;}.cls-14{clip-path:url(#clip-path-2);}.cls-15{fill:#fff;}.cls-16{fill:#1698ff;}.cls-17{opacity:0.5;mix-blend-mode:multiply;}.cls-18{fill:#2d164f;}.cls-19{fill:#f6f6f7;}.cls-20{fill:#f3a200;}</style><clipPath id="clip-path"><path class="cls-1" d="M36,89c21.4-1.47,32.09-2.2,37.18-5.29C87.79,74.83,96.32,52.57,89.36,38c-2.29-4.79-5.55-7.3-11.83-12.13-4.43-3.41-18.08-13.61-37.08-13.6-6.91,0-13.62,0-19.65,4.88-5.31,4.3-8.93,11.43-8.62,18.42s4.34,7.55,5.18,15.14c1,9.45-4.93,11.24-3.79,19.73,1.1,8.26,8,15.77,15.48,18A18.78,18.78,0,0,0,36,89Z"/></clipPath><clipPath id="clip-path-2"><path id="SVGID" class="cls-2" d="M16.28,34.54c-3.59,4.91,1.56,10.14,5.06,12.69s7.84-.46,11.87,2.48l1.59,1.17a2.78,2.78,0,0,0,3.28-4.48l-1.37-1c.55-.6.3.06,1.47-.95,2.77-2.38-1-7.34-1.22-8.35-.51-2.75-.66-.36-4-4.22C27.78,25.75,22.42,26.12,16.28,34.54Z"/></clipPath></defs><title>CH2-5</title><g class="cls-3"><g id="Layer_1" data-name="Layer 1"><path class="cls-1" d="M36,89c21.4-1.47,32.09-2.2,37.18-5.29C87.79,74.83,96.32,52.57,89.36,38c-2.29-4.79-5.55-7.3-11.83-12.13-4.43-3.41-18.08-13.61-37.08-13.6-6.91,0-13.62,0-19.65,4.88-5.31,4.3-8.93,11.43-8.62,18.42s4.34,7.55,5.18,15.14c1,9.45-4.93,11.24-3.79,19.73,1.1,8.26,8,15.77,15.48,18A18.78,18.78,0,0,0,36,89Z"/><g class="cls-4"><path class="cls-5" d="M51.26,60.44a1.41,1.41,0,0,1-.2.24,5.3,5.3,0,0,1-.77.6l-.12.06a2.26,2.26,0,0,1-.26.16c-.17.09-.34.19-.53.28h0a36.5,36.5,0,0,1-6.84,2.31l-.11,0A1.75,1.75,0,0,1,40.34,63l0-.18a.28.28,0,0,1,0-.13L40.12,62l.2-.11,1.46-.74.87-.44.74-.37v-.06l.23,0c.43-.1.87-.2,1.3-.32l.78-.22h0a15.88,15.88,0,0,0,2.84-1.08c.17-.08.34-.18.49-.27a4.78,4.78,0,0,0,.44-.29C51.09,56.89,52.32,58.93,51.26,60.44Z"/><path class="cls-5" d="M40.34,63l0-.05a.51.51,0,0,1,0-.13Z"/><path class="cls-5" d="M42.52,64.1l-.11,0h0Z"/><path class="cls-6" d="M43.16,59.19h0l-.2-1s0,0,0,0Z"/><path class="cls-6" d="M43.61,60.27l-.22.11v-.06Z"/><path class="cls-7" d="M38.07,46.4l-1.16-.86c.33-.28.73-.64,1.27-1.09,2.77-2.38-.54-6.35-.72-7.37a5.35,5.35,0,0,1,0-1.77.29.29,0,0,0-.28-.35c-.67,0-2.66-1.27-4.21-3.08-5.23-6.13-10.59-5.75-16.73,2.65-3.59,4.92,1.56,10.15,5.06,12.71S29,46.92,32.9,49.5l.31.22,1.6,1.16a2.77,2.77,0,1,0,3.26-4.48ZM25.59,47.74a2.14,2.14,0,0,1-1.22.38,2.18,2.18,0,0,1-1.23-4l1.46-1,4.52,2.19Z"/><path class="cls-7" d="M29.12,45.34l-3.53,2.4a2.14,2.14,0,0,1-1.22.38,2.18,2.18,0,0,1-1.23-4l1.46-1Z"/><path class="cls-8" d="M24.26,44.13,23,45.39c-.84.86-.32,1.54.54,2.39h0L26.5,48l2.63-2.56Z"/><path class="cls-9" d="M22.69,26.4l-.05,0,0-.06Z"/><path class="cls-9" d="M22.69,26.4l-.05,0,0-.06Z"/><path class="cls-9" d="M22.69,26.4l-.05,0,0-.06Z"/><path class="cls-9" d="M15.62,39.8h0l-.44,0a2.76,2.76,0,0,1,.45,0h0Z"/><path class="cls-9" d="M15.61,39.77l0,0,0,0-.44,0a2.76,2.76,0,0,1,.45,0Z"/><path class="cls-10" d="M19,45.56l-.17-.13a.47.47,0,0,0-.1-.1Z"/><path class="cls-10" d="M29.49,48.36s-5.37,1.55-9.26-1.86c-.2-.17-.41-.34-.62-.49h0c-2.39-2.43-1.29-6,2.75-11.58.23.63.94,1,1.33,1.31a23.44,23.44,0,0,0,2.17,1.33c1.56.88-.15,3.49-1.57,6.9C23.46,46,31.46,45.67,29.49,48.36Z"/><path class="cls-9" d="M29.82,27.77a1.6,1.6,0,0,0-1.55-1.31c.24-.38,1.32-.58,1.32-.58a2.35,2.35,0,0,0-2.41-1.16,12.55,12.55,0,0,0-2.37-3.49,26.79,26.79,0,0,1-.91,2.57A3.47,3.47,0,0,1,23,22.05a9.47,9.47,0,0,0-1.51,3.63,3.9,3.9,0,0,0-1-.23,10.84,10.84,0,0,1-1.58,5.24c-.92,1-1.91,2.19-3,3.64a6,6,0,0,0-1,5c-.88-.43-2.37-.82-3.27.66L15,39.84h.14l-.13,0c-.78.16-2,.65-1.83,2.11l1.94-1.75a12.31,12.31,0,0,0,3.61,5.11h0l.27.23h0l.62.45c-2.39-2.43-1.29-6,2.75-11.58h0c2.42-2.78,3.07-2.31,4.73-5a4.06,4.06,0,0,0,.55-1.37l1.53.82c.15-.34-.72-1.42-.72-1.42Zm-14.25,12-.44,0a2.76,2.76,0,0,1,.45,0h0l0,0h0Z"/><path class="cls-9" d="M15.13,39.83l-.13,0v0Z"/><path class="cls-9" d="M15.62,39.8h0l-.44,0a2.76,2.76,0,0,1,.45,0h0l0,0Z"/><path class="cls-9" d="M19.76,46.15c-.27-.19-.52-.39-.77-.59l.62.45h0Z"/><path class="cls-11" d="M29.12,45.34l-3.53,2.4a2.14,2.14,0,0,1-1.22.38,2.18,2.18,0,0,1-1.23-4l1.46-1Z"/><path class="cls-12" d="M32,33.14l-1.55,2.13a.86.86,0,0,0,1.39,1l1.55-2.12a.86.86,0,1,0-1.39-1Z"/><path class="cls-13" d="M34.71,35A9.4,9.4,0,0,1,33,36.78c-.08-.07.08-.68.55-1.16A1.63,1.63,0,0,1,34.71,35Z"/><g class="cls-14"><path class="cls-15" d="M35.07,38.88a3.51,3.51,0,0,0,3.08-1,.38.38,0,0,1,.55.53l-.06,0h0a4.13,4.13,0,0,1-1.77.65A3.49,3.49,0,0,1,35.07,38.88Z"/></g><path class="cls-16" d="M83.88,47.53l-.19.83h0L83.07,51h0l-.18.77L82,51.52l0-.16L69.16,49.05,68.07,50.2c-.88,1-1.76,2.12-2.61,3.2l9.85,1.67h0a2.54,2.54,0,0,1,2.2,1.78l4,14,.15,0,.28.9-.7.23-2.54.8h0l-.86.27-.29-.91.15,0L73.25,60.19,59.59,60a2.3,2.3,0,0,1-1.3.56L58.13,51l8.5-6.78h0a2.53,2.53,0,0,1,2.21-.52l14.06,3.73,0-.16Z"/><polygon class="cls-16" points="58.28 60.58 54.29 54.09 58.13 51.04 58.28 60.58"/><path class="cls-7" d="M82.39,76.19l-2.69.35-.36-1.38a.08.08,0,0,1,0,0l-.09-.3s0,0,0,0a0,0,0,0,1,0,0l-.1-.39h0l-.44-1.63h0l2.54-.8L82,74.61l.09.31h0Z"/><path class="cls-6" d="M86.42,80.1l-8.25-4.33.88-1.36a.09.09,0,0,1,.16,0,1,1,0,0,0,.43,1c.39.21,1.23,0,1.83-.28l.67-.3Z"/><g class="cls-17"><path class="cls-18" d="M41.71,51.68C40.5,46.91,37,48.91,37.17,51a34.72,34.72,0,0,0,1.08,5.87,21.91,21.91,0,0,0,4.82,1.85Z"/></g><path class="cls-7" d="M87.72,49,87,51.39l0,.2-.11,0-1.4-.22h0L85,51.28l-.12,0h0L83.54,51,83.07,51h0l.61-2.6h0l.43.07,1.64.26.34.05.88.14h0Z"/><path class="cls-6" d="M92.38,45.9l-6.44,6.71-1.07-1.22a.09.09,0,0,1,.1-.14,1,1,0,0,0,1.08-.13,2.9,2.9,0,0,0,.23-1.89l-.11.06-.1-.74,4.66-2a.08.08,0,0,1,0,0Z"/><path class="cls-6" d="M39.76,47.2a5.11,5.11,0,0,0-1,1.61A2.18,2.18,0,0,0,37.17,51a29.3,29.3,0,0,0,.45,3.16,33.27,33.27,0,0,1-4-4.15l3.53-3.6C37.51,46.51,38.37,46.74,39.76,47.2Z"/><path class="cls-6" d="M51.26,60.44a1.41,1.41,0,0,1-.2.24,5.3,5.3,0,0,1-.77.6l-.11.07h0a19.55,19.55,0,0,1-4.47-1.61,15.88,15.88,0,0,0,2.84-1.08c.17-.08.34-.18.49-.27a4.78,4.78,0,0,0,.44-.29C51.09,56.89,52.32,58.93,51.26,60.44Z"/><polygon class="cls-19" points="34.61 52 40.79 46.09 37.99 45.29 32.78 50.52 34.61 52"/><path class="cls-5" d="M50.24,42.09l-.07.07a.24.24,0,0,0,.06-.08Z"/><path class="cls-5" d="M54,35.05h0a28.86,28.86,0,0,1-3.54,6.7L48,39.41l-.11-.12a16.58,16.58,0,0,0,2.87-5.94c0-.11.07-.23.11-.35.57-2.08.69-5.31,1.64-6.78,1.13-1.77.43,1.35,1.2,4.05a.61.61,0,0,0,0,.13c.21.69.38,1.27.49,1.74C54.67,33.83,54.57,34.41,54,35.05Z"/><path class="cls-5" d="M48,39.41a1.68,1.68,0,0,0-.57.5l.46-.62Z"/><path class="cls-6" d="M50.24,42.09l-.07.07a.24.24,0,0,0,.06-.08Z"/><path class="cls-6" d="M58.13,51s-.61-.49-6.47-1a41,41,0,0,1-7.2-1.13,64.59,64.59,0,0,0,5.61-6.25l.13.12.59-.66-.33-.33L48,39.41a1.68,1.68,0,0,0-.57.5l.46-.62-.52-.5-.64.71.13.12-6.1,6.47-.08.09L40,47a2.46,2.46,0,0,0-.22.25,5.31,5.31,0,0,0-.62.81h0a4,4,0,0,0-.41.79l-.31.11h0l-.29.17a2,2,0,0,0-.27.22,2.39,2.39,0,0,0-.22.23s0,0,0,0a.51.51,0,0,1-.09.13l0,.07v0l0,0,0,0a1.27,1.27,0,0,0-.12.23.52.52,0,0,0-.06.16s0,0,0,.07,0,.11,0,.16,0,0,0,.06a1.63,1.63,0,0,0,0,.31s0,.1,0,.15l0,.3c0,.39.08.78.14,1.18,0,.24.07.49.12.74s.11.63.16.94.14.69.22,1c.13.57.27,1.14.41,1.68.45,1.67.93,3.13,1.25,4l-.24.11.48,1.21.38-.19.2-.11,1.46-.74.87-.44.74-.37v-.06l.23,0,.22-.11-.43-1.08-.24.11h0l-.09-.47L43,58.19s0,0,0,0c.27.18.55.35.84.52.65.38,1.28.72,1.88,1h0a15.88,15.88,0,0,0,2.84-1.08c.17-.08.34-.18.49-.27a4.78,4.78,0,0,0,.44-.29c1.62-1.2,2.85.84,1.79,2.35a1.41,1.41,0,0,1-.2.24,5.3,5.3,0,0,1-.77.6l-.11.07c5.21,1.17,8.11-.77,8.11-.77Zm-7.9-9h0l-.07.07A.24.24,0,0,0,50.23,42.08Z"/><path class="cls-6" d="M48,39.41a1.68,1.68,0,0,0-.57.5l.46-.62Z"/><path class="cls-20" d="M54.9,30.41a7.81,7.81,0,0,1-.65,1.73c-.11-.47-.28-1.05-.49-1.74a.61.61,0,0,1,0-.13C54.38,29.48,55.18,29.23,54.9,30.41Z"/></g></g></g></svg>