<?xml version="1.0" encoding="utf-8"?>
<!-- Generator: Adobe Illustrator 21.0.0, SVG Export Plug-In . SVG Version: 6.00 Build 0)  -->
<svg version="1.1" id="Layer_1" xmlns="http://www.w3.org/2000/svg" xmlns:xlink="http://www.w3.org/1999/xlink" x="0px" y="0px"
	 viewBox="0 0 100 100" style="enable-background:new 0 0 100 100;" xml:space="preserve">
<style type="text/css">
	.st0{fill:none;}
	.st1{fill:#F3981F;}
	.st2{fill:none;stroke:#DF8830;stroke-width:0.4128;stroke-miterlimit:10;}
	.st3{fill:#DFECE8;}
	.st4{fill:#B5ACA4;}
	.st5{fill:#5A2F49;}
	.st6{fill:#4C2740;}
	.st7{fill:#83807F;}
	.st8{fill:#E35B29;}
	.st9{fill:none;stroke:#F9A447;stroke-width:0.4128;stroke-miterlimit:10;}
	.st10{fill:#DF8830;}
	.st11{fill:#423894;}
</style>
<rect x="10" y="10" class="st0" width="80" height="80"/>
<rect x="10" y="10" class="st0" width="80" height="80"/>
<g id="XMLID_338_">
	<path id="XMLID_416_" class="st1" d="M33.3,51.3l13.8-16c0.6-0.7,1.5-1.2,2.5-1.2h29.2c1.3,0,2.5,0.8,3,2l7,16.3
		c0.4,1.1,0.7,2.3,0.7,3.5v6.2H11.8v-7.9c0-1.1,0.9-2,2-2h17.8C32.2,52.2,32.9,51.8,33.3,51.3z"/>
	<line id="XMLID_415_" class="st2" x1="65.8" y1="34.1" x2="65.8" y2="61.6"/>
	<path id="XMLID_414_" class="st3" d="M84.1,52.7H67.6V38.6c0-0.8,0.7-1.5,1.5-1.5h9.1c0.6,0,1.1,0.4,1.4,0.9l5.3,13.6
		C85,52.1,84.7,52.7,84.1,52.7z"/>
	<path id="XMLID_413_" class="st4" d="M11.5,61.6h78.6c0.2,0,0.4,0.2,0.4,0.4v2.3c0,0.2-0.2,0.4-0.4,0.4H11.5
		c-0.8,0-1.5-0.7-1.5-1.5v-0.1C10,62.3,10.7,61.6,11.5,61.6z"/>
	<path id="XMLID_411_" class="st2" d="M37.4,52c-0.4,0.5-0.6,1-0.6,1.6v8"/>
	<path id="XMLID_410_" class="st3" d="M63.9,38.3v14.4H38.3c-0.7,0-1-0.8-0.6-1.3l11-13.8c0.2-0.3,0.5-0.4,0.9-0.4h13.2
		C63.4,37.1,63.9,37.6,63.9,38.3z"/>
	<circle id="XMLID_409_" class="st5" cx="75.1" cy="63.9" r="6.2"/>
	<circle id="XMLID_408_" class="st6" cx="75.1" cy="63.9" r="3.1"/>
	<circle id="XMLID_407_" class="st7" cx="75.1" cy="63.9" r="2.5"/>
	<circle id="XMLID_406_" class="st4" cx="75.1" cy="63.9" r="1.8"/>
	<path id="XMLID_405_" class="st8" d="M12.5,58.8h-0.7v-3.1h0.7c0.9,0,1.5,0.7,1.5,1.5v0C14.1,58.1,13.4,58.8,12.5,58.8z"/>
	
		<rect id="XMLID_404_" x="86.4" y="56.5" transform="matrix(-1 -4.465596e-11 4.465596e-11 -1 175.8236 116.0701)" class="st8" width="3.1" height="3.1"/>
	<g id="XMLID_396_">
		
			<rect id="XMLID_403_" x="37.8" y="50.4" transform="matrix(-1 -4.487889e-11 4.487889e-11 -1 78.1947 101.643)" class="st1" width="2.7" height="0.9"/>
		<path id="XMLID_397_" class="st1" d="M40.8,52.1h1.5c0.7,0,1.2-0.5,1.2-1.2v-0.1c0-0.7-0.5-1.2-1.2-1.2h-1.5
			c-0.7,0-1.2,0.5-1.2,1.2v0.1C39.6,51.5,40.1,52.1,40.8,52.1z"/>
	</g>
	<line id="XMLID_395_" class="st9" x1="49.3" y1="36.7" x2="49.3" y2="53"/>
	<circle id="XMLID_394_" class="st5" cx="31.3" cy="63.9" r="6.2"/>
	<circle id="XMLID_393_" class="st6" cx="31.3" cy="63.9" r="3.1"/>
	<circle id="XMLID_392_" class="st7" cx="31.3" cy="63.9" r="2.5"/>
	<circle id="XMLID_391_" class="st4" cx="31.3" cy="63.9" r="1.8"/>
	<path id="XMLID_390_" class="st10" d="M61,56.4h1.3c0.6,0,1-0.5,1-1v-0.1c0-0.6-0.5-1-1-1H61c-0.6,0-1,0.5-1,1v0.1
		C60,55.9,60.4,56.4,61,56.4z"/>
	<path id="XMLID_346_" class="st8" d="M59.7,55.9h3.6c0.3,0,0.5-0.2,0.5-0.5v0c0-0.3-0.2-0.5-0.5-0.5h-3.6c-0.3,0-0.5,0.2-0.5,0.5v0
		C59.2,55.6,59.4,55.9,59.7,55.9z"/>
	<line id="XMLID_339_" class="st2" x1="82.3" y1="53.8" x2="67.6" y2="53.8"/>
	<g id="XMLID_367_">
		<rect id="XMLID_362_" x="58.6" y="33.1" class="st1" width="0.5" height="1.1"/>
		<rect id="XMLID_363_" x="69.3" y="33.1" class="st1" width="0.5" height="1.1"/>
	</g>
	<rect id="XMLID_311_" x="57.6" y="29.9" class="st11" width="14.4" height="3.3"/>
</g>
</svg>
