<?xml version="1.0" encoding="utf-8"?>
<!-- Generator: Adobe Illustrator 21.0.0, SVG Export Plug-In . SVG Version: 6.00 Build 0)  -->
<svg version="1.1" id="Layer_1" xmlns="http://www.w3.org/2000/svg" xmlns:xlink="http://www.w3.org/1999/xlink" x="0px" y="0px"
	 viewBox="0 0 100 100" style="enable-background:new 0 0 100 100;" xml:space="preserve">
<style type="text/css">
	.st0{fill:none;}
	.st1{fill:none;stroke:#EE8F21;stroke-width:5.4892;stroke-linecap:round;stroke-linejoin:round;stroke-miterlimit:10;}
	.st2{fill:#5A2F49;}
	.st3{fill:#EE8F21;}
	.st4{fill:#E35B29;}
	.st5{fill:#F3981F;}
	.st6{fill:none;stroke:#EA8A31;stroke-width:0.6587;stroke-miterlimit:10;}
	.st7{display:none;fill:none;stroke:#EA8A31;stroke-width:0.5956;stroke-miterlimit:10;}
	.st8{fill:#EA8A31;}
	.st9{fill:none;stroke:#E35B29;stroke-width:0.4391;stroke-miterlimit:10;}
	.st10{fill:#6A78B9;}
	.st11{fill:#423894;}
	.st12{fill:none;stroke:#F2AC81;stroke-width:1.4244;stroke-linecap:round;stroke-linejoin:round;stroke-miterlimit:10;}
	.st13{fill:none;stroke:#EE8F21;stroke-width:5.4892;stroke-linecap:square;stroke-linejoin:round;stroke-miterlimit:10;}
	.st14{fill:#F2AB81;}
	.st15{fill:#E28865;}
	.st16{fill:none;stroke:#5A2F49;stroke-width:0.4391;stroke-linecap:round;stroke-miterlimit:10;}
</style>
<rect x="10" y="10" class="st0" width="80" height="80"/>
<line id="XMLID_26_" class="st1" x1="55" y1="43.4" x2="63.6" y2="60.3"/>
<polyline id="XMLID_74_" class="st1" points="40.8,43.2 32.7,57.7 38.5,72.7 "/>
<path id="XMLID_167_" class="st2" d="M52,15.3l9.4,16.3c1.7,2.9-0.4,6.5-3.8,6.5H38.8c-3.3,0-5.4-3.6-3.8-6.5l9.4-16.3
	C46.1,12.4,50.3,12.4,52,15.3z"/>
<g id="XMLID_98_">
	<path id="XMLID_22_" class="st3" d="M58.7,39.4c0,1.3-4.8,11.7-10.7,11.7S37.4,40.8,37.4,39.4S42.2,37,48,37S58.7,38.1,58.7,39.4z"
		/>
	<path id="XMLID_76_" class="st4" d="M58,39.4c0,1.3-4,0.2-9.9,0.2S38,40.8,38,39.4c0-0.8,4.1-1.8,10-1.8S58,38.6,58,39.4z"/>
</g>
<path class="st5" d="M62.1,87c-4.2,0.4-9.1,0.6-14.4,0.6c-5,0-9.6-0.2-13.7-0.5c0.2-1.9,0.4-4.1,0.6-6.5c1.5-15.3,3.6-37.6,3.7-37.7
	c0.1-0.9,0.5-1.8,1.2-2.4c0.6-0.5,1.3-0.9,2-1.1l12.1-0.3c0.8,0.2,1.5,0.5,2.1,1c0.7,0.6,1.1,1.4,1.3,2.3c0,0.2,4.4,38.1,4.4,38.1
	L62.1,87z"/>
<polyline class="st6" points="48.2,41.8 48.2,80.2 48.2,87.6 "/>
<path id="XMLID_85_" class="st7" d="M61,82.3c0,0-3.3,1.4-8.9,1.6"/>
<g id="XMLID_82_">
	<path class="st8" d="M54,40.9c-0.7,2-4.4,1.6-5.8,1.1c-1.3,0.6-5.1,1-5.8-1.1c-1-3,3.2-2.8,3.2-2.8h5.1C50.8,38.1,55,38,54,40.9z"
		/>
</g>
<line id="XMLID_83_" class="st9" x1="51.1" y1="41.3" x2="51.1" y2="46.9"/>
<line id="XMLID_81_" class="st9" x1="45" y1="41.3" x2="45" y2="51.3"/>
<rect id="XMLID_91_" x="48.3" y="52.6" transform="matrix(0.9995 -3.308990e-02 3.308990e-02 0.9995 -1.9875 1.8089)" class="st4" width="10.8" height="16.8"/>
<polygon class="st10" points="61.6,66.9 51.9,71.8 44.4,56.8 53.2,52.3 54.1,51.9 "/>
<polygon class="st11" points="43.5,57.2 44.4,56.8 51.9,71.8 51.1,72.2 "/>
<polygon class="st11" points="53.2,52.3 44.4,56.8 53.2,52.3 "/>
<g id="XMLID_15205_">
	<path id="XMLID_33019_" class="st12" d="M50.1,62.9c0,0-2.1,0.8-4,0"/>
</g>
<path id="XMLID_25341_" class="st12" d="M50.1,64c0,0-2.2,0.8-3.6,0.4"/>
<path id="XMLID_25340_" class="st12" d="M47.6,60.8c0,0,2.1,0.2,2.4,1.9"/>
<path id="XMLID_15340_" class="st12" d="M50.3,64.9c0,0-1.4,1.2-3,0.9"/>
<path id="XMLID_15339_" class="st12" d="M50.5,65.6c0,0-0.4,0.8-2.3,1.3"/>
<g id="XMLID_18_">
	<line id="XMLID_88_" class="st1" x1="63.6" y1="60.4" x2="55.6" y2="62.3"/>
	<line id="XMLID_90_" class="st13" x1="56.1" y1="62.3" x2="53" y2="63"/>
</g>
<path id="XMLID_128_" class="st14" d="M48.6,41.4h-0.7c-1.2,0-2.2-1-2.2-2.2v-5.9h5.1v5.9C50.7,40.3,49.8,41.3,48.6,41.4z"/>
<path id="XMLID_127_" class="st15" d="M50.7,38.9c-3,0.8-5.1-1.1-5.1-1.1v-3.1h5.1V38.9z"/>
<g id="XMLID_168_">
	<path class="st2" d="M52.3,15.9c0,2.3-1.9,4.2-4.2,4.2c-2.3,0-4.1-1.9-4.1-4.2c0-0.1,0-0.1,0-0.2c0.1-2.2,1.9-4,4.1-4
		c2.2,0,4,1.7,4.1,3.9C52.3,15.8,52.3,15.9,52.3,15.9z"/>
	<path class="st10" d="M52.3,15.9c0,2.3-1.9,4.2-4.2,4.2c-2.3,0-4.1-1.9-4.1-4.2c0-0.1,0-0.1,0-0.2c1-1.2,2.5-2,4.2-2
		c1.7,0,3.2,0.8,4.1,1.9C52.3,15.8,52.3,15.9,52.3,15.9z"/>
</g>
<path class="st14" d="M55.5,22.3v7.3c0,3.5-2.8,6.3-6.3,6.3h-2.1c-3.5,0-6.3-2.8-6.3-6.3v-7.3c0.2,0,5.9-1.4,7.3-3.6
	C49.5,20.9,55.3,22.3,55.5,22.3z"/>
<g id="XMLID_171_">
	<path class="st2" d="M55.5,21.1v1.2c-0.3,0-6-1.4-7.4-3.6c-1.4,2.2-7.1,3.6-7.3,3.6v-1.2c0.2-7,8.4-6.3,8.4-6.3
		C52.7,14.9,55.5,17.7,55.5,21.1z"/>
</g>
<circle id="XMLID_129_" class="st14" cx="56.1" cy="27.9" r="1.3"/>
<circle id="XMLID_130_" class="st14" cx="40.4" cy="27.9" r="1.3"/>
<g id="XMLID_169_">
	<path id="XMLID_125_" class="st4" d="M48.2,29.8L48.2,29.8c-0.3,0-0.5-0.2-0.5-0.4v-3.6c0-0.2,0.2-0.4,0.4-0.4h0.1
		c0.2,0,0.4,0.2,0.4,0.4v3.6C48.7,29.6,48.5,29.8,48.2,29.8z"/>
</g>
<path id="XMLID_124_" class="st11" d="M51,27.8h-0.1c-0.3,0-0.5-0.2-0.5-0.5v-0.8c0-0.3,0.2-0.5,0.5-0.5H51c0.3,0,0.5,0.2,0.5,0.5
	v0.8C51.5,27.6,51.3,27.8,51,27.8z"/>
<path id="XMLID_123_" class="st11" d="M45.5,27.8h-0.1c-0.3,0-0.5-0.2-0.5-0.5v-0.8c0-0.3,0.2-0.5,0.5-0.5h0.1
	c0.3,0,0.5,0.2,0.5,0.5v0.8C45.9,27.6,45.7,27.8,45.5,27.8z"/>
<ellipse id="XMLID_122_" transform="matrix(0.9691 -0.2466 0.2466 0.9691 -6.2611 13.1084)" class="st4" cx="49.2" cy="31.6" rx="1.4" ry="0.8"/>
<path id="XMLID_121_" class="st16" d="M46.3,31.5c0,0,3.1,1.2,5.4-1.4"/>
<path id="XMLID_120_" class="st2" d="M46.1,24.9l-2.8,0.2c-0.2,0-0.4-0.2-0.4-0.4l0,0c0-0.2,0.1-0.3,0.3-0.4l2.8-0.3
	c0.2,0,0.4,0.1,0.4,0.4l0,0.2C46.5,24.7,46.3,24.9,46.1,24.9z"/>
<path id="XMLID_119_" class="st2" d="M50.1,24.9l2.8,0.2c0.2,0,0.4-0.2,0.4-0.4l0,0c0-0.2-0.1-0.3-0.3-0.4L50.2,24
	c-0.2,0-0.4,0.1-0.4,0.4l0,0.2C49.8,24.7,49.9,24.9,50.1,24.9z"/>
</svg>
