<?xml version="1.0" encoding="utf-8"?>
<!-- Generator: Adobe Illustrator 21.0.0, SVG Export Plug-In . SVG Version: 6.00 Build 0)  -->
<svg version="1.1" id="Layer_1" xmlns="http://www.w3.org/2000/svg" xmlns:xlink="http://www.w3.org/1999/xlink" x="0px" y="0px"
	 viewBox="0 0 100 100" style="enable-background:new 0 0 100 100;" xml:space="preserve">
<style type="text/css">
	.st0{fill:none;}
	.st1{fill:#5A2F49;}
	.st2{fill:#E35B29;}
	.st3{fill:#C04227;}
	.st4{fill:#D74F28;}
	.st5{fill:#F2AB81;}
	.st6{fill:#423894;}
	.st7{clip-path:url(#SVGID_2_);fill:#423894;}
</style>
<rect x="10" y="10" class="st0" width="80" height="80"/>
<g>
	<g id="XMLID_250_">
		<path id="XMLID_270_" class="st1" d="M59.2,19.7c4.7-3.3,10.9-2.6,10.9-2.6s-1.5,6-6.2,9.4S54.6,23,59.2,19.7z"/>
	</g>
	<g id="XMLID_304_">
		<path id="XMLID_307_" class="st2" d="M46,22.6c-0.4-5.7-5-10-5-10s-3.7,5-3.3,10.8s4.7,7.2,4.7,7.2S46.4,28.3,46,22.6z"/>
		<path id="XMLID_306_" class="st3" d="M42.3,29.1c-1.1-1.6-2.1-3.7-2.3-6.1s0.5-4.7,1.3-6.4c1.1,1.6,2.1,3.7,2.3,6.1
			S43.2,27.4,42.3,29.1z"/>
	</g>
	<path id="XMLID_305_" class="st2" d="M42.7,34.3c0,0-5.9-1.8-5.4-9.3c0,0,2.8,5.3,5.3,5.4"/>
	<g id="XMLID_159_">
		<path id="XMLID_6223_" class="st4" d="M51.8,40.8c-9.5,0-17.3,8-17.2,19.3c0.1,17.7,12.9,19.2,12.9,19.2h9c0,0,12.5-1.4,12.5-19.2
			C69.1,48.8,61.3,40.8,51.8,40.8z"/>
	</g>
	<path id="XMLID_6222_" class="st4" d="M55.7,78.9c-0.1,1.8,2.6,3.6,6.1,4c3.5,0.4,6.3-0.8,6.4-2.6c0.1-1.8-2.6-3.6-6.1-4
		C58.7,75.8,55.8,77,55.7,78.9z"/>
	<path id="XMLID_6197_" class="st2" d="M44.8,86.1L44.8,86.1c-2.6,0-4.7-2.1-4.7-4.7l-2.6-24.3C37,42.3,55.9,43.5,55.9,43.5l1.7,8.3
		L48,54.2l0.2,27.5C48,84.2,47.3,86.1,44.8,86.1z"/>
	<path id="XMLID_6181_" class="st2" d="M59.1,83.7L59.1,83.7c2.6,0,4.7-2.1,4.7-4.7l1.6-22.1c0.5-10.6-9.3-12.7-9.3-12.7l-1.7,35.1
		C54.7,81.8,56.7,83.7,59.1,83.7z"/>
	<path class="st5" d="M52.6,51.1L52.6,51.1c0,0-5-0.4-6,0.7c-1.5,1.1-4.1,4.5-3.4,8.8c0,0,0.4-1.1,1.2-2.2c0,0-1.7,11.7,8,13.5
		c0,0-0.2-0.3-0.6-0.7c0.9,0,2-0.3,2.8-0.8c2.4-1.5,4-4.1,4-7.1C58.6,63.3,60.5,50.7,52.6,51.1z"/>
	<g id="XMLID_3036_">
		<g id="XMLID_161_">
			<path id="XMLID_3033_" class="st1" d="M63.5,38.5c0,7.6-6.2,10.5-11.8,10.5c-5.2,0-11.8-3-11.8-10.5C40,30.9,63.5,30.9,63.5,38.5
				z"/>
		</g>
	</g>
	<g id="XMLID_234_">
		<path id="XMLID_235_" class="st2" d="M64.9,35.5c0,8.4-6.9,11.7-13.1,11.7c-5.7,0-13.1-3.3-13.1-11.7s2.6-16.8,13.1-16.8
			C62.9,18.7,64.9,27,64.9,35.5z"/>
	</g>
	<g id="XMLID_149_">
		<g id="XMLID_153_">
			<g>
				<path class="st1" d="M48.4,40c1.1-0.4,2.3-0.2,3.3,0.5c0.4,0.3,0.9-0.2,0.6-0.6c-1.2-0.9-2.6-1.3-4-0.7
					C47.7,39.5,47.9,40.2,48.4,40L48.4,40z"/>
			</g>
		</g>
	</g>
	<path id="XMLID_150_" class="st6" d="M51.7,37.9c1.4,0,2.8-1.5,2.8-2.5c0.1-1.2-2.1-1.1-2.8-1.1s-3-0.1-2.8,1.1
		C49,36.4,50.3,37.9,51.7,37.9z"/>
	<g id="XMLID_188_">
		<ellipse id="XMLID_191_" class="st1" cx="45.7" cy="32.8" rx="1.3" ry="1.7"/>
	</g>
	<ellipse id="XMLID_220_" class="st1" cx="57.7" cy="32.8" rx="1.4" ry="1.8"/>
	<g id="XMLID_312_">
		<path id="XMLID_308_" class="st4" d="M38.9,68.2c-9,0.1-11.5,8.9-6.1,14.3c2.3,2.4,5.8,4.2,9.1,4.8l-1.1-1.8c0,0,0.9,0.6,2.7,1.2
			c3.5,0.8,6.1-0.9,7.5-2c-3.8-0.1-9.6-1.1-10.9-6.3c-2-8.2-0.5-8.6-2.4-10.4"/>
		<g id="XMLID_311_">
			<g>
				<g>
					<defs>
						<path id="SVGID_1_" d="M38.9,68.2c-9,0.1-11.5,8.9-6.1,14.3c2.3,2.4,5.8,4.2,9.1,4.8l-1.1-1.8c0,0,0.9,0.6,2.7,1.2
							c3.5,0.8,6.1-0.9,7.5-2c-3.8-0.1-9.6-1.1-10.9-6.3c-2-8.2-0.2-7.8-2.4-10.4"/>
					</defs>
					<clipPath id="SVGID_2_">
						<use xlink:href="#SVGID_1_"  style="overflow:visible;"/>
					</clipPath>
					<path id="XMLID_6203_" class="st7" d="M46.2,99.8c0,0-9.5-8.1-9.5-9.1c0-6.1,7.3-10.3,7.3-10.3l10.1,4.2L46.2,99.8z"/>
				</g>
			</g>
		</g>
	</g>
</g>
</svg>
