<?xml version="1.0" encoding="utf-8"?>
<!-- Generator: Adobe Illustrator 21.0.0, SVG Export Plug-In . SVG Version: 6.00 Build 0)  -->
<svg version="1.1" id="Layer_1" xmlns="http://www.w3.org/2000/svg" xmlns:xlink="http://www.w3.org/1999/xlink" x="0px" y="0px"
	 viewBox="0 0 100 100" style="enable-background:new 0 0 100 100;" xml:space="preserve">
<style type="text/css">
	.st0{fill:#FCF7DC;}
	.st1{fill:#ABDCDA;}
	.st2{fill:#F29821;}
	.st3{display:none;fill:none;stroke:#EA8A31;stroke-width:0.5956;stroke-miterlimit:10;}
	.st4{fill:none;}
	.st5{fill:none;stroke:#6A78B9;stroke-width:0.5191;stroke-linejoin:round;stroke-miterlimit:10;}
	.st6{fill:#E35B29;}
	.st7{fill:#5A2F49;}
	.st8{fill:#EA9871;}
	.st9{fill:none;stroke:#EC9971;stroke-width:0.7741;stroke-linecap:round;stroke-linejoin:round;stroke-miterlimit:10;}
	.st10{fill:#F2AB81;}
	.st11{fill:#F2AB81;stroke:#5A2F49;stroke-width:0.5153;stroke-linecap:round;stroke-linejoin:round;stroke-miterlimit:10;}
	.st12{fill:#6A78B9;}
	.st13{clip-path:url(#SVGID_2_);fill:#F2AB81;}
	.st14{fill:none;stroke:#5A2F49;stroke-width:0.2386;stroke-linecap:round;stroke-miterlimit:10;}
	.st15{fill:#423894;}
	.st16{fill:#9FD8D4;}
	.st17{fill:#92CBC6;}
	.st18{fill:none;stroke:#ABDCDA;stroke-width:1.1679;stroke-miterlimit:10;}
	.st19{fill:none;stroke:#F2AC81;stroke-width:0.7741;stroke-linecap:round;stroke-linejoin:round;stroke-miterlimit:10;}
</style>
<rect x="19.3" y="49.2" class="st0" width="60.2" height="36.4"/>
<rect x="22.5" y="50.3" class="st1" width="1.9" height="4"/>
<rect x="42.5" y="50.3" class="st1" width="1.9" height="4"/>
<rect x="19.3" y="49.2" class="st2" width="29.6" height="1.5"/>
<path id="XMLID_85_" class="st3" d="M61,82.3c0,0-3.3,1.4-8.9,1.6"/>
<g id="XMLID_30_">
</g>
<rect x="10" y="10" class="st4" width="80" height="80"/>
<g>
	<polyline id="XMLID_482_" class="st5" points="41,38.5 39.4,39 37.7,46.9 	"/>
	<polygon id="XMLID_475_" class="st6" points="40.8,42.6 35.9,42.6 36.3,49.2 40.4,49.2 	"/>
	<polygon class="st7" points="41.1,41.9 41.1,42.7 35.6,42.7 35.6,41.9 35.9,41.9 35.9,41.7 40.8,41.7 40.8,41.9 	"/>
</g>
<g id="XMLID_32989_">
	<g id="XMLID_32993_">
		<path class="st8" d="M59.4,39.2l-1.9,8.4v0.1c0,0.1-0.1,0.3-0.2,0.4L53,54.2c-0.3,0.5-1,0.6-1.4,0.3s-0.6-0.9-0.3-1.4l3.8-6.4
			L55,47.1l1.6-8.4c0.1-0.8,0.9-1.3,1.7-1.1C59.1,37.7,59.6,38.4,59.4,39.2L59.4,39.2z"/>
	</g>
</g>
<g id="XMLID_15333_">
	<path id="XMLID_31519_" class="st9" d="M51.8,53c0,0-2.5,1.5-3.4,2.9"/>
</g>
<path id="XMLID_29904_" class="st9" d="M52.1,53.6c0,0-2.4,1.7-3.2,3.3"/>
<path id="XMLID_27256_" class="st9" d="M49.8,53.1c0,0,1.2-1,1.9-0.1"/>
<path id="XMLID_15982_" class="st8" d="M45.7,82.8h-2L43,61.1c0-0.6,0.4-1.1,1-1.3l17.8-5.2l-14.4,8.6L45.7,82.8z"/>
<polygon id="XMLID_15446_" class="st6" points="45.6,85.6 43.5,85.6 43.5,81.1 45.9,81.1 "/>
<path id="XMLID_15989_" class="st10" d="M49.1,82.8h-1.9l-1.5-21.5c0-0.7,0.4-1.3,1.1-1.4l17.1-5.3L62.3,63L50,63.2L49.1,82.8z"/>
<polygon id="XMLID_15988_" class="st6" points="49.1,85.6 47.2,85.6 47.1,81.1 49.1,81.1 "/>
<path class="st4" d="M56.4,51.3c0,0,2.3,1.3,5.5,1.2c3.3-0.1,5.5-1.5,5.5-1.5L56.4,51.3z"/>
<path class="st4" d="M57.8,35.9C57.8,35.9,57.8,35.8,57.8,35.9c-1.1,0.7-1.8,1.9-1.7,3.8C56,37.8,56.8,36.6,57.8,35.9z"/>
<path class="st6" d="M66.7,42.1l0.7,8.8l-11,0.4l-0.2-8.2c-0.4-0.3-0.6-0.7-0.5-1.1c0.2-1.2,0.4-2.8,0.5-4.1c0.1-3.1,6.7-3,6.8-3.4
	c1.3,0.2,2.9,1,3.4,2.3c0.5,1.2,1.7,4.5,1.7,4.5L66.7,42.1z"/>
<path class="st11" d="M62.3,34.5c-1,0-3,0.3-4.4,1.3l0,0C59.3,34.8,61.3,34.6,62.3,34.5z"/>
<path class="st11" d="M60.1,37.4c0,0,2.7-1.9,2.9-2.9l0,0c0,0-0.2,0-0.6,0c-1,0-3,0.3-4.4,1.3C58.2,36.3,60.1,37.4,60.1,37.4z"/>
<g id="XMLID_15995_">
	<g id="XMLID_32986_">
		<path id="XMLID_32987_" class="st7" d="M56.3,48.7l0.1-0.9c0.7-0.2,2.6-0.7,5.6-0.4c3.3,0.3,5.3,1.6,5.7,1.9l-0.1,0.8
			C66.5,49.5,57.5,48.5,56.3,48.7z"/>
	</g>
	<g id="XMLID_15991_">
		<path id="XMLID_32985_" class="st12" d="M50,56.5c2.5-2.4,5.1-5.5,6.2-7.8c0,0,2-0.8,5.7-0.5c1.4,0.1,4.4,0.5,5.4,1.7
			c0.4,0.5,0.7,12.4,0.3,13.5C66.7,65.9,48.4,58,50,56.5z"/>
	</g>
</g>
<path id="XMLID_32979_" class="st7" d="M57.6,21.8l-4.8,9.6c-0.9,1.8,0.5,3.8,2.5,3.7l11.1-0.7c2-0.1,3.1-2.3,2-4l-6.2-9.2
	L57.6,21.8z"/>
<g id="XMLID_32976_">
	<path id="XMLID_32978_" class="st7" d="M57.9,21.8c-0.1-1.3,0.9-2.5,2.3-2.6c1.3-0.1,2.7,0.8,2.7,2.8C62.9,23.3,58,23.1,57.9,21.8z
		"/>
</g>
<g id="XMLID_33194_">
	<g>
		<path id="XMLID_33193_" class="st10" d="M61.8,35.4v-2.9h-3v2.9C58.8,36.2,61.9,36.2,61.8,35.4z"/>
	</g>
	<g>
		<defs>
			<path id="SVGID_1_" d="M61.8,35.4v-2.9h-3v2.9C58.8,36.2,61.9,36.2,61.8,35.4z"/>
		</defs>
		<clipPath id="SVGID_2_">
			<use xlink:href="#SVGID_1_"  style="overflow:visible;"/>
		</clipPath>
		<path id="XMLID_32969_" class="st13" d="M62.2,34.5c-2.2,0.7-3.7-0.6-3.7-0.6l-0.1-2.2l3.7-0.2L62.2,34.5z"/>
	</g>
</g>
<path class="st10" d="M64,29c0.2,2.3-1.6,4.3-3.9,4.5h-0.3c-2.3,0.2-4.3-1.6-4.5-3.9l-0.2-3.8v-0.1c-0.1-1.7,0.8-3.2,2.2-3.9
	c0.4-0.2,2-0.6,2-0.6c2.3-0.2,4.2,1.5,4.5,3.8v0.1L64,29z"/>
<g id="XMLID_32958_">
	<path class="st7" d="M63.9,25c-0.5,0.2-4.2,0.6-5.9-1.5c-0.6,1.1-1.7,2-2.9,2.3c0,0-0.6-2.7,2.1-4C60.8,19.9,63.8,22.2,63.9,25z"/>
</g>
<g id="XMLID_32961_">
	<path id="XMLID_32967_" class="st6" d="M58.5,30.1L58.5,30.1c0.2,0,0.3-0.1,0.3-0.3l-0.1-2.1c0-0.2-0.1-0.3-0.3-0.3l0,0
		c-0.2,0-0.3,0.1-0.3,0.3l0.1,2.1C58.2,30,58.4,30.1,58.5,30.1z"/>
</g>
<ellipse id="XMLID_15363_" transform="matrix(0.8764 -0.4817 0.4817 0.8764 -7.3681 32.7022)" class="st6" cx="60" cy="30.7" rx="0.7" ry="0.4"/>
<path id="XMLID_15204_" class="st14" d="M58.6,31c0,0,1.6,0.2,2.4-1.3"/>
<path id="XMLID_32965_" class="st15" d="M60.1,28.8L60.1,28.8c0.2,0,0.3-0.2,0.3-0.3v-0.4c0-0.2-0.2-0.3-0.3-0.3l0,0
	c-0.2,0-0.3,0.2-0.3,0.3v0.4C59.8,28.7,59.9,28.9,60.1,28.8z"/>
<path id="XMLID_32966_" class="st15" d="M56.9,29.1L56.9,29.1c0.2,0,0.3-0.2,0.3-0.3v-0.4c0-0.2-0.2-0.3-0.3-0.3l0,0
	c-0.2,0-0.3,0.2-0.3,0.3v0.4C56.6,28.9,56.8,29.1,56.9,29.1z"/>
<path id="XMLID_32963_" class="st7" d="M57.3,27.2l-1.7,0.2c-0.1,0-0.2-0.1-0.2-0.2l0,0c0-0.1,0.1-0.2,0.2-0.2l1.7-0.3
	c0.1,0,0.2,0.1,0.3,0.2V27C57.5,27.1,57.5,27.2,57.3,27.2z"/>
<path id="XMLID_32964_" class="st7" d="M59.6,27.1h1.7c0.1,0,0.2-0.1,0.2-0.2l0,0c0-0.1-0.1-0.2-0.2-0.2l-1.7-0.1
	c-0.1,0-0.2,0.1-0.2,0.2v0.1C59.4,27,59.5,27.1,59.6,27.1z"/>
<rect id="XMLID_22_" x="60.2" y="67.1" class="st16" width="8.4" height="16.7"/>
<rect id="XMLID_20_" x="58.9" y="83.8" class="st17" width="11" height="1.6"/>
<path id="XMLID_21_" class="st1" d="M82,31.1c-0.2-1.2,0-3.8-0.9-4.7c-2.7-2.8-3.1,4.7-3,5.8c0,3.8-1.8,7.9-2.9,11.4
	c-1.3,3.9-2.6,7.8-3.1,11.9c-0.3,2.6,0.5,6.7-2.9,7.4c-0.9,0.2-2,0-2.9,0c-4.1,0-8.3,0-12.4,0c-0.8,0-2.7-0.3-3,0.6
	c-0.7,2.4,5,3.7,6.3,3.8c3.4,0.2,18,0.9,19.3-2.7c1.5-4.2,1.7-9.3,2.6-13.7C80.4,44.6,82.8,37.6,82,31.1z"/>
<g id="XMLID_24_">
	<path id="XMLID_93_" class="st17" d="M51.6,64c4.2,0,8.3,0,12.5,0c1.7,0,3.6,0.2,5.3,0c3.6-0.5,3-4.1,3.2-6.9
		c0.4-5.1,2.3-9.8,3.7-14.6c0.7-2.3,1.5-4.7,2.1-7c0.9-3-0.5-7.1,1.5-9.7c-3.1,0.2-2,7.6-2.4,9.5c-0.6,2.2-1.3,4.4-2,6.6
		c-1.5,4.9-3.4,9.6-3.8,14.7c-0.2,2.6,0.3,5.8-3.1,6.2c-1.9,0.3-4,0-6,0c-2.6,0-5.2,0-7.8,0c-0.7,0-4.9-0.5-4.1,1.3
		C51.2,64.2,51.4,64.1,51.6,64z"/>
</g>
<path id="XMLID_4_" class="st18" d="M73.3,54.5H62.2c-1.5,0-2.7,1.2-2.7,2.7v7.1"/>
<rect id="XMLID_3_" x="61.8" y="53.5" class="st2" width="9.1" height="1.8"/>
<g id="XMLID_108_">
	<path class="st10" d="M67.5,41.7c0.3,0.5,0.5,0.8,0.7,1.2l0.6,1.2c0.4,0.8,0.7,1.6,1.1,2.3v0.1c0.2,0.4,0.1,0.8,0,1.1
		c-0.6,1.1-1.2,2.2-1.8,3.3c-0.6,1.1-1.3,2.2-1.9,3.3l-1.4-0.7c0.4-1.2,0.9-2.4,1.4-3.6c0.5-1.2,1-2.3,1.5-3.5v1.1
		c-0.4-0.8-0.8-1.5-1.2-2.3L65.9,44l-0.6-1L67.5,41.7z"/>
</g>
<g id="XMLID_15205_">
	<path id="XMLID_33019_" class="st19" d="M65,53.3c0,0-0.9,1.8-2.3,2.1"/>
</g>
<path id="XMLID_25341_" class="st19" d="M65.4,53.8c0,0-1.2,2.2-2.1,2.6"/>
<path id="XMLID_25340_" class="st19" d="M63.2,53.1c0,0,1-0.4,1.8,0.2"/>
<path id="XMLID_15340_" class="st19" d="M65.9,54c0,0-0.6,2.1-1.5,2.8"/>
<polygon id="XMLID_32089_" class="st7" points="64.7,40.4 65.8,42.7 64.9,43.3 63.6,39.4 "/>
<path class="st7" d="M49.2,84.3v1.3h-9l0,0c0-0.7,0.6-1.2,1.3-1.2h7.7V84.3z"/>
</svg>
