<?xml version="1.0" encoding="utf-8"?>
<!-- Generator: Adobe Illustrator 21.0.0, SVG Export Plug-In . SVG Version: 6.00 Build 0)  -->
<svg version="1.1" id="Layer_1" xmlns="http://www.w3.org/2000/svg" xmlns:xlink="http://www.w3.org/1999/xlink" x="0px" y="0px"
	 viewBox="0 0 100 100" style="enable-background:new 0 0 100 100;" xml:space="preserve">
<style type="text/css">
	.st0{fill:none;stroke:#F2AB81;stroke-width:4;stroke-miterlimit:10;}
	.st1{fill:#F2AB81;}
	.st2{fill:#6A78B9;}
	.st3{display:none;fill:none;stroke:#EA8A31;stroke-width:0.5956;stroke-miterlimit:10;}
	.st4{fill:none;}
	.st5{fill:#DC4F26;}
	.st6{fill:#5A2F49;}
	.st7{fill:#E28865;}
	.st8{fill:#E35B29;}
	.st9{fill:#423894;}
	.st10{fill:#F29821;}
	.st11{fill:#D74F28;}
	.st12{fill:#EC5C2D;}
	.st13{fill:#E98C23;}
	.st14{fill:none;stroke:#F2AC81;stroke-width:1.0966;stroke-linecap:round;stroke-linejoin:round;stroke-miterlimit:10;}
	.st15{fill:#C04227;}
</style>
<line class="st0" x1="33.8" y1="49.6" x2="41" y2="39.5"/>
<line class="st0" x1="58.1" y1="37.3" x2="66.3" y2="49.8"/>
<g id="XMLID_1674_">
	<g id="XMLID_1680_">
		<polygon class="st1" points="61.3,60.7 57.8,90 51.1,90 51.4,58.8 		"/>
	</g>
	<g id="XMLID_1675_">
		<polygon class="st1" points="49.9,90 43.2,90 39.6,60.7 49.6,58.8 		"/>
	</g>
</g>
<path id="XMLID_523_" class="st2" d="M65.9,73.6c-3.2-4-5.7-10.3-6.9-14l-16.9-0.1c-1.5,3.6-4.1,9.3-7.6,13.1
	c-3.1,3.4,10,7.1,16.1,7.5C55.7,80.4,68.8,77.2,65.9,73.6z"/>
<path id="XMLID_85_" class="st3" d="M61,82.3c0,0-3.3,1.4-8.9,1.6"/>
<g id="XMLID_30_">
</g>
<rect x="10" y="10" class="st4" width="80" height="80"/>
<path id="XMLID_541_" class="st5" d="M40.8,34.3c-1.3,1.5-3.3,5.3-5,7.4c-1.3,1.7,3.4,4.7,3.3,4.4L46.6,35
	C46.1,34.3,42.2,32.8,40.8,34.3z"/>
<path id="XMLID_544_" class="st5" d="M59.2,34.3c1.3,1.5,3.3,5.3,5,7.4c1.3,1.7-3.4,4.7-3.3,4.4l-8.4-12
	C53,33.4,57.8,32.8,59.2,34.3z"/>
<path id="XMLID_1690_" class="st6" d="M53.6,10.4l8.9,15.4c1.6,2.7-0.4,6.2-3.6,6.2H41.2c-3.2,0-5.1-3.4-3.6-6.2l8.9-15.4
	C48.1,7.7,52.1,7.7,53.6,10.4z"/>
<path id="XMLID_1671_" class="st6" d="M54,11.1c0-2.2-1.8-3.9-3.9-3.9c-2.2,0-3.9,1.8-3.9,3.9S54,13.2,54,11.1z"/>
<path id="XMLID_1670_" class="st2" d="M55.2,14.1c0-2.8-2.3-5.1-5.1-5.1S45,11.3,45,14.1C45,16.9,55.2,16.9,55.2,14.1z"/>
<path id="XMLID_1665_" class="st1" d="M47.7,33.1v-5.8h4.8v5.8C52.5,34.2,47.7,34.2,47.7,33.1z"/>
<path id="XMLID_1664_" class="st7" d="M52.6,29c0,4.4-5,0.3-5,0.3L52.6,29z"/>
<path class="st1" d="M57,17.3v5.6c0,3.8-3.1,6.9-6.9,6.9h0c-3.8,0-6.9-3.1-6.9-6.9v-5.6c0-0.2,0-0.4,0.1-0.5c2.9-7.9,11.4-5,13.6,0
	C57,16.9,57,17.1,57,17.3z"/>
<g id="XMLID_1645_">
	<path class="st6" d="M57,15.4V17c-0.3,0-0.5,0-0.8,0c-2.6,0-4.9-1.4-6.2-3.4c-1.3,2.1-3.6,3.4-6.2,3.4c-0.2,0-0.5,0-0.7,0v-1.7
		c0-3,2.4-5.4,5.4-5.4h3C54.6,10,57,12.4,57,15.4z"/>
</g>
<path id="XMLID_1662_" class="st8" d="M50.2,24.3H50c-0.2,0-0.4-0.2-0.4-0.4v-3.5c0-0.2,0.2-0.4,0.4-0.4h0.2c0.2,0,0.4,0.2,0.4,0.4
	v3.5C50.5,24.1,50.4,24.3,50.2,24.3z"/>
<path id="XMLID_1661_" class="st9" d="M52.8,22.4h-0.2c-0.2,0-0.4-0.2-0.4-0.4v-0.9c0-0.2,0.2-0.4,0.4-0.4h0.2
	c0.2,0,0.4,0.2,0.4,0.4V22C53.2,22.2,53,22.4,52.8,22.4z"/>
<path id="XMLID_1656_" class="st9" d="M47.5,22.4h-0.2c-0.2,0-0.4-0.2-0.4-0.4v-0.9c0-0.2,0.2-0.4,0.4-0.4h0.2
	c0.2,0,0.4,0.2,0.4,0.4V22C47.9,22.2,47.8,22.4,47.5,22.4z"/>
<g id="XMLID_1134_">
	<g>
		<path class="st6" d="M50.2,25.9c0.7-0.4,1.5-0.5,2.3-0.4c0.3,0,0.3-0.5,0-0.5c-0.9-0.1-1.8,0.1-2.6,0.5
			C49.7,25.6,49.9,26,50.2,25.9L50.2,25.9z"/>
	</g>
</g>
<path id="XMLID_1652_" class="st6" d="M51.9,19.5l2.7,0.5c0.2,0,0.4-0.1,0.4-0.3l0,0c0-0.2-0.1-0.3-0.3-0.4L52,18.7
	c-0.2,0-0.4,0.1-0.4,0.3v0.1C51.6,19.3,51.7,19.5,51.9,19.5z"/>
<path id="XMLID_1653_" class="st6" d="M48.1,19.7l-2.7,0.2c-0.2,0-0.4-0.1-0.4-0.3l0,0c0-0.2,0.1-0.3,0.3-0.3L48,19
	c0.2,0,0.4,0.1,0.4,0.3v0.1C48.4,19.5,48.3,19.6,48.1,19.7z"/>
<path id="XMLID_516_" class="st10" d="M55.6,34h-11c-1.5,0-2.8,1.2-2.8,2.8v12.9h16.5v-13C58.3,35.2,57.1,34,55.6,34z"/>
<g id="XMLID_515_">
	<path id="XMLID_1_" class="st11" d="M50.2,40.9"/>
	<path id="XMLID_6180_" class="st12" d="M51.9,41.3h-3.3c-2.4,0-4.3,2-4.1,4.4l0.4,4.9h10.7l0.4-4.9C56.2,43.3,54.3,41.3,51.9,41.3z
		"/>
</g>
<path id="XMLID_513_" class="st13" d="M60.1,53.4l-0.4,13.4c1.5,0,2.6-1.2,2.6-2.6v-9.3C62.3,54.1,61,53.4,60.1,53.4z"/>
<path id="XMLID_512_" class="st13" d="M40,53.4c-1.5,0-2.1,1.2-2.1,2.6v8.1c0,1.5,1.2,2.6,2.6,2.6L40,53.4z"/>
<path id="XMLID_514_" class="st10" d="M60.1,45.5h-20v19.4c0,3,2.4,5.4,5.4,5.4h9.1c3,0,5.4-2.4,5.4-5.4L60.1,45.5z"/>
<g id="XMLID_506_">
	<path id="XMLID_509_" class="st13" d="M53.3,67.8h-6.6c-2.3,0-4.2-1.9-4.2-4.2v-2.4c0-2.3,1.9-4.2,4.2-4.2h6.6
		c2.3,0,4.2,1.9,4.2,4.2v2.4C57.5,65.9,55.7,67.8,53.3,67.8z"/>
	<path id="XMLID_507_" class="st8" d="M57.5,58.4H42.6c0,0,0.5-1.4,1.1-1.4h12.8C57.1,57.1,57.5,58.4,57.5,58.4z"/>
</g>
<rect id="XMLID_505_" x="40.1" y="45.5" class="st13" width="20" height="1.3"/>
<g id="XMLID_489_">
	<path id="XMLID_498_" class="st11" d="M46.6,48.2h-0.7c-0.7,0-1.3-0.6-1.3-1.3v-1.4c0-0.5,0.4-0.9,0.9-0.9H47
		c0.5,0,0.9,0.4,0.9,0.9v1.4C48,47.6,47.4,48.2,46.6,48.2z"/>
</g>
<g id="XMLID_499_">
	<path id="XMLID_500_" class="st11" d="M54.4,48.2h-0.7c-0.7,0-1.3-0.6-1.3-1.3v-1.4c0-0.5,0.4-0.9,0.9-0.9h1.6
		c0.5,0,0.9,0.4,0.9,0.9v1.4C55.8,47.6,55.2,48.2,54.4,48.2z"/>
</g>
<path id="XMLID_24742_" class="st14" d="M45.6,57c0,0-1.6-0.4-2.2,0.7"/>
<path id="XMLID_32564_" class="st14" d="M43.2,57.8c0,0,3.1,2.1,4.8,2.6"/>
<path id="XMLID_24741_" class="st14" d="M42.5,59.2c0,0,2.6,2.9,3.9,3.5"/>
<path id="XMLID_32469_" class="st14" d="M42.9,58.6c0,0,3.8,3,4.9,3.3"/>
<g id="XMLID_486_">
	<g id="XMLID_487_">
		<path class="st1" d="M34.7,48.3l9.2,8.8c0.7,0.6,0.7,1.7,0.1,2.4c-0.6,0.7-1.7,0.7-2.3,0.1L32.2,51c-0.8-0.7-0.8-1.8-0.1-2.6
			C32.7,47.7,33.9,47.6,34.7,48.3L34.7,48.3z"/>
	</g>
</g>
<g id="XMLID_24738_">
	<path id="XMLID_24740_" class="st14" d="M42.2,59.7c0,0,1.3,2.5,2.6,3.4"/>
</g>
<g id="XMLID_467_">
	<g id="XMLID_485_">
		<path class="st1" d="M67.9,51l-9.4,8.5c-0.7,0.6-1.7,0.6-2.4-0.1c-0.6-0.7-0.6-1.7,0.1-2.3l9.2-8.8c0.7-0.7,1.9-0.7,2.6,0.1
			S68.6,50.3,67.9,51L67.9,51z"/>
	</g>
</g>
<path id="XMLID_483_" class="st14" d="M56.8,57.8c0,0-3.1,2.1-4.8,2.6"/>
<path id="XMLID_479_" class="st14" d="M57.1,58.6c0,0-3.8,3-4.9,3.3"/>
<path id="XMLID_471_" class="st14" d="M54.5,57c0,0,1.6-0.4,2.2,0.7"/>
<path id="XMLID_469_" class="st14" d="M57.9,59.7c0,0-1.3,2.5-2.6,3.4"/>
<g id="XMLID_468_">
	<path id="XMLID_470_" class="st14" d="M57.5,59.2c0,0-2.6,2.9-3.9,3.5"/>
</g>
<g id="XMLID_466_">
	<path id="XMLID_3033_" class="st6" d="M54.8,40c0,2.9-2.4,4.1-4.5,4.1c-2,0-4.5-1.1-4.5-4.1C45.7,37.1,54.8,37.1,54.8,40z"/>
</g>
<g id="XMLID_460_">
	<path id="XMLID_465_" class="st12" d="M48,33.9c-0.2-2.2-1.9-3.9-1.9-3.9s-1.4,1.9-1.3,4.1s1.9,3.9,1.9,3.9S48.2,36.1,48,33.9z"/>
	<path id="XMLID_464_" class="st15" d="M45.7,34.1c-0.1-0.9,0.2-1.8,0.5-2.5c0.4,0.6,0.8,1.4,0.9,2.4C47.2,34.9,45.8,35,45.7,34.1z"
		/>
</g>
<g id="XMLID_458_">
	<path id="XMLID_459_" class="st6" d="M53,32.9c1.6-1.5,4-1.5,4-1.5s-0.3,2.4-1.9,3.9S51.3,34.4,53,32.9z"/>
</g>
<g id="XMLID_456_">
	<path id="XMLID_457_" class="st12" d="M55.3,38.8c0,3.3-2.6,4.5-5.1,4.5c-2.2,0-5.1-1.3-5.1-4.5c0-3.3,1-6.5,5.1-6.5
		C54.5,32.4,55.3,35.6,55.3,38.8z"/>
</g>
<g id="XMLID_446_">
	<ellipse id="XMLID_455_" class="st6" cx="53.2" cy="37.7" rx="0.6" ry="0.9"/>
</g>
<ellipse id="XMLID_454_" class="st6" cx="47.5" cy="37.7" rx="0.6" ry="0.8"/>
<path id="XMLID_445_" class="st9" d="M50.3,40.1c0.7,0,1.3-0.7,1.4-1.2c0-0.5-1-0.5-1.4-0.5s-1.4,0-1.4,0.5
	C49,39.4,49.7,40.1,50.3,40.1z"/>
<g id="XMLID_444_">
	<g>
		<path class="st6" d="M47.7,40.7c0.5,0.7,1.3,1.1,2.2,1c0.3,0,0.3-0.4,0-0.4c-0.7,0-1.4-0.2-1.8-0.8C47.9,40.3,47.5,40.5,47.7,40.7
			L47.7,40.7z"/>
	</g>
</g>
</svg>
