<?xml version="1.0" encoding="utf-8"?>
<!-- Generator: Adobe Illustrator 21.0.0, SVG Export Plug-In . SVG Version: 6.00 Build 0)  -->
<svg version="1.1" id="Layer_1" xmlns="http://www.w3.org/2000/svg" xmlns:xlink="http://www.w3.org/1999/xlink" x="0px" y="0px"
	 viewBox="0 0 100 100" style="enable-background:new 0 0 100 100;" xml:space="preserve">
<style type="text/css">
	.st0{display:none;fill:none;stroke:#EA8A31;stroke-width:0.5956;stroke-miterlimit:10;}
	.st1{fill:none;}
	.st2{fill:#E28865;}
	.st3{fill:#5A2F49;}
	.st4{fill:#E35B29;}
	.st5{fill:#423894;}
	.st6{fill:#F2AB81;}
	.st7{fill:none;stroke:#5A2F49;stroke-width:0.4724;stroke-linecap:round;stroke-linejoin:round;stroke-miterlimit:10;}
	.st8{fill:#EB9871;}
	.st9{fill:none;stroke:#5A2F49;stroke-width:1.314;stroke-miterlimit:10;}
	.st10{fill:#E98C23;}
	.st11{fill:#F29821;}
	.st12{fill:#6A78B9;}
	.st13{fill:#D14E28;}
	.st14{fill:none;stroke:#5A2F49;stroke-width:0.5961;stroke-linecap:round;stroke-linejoin:round;stroke-miterlimit:10;}
	.st15{fill:none;stroke:#F2AC81;stroke-width:1.5353;stroke-linecap:round;stroke-linejoin:round;stroke-miterlimit:10;}
</style>
<path id="XMLID_85_" class="st0" d="M61,82.3c0,0-3.3,1.4-8.9,1.6"/>
<g id="XMLID_30_">
</g>
<rect x="10" y="10" class="st1" width="80" height="80"/>
<g>
	<g id="XMLID_138_">
		<path class="st2" d="M68,44c-3.1,4.7-6.1,9.6-8.9,14.6L59,58.7c-0.6,1.1-1.9,1.5-3.1,1.1l-19.6-7c-1.1-0.4-1.7-1.6-1.3-2.7
			c0.4-1.1,1.5-1.6,2.6-1.3l20,6.1l-3.1,1.2c1.4-2.6,2.8-5.1,4.2-7.7c1.4-2.5,2.9-5.1,4.5-7.6c0.9-1.4,2.6-1.8,4-0.9
			S68.9,42.6,68,44C68.1,43.9,68,44,68,44L68,44z"/>
	</g>
	<path id="XMLID_24928_" class="st3" d="M47.8,62.2L47.8,62.2c-1.4,0.3-2.7-0.6-3.1-1.9l2.5-8.4l2.5,7.5
		C49.9,60.7,49.1,62,47.8,62.2z"/>
	<path id="XMLID_141_" class="st4" d="M79.8,16.7c5.1,7.7-2,27.2-2,27.2H61.1c0,0-7-19.6-2-27.2S74.7,9.1,79.8,16.7z"/>
	<path id="XMLID_15006_" class="st3" d="M36.3,68.7L36.3,68.7C34.9,68.9,35,56.4,35,56.4l3.5,9.7C38.6,67.4,37.6,68.5,36.3,68.7z"/>
	<g id="XMLID_24923_">
		<g id="XMLID_24924_">
			<g>
				<path class="st4" d="M26.2,59.8c-3.5,0.9-6-0.5-7.4-1.7c-0.8-0.7-1.3-1.3-1.3-1.3l1.6,0.6c-2.5-2.4-2.5-5.5-2.5-5.5
					c1.2,1.2,2.5,2.1,3.8,2.7c2,0.9,3.8,1.2,4.9,1.2c0.8,0,1.3,0,1.3,0S27.4,59.1,26.2,59.8z"/>
			</g>
		</g>
	</g>
	<path id="XMLID_24921_" class="st3" d="M40.3,33.6c-0.1-2.5-2-4.5-2-4.5s-1.7,2.1-1.6,4.6C36.8,36.3,40.4,36.1,40.3,33.6z"/>
	<path class="st4" d="M46.5,42.1l-10,2.1c-0.1-1.1-1.3-10.2,1.4-10.5c0,0,4.4-1.6,4.8-1.6c1.1,0,2.1,0.6,2.7,1.5l3.8-1.5l0.5,1.4
		C50.9,36.5,49.4,40.5,46.5,42.1z"/>
	<path id="XMLID_24919_" class="st4" d="M37.9,34.1c-0.1-2.5-2-4.5-2-4.5s-1.7,2.1-1.6,4.6c0.1,2.5,2,4.5,2,4.5S38,36.6,37.9,34.1z"
		/>
	<path id="XMLID_24917_" class="st5" d="M49.3,34l0.6-0.2l-0.7-1.7l-2,0.8V33C47.4,33.9,48.4,34.3,49.3,34z"/>
	
		<ellipse id="XMLID_24915_" transform="matrix(0.9308 -0.3655 0.3655 0.9308 -9.8604 18.3419)" class="st3" cx="43.5" cy="35.2" rx="0.7" ry="1"/>
	<path id="XMLID_105_" class="st6" d="M46.1,40.1L46.1,40.1c-0.5,0-0.8-0.4-0.8-0.8v-1.1c0-0.1,0-0.1,0.1-0.1h1.4
		c0.1,0,0.1,0,0.1,0.1v1.1C46.8,39.8,46.5,40.1,46.1,40.1z"/>
	<path id="XMLID_24914_" class="st7" d="M47.4,37.5c-1,1.3-2.3,0.5-2.3,0.5"/>
	<path class="st4" d="M45.1,56.5c0,0-8.9,5.1-15.1,5.1c-1.5-0.1-2.9-0.6-3.8-1.8c-0.3-0.5-1-3.4-0.9-4.2c0-0.8,0.2-1.5,0.4-2.1
		c0,0,7.4-9.4,11.7-10.7c1.2-0.5,9.8,0.1,9.8,0.1L45.1,56.5z"/>
	<path id="XMLID_24908_" class="st4" d="M46.1,64.7L46.1,64.7c-1.4,0.3-2.7-0.6-3.1-1.9l-2-6.5l4.1-7.3L48,61.8
		C48.2,63.1,47.4,64.4,46.1,64.7z"/>
	<path id="XMLID_15005_" class="st4" d="M34.7,71.9L34.7,71.9c-1.4,0.2-2.7-0.8-2.9-2.2l-2.6-12.6l5.9-0.9l1.7,12.9
		C36.9,70.6,35.9,71.7,34.7,71.9z"/>
	<g id="XMLID_24904_">
		<path class="st5" d="M34.5,49.3c-1,0.7-7.4,4.4-8.7,4.3c0.1-0.3,0.2-0.6,0.3-0.8c1.5-3.9,5.6-6.8,8.8-8.5c0.2,0.2,0.3,0.4,0.4,0.5
			C36.3,46.2,35.9,48.2,34.5,49.3z"/>
	</g>
	<g id="XMLID_24901_">
		<path class="st8" d="M47.6,50.3l-1.5,3.6C46,53.4,45,47.1,45,47c-0.1-1.3,0.4-2.5,1.2-3.3c0.3-0.3,0.8-0.5,1.2-0.7l0.8,3.8
			C48.4,47.9,48.1,49.1,47.6,50.3z"/>
	</g>
	<path id="XMLID_24900_" class="st9" d="M32.6,38.4c0,0,2.6,8.2,14.9,4"/>
	<g id="XMLID_71_">
		<g>
			<rect id="XMLID_72_" x="65.1" y="34" class="st6" width="5.9" height="6.1"/>
		</g>
	</g>
	<path id="XMLID_136_" class="st5" d="M60.5,42.2c-0.8,1.5-3.7,8.5-3.7,8.5s7.2,3.1,8.7,1.8C66.7,51.5,64.5,34.9,60.5,42.2z"/>
	<polygon class="st10" points="77.5,69 77.2,90 63.6,90 62.2,76.6 	"/>
	<polygon class="st11" points="77.4,68.8 72.7,90 57.4,90 60.2,68.8 	"/>
	<path id="XMLID_75_" class="st12" d="M70,38.6h-2.5c-4.1,0-7.5,3.4-7.5,7.5V69h17.5V46.1C77.5,42,74.1,38.6,70,38.6z"/>
	<path id="XMLID_67_" class="st6" d="M65.7,36.4h1.1c4,0,7.3-3.3,7.3-7.3v-8.9c0-4-3.3-7.3-7.3-7.3h-1.1c-4,0-7.3,3.3-7.3,7.3v8.9
		C58.4,33.2,61.7,36.4,65.7,36.4z"/>
	<path id="XMLID_66_" class="st4" d="M63.5,30.1c0.2,0,0.4-0.2,0.4-0.4v-4c0-0.2-0.2-0.4-0.4-0.4c0,0-0.6-0.1-0.6,0.4v4
		C62.9,30.1,63.5,30.1,63.5,30.1z"/>
	<path id="XMLID_65_" class="st13" d="M65.8,24.5l3.5,0.4c0-0.2-3.3-1.4-3.3-1.4c-0.2-0.1-0.5,0.1-0.5,0.3
		C65.5,23.9,65.6,24.5,65.8,24.5z"/>
	<path id="XMLID_64_" class="st13" d="M62,24.7l-3,0.5c-0.2,0-0.5-0.3-0.5-0.3c0-0.2,3.3-1.1,3.3-1.1c0.2-0.1,0.5,0.1,0.5,0.3v0.2
		C62.4,24.4,62.2,24.6,62,24.7z"/>
	<path id="XMLID_59_" class="st14" d="M63.5,31.5c0,0,2.6,0.3,3.2-1.6c0,0,0.6,2.1-1.7,2.5"/>
	<g id="XMLID_54_">
		<path class="st6" d="M76.6,44.1c-3.1,4.7-6.1,9.6-8.9,14.6l-0.1,0.1c-0.6,1.1-1.9,1.5-3.1,1.1l-19.6-7c-1.1-0.4-1.7-1.6-1.3-2.7
			c0.4-1.1,1.5-1.6,2.6-1.3l20,6.1l-3.1,1.2c1.4-2.6,2.8-5.1,4.2-7.7c1.4-2.5,2.9-5.1,4.5-7.6c0.9-1.4,2.6-1.8,4-0.9
			S77.5,42.6,76.6,44.1C76.6,44,76.6,44,76.6,44.1L76.6,44.1z"/>
	</g>
	<path id="XMLID_46_" class="st5" d="M77.5,41.5c-3.6-7.9-13.3,5.1-11.7,8.9c0.5,1.2,10.3,4.6,11.3,4.1
		C79.2,53.4,78.5,43.8,77.5,41.5z"/>
	<path id="XMLID_44_" class="st4" d="M58.6,22.8c7.4-0.6,9.4-6.4,9.4-6.4s1.2,6.7,6.2,9.1L74,16.7c-0.5-2.4-5.9-4.8-5.9-4.8
		c-2.2-0.3-4.4,0-6.3,1c-5.7,3-6.1,10.1-6.1,10.1L58.6,22.8z"/>
	<g id="XMLID_43_">
		<g>
			<path class="st3" d="M65.8,12.2c6.5,1,9.9,6.7,8.8,13c-0.1,0.5,0.7,0.8,0.8,0.2c1.2-6.7-2.4-13-9.4-14
				C65.5,11.3,65.3,12.1,65.8,12.2L65.8,12.2z"/>
		</g>
	</g>
	<path id="XMLID_41_" class="st12" d="M70.4,24.4c-0.2-0.3-0.8-0.7-1.8-0.7c-1.2,0-2.7,0.5-3.4,1c-0.6,0.4-1,1-1.1,1.7
		c-0.2-0.1-0.4-0.1-0.6-0.1c-0.2,0-0.5,0-0.6,0.1c-0.1-0.6-0.5-1.2-1.1-1.7c-0.7-0.5-2.2-1-3.4-1c-1.1,0-1.6,0.4-1.8,0.7
		c-1,1.4,0.9,4,2,4.8c0.5,0.3,1,0.5,1.6,0.5c0.9,0,1.8-0.4,2.3-1.2c0.3-0.5,0.5-1,0.5-1.6c0-0.1,0.2-0.2,0.6-0.2
		c0.4,0,0.6,0.1,0.6,0.2l0,0l0,0c0,0.5,0.2,1.1,0.5,1.6c0.5,0.7,1.4,1.2,2.3,1.2c0.6,0,1.1-0.2,1.6-0.5
		C69.5,28.4,71.4,25.8,70.4,24.4z"/>
	<path id="XMLID_40_" class="st5" d="M62,28.3c-0.6,0.9-1.8,1.1-2.7,0.5s-2.3-2.7-1.7-3.6s3.1-0.2,4,0.4
		C62.4,26.2,62.6,27.4,62,28.3z"/>
	<path id="XMLID_39_" class="st5" d="M64.9,28.3c0.6,0.9,1.8,1.1,2.7,0.5c0.9-0.6,2.3-2.7,1.7-3.6c-0.6-0.9-3.1-0.2-4,0.4
		C64.5,26.2,64.3,27.4,64.9,28.3z"/>
	<path id="XMLID_52_" class="st15" d="M46.6,49.6c0,0-4.9-1.6-7-3"/>
	<path id="XMLID_51_" class="st15" d="M45.9,50.6c0,0-6.6-1.7-7.8-2.5"/>
	<path id="XMLID_50_" class="st15" d="M45.4,46.3c0,0,1.8,1.4,1.2,3.1"/>
	<path id="XMLID_49_" class="st15" d="M45.6,51.6c0,0-5.4-0.4-7.3-1.3"/>
	<path id="XMLID_48_" class="st15" d="M45.3,52.4c0,0-3.9,0.7-6,0.1"/>
</g>
<path class="st5" d="M20.4,54.5c-0.2,1.3-0.8,2.6-1.6,3.6c-0.8-0.7-1.3-1.3-1.3-1.3l1.6,0.6c-2.5-2.4-2.5-5.5-2.5-5.5
	C17.9,53.1,19.2,54,20.4,54.5z"/>
</svg>
