<?xml version="1.0" encoding="utf-8"?>
<!-- Generator: Adobe Illustrator 21.0.0, SVG Export Plug-In . SVG Version: 6.00 Build 0)  -->
<svg version="1.1" id="Layer_1" xmlns="http://www.w3.org/2000/svg" xmlns:xlink="http://www.w3.org/1999/xlink" x="0px" y="0px"
	 viewBox="0 0 100 100" style="enable-background:new 0 0 100 100;" xml:space="preserve">
<style type="text/css">
	.st0{display:none;fill:none;stroke:#EA8A31;stroke-width:0.5956;stroke-miterlimit:10;}
	.st1{fill:none;}
	.st2{fill:#F2AB81;}
	.st3{fill:#E35B29;}
	.st4{fill:#423894;}
	.st5{fill:#E98C23;}
	.st6{fill:#F29821;}
	.st7{fill:#6A78B9;}
	.st8{fill:#5A2F49;}
	.st9{fill:none;stroke:#5A2F49;stroke-width:1.339;stroke-miterlimit:10;}
	.st10{fill:none;stroke:#5A2F49;stroke-width:0.35;stroke-linecap:round;stroke-linejoin:round;stroke-miterlimit:10;}
	.st11{fill:none;stroke:#F2AB81;stroke-width:1.3589;stroke-linecap:round;stroke-linejoin:round;stroke-miterlimit:10;}
	.st12{fill:none;stroke:#F2AB81;stroke-width:1.3341;stroke-linecap:round;stroke-linejoin:round;stroke-miterlimit:10;}
	.st13{fill:#D14E28;}
	.st14{fill:none;stroke:#5A2F49;stroke-width:0.6493;stroke-linecap:round;stroke-linejoin:round;stroke-miterlimit:10;}
</style>
<path id="XMLID_85_" class="st0" d="M61,82.3c0,0-3.3,1.4-8.9,1.6"/>
<g id="XMLID_30_">
</g>
<rect x="10" y="10" class="st1" width="80" height="80"/>
<g id="XMLID_27_">
	<path class="st2" d="M36,50.8L25,32.7l3-1.7l10.2,14.2L53,42.3l1,5.4C54,47.7,36.5,51.6,36,50.8z"/>
</g>
<path id="XMLID_141_" class="st3" d="M67.6,16.7c5.1,7.7-2,27.2-2,27.2H48.9c0,0-7-19.6-2-27.2S62.5,9.1,67.6,16.7z"/>
<path id="XMLID_136_" class="st4" d="M50.9,40.9c-1.7,0.2-9.1,1.9-9.1,1.9s1.6,7.7,3.5,8.2C46.9,51.4,59.1,40,50.9,40.9z"/>
<g id="XMLID_71_">
	<g>
		<rect id="XMLID_72_" x="52.9" y="34" class="st2" width="5.9" height="6.1"/>
	</g>
</g>
<polygon class="st5" points="65.3,69 65,90 51.4,90 "/>
<polygon class="st6" points="65.2,68.8 60.5,90 45.2,90 48,68.8 "/>
<path id="XMLID_75_" class="st7" d="M57.8,38.6h-2.5c-4.1,0-7.5,3.4-7.5,7.5V69h17.5V46.1C65.3,42,61.9,38.6,57.8,38.6z"/>
<path class="st8" d="M45.1,77c0,0-0.8,2.2-1.8,2.6c-0.2,0-3.1,0.4-3.3-2.3V64.1L45.1,77z"/>
<path class="st8" d="M46.5,49.3c-0.2-0.4-0.3-0.9-0.3-1.3c-0.2-2,0.4-3.7,0.4-3.7s1.8,1,2.8,2.7c0.2,0.3,0.4,0.7,0.5,1.1
	C50.8,50.4,47.4,51.7,46.5,49.3z"/>
<path class="st3" d="M64.2,73.8c-1.4,4.1-5.6,6-10,6l-6.9-0.5c0,0,1.4-2.9,1.6-2.9c-0.7-0.8-1.8-2.1-1.8-2.1s0.1,3.9-1,5
	s-2.2,1-3.1,0.3C42.2,79,41.9,78,41.8,77c-0.2-2.9-1.6-18.4-1.8-19.1c-0.6-1.6-2.6-2.2-3.4-4c-1.1-2.7-0.2-5.3,0-5.9
	c0.9,0.2,3.8,1.2,4,1.1c0.5-0.2,1.1-1.4,1.8-1.7c0.9-0.3,2.3-0.1,3.7,0.2c1.1,0.3,2.2,0.7,2.9,1c0-0.6,0.2-1.2,0.4-1.8
	c0.4-1,1-2,1.8-2.8c0.7,1,1.3,2.3,1.4,3.6c0.1,1,0,2-0.4,3c-0.3,0.9-1.2,1.6-1.5,2.4c-0.3,0.9,0,4.3,0,4.3c0.3,1.5,0.3,1.4,1.6,1.8
	c3.4,1,7,2.7,9.4,5.3C62.5,65.3,66.1,68.4,64.2,73.8z"/>
<path class="st2" d="M41.5,69.4c0,0-1.5-3.4-1.6-4.4l0,0c0-0.1,0-6.2,0-6.2C42.4,59.6,41.5,69.4,41.5,69.4z"/>
<path class="st3" d="M50.7,53.4L50.7,53.4z"/>
<path class="st4" d="M38.7,48.6l-0.2,0.7c-0.1,0.5-0.7,0.8-1.3,0.7L36,49.7l0,0v-0.2l0.4-1.6L38.7,48.6z"/>
<ellipse id="XMLID_1805_" transform="matrix(0.2535 -0.9673 0.9673 0.2535 -17.2888 79.104)" class="st8" cx="42.6" cy="50.8" rx="1" ry="0.7"/>
<g id="XMLID_1481_">
	<path id="XMLID_1788_" class="st9" d="M39.3,58.5c13.1,2.6,14.5-4.9,14.5-4.9"/>
</g>
<path class="st4" d="M53.5,64.2c-3.1-1.7-1.3-5-1.2-5.1c3.7,0.9,6.9,2.7,9.4,5.2C62.6,65.1,55.2,65.1,53.5,64.2z"/>
<path class="st3" d="M71.9,69.8L71.9,69.8c-1.6,3.2-6.1,3.9-7.6,4h-0.1c-0.2,0-1.5-2.9-1.7-3.9c2.3,0.1,6.8-4,6.8-4L71.9,69.8z"/>
<path class="st4" d="M72.4,67.1L72.4,67.1c0,0.4,0.1,1.7-0.5,2.7l0,0c-0.2-0.1-2.1-2.9-2.6-3.9c0.8-1,1.6-2.2,2.1-3.5
	c0,0,0.2,2.7,0,4c-0.1,0.6-0.2,1.3-0.4,1.9l0,0C71.6,68,72.1,67.6,72.4,67.1z"/>
<path id="XMLID_4_" class="st10" d="M38.4,53.3c1.4,1.4,3,0.2,3,0.2s0.3,1.9-1.7,1.7"/>
<path class="st2" d="M50.2,79.8c0,0-2.7,0.3-3-0.5c-0.5-0.9,0.4-2.1,1.2-2.7C49.3,77.4,50,78.5,50.2,79.8z"/>
<g id="XMLID_20_">
	<path class="st2" d="M62.6,44.4l2.6,19.1c0.3,1.8-1.1,3.5-2.9,3.7L48,68.7l-0.5-4.1l12.4-2.2L57,45.2C57,45.2,62.3,42.8,62.6,44.4
		C62.6,44.3,62.6,44.4,62.6,44.4z"/>
</g>
<g id="XMLID_13_">
	<path id="XMLID_19_" class="st11" d="M45.5,63.4c0,0,2.1,0,2.5,1.4"/>
	<path id="XMLID_18_" class="st11" d="M48.1,65c0,0-4.3,1.6-6.5,1.9"/>
	<path id="XMLID_17_" class="st11" d="M48.2,66.2c0,0-5.5,2.5-6.8,2.7"/>
	<path id="XMLID_16_" class="st11" d="M48.6,66.9c0,0-3.9,2.8-5.7,3.2"/>
	<path id="XMLID_15_" class="st11" d="M48.8,67.6c0,0-2.3,2.7-4,3.4"/>
</g>
<path id="XMLID_67_" class="st2" d="M54.5,36.4c4,0,7.3-3.3,7.3-7.3v-8.9c0-4-15.7-4-15.7,0v8.9C46.4,36.6,54.5,36.4,54.5,36.4z"/>
<path id="XMLID_46_" class="st4" d="M65.3,41.5c-3.6-7.9-13.3,5.1-11.7,8.9c0.5,1.2,10.3,4.6,11.3,4.1C67,53.4,66.3,43.8,65.3,41.5z
	"/>
<path id="XMLID_44_" class="st3" d="M46.4,22.8c7.4-0.6,9.4-6.4,9.4-6.4s1.2,6.7,6.2,9.1l-0.2-8.8c-0.5-2.4-5.9-4.8-5.9-4.8
	C44.7,9.7,43.6,23,43.6,23L46.4,22.8z"/>
<g id="XMLID_43_">
	<g>
		<path class="st8" d="M53.6,12.2c6.5,1,9.9,6.7,8.8,13c-0.1,0.5,0.7,0.8,0.8,0.2c1.2-6.7-2.4-13-9.4-14
			C53.3,11.3,53.1,12.1,53.6,12.2L53.6,12.2z"/>
	</g>
</g>
<g id="XMLID_3_">
	<path id="XMLID_26_" class="st12" d="M27.6,31.3c0,0-2.4-3.8-3.1-5.8"/>
	<path id="XMLID_25_" class="st12" d="M26.6,31.6c0,0-3.5-4.7-3.9-6"/>
	<path id="XMLID_24_" class="st12" d="M28.6,28.5c0,0,0.5,2-0.9,2.7"/>
	<path id="XMLID_23_" class="st12" d="M25.9,32.1c0,0-3.5-3.2-4.2-4.9"/>
	<path id="XMLID_21_" class="st12" d="M25.3,32.5c0,0-3-1.7-4.1-3.2"/>
</g>
<g id="XMLID_1_">
	<path id="XMLID_12_" class="st3" d="M52,30.7L52,30.7c0.3,0,0.6-0.3,0.6-0.6V26c0-0.3-0.3-0.6-0.6-0.6l0,0c-0.3,0-0.6,0.3-0.6,0.6
		v4.1C51.5,30.4,51.7,30.7,52,30.7z"/>
	<path id="XMLID_11_" class="st13" d="M54.6,24.6l3.3,0.8c0.2,0.1,0.5-0.1,0.5-0.3l0,0c0-0.2-0.1-0.4-0.3-0.5l-3.2-1
		c-0.2-0.1-0.5,0.1-0.6,0.3v0.2C54.2,24.3,54.4,24.5,54.6,24.6z"/>
	<path id="XMLID_10_" class="st13" d="M50.5,24.8l-3.3,0.6c-0.2,0-0.5-0.1-0.5-0.4l0,0c0-0.2,0.1-0.4,0.3-0.5l3.3-0.8
		c0.3-0.1,0.5,0.1,0.5,0.4v0.2C50.8,24.5,50.7,24.7,50.5,24.8z"/>
	<path id="XMLID_9_" class="st14" d="M52.1,32.2c0,0,2.8,0.4,3.5-1.8c0,0,0.7,2.3-1.8,2.7"/>
	<g id="XMLID_6_">
		<path id="XMLID_8_" class="st4" d="M49.1,28.3L49.1,28.3c0.4,0,0.7-0.3,0.7-0.7v-0.9c0-0.4-0.3-0.7-0.7-0.7l0,0
			c-0.4,0-0.7,0.3-0.7,0.7v0.9C48.4,28,48.7,28.3,49.1,28.3z"/>
		<path id="XMLID_7_" class="st4" d="M55.7,28.2L55.7,28.2c0.4,0,0.7-0.3,0.7-0.7v-0.9c0-0.4-0.3-0.7-0.7-0.7l0,0
			c-0.4,0-0.7,0.3-0.7,0.7v0.9C55,28,55.3,28.2,55.7,28.2z"/>
	</g>
</g>
</svg>
