<?xml version="1.0" encoding="utf-8"?>
<!-- Generator: Adobe Illustrator 21.0.0, SVG Export Plug-In . SVG Version: 6.00 Build 0)  -->
<svg version="1.1" id="Layer_1" xmlns="http://www.w3.org/2000/svg" xmlns:xlink="http://www.w3.org/1999/xlink" x="0px" y="0px"
	 viewBox="0 0 100 100" style="enable-background:new 0 0 100 100;" xml:space="preserve">
<style type="text/css">
	.st0{fill:none;}
	.st1{display:none;fill:none;stroke:#EA8A31;stroke-width:0.5956;stroke-miterlimit:10;}
	.st2{fill:#F2AC81;}
	.st3{fill:#E98C23;}
	.st4{fill:#49263C;}
	.st5{fill:#FFFFFF;}
	.st6{opacity:0.5;fill:#F2AC81;enable-background:new    ;}
	.st7{opacity:0.5;enable-background:new    ;}
	.st8{fill:none;stroke:#F2AC81;stroke-width:4.664;stroke-linecap:round;stroke-linejoin:round;stroke-miterlimit:10;}
	.st9{fill:none;stroke:#F2AC81;stroke-width:4.3338;stroke-linecap:round;stroke-linejoin:round;stroke-miterlimit:10;}
	.st10{clip-path:url(#SVGID_1_);}
</style>
<rect x="10" y="10" class="st0" width="80" height="80"/>
<path id="XMLID_85_" class="st1" d="M61,82.3c0,0-3.3,1.4-8.9,1.6"/>
<g>
	<path class="st2" d="M44.4,78.4H27.9c-0.4-0.3-0.8-0.6-1-0.8c-3.2-3.3-5.8-6.9-7.6-10.9c-0.3-0.6-0.6-1.3-0.8-1.9
		c-0.1-0.2-0.2-0.4-0.2-0.7c-0.2-0.6-0.4-1.2-0.6-1.9c-2-6.5-1.8-13.6,1.2-20.4c0.1-0.3,0.2-0.5,0.4-0.7c1.3-2.3,3.5-3,5.6-2.5
		c3.7,0.8,7.1,5.1,5.1,9.7c-0.5,1.3-0.9,2.6-1,3.9c-0.1,0.7-0.1,1.4-0.1,2.1c0,0.7,0.1,1.3,0.2,2c0.1,1,0.3,1.9,0.6,2.9
		c0.2,0.6,0.4,1.2,0.6,1.8c0.1,0.3,0.2,0.6,0.4,0.9c0.2,0.6,0.5,1.1,0.8,1.6c1.1,2.1,2.5,4,4,5.5C36.3,70,42,75.9,44.4,78.4z"/>
	<path class="st3" d="M19.5,64.1c-1.6,0-2.7-0.2-2.8-0.2c-0.5-0.1-0.8-0.6-0.7-1c0.1-0.5,0.6-0.8,1-0.7c0.1,0,7,1.2,12.6-3.1
		c0.4-0.3,1-0.2,1.3,0.2s0.2,1-0.2,1.3C26.8,63.6,22.4,64.1,19.5,64.1z"/>
	<path class="st3" d="M20.6,66.7c-1.6,0-2.7-0.2-2.8-0.2c-0.5-0.1-0.8-0.6-0.7-1c0.1-0.5,0.6-0.8,1-0.7c0.1,0,7,1.2,12.6-3.1
		c0.4-0.3,1-0.2,1.3,0.2s0.2,1-0.2,1.3C27.9,66.1,23.4,66.7,20.6,66.7z"/>
</g>
<path class="st4" d="M75,48.9c0.1,1.4-1,2.5-2.3,2.6l-50.2,3.2c-1.4,0.1-2.5-1-2.6-2.3l-1.4-21.7c-0.1-1.4,1-2.5,2.3-2.6L71,24.9
	c1.3-0.1,2.5,1,2.6,2.3l0.8,12.9l0.5,8.3L75,48.9z"/>
<path class="st5" d="M68.3,49.2l-41.4,2.5c-0.6,0-1-0.4-1.1-0.9l-1.2-19.6c0-0.6,0.4-1,0.9-1.1L67,27.7c0.6,0,1,0.4,1.1,0.9
	l1.2,19.6C69.2,48.7,68.8,49.2,68.3,49.2z"/>
<g>
	<path class="st6" d="M66.5,51.8c-1.5-2.2-5.7-7.9-6.8-9.1c-0.8-0.9-0.8-2.2,0.1-3.1c0.9-0.8,2.2-0.8,3.1,0.1
		c0.1,0.1,0.2,0.2,0.3,0.3l6.7,11.3L66.5,51.8z"/>
</g>
<g id="XMLID_471_" class="st7">
	<path class="st2" d="M29.2,58.2c-0.6,0-1.3-0.3-1.7-0.7c-0.9-0.9-0.8-2.4,0.1-3.3c1.2-1.1,2.1-3,2.6-5.3c0.4-1.7,1.8-2.1,2.5-2
		c1.2,0.1,2.1,1.1,2.1,2.3c0,0.2,0,0.4-0.1,0.6c-0.4,2-1.5,5.5-4,7.8C30.3,58,29.8,58.2,29.2,58.2z"/>
</g>
<g id="XMLID_16_">
	<path id="XMLID_48_" class="st8" d="M33.6,49.6c0.1-0.2-1.9,7.5-7.8,7.6"/>
</g>
<path id="XMLID_42_" class="st9" d="M71.2,55.7c-2.1-4.9-5.4-11.8-8.2-15.6"/>
<path id="XMLID_47_" class="st9" d="M64,53.6c0,0,3.3,6.3,8.6,5.2"/>
<path class="st9" d="M71.6,46.4c0,0,2.2,3.8,2.7,7.4"/>
<path class="st9" d="M75.8,46.5c0,0,1.7,4.1,1.7,7.6"/>
<path class="st9" d="M80,47.3c0,0,0.8,4.4,0,7.8"/>
<path class="st2" d="M84.4,78.4H72.2c0.1-1.3,0.2-3.7,0.3-5.1c0.3-4.9,0-9.7-1.4-14.3c-0.2-0.8-0.5-1.6-0.8-2.3
	c-0.4-1.1-0.4-2.2,0-3.3c0.2-0.6,0.5-1.2,0.9-1.7c0.5-0.8,1.3-1.4,2-1.8c0.4-0.2,0.8-0.4,1.2-0.5c0.2-0.1,0.5-0.1,0.7-0.1
	c0.6-0.1,1.1-0.1,1.7,0c1.4,0.2,2.7,1,3.6,2.1c0.6,0.7,1,1.4,1.3,2.2C84.5,60.5,85.3,70.7,84.4,78.4z"/>
<g>
	<g>
		<defs>
			
				<rect id="SVGID_3_" x="24.9" y="28.4" transform="matrix(0.998 -6.322178e-02 6.322178e-02 0.998 -2.4196 3.032)" width="43.6" height="22.7"/>
		</defs>
		<clipPath id="SVGID_1_">
			<use xlink:href="#SVGID_3_"  style="overflow:visible;"/>
		</clipPath>
		<g class="st10">
		</g>
	</g>
</g>
</svg>
