<?xml version="1.0" encoding="utf-8"?>
<!-- Generator: Adobe Illustrator 21.0.0, SVG Export Plug-In . SVG Version: 6.00 Build 0)  -->
<svg version="1.1" id="Layer_1" xmlns="http://www.w3.org/2000/svg" xmlns:xlink="http://www.w3.org/1999/xlink" x="0px" y="0px"
	 viewBox="0 0 100 100" style="enable-background:new 0 0 100 100;" xml:space="preserve">
<style type="text/css">
	.st0{fill:none;}
	.st1{fill:#E35B29;}
	.st2{fill:#5A2F49;}
	.st3{fill:#6A78B9;}
	.st4{fill:#423894;}
	.st5{fill:#F2AB81;}
	.st6{fill:none;stroke:#5A2F49;stroke-width:1.2751;stroke-miterlimit:10;}
	.st7{fill:none;stroke:#5A2F49;stroke-width:0.4679;stroke-linecap:round;stroke-miterlimit:10;}
	.st8{fill:#E28865;}
	.st9{fill:none;stroke:#5A2F49;stroke-width:0.4721;stroke-linecap:round;stroke-linejoin:round;stroke-miterlimit:10;}
	.st10{fill:none;stroke:#F2AC81;stroke-width:1.1418;stroke-linecap:round;stroke-linejoin:round;stroke-miterlimit:10;}
	.st11{fill:none;stroke:#F2AB81;stroke-width:3.1837;stroke-linecap:round;stroke-linejoin:round;stroke-miterlimit:10;}
	.st12{fill:#CE4C28;}
	.st13{fill:none;stroke:#EBC99C;stroke-width:5.0389;stroke-linecap:round;stroke-miterlimit:10;}
</style>
<rect x="10" y="10" class="st0" width="80" height="80"/>
<path id="XMLID_15053_" class="st1" d="M57.4,52.7c0,0-5.7,2.7-8.1,4c-1.8,1.1-5.6-3.3-5.3-3.2L55.1,48L57.4,52.7z"/>
<path id="XMLID_24795_" class="st1" d="M52.5,50.8c0.7-2.4,2.9-3.7,3.7-3.8L68,48.3c2,1,2.6,3.5,2.6,4.4c0,0.2-2.5,20.9-2.5,20.9
	l-17.7-1.8C50.3,71.9,52.5,51,52.5,50.8z"/>
<g id="XMLID_24793_">
	<path id="XMLID_24794_" class="st2" d="M50.9,65l0.5-1.3c1.2-0.2,4.3-0.2,8.9,1.1c5.1,1.6,7.8,4.1,8.4,4.8l-0.4,1.2
		C66.7,69.4,52.9,65,50.9,65z"/>
</g>
<path id="XMLID_24786_" class="st2" d="M62.3,24.6L50.8,38.9c-2,2.5-0.6,6.3,2.7,6.9l18.1,2.8c3.3,0.5,5.8-2.6,4.7-5.7l-6.6-17.1
	C68.4,22.7,64.4,22.1,62.3,24.6z"/>
<g id="XMLID_24783_">
	<path id="XMLID_24785_" class="st2" d="M62.5,25.1c0.3-2.2,2.4-3.8,4.6-3.4c2.2,0.3,3.8,2.4,3.4,4.6S62.2,27.2,62.5,25.1z"/>
</g>
<path id="XMLID_24784_" class="st3" d="M60,27.8c0.5-2.9,3.1-4.8,6-4.4c2.9,0.4,4.8,3.1,4.4,6S59.6,30.7,60,27.8z"/>
<g>
	<path id="XMLID_15994_" class="st2" d="M53.3,41.2L53.3,41.2c0.6,1.1,0.2,2.5-0.9,3.1l-9.6,6l-2.5-4.7l10.1-5.4
		C51.5,39.7,52.7,40.1,53.3,41.2z"/>
	<path id="XMLID_31709_" class="st2" d="M36,67.4L36,67.4c-1.2-0.3-1.9-1.6-1.6-2.8l2.2-11.1l5.1,1.4l-3,11.1
		C38.3,67.1,37.2,67.7,36,67.4z"/>
	<g>
		<path class="st1" d="M27.9,48.8c-0.5,0.9-1.4,1.9-2.6,2.2c0.7,1.4,2.2,3.4,4.9,3.9l2.2-3C32.4,52,30,51.3,27.9,48.8z"/>
		<path class="st4" d="M27.9,48.8c-0.8-0.9-1.6-2.1-2.1-3.6c0,0-1.1,2.5,0,5.3l-1.1-1.1c0,0,0.2,0.7,0.6,1.7
			C26.5,50.7,27.3,49.7,27.9,48.8z"/>
	</g>
	<path id="XMLID_30759_" class="st2" d="M43.9,33c0.2-2.2-1.2-4.2-1.2-4.2s-1.8,1.7-1.9,3.9c-0.2,2.2,1.2,4.2,1.2,4.2
		S43.7,35.3,43.9,33z"/>
	<g id="XMLID_29999_">
		<path class="st1" d="M52.2,34.2l-0.4,0.1c-0.3,0.1-0.6,0.1-0.8,0c-0.5-0.2-0.9-0.6-1.1-1.1l1.9-0.5l0.3,1.2
			C52.1,34,52.1,34.1,52.2,34.2z"/>
		<path class="st4" d="M52.2,34.2L52.2,34.2l-0.4,0.1c-0.3,0.1-0.6,0.1-0.8,0c-0.5-0.2-0.9-0.6-1.1-1.1l1.9-0.5l0.3,1.2L52.2,34.2z"
			/>
	</g>
	<path id="XMLID_30569_" class="st1" d="M41.7,33.2c0.2-2.2-1.2-4.2-1.2-4.2s-1.8,1.7-1.9,3.9c-0.2,2.2,1.2,4.2,1.2,4.2
		S41.5,35.4,41.7,33.2z"/>
	<path class="st1" d="M44.2,55.9c-0.9,3.8-4.7,6.1-8.5,5.3c-3.8-0.9-6.3-4.7-5.3-8.5c1.2-4.8,6.4-8.5,8.8-9.9c0,0,0.2-6.9,0.2-7
		c0,0,0.9-2.6,2.3-3l3.4-0.9c0.5-0.1,1-0.1,1.5,0c0.7,0.2,1.4,0.8,1.7,1.5l1.6-0.4l2.3,1c0.5,2.8-1,5.5-3.5,6.5l0,0
		c0,0,1.5,6.1,1.2,7.1C49.8,47.9,48.3,53.1,44.2,55.9z"/>
	<g id="XMLID_15341_">
		<path class="st5" d="M49.7,47.7l-0.2,0.8c-0.7,2.4-2.1,4.5-3.9,6.1c-0.7-1.2-0.9-2.8-0.5-4.2l1.7-5.6c0,0,0,0,0,0
			c0.1-0.2,0.1-0.4,0.2-0.6c0.4-0.9,1.1-1.7,1.9-2.3l0.3,1.1l0.5,1.7C50.1,45.7,50,46.7,49.7,47.7z"/>
	</g>
	<path id="XMLID_29239_" class="st1" d="M31.9,67.8L31.9,67.8c-1.2-0.4-1.8-1.7-1.4-2.9L33.4,54l5,1.7l-3.7,10.9
		C34.3,67.6,33.1,68.1,31.9,67.8z"/>
	<g id="XMLID_27549_">
		<defs>
			<path id="XMLID_27644_" d="M31.9,67.8L31.9,67.8c-1.2-0.4-1.8-1.7-1.4-2.9L33.4,54l5,1.7l-3.7,10.9
				C34.3,67.6,33.1,68.1,31.9,67.8z"/>
		</defs>
		<clipPath id="XMLID_2_">
			<use xlink:href="#XMLID_27644_"  style="overflow:visible;"/>
		</clipPath>
	</g>
	<g id="XMLID_15346_">
		<g id="XMLID_15369_">
			<path class="st4" d="M39.5,46.5c-1.1,1.2-2.4,2.4-3.4,3.7c-1.6,2.1-5.1,1.1-5.2,1.1c1.4-3.9,5.7-6.8,8.4-8.5
				C40.4,43.8,40.5,45.4,39.5,46.5z"/>
		</g>
	</g>
	<path id="XMLID_25339_" class="st6" d="M37.2,38.3c0,0,2.8,7.1,13.4,2.6"/>
	<g>
		<path id="XMLID_29619_" class="st1" d="M55.9,45.1L55.9,45.1c0.3,1.2-0.5,2.4-1.7,2.7L43.3,51l-1.2-5.2l11.2-2.5
			C54.5,43.2,55.6,43.9,55.9,45.1z"/>
	</g>
	<path id="XMLID_3058_" class="st5" d="M49.8,38.9L49.8,38.9c-0.4,0-0.7-0.2-0.7-0.6L49,37.3l1.3-0.1l0.1,0.9
		C50.4,38.5,50.2,38.8,49.8,38.9z"/>
	<path id="XMLID_3053_" class="st7" d="M48.7,36.8c0,0,0.8,1,1.9,0.3"/>
	
		<ellipse id="XMLID_30189_" transform="matrix(0.9689 -0.2473 0.2473 0.9689 -7.1471 12.5922)" class="st2" cx="46.6" cy="34.7" rx="0.6" ry="0.8"/>
</g>
<path id="XMLID_24777_" class="st8" d="M64,48.3l0.4-4.9l-4.9-0.4l-0.4,4.9C59,49.1,64,49.5,64,48.3z"/>
<path class="st5" d="M61.6,44.8l-1-0.2c-3.6-0.8-5.9-4.3-5.2-7.9l1.1-5.6l0.3-1.6c0.9-3.5,14.6,0,14,2.9l0,0.1l-1.5,7
	C68.7,43.2,65.2,45.5,61.6,44.8z"/>
<g id="XMLID_24765_">
	<path class="st2" d="M70.9,32.6c-1.1,0.4-2.3,0.5-3.6,0.4c-2.7-0.4-4.8-2.1-5.8-4.4c-1.2,1.5-3.1,2.4-5,2.6c0,0,0-10,11.3-5.7
		C67.8,25.5,72.1,27.7,70.9,32.6L70.9,32.6z"/>
</g>
<path id="XMLID_24774_" class="st1" d="M60,39.1L60,39.1c0.4,0,0.5-0.1,0.5-0.4l0.5-3.4c0-0.3-0.1-0.5-0.3-0.5c0,0-0.5-0.1-0.6,0.3
	l-0.5,3.4C59.5,38.9,59.7,39.1,60,39.1z"/>
<path id="XMLID_24773_" class="st4" d="M57.8,36.9c0.6-0.1,1.1-1.5,0.3-1.7C57.2,35.1,57,36.9,57.8,36.9z"/>
<path id="XMLID_24772_" class="st4" d="M63,37.6c0.8,0,0.9-1.7,0-1.6C62.2,36,62.4,37.3,63,37.6z"/>
<path id="XMLID_24771_" class="st2" d="M62.7,34.3c0.4,0.1,4,1.4,2.9,0.1c-0.2-0.2-2.1-1-2.4-0.9C63.1,33.6,61.8,34,62.7,34.3z"/>
<path id="XMLID_24770_" class="st2" d="M59.1,33.8c-0.5,0.1-4.2,0.7-2.8-0.5c0.2-0.2,2.2-0.6,2.5-0.5C58.9,32.9,60,33.6,59.1,33.8z"
	/>
<path id="XMLID_24735_" class="st9" d="M60.3,40.5c0,0,1.6,0.7,2.9-1.1c0,0,0.3,1.2-1.1,1.9"/>
<path id="XMLID_32469_" class="st10" d="M43.6,52.6c0,0-4.3-2.6-5-3.5"/>
<path id="XMLID_24742_" class="st10" d="M44.2,49.5c0,0,1,1.4,0.2,2.5"/>
<path id="XMLID_24741_" class="st10" d="M43.2,53.2c0,0-3.8-1.4-4.9-2.6"/>
<path id="XMLID_24740_" class="st10" d="M42.9,53.7c0,0-3-0.4-4.3-1.2"/>
<path class="st3" d="M68.1,79.8l-24-7.1c2.8-2.7,5.3-5.7,6.9-7.9c0,0,3.4-0.7,9.1,1c5.7,1.7,8.2,4.6,8.2,4.6
	C68.5,74.8,68.2,79.4,68.1,79.8z"/>
<polyline class="st11" points="43.2,52.8 56.8,62.8 62.4,58.1 "/>
<path id="XMLID_24750_" class="st12" d="M70.4,52.9c0,0.7-5.5,6.2-7.3,8.2c-1.1,1.3-4.4-0.9-5.5-1.8c-0.2-0.1-0.3-0.5,0-0.7l8.3-7.6
	c1.5-1.5,3.1-0.3,3.1-0.3C69.9,51,70.5,51.9,70.4,52.9L70.4,52.9z"/>
<path class="st1" d="M90.1,56v31.6H11.9V39.3l5.5,0c0,0,3.6,27.2,28.7,32.7C75.1,78.4,85,55.8,85,55.8l5,0.2L90.1,56z"/>
<path id="XMLID_6793_" class="st13" d="M84.7,57.7C76,68.8,61.1,74.1,45.8,70.2c-14.9-3.8-26-15.4-28.4-28.8"/>
</svg>
