<?xml version="1.0" encoding="utf-8"?>
<!-- Generator: Adobe Illustrator 21.0.0, SVG Export Plug-In . SVG Version: 6.00 Build 0)  -->
<svg version="1.1" id="Layer_1" xmlns="http://www.w3.org/2000/svg" xmlns:xlink="http://www.w3.org/1999/xlink" x="0px" y="0px"
	 viewBox="0 0 100 100" style="enable-background:new 0 0 100 100;" xml:space="preserve">
<style type="text/css">
	.st0{fill:#5A2F49;}
	.st1{fill:#E28865;}
	.st2{fill:#D14B27;}
	.st3{fill:#F2AB81;}
	.st4{fill:none;stroke:#5A2F49;stroke-width:0.1499;stroke-linecap:round;stroke-linejoin:round;stroke-miterlimit:10;}
	.st5{fill:none;stroke:#5A2F49;stroke-width:0.5118;stroke-linecap:round;stroke-linejoin:round;stroke-miterlimit:10;}
	.st6{fill:#E35B29;}
	.st7{fill:none;stroke:#EA9871;stroke-miterlimit:10;}
	.st8{fill:#BF4027;}
	.st9{fill:#423894;}
	.st10{fill:none;stroke:#5A2F49;stroke-width:0.2764;stroke-miterlimit:10;}
	.st11{fill:none;stroke:#5A2F49;stroke-width:0.1706;stroke-miterlimit:10;}
	.st12{fill:none;stroke:#5A2F49;stroke-width:0.2559;stroke-miterlimit:10;}
	.st13{fill:#BEC687;stroke:#423894;stroke-width:0.25;stroke-linejoin:round;stroke-miterlimit:10;}
	.st14{fill:none;}
	.st15{display:none;fill:none;stroke:#EA8A31;stroke-width:0.5956;stroke-miterlimit:10;}
	.st16{fill:#FCE6CB;}
	.st17{fill:none;stroke:#E35B29;stroke-width:0.6226;stroke-linecap:round;stroke-miterlimit:10;}
	.st18{fill:#D14E28;}
	.st19{fill:#E98C23;}
	.st20{fill:#F29821;}
	.st21{fill:#EBC99C;}
	.st22{fill:none;stroke:#EBC99C;stroke-width:1.0483;stroke-linecap:round;stroke-miterlimit:10;}
	.st23{fill:#F2735B;}
	.st24{fill:none;stroke:#EBC99C;stroke-width:0.4327;stroke-linecap:round;stroke-miterlimit:10;}
	.st25{fill:none;stroke:#EACAA7;stroke-width:0.5977;stroke-linecap:round;stroke-miterlimit:10;}
	.st26{fill:none;stroke:#423894;stroke-width:0.15;stroke-miterlimit:10;}
</style>
<path id="XMLID_76_" class="st0" d="M52.4,42.1c-1.1,1-2.8,2.3-2.6,4c0.2,1.5,3.3,3,4.7,2.6c1.9-0.5,1-3,0.9-4.5
	C55.3,43.3,54.6,41,52.4,42.1z"/>
<path id="XMLID_75_" class="st1" d="M51.3,48.6L51.3,48.6c0.3,0.1,0.7,0,0.9-0.4l0.5-1.2l-1.2-0.5L51,47.7
	C50.7,48.1,50.9,48.5,51.3,48.6z"/>
<path id="XMLID_64_" class="st2" d="M52.7,48.2c0.8,0.6,1.2,1.6,0.8,2.6c-0.7,1.9-2.9,5.2-4.3,4.6C46,53.9,49,49.1,49,49.1
	C49.9,46.9,52.7,48.2,52.7,48.2z"/>
<path class="st3" d="M54.6,44.4L54,46.1c-0.3,1-1.4,1.5-2.4,1.2s-1.5-1.4-1.2-2.4l0.5-1.5C52.9,41.5,54.6,43.5,54.6,44.4z"/>
<g id="XMLID_50_">
	<path class="st0" d="M54.6,44.4c-0.2,0-1.9-0.1-2.1-1.6c-0.3,0.6-0.8,0.8-1.7,0.7c0,0,0.9-2.1,2.5-1.4
		C54.3,42.4,54.9,43.4,54.6,44.4z"/>
</g>
<g id="XMLID_53_">
	<path id="XMLID_54_" class="st4" d="M51.4,46c0,0,0.6,0.3,0.9-0.1c0,0,0,0.5-0.6,0.4"/>
</g>
<path id="XMLID_19_" class="st0" d="M47,46.3c0.1-0.5,0.5-0.9,0.5-0.9s0.3,0.5,0.2,1C47.7,47,46.9,46.8,47,46.3z"/>
<path class="st5" d="M50.2,47.9c0,0-1.3,3.9,2.4,6.8"/>
<g>
	<path id="XMLID_15_" class="st6" d="M47.4,46.6c0.4-0.4,1-0.4,1-0.4s0,0.6-0.4,1S47.1,47,47.4,46.6z"/>
</g>
<path class="st6" d="M49.5,51.8c-0.3,1-1.4,1.5-2.3,1.2c-0.7-0.2-2.2-2.6-2.2-2.6c-0.5-1,0.3-2.8,0.3-2.8c-1.2-0.8-0.1-1.9-0.1-1.9
	l0.3,0.2l0.4,0.2C46,46,46.2,46,46.3,46c0.2,0,1,0.5,1,0.5c0.3,0.2,0.3,0.8,0.3,0.8l-0.4,1.3C48.3,49.2,49.9,50.5,49.5,51.8z"/>
<line class="st7" x1="51.2" y1="50.9" x2="48.1" y2="53.4"/>
<path id="XMLID_44_" class="st8" d="M53.4,49.2c-0.2-0.4-0.8-0.5-1.1-0.2c-0.4,0.4-1,0.9-1.4,1.2c-0.5,0.4,0.2,1.8,0.2,1.7l2.2-1.7
	C53.6,50,53.6,49.5,53.4,49.2L53.4,49.2z"/>
<path class="st9" d="M49.5,51.2L49.5,51.2c-0.3,0-0.7,0-0.9-0.3c-0.3-0.3-0.6-0.6-0.9-0.9c-0.1-0.1-0.2-0.2-0.2-0.4s0.2-0.7,0.3-0.7
	C49.3,50,49.5,51.1,49.5,51.2z"/>
<path id="XMLID_1_" class="st10" d="M48.2,47.8c0,0-0.7,1.4-3.2,0.2"/>
<path class="st11" d="M46.5,47.1c0,0,0.3,0.5,1,0.7"/>
<path class="st12" d="M53.6,45.4c0,0,0.5,0.2,1,0"/>
<g>
	<path class="st13" d="M50.8,43.5L50.8,43.5c-0.2,0-0.6,1.2-0.5,1.3c0.1,0.1,0.9,0.3,1,0.3c0.2-0.1,0.8-0.5,0.8-0.5l0,0
		c0.1,0,0.1,0.7,0.2,1c0,0.1,0.7,0.4,0.9,0.4c0.2,0.1,0.6-1.2,0.5-1.3C53.5,44.5,51.3,43.5,50.8,43.5L50.8,43.5z"/>
</g>
<rect x="10" y="10" class="st14" width="80" height="80"/>
<path id="XMLID_85_" class="st15" d="M61,82.3c0,0-3.3,1.4-8.9,1.6"/>
<ellipse id="XMLID_1290_" transform="matrix(0.394 -0.9191 0.9191 0.394 -17.6446 108.2621)" class="st0" cx="73.3" cy="67.5" rx="1.7" ry="1.7"/>
<ellipse id="XMLID_1289_" transform="matrix(0.3941 -0.9191 0.9191 0.3941 -17.6383 108.2462)" class="st16" cx="73.3" cy="67.5" rx="1.2" ry="1.2"/>
<path id="XMLID_1286_" class="st17" d="M71.9,64.9v1.2c0,0.4,0.2,0.7,0.6,0.9l0.8,0.5"/>
<g id="XMLID_1268_">
	<polygon id="XMLID_1276_" class="st6" points="26.8,58.5 20.7,68.4 24.5,68.6 31.8,60.5 	"/>
	<g id="XMLID_1270_">
		
			<ellipse id="XMLID_1275_" transform="matrix(0.2326 -0.9726 0.9726 0.2326 -48.0717 74.8877)" class="st0" cx="23.4" cy="67.9" rx="2.9" ry="2.9"/>
		<path id="XMLID_1274_" class="st18" d="M24.2,64.4c-1.7-0.4-3.4,0.5-4,2.1c-0.1,0.2,0,0.5,0.3,0.5l0,0c0.2,0,0.4-0.1,0.5-0.2
			c0.5-1.2,1.8-1.9,3.1-1.6c1.3,0.3,2.1,1.5,2,2.8c0,0.2,0.1,0.4,0.3,0.4l0,0c0.2,0.1,0.5-0.1,0.5-0.3C27,66.4,25.9,64.8,24.2,64.4z
			"/>
		
			<ellipse id="XMLID_1272_" transform="matrix(0.2326 -0.9726 0.9726 0.2326 -48.0765 74.8924)" class="st16" cx="23.4" cy="67.9" rx="2.1" ry="2.1"/>
		
			<ellipse id="XMLID_1271_" transform="matrix(0.2328 -0.9725 0.9725 0.2328 -48.0831 74.8755)" class="st0" cx="23.4" cy="67.9" rx="0.6" ry="0.6"/>
	</g>
</g>
<path id="XMLID_6823_" class="st19" d="M52.6,53.8l1.5-3.2c0.3-0.6,3.1,0,3,0.7C57.1,51.3,52.1,54.7,52.6,53.8z"/>
<path id="XMLID_6809_" class="st20" d="M17.6,42.6c-0.9-0.2-2.5,0.3-2.7,1.2l-2.2,9.3c-0.2,0.9,1,1.8,1.9,2L17.6,42.6z"/>
<path class="st6" d="M87.2,63c-0.1,1.4-1.5,1.6-1.6,1.6l-7.9,0.2c-3.4,0.2-13,0.5-19.2,0.1c-7.3-0.5-18.2-2.7-18.2-2.7l-24.8-6
	c-0.8-0.2-1.3-1-1.1-1.8l0.2-0.9l2.6-10.8c0.2-0.8,1-1.3,1.8-1.1l24,5.8c0,0,1.4,5.3,5.9,6.6c4.2,1.2,8-3.2,8-3.2l13.8,4.5
	c0.5,0.1,1.2-0.5,1.2-0.5l6.9-6.1l3-0.1c0.9,0,1.6,0.9,1.3,1.7L80.7,58c-0.2,0.5,0.6,1.3,0.6,1.3S87.3,61.3,87.2,63z"/>
<path class="st21" d="M85.6,64.6c0,0-20.9,0.8-27.1,0.4c-7.3-0.5-18.2-2.7-18.2-2.7l-24.8-6c-0.8-0.2-1.3-1-1.1-1.8l0.2-0.9
	c0,0,22.1,5.7,23.7,6.2C51.8,64.3,85.7,64.6,85.6,64.6z"/>
<path id="XMLID_6793_" class="st22" d="M57,51c-1.8,2.3-4.9,3.4-8.1,2.6c-3.1-0.8-5.4-3.2-5.9-6"/>
<g id="XMLID_6787_">
	<path id="XMLID_6789_" class="st20" d="M72.5,58.7l5.5,0.6c1.4,0.2,2.7,0.6,3.9,1.4l3,1.9c0.1,0.1,0.1,0.3-0.1,0.3l-2.3,0.2
		c-1.2,0.1-2.3,0-3.4-0.4c0,0-7.7-3-7.6-3.4l0,0C71.6,59,72.1,58.7,72.5,58.7z"/>
</g>
<path id="XMLID_6775_" class="st18" d="M21.3,55.4l8.8,1c2.2,0.3,11.1,5.4,11.1,5.4c0.2,0.2-3.7,1-3.7,1C33.6,63.1,20,57.7,20,57.7
	l-0.2-0.9C19.8,55.9,20.6,55.3,21.3,55.4z"/>
<path id="XMLID_6774_" class="st23" d="M41.2,61.8c0,0-0.1,0.1-0.2,0.1l-3.6,0.4c-1.8,0.2-3.7,0-5.5-0.6l-11.2-3.8
	c-0.5-0.2-0.8-0.7-0.9-1.2c-0.1,0.7,0.2,1.4,0.9,1.7l11.2,3.8c1.8,0.6,3.6,0.8,5.5,0.6l3.6-0.4C41.3,62.3,41.4,62,41.2,61.8z"/>
<ellipse id="XMLID_6773_" transform="matrix(0.1497 -0.9887 0.9887 0.1497 -37.3276 69.8858)" class="st0" cx="22" cy="56.6" rx="0.4" ry="0.7"/>
<ellipse id="XMLID_6772_" transform="matrix(0.9996 -2.884456e-02 2.884456e-02 0.9996 -1.3044 0.7776)" class="st0" cx="26.3" cy="45.6" rx="0.6" ry="0.6"/>
<ellipse id="XMLID_6771_" transform="matrix(0.9996 -2.884456e-02 2.884456e-02 0.9996 -1.4001 1.1454)" class="st0" cx="39" cy="49.1" rx="0.6" ry="0.6"/>
<line id="XMLID_6770_" class="st24" x1="37.5" y1="41.8" x2="39" y2="49.1"/>
<line id="XMLID_6769_" class="st24" x1="24.8" y1="38.2" x2="26.3" y2="45.5"/>
<ellipse id="XMLID_6768_" transform="matrix(0.1497 -0.9887 0.9887 0.1497 -30.858 86.4194)" class="st0" cx="34.8" cy="61.2" rx="0.4" ry="0.7"/>
<line id="XMLID_6767_" class="st25" x1="22" y1="56.5" x2="24.4" y2="39.3"/>
<line id="XMLID_6766_" class="st25" x1="34.8" y1="61" x2="37.2" y2="43.8"/>
<path id="XMLID_6765_" class="st18" d="M24,37.7c0,0,13.2,2,15.1,3.3l4.8,3.1c0.2,0.2,0.2,0.5-0.1,0.6L40,45c-1.8,0.2-3.7,0-5.5-0.6
	l-11.2-3.8c-0.7-0.2-1.1-0.9-1-1.6l0,0C22.5,38.1,23.2,37.6,24,37.7z"/>
<g id="XMLID_30_">
</g>
<path class="st9" d="M45.5,45.9c0,0-0.2,0.4-0.6,0.2l0.3-0.4L45.5,45.9z"/>
<ellipse transform="matrix(0.8412 -0.5408 0.5408 0.8412 -17.8828 32.3733)" class="st26" cx="46.2" cy="46.6" rx="0.6" ry="0.7"/>
</svg>
