<?xml version="1.0" encoding="utf-8"?>
<!-- Generator: Adobe Illustrator 21.0.0, SVG Export Plug-In . SVG Version: 6.00 Build 0)  -->
<svg version="1.1" id="Layer_1" xmlns="http://www.w3.org/2000/svg" xmlns:xlink="http://www.w3.org/1999/xlink" x="0px" y="0px"
	 viewBox="0 0 100 100" style="enable-background:new 0 0 100 100;" xml:space="preserve">
<style type="text/css">
	.st0{display:none;fill:none;stroke:#EA8A31;stroke-width:0.5956;stroke-miterlimit:10;}
	.st1{fill:none;}
	.st2{fill:#F4D3AB;stroke:#E5BD8F;stroke-width:0.5;stroke-miterlimit:10;}
	.st3{fill:#FCE6CB;}
	.st4{fill:#E35B29;}
	.st5{fill:none;stroke:#5A2F49;stroke-width:0.2735;stroke-miterlimit:10;}
	.st6{fill:none;stroke:#5A2F49;stroke-width:0.1094;stroke-miterlimit:10;}
	.st7{fill:#5A2F49;}
	.st8{fill:#713744;}
	.st9{fill:none;stroke:#DB9B79;stroke-width:2.8687;stroke-linecap:round;stroke-linejoin:round;stroke-miterlimit:10;}
	.st10{fill:#D14E28;}
	.st11{fill:#724464;}
	.st12{fill:#49263C;}
	.st13{fill:#F2AB81;}
	.st14{fill:none;stroke:#F2AC81;stroke-width:2.9404;stroke-linecap:round;stroke-linejoin:round;stroke-miterlimit:10;}
	.st15{fill:none;stroke:#F2AC81;stroke-width:2.8687;stroke-linecap:round;stroke-linejoin:round;stroke-miterlimit:10;}
</style>
<path id="XMLID_85_" class="st0" d="M61,82.3c0,0-3.3,1.4-8.9,1.6"/>
<g id="XMLID_30_">
</g>
<rect x="30" y="28.6" class="st1" width="7.6" height="7.6"/>
<path class="st2" d="M43,67.4H16.7c-1.2,0-2.2-0.9-2.2-2V22.1c0-1.1,1-2,2.2-2H43c1.2,0,2.2,0.9,2.2,2v43.3
	C45.2,66.5,44.2,67.4,43,67.4z"/>
<circle class="st3" cx="31.2" cy="28.5" r="6.3"/>
<circle class="st4" cx="31.2" cy="28.5" r="5.8"/>
<path class="st5" d="M29.2,31.8c0.6,0.3,1.3,0.5,2,0.5c2.1,0,3.8-1.7,3.8-3.8s-1.7-3.8-3.8-3.8"/>
<line class="st5" x1="31.2" y1="24.5" x2="31.2" y2="25.4"/>
<line class="st5" x1="31.3" y1="24.5" x2="31.2" y2="25.4"/>
<line class="st6" x1="31.3" y1="24.5" x2="31.2" y2="25.1"/>
<line class="st6" x1="29.2" y1="31.9" x2="29.5" y2="31.4"/>
<line class="st6" x1="31.1" y1="32.4" x2="31.1" y2="31.9"/>
<line class="st6" x1="33.1" y1="31.9" x2="32.8" y2="31.4"/>
<line class="st6" x1="34.6" y1="30.5" x2="34.1" y2="30.2"/>
<line class="st6" x1="35.1" y1="28.5" x2="34.6" y2="28.5"/>
<line class="st6" x1="34.6" y1="26.6" x2="34.2" y2="26.8"/>
<line class="st6" x1="33.2" y1="25.1" x2="32.9" y2="25.6"/>
<line class="st5" x1="29.3" y1="31.7" x2="29.6" y2="31.2"/>
<line class="st5" x1="29.2" y1="31.9" x2="29.3" y2="31.7"/>
<line class="st5" x1="31.1" y1="32.4" x2="31.1" y2="31.6"/>
<line class="st5" x1="33.1" y1="31.9" x2="32.7" y2="31.2"/>
<line class="st5" x1="34.6" y1="30.5" x2="33.9" y2="30.1"/>
<line class="st5" x1="35.1" y1="28.5" x2="34.3" y2="28.5"/>
<line class="st5" x1="34.6" y1="26.6" x2="33.9" y2="27"/>
<line class="st5" x1="33.2" y1="25.1" x2="32.8" y2="25.8"/>
<circle class="st3" cx="31.2" cy="42.2" r="6.3"/>
<circle class="st4" cx="31.2" cy="42.2" r="5.8"/>
<path class="st5" d="M31.2,39.1"/>
<path class="st5" d="M31.3,38.2"/>
<line class="st6" x1="29.2" y1="45.6" x2="29.5" y2="45.1"/>
<line class="st6" x1="31.1" y1="46.1" x2="31.1" y2="45.6"/>
<line class="st6" x1="33.1" y1="45.6" x2="32.8" y2="45.1"/>
<line class="st6" x1="34.6" y1="44.2" x2="34.1" y2="43.9"/>
<line class="st6" x1="35.1" y1="42.2" x2="34.6" y2="42.2"/>
<line class="st6" x1="34.6" y1="40.3" x2="34.2" y2="40.5"/>
<line class="st6" x1="33.2" y1="38.8" x2="32.9" y2="39.3"/>
<path class="st5" d="M29.6,44.9l-0.3,0.5l-0.1,0.1c0.6,0.3,1.3,0.5,2,0.5c2.1,0,3.8-1.7,3.8-3.8s-1.7-3.8-3.8-3.8v0.7"/>
<line class="st5" x1="29.2" y1="45.6" x2="29.3" y2="45.4"/>
<line class="st5" x1="31.1" y1="46.1" x2="31.1" y2="45.3"/>
<line class="st5" x1="33.1" y1="45.6" x2="32.7" y2="44.9"/>
<line class="st5" x1="34.6" y1="44.2" x2="33.9" y2="43.8"/>
<line class="st5" x1="35.1" y1="42.2" x2="34.3" y2="42.2"/>
<line class="st5" x1="34.6" y1="40.3" x2="33.9" y2="40.7"/>
<line class="st5" x1="33.2" y1="38.8" x2="32.8" y2="39.5"/>
<rect x="38.7" y="27.3" class="st7" width="3.8" height="2.4"/>
<rect x="19.8" y="27.3" class="st7" width="3.8" height="2.4"/>
<rect x="38.7" y="41.9" class="st7" width="3.8" height="2.4"/>
<rect x="19.8" y="41.9" class="st7" width="3.8" height="2.4"/>
<circle class="st3" cx="31.2" cy="55.8" r="6.3"/>
<circle class="st4" cx="31.2" cy="55.8" r="5.8"/>
<path class="st5" d="M31.2,52.7"/>
<path class="st5" d="M31.3,51.8"/>
<line class="st6" x1="29.2" y1="59.2" x2="29.5" y2="58.7"/>
<line class="st6" x1="31.1" y1="59.7" x2="31.1" y2="59.2"/>
<line class="st6" x1="33.1" y1="59.2" x2="32.8" y2="58.7"/>
<line class="st6" x1="34.6" y1="57.8" x2="34.1" y2="57.5"/>
<line class="st6" x1="35.1" y1="55.8" x2="34.6" y2="55.8"/>
<line class="st6" x1="34.6" y1="53.9" x2="34.2" y2="54.1"/>
<line class="st6" x1="33.2" y1="52.4" x2="32.9" y2="52.9"/>
<path class="st5" d="M29.6,58.5L29.3,59l-0.1,0.1c0.6,0.3,1.3,0.5,2,0.5c2.1,0,3.8-1.7,3.8-3.8S33.3,52,31.2,52v0.7"/>
<line class="st5" x1="29.2" y1="59.2" x2="29.3" y2="59"/>
<line class="st5" x1="31.1" y1="59.7" x2="31.1" y2="58.9"/>
<line class="st5" x1="33.1" y1="59.2" x2="32.7" y2="58.5"/>
<line class="st5" x1="34.6" y1="57.8" x2="33.9" y2="57.4"/>
<line class="st5" x1="35.1" y1="55.8" x2="34.3" y2="55.8"/>
<line class="st5" x1="34.6" y1="53.9" x2="33.9" y2="54.3"/>
<line class="st5" x1="33.2" y1="52.4" x2="32.8" y2="53.1"/>
<rect x="38.7" y="54.6" class="st7" width="3.8" height="2.4"/>
<path class="st2" d="M81.6,56.6H49.2c-1.1,0-2-0.9-2-2V22.1c0-1.1,0.9-2,2-2h32.4c1.1,0,2,0.9,2,2v32.5
	C83.6,55.7,82.7,56.6,81.6,56.6z"/>
<g>
	<circle class="st4" cx="65.5" cy="37.9" r="15.7"/>
</g>
<circle class="st8" cx="65.5" cy="38" r="15"/>
<path id="XMLID_13808_" class="st9" d="M70.7,47.6c0,0,3.6,6.5,1.3,10.1"/>
<path class="st2" d="M81.6,67.4H49.2c-1.1,0-2-0.9-2-2V60c0-1.1,0.9-2,2-2h32.4c1.1,0,2,0.9,2,2v5.4C83.6,66.5,82.7,67.4,81.6,67.4z
	"/>
<g>
	<g>
		<g>
			<rect x="57.7" y="59.8" class="st7" width="2.3" height="6"/>
			<g>
				<rect x="57.9" y="60.2" class="st4" width="1.9" height="5.1"/>
				<rect x="57.9" y="62.6" class="st10" width="1.9" height="2.7"/>
			</g>
		</g>
		<g>
			<rect x="64.3" y="59.8" class="st7" width="2.3" height="6"/>
			<g>
				<rect x="64.4" y="60.2" class="st4" width="1.9" height="5.1"/>
				<rect x="64.4" y="62.6" class="st10" width="1.9" height="2.7"/>
			</g>
		</g>
	</g>
</g>
<rect x="10" y="10" class="st1" width="80" height="80"/>
<rect x="43.9" y="56.6" class="st11" width="8.2" height="25.5"/>
<path id="XMLID_5_" class="st9" d="M24.5,57.5c-1.2-4,4.1-9.3,4.1-9.3"/>
<path id="XMLID_4_" class="st9" d="M23.5,55.4c-1.2-4,4.1-9.3,4.1-9.3"/>
<path class="st12" d="M52.1,56.6h-8.2l0,0c0-1.1,0.9-1.9,1.9-1.9h4.4C51.2,54.7,52.1,55.6,52.1,56.6L52.1,56.6z"/>
<path class="st11" d="M71.4,49.6c-0.1-1.9-3.1-1.9-3,0c0.2,4,0.6,8.9-2.1,12.2c-4.6,5.7-12.6,1.9-17.2-1.8c-0.8-0.6-1.9-0.2-2.4,0.5
	c-4.6,3.6-12.3,7-16.7,1.4c-2.7-3.3-2.3-8.2-2.1-12.2c0.1-1.9-2.9-1.9-3,0c-0.3,5.7-0.3,12.7,5,16.3c5.9,3.9,13.1,1,18.3-2.9
	c5.2,3.8,12.2,6.7,18.2,2.8C71.8,62.3,71.7,55.4,71.4,49.6z"/>
<path class="st7" d="M29.5,48.9c0-0.4-0.2-0.6-0.4-0.8v0c0.2-0.2,0.4-0.4,0.4-0.8c0-0.5-0.3-0.8-0.7-0.9c-0.2-0.5-0.6-0.8-1.1-1.1
	c-0.1-0.5-0.6-0.9-1.1-0.9c-0.6,0-1,0.4-1.1,0.9c-0.8,0.4-1.4,1.2-1.4,2.2v6.4c0,1.2,1,2.1,2.1,2.1H27c1.2,0,2.1-1,2.1-2.1v-2.6
	c0.2-0.2,0.4-0.4,0.4-0.8c0-0.4-0.2-0.6-0.4-0.8v0C29.3,49.5,29.5,49.2,29.5,48.9z"/>
<path class="st4" d="M69.9,45.3L69.9,45.3c-0.4,0-0.7-0.3-0.7-0.7l0,0c0-0.4,0.3-0.7,0.7-0.7l0,0c0.4,0,0.7,0.3,0.7,0.7l0,0
	C70.6,44.9,70.2,45.3,69.9,45.3z"/>
<path class="st12" d="M71,46.2h-2.4v-0.6c0-0.7,0.5-1.2,1.2-1.2l0,0c0.7,0,1.2,0.5,1.2,1.2C71,45.6,71,46.2,71,46.2z"/>
<path class="st7" d="M69.9,45c-1,0-1.8,0.5-2.2,1.3c-0.5,0.1-0.8,0.4-0.8,1c0,0.3,0.2,0.6,0.4,0.8c-0.3,0.2-0.4,0.4-0.4,0.8
	c0,0.4,0.2,0.7,0.5,0.8v4.2c0,1.1,0.9,2.1,2.1,2.1h0.7c1.2,0,2.2-0.9,2.2-2.1v-6.4C72.4,46.1,71.3,45,69.9,45z"/>
<path class="st13" d="M20.9,55.2l6.7,2.4l0.8,23.8h-9.8L20.9,55.2z"/>
<path id="XMLID_3_" class="st14" d="M23,57.2c0,0-2.8-4.2-0.1-11.5"/>
<path id="XMLID_2_" class="st15" d="M30.4,52c-0.4,1.9-4.2,5.2-4.2,5.2"/>
<g>
	<circle class="st12" cx="48.1" cy="63" r="5.1"/>
</g>
<path class="st13" d="M79,81.5h-9.8L70,57.7l6.7-1.8L79,81.5z"/>
<path id="XMLID_33034_" class="st14" d="M72.6,45.8c4.3,6.5,2.5,11.2,2.5,11.2"/>
<path id="XMLID_33036_" class="st15" d="M71.5,57.3c0,0-3.8-3.3-4.2-5.2"/>
</svg>
