<?xml version="1.0" encoding="utf-8"?>
<!-- Generator: Adobe Illustrator 21.0.0, SVG Export Plug-In . SVG Version: 6.00 Build 0)  -->
<svg version="1.1" id="Layer_1" xmlns="http://www.w3.org/2000/svg" xmlns:xlink="http://www.w3.org/1999/xlink" x="0px" y="0px"
	 viewBox="0 0 100 100" style="enable-background:new 0 0 100 100;" xml:space="preserve">
<style type="text/css">
	.st0{fill:none;}
	.st1{fill:#F3981F;}
	.st2{fill:#F08617;}
	.st3{fill:none;stroke:#F2AB81;stroke-width:3.757;stroke-linecap:round;stroke-linejoin:round;stroke-miterlimit:10;}
	.st4{fill:#E35B29;}
	.st5{fill:#F2AB81;stroke:#5A2F49;stroke-width:0.7955;stroke-linecap:round;stroke-linejoin:round;stroke-miterlimit:10;}
	.st6{fill:#6A78B9;}
	.st7{fill:#FFF5DA;}
	.st8{fill:#66B6DC;}
	.st9{fill:#44439A;}
	.st10{fill:#F2AB81;}
	.st11{fill:#5A2F49;}
	.st12{fill:none;stroke:#F2AB81;stroke-width:1.1933;stroke-linecap:round;stroke-miterlimit:10;}
	.st13{fill:#E28865;}
	.st14{fill:#423894;}
	.st15{fill:none;stroke:#5A2F49;stroke-width:0.3978;stroke-linecap:round;stroke-miterlimit:10;}
</style>
<rect x="10" y="10" class="st0" width="80" height="80"/>
<rect x="10" y="10" class="st0" width="80" height="80"/>
<g id="XMLID_1762_">
	<rect id="XMLID_1533_" x="23.5" y="39.6" class="st1" width="2.9" height="23.8"/>
	<rect id="XMLID_1534_" x="73.6" y="39.6" class="st1" width="2.9" height="23.8"/>
</g>
<g id="XMLID_1761_">
	<rect id="XMLID_1536_" x="16.7" y="63" class="st1" width="3.2" height="22.7"/>
	<rect id="XMLID_1537_" x="80.1" y="63" class="st1" width="3.2" height="22.7"/>
</g>
<path class="st1" d="M18.8,37.7h-0.4c-1.1,0-2.1,0.9-2.1,2.1v0.4C16.4,38.8,17.5,37.7,18.8,37.7z"/>
<path class="st1" d="M16.4,40.6c0,1.1,0.9,2.1,2.1,2.1h63.1c1.1,0,2.1-0.9,2.1-2.1v-0.4H16.4V40.6z"/>
<path class="st2" d="M81.2,37.7H18.8c-1.4,0-2.5,1.1-2.5,2.5h67.3C83.6,38.8,82.5,37.7,81.2,37.7z"/>
<path class="st1" d="M16.4,48C16.4,48,16.4,48,16.4,48c0,1.4,1.1,2.5,2.5,2.5h62.3c1.4,0,2.5-1.1,2.5-2.5c0,0,0,0,0,0H16.4z"/>
<line class="st3" x1="57.3" y1="41.7" x2="59.2" y2="45"/>
<path class="st2" d="M81.2,45.6H18.8c-1.3,0-2.4,1.1-2.5,2.4h67.3C83.6,46.6,82.5,45.6,81.2,45.6z"/>
<path class="st1" d="M18.8,53.4h-0.4c-1.1,0-2.1,0.9-2.1,2.1v0.4C16.4,54.5,17.5,53.4,18.8,53.4z"/>
<line class="st3" x1="40" y1="41.6" x2="38.1" y2="45.3"/>
<path class="st1" d="M16.4,56.2c0,1.1,0.9,2.1,2.1,2.1h63.1c1.1,0,2.1-0.9,2.1-2.1v-0.4H16.4V56.2z"/>
<path class="st2" d="M81.2,53.4H18.8c-1.4,0-2.5,1.1-2.5,2.5h67.3C83.6,54.5,82.5,53.4,81.2,53.4z"/>
<g>
	<path class="st1" d="M90,64.2V65c0,1.2-1,2.2-2.2,2.2H12.2c-1.2,0-2.2-1-2.2-2.2v-0.8c0-1.2,1-2.2,2.2-2.2h0.4c-0.8,0-1.5,0.4-2,1
		h79.1C89.9,63.3,90,63.8,90,64.2z"/>
	<path class="st2" d="M89.6,63H10.5c0.5-0.6,1.2-1,2-1h74.9c0.2,0,0.4,0,0.6,0.1C88.7,62.2,89.3,62.5,89.6,63
		C89.6,63,89.6,63,89.6,63z"/>
</g>
<g id="XMLID_361_">
	<path class="st4" d="M56,35.2c0,0-2.6,18.5-6.9,18.6c-4.4,0.1-7.7-18.3-7.7-18.3c0-0.1,0.4-1.8,0.9-2.2c0.2-0.2,1.4-0.6,2.8-1
		c1.7-0.5,3.6-1,3.6-1v0c0,0,2.2,0.5,4,1c1.1,0.3,2.1,0.6,2.3,0.7C55.5,33.4,56,35,56,35.2z"/>
	<g id="XMLID_2761_">
		<path class="st5" d="M52.7,32.2c-0.2,1.4-3.1,4-3.8,4c-0.7,0-3.6-2.6-3.8-4c1.7-0.5,3.6-1,3.6-1v0C48.6,31.2,50.9,31.7,52.7,32.2z
			"/>
	</g>
	<path id="XMLID_150_" class="st6" d="M62.5,62.1c0.6-0.7,0.8-1.4,0.2-2.1c-2.9-3.4-5.2-8.7-6.3-11.9l-14.6,0.3
		c-1.2,3.2-3.3,8.2-6.2,11.6c-0.6,0.7-0.5,1.4,0.2,2.1H62.5z"/>
	<g id="XMLID_2770_">
		<path id="XMLID_2772_" class="st4" d="M55.6,34.2c0,0,2.4,4.1,3.9,6.6c0.9,1.5-2.5,4.6-2.4,4.3l-5.3-9.9L55.6,34.2z"/>
	</g>
	<g id="XMLID_1547_">
		<path id="XMLID_1556_" class="st4" d="M41.9,33.7c0,0-2.3,4.7-3.8,7.1c-0.9,1.5,2.5,4.6,2.4,4.3l5.3-9.9L41.9,33.7z"/>
	</g>
</g>
<g id="XMLID_493_">
	<polygon id="XMLID_1608_" class="st7" points="40.9,41 47.7,43.5 40.9,40.5 	"/>
	<polygon id="XMLID_1609_" class="st7" points="41.9,41 47.7,43.5 41.9,40.4 	"/>
	<polygon id="XMLID_1616_" class="st7" points="55.1,39.4 49.2,43.3 55.1,38.9 	"/>
	<polygon id="XMLID_1615_" class="st7" points="54.1,39.5 49.2,43.3 54.1,39 	"/>
	<polygon id="XMLID_182_" class="st8" points="41.2,52.7 49.1,55.5 47.7,43.5 39.9,40.6 	"/>
	<polygon id="XMLID_179_" class="st8" points="57.6,50.8 50.6,55.3 49.2,43.3 56.1,38.7 	"/>
	
		<rect id="XMLID_152_" x="48.4" y="43.3" transform="matrix(0.9932 -0.1168 0.1168 0.9932 -5.435 6.0786)" class="st9" width="1.5" height="12.1"/>
</g>
<path id="XMLID_143_" class="st10" d="M49.6,84.1h2.8l2.9-27.2c0.2-1.8-1.2-3.4-3.1-3.4h0c-1.7,0-3.1,1.4-3.1,3.1L49.6,84.1z"/>
<polygon id="XMLID_147_" class="st4" points="49.6,89.7 52.2,89.7 52.6,84.1 49.6,84.1 "/>
<path id="XMLID_146_" class="st11" d="M49.1,89.9h3.8v-0.3c0-0.8-0.6-1.4-1.4-1.4h-1c-0.8,0-1.4,0.6-1.4,1.4V89.9z"/>
<g id="XMLID_1508_">
	<path id="XMLID_134_" class="st10" d="M48.2,84.1h-2.8l-3-27.2c-0.2-1.8,1.2-3.4,3.1-3.4h0c1.7,0,3.1,1.4,3.1,3.1L48.2,84.1z"/>
	<polygon id="XMLID_145_" class="st4" points="48.2,89.7 45.6,89.7 45.2,84.1 48.2,84.1 	"/>
	<path id="XMLID_128_" class="st11" d="M48.6,89.9h-3.8v-0.3c0-0.8,0.6-1.4,1.4-1.4h1c0.8,0,1.4,0.6,1.4,1.4V89.9z"/>
</g>
<g id="XMLID_198_">
	<path class="st10" d="M39.6,44.8c0-0.1-0.2-0.3-0.1-0.2c0,0,0,0,0,0l0.1,0.1c0.1,0,0.2,0.1,0.3,0.1c0.1,0,0.2,0.1,0.3,0.2
		c0.4,0.2,1,0.4,1.5,0.7l3.2,1.3l0,0c0.8,0.3,1.2,1.3,0.9,2.1c-0.3,0.7-1,1.1-1.7,1c-1.3-0.2-2.5-0.4-3.7-0.8
		c-0.6-0.2-1.2-0.4-1.9-0.7c-0.2-0.1-0.3-0.2-0.5-0.3c-0.2-0.1-0.3-0.2-0.5-0.3l-0.3-0.2L37,47.4c-0.2-0.1-0.5-0.5-0.7-0.9
		c-0.5-0.9-0.1-2.1,0.8-2.5C38,43.5,39.2,43.9,39.6,44.8z"/>
</g>
<g id="XMLID_1694_">
	<path class="st10" d="M61.3,45.8c0,0.1-0.1,0.3-0.1,0.4c0,0.2-0.1,0.3-0.1,0.3l-0.1,0.3c-0.1,0.2-0.2,0.3-0.3,0.4
		c-0.2,0.3-0.3,0.5-0.5,0.7c-0.4,0.5-0.7,0.9-1.1,1.3c-0.8,0.8-1.6,1.6-2.4,2.3C56,52,55.3,52,54.8,51.4c-0.3-0.4-0.4-0.9-0.2-1.4
		l0,0c0.5-1,1-1.9,1.6-2.9c0.3-0.5,0.5-0.9,0.8-1.4c0.1-0.2,0.3-0.4,0.4-0.6c0.1-0.1,0.1-0.2,0.2-0.3l0-0.1c0,0,0,0,0,0.1
		c0,0.1,0,0.2,0,0.3c0.2-1,1.1-1.7,2.1-1.6C60.7,43.9,61.4,44.8,61.3,45.8z"/>
</g>
<g id="XMLID_197_">
	<path id="XMLID_348_" class="st12" d="M44.8,48.5c0,0-0.6-1.6,0.6-2.4"/>
	<path id="XMLID_359_" class="st12" d="M43.4,48.7c0,0,0.7,1.6,2.8,1.7"/>
	<path id="XMLID_1693_" class="st12" d="M44.3,48.5c0,0,1.2,1,2.7,0.6"/>
	<path id="XMLID_1703_" class="st12" d="M44.6,47.5c0,0,1.4,0.8,2.4,0.2"/>
</g>
<g id="XMLID_1704_">
	<path id="XMLID_1720_" class="st12" d="M54.5,51.2c0,0,0.4-1.7-1-2.2"/>
	<path id="XMLID_1719_" class="st12" d="M55.9,51.2c0,0-0.4,1.6-2.5,2.2"/>
	<path id="XMLID_1718_" class="st12" d="M55,51.1c0,0-1,1.2-2.6,1"/>
	<path id="XMLID_1717_" class="st12" d="M54.5,50.2c0,0-1.2,1-2.4,0.6"/>
</g>
<path class="st11" d="M56.2,30.5H41.5c-2.6,0-4.3-2.8-3-5.1l4.6-8l0.8-1.3l0.7-1.2l0.3-0.6l1-1.7c1.3-2.3,4.6-2.3,5.9,0l1,1.7
	l0.3,0.5l0.7,1.2l0.7,1.2l4.6,8C60.5,27.6,58.9,30.5,56.2,30.5z"/>
<rect x="47.4" y="29.3" class="st13" width="2.9" height="2.7"/>
<g id="XMLID_2757_">
	<circle id="XMLID_2759_" class="st11" cx="48.9" cy="13.1" r="3.3"/>
	<path id="XMLID_2758_" class="st6" d="M53.1,15.6c0-2.3-1.9-4.2-4.2-4.2c-2.3,0-4.2,1.9-4.2,4.2S53.1,18,53.1,15.6z"/>
</g>
<path class="st10" d="M54.6,20.9v4c0,2.7-2.2,4.9-4.9,4.9H48c-2.7,0-4.9-2.2-4.9-4.9v-4c0.2,0,0.4,0,0.6,0c2.2,0,4.1-1.1,5.2-2.9
	c1.1,1.7,3,2.9,5.2,2.9C54.2,20.9,54.4,20.9,54.6,20.9z"/>
<path class="st11" d="M53.8,16.1h-9.9l0.7-1.2l0.3-0.6c1.1-1.2,3.9-1.2,3.9-1.2c1.2,0,3.1,0.5,4,1.2l0.3,0.5L53.8,16.1z"/>
<path id="XMLID_1492_" class="st14" d="M51.1,25H51c-0.2,0-0.4-0.2-0.4-0.4V24c0-0.2,0.2-0.4,0.4-0.4h0.1c0.2,0,0.4,0.2,0.4,0.4v0.7
	C51.5,24.8,51.3,25,51.1,25z"/>
<path id="XMLID_1491_" class="st14" d="M46.7,25h-0.1c-0.2,0-0.4-0.2-0.4-0.4V24c0-0.2,0.2-0.4,0.4-0.4h0.1c0.2,0,0.4,0.2,0.4,0.4
	v0.7C47.1,24.8,46.9,25,46.7,25z"/>
<path id="XMLID_1488_" class="st11" d="M47.2,22.3L45,22.5c-0.2,0-0.3-0.1-0.3-0.3l0,0c0-0.1,0.1-0.3,0.3-0.3l2.2-0.3
	c0.2,0,0.3,0.1,0.3,0.3C47.5,21.9,47.4,22.3,47.2,22.3z"/>
<path id="XMLID_1487_" class="st11" d="M50.4,22.3l2.2,0.1c0.2,0,0.3-0.1,0.3-0.3l0,0c0-0.1-0.1-0.3-0.3-0.3l-2.2-0.3
	c-0.2,0-0.3,0.1-0.3,0.3C50.1,21.9,50.2,22.3,50.4,22.3z"/>
<path id="XMLID_1493_" class="st4" d="M48.9,26.2h-0.1c-0.2,0-0.3-0.1-0.3-0.3V23c0-0.2,0.1-0.3,0.3-0.3h0.1c0.2,0,0.3,0.1,0.3,0.3
	v2.9C49.2,26,49.1,26.2,48.9,26.2z"/>
<g id="XMLID_1486_">
	
		<ellipse id="XMLID_1490_" transform="matrix(0.9691 -0.2466 0.2466 0.9691 -5.209 13.0878)" class="st4" cx="49.6" cy="27.3" rx="1.1" ry="0.6"/>
	<path id="XMLID_1489_" class="st15" d="M47.4,27.3c0,0,2.4,0.9,4.2-1.1"/>
</g>
<g id="XMLID_652_">
	<path class="st11" d="M54.6,18.1v2.8c-0.2,0-0.4,0-0.7,0c-2.2,0-4.1-1.1-5.2-2.9c-1.1,1.7-3,2.9-5.2,2.9c-0.2,0-0.4,0-0.6,0v-2.8
		c0-0.2,0-0.5,0.1-0.7l1.5-2.5h8.5l1.4,2.5C54.6,17.6,54.6,17.8,54.6,18.1z"/>
</g>
</svg>
