<?xml version="1.0" encoding="utf-8"?>
<!-- Generator: Adobe Illustrator 21.0.0, SVG Export Plug-In . SVG Version: 6.00 Build 0)  -->
<svg version="1.1" id="Layer_1" xmlns="http://www.w3.org/2000/svg" xmlns:xlink="http://www.w3.org/1999/xlink" x="0px" y="0px"
	 viewBox="0 0 100 100" style="enable-background:new 0 0 100 100;" xml:space="preserve">
<style type="text/css">
	.st0{clip-path:url(#XMLID_3_);fill:#423894;}
	.st1{display:none;fill:none;stroke:#EA8A31;stroke-width:0.5956;stroke-miterlimit:10;}
	.st2{fill:none;}
	.st3{fill:#E35B29;}
	.st4{fill:#FBCAB1;}
	.st5{fill:#5A2F49;}
	.st6{fill:#C04227;}
	.st7{fill:#423894;}
	.st8{fill:#D14E28;}
	.st9{fill:none;stroke:#5A304A;stroke-width:1.1459;stroke-miterlimit:10;}
</style>
<g id="XMLID_24923_">
	<g id="XMLID_24924_">
		<defs>
			<path id="XMLID_24925_" d="M34.4,64.7c0,0-7-8.1-4-20.8c0,0-5.2,3.3-6.6,9.9l-0.7-3.4c0,0-4.5,9.4,3,16.5
				C38,74.9,34.4,64.7,34.4,64.7z"/>
		</defs>
		<use xlink:href="#XMLID_24925_"  style="overflow:visible;fill:#D65028;"/>
		<clipPath id="XMLID_3_">
			<use xlink:href="#XMLID_24925_"  style="overflow:visible;"/>
		</clipPath>
		<path id="XMLID_24926_" class="st0" d="M17.3,42.6c0,0,3.7,11,4.4,11.3c5.3,2.2,11.4-2.6,11.4-2.6L33,41.1L17.3,42.6z"/>
	</g>
</g>
<path id="XMLID_85_" class="st1" d="M61,82.3c0,0-3.3,1.4-8.9,1.6"/>
<g id="XMLID_30_">
</g>
<rect x="10" y="10" class="st2" width="80" height="80"/>
<path class="st3" d="M70.5,73.5c0,5.8-1.7,12-4.5,17.1H32.6c-2.8-5.1-4.7-11.3-4.5-17.1c0.5-12.3,6.9-18,9.2-19.7
	c0,0,23.8-0.2,24.1,0C63.6,55.6,70.5,63.4,70.5,73.5z"/>
<g>
	<path id="XMLID_6174_" class="st4" d="M56.1,58.2c-3.8-3.5-10.7-4.9-13.9-0.8c-1.7,2.1-2.4,9.3-2,8.7V75c0,3.8,2.1,7.1,5.1,8.9
		c1.1,0.6,2.3,0.9,3.5,0.9h0c1.3,0,2.5-0.3,3.6-0.9c3.1-1.8,5.1-5.1,5.1-8.8V64.3C57.5,63.3,57,59.1,56.1,58.2z"/>
	<path id="XMLID_6173_" class="st4" d="M44.9,83.1c0,0,0.7,2.1,5,2.5c0,0-2.3-3-2.5-3.7"/>
</g>
<g id="XMLID_342_">
	<path id="XMLID_3033_" class="st5" d="M63.8,45.8c0,9.3-7.6,13-14.5,13c-6.3,0-14.5-3.6-14.5-13c0-9.3,2.9-18.5,14.5-18.6
		C61.6,27.2,63.8,36.4,63.8,45.8z"/>
</g>
<g id="XMLID_333_">
	<path id="XMLID_341_" class="st3" d="M42.2,26.2c-0.6-7.1-6.1-12.4-6.1-12.4s-4.6,6.1-4,13.2c0.6,7.1,6.1,12.4,6.1,12.4
		S42.7,33.2,42.2,26.2z"/>
	<path id="XMLID_335_" class="st6" d="M37.8,34.2c-1.2-1.9-2.6-4.5-2.8-7.5c-0.2-3,0.6-5.8,1.6-7.8c1.2,1.9,2.6,4.6,2.8,7.5
		C39.6,29.3,38.7,32.1,37.8,34.2z"/>
	<path id="XMLID_334_" class="st3" d="M38,40.5c0,0-7.2-2.2-6.7-11.4c0,0,3.5,6.5,6.5,6.6L38,40.5z"/>
</g>
<g id="XMLID_331_">
	<path id="XMLID_332_" class="st5" d="M56.4,26c1.2-7,7.2-11.7,7.2-11.7s4,6.5,2.7,13.5S55.2,32.9,56.4,26z"/>
</g>
<g id="XMLID_186_">
	<path id="XMLID_189_" class="st3" d="M65.4,42c0,10.4-8.4,14.4-16.1,14.4c-7,0-16.1-4-16.1-14.4c0-10.4,3.2-20.6,16.1-20.6
		C63,21.4,65.4,31.6,65.4,42z"/>
</g>
<path class="st6" d="M38.6,50.7c-2.4,0.8-1.1,8.6,0.6,9.5c-0.1,0,5.1,0.1,5.1,0.1c1.5-0.4,1.8-2.9,2.2-4.2c0.7-2.3,3.4-7.7-0.1-9.1
	C44.6,46.2,40.7,49.9,38.6,50.7z"/>
<ellipse id="XMLID_185_" class="st5" cx="56.6" cy="38.7" rx="1.6" ry="2.3"/>
<ellipse id="XMLID_191_" class="st5" cx="41.9" cy="38.7" rx="1.5" ry="2.1"/>
<g id="XMLID_184_">
	<g>
		<path class="st5" d="M49.4,47.1c-1.3,0.5-2.9,0.3-4-0.6c-0.5-0.4-1.2,0.3-0.7,0.7c1.4,1.2,3.3,1.5,5,0.9
			C50.3,47.9,50,46.9,49.4,47.1L49.4,47.1z"/>
	</g>
</g>
<path id="XMLID_183_" class="st7" d="M49.3,44.9c1.7,0,3.5-1.8,3.5-3.1c0.1-1.4-2.6-1.3-3.5-1.3c-0.9,0-3.6-0.1-3.5,1.3
	C45.8,43.2,47.6,44.9,49.3,44.9z"/>
<g id="XMLID_489_">
	<path id="XMLID_498_" class="st8" d="M39.1,76.1l-2.9,0.7c-2.1,0.5-4.1-0.8-4.6-2.8l-1.2-4.8c-0.3-1.4,0.5-2.9,2-3.2l5.1-1.2
		c1.4-0.3,2.9,0.5,3.2,2l1.2,4.8C42.4,73.5,41.1,75.6,39.1,76.1z"/>
	<g id="XMLID_490_">
		<g id="XMLID_493_">
			<line id="XMLID_497_" class="st9" x1="36.6" y1="74.9" x2="37.2" y2="77.1"/>
		</g>
		<g id="XMLID_491_">
			<line id="XMLID_492_" class="st9" x1="38.4" y1="74.5" x2="38.9" y2="76.7"/>
		</g>
	</g>
</g>
<g id="XMLID_499_">
	<path id="XMLID_500_" class="st8" d="M60.3,76.6l-2.6-1.4c-1.8-1-2.5-3.3-1.5-5.2l2.4-4.4c0.7-1.3,2.3-1.7,3.6-1l4.6,2.6
		c1.3,0.7,1.7,2.3,1,3.6l-2.4,4.4C64.5,76.9,62.1,77.6,60.3,76.6z"/>
	<g id="XMLID_174_">
		<g id="XMLID_177_">
			<line id="XMLID_178_" class="st9" x1="59" y1="73.9" x2="57.9" y2="75.9"/>
		</g>
		<g id="XMLID_175_">
			<line id="XMLID_176_" class="st9" x1="60.6" y1="74.8" x2="59.5" y2="76.8"/>
		</g>
	</g>
</g>
</svg>
