<?xml version="1.0" encoding="utf-8"?>
<!-- Generator: Adobe Illustrator 21.0.0, SVG Export Plug-In . SVG Version: 6.00 Build 0)  -->
<svg version="1.1" id="Layer_1" xmlns="http://www.w3.org/2000/svg" xmlns:xlink="http://www.w3.org/1999/xlink" x="0px" y="0px"
	 viewBox="0 0 100 100" style="enable-background:new 0 0 100 100;" xml:space="preserve">
<style type="text/css">
	.st0{fill:none;}
	.st1{fill:#5A2F49;}
	.st2{fill:#635EA9;}
	.st3{fill:#E65C28;}
	.st4{fill:#E35B29;}
	.st5{fill:#F2AB81;}
	.st6{fill:#423894;}
	.st7{clip-path:url(#XMLID_2_);fill:none;stroke:#5A2F49;stroke-width:1.4936;stroke-miterlimit:10;}
	.st8{fill:none;stroke:#5A2F49;stroke-width:0.8785;stroke-linecap:round;stroke-miterlimit:10;}
	.st9{fill:none;stroke:#5A2F49;stroke-width:0.6442;stroke-linecap:round;stroke-miterlimit:10;}
	.st10{fill:#F3981F;}
	.st11{fill:none;stroke:#FFE8CB;stroke-width:0.8497;stroke-miterlimit:10;}
</style>
<rect x="10" y="10" class="st0" width="80" height="80"/>
<path id="XMLID_15050_" class="st1" d="M28.9,84L28.9,84c-1.7,0-3.2-1.4-3.2-3.2l-2.6-15.7h7.4l1.6,16C31.9,82.8,30.5,84,28.9,84z"
	/>
<path id="XMLID_15048_" class="st1" d="M53.8,80.6L53.8,80.6c-1.4,1.1-3.3,0.9-4.4-0.5l-9.8-12.3l5.8-4.6l9.1,13.2
	C55.4,77.8,55.1,79.6,53.8,80.6z"/>
<rect id="XMLID_15047_" x="42.2" y="53.3" class="st2" width="10.7" height="5.5"/>
<g id="XMLID_15118_">
	<path class="st3" d="M20.5,57.3c0,0,0,8.7-5,2.7c-3-2.5-3.9-5.3-4.1-7.3c-0.1-1.6,0.2-2.6,0.2-2.6l0.9,1.9c-0.1-4.2,2.6-7,2.6-7
		c0,2.2,0.4,4.1,0.9,5.7C17.6,55.2,20.5,57.3,20.5,57.3z"/>
</g>
<path id="XMLID_15040_" class="st4" d="M44.7,84.6L44.7,84.6c-1.7,0-3.2-1.4-3.2-3.2l-2.6-15.7h7.4l1.6,16
	C47.7,83.4,46.4,84.6,44.7,84.6z"/>
<path id="XMLID_15038_" class="st1" d="M49.2,45.2c1-3-0.2-6.1-0.2-6.1s-3,1.7-4,4.6c-1,3,0.2,6.1,0.2,6.1S48.2,48.1,49.2,45.2z"/>
<path class="st4" d="M60.1,47.4v1.7c0,4.1-3.1,7.6-7.1,8.1v7.2c0,3.5-1.7,6.5-4.2,8.5c-1.8,1.3-4,2.1-6.4,2.1H28.2
	c-5.9,0-10.6-4.8-10.6-10.6v-8.4h19c0.8,0,1.5-0.2,2.2-0.6c1-0.6,1.7-1.5,2.1-2.6c0.7-2.6,1.4-5.2,1.4-5.4c0,0,2.2-3.2,4.1-3.2h4.9
	c1.1,0,2,0.4,2.7,1.1c0.5,0.5,0.9,1.3,1.1,2.1H60.1z"/>
<path class="st5" d="M53,59.4v5c0,3.5-1.7,6.5-4.2,8.5v-8.1c0-1.5,0.6-2.9,1.6-3.9C51.1,60.2,52,59.6,53,59.4z"/>
<path class="st6" d="M38.9,57.9c-0.3,2.2-2.3,3.8-4.5,3.6C32,61.2,29.3,61,27,60.5c-2.6-0.5-4.5-2.1-5.5-4.5h15.2
	c0.8,0,1.5-0.2,2.2-0.6C38.9,56.2,39,57,38.9,57.9z"/>
<g id="XMLID_15026_">
	<defs>
		<path id="XMLID_15027_" d="M42.2,47.4L42.2,47.4c0,0.3-0.7,2.9-1.4,5.4c-0.5,1.9-2.2,3.2-4.2,3.2l-19,0v8.4c0,1.9,0.5,3.6,1.3,5.1
			l6.8,5.2c0.8,0.2,1.6,0.3,2.5,0.3h10.7l2.6,6.4c0,1.7,1.4,3.2,3.2,3.2c1.6,0,3-1.3,3.1-2.9l-2.1-7.3c4.2-1.4,7.2-5.4,7.2-10.1
			v-7.2c4-0.5,7.1-4,7.1-8.1v-1.7H42.2z"/>
	</defs>
	<clipPath id="XMLID_2_">
		<use xlink:href="#XMLID_15027_"  style="overflow:visible;"/>
	</clipPath>
	<path id="XMLID_15028_" class="st7" d="M38.9,51.1c0,0,2.1,10.4,17.8,6.8"/>
</g>
<path id="XMLID_15025_" class="st4" d="M46.3,44.7c1-3-0.2-6.1-0.2-6.1s-3,1.7-4,4.6c-1,3,0.2,6.1,0.2,6.1S45.2,47.6,46.3,44.7z"/>
<path id="XMLID_15023_" class="st6" d="M59.3,49.6h0.7v-2.2h-2.7v0.2C57.3,48.7,58.2,49.6,59.3,49.6z"/>
<g id="XMLID_15091_">
	<path class="st4" d="M30,65.9l-6.7,14.5c-0.2,0.4-0.4,0.7-0.7,0.9c-0.9,0.8-2.1,1.1-3.3,0.6c-1.6-0.6-2.4-2.4-1.8-4.1l1-2.6
		l4.6-12.1L30,65.9z"/>
	<g id="XMLID_377_">
		<defs>
			<path id="XMLID_371_" d="M19.3,82L19.3,82c-1.6-0.6-2.4-2.4-1.8-4.1l5.6-14.7l6.9,2.6l-6.7,14.5C22.6,81.9,20.9,82.6,19.3,82z"/>
		</defs>
		<clipPath id="XMLID_3_">
			<use xlink:href="#XMLID_371_"  style="overflow:visible;"/>
		</clipPath>
	</g>
</g>
<path class="st5" d="M22.6,81.4c-0.9,0.8-2.1,1.1-3.3,0.6c-1.6-0.6-2.4-2.4-1.8-4.1l1-2.6C20.7,76.8,22.2,79,22.6,81.4z"/>
<path id="XMLID_15016_" class="st5" d="M54.2,55.5l-0.2,0c-0.5,0-0.9-0.4-0.9-0.9l0-1.5l2,0.1l0,1.5C55.1,55.1,54.7,55.5,54.2,55.5z
	"/>
<path id="XMLID_15014_" class="st0" d="M42.2,47.4L42.2,47.4c0,0.3-0.7,2.9-1.4,5.4c-0.1,0.3-0.2,0.6-0.4,0.9
	c-0.1,0.3-0.3,0.5-0.5,0.8c-0.4,0.2-0.1,0.5-0.7,0.6c-0.1,0.1-0.3,0.2-0.4,0.3c-0.2,0.1-0.3,0.2-0.4,0.2c-0.1,0.1-0.3,0.2-0.4,0.2
	c-0.2,0-0.3,0-0.5,0.1c-0.2,0-0.4,0.2-0.5,0.1c-0.1-0.1-0.3,0-0.5,0c-0.2-0.2-0.2,0.2-0.2,0c0.2,0.2,0-0.2-0.2,0
	c-0.2,0.2-0.4-0.2-0.3,0c-0.1-0.1-0.2,0.1-0.3,0c-0.1-0.2-0.2,0.1-0.4,0c-0.2,0-0.3,0-0.5,0s-0.3,0-0.5,0c-0.4,0-0.8,0-1.2,0
	c-1.8,0-4.2,0-6.4,0c-0.5,0-0.9,0-1.4,0c-0.4,0-0.8,0-1.3,0c0,0-0.5,0-1.3,0c-0.7,0-1,0-1.2,0c-0.4,0-0.8,0-1.1,0
	c-0.4,0-0.7,0-0.9,0c0,0-0.8,0-0.8,0c-0.4,0-0.2,0-0.6,0c-0.2,0-0.3,0-0.4,0c-0.1,0-0.1,0-0.1,0v8.4c0,5.9,4.8,10.6,10.6,10.6h14.1
	C48.2,75,53,70.3,53,64.4l0-7.2c4-0.5,7.1-4,7.1-8.1v-1.7H42.2z"/>
<path id="XMLID_15013_" class="st8" d="M51.4,48.7c0-0.7,0.4-1.2,0.9-1.2c0.5,0,0.9,0.5,0.9,1.2"/>
<path id="XMLID_15011_" class="st9" d="M53,52.2c0,0,1.1,1.6,2.8,0.7"/>
<g id="XMLID_15304_">
	<path id="XMLID_24686_" class="st10" d="M76.6,15.4c4,4.6,8,9.1,12,13.7C87,40,71.5,35.7,70,46.6c-4.3-4.4-8.7-8.9-13-13.3
		C58.6,22.1,74.9,26.6,76.6,15.4z"/>
	<line id="XMLID_15301_" class="st11" x1="61.7" y1="29.7" x2="70.8" y2="39.2"/>
	<line id="XMLID_15302_" class="st11" x1="64.9" y1="27.8" x2="73.9" y2="37.5"/>
	<line id="XMLID_15303_" class="st11" x1="68.4" y1="26.8" x2="77.1" y2="36.1"/>
</g>
<path class="st6" d="M16,50.8c-0.7,0.5-1.6,1-2.6,1.4c-0.7,0.3-1.4,0.4-2,0.5c-0.1-1.6,0.2-2.6,0.2-2.6l0.9,1.9
	c-0.1-4.2,2.6-7,2.6-7C15.1,47.3,15.5,49.2,16,50.8z"/>
</svg>
