<?xml version="1.0" encoding="utf-8"?>
<!-- Generator: Adobe Illustrator 21.0.0, SVG Export Plug-In . SVG Version: 6.00 Build 0)  -->
<svg version="1.1" id="Layer_1" xmlns="http://www.w3.org/2000/svg" xmlns:xlink="http://www.w3.org/1999/xlink" x="0px" y="0px"
	 viewBox="0 0 100 100" style="enable-background:new 0 0 100 100;" xml:space="preserve">
<style type="text/css">
	.st0{fill-rule:evenodd;clip-rule:evenodd;fill:#F9D7B2;}
	.st1{fill:none;}
	.st2{fill:#FFFFFF;}
	.st3{fill:none;stroke:#C6A277;stroke-width:0.3082;stroke-miterlimit:10;}
	.st4{fill:#44439A;}
	.st5{fill:#E35B29;}
	.st6{fill:#5A2F49;}
</style>
<polygon class="st0" points="81.6,74.1 73.8,74.2 73.1,74.2 61.5,74.2 61.3,74.2 48.7,74.3 40.8,74.4 18.7,74.5 18.4,31.5 
	81.3,31.2 "/>
<rect x="10" y="10" class="st1" width="80" height="80"/>
<g>
	<path class="st2" d="M34.9,31.2C35,33,35,34.8,35,36.6c0,1.8,0.1,3.6,0,5.4c0,3.6,0,7.2,0,10.8c0.1,3.6,0.1,7.2,0.1,10.8
		c0,3.6,0,7.2,0,10.8l0,0c-0.1-3.6-0.2-7.2-0.2-10.8c0-3.6,0-7.2,0-10.8c0-3.6,0-7.2-0.1-10.8c0-1.8,0-3.6,0-5.4
		C34.9,34.8,34.9,33,34.9,31.2L34.9,31.2z"/>
</g>
<g>
	<path class="st2" d="M50.9,31.3c0,1.8,0.1,3.6,0.1,5.4c0,1.8,0,3.6,0,5.4c0,3.6-0.1,7.2,0,10.8C51,56.4,51,60,51,63.5
		c0,3.6,0,7.2-0.1,10.8l0,0c-0.1-3.6-0.1-7.2-0.1-10.8c0-3.6,0-7.2,0.1-10.8c0.1-3.6,0-7.2,0-10.8c0-1.8,0-3.6,0-5.4
		C50.8,34.8,50.8,33.1,50.9,31.3L50.9,31.3z"/>
</g>
<g>
	<path class="st2" d="M18.6,53.3c2.6-0.1,5.2-0.1,7.9-0.1c2.6,0,5.2,0,7.9,0c5.2,0,10.5,0,15.7,0l15.7-0.1c5.2,0,10.5,0,15.7,0.1
		l0,0c-5.2,0.1-10.5,0.1-15.7,0.2l-15.7,0c-5.2,0-10.5,0-15.7,0.1c-2.6,0-5.2,0-7.9,0C23.8,53.4,21.2,53.4,18.6,53.3L18.6,53.3z"/>
</g>
<g id="XMLID_15129_">
	<path id="XMLID_15052_" class="st3" d="M63,52.4c0,3.8-0.4-20-2.2-18.7c-6,4.4-6.1,11.8-6.1,18.3"/>
	<path id="XMLID_15111_" class="st3" d="M54.7,54.3c0,6.5,0.2,13.8,6.3,18.2c1.8,1.3,1.9-22.5,2-18.7"/>
	<path id="XMLID_15123_" class="st3" d="M45.1,53.9c0,6.7,0.1,14.3,6.3,18.8c1.7,1.3,1.9-21.7,2-18.4"/>
	<path id="XMLID_378_" class="st3" d="M53.3,52c0,3.2-0.5-19.4-2.2-18.2C45,38.4,45,45.9,45.1,52.5"/>
	<polyline id="XMLID_458_" class="st3" points="61,33.7 61.1,51.1 61.1,55.1 61.2,72.5 	"/>
	<g id="XMLID_15358_">
		<g id="XMLID_15203_">
			<line id="XMLID_15087_" class="st3" x1="62.4" y1="37.8" x2="57.3" y2="37.9"/>
			<line id="XMLID_15112_" class="st3" x1="62.9" y1="41.5" x2="55.5" y2="41.5"/>
			<line id="XMLID_15113_" class="st3" x1="62.9" y1="45" x2="54.7" y2="45"/>
			<line id="XMLID_15130_" class="st3" x1="62.9" y1="48.2" x2="54.7" y2="48.3"/>
		</g>
		<g id="XMLID_15221_">
			<line id="XMLID_15223_" class="st3" x1="63" y1="57.9" x2="54.7" y2="58"/>
		</g>
	</g>
	<polyline id="XMLID_15417_" class="st3" points="51.3,33.7 51.4,51.1 51.4,55.2 51.5,72.6 	"/>
	<g id="XMLID_15437_">
		<g id="XMLID_15410_">
			<line id="XMLID_15416_" class="st3" x1="52.8" y1="37.9" x2="47.7" y2="37.9"/>
			<line id="XMLID_15415_" class="st3" x1="53.3" y1="41.6" x2="45.8" y2="41.6"/>
			<line id="XMLID_15414_" class="st3" x1="53.3" y1="45" x2="45" y2="45.1"/>
			<line id="XMLID_15413_" class="st3" x1="53.3" y1="48.3" x2="45" y2="48.3"/>
		</g>
		<g id="XMLID_15394_">
			<line id="XMLID_15409_" class="st3" x1="53" y1="68.4" x2="47.9" y2="68.4"/>
			<line id="XMLID_15408_" class="st3" x1="53.4" y1="64.7" x2="46" y2="64.7"/>
			<line id="XMLID_15403_" class="st3" x1="53.4" y1="61.2" x2="45.1" y2="61.3"/>
			<line id="XMLID_15402_" class="st3" x1="53.4" y1="58" x2="45.1" y2="58"/>
		</g>
	</g>
	<path id="XMLID_15357_" class="st3" d="M67.4,53.2c-5.3-0.7-27.6-1.3-27.2,0.2C40.5,54.8,59.4,54.4,67.4,53.2z"/>
	<line id="XMLID_15336_" class="st3" x1="27.3" y1="53.3" x2="67.4" y2="53"/>
	<g id="XMLID_15046_">
		<g id="XMLID_15425_">
			<path id="XMLID_15418_" class="st3" d="M39.7,53.2c-2-2.8-6-6.6-8.7-8.8c-1.5,2.8-2.1,5.7-2.4,8.8"/>
			<line id="XMLID_15426_" class="st3" x1="38.8" y1="52.8" x2="29.7" y2="47.3"/>
			<line id="XMLID_15427_" class="st3" x1="38.3" y1="52.9" x2="28.9" y2="50.3"/>
		</g>
		<g id="XMLID_15428_">
			<path id="XMLID_15431_" class="st3" d="M39.7,53.2c-2,2.8-6.1,6.3-8.7,8.5c-1.6-2.8-2-5.3-2.4-8.5"/>
			<line id="XMLID_15429_" class="st3" x1="38.3" y1="53.5" x2="28.9" y2="56.2"/>
		</g>
	</g>
</g>
<g>
	<path class="st2" d="M66.5,31.3c0.1,1.8,0.1,3.6,0.1,5.4c0,1.8,0.1,3.6,0,5.4c0,3.6,0,7.2,0,10.7c0.1,3.6,0.1,7.2,0.1,10.7
		c0,3.6,0,7.2,0,10.7l0,0c-0.1-3.6-0.2-7.2-0.2-10.7c0-3.6,0-7.2,0-10.7c0-3.6,0-7.2-0.1-10.7c0-1.8,0-3.6,0-5.4
		C66.5,34.8,66.5,33.1,66.5,31.3L66.5,31.3z"/>
</g>
<path class="st4" d="M61.5,74.2c0-5.5,0.6-11.8,0.6-14c3.7-0.4,7.5,6.5,8.9,8.8c0.9,1.4,1.6,3.2,2,5.1L61.5,74.2z"/>
<path class="st4" d="M48.7,74.3l-7.9,0.1c-0.3-3.9,0.3-16.1,0.3-20C47,58.8,49.6,70.7,48.7,74.3z"/>
<g id="XMLID_15330_">
	<path class="st5" d="M43.8,59c-0.1,0-0.7,23.5-0.8,26H30.4C30.6,83,33,58.1,33.1,58C34.4,51.9,43.5,52.9,43.8,59z"/>
	<g id="XMLID_25257_">
		<g id="XMLID_25259_">
			<path id="XMLID_15441_" class="st6" d="M41,57c-0.1,0-1.1,0-1.1,0c0,0,0.1-3.8,0.1-3.8l1.1,0C41.1,53.2,40.9,57,41,57z"/>
		</g>
		<g id="XMLID_25258_">
			<path id="XMLID_15440_" class="st6" d="M38.2,56.9c0-0.1-1.1,0-1.1,0s0-3.7,0.1-3.8c0.1-0.1,1,0,1.1,0
				C38.2,53.4,38.2,56.9,38.2,56.9z"/>
		</g>
	</g>
</g>
<g id="XMLID_1_">
	<path class="st5" d="M67,84.9H54.7c-0.1-2-0.5-20.7-0.6-20.7c0.1-2.1,1.2-4.5,3.9-4.8c3.9-0.5,6.4,1.5,6.9,3.8
		C64.9,63.4,66.9,83.6,67,84.9z"/>
	<g id="XMLID_49_">
		<g id="XMLID_52_">
			<path id="XMLID_53_" class="st6" d="M56.9,62.3c0.1,0,1.1,0,1.1,0c0,0-0.1-3.8-0.1-3.8l-1.1,0C56.8,58.5,57,62.3,56.9,62.3z"/>
		</g>
		<g id="XMLID_50_">
			<path id="XMLID_51_" class="st6" d="M59.7,62.1c0-0.1,1.1,0,1.1,0s0-3.7-0.1-3.8c-0.1-0.1-1,0-1.1,0
				C59.7,58.7,59.7,62.1,59.7,62.1z"/>
		</g>
	</g>
</g>
</svg>
