<?xml version="1.0" encoding="utf-8"?>
<!-- Generator: Adobe Illustrator 21.0.0, SVG Export Plug-In . SVG Version: 6.00 Build 0)  -->
<svg version="1.1" id="Layer_1" xmlns="http://www.w3.org/2000/svg" xmlns:xlink="http://www.w3.org/1999/xlink" x="0px" y="0px"
	 viewBox="0 0 100 100" style="enable-background:new 0 0 100 100;" xml:space="preserve">
<style type="text/css">
	.st0{fill:none;}
	.st1{fill:#5A2F49;}
	.st2{fill:#E35B29;}
	.st3{clip-path:url(#SVGID_2_);fill:#423894;}
	.st4{fill:#423894;}
	.st5{fill:none;stroke:#5A2F49;stroke-width:0.4885;stroke-linecap:round;stroke-linejoin:round;stroke-miterlimit:10;}
	.st6{fill:#EB9871;}
	.st7{fill:none;stroke:#5A2F49;stroke-width:1.3587;stroke-miterlimit:10;}
	.st8{fill:#6A78B9;}
	.st9{fill:#E28865;}
	.st10{fill:#F2AB81;}
	.st11{fill:none;stroke:#5A2F49;stroke-width:0.5931;stroke-linecap:round;stroke-linejoin:round;stroke-miterlimit:10;}
	.st12{fill:none;stroke:#F2AC81;stroke-width:1.4346;stroke-linecap:round;stroke-linejoin:round;stroke-miterlimit:10;}
	.st13{fill:none;stroke:#F2AB81;stroke-width:4;stroke-linecap:round;stroke-linejoin:round;stroke-miterlimit:10;}
	.st14{fill:#CE4C28;}
</style>
<rect x="10" y="10" class="st0" width="80" height="80"/>
<path id="XMLID_24928_" class="st1" d="M42.2,71.2L42.2,71.2c-1.4,0.3-2.8-0.6-3.2-2l2.6-8.7l2.6,7.8C44.4,69.6,43.5,70.9,42.2,71.2
	z"/>
<path id="XMLID_15006_" class="st1" d="M30.3,77.9L30.3,77.9C28.9,78.1,29,65.2,29,65.2l3.6,10C32.7,76.5,31.7,77.7,30.3,77.9z"/>
<g id="XMLID_24923_">
	<g id="XMLID_24924_">
		<g>
			<path id="XMLID_24925_" class="st2" d="M20.4,64.4c0,0-5.6,0.9-10.4-3.9c0,0,0,3.2,2.6,5.7l-1.7-0.6c0,0,3.1,4.7,9.2,3.2
				L20.4,64.4z"/>
		</g>
		<g>
			<defs>
				<path id="SVGID_1_" d="M20.4,64.4c0,0-5.6,0.9-10.4-3.9c0,0,0,3.2,2.6,5.7l-1.7-0.6c0,0,3,4.6,8.2,3.2
					C25.7,69.2,20.4,64.4,20.4,64.4z"/>
			</defs>
			<clipPath id="SVGID_2_">
				<use xlink:href="#SVGID_1_"  style="overflow:visible;"/>
			</clipPath>
			<path id="XMLID_24926_" class="st3" d="M12.1,67.2c2.5-1.7,2-5.8,2-5.8l-4.6-2.8C9.5,58.6,9.6,68.9,12.1,67.2z"/>
		</g>
	</g>
</g>
<path id="XMLID_24921_" class="st1" d="M34.4,41.6c-0.1-2.6-2.1-4.7-2.1-4.7s-1.8,2.2-1.7,4.8C30.8,44.4,34.5,44.2,34.4,41.6z"/>
<path class="st2" d="M40.9,50.4l-10.3,2.2c-0.1-1.1-0.6-7.2-0.6-7.2c-0.3-1.5,0.5-3.1,2-3.7c0,0,4.6-1.7,5-1.7
	c1.1,0,2.2,0.6,2.8,1.6l3.9-1.5l0.5,1.4C45.4,44.6,43.8,48.7,40.9,50.4z"/>
<path id="XMLID_24919_" class="st2" d="M32,42.1c-0.1-2.6-2.1-4.7-2.1-4.7s-1.8,2.2-1.7,4.8c0.1,2.6,2.1,4.7,2.1,4.7
	S32.1,44.7,32,42.1z"/>
<path id="XMLID_24917_" class="st4" d="M43.7,42l0.6-0.2L43.6,40l-2.1,0.8v0.1C41.8,41.9,42.8,42.3,43.7,42z"/>
<ellipse id="XMLID_24915_" transform="matrix(0.9308 -0.3655 0.3655 0.9308 -13.1742 16.8052)" class="st1" cx="37.8" cy="43.2" rx="0.7" ry="1"/>
<path id="XMLID_24914_" class="st5" d="M41.8,45.6c-1,1.3-2.4,0.5-2.4,0.5s-0.1,1.5,1.6,1.2"/>
<path class="st2" d="M39.4,65.3c0,0-14.8,5.4-15.6,5.3c-1.6-0.1-3-0.6-3.9-1.9c-0.3-0.5-1.7-3.4-0.5-6.5c0,0,1.4-6.1,11.5-10.6
	c1.2-0.5,10.7-0.4,10.7-0.4L39.4,65.3z"/>
<path id="XMLID_24908_" class="st2" d="M40.4,73.7L40.4,73.7c-1.4,0.3-2.8-0.6-3.2-2l-2-6.6l4.2-7.5l3,13.1
	C42.6,72.1,41.8,73.4,40.4,73.7z"/>
<path id="XMLID_15005_" class="st2" d="M28.6,81.2L28.6,81.2c-1.4,0.2-2.8-0.8-3-2.3l-2.7-13L29,65l1.8,13.3
	C30.9,79.8,29.9,81,28.6,81.2z"/>
<g id="XMLID_1382_">
	<g id="XMLID_24904_">
		<path class="st4" d="M28.4,57.8c-1,0.7-7.7,4.6-9,4.4c1.8-5.2,6.1-7.8,9.4-9.6C29,52.8,29.9,56.7,28.4,57.8z"/>
	</g>
	<g id="XMLID_24901_">
		<path class="st6" d="M42,58.8l-1.5,3.7c-0.2-0.4-1.2-7-1.2-7.1c-0.1-1.3,0.4-2.6,1.2-3.4c0.3-0.3,0.6-0.5,1-0.7l0.8,3.9
			C42.6,56.4,42.5,57.6,42,58.8z"/>
	</g>
	<path id="XMLID_24900_" class="st7" d="M26.5,46.5c0,0,2.7,8.5,15.4,4.1"/>
</g>
<path id="XMLID_15053_" class="st2" d="M57.6,56.6c0,0-5.9,5.3-8.2,7.8c-1.8,2-7.9-1.9-7.6-1.9l11.3-10.6L57.6,56.6z"/>
<g id="XMLID_24732_">
	<path id="XMLID_24795_" class="st2" d="M51,56.2c0-3.1,2.2-5.5,3.1-5.9l14.6-2.8c2.8,0.5,4.4,3.3,4.7,4.4
		c0.1,0.2,5.1,26.1,5.1,26.1L56,82.3C56,82.3,51,56.4,51,56.2z"/>
	<g id="XMLID_24793_">
		<path id="XMLID_24794_" class="st1" d="M55,77.4l-0.3-1.7c1.2-0.9,4.6-2.9,10.5-4.2c6.6-1.4,11.1-0.3,12.1,0.1l0.3,1.5
			C75,72.6,57.2,76.2,55,77.4z"/>
	</g>
</g>
<path id="XMLID_24786_" class="st1" d="M53.2,21.1l-8.6,21.4c-1.5,3.8,1.6,7.8,5.7,7.3l22.8-3.2c4.1-0.6,6-5.3,3.5-8.6L62.4,19.8
	C59.8,16.6,54.8,17.3,53.2,21.1z"/>
<g id="XMLID_24783_">
	<path id="XMLID_24785_" class="st1" d="M53.6,21.6c-0.4-2.8,1.5-5.4,4.3-5.8c2.8-0.4,5.4,1.5,5.8,4.3C64.1,22.9,54,24.3,53.6,21.6z
		"/>
</g>
<path id="XMLID_24784_" class="st8" d="M51.6,25.8c-0.5-3.6,2-6.9,5.6-7.5s6.9,2,7.5,5.6S52.1,29.4,51.6,25.8z"/>
<path id="XMLID_24777_" class="st9" d="M63.9,48.9l-1.3-6.1l-6.1,1.3l1.3,6.1C58.2,51.8,64.3,50.4,63.9,48.9z"/>
<path class="st10" d="M59.7,45.6l-1.3,0.1c-4.6,0.4-8.7-3-9.1-7.6L48.6,31l-0.2-2c-0.2-4.6,17.6-5.3,17.9-1.6v0.1l0.8,9
	C67.7,41.1,64.3,45.2,59.7,45.6z"/>
<g id="XMLID_24765_">
	<path class="st1" d="M66.5,27.6c-1.2,0.9-2.6,1.5-4.2,1.8c-3.4,0.5-6.6-0.8-8.6-3.2c-0.9,2.2-2.9,4-5.1,5c0,0-3.6-12.1,11.5-11
		C60.1,20.2,66.1,21.3,66.5,27.6L66.5,27.6z"/>
</g>
<path id="XMLID_24774_" class="st2" d="M55.7,39.4L55.7,39.4c0.4-0.1,0.6-0.3,0.5-0.7l-0.7-4.3c-0.1-0.3-0.3-0.5-0.6-0.5
	c0,0-0.7,0.1-0.6,0.6l0.7,4.3C55.1,39.3,55.4,39.5,55.7,39.4z"/>
<path id="XMLID_24773_" class="st4" d="M52.2,37.5c0.6-0.4,0.8-2.3-0.3-2.1C50.9,35.5,51.3,37.8,52.2,37.5z"/>
<path id="XMLID_24772_" class="st4" d="M58.8,36.4c0.9-0.3,0.4-2.4-0.5-2C57.2,34.8,58,36.3,58.8,36.4z"/>
<path id="XMLID_24771_" class="st1" d="M57.2,32.6c0.6,0,5.3,0.2,3.5-0.9c-0.3-0.2-2.9-0.4-3.2-0.2C57.4,31.6,56.1,32.6,57.2,32.6z"
	/>
<path id="XMLID_24770_" class="st1" d="M52.7,33.3c-0.5,0.2-4.8,2.4-3.5,0.5c0.2-0.3,2.5-1.5,2.8-1.5C52.2,32.3,53.7,32.8,52.7,33.3
	z"/>
<path id="XMLID_24735_" class="st11" d="M56.6,40.9c0,0,2.2,0.2,3.1-2.4c0,0,0.8,1.3-0.6,2.7"/>
<path id="XMLID_32469_" class="st12" d="M40.9,61.6c0,0-6.1-1.6-7.3-2.4"/>
<path id="XMLID_24742_" class="st12" d="M40.5,57.6c0,0,1.7,1.3,1.1,2.9"/>
<path id="XMLID_24741_" class="st12" d="M40.7,62.5c0,0-5.1-0.3-6.8-1.3"/>
<path id="XMLID_24740_" class="st12" d="M40.5,63.2c0,0-3.7,0.6-5.6,0.1"/>
<path class="st8" d="M87.9,90.2H52.2c1.4-4.7,2.3-9.5,2.8-12.9c0,0,3.3-2.9,10.6-4.4c7.3-1.6,11.8,0.1,11.8,0.1
	C80.3,77.5,87.8,89.6,87.9,90.2z"/>
<polyline class="st13" points="40.5,61.9 60.5,69 65.5,61.3 "/>
<path id="XMLID_24750_" class="st14" d="M73.3,52.1c0.2,0.8-4.3,9.4-5.8,12.5c-0.9,2-5.6,0.5-7.3-0.2c-0.3-0.1-0.5-0.5-0.3-0.8
	l7.2-12.2c1.3-2.3,3.6-1.5,3.6-1.5C72,50,73,50.9,73.3,52.1L73.3,52.1z"/>
</svg>
