<?xml version="1.0" encoding="utf-8"?>
<!-- Generator: Adobe Illustrator 21.0.0, SVG Export Plug-In . SVG Version: 6.00 Build 0)  -->
<svg version="1.1" id="Layer_1" xmlns="http://www.w3.org/2000/svg" xmlns:xlink="http://www.w3.org/1999/xlink" x="0px" y="0px"
	 viewBox="0 0 100 100" style="enable-background:new 0 0 100 100;" xml:space="preserve">
<style type="text/css">
	.st0{fill:none;}
	.st1{fill:#F08617;}
	.st2{fill:#F3981F;}
	.st3{fill:#EC9971;}
	.st4{fill:#E35B29;}
	.st5{fill:#EA9871;}
	.st6{fill:#5A2F49;}
	.st7{fill:#F2AB81;}
	.st8{fill:#6A78B9;}
	.st9{fill:none;stroke:#F2AC81;stroke-width:0.9304;stroke-linecap:round;stroke-linejoin:round;stroke-miterlimit:10;}
	.st10{fill:#423894;}
	.st11{fill:none;stroke:#5A2F49;stroke-width:0.2868;stroke-linecap:round;stroke-miterlimit:10;}
	.st12{fill:#F2AB81;stroke:#5A2F49;stroke-width:0.6194;stroke-linecap:round;stroke-linejoin:round;stroke-miterlimit:10;}
</style>
<rect x="10" y="10" class="st0" width="80" height="80"/>
<polygon class="st1" points="65.1,66.8 62,66.8 62,68.7 62,88.5 65.1,88.5 65.1,76.9 65.1,76.9 "/>
<polygon class="st1" points="42.6,66.8 42.6,77.3 42.6,88.5 45.8,88.5 45.8,82.9 45.8,66.8 "/>
<path class="st1" d="M66.7,63.2H39.2V65v1.9h27.6c1,0,1.9-0.8,1.9-1.9l0,0C68.6,64,67.8,63.2,66.7,63.2z"/>
<rect id="XMLID_33007_" x="62.5" y="33.1" class="st1" width="2.2" height="30.1"/>
<path class="st2" d="M65.4,31.8L65.4,31.8c1,0,1.8,0.8,1.8,1.8l0,0C67.2,32.6,66.4,31.8,65.4,31.8z"/>
<path class="st1" d="M65.4,31.8h-4.3c-1,0-1.8,0.8-1.8,1.8l0,0c0,1,0.8,1.8,1.8,1.8h4.4c1,0,1.8-0.8,1.8-1.8l0,0
	C67.2,32.6,66.4,31.8,65.4,31.8z"/>
<g>
	<polygon class="st3" points="48.6,35.8 46.1,48.7 44,48.9 45.7,35.3 	"/>
</g>
<path class="st1" d="M67.2,40.9c0-1-0.8-1.8-1.8-1.8h-4.3c-1,0-1.8,0.8-1.8,1.8l0,0l0,0l0,0c0,1,0.8,1.8,1.8,1.8h4.4
	C66.4,42.8,67.2,42,67.2,40.9L67.2,40.9C67.2,41,67.2,40.9,67.2,40.9L67.2,40.9z"/>
<path class="st1" d="M67.2,49.6c0-1-0.8-1.8-1.8-1.8h-4.3c-1,0-1.8,0.8-1.8,1.8l0,0l0,0l0,0c0,1,0.8,1.8,1.8,1.8h4.4
	C66.4,51.4,67.2,50.6,67.2,49.6L67.2,49.6L67.2,49.6L67.2,49.6z"/>
<path class="st4" d="M59.1,48.7l-13.2,0.4l-0.3-14c0-1.9,0.8-3.7,2.3-4.8c0.6-0.5,6.1-1.3,6.2-1.2c2.5,0.6,4.4,2.9,4.4,5.5
	C58.6,40.1,59.1,48.7,59.1,48.7z"/>
<path id="XMLID_15982_" class="st5" d="M31.4,86.6h-2l-0.8-25.7c0-0.7,0.5-1.4,1.2-1.5l21.3-6.2L33.9,63.4L31.4,86.6z"/>
<g id="XMLID_15384_">
	<polygon class="st4" points="31.8,84.6 31.6,88.4 29.3,88.4 29.3,84.6 	"/>
	<path class="st6" d="M36.1,88.4v1.5H25.2l0,0c0-0.9,0.7-1.5,1.6-1.5H36.1z"/>
</g>
<path id="XMLID_15989_" class="st7" d="M35.7,87.8l-1.9-1.2L33,61c0-0.8,0.5-1.5,1.3-1.7l17.1-5.2L51.2,63l-12.9,0.4L35.7,87.8z"/>
<g id="XMLID_15986_">
	<polygon class="st4" points="36.1,84.6 36.1,88.4 33.8,88.4 33.7,84.6 	"/>
	<path class="st6" d="M36.1,88.4L36.1,88.4"/>
</g>
<g id="XMLID_15995_">
	<g id="XMLID_32986_">
		<path id="XMLID_32987_" class="st6" d="M45.8,46l0.1-1c0.9-0.3,3.2-0.8,6.7-0.5c4,0.4,6.3,1.9,6.8,2.2l-0.1,0.9
			C58,47,47.2,45.7,45.8,46z"/>
	</g>
	<g id="XMLID_15991_">
		<path id="XMLID_32985_" class="st8" d="M38.2,55.3c3-2.9,6.1-6.6,7.4-9.4c0,0,2.4-1,6.8-0.6c1.7,0.2,5.3,0.6,6.5,2.1
			c0.5,0.6,1.3,11.5,0.8,12.9c-1.1,2.9-5.7,3.1-8.4,3.1c-3.5,0.1-5.4-0.3-9.3-2C39.9,60.4,36.4,57.1,38.2,55.3z"/>
	</g>
</g>
<g id="XMLID_15996_">
	<g id="XMLID_15205_">
		<path id="XMLID_33019_" class="st9" d="M51,48.2c0,0-3,1-4.5,1.2"/>
		<path id="XMLID_25341_" class="st9" d="M51,49c0,0-3.8,1.6-4.7,1.7"/>
		<path id="XMLID_25340_" class="st9" d="M49.2,47.1c0,0,1.4,0,1.7,1"/>
		<path id="XMLID_15340_" class="st9" d="M51.3,49.5c0,0-2.7,1.8-4,2.1"/>
		<path id="XMLID_15339_" class="st9" d="M51.4,50c0,0-1.6,1.8-2.8,2.2"/>
	</g>
</g>
<path id="XMLID_32979_" class="st6" d="M45,13.4L41,26c-0.7,2.2,1.3,4.4,3.6,3.9l13-2.8c2.3-0.5,3.2-3.3,1.6-5.1l-8.9-9.8
	C48.6,10.5,45.8,11.2,45,13.4z"/>
<g id="XMLID_32976_">
	<path id="XMLID_32978_" class="st6" d="M44.8,13.6c0,0-0.8-2.9,2.2-3.5c3.8-0.7,3.9,3.1,3.9,3.1L44.8,13.6z"/>
	<path id="XMLID_32977_" class="st8" d="M44.3,16.2c0,0-0.6-4.2,2.9-4.5c2.1-0.2,4.1,0.3,4.5,2.9C52,16.7,44.3,16.2,44.3,16.2z"/>
</g>
<path class="st7" d="M49.8,27.2L49.8,27.2c-2.8,0.6-5.6-1.2-6.2-4l-0.9-4.4c0.8-6.8,9.7-2.3,9.8-2.3l1.4,4.5
	C54.4,23.9,52.6,26.6,49.8,27.2z"/>
<g id="XMLID_32961_">
	<path id="XMLID_32967_" class="st4" d="M47.6,23.5c0.5-0.3-0.1-3.2-0.7-3.1C46.3,20.5,47,23.6,47.6,23.5z"/>
	<path id="XMLID_32966_" class="st10" d="M45.5,22.5c0.4-0.2,0.4-1.4-0.3-1.2C44.7,21.4,45,22.6,45.5,22.5z"/>
	<path id="XMLID_32965_" class="st10" d="M49.2,21.7c0.4-0.2,0.4-1.4-0.3-1.2C48.4,20.6,48.6,21.8,49.2,21.7z"/>
	<path id="XMLID_32964_" class="st6" d="M48.2,19.6c0.4-0.1,2.9-0.3,1.9-0.8c-0.2-0.1-1.5,0.1-1.7,0.2s-0.4,0-0.5,0.2
		C47.9,19.4,48,19.7,48.2,19.6z"/>
	<path id="XMLID_32963_" class="st6" d="M45.6,20.2c-0.4,0.1-2.8,0.9-2.1,0c0.2-0.2,1.4-0.5,1.6-0.6c0.2,0,0.4-0.2,0.5,0
		C45.8,19.9,45.9,20.1,45.6,20.2z"/>
	<path id="XMLID_15363_" class="st4" d="M50.1,23.4c0.4,0.5-1,1.5-1.3,1C48.3,23.9,49.7,22.9,50.1,23.4z"/>
	<path id="XMLID_15204_" class="st11" d="M47.8,24.6c0,0,2-0.1,2.7-2"/>
</g>
<g id="XMLID_15353_">
	<path class="st12" d="M54,29c-0.3,1.5-3.2,3.7-3.8,3.7c-0.4,0-1.6-1.2-2.3-2.4C48.5,29.8,53.9,29,54,29z"/>
</g>
<path id="XMLID_32970_" class="st7" d="M50.8,31.3H51c0.9-0.1,1.5-1,1.4-1.9l-0.6-3.5l-3.6,0.6l0.6,3.5C49,30.8,49.9,31.4,50.8,31.3
	z"/>
<g id="XMLID_32956_">
	<path class="st6" d="M52.7,16.4c-0.6,0.4-1.2,0.7-1.9,0.8c-1.9,0.4-3.8-0.2-5.1-1.6c-0.5,1.4-1.6,2.6-3.1,3.2v-0.1
		c-0.4-2,0.1-4.3,1.9-5.1C48.4,11.9,52.1,13.8,52.7,16.4z"/>
</g>
<g>
	<path class="st7" d="M58.6,35.1l2.5,8.2v0.1c0.2,0.5-0.1,1.1-0.5,1.4l-8.7,5.3L50.6,48l8.7-5.3l-0.5,1.5l-4-7.7L58.6,35.1z"/>
</g>
<polygon id="XMLID_32374_" class="st4" points="58.1,32.9 59.2,36.5 56.2,39.8 54.4,35.9 "/>
</svg>
