<?xml version="1.0" encoding="utf-8"?>
<!-- Generator: Adobe Illustrator 21.0.0, SVG Export Plug-In . SVG Version: 6.00 Build 0)  -->
<svg version="1.1" id="Layer_1" xmlns="http://www.w3.org/2000/svg" xmlns:xlink="http://www.w3.org/1999/xlink" x="0px" y="0px"
	 viewBox="0 0 100 100" style="enable-background:new 0 0 100 100;" xml:space="preserve">
<style type="text/css">
	.st0{fill:none;}
	.st1{fill:#471B39;}
	.st2{fill:#5A2F49;}
	.st3{fill:#FFE3C5;}
	.st4{fill:#F3981F;}
	.st5{fill:none;stroke:#5A2F49;stroke-width:7.1997;stroke-linecap:round;stroke-miterlimit:10;}
	.st6{fill:#E35B29;}
	.st7{fill:#423894;}
	.st8{fill:none;stroke:#5A2F49;stroke-width:0.7223;stroke-linecap:round;stroke-linejoin:round;stroke-miterlimit:10;}
	.st9{fill:none;stroke:#5A2F49;stroke-width:2.0291;stroke-miterlimit:10;}
	.st10{fill:#EB9871;}
</style>
<rect x="10" y="10" class="st0" width="80" height="80"/>
<g id="XMLID_1_">
	<g id="XMLID_15307_">
		<path id="XMLID_6139_" class="st1" d="M38.7,64.4L38.7,64.4l-2.8-3.6c-0.2-0.2-0.5-0.3-1-0.2L18.3,63c-0.3,0.1-0.4,0.2-0.4,0.3
			l0,0c0,0,0,1.1,0,1.2l2.8,3.5c0.2,0.2,0.5,0.3,1,0.2l16.5-2.5c0.3-0.1,0.4-0.2,0.4-0.3C38.7,65.5,38.7,64.5,38.7,64.4L38.7,64.4z"
			/>
		<path id="XMLID_15167_" class="st2" d="M35.8,60.7l2.8,3.5c0.2,0.2-0.1,0.4-0.4,0.4l-16.5,2.5c-0.4,0.1-0.8,0-1-0.2l-2.8-3.5
			c-0.2-0.2,0.1-0.4,0.4-0.4l16.5-2.5C35.3,60.4,35.6,60.5,35.8,60.7z"/>
		<polygon id="XMLID_15169_" class="st3" points="34.9,64.6 21.8,66.5 19.5,63.5 32.6,61.6 		"/>
	</g>
</g>
<circle class="st4" cx="21.8" cy="53.1" r="7.2"/>
<g id="XMLID_9025_">
	<path id="XMLID_9298_" class="st2" d="M17.8,50.9c2-0.4,3.8,2.3,2.1,3.8c-1.1,1-1.9,0.6-2.1-0.7C17.7,53.6,17.5,51.1,17.8,50.9z
		 M19,51.7c-0.8-0.4-0.5,2.1-0.6,2.8C20,54.7,20.5,52.4,19,51.7z"/>
</g>
<path id="XMLID_9304_" class="st2" d="M25.4,50.8c0.4-0.1,0.9,3.2,0.4,3.5c-0.4,0.3-0.4-0.9-0.5-0.9c-0.4,0.3-1.7,2.5-1.8,0.1
	c0-0.5,0.4-1,0.7-1.3c0.2-0.3,0.7-0.3,0.8-0.4C25.2,51.6,25.4,51,25.4,50.8z M25.1,52.4c-0.3,0-1.3,1-1,1.4
	C24.3,54.1,25.3,52.7,25.1,52.4z"/>
<path id="XMLID_9301_" class="st2" d="M21.9,51.6c1.1-0.4,1.8,2.4,1.4,3.2c-0.3,0.5-0.9-0.9-0.9-0.9c-0.5,0-0.7,1.3-1.5,0.4
	C20.4,53.6,21.2,51.8,21.9,51.6z M22.4,52.1c-0.3,0.1-1.4,1.5-1,1.8C21.7,54,22.6,52.3,22.4,52.1z"/>
<path id="XMLID_6138_" class="st5" d="M50.2,59.9c0,0-9.4-6.9-12.7-1.7"/>
<path class="st6" d="M54,67.3L46.6,61c-3.2-1.7-4.8-8.8-4-10.8c0-0.1,0.1-0.2,0.1-0.3c0.8-1.1,7.7-2.9,9.4-3.6
	c0.1,0,0.2-0.1,0.3-0.1c1.9-0.8,3.8-1.7,5.7-2.3c0.1,0,0.1,0,0.2-0.1c4.3-1.4,9.1-1.6,13.3,0.1c2,0.8,8.6,4.7,8.8,12.2
	C80.5,69.4,54,67.3,54,67.3z"/>
<path class="st7" d="M76.1,47.1c-1.9,1.3-4.1,1.8-6.5,1.3c-2.8-0.5-10.8-1.3-11.5-4.6c0.1,0,0.1,0,0.2-0.1c4.3-1.4,9.1-1.6,13.3,0.1
	C73.4,44.7,74.9,45.8,76.1,47.1z"/>
<ellipse id="XMLID_24910_" transform="matrix(0.1583 -0.9874 0.9874 0.1583 3.4938 119.2323)" class="st6" cx="71.7" cy="57.6" rx="9.6" ry="9.6"/>
<g id="XMLID_5766_">
	<g>
		<path class="st2" d="M66.5,59.6c0.8-3.1,3.8-4.4,6.7-4.5c0.4,0,0.4-0.7,0-0.6c-3.3,0.1-6.4,1.6-7.3,4.9
			C65.8,59.8,66.4,60,66.5,59.6L66.5,59.6z"/>
	</g>
</g>
<g id="XMLID_24913_">
	<path id="XMLID_24921_" class="st2" d="M43.4,33.5c-2-3.1-1.4-7-1.4-7s3.9,1.1,5.8,4.2s1.4,7,1.4,7S45.4,36.6,43.4,33.5z"/>
	<path id="XMLID_24919_" class="st6" d="M46.6,32.1c-2-3.1-1.4-7-1.4-7s3.9,1.1,5.8,4.2s1.4,7,1.4,7S48.6,35.2,46.6,32.1z"/>
	<path class="st6" d="M60.4,48.1l-17.9,2.6l-0.1-2.4l0,0c-4.7,0.4-9.1-2.5-10.3-7.3l-0.4-2l5.7-1.4c0-1.8,1.4-4.2,3.5-4.7l5.6-1.3
		C51.2,30.2,60.4,48.1,60.4,48.1z"/>
	<path id="XMLID_24917_" class="st7" d="M32.9,41.4l-0.6,0.2l-0.6-2.5l3.2-0.8l0,0C35.1,39.7,34.2,41.1,32.9,41.4z"/>
	
		<ellipse id="XMLID_24915_" transform="matrix(0.9722 -0.2341 0.2341 0.9722 -7.7865 10.6152)" class="st2" cx="40.8" cy="38.1" rx="1" ry="1.4"/>
	<path id="XMLID_24914_" class="st8" d="M38.1,44.1c2.1,0.7,3.1-1.4,3.1-1.4s1.2,1.7-0.9,2.6"/>
</g>
<path id="XMLID_24900_" class="st9" d="M59.1,36.6c0,0,0.8,12.1-18.3,12.7"/>
<path class="st6" d="M84.7,44.5c-0.1,1.9-1.8,6-5.7,9.8c-1.2-1.6-2.5-3.2-3.8-4.7c0.9-1.1,1.8-2.5,2.5-4.4c0.5-1.3,0.9-2.5,1.1-3.7
	c0.5-3.1,0.1-5.7-0.3-7.1c0.6,0.6,1.3,1.4,2,2.4c1.5,2.1,2.1,4.2,2.5,5.6c0.3-0.9,0.4-1.8,0.7-2.7c0.2,0.4,0.4,1,0.5,1.6
	c0,0,0.2,0.5,0.3,1.4C84.7,43.2,84.8,43.9,84.7,44.5z"/>
<path class="st7" d="M84.6,42.7c-2.1,0.5-4.3-0.4-5.8-1.1c0.5-3.1,0.1-5.7-0.3-7.1c0.6,0.6,1.3,1.4,2,2.4c1.5,2.1,2.1,4.2,2.5,5.6
	c0.3-0.9,0.4-1.8,0.7-2.7c0.2,0.4,0.4,1,0.5,1.6C84.3,41.3,84.5,41.9,84.6,42.7z"/>
<polygon class="st4" points="23.2,57.8 29.5,62.3 28.2,55.3 "/>
<path class="st10" d="M50.6,64.3l-4-3.4c-3.2-1.7-4.8-8.8-4-10.8c3,0,5.6,2.1,6.3,5.1C48.8,55.2,50.6,63.6,50.6,64.3z"/>
<path id="XMLID_24908_" class="st6" d="M37.3,67.1L37.3,67.1c0.4,2,2.4,3.3,4.4,2.9l19.5-2.7l-2.9-8.4l-18.5,4
	C38,63.3,36.9,65.2,37.3,67.1z"/>
</svg>
