<?xml version="1.0" encoding="utf-8"?>
<!-- Generator: Adobe Illustrator 21.0.0, SVG Export Plug-In . SVG Version: 6.00 Build 0)  -->
<svg version="1.1" id="Layer_1" xmlns="http://www.w3.org/2000/svg" xmlns:xlink="http://www.w3.org/1999/xlink" x="0px" y="0px"
	 viewBox="0 0 100 100" style="enable-background:new 0 0 100 100;" xml:space="preserve">
<style type="text/css">
	.st0{fill:none;}
	.st1{fill:#F3981F;}
	.st2{fill:#F08617;}
	.st3{fill:#5A2F49;}
	.st4{fill:#E35B29;}
	.st5{fill:#423894;}
	.st6{fill:#635EA9;}
	.st7{fill:#F2AB81;}
	.st8{fill:none;stroke:#5A2F49;stroke-width:1.7898;stroke-miterlimit:10;}
	.st9{fill:none;stroke:#5A2F49;stroke-width:0.6435;stroke-linecap:round;stroke-miterlimit:10;}
	.st10{fill:#CE4C28;}
	.st11{fill:#E9C89C;}
</style>
<rect x="10" y="10" class="st0" width="80" height="80"/>
<g>
	<path id="XMLID_9326_" class="st1" d="M80.4,70.7H15.5c-1.7,0-3-1.4-3-3V66c0-1.7,1.4-3,3-3h64.9c1.7,0,3,1.4,3,3v1.7
		C83.4,69.3,82,70.7,80.4,70.7z"/>
	<rect id="XMLID_9325_" x="22.4" y="64.4" class="st1" width="4.8" height="16.2"/>
	<rect id="XMLID_9324_" x="72.7" y="64.4" class="st1" width="4.8" height="16.2"/>
	<path id="XMLID_9316_" class="st2" d="M82.6,64.4c-0.7-0.9-1.8-1.5-3-1.5H16.3c-1.2,0-2.3,0.6-3,1.5H82.6z"/>
	<path id="XMLID_6132_" class="st3" d="M29,62.5L29,62.5c-1.6,0-2.8-1.3-2.8-2.8l-0.5-9.4h6.6l-0.4,9.6C31.7,61.4,30.5,62.5,29,62.5
		z"/>
	<path id="XMLID_6131_" class="st3" d="M51.7,62L51.7,62c-1.4,0.6-3.1-0.1-3.7-1.5l-5.5-13l6.1-2.6l4.7,13.6
		C53.7,59.9,53.1,61.4,51.7,62z"/>
	<path class="st4" d="M24.7,37.8c-0.5,0.9-2.8,3.2-3.2,3.5c-0.4,0.2-5.3-1.5-6.4-4.9c-0.1-0.4-0.2-0.7-0.3-1.1
		c-0.6-2.8,0.6-0.2,1.2,0.2c-0.3-2.4-0.7-5,0.3-7.2c0.4,1.9,1.1,3.8,2.3,5.4C18.7,33.8,22.5,37.4,24.7,37.8z"/>
	<path class="st5" d="M18.5,33.6c-0.5,0.8-1.2,1.5-2,2c-0.3,0.2-0.9,0.6-1.5,0.8c-0.1-0.4-0.2-0.7-0.3-1.1c-0.6-2.8,0.6-0.2,1.2,0.2
		c-0.3-2.4-0.7-5,0.3-7.2C16.7,30.1,17.4,32,18.5,33.6z"/>
	<rect id="XMLID_6130_" x="42.9" y="34.9" class="st6" width="9.6" height="5"/>
	<path id="XMLID_5776_" class="st4" d="M42.8,63L42.8,63c-1.6,0-2.8-1.3-2.8-2.8V46.1h6.6l-1,14.3C45.4,61.9,44.2,63,42.8,63z"/>
	<path id="XMLID_5774_" class="st3" d="M49.1,27.6c0.9-2.7-0.2-5.5-0.2-5.5s-2.6,1.5-3.6,4.1S48.2,30.3,49.1,27.6z"/>
	<path class="st4" d="M58.8,29.6v1.6c0,3.7-2.8,6.8-6.3,7.3v6.4c0,3.1-1.5,5.8-3.8,7.6c-1.6,1.2-3.6,1.9-5.7,1.9H30.3
		c-5.3,0-9.5-4.3-9.5-9.5v-7.5c0,0,18.4-0.2,19-0.5c0.6-0.3,1-0.8,1.4-1.3c0.2-0.3,2-5.9,2-5.9c0.3-1.6,1.7-2.9,3.4-2.9h4.4
		c1,0,1.8,0.4,2.5,1c0.5,0.5,0.8,1.1,1,1.9H58.8z"/>
	<g id="XMLID_3068_">
		<path class="st7" d="M52.5,40.4v4.5c0,3.1-1.5,5.8-3.8,7.6c0,0,0-7.7,0.1-7.9c0.1-1.1,1.6-3.1,1.8-3.2
			C51.1,40.9,51.8,40.6,52.5,40.4z"/>
		<path class="st5" d="M39.9,39c-0.3,2-2,3.4-4,3.2c-1.3-0.1-5.9-0.6-6.6-0.8C27.1,41,24.5,38,24.5,38c0,0-0.2-0.4-0.3-0.6
			c0,0,15-0.2,15.5-0.5C39.9,37.5,39.9,38.3,39.9,39z"/>
		<path id="XMLID_3070_" class="st8" d="M39.9,33c0,0,1.9,9.3,16,6.1"/>
	</g>
	<path id="XMLID_3067_" class="st4" d="M46.5,27.2c0.9-2.7-0.2-5.5-0.2-5.5s-2.6,1.5-3.6,4.1C41.8,28.5,45.5,29.8,46.5,27.2z"/>
	<path id="XMLID_3065_" class="st5" d="M57.9,31.6h0.9v-2h-2.5v0.4C56.4,30.9,57.1,31.6,57.9,31.6z"/>
	<g id="XMLID_24_">
		<path id="XMLID_5775_" class="st4" d="M20.4,61.6L20.4,61.6c-1.4-0.6-2.1-2.3-1.5-3.7l5.7-12.9l6.1,2.7L24,60.3
			C23.3,61.6,21.7,62.2,20.4,61.6z"/>
		<g id="XMLID_11_">
			<defs>
				<path id="XMLID_203_" d="M20.4,61.6L20.4,61.6c-1.4-0.6-2.1-2.3-1.5-3.7l5.7-12.9l6.1,2.7L24,60.3
					C23.3,61.6,21.7,62.2,20.4,61.6z"/>
			</defs>
			<clipPath id="XMLID_3_">
				<use xlink:href="#XMLID_203_"  style="overflow:visible;"/>
			</clipPath>
		</g>
	</g>
	<path id="XMLID_3058_" class="st7" d="M53.7,36.9l-0.4,0c-0.4,0-0.7-0.3-0.7-0.7l0-1.5l1.8,0.1l0,1.5
		C54.4,36.6,54.1,36.9,53.7,36.9z"/>
	<path id="XMLID_3056_" class="st0" d="M42.9,29.6L42.9,29.6c0,0.2-0.6,2.6-1.3,4.9c-0.1,0.3-0.2,0.6-0.3,0.8
		c-0.1,0.3-0.3,0.5-0.5,0.7c-0.4,0.2-0.1,0.4-0.6,0.6c-0.1,0.1-0.2,0.2-0.4,0.2c-0.1,0.1-0.3,0.1-0.3,0.2c-0.1,0.1-0.2,0.1-0.4,0.2
		c-0.1,0-0.3,0-0.4,0.1c-0.2,0-0.3,0.2-0.5,0.1c-0.1-0.1-0.3,0-0.4,0c-0.2-0.1-0.1,0.2-0.2,0c0.1,0.2,0-0.2-0.1,0
		c-0.2,0.2-0.3-0.2-0.3,0c-0.1-0.1-0.2,0.1-0.3,0c-0.1-0.2-0.2,0.1-0.4,0c-0.1,0-0.3,0-0.4,0s-0.3,0-0.5,0c-0.3,0-0.7,0-1.1,0
		c-1.6,0-3.7,0-5.8,0c-0.4,0-0.8,0-1.2,0c-0.3,0-0.7,0-1.2,0c0,0-0.5,0-1.1,0c-0.6,0-0.9,0-1.1,0c-0.4,0-0.7,0-1,0
		c-0.3,0-0.6,0-0.8,0c0,0-0.7,0-0.7,0c-0.3,0-0.2,0-0.5,0c-0.2,0-0.3,0-0.3,0c-0.1,0-0.1,0-0.1,0v7.5c0,5.3,4.3,9.5,9.5,9.5H43
		c5.3,0,9.5-4.3,9.5-9.5v-6.4c3.6-0.5,6.3-3.5,6.3-7.3v-1.6H42.9z"/>
	<path id="XMLID_3053_" class="st9" d="M52.5,33.9c0,0,1,1.4,2.5,0.7"/>
	<g id="XMLID_38_">
		<g>
			<path class="st3" d="M51.5,31.4c-0.1-0.2-0.3-0.6-0.2-0.9c0.2-0.4,0.6-0.3,0.8,0c0.3,0.3,0.8,0,0.6-0.3c-0.4-0.5-1-0.9-1.6-0.5
				c-0.7,0.4-0.5,1.3-0.3,1.9C51,32,51.6,31.8,51.5,31.4L51.5,31.4z"/>
		</g>
	</g>
	<g id="XMLID_15_">
		<path id="XMLID_60_" class="st10" d="M55.1,27.6l0.2-0.3c0.2-0.3,0.5-0.4,0.8-0.3l6,2.9c0.3,0.2,0.4,0.5,0.3,0.8l-0.2,0.3
			c-0.2,0.3-0.5,0.4-0.8,0.3l-6-2.9C55.1,28.3,55,27.9,55.1,27.6z"/>
	</g>
	<path id="XMLID_3051_" class="st5" d="M65,29.7c-2.6,1.2-6.2-0.6-6.2-0.6s0.7-3.6,3.4-4.8s6.2,0.6,6.2,0.6S67.6,28.6,65,29.7z"/>
	<path id="XMLID_3049_" class="st5" d="M55,24.9c0.7,2.8,4.3,4.5,4.3,4.5s2.4-2.8,1.7-5.6c-0.7-2.8-4.3-4.5-4.3-4.5
		S54.3,22.1,55,24.9z"/>
	<path id="XMLID_3050_" class="st11" d="M61.9,28.1c0.3-0.6,0.8-1.5,1.6-1.8c0.9-0.4,2.1-0.2,3,0c0,0,0,0.1-0.1,0.1
		c-0.3,0.6-0.8,1.5-1.6,1.8c-0.9,0.4-2.1,0.2-3,0C61.8,28.2,61.9,28.1,61.9,28.1z"/>
	<path id="XMLID_3048_" class="st11" d="M57.1,21.7c0.8,0.6,1.6,1.4,1.9,2.3c0.2,0.8-0.1,1.8-0.4,2.4c0,0,0,0.1-0.1,0.1
		c-0.8-0.6-1.6-1.4-1.9-2.3c-0.2-0.8,0.1-1.8,0.4-2.4C57.1,21.9,57.1,21.8,57.1,21.7z"/>
</g>
<rect x="10" y="10" class="st0" width="80" height="80"/>
</svg>
