<?xml version="1.0" encoding="utf-8"?>
<!-- Generator: Adobe Illustrator 21.0.0, SVG Export Plug-In . SVG Version: 6.00 Build 0)  -->
<svg version="1.1" id="Layer_1" xmlns="http://www.w3.org/2000/svg" xmlns:xlink="http://www.w3.org/1999/xlink" x="0px" y="0px"
	 viewBox="0 0 100 100" style="enable-background:new 0 0 100 100;" xml:space="preserve">
<style type="text/css">
	.st0{fill:#C7C6E3;}
	.st1{fill:none;}
	.st2{fill:#F3981F;}
	.st3{fill:#5152A2;}
	.st4{fill:#5267AF;}
	.st5{fill:url(#XMLID_2_);}
</style>
<g>
	<path class="st0" d="M49.7,30.4c1.1,0.1,2.3-0.5,2.5-1.5s-0.9-1.6-1.9-1.7s-2.1,0.1-3.1,0.5s-1.9,0.9-2.5,1.7
		c-0.3,0.4-0.3,0.7-0.2,0.9c0,0.1,0.1,0.2,0.3,0.4l0.1,0.1l0,0c0.1,0,0.1,0.1,0.2,0.1c0.9,0.2,2.1,0.3,3.2,0.4
		c2.2,0.1,4.5,0.1,6.8,0.1s4.6,0,6.8,0l6.9-0.1c4.6,0,9.1,0,13.7,0.1c-4.5,0.7-9.1,1.2-13.7,1.5c-4.6,0.3-9.2,0.5-13.8,0.5
		c-2.3,0-4.6-0.1-6.9-0.3c-1.2-0.1-2.3-0.2-3.6-0.6c-0.2-0.1-0.3-0.1-0.5-0.2c-0.1-0.1-0.2-0.2-0.3-0.2c-0.1-0.1-0.1-0.1-0.2-0.2
		c-0.3-0.3-0.5-0.6-0.6-1.1c-0.1-0.4-0.1-0.9,0-1.3s0.3-0.7,0.6-1c0.9-1,2.1-1.6,3.3-2c1.2-0.3,2.4-0.4,3.7-0.2
		c0.6,0.1,1.2,0.4,1.7,0.9s0.7,1.3,0.5,1.9s-0.7,1.1-1.3,1.3C50.8,30.5,50.2,30.5,49.7,30.4z"/>
</g>
<g>
	<path class="st0" d="M31.9,36.6c0.4-0.5,0.6-1,0.5-1.6c-0.1-0.5-0.5-1-0.9-1.3s-1-0.5-1.5-0.5c-0.6,0-1.1,0-1.7,0.1
		c-1.1,0.2-2.2,0.6-2.9,1.2c-0.4,0.3-0.6,0.7-0.7,1.1c-0.1,0.3,0.1,0.6,0.3,0.9c0.6,0.6,1.7,1,2.7,1.2c1.1,0.2,2.2,0.3,3.3,0.4
		c2.3,0,4.7,0,7,0c4.7-0.1,9.4-0.2,14.1-0.2c4.7-0.1,9.5,0,14.2,0.1c-4.7,0.8-9.4,1.3-14.1,1.7s-9.4,0.6-14.2,0.7
		c-2.4,0-4.7,0-7.2-0.2c-1.2-0.1-2.4-0.2-3.7-0.6c-1.2-0.4-2.5-0.8-3.5-2c-0.5-0.6-0.8-1.5-0.6-2.4c0.2-0.8,0.8-1.4,1.3-1.8
		c1.1-0.8,2.4-1.1,3.7-1.2c0.6,0,1.2,0,1.9,0.1c0.7,0.1,1.2,0.5,1.7,0.9s0.9,1,0.9,1.7C32.7,35.6,32.4,36.2,31.9,36.6z"/>
</g>
<rect x="10" y="10" class="st1" width="80" height="80"/>
<g id="XMLID_22140_">
	<polygon class="st2" points="59.6,56.6 55.8,63.9 55.1,62.7 61.6,62.6 63,62.6 62.4,63.8 60.2,68 59.9,67 62.1,68.7 63.1,69.4 
		62.1,70 55.6,73.9 55.9,73.1 56.6,76.5 56.6,76.9 56.5,77 53.9,80.4 53.7,80.3 55.1,76.3 55,76.8 54.4,73.4 54.3,72.9 54.7,72.6 
		61.2,68.6 61.2,70 59,68.3 58.4,67.9 58.7,67.3 61,63.1 61.7,64.2 55.2,64.3 53.8,64.4 54.4,63.2 58.2,55.9 	"/>
</g>
<path id="XMLID_22195_" class="st3" d="M86.9,57.5c0.6-0.4,0.9-0.9,0.8-1.3c-0.1-0.3-0.7-0.4-1.4-0.3c1.9-2.3,2.4-5,1.1-6.3
	c-0.6-0.6-1.6-0.8-2.7-0.5c0.8-3.7,0.2-7-1.4-8c0.6-6.2-0.9-11.1-3.7-11.7c-1.8-0.4-3.9,1.2-5.6,4c-1-0.8-2.1-1.3-3.3-1.4
	c-3.5-0.2-6.8,3.5-8.2,8.7c-1.3,0-2.6,1.4-3.5,3.5c-0.2-0.2-0.3-0.3-0.5-0.4c-0.1,0-0.3,0-0.4,0.1c-0.8-5.3-3.3-9.1-6.2-9.1
	c-3.6,0-6.5,5.8-6.5,12.9c0,0.4,0,0.8,0,1.1c-0.9-0.9-1.7-1.3-2.3-1.1c-1.2,0.5-1,3.7,0.5,7.1c0,0,0,0,0,0.1c-0.9,0-1.6,0.3-1.7,0.8
	c-0.2,0.6,0.4,1.2,1.3,1.7L86.9,57.5z"/>
<path id="XMLID_22194_" class="st4" d="M74.9,57.5H74C74.3,57.5,74.6,57.5,74.9,57.5z"/>
<path id="XMLID_22193_" class="st3" d="M87.4,59.3h-50c-0.4,0-0.7-0.3-0.7-0.7v-0.7c0-0.4,0.3-0.7,0.7-0.7h50c0.4,0,0.7,0.3,0.7,0.7
	v0.7C88.1,59,87.8,59.3,87.4,59.3z"/>
<linearGradient id="XMLID_2_" gradientUnits="userSpaceOnUse" x1="11.8848" y1="51.7419" x2="51.6485" y2="51.7419">
	<stop  offset="0" style="stop-color:#6B62AB"/>
	<stop  offset="0.5113" style="stop-color:#7D7FBC"/>
	<stop  offset="1" style="stop-color:#8C97CA"/>
</linearGradient>
<path id="XMLID_5_" class="st5" d="M12.6,59.2h2.8c-0.6-0.4-0.9-0.9-0.7-1.1c0.1-0.2,0.6-0.1,1.2,0.1c0-0.1-0.1-0.1-0.1-0.2
	c-1.2-2.1-0.7-4.5,1-5.5c0.5-0.3,1-0.4,1.6-0.4c-0.3-1.9,0-3.4,0.8-3.8c0.6-0.3,1.5,0.2,2.3,1.1c0.3-4.1,2.4-7.2,5.3-7.5
	c3.4-0.3,6.6,3.6,7.1,8.7c0,0.5,0.1,0.9,0.1,1.3c0.2,0,0.3,0,0.5,0c0.2,0.1,0.5,0.1,0.7,0.3c0.9-2.3,2.6-3.9,4.2-3.6
	c2.1,0.3,3.4,3.5,2.9,7.1c0,0.3-0.1,0.6-0.2,0.9c0.4-0.3,0.8-0.3,1.1-0.2c0.6,0.3,0.8,1.4,0.3,2.7h7.6c0.4,0,0.7,1.4,0.7,1.8
	c0,0.4-0.3,0.7-0.7,0.7H12.8c-0.4,0-0.7-0.3-0.7-0.7C11.9,60.7,12.2,59.2,12.6,59.2z"/>
</svg>
