<?xml version="1.0" encoding="UTF-8"?>
<svg enable-background="new 0 0 100 100" version="1.1" viewBox="0 0 100 100" xml:space="preserve" xmlns="http://www.w3.org/2000/svg" xmlns:xlink="http://www.w3.org/1999/xlink">
<style type="text/css">
	.st0{fill:none;stroke:#CCCCCC;stroke-miterlimit:10;}
	.st1{fill:#353535;}
	.st2{fill:#CEC9C9;}
	.st3{fill:#B5E3ED;}
	.st4{opacity:0.5;clip-path:url(#c);}
	.st5{fill:#FFFFFF;}
	.st6{opacity:0.5;clip-path:url(#a);}
	.st7{fill:none;stroke:#CC6666;stroke-miterlimit:10;}
	.st8{fill:#DF5167;}
	.st9{fill:#7C7C7C;}
	.st10{fill:#E4F4F2;}
	.st11{fill:none;stroke:#DF5167;stroke-width:2;stroke-linecap:round;stroke-linejoin:round;stroke-miterlimit:10;}
	.st12{fill:#D6EAE8;}
	.st13{fill:none;stroke:#DF5167;stroke-width:3;stroke-linecap:round;stroke-linejoin:round;stroke-miterlimit:10;}
	.st14{fill:#CFE5E5;}
	.st15{fill:#CC6666;stroke:#DF5167;stroke-width:0.4143;stroke-miterlimit:10;}
</style>

	<line class="st0" x1="21.8" x2="86.4" y1="67.9" y2="67.9"/>
	
		<circle class="st1" cx="24.9" cy="65.1" r="2.3"/>
		<circle class="st2" cx="24.9" cy="65.1" r="1.2"/>
		
			
				<path class="st3" d="m71.5 41.7-9.8 3.5-0.1 0.1-0.4 0.1-9 3.3-0.4 0.2-0.1 0.1-9.9 3.6 14.1-13.5 0.3-0.1 0.1-0.1 8.1-2.9c1.1-0.3 1.8 0.1 2.6 0.8 0.6 0.6 4.5 4.9 4.5 4.9z"/>
			
			
				<defs>
					<path id="d" d="m71.5 41.7-9.8 3.5-0.1 0.1-0.4 0.1-9 3.3-0.4 0.2-0.1 0.1-9.9 3.6 14.1-13.5 0.3-0.1 0.1-0.1 8.1-2.9c1.1-0.3 1.8 0.1 2.6 0.8 0.6 0.6 4.5 4.9 4.5 4.9z"/>
				</defs>
				<clipPath id="c">
					<use xlink:href="#d"/>
				</clipPath>
				<g class="st4">
					<polygon class="st5" points="65.1 44 65.1 44 59.7 37.5 59.8 37.5 62 36.8 67.8 42.9"/>
				</g>
			
			
				<defs>
					<path id="b" d="m71.5 41.7-9.8 3.5-0.1 0.1-0.4 0.1-9 3.3-0.4 0.2-0.1 0.1-9.9 3.6 14.1-13.5 0.3-0.1 0.1-0.1 8.1-2.9c1.1-0.3 1.8 0.1 2.6 0.8 0.6 0.6 4.5 4.9 4.5 4.9z"/>
				</defs>
				<clipPath id="a">
					<use xlink:href="#b"/>
				</clipPath>
				<g class="st6">
					<polygon class="st5" points="68.6 42.8 68.6 42.8 63 36.3 63.8 36.1 69.4 42.3"/>
				</g>
			
			
				<path class="st7" d="m71.5 41.7-9.8 3.5-0.1 0.1-0.4 0.1-9 3.3-0.4 0.2-0.1 0.1-9.9 3.6 14.1-13.5 0.3-0.1 0.1-0.1 8.1-2.9c1.1-0.3 1.8 0.1 2.6 0.8 0.6 0.6 4.5 4.9 4.5 4.9z"/>
			
		
		
			
				<polygon class="st8" points="62.1 46 61.5 45.9 61.1 45.4 61.1 45.4 55.6 38.9 55.6 38.9 56 38.8 61.3 45.3 61.3 45.3 61.4 45.4"/>
			
		
		
			
				<path class="st9" d="m78.6 36.7c0.4 1.4 1.8 6.9 1.5 7s-2-5.2-2.5-6.7c-0.4-1.4-0.4-2.6-0.2-2.7s0.7 1 1.2 2.4z"/>
				
					<path class="st9" d="m82.4 50c-0.4-1.4-2.2-6.7-2.5-6.7-0.3 0.1 1.1 5.6 1.5 7s1 2.5 1.2 2.4c0.3-0.1 0.2-1.4-0.2-2.7z"/>
				
				
					<path class="st9" d="m82.4 50c-0.4-1.4-2.2-6.7-2.5-6.7-0.3 0.1 1.1 5.6 1.5 7s1 2.5 1.2 2.4c0.3-0.1 0.2-1.4-0.2-2.7z"/>
				
			
			<path class="st8" d="m80.5 42.9-1.1-0.2c-0.3 0-0.5 0.3-0.4 0.4l0.4 1.2c0.1 0.3 0.5 0.4 0.7 0.1l0.8-1.1s-0.1-0.3-0.4-0.4z"/>
		
		<polygon class="st2" points="61.8 63.7 62.2 64.1 69 52.8 68.6 52.5"/>
		<path class="st10" d="m75.1 53.8c-0.4 0.3-0.9 0.4-1.3 0.6l-9.8 3.5-11.7 4.1c-1.1 0.4-2.2 0.7-3.4 0.8l-27.7 3.1-0.8-2.5-0.8-3.3 50.3-18.1c4.2-1.6 6.7-1.1 8 0 0.9 0.5 1.3 1.5 1.4 2.7v0.1c0.5 2.9-1.3 7.2-4.2 9z"/>
		
			<line class="st11" x1="70.9" x2="35.7" y1="46.2" y2="59.1"/>
		
		<path class="st12" d="m76.4 53.7c-0.4 0.3-1.8 0.5-2.3 0.5l-9.8 3.5-11.3 4c-1.3 0.4-2.8 0.8-4.2 1.1l-10.1 1.1-20.6 2.1 58.2-20 3.2-1.2c1.2 3 0.6 7.2-3.1 8.9z"/>
		<polygon class="st8" points="57 58.3 56.2 58.6 49.3 37.2 49.9 36.8"/>
		<polygon class="st8" points="58.9 57 58.1 56.7 63.4 32.2 64.1 32.4"/>
		<polygon class="st2" points="62 63.9 61.5 64.2 57.6 55.9 58.1 55.6"/>
		<path class="st8" d="m65.2 57.5-13.4 4.7c0.5-4.4 4-7.6 8.1-7.4 2.1 0.2 4 1.1 5.3 2.7z"/>
		<path class="st13" d="m71.5 41.7c-2.5 4.6 0.4 11.2 4.7 11.4"/>
		<circle class="st1" cx="61.8" cy="63.9" r="3.6"/>
		<circle class="st2" cx="61.8" cy="63.9" r="1.8"/>
		<polygon class="st14" points="26.7 61.6 19.6 69.8 14.7 71.4 16.1 66 10.4 56.2 15.5 53.5 23.9 59.4"/>
		<polygon class="st8" points="26.7 61.6 19.6 69.8 14.7 71.4 16.1 66"/>
		<path class="st15" d="m72.4 29.5c0.2 0.6-4.1 2.6-9.8 4.4-5.6 1.8-22.9 6-22.9 6s16.6-6.6 22.2-8.4c5.5-1.7 10.3-2.7 10.5-2z"/>
	

</svg>
