<?xml version="1.0" encoding="UTF-8"?>
<svg enable-background="new 0 0 100 100" version="1.1" viewBox="0 0 100 100" xml:space="preserve" xmlns="http://www.w3.org/2000/svg">
<style type="text/css">
	.st0{fill:#202021;}
	.st1{opacity:0.5;}
	.st2{fill:#9FFFF6;}
	.st3{fill:#66C941;}
	.st4{fill:#A2FF5F;}
	.st5{fill:#CEFF6A;}
	.st6{fill:#FFEDF1;}
	.st7{fill:#FFFFFF;}
	.st8{fill:#FFDCE3;}
</style>
<polygon class="st0" points="51.2 89.8 51.1 88.4 51.1 88.4"/>
<g class="st1">
	<path class="st2" d="m26.9 62h-1.5l-2.2-0.1s-2.9-1.2-4.7-2.1-6.3-4.3-6.3-4.3l-0.4-1.7s3.8-5.1 6.1-6.3c1.1-0.5 2.3-0.9 3.6-1.2 1.3-0.1 2.6-0.1 4 0.4s2.7 1.4 3.7 2.8c0.6 0.7 0.9 1.3 1.3 2.1s0.6 1.3 0.9 2c0.6 1.2 1.1 2.1 1.9 2.6s1.8 0.5 2.7 0.3c0.9-0.3 1.8-0.9 2.7-1.7 0.5-0.4 0.7-0.8 1.4-1.6 0.6-0.7 1.3-1.2 1.9-1.8 1.5-1.1 3.1-1.3 4.2-1.4s1.8-0.5 2.2-0.8c0.6-0.3 1.1-0.3 1.8-0.3 0.2 0.1 0.6 0.1 0.6 0.1s0.4 0 0.6 0.1c0.4 0 0.8 0.1 1.3 0.3 1.9 0.5 4.2 0.9 7.2 2.9l0.5 1.3c-0.7 4.5-2.3 7.5-4.2 9.9-0.5 0.7-1 1.2-1.6 1.6-0.3 0.1-0.8 0.8-0.8 0.8l-0.9 0.7c-1.2 0.7-4.3 0.8-4.3 0.8s-3-1.1-4-1.6-1.4-1.2-2-2-1.5-1.8-2.8-1.7"/>
</g>
<g class="st1">
	<path class="st2" d="m27.6 49.7c1.4-1.4 2.8-2.2 4.2-2.8 1.5-0.7 3-1 4.4-1.3 1.5-0.2 3-0.2 4.5 0s3 0.6 4.4 1.5c2.9 1.6 4.9 5.1 7 7.5 1 1.3 2.2 2.2 3.4 2.8 1.2 0.7 2.4 0.9 3.4 0.6 0.3-0.1 0.5-0.2 0.6-0.3l0.7-0.6 1.7-1.4c0.6-0.5 1.1-0.9 1.8-1.4 0.6-0.5 1.2-0.8 1.8-1.1 2.5-1.3 5-2.7 7.7-3.5 2.7-0.7 5.5-0.8 8.6-0.3 1.5 0.2 3 0.6 4.5 1.3 1.5 0.6 3 1.5 4.5 2.8v1.5c-1.3 1.4-2.5 2.5-3.7 3.5s-2.3 1.9-3.5 2.8c-2.4 1.6-4.8 3.1-7.5 3.9-2.6 0.8-5.4 0.8-8.3 1-1.5 0.1-8-1.7-8-1.7-0.5-0.1-0.9-0.3-1.4-0.6-1.8-0.8-3-1.8-4.3-2.7-1.3-0.8-2.5-1.5-3.9-1.8-2.8-0.7-5.6 0.1-8-0.2-1.2-0.1-2.3-0.6-3.5-1-1.2-0.5-2.3-1-3.5-1.6-1.2-0.7-2.4-1.4-3.7-2.3s-2.6-1.8-3.9-3.3v-1.3z"/>
</g>
<path class="st3" d="m45.2 40.1c-1.8 0-3.6 0-5.3 0.1-0.1 0-0.3 0.1-0.4 0.2-0.2 0.2-0.8 0.6-1.3 0.7-0.7 0.1-1.4-0.3-1.4-0.3-0.9 0.1-1.8 0.2-2.6 0.3 0 0-0.6 0.7-1 0.9s-1.2-0.6-1.2-0.6c-8.7 1.1-13.7 3.5-13.7 5.6 0 1.1 1.5 1.9 4 2.8 1.6 0.6 3.5 0.7 5.8 1.4l4.8 0.8c5.4 0.6 10.1 1.8 17 1.8 1.5 0 5 0.1 6.5 0.1 2.3-0.1 3.9-0.6 6-0.7 0 0 3.4-0.3 3.8-0.4 0 0 8.4-1.3 10.9-2l1.8-0.6c0.5-0.2 4 0.1 4 0.1 1.7-0.8 2-2.5 2-3.4 0-3.2-13-6.2-29.2-6.7-0.1 0-0.2 0-0.2 0.1-0.1 0.1-0.2 0.3-0.3 0.4s-0.2 0.4-0.3 0.5-0.4 1-0.6 0.2c-0.1-0.5-0.2-0.9-0.3-1.1 0-0.1-0.1-0.2-0.2-0.2h-2.9-4.4-0.2l-0.6 0.4c-0.2 0-0.3-0.2-0.3-0.3 0 0-0.1-0.1-0.2-0.1z"/>
<path class="st4" d="m85 49.2c0 3.1-14.9 6.6-33.3 6.6s-33.3-3.5-33.3-6.6c0-2.9 13-5.3 29.7-5.6h3.6c18.3-0.1 33.3 2.5 33.3 5.6z"/>
<path class="st5" d="m85.1 46.6-0.1 4.9v0.3c-0.5 2.8-12.5 5.6-28.5 6h-5.6c-7.9 0-13.4-0.9-19.5-1.6-3.4-0.4-6.1-1.8-8.3-2.4-2.5-0.8-4.7-1.2-4.7-2.2v-5.1c0 0.1 0.6 0.8 1 1 0.9 0.4 2.3 0.7 3.7 1.2 1.5 0.5 3.2 1.3 5.3 1.8 0.3 0.1 0.8 2.2 0.9 2.3 0 0.1 0.2 0.1 0.2 0 0-0.3 0.1-0.7 0.2-0.8 0.1-0.2 0.4-0.7 0.5-1 0-0.1 1.5 0 1.6 0s0.1 0.1 0.2 0.1c0.1 0.2 0.4 1.9 0.4 1.9 0.1 0 1.4-1.8 1.8-1.7 5.2 0.5 9.7 1.5 16.4 1.5 1.5 0 5 0.1 6.5 0.1 2.1 0 3.5-0.4 5.3-0.6 0.4 0 0.7 0.2 0.8 0.6 0 0.2 0.1 0.5 0.2 0.6 0.1 0.2 0.4 0.4 0.5 0.4 0.8-0.1 1.6-1.5 1.6-1.5 0.1-0.2 1.6-0.3 1.6-0.2 0.1 0.3 0.3 0.7 0.4 0.7 0.2 0 0.9-0.7 0.9-0.7s0.6-0.5 0.7-0.5c3-0.4 5.7-0.8 7.9-1.3 0.3-0.1 0.5-0.1 0.8-0.2 0 0 0.3 0 0.6 0.4 0 0.1 0.5 0.9 0.7 0.8s1.6-2 2.1-2.2h0.5 0.3s0.2-0.1 0.2-0.1v-0.3c1.9-0.6 2.9-1.4 2.9-2.2v0.4-0.4z"/>
<path class="st6" d="m43.7 42.9s-1.2-1.7-1.8-1.8c-0.8-0.2 0 3.6 0.5 4s1.2 1.3 1.7 1.2c0.3 0.1-0.4-3.4-0.4-3.4z"/>

	<path class="st7" d="m45.1 44.9s0.8-2.2 2.8-2.5c0 0 0.7 4-2 4.6-2.6 0.7-0.8-2.1-0.8-2.1z"/>


	<path class="st7" d="m44.8 48.5s-1.2 1.3-2.8 1c0 0 0.7-3.2 2.8-2.8 2.2 0.3 0 1.8 0 1.8z"/>


	<path class="st7" d="m45.6 46.9s1.7 0.8 1.7 2.5c0 0-3.2 0.2-3.3-2-0.4-2.2 1.6-0.5 1.6-0.5z"/>


	<path class="st7" d="m47.3 46.2s1.7 0.8 1.7 2.5c0 0-3.2 0.2-3.3-2-0.4-2.2 1.6-0.5 1.6-0.5z"/>


	<path class="st7" d="m44.9 50.6s3.4-4.5 6.4-4.1c0 0-0.1 2.3-1.7 3.5s-3.1 2.1-5.4 1.5c-2.4-0.7 0.7-0.9 0.7-0.9z"/>

<path class="st7" d="m42.9 46.5s-1-4.5 0.7-6.1c0 0 2 0.8 1.7 5.3 0 0.8-0.5 2.2-0.7 2.5-0.5 1.5-1.7-1.7-1.7-1.7z"/>
<path class="st7" d="m42.9 46.4s1.2-4.3 3.5-5.1c0 0 1.3 1.7-1 5.5-0.5 0.7-1.5 1.7-1.8 2-1.2 0.9-0.7-2.4-0.7-2.4z"/>

	<path class="st7" d="m43.1 47.4s-1.2 0-1.5-0.3c-0.2-0.3-1.3-2.2-1.5-3s0.2-2.3 0.2-2.5c0 0 2.2 1.2 3 2.3 0.8 1.3 1.5 3.3 1.5 3.5 0.2 0.1-1.7 0-1.7 0z"/>


	<path class="st7" d="m45.1 44.9s0.8-2.2 2.8-2.5c0 0 0.7 4-2 4.6-2.6 0.7-0.8-2.1-0.8-2.1z"/>


	<path class="st7" d="m42.6 48.8s-1.1 0.3-1.5 0c-0.2-0.3-1.8-1.8-2.1-2.6s-0.4-2.3-0.4-2.5c0 0 2.4 0.6 3.4 1.6 1.1 1.1 2.2 2.9 2.2 3.1 0.2 0.2-1.6 0.4-1.6 0.4z"/>


	<path class="st7" d="m40.4 49.7s-1 0.5-1.3 0.3-1.8-1.2-2.3-1.8c-0.3-0.8-0.7-2-0.7-2s2.2 0 3.2 0.7c1.2 0.7 2.5 2 2.5 2.2 0 0.1-1.4 0.6-1.4 0.6z"/>


	<path class="st7" d="m45.3 48.2c-1.7-1-4.3 0-6 0 0 0 1.3-2.8 2.8-2.5 3 0.7 3.2 2.5 3.2 2.5z"/>

<path class="st6" d="m46.8 49.5s2.7-3.8 0.7-5.5c0 0-1.7 4.5-3 4.6 0 0 0.8-3-1.7-4.3 0 0-1.2 1.5-0.3 4.5 0.1 0.1 2.6 1.7 4.3 0.7z"/>
<path class="st8" d="m44.6 50.6s5.8-2.3 5-5.9c0 0-1.2-0.2-3.5 3.1-2.2 3.4-2.8 2.6-1.5 2.8z"/>
<path class="st8" d="m44.4 50.9s2 0.8 4 0.7c1.8-0.2 3.5-1.5 3.8-3.5 0 0-5.1 2.2-8 1.3 0.2 0-0.4 1 0.2 1.5z"/>
<path class="st8" d="m41 49.5s-2.2-4.1 0-5.5c0 0 1 4.6 2.3 5 0 0-0.3-3.2 2.2-4.1 0 0 1 1.7-0.3 4.5 0.1 0.1-2.7 1.5-4.2 0.1z"/>
<path class="st8" d="m43.8 51s-2 0.7-4 0.3c-1.8-0.3-3.3-1.7-3.6-3.6 0 0 5 2.3 7.8 1.8-0.1 0 0.6 1-0.2 1.5z"/>
<path class="st8" d="m40.1 50.7s3.8 3 7.6 0.5l-3.2-1.8-3 0.6-1.4 0.7z"/>
</svg>
