<?xml version="1.0" encoding="UTF-8"?>
<svg enable-background="new 0 0 100 100" version="1.1" viewBox="0 0 100 100" xml:space="preserve" xmlns="http://www.w3.org/2000/svg">
<style type="text/css">
	.st0{fill:#636365;}
	.st1{fill:#04370E;}
	.st2{fill:#5B5B5B;}
	.st3{fill:#545454;}
	.st4{fill:url(#a);}
	.st5{fill:#444444;}
</style>
<path class="st0" d="m89.3 36.3c-0.1-0.3-0.3-0.5-0.6-0.8 0.3 0.3 0.4 0.5 0.6 0.8z"/>

	<path class="st1" d="m77.3 73.5c-0.1-1.4-0.1-2.8-0.2-4.2-0.2 0.1-0.3 0.2-0.3 0.3-0.1 0.2-0.1 0.4 0 0.6 0.1 0.3 0 1-0.1 1.3-0.4-0.6-1-1-1.5-1-0.3 0-0.6 0.2-0.8 0.4 0-0.4 0-0.8-0.1-1.1-0.1-0.2-0.2-0.4-0.4-0.4h-0.3c0.3-0.6 0.4-1.2 0.1-1.4-0.2-0.2-0.5-0.2-0.8-0.1 0.9-0.9 1.3-1.9 0.9-2.5-0.5-0.7-2-0.6-3.5 0.2 0.4-1.7 0.1-3.1-0.7-3.4-0.9-0.3-2.1 0.9-2.8 2.8-0.1-0.3-0.2-0.5-0.5-0.6s-0.6 0.1-0.9 0.5c-0.2-1.9-1-3.4-2-3.3-0.8 0.1-1.4 1.2-1.5 2.7-1.2-1-2.4-1.3-3-0.8-0.4 0.4-0.4 1.2 0 2.2-0.6 0.1-1 0.3-1.1 0.6-0.2 0.5 0.4 1.1 1.2 1.6-0.6 0.1-1 0.3-1.1 0.6v0.3l-0.4 0.4c0-0.1-0.1-0.2-0.2-0.2-0.2-0.1-0.5-0.1-0.9 0.2 0-0.2 0-0.4-0.2-0.6-0.1-0.1-0.2-0.1-0.3-0.1 0.7-0.5 1.1-1.1 0.9-1.5s-0.8-0.5-1.6-0.3c0.7-0.6 1-1.3 0.7-1.7-0.1-0.2-0.4-0.3-0.6-0.3 0.5-0.7 0.7-1.3 0.5-1.8 0-0.1-0.1-0.1-0.2-0.2-0.2-0.1-0.4-0.2-0.7-0.3h-0.7c-0.2 0-0.5 0.1-0.7 0.2 0-0.3-0.1-0.6-0.2-0.8-0.2-0.2-0.6-0.1-1 0.1 0.1-0.3 0.1-0.6 0.1-0.9 0-0.7-0.3-1.2-0.7-1.4-0.7-0.3-1.6 0.6-2.3 1.9-0.1-0.2-0.2-0.4-0.4-0.5-0.3-0.1-0.6 0.1-1 0.4-0.1-1.9-0.9-3.4-1.8-3.4-0.5 0-0.9 0.5-1.2 1.2-0.5-0.4-1-0.6-1.4-0.5-0.6 0.2-0.9 1.1-0.8 2.3-0.6-0.2-1.1-0.2-1.3 0-0.4 0.5-0.1 1.6 0.8 2.5-0.2 0-0.3 0.1-0.4 0.2-0.3 0.3-0.2 0.8 0 1.4-0.1 0-0.2 0-0.2-0.1-0.2 0-0.4 0-0.6 0.1-0.3 0.3-0.3 0.9 0 1.5-0.2 0-0.5-0.1-0.7 0-0.1 0-0.2 0-0.2 0.1-0.1-0.4-0.2-0.8-0.4-1.1-0.1-0.2-0.3-0.4-0.6-0.5s-0.6-0.1-0.9 0c0.2-0.4 0.4-0.9 0.3-1.2 0-0.2-0.1-0.3-0.2-0.4s-0.2-0.1-0.3-0.1c0.6-0.4 0.9-0.9 0.7-1.2-0.2 0-0.4-0.2-0.8-0.2 1.2-0.4 2-1.1 1.9-1.8-0.1-0.9-1.5-1.4-3.2-1.3 1.1-1.3 1.5-2.8 0.9-3.4-0.7-0.7-2.3-0.1-3.7 1.3 0.1-0.3 0-0.6-0.1-0.8-0.2-0.2-0.6-0.2-1.1 0 0.6-1.7 0.6-3.4-0.2-3.8 0 0-0.1 0-0.1-0.1-0.4-0.2-0.9 0-1.4 0.4-0.4 0.3-0.8 0.8-1.1 1.4-0.6-1.2-1.3-2-2-2.1h-0.3c-0.6 0.2-0.9 0.9-0.9 2-0.5-0.2-1-0.2-1.2 0.1-0.3 0.3-0.2 0.9 0.2 1.6 0.1 0.1 0.1 0.2 0.2 0.4-0.5-0.2-1-0.2-1.2 0.1-0.4 0.4-0.2 1.1 0.4 1.9-0.8-0.3-1.5-0.3-1.9 0.1-0.2 0.2-0.3 0.4-0.3 0.8h-0.1c0.3 3.6 0.5 7.3 0.6 10.9 0.1 3.8 0 7.6 0.1 11.4v2.2c0.2 0.1 0.4 0 0.6-0.1 0.1 0.4 0.2 0.7 0.4 1.1 0.3 0.5 0.6 0.8 0.9 0.9 0.2 0 0.3 0 0.5-0.1 0.1-0.1 0.2-0.2 0.2-0.3 0.3 0.3 0.6 0.4 0.9 0.4s0.5-0.4 0.4-0.9v-0.1c0.4 0.2 0.7 0.2 0.8 0.1s0.3-0.7 0.5-1.2c2.3 0.1 4.9 0.2 7.8 0.1 2.4 0 4.4 0 6.2-0.1 0.4 0 0.7 0 1-0.1 0.8 0 1.5-0.1 2.1-0.2 0.7-0.1 1.4-0.1 2-0.2 3.1-0.3 5.3-0.7 7.9-0.6 0.6 0 1.8 0.1 2.7 0.1 0.4-0.1 0.7-0.1 1.1-0.2h0.3c1.3 0.4 2.4-0.1 2.4-0.1s0 0 0 0c0.7 0 1.3 0 1.9-0.1 0.1 0 0.2 0.1 0.4 0.1 1.7 0.4 1.8-0.3 1.8-0.3s0 0 0 0c0.1 0 1.3 0.2 2 0.1 0.3-0.1 0.3-0.2 0.1-0.4 0.5-0.1 1-0.1 1.6-0.1 1.7 0.1 3.4 0.1 4.9 0 1 0 1.9-0.1 2.8-0.1-0.1-2.5-0.2-5-0.4-7.5z"/>
	
		<path class="st2" d="m83.6 85-57.9-0.6-2.4 0.6v-17.5c3.1-2 6.3-1.7 9.6 0.8 0.8 0.6 1.7 0.6 2.5 0.1 3.9-2.5 7.6-2.8 11.2-1.3 1.9 0.8 3.9 0.7 5.8-0.5 6.9-4.2 12-3.7 17.1 0.4 1.5 0.8 9.4 1.1 11.6 0 0.8-0.4 1.6 0.4 2.5 0.4v17.6z"/>
		<path class="st3" d="m83.6 84.4-46.5-1.3-1.8 1.3h-12v-15.8c3.1-1.8 6.3-1.5 9.6 0.7 0.8 0.5 1.7 0.6 2.5 0.1 3.9-2.3 7.6-2.5 11.2-1.1 1.9 0.8 3.9 0.6 5.8-0.4 6.9-3.8 12.4-3.4 16.5 1.3 1.5 0.7 3 0.5 4.5-0.1h0.3l3 0.8c0.6 0.2 1.2 0 1.9-0.3 0.8-0.5 1.9-0.5 2.8 0.1 0.8 0.5 1.3-1 2.2-0.9v15.6z"/>
		<linearGradient id="a" x1="53.394" x2="53.436" y1="83.994" y2="65.182" gradientUnits="userSpaceOnUse">
			<stop stop-color="#434444" offset=".083997"/>
			<stop stop-color="#4A4A4A" offset=".4287"/>
			<stop stop-color="#545454" offset=".7317"/>
		</linearGradient>
		<path class="st4" d="m76.3 73.5c-0.9 0.6-1.4 1.7-2.3 1.3-5-2.4-6-3.4-11-0.7-1 0.6-4.7 2.4-6.2 1.1-2.4-2.2-6.3-1.1-8.7-0.2-0.4 0.2-0.8 0.3-1.2 0.2-0.6-0.3-1.2-1.2-1.9-1.3-2.3-0.3-4.1-1.9-6.4-1-1.7 0.7-3.9 2.3-5.6 3-0.8 0.4-3.5-2.1-7.5-1.4-1.4 0.2-1.9-1.6-2.3-3.1v-0.1 15.2h60.3v-13.1c-0.7 0-1.4 0.1-2.1 0.2-1.7 0.1-3.3-1.3-5.1-0.1z"/>
		<path class="st5" d="m23.3 79.8v-1.5c2.4-2.1 4.8-2.4 7.3-0.3 1.5 1.2 2.4 0.7 3.9-0.4 1-0.8 2.7-1.2 3.7-1.8 1.4-0.9 2.1-0.2 3.2 0.8 0.3 0.3 1.5 0.8 1.9 0.4 0.1-0.1 0.2-0.1 0.3-0.2 1.5-0.4 1.8 0.1 3 1.4l3.4-0.7c0.1-0.1 0.2-0.1 0.3-0.2 0.5-0.4 1.1-0.7 1.5 0.1 0.6 1 1.7 1.3 2.4 0.8 1.9-1.4 3.2 0.4 5 0.5 0.2 0 0.5 0.1 0.7 0.4 0.9 1.1 2.1-1.9 3-1 0.6 0.6 1 0.5 1.5 1.9 0.1 0.3 0.3 0.4 0.4 0.3 1.5-0.1 3-0.6 4.4 0.3 1.2 0.6 2.2-1 3.4-0.4 0.8 0.3 1.6 0.4 2.4-0.1 1.8-1.1 3.5-1.2 5.3-1.9 1.1-0.4 2.2-1.5 3.3-2.1v4.9l-0.6 1.9s0.8 0.1 0.6 0.2v-1.7c-1.1 0.5-2.2 1.7-3.3 2.1-1.8 0.7-3.4 0.8-5.3 1.9-0.8 0.6-1.6 0.5-2.4 0.1-1.2-0.6-2.2 0-3.5-0.1-1.7-0.2-2.9 0.1-4.4 0.2-0.1 0.1-0.3 0-0.4-0.3-0.5-1.5-0.9-1.4-1.5-1.9-0.9-0.9-2.2 2.1-3 1-0.2-0.3-0.4-0.4-0.7-0.4-1.8 0-3.1-1.9-5-0.5-0.7 0.6-1.8 0.3-2.4-0.8-0.5-0.8-1-0.6-1.5-0.1-0.1 0.1-0.2 0.1-0.3 0.2l-3.4 0.7c-1.1-1.3-1.5-1.8-3-1.4-0.1 0-0.2 0.1-0.3 0.2-0.4 0.4-1.6-0.1-1.9-0.4-1.2-1-1.8-1.7-3.2-0.8-1 0.6-2.6 1-3.7 1.8-1.5 1-2.4 1.6-3.9 0.4-2.5-2.1-4.8-1.8-7.3 0.3v-3.8"/>
	
	<path class="st3" d="m50 23.3c0.1 0 0.4 31.5 0.4 31.5l-2.2 20.1 14.7-0.4s-3.7-24.5-3.5-26.6c0.3-2.6 2.5-3.4 3.5-4.2s5.6-2.5 5.6-2.5v-2.4s-5.8 1.4-7.3 1.2-1.9 0.6-2.2-1.8-1.4-11.1-1.2-13.3c0.2-2.3-1.3-0.2-1.6 0s-1.9 1.8-2.3 1.1c-0.4-0.8-3.9-2.7-3.9-2.7z"/>
	<path class="st3" d="m77 20.9c-0.6 0.1-1.9 0.4-2.1 0.8s-2.4 5.3-2.9 5.4c-0.6 0.2-5.5 1.6-5.7 1.5s-2.8-2.7-3.2-2.7c-0.2 0-2.4 2-3.7 4.2-0.5 0.9-1.5 1.6-1.5 2.1 0 0.8 0.5 1.8 0.5 1.8l-0.8 1.7-1.2-4.6c1.2-1.4 6.3-6.4 6.6-6.3 0.4 0.1 2.7 2.7 3.4 2.9s3.8-1 4.2-1.2 3.1-5.3 3.4-5.5c0.3-0.3 2.3-0.1 3-0.1z"/>
	<path class="st5" d="m52 24.5s-6-4-6.5-4.1c-0.6-0.1-4.9 6.2-5.2 6.4l0.7 0.6s4.6-5.1 4.8-5.1 2.4 2 3.8 3.5c0.4 0.4 0.3 1.3 0.3 1.6 0 0.6 1.1-0.2 1.1-0.2 0.3 0 1-2.7 1-2.7z"/>

</svg>
