<?xml version="1.0" encoding="UTF-8"?>
<svg enable-background="new 0 0 100 100" version="1.1" viewBox="0 0 100 100" xml:space="preserve" xmlns="http://www.w3.org/2000/svg">
<style type="text/css">
	.st0{fill:#666633;}
	.st1{fill:url(#i);}
	.st2{fill:url(#h);}
	.st3{fill:url(#g);}
	.st4{fill:url(#f);}
	.st5{fill:url(#e);}
	.st6{fill:url(#d);}
	.st7{fill:url(#c);}
	.st8{fill:url(#b);}
	.st9{fill:url(#a);}
	.st10{fill:url(#j);}
</style>
<ellipse class="st0" cx="54.5" cy="67.9" rx="29.3" ry="4.2"/>
<linearGradient id="i" x1="52.532" x2="56.143" y1="740.25" y2="740.25" gradientTransform="translate(0 -690)" gradientUnits="userSpaceOnUse">
	<stop stop-color="#00D300" offset=".0032552"/>
	<stop stop-color="#00D203" offset=".2699"/>
	<stop stop-color="#00D10C" offset=".4556"/>
	<stop stop-color="#00CD1B" offset=".6167"/>
	<stop stop-color="#00C931" offset=".7637"/>
	<stop stop-color="#00C34D" offset=".8998"/>
	<stop stop-color="#00BE67" offset="1"/>
</linearGradient>
<path class="st1" d="m54.2 67.1c-0.5-1.4-0.8-2.8-0.7-4.5 0.1-1.8 1.1-2.8 1.3-4.1s0.2-2.6 0-4c-0.1-1.3-0.6-2.7-1.1-4s-1.1-2.7-1.2-4.2c-0.1-0.8-0.1-1.5 0-2.4 0.1-0.8 0.2-1.4 0.5-2.1 0.2-1.4 0.6-2.7 0.7-4.1 0.1-1.3 0.2-2.8 0-3.7l1.3-0.6c0.6 1.8 0.2 3.2 0.1 4.6-0.2 1.4-0.6 2.8-0.8 4.2s-0.6 2.7-0.5 4 0.6 2.6 1.1 4 0.8 2.8 1.1 4.2c0.1 1.4 0.2 3.1-0.1 4.6-0.5 1.5-1.2 2.7-1.3 3.8-0.1 1.3 0.2 2.6 0.7 3.8l-1.1 0.5z"/>
<linearGradient id="h" x1="51.406" x2="55.117" y1="-618.5" y2="-618.5" gradientTransform="matrix(1 0 0 -1 0 -588)" gradientUnits="userSpaceOnUse">
	<stop stop-color="#00D300" offset=".0032552"/>
	<stop stop-color="#00D203" offset=".2699"/>
	<stop stop-color="#00D10C" offset=".4556"/>
	<stop stop-color="#00CD1B" offset=".6167"/>
	<stop stop-color="#00C931" offset=".7637"/>
	<stop stop-color="#00C34D" offset=".8998"/>
	<stop stop-color="#00BE67" offset="1"/>
</linearGradient>
<path class="st2" d="m54.8 30c0.7 1.9-0.1 4.1-0.1 4.1s-2.2-0.9-2.9-3.1c-0.7-1.9 0.1-4.1 0.1-4.1s2.2 1.2 2.9 3.1z"/>
<linearGradient id="g" x1="54.743" x2="58.382" y1="-620.1" y2="-620.1" gradientTransform="matrix(1 0 0 -1 0 -588)" gradientUnits="userSpaceOnUse">
	<stop stop-color="#00D300" offset=".0032552"/>
	<stop stop-color="#00D203" offset=".2699"/>
	<stop stop-color="#00D10C" offset=".4556"/>
	<stop stop-color="#00CD1B" offset=".6167"/>
	<stop stop-color="#00C931" offset=".7637"/>
	<stop stop-color="#00C34D" offset=".8998"/>
	<stop stop-color="#00BE67" offset="1"/>
</linearGradient>
<path class="st3" d="m57.4 32.8c-1.1 1.1-2.7 1.3-2.7 1.3s-0.1-1.5 0.8-2.7c1.1-1.1 2.7-1.3 2.7-1.3s0.3 1.7-0.8 2.7z"/>
<linearGradient id="f" x1="49.62" x2="54.743" y1="-621.15" y2="-621.15" gradientTransform="matrix(1 0 0 -1 0 -588)" gradientUnits="userSpaceOnUse">
	<stop stop-color="#00D300" offset=".0032552"/>
	<stop stop-color="#00D203" offset=".2699"/>
	<stop stop-color="#00D10C" offset=".4556"/>
	<stop stop-color="#00CD1B" offset=".6167"/>
	<stop stop-color="#00C931" offset=".7637"/>
	<stop stop-color="#00C34D" offset=".8998"/>
	<stop stop-color="#00BE67" offset="1"/>
</linearGradient>
<path class="st4" d="m51.8 34.2c1.4 0.6 3.1 0 3.1 0s-0.7-1.4-2-2.1c-1.4-0.6-3.1 0-3.1 0s0.5 1.7 2 2.1z"/>
<linearGradient id="e" x1="54.446" x2="58.525" y1="-625.46" y2="-625.46" gradientTransform="matrix(1 0 0 -1 0 -588)" gradientUnits="userSpaceOnUse">
	<stop stop-color="#00D300" offset=".0032552"/>
	<stop stop-color="#00D203" offset=".2699"/>
	<stop stop-color="#00D10C" offset=".4556"/>
	<stop stop-color="#00CD1B" offset=".6167"/>
	<stop stop-color="#00C931" offset=".7637"/>
	<stop stop-color="#00C34D" offset=".8998"/>
	<stop stop-color="#00BE67" offset="1"/>
</linearGradient>
<path class="st5" d="m57.4 38.7c-1.2 1.3-2.9 1.1-2.9 1.1s0.1-1.8 1.3-2.8c1.8-1.8 2.7-1.8 2.7-1.8s0.1 2.2-1.1 3.5z"/>
<linearGradient id="d" x1="48.94" x2="53.019" y1="-629.56" y2="-629.56" gradientTransform="matrix(1 0 0 -1 0 -588)" gradientUnits="userSpaceOnUse">
	<stop stop-color="#00D300" offset=".0032552"/>
	<stop stop-color="#00D203" offset=".2699"/>
	<stop stop-color="#00D10C" offset=".4556"/>
	<stop stop-color="#00CD1B" offset=".6167"/>
	<stop stop-color="#00C931" offset=".7637"/>
	<stop stop-color="#00C34D" offset=".8998"/>
	<stop stop-color="#00BE67" offset="1"/>
</linearGradient>
<path class="st6" d="m50 42.8c1.2 1.3 2.9 1.1 2.9 1.1s-0.1-1.8-1.3-2.8c-1.8-1.8-2.7-1.8-2.7-1.8s0 2 1.1 3.5z"/>
<linearGradient id="c" x1="53.913" x2="58.76" y1="-636.93" y2="-636.93" gradientTransform="matrix(1 0 0 -1 0 -588)" gradientUnits="userSpaceOnUse">
	<stop stop-color="#00D300" offset=".0032552"/>
	<stop stop-color="#00D203" offset=".2699"/>
	<stop stop-color="#00D10C" offset=".4556"/>
	<stop stop-color="#00CD1B" offset=".6167"/>
	<stop stop-color="#00C931" offset=".7637"/>
	<stop stop-color="#00C34D" offset=".8998"/>
	<stop stop-color="#00BE67" offset="1"/>
</linearGradient>
<path class="st7" d="m57.1 50.4c-1.3 1.1-3.1 0.5-3.1 0.5s0.5-1.8 1.8-2.7c1.9-1.4 3.1-1.3 3.1-1.3s-0.5 2.3-1.8 3.5z"/>
<linearGradient id="b" x1="47.51" x2="53.486" y1="-636.45" y2="-636.45" gradientTransform="matrix(1 0 0 -1 0 -588)" gradientUnits="userSpaceOnUse">
	<stop stop-color="#00D300" offset=".0032552"/>
	<stop stop-color="#00D203" offset=".2699"/>
	<stop stop-color="#00D10C" offset=".4556"/>
	<stop stop-color="#00CD1B" offset=".6167"/>
	<stop stop-color="#00C931" offset=".7637"/>
	<stop stop-color="#00C34D" offset=".8998"/>
	<stop stop-color="#00BE67" offset="1"/>
</linearGradient>
<path class="st8" d="m49.9 49.7c1.4 0.8 3.2 0 3.2 0 1.1 0.7 0-1.2-2.4-2.2-2.2-0.9-3.2-0.6-3.2-0.6s1 2 2.4 2.8z"/>
<linearGradient id="a" x1="55.783" x2="59.268" y1="-642.6" y2="-642.6" gradientTransform="matrix(1 0 0 -1 0 -588)" gradientUnits="userSpaceOnUse">
	<stop stop-color="#00D300" offset=".0032552"/>
	<stop stop-color="#00D203" offset=".2699"/>
	<stop stop-color="#00D10C" offset=".4556"/>
	<stop stop-color="#00CD1B" offset=".6167"/>
	<stop stop-color="#00C931" offset=".7637"/>
	<stop stop-color="#00C34D" offset=".8998"/>
	<stop stop-color="#00BE67" offset="1"/>
</linearGradient>
<path class="st9" d="m58.6 55.8c-0.8 1.4-2.7 1.4-2.7 1.4s-0.1-1.8 0.8-3.1c1.4-1.9 2.5-2.1 2.5-2.1s0.3 2.4-0.6 3.8z"/>
<linearGradient id="j" x1="50.045" x2="55.59" y1="-645.37" y2="-645.37" gradientTransform="matrix(1 0 0 -1 0 -588)" gradientUnits="userSpaceOnUse">
	<stop stop-color="#00D300" offset=".0032552"/>
	<stop stop-color="#00D203" offset=".2699"/>
	<stop stop-color="#00D10C" offset=".4556"/>
	<stop stop-color="#00CD1B" offset=".6167"/>
	<stop stop-color="#00C931" offset=".7637"/>
	<stop stop-color="#00C34D" offset=".8998"/>
	<stop stop-color="#00BE67" offset="1"/>
</linearGradient>
<path class="st10" d="m52.4 58.6c1.4 0.8 3.2 0 3.2 0s-0.7-1.5-2.4-2.2c-2.2-0.9-3.2-0.6-3.2-0.6s0.9 2.1 2.4 2.8z"/>
</svg>
