<?xml version="1.0" encoding="UTF-8"?>
<svg enable-background="new 0 0 100 100" version="1.1" viewBox="0 0 100 100" xml:space="preserve" xmlns="http://www.w3.org/2000/svg">
<style type="text/css">
	.st0{fill:url(#h);}
	.st1{fill:url(#SVGID_2_);}
	.st2{fill:#DD5167;}
	.st3{fill:#05A259;}
	.st4{fill:url(#g);}
	.st5{fill:url(#f);}
	.st6{fill:url(#e);}
	.st7{fill:url(#d);}
	.st8{fill:url(#c);}
	.st9{fill:url(#b);}
	.st10{fill:url(#a);}
	.st11{fill:url(#i);}
</style>
<linearGradient id="h" x1="295.44" x2="295.5" y1="1109.5" y2="1109.4" gradientTransform="matrix(.0092035 1 1 -.0092035 -1096.8 -241.55)" gradientUnits="userSpaceOnUse">
	<stop stop-color="#006032" offset=".044699"/>
	<stop stop-color="#005A36" offset=".2006"/>
	<stop stop-color="#004842" offset=".4162"/>
	<stop stop-color="#003D49" offset=".5166"/>
	<stop stop-color="#1C2E52" offset=".7442"/>
	<stop stop-color="#1A2F52" offset=".7707"/>
	<stop stop-color="#133452" offset=".781"/>
	<stop stop-color="#073B51" offset=".7884"/>
	<stop stop-color="#004051" offset=".7913"/>
	<stop stop-color="#004949" offset=".8718"/>
	<stop stop-color="#00583B" offset=".9593"/>
</linearGradient>
<path class="st0" d="m15.4 43.8v0c0.1-0.3 0 0 0 0z"/>

<path class="st1" d="m15.4 43.8v0c0.1-0.3 0 0 0 0z"/>

	<path class="st2" d="m66 68.5-7.5-9.7c-0.2-0.1-0.3-0.4-0.5-0.6-0.9-0.6-2-1-3.1-1l-6.1 0.2-0.6 6.1c-0.1 1 0.2 1.8 0.5 2.7 0.2 0.4 0.5 0.9 0.9 1.2l8.9 8.3 7.5-7.2z"/>
	<path class="st2" d="m56.6 68 0.6-0.6 0.8-0.6-0.8-1-1.1-1-0.9-0.9-4.2-4.5-2.1-2.5-3.5-4.2-2.7-3-3.2-3.3-3-3.4-3-3-3.5-4-3-3.3-3.1-3.7-1.5-1.8-2.4-2.6c-0.3-0.4-1-0.4-1.3 0-0.4 0.3-0.4 1-0.1 1.3l6 6.6 1.5 1.5 3.3 3.6 3 3.3 3.3 3.6 3 3.3 2.9 3.1 3.5 3.7 2.6 2.8 3.8 4.3 2 2.1 3.1 4.2z"/>

<path class="st3" d="m79.5 61.9c-0.1 1.4-0.4 9.1-0.1 9.7 0.3 0.7-0.3 4.3-0.3 4.3l-3.2 0.3-2.9 0.3-5 0.5-2.7 0.3-10 1-3.8 0.4-5 0.5h-0.2l-1.3-0.3-1.6-0.4-2.7-0.6-4.4-1-3.7-0.8c0.1-0.3-3.8-12.5-3.8-12.7 0 0 0.3 0.3 0.7 0.8 1.9 2.2 7.6 8.3 8.3 9.5 0.5 0.9 0.7 0.9 1.1 0.6 0.4-0.2-0.3-1.6-0.4-1.6-0.2-0.1-6-14-6.3-14.8 0.1 0.2 9.3 12.7 10.4 15 0.1 0.3 0.2 0.3 0.2 0.2 0.2-0.8-1.7-10-1-13.6 0-0.2 0.1-0.5 0.2-0.7 0 0 6.1 14.2 6.3 14.7 0.1 0.2-0.7-0.4-0.1-1.1l0.2-0.9-1.3-8.8 0.6 0.6c1.8 2 7.1 8 7.8 10l11.3-0.4h0.6s3.1-8.9 6-11c0 0 0.1 0 0.1-0.1 0 0-0.5 10.5-0.1 11s2.5-2.6 2.5-2.6 2.4-7.4 3.3-8.4c0.3-0.1 0.3-0.1 0.3 0.1z"/>

	<linearGradient id="g" x1="72.815" x2="61.88" y1="65.879" y2="65.879" gradientUnits="userSpaceOnUse">
		<stop stop-color="#23B347" offset="0"/>
		<stop stop-color="#13A14D" offset="1"/>
	</linearGradient>
	<path class="st4" d="m72 54.1c-2 3.7-3.8 7.5-5.4 11.4-0.8 1.9-1.5 3.9-2 5.9s-0.9 4.1-0.6 5.8l-2 0.3c0-0.6-0.1-1.2 0-1.8s0.1-1.1 0.3-1.7l0.4-1.6 0.5-1.5c0.7-2 1.6-4 2.5-5.9 1.8-3.7 4-7.3 6.3-10.9z"/>

<linearGradient id="f" x1="53.748" x2="57.316" y1="62.111" y2="62.111" gradientTransform="matrix(-.7934 0 0 1 114.11 0)" gradientUnits="userSpaceOnUse">
	<stop stop-color="#23B347" offset="0"/>
	<stop stop-color="#13A14D" offset="1"/>
</linearGradient>
<path class="st5" d="m70.1 62.9c-0.8 0.1-1.5-0.5-1.5-0.5s0.6-0.9 1.3-1c0.8-0.1 1.4 0.1 1.5 0.5s-0.5 0.9-1.3 1z"/>
<linearGradient id="e" x1="51.964" x2="55.532" y1="58.722" y2="58.722" gradientTransform="matrix(-.7934 0 0 1 114.11 0)" gradientUnits="userSpaceOnUse">
	<stop stop-color="#23B347" offset="0"/>
	<stop stop-color="#13A14D" offset="1"/>
</linearGradient>
<path class="st6" d="m71.5 59.5c-0.7 0.1-1.5-0.5-1.5-0.5s0.6-0.9 1.3-1c0.8-0.1 1.4 0.1 1.5 0.5s-0.5 0.9-1.3 1z"/>
<linearGradient id="d" x1="55.532" x2="59.1" y1="65.05" y2="65.05" gradientTransform="matrix(-.7934 0 0 1 114.11 0)" gradientUnits="userSpaceOnUse">
	<stop stop-color="#23B347" offset="0"/>
	<stop stop-color="#13A14D" offset="1"/>
</linearGradient>
<path class="st7" d="m68.7 65.8c-0.8 0.1-1.5-0.5-1.5-0.5s0.6-0.9 1.3-1c0.8-0.1 1.4 0.1 1.5 0.5s-0.5 0.9-1.3 1z"/>
<linearGradient id="c" x1="59.372" x2="61.07" y1="60.461" y2="60.461" gradientTransform="matrix(-.7934 0 0 1 114.11 0)" gradientUnits="userSpaceOnUse">
	<stop stop-color="#23B347" offset="0"/>
	<stop stop-color="#13A14D" offset="1"/>
</linearGradient>
<path class="st8" d="m65.8 60.7c0.2 1 1 1.5 1 1.5s0.4-1 0.2-1.9c-0.2-1-0.6-1.6-1-1.5-0.3 0-0.4 0.9-0.2 1.9z"/>
<linearGradient id="b" x1="57.148" x2="58.846" y1="57.213" y2="57.213" gradientTransform="matrix(-.7934 0 0 1 114.11 0)" gradientUnits="userSpaceOnUse">
	<stop stop-color="#23B347" offset="0"/>
	<stop stop-color="#13A14D" offset="1"/>
</linearGradient>
<path class="st9" d="m67.5 57.4c0.2 1 1 1.5 1 1.5s0.4-1 0.2-1.9c-0.2-1-0.6-1.6-1-1.5-0.3 0.1-0.4 1-0.2 1.9z"/>
<linearGradient id="a" x1="61.472" x2="63.215" y1="63.13" y2="63.13" gradientTransform="matrix(-.7934 0 0 1 114.11 0)" gradientUnits="userSpaceOnUse">
	<stop stop-color="#23B347" offset="0"/>
	<stop stop-color="#13A14D" offset="1"/>
</linearGradient>
<path class="st10" d="m64.1 63.4c0.2 0.9 1 1.5 1 1.5s0.4-1 0.2-1.9-0.7-1.6-1-1.5c-0.4 0.1-0.4 0.9-0.2 1.9z"/>
<linearGradient id="i" x1="46.8" x2="50.368" y1="54.581" y2="54.581" gradientTransform="matrix(-.5253 .5946 .7494 .6621 57.427 -12.102)" gradientUnits="userSpaceOnUse">
	<stop stop-color="#23B347" offset="0"/>
	<stop stop-color="#13A14D" offset="1"/>
</linearGradient>
<path class="st11" d="m73.4 53.4c-0.4 0.7-1.4 0.8-1.4 0.8s-0.3-1 0.1-1.7 1-1 1.4-0.8c0.4 0.3 0.4 1-0.1 1.7z"/>
</svg>
