<?xml version="1.0" encoding="UTF-8"?>
<svg enable-background="new 0 0 100 100" version="1.1" viewBox="0 0 100 100" xml:space="preserve" xmlns="http://www.w3.org/2000/svg">
<style type="text/css">
	.st0{opacity:0.5;fill:#FFC59D;enable-background:new    ;}
	.st1{fill:#D3977F;}
	.st2{fill:#DD9F83;}
	.st3{fill:#EEB393;}
	.st4{fill:url(#a);}
	.st5{fill:#5E2C2C;}
	.st6{fill:#05A259;}
	.st7{fill:#037E4B;}
	.st8{fill:#51312E;}
</style>
<ellipse class="st0" cx="56.7" cy="75.1" rx="28.9" ry="4.3"/>
<path class="st1" d="m42.4 63.3s1.3 8.2 1.1 8.8c-0.2 0.5-1.4 1.5-1.1 1.8h1.1l1.8 0.8 0.8-3.5-1.1-6.6-2.6-1.3z"/>
<path class="st2" d="m74.6 71.8s-5.9 2.2-11.1 2.6c0.2-0.1-1.3-1-1.5-0.8-0.1 0.1 0.1 1.2 0.1 1.2-0.4 0-0.8 0.3-1 0.5 0.1 0.3 0.4 0.5 0.8 0.7l-0.6 1.2 1.8-0.7s7.8 0.2 8.1 0c0.3-0.1 3.4-4.7 3.4-4.7z"/>
<path class="st2" d="m74 69.1s-5.9 2.2-11.1 2.6c0.2-0.1-1.3-1-1.5-0.8-0.1 0.1 0.1 1.2 0.1 1.2-0.4 0-0.8 0.3-1 0.5 0.1 0.3 0.4 0.5 0.8 0.7l-0.6 1.2 1.8-0.7s7.8 0.2 8.1 0c0.4-0.1 3.4-4.7 3.4-4.7z"/>
<path class="st1" d="m44.1 26.6s1.3-3.7 2.6-3.1c1.2 0.5 2.3 4.1 2.3 4.1l-4.9-1z"/>
<path class="st3" d="m77.7 55s0.6 17.1-14.9 17.9c-15.4 0.8-20-7.8-22.8-10.9s-2.3-9.7-1.9-12.1 0.6-7 0.1-7.9c-0.3-0.5-1.6-1.3-2.6-1.8-0.7-0.4-1.3-0.7-1.3-0.7-4.4-2-4.1-6.6-3.6-9 0.2-0.9 0.9-1.7 1.8-2.1 0.6-0.2 1.4-0.5 1.8-0.6 0.2-0.1 0.6-0.2 1.1-0.3 1.7-0.4 4.9-1.1 9.8-1.5 6.4-0.5 9.9 10.9 10.4 12s5.2 3.8 5.2 3.8c8.9 7 18.2 14.2 16.9 13.2z"/>
<path class="st3" d="m108.1 56.5c0.3 0.2 0.3 0.2 0 0z"/>
<linearGradient id="a" x1="44.313" x2="81.45" y1="748" y2="748" gradientTransform="translate(0 -690)" gradientUnits="userSpaceOnUse">
	<stop stop-color="#EEB393" offset="0"/>
	<stop stop-color="#DD9F83" offset=".5706"/>
</linearGradient>
<path class="st4" d="m56.2 40.3c-1.2 0.1-1.7-1.4-2.8-1-0.8 0.4-1.3 1.2-1.2 2.1 0.3 1.2 1.4 2.7 0.1 3.5-1 0.6-2.5-1.2-3.4-0.6-1 0.6-0.9 2.3-0.6 3.7 0.1 0.9 0.4 1.8 0.3 2.8-0.8-0.1-1.4-1.5-1.8-1-1.3 1.8-0.4 4.4-0.3 6.6-0.9-1-2.1-2.2-2.1-3.7-0.3 1.7-0.2 3.6 0.9 4.9 21.3 25.9 32.5 21.3 35.6 10.9 1.7-5.8-0.7-12-5.6-15.5-4.4-3.1-10.2-7.3-14.7-10.7 0 0-2.1-1.3-3.7-2.4v0.1c-0.1 0.1-0.5 0.2-0.7 0.3z"/>
<path class="st3" d="m55.6 38.1c-0.5-1-4-12.5-10.4-12-4.9 0.4-8.1 1.1-9.8 1.5-0.5 0.1-0.9 0.2-1.1 0.3-0.5 0.1-1.2 0.4-1.8 0.6-0.9 0.3-1.6 1.1-1.8 2.1-0.5 2.4-0.8 7.1 3.6 9 0 0 0.6 0.3 1.3 0.7 1 0.5 2.3 1.3 2.6 1.8 0.5 0.9 0.3 5.4-0.1 7.9-0.4 2.4-0.9 9 1.9 12.1 2.3 2.6 6 9.2 16.3 10.7-4.7-4.2-8.1-9.8-10.8-15.5-0.8-1.5-1.2-3.2-0.9-4.9 0 1.5 1.2 2.7 2.1 3.7-0.1-2.2-1-4.8 0.3-6.6 0.4-0.5 1 0.9 1.8 1 0.1-1-0.1-1.9-0.3-2.8-0.3-1.4-0.4-3.1 0.6-3.7 0.9-0.5 2.3 1.3 3.4 0.6 1.3-0.8 0.1-2.3-0.1-3.5-0.1-0.9 0.4-1.7 1.2-2.1 1.2-0.4 1.7 1.2 2.8 1 0.3-0.1 0.6-0.3 0.8-0.5v-0.1c-0.8-0.5-1.4-1-1.6-1.3z"/>
<path class="st1" d="m35.7 40.3c-0.7-0.4-1.3-0.7-1.3-0.7-4.4-2-4.1-6.6-3.6-9 0.2-0.9 0.9-1.7 1.8-2.1 0.6-0.2 1.4-0.5 1.8-0.6 0.2-0.1 0.6-0.2 1.1-0.3 0.9 1.9 2.5 6.5 0.2 12.7z"/>
<path class="st5" d="m32.1 30.2c-0.3 0.6-0.8 0.9-1 0.8-0.3-0.1-0.2-0.7 0.1-1.3s0.8-0.9 1-0.8c0.3 0.2 0.3 0.7-0.1 1.3z"/>

	
		<path class="st6" d="m34.3 35.2c-0.4 0.2-0.7 0.5-1.1 0.9-3.5 3.4-7 12.7-7.5 14.1 0 0.1-0.1 0.2-0.1 0.2 4.1-1.3 8.7-15.2 8.7-15.2z"/>
		
			<path class="st7" d="m34.3 35.2c-0.4 0.2-0.7 0.5-1.1 0.9-3.2 7.7-5.7 11.8-7.5 14.1 0 0.1-0.1 0.2-0.1 0.2 4.1-1.3 8.7-15.2 8.7-15.2z"/>
		
	


	<path class="st8" d="m35.5 33.9c-0.1 0.6-0.4 1.1-0.7 1.5-0.4 0.4-0.9 0.8-1.5 1-0.6 0.1-1.4-0.1-1.8-0.5-0.3-0.2-0.4-0.4-0.6-0.7-0.1-0.3-0.2-0.5-0.3-0.8 0.3 0.1 0.5 0.3 0.7 0.4s0.4 0.3 0.6 0.3c0.4 0.2 0.8 0.2 1.2 0.2 0.4-0.1 0.8-0.3 1.2-0.6 0.3-0.1 0.7-0.4 1.2-0.8z"/>


	<path class="st8" d="m41.1 28.7c0.5 0.6 1 0.9 1.5 1 0.3 0.1 0.6 0.1 0.9 0.1h1.1c-0.3 0.3-0.6 0.6-1 0.7s-0.8 0.2-1.3 0.1-0.9-0.4-1.1-0.8c-0.2-0.2-0.2-0.7-0.1-1.1z"/>

<path class="st3" d="m51.6 28.6c-0.2 0.3-0.4 0.6-0.7 0.8-0.6 0.4-1.3 0.6-1.9 0.4h-0.2c-0.4-0.1-0.8-0.4-1.1-0.8-0.7-1-0.4-2.4 0.6-3.1s2.3-0.1 3.1 0.5l0.1 0.1c0.2 0.2 0.2 0.2 0.3 0.4 0.2 0.5 0.1 1.1-0.2 1.7z"/>

	<path class="st1" d="m47.4 27.9c-0.7-0.4-0.9-1.3-0.7-2s0.7-1.4 1.6-1.7 1.8 0 2.3 0.4 0.9 1.1 0.9 1.9c-0.8 0.2-1.3 0.3-1.7 0.4s-0.6 0.2-0.6 0.2-0.3 0-0.6 0.1c-0.2 0-0.6 0.2-1.2 0.7z"/>

<path class="st1" d="m51.6 28.6c-0.2 0.2-0.4 0.5-0.7 0.8-0.5 0.5-1.3 0.6-1.9 0.4h-0.2c-0.3-0.9 0.3-2.3 1.1-3 0.4-0.4 1.2-0.6 1.6-0.4l0.1 0.1c0.2 0.2 0.2 0.2 0.3 0.4 0.1 0.5 0 1.1-0.3 1.7z"/>
<path class="st2" d="m43.1 62.7s2.2 6.1 1.9 11.3c-0.1-0.2-1.7 1.2-1.5 1.3 0.1 0.1 1.9 0 1.9 0-0.1 0.4 0.3 0.8 0.5 1 0.4 0 0.8-0.4 1.1-0.7l1.7 0.7-0.7-1.9s1.7-7.7 1.5-8c0-0.1-6.4-3.7-6.4-3.7z"/>

	<path class="st3" d="m41.1 59.8s4.5 7.6 4.9 7.6 0.3-2.3 0.3-2.3 2.4 4.6 3 4.5 0.2-1.6 0.2-1.6 1.7 3.2 2.5 2.9l1.2-7-9.4-4.9-2.7 0.8z"/>

</svg>
