<?xml version="1.0" encoding="UTF-8"?>
<svg enable-background="new 0 0 100 100" version="1.1" viewBox="0 0 100 100" xml:space="preserve" xmlns="http://www.w3.org/2000/svg">
<style type="text/css">
	.st0{fill:#2C1F00;}
	.st1{fill:url(#b);}
	.st2{fill:#333333;}
	.st3{fill:#EEF2FC;}
	.st4{fill:#D64012;}
	.st5{fill:#FBC600;}
	.st6{fill:#7AC2CE;}
	.st7{fill:#262626;}
	.st8{fill:#424242;}
	.st9{fill:#333333;stroke:#262626;stroke-width:0.2;stroke-miterlimit:10;}
	.st10{fill:url(#a);}
</style>
<path class="st0" d="m51 19.1z"/>
<path class="st0" d="m51 19.1z"/>
<path class="st0" d="m51 19.1z"/>
<linearGradient id="b" x1="-1215.3" x2="-1203.1" y1="90.959" y2="60.924" gradientTransform="matrix(-.9997 -.023447 .023447 -.9997 -1164.1 89.208)" gradientUnits="userSpaceOnUse">
	<stop stop-color="#333" offset="0"/>
	<stop stop-color="#281A27" offset=".9985"/>
</linearGradient>
<path class="st1" d="m59 48s-1 0.2-1.5-0.4c-1.6-2-4.6-6.9-4.7-8.5-0.1-2-0.3-2.8-0.3-2.8s0.9-4.1 0.1-5.7c0 0-1 2.5-1.3 3.6 0 0 0.1-7.3-1.1-8s-0.5 7.5-0.5 7.5-2.2-11-3.1-9.4 1 9.2 1 9.2-2.1-8.5-3-8.1 0.9 8 0.9 8-3.4-7.6-3.9-6.4c-0.6 1.2 2.3 7 2.3 7s-4.5-5.8-4.8-4.6 2.5 5.2 2.5 5.2-3.9-3.6-4.3-3.1c-0.4 0.4 2.8 4.7 2.8 4.7s-4.3-3.1-4.8-2.3c-0.1 0.1 2.8 3.2 3 3.5 0.2 0.2-3-2.6-3.8-2.1-0.3 0.2 1.4 1.6 1.5 1.8 0.2 0.4-2.4-0.6-2.4-0.2s0.8 1.5 0.8 1.5-1.3-0.5-1.6 0.1c-0.3 0.5 0.5 1.3 0.4 1.6s-1.5-0.2-1.5 0.7c0 0.7 0.6 0.8 0.5 1.5s-0.7 0.3-0.8 1.1c-0.1 0.7 0.3 0.9 0.5 1.3 0.1 0.4-0.7 1-0.4 1.5 0.9 1 0 1.2 0.2 1.6 0.7 1.2 0.1 1.3-0.1 1.8s3.6 4.8 3.6 4.8 22-4.9 23.8-6.4z"/>
<path class="st2" d="m64.1 51.4c-0.4 0.3-1.7 1.2-1.7 1.2-0.3 0.6-1.5 1.6-2.9 1.9-1.5 0.3-8.9 3.3-10.1 3.8-3.8 1.6-13.2 3.9-14-3.6-0.1-0.6 5.4-3.8 6.6-4.4 7.3-3.5 15.2-1.7 17.5-3.7 7.5-6.6 10.8-0.4 10.8-0.3 0.2 0.3 0.1 0.6 0.1 0.9 0.1 1.4-1.4 3.1-1.8 3.6-0.7 0.6-4.1 0.3-4.5 0.6z"/>
<path class="st3" d="m64.2 51.8c-0.3 0.2-1.1 0.5-1.6 0.8-0.6 0.3-1.3 0.5-2 0.2-1.4-0.6-2.7-2.1-1.8-3.7v-0.1c1.3-2.1 3.9-1.2 6.3-2.9s4.3-0.3 5.4 1c0 0.7-0.3 1.4-0.7 2.1s-0.9 1.2-1.1 1.5c-0.6 0.7-4.1 0.9-4.5 1.1z"/>
<path class="st4" d="m64.1 48.3c0-0.7 0.4-1 0.9-1.6-0.2 0.1-0.8 0.2-1 0.3-2.4 1.7-4.8 0.4-6.1 2.5v0.1c-0.8 1.3 0 2.6 1.1 3.4 0.9 0.6 2.1 0.6 3 0.1 0.5-0.3 1.1-0.6 1.3-0.7 0.2-0.2 0.8-1.1 2-1.3-1.2-0.9-1.2-1.1-1.2-2.8z"/>
<path class="st3" d="m66.8 51.4c-1.1 0.2-2.4 0.3-2.7 0.5-0.2 0.1-0.8 0.5-1.3 0.7-0.9 0.5-2.1 0.5-3-0.1-1.1-0.7-1.9-2-1.1-3.4v-0.1c0.3-0.4 0.6-0.8 1-1 1.4-0.9 3.4-0.5 5.3-1.9 0.2-0.2 0.4-0.3 0.6-0.4-0.4 0.6-0.7 1.3-0.7 2 0 1.1 0.4 2 0.9 2.7l1 1z"/>
<path class="st5" d="m66.8 51.4c-1.1 0.2-2.4 0.3-2.7 0.5-0.2 0.1-0.8 0.5-1.3 0.7-0.9 0.5-2.1 0.5-3-0.1-1.1-0.7-1.9-2-1.1-3.4v-0.1c0.3-0.4 0.6-0.8 1-1 0.9 0.2 2.1 0.4 2.8 1.3 0.9 1.2 2.1 1.3 3.3 1 0.3 0.4 0.7 0.8 1 1.1z"/>
<circle class="st6" cx="67.2" cy="46.6" r="1.1"/>

	<path class="st7" d="m67.9 46.6c0.1 0.2 0.1 0.4-0.1 0.6-0.1 0.2-0.4 0.3-0.6 0.3s-0.5-0.1-0.6-0.3-0.2-0.4-0.1-0.6c0.2 0.4 0.5 0.4 0.7 0.4 0.3 0.1 0.5 0 0.7-0.4z"/>

<path class="st2" d="m84.1 50.9c-2.2-1.9-8.5-1.4-9.8-1.1-0.3 0.1-0.6 0.1-1.1 0.2-1.3 0.2-3.1 0.3-3.8 0.4h-0.4s-0.5-1.2-0.2-1.7c0.2-0.2 0.3-0.6 0.4-1v-0.3-0.1c-0.3-0.7-0.4-1.5-0.5-2v-0.7c0.2 0 0.5-0.1 0.7-0.1 7.4-1 11.1 1.1 12.9 3.1 1.2 1.3 1.5 2.6 1.6 3 0.2 0.2 0.2 0.3 0.2 0.3z"/>
<path class="st8" d="m84.1 50.7c-0.5-0.8-7.9-5.6-14.9-3.3v-0.1c-0.3-0.7-0.4-1.5-0.5-2v-0.7c0.2 0 0.5-0.1 0.7-0.1 7.4-1 11.1 1.1 12.9 3.1 1.3 1.4 1.7 2.7 1.8 3.1z"/>
<path class="st6" d="m73.2 49.9c-1.3 0.2-3 0.4-3.8 0.4h-0.4s-0.5-1.2-0.2-1.7c0.2-0.2 0.3-0.6 0.4-1v-0.3-0.1c-0.3-0.7-0.4-1.5-0.5-2v-0.7c0.2 0 0.5 0 0.7-0.1 1.5 1.6 1.3 2.8 1.4 3 0.3 0.8 1.5 1.8 2.4 2.5z"/>

	<path class="st7" d="m84.1 50.7c-0.5-0.4-1.1-0.7-1.7-1s-1.2-0.6-1.8-0.8c-1.2-0.5-2.4-0.9-3.7-1.2s-2.5-0.5-3.8-0.6c-1.3 0-2.6 0.1-3.9 0.3 1.2-0.5 2.6-0.7 3.9-0.7s2.7 0.2 4 0.5 2.5 0.8 3.7 1.3c1.2 0.6 2.4 1.2 3.3 2.2z"/>

<path class="st9" d="m70.2 44.9s4.9-0.8 7.1 0.2c0.2 0.1 0.4 0.2 0.3 0.3-0.4 0.4-0.9-0.2-2.4-0.4-2.2-0.1-5-0.1-5-0.1z"/>

	
		
			
				<path d="m36 56.3-1 0.1-0.9 0.1-15.9 2.5c-0.1 0-0.2-0.1-0.1-0.2 0.6-1.3 2.8-2.2 5.3-2.8 2.7-0.7 5.8-1.1 8.1-1.3 0.6-0.1 1.1-0.1 1.5-0.1 0.3 0 0.6 0 0.8-0.1h0.7l1.5 1.8z"/>
				<path d="m35.9 56.3h-2l-10.5-0.3-5.4-0.1c-0.1 0-0.1-0.1-0.1-0.2 1.7-2.3 9.5-2.1 13.9-1.8 0.3 0 0.6 0 0.8 0.1 0.6 0.1 1.1 0.1 1.4 0.1 0.4 0 0.7 0.1 0.7 0.1l1.2 2.1z"/>
			
		
		
			
				<path d="m37.1 57-0.7 0.6-1 0.2-10.2 2.4-5.3 1.2c-0.1 0-0.2-0.1-0.1-0.1 1-2.7 8.7-4.4 13-5.2 0.3-0.1 0.6-0.1 0.8-0.1 0.6-0.1 1.1-0.2 1.4-0.2 0.4-0.1 0.7-0.1 0.7-0.1l1 1 0.4 0.3z"/>
			
		
		<path d="m37.6 56.8s1.8-2.5-0.3-2.5l-4.7-0.3c0.5 1.4 0.7 2.8 0.8 4.3 0 0 3 0.1 4.2-1.5z"/>
	

<linearGradient id="a" x1="-4269.4" x2="-4255.8" y1="-5430" y2="-5463.6" gradientTransform="matrix(-.503 .8643 .8643 .503 2619.6 6487.1)" gradientUnits="userSpaceOnUse">
	<stop stop-color="#333" offset="0"/>
	<stop stop-color="#281A27" offset=".9985"/>
</linearGradient>
<path class="st10" d="m56.6 51.1c5 0 6.8 7.4 7.9 8.5 2.7 2.5 8.4 3.9 8.4 4.5s-5-0.7-6.1-1c0 0 6.1 2.6 6.1 4s-6.6-3.5-6.6-3.5 8.3 7.6 6.4 7.6c-1.9-0.1-7.4-5.7-7.4-5.7s6.2 6.2 5.3 6.8c-0.8 0.6-6.4-5-6.4-5s4.7 6.8 3.4 6.7c-1.3-0.2-4.8-5.6-4.8-5.6s2.6 6.8 1.4 6.5-3.1-4.9-3.1-4.9 1 5.2 0.4 5.3c-0.5 0.1-2.5-4.8-2.5-4.8s0.4 5.3-0.6 5.3c-0.2 0-3-6.9-3.1-7.2s0.6 3.9-0.1 4.3c-0.3 0.1-1.5-3.9-1.6-4.1-0.2-0.4-0.7 2.3-1.1 2.2s-1.1-1.8-1.1-1.8-0.2 1.3-0.9 1.3c-0.6 0-0.8-1.1-1.1-1.2s-0.6 1.4-1.4 0.9c-0.6-0.3-0.4-0.9-1-1.2s-0.7 0.4-1.3 0.1-0.6-0.8-0.9-1.1-1.3 0.1-1.4-0.5c-0.4-1.3-1-0.6-1.2-1-0.7-1.2-1-0.8-1.6-0.8-0.1 0-0.9 0.1-0.7-1.2 0.1-0.6-0.1-0.7-0.8-1-0.8-0.3 0-1.8-0.5-2.3-1-0.8-0.3-3.1 0.1-2.6-0.1-0.1 15.5-7.5 17.9-7.5z"/>
</svg>
