<?xml version="1.0" encoding="UTF-8"?>
<svg enable-background="new 0 0 100 100" version="1.1" viewBox="0 0 100 100" xml:space="preserve" xmlns="http://www.w3.org/2000/svg">
<style type="text/css">
	.st0{fill:url(#g);}
	.st1{fill:url(#f);}
	.st2{fill:url(#e);}
	.st3{fill:url(#d);}
	.st4{fill:url(#c);}
	.st5{fill:none;stroke:#F18452;stroke-miterlimit:10;}
	.st6{fill:none;stroke:#00FFC1;stroke-miterlimit:10;}
	.st7{fill:url(#b);}
	.st8{fill:none;}
	.st9{fill:#444444;}
	.st10{fill:url(#a);}
	.st11{fill:none;stroke:#778C89;stroke-width:0.5;stroke-linecap:round;stroke-linejoin:round;stroke-miterlimit:10;}
	.st12{fill:#EEF2FC;}
	.st13{fill:#7AC2CE;}
	.st14{fill:#262626;}
	.st15{fill:#333333;}
	.st16{fill:#666666;}
	.st17{fill:#FBC600;}
</style>
<linearGradient id="g" x1="-433.33" x2="461.85" y1="1449.3" y2="1449.3" gradientTransform="translate(0 -1380)" gradientUnits="userSpaceOnUse">
	<stop stop-color="#1F0B2D" offset="0"/>
	<stop stop-color="#210D2E" offset=".0077304"/>
	<stop stop-color="#4C3339" offset=".1534"/>
	<stop stop-color="#6B4E42" offset=".2849"/>
	<stop stop-color="#7D5F47" offset=".3965"/>
	<stop stop-color="#846549" offset=".4749"/>
	<stop stop-color="#AB8A5E" offset=".5864"/>
	<stop stop-color="#CBA96F" offset=".6994"/>
	<stop stop-color="#E2BF7B" offset=".8085"/>
	<stop stop-color="#F0CC82" offset=".911"/>
	<stop stop-color="#F5D185" offset="1"/>
</linearGradient>
<path class="st0" d="m-214.3 64.7c-0.4 0.1-0.8 0.2-1.1 0.3 0.2 2.1 0.4 4.2 0.7 6.3 0.1 0.9 0.3 1.7 0.4 2.6v-9.2z"/>
<linearGradient id="f" x1="-1192.7" x2="639.75" y1="1211" y2="1211" gradientTransform="translate(0 -1380)" gradientUnits="userSpaceOnUse">
	<stop stop-color="#1F0B2D" offset="0"/>
	<stop stop-color="#210D2E" offset=".0077304"/>
	<stop stop-color="#4C3339" offset=".1534"/>
	<stop stop-color="#6B4E42" offset=".2849"/>
	<stop stop-color="#7D5F47" offset=".3965"/>
	<stop stop-color="#846549" offset=".4749"/>
	<stop stop-color="#AB8A5E" offset=".5864"/>
	<stop stop-color="#CBA96F" offset=".6994"/>
	<stop stop-color="#E2BF7B" offset=".8085"/>
	<stop stop-color="#F0CC82" offset=".911"/>
	<stop stop-color="#F5D185" offset="1"/>
</linearGradient>
<path class="st1" d="m-744.2-167.9c0.6 1.1 1.1 2.3 1.7 3.4-0.6-3-1.2-6-1.7-9.1v5.7z"/>
<linearGradient id="e" x1="-433.33" x2="461.85" y1="1451" y2="1451" gradientTransform="translate(0 -1380)" gradientUnits="userSpaceOnUse">
	<stop stop-color="#1F0B2D" offset="0"/>
	<stop stop-color="#210D2E" offset=".0077304"/>
	<stop stop-color="#4C3339" offset=".1534"/>
	<stop stop-color="#6B4E42" offset=".2849"/>
	<stop stop-color="#7D5F47" offset=".3965"/>
	<stop stop-color="#846549" offset=".4749"/>
	<stop stop-color="#AB8A5E" offset=".5864"/>
	<stop stop-color="#CBA96F" offset=".6994"/>
	<stop stop-color="#E2BF7B" offset=".8085"/>
	<stop stop-color="#F0CC82" offset=".911"/>
	<stop stop-color="#F5D185" offset="1"/>
</linearGradient>
<path class="st2" d="m-214.3 74.1c-0.2-1.4-0.5-2.7-0.7-4.1-0.2-1.7-0.4-3.4-0.5-5-1.3 0.3-2.5 0.5-3.8 0.7 0.9 2.4 1.9 4.8 3 7.2 0.6 1.4 1.3 2.8 2 4.2v-3z"/>
<linearGradient id="d" x1="-1192.7" x2="639.75" y1="1221" y2="1221" gradientTransform="translate(0 -1380)" gradientUnits="userSpaceOnUse">
	<stop stop-color="#1F0B2D" offset="0"/>
	<stop stop-color="#210D2E" offset=".0077304"/>
	<stop stop-color="#4C3339" offset=".1534"/>
	<stop stop-color="#6B4E42" offset=".2849"/>
	<stop stop-color="#7D5F47" offset=".3965"/>
	<stop stop-color="#846549" offset=".4749"/>
	<stop stop-color="#AB8A5E" offset=".5864"/>
	<stop stop-color="#CBA96F" offset=".6994"/>
	<stop stop-color="#E2BF7B" offset=".8085"/>
	<stop stop-color="#F0CC82" offset=".911"/>
	<stop stop-color="#F5D185" offset="1"/>
</linearGradient>
<path class="st3" d="m-741.7-161.2c0.5 2.3 0.8 4.6 1.2 6.9 1-0.3 2-0.6 3-0.8-1-1.7-1.9-3.3-2.8-5-0.7-1.2-1.3-2.4-1.9-3.7 0.2 0.8 0.3 1.7 0.5 2.6z"/>
<linearGradient id="c" x1="-1192.7" x2="639.75" y1="1219.5" y2="1219.5" gradientTransform="translate(0 -1380)" gradientUnits="userSpaceOnUse">
	<stop stop-color="#1F0B2D" offset="0"/>
	<stop stop-color="#210D2E" offset=".0077304"/>
	<stop stop-color="#4C3339" offset=".1534"/>
	<stop stop-color="#6B4E42" offset=".2849"/>
	<stop stop-color="#7D5F47" offset=".3965"/>
	<stop stop-color="#846549" offset=".4749"/>
	<stop stop-color="#AB8A5E" offset=".5864"/>
	<stop stop-color="#CBA96F" offset=".6994"/>
	<stop stop-color="#E2BF7B" offset=".8085"/>
	<stop stop-color="#F0CC82" offset=".911"/>
	<stop stop-color="#F5D185" offset="1"/>
</linearGradient>
<path class="st4" d="m-744.2-153.3c1.2-0.3 2.4-0.6 3.6-1-0.1-0.5-0.1-1-0.2-1.5-0.4-2.6-0.9-5.2-1.4-7.8 0-0.2-0.1-0.4-0.1-0.6-0.6-1.2-1.2-2.3-1.8-3.5l-0.1 14.4z"/>

	
		<path class="st5" d="m-79.1-26.5"/>
	


	
		<path class="st6" d="m-70.1-1.7"/>
	


	
		<path class="st6" d="m-79.2-7.7"/>
	


	
		<path class="st5" d="m-63.3-26.3"/>
	


	
		<path class="st5" d="m-46.1-15.8"/>
	


	
		<path class="st5" d="m-48.3-26.5"/>
	

<linearGradient id="b" x1="24.8" x2="92.9" y1="55.13" y2="55.13" gradientTransform="matrix(1 0 0 -1 0 102)" gradientUnits="userSpaceOnUse">
	<stop stop-color="#333" offset="0"/>
	<stop stop-color="#282727" offset=".999"/>
</linearGradient>
<path class="st7" d="m81.7 43.3c-0.5-0.2-1.1-0.3-1.6-0.5-0.2-0.1-7.3 2.5-7.4 2.5-0.3 0-3.3-0.3-3.3-0.4-0.1-0.1 0-0.4 0-0.6 1-2.1 8-18.6 8-18.6l-1.9 0.8c0 1.6-8.7 20.6-12 24.8-3.6 4.7-6.9 6.9-9.7 8-2.9 1-7.4 2.4-14.3 2.9-5.9 0.4-10 3.6-14.7 4.7 0 0 10 2.1 14.3 0.6 4-1.3 8-2 15.4-3.9 4.1-1 9.6-7.7 12.8-13.8 0.9-1.3 14.6-6.3 14.8-6.3-0.1-0.1-0.2-0.2-0.4-0.2z"/>

	<path class="st8" d="m36.8 62.1"/>

<path class="st9" d="m37.5 49.4c-0.2 2.4-1.4 10.6-5.8 13.1-0.1-0.6-0.6-2-0.6-3 0.1-3.3 0.9-6.7 1.3-7.7 2.1-4.7 4.4-1.8 5.1-2.4z"/>
<path class="st9" d="m43.7 50.2c-1.4 1.7-8.8 7.1-7.6 12 5.3-0.9 8.8-5.7 9.4-6.7 2-4.5-1.7-4.4-1.8-5.3z"/>
<linearGradient id="a" x1="39.604" x2="36.031" y1="1431.3" y2="1440.1" gradientTransform="translate(0 -1380)" gradientUnits="userSpaceOnUse">
	<stop stop-color="#333" offset="0"/>
	<stop stop-color="#282727" offset=".999"/>
</linearGradient>
<path class="st10" d="m44.7 48.1c-0.1 0.7-0.3 2.6-0.3 2.6 0.3 0.9 0.1 2.9-0.7 4.3-4.6 7.6-6.9 8.4-10.6 8.4-4.7 0 3.1-5.6 3.3-14.7 0.1-12.3 8.6-10.1 8.6-10.1 0.4 0 0.7 0.4 1 0.7 1.3 1 1.7 3.7 1.7 4.7 0.3 0.4-2.9 3.4-3 4.1z"/>

	<path class="st11" d="m39.1 65.2c0-0.7-0.3-1.1-0.6-1.6-0.6-0.7-1.1-1-1.6-1.1h-0.1-0.1"/>
	<path class="st11" d="m36.7 62.2c0.1 0 0.1 0 0 0 0.1 0 0.1 0 0.3 0.1 0.6 0.1 1.9 0.6 2.1 0.7 0.1 0 0.3 0.1 0.3 0.3l0.3 0.9"/>
	<path class="st11" d="m38.4 64.8s-0.7-1.9-1.6-2.6"/>


	<path class="st11" d="m30.4 65.2s-0.3-1 0-1.1c0.3-0.3 1.7-1.9 1.7-1.9s-1.7 1.5-0.8 3.6"/>
	<path class="st11" d="m31.8 65.1s-0.4-2 0.3-2.9"/>

<path class="st12" d="m45.3 48.1c0 0.4-6.4 4.8-7 2.7v-0.1c-0.9-2.9 2.1-4.6 2.7-8.1 0.4-3.6 3.1-4.1 5.3-4.1 1.1 0.8 1.7 3.6 1.7 4.7 0.1 1.1-2.6 4.5-2.7 4.9z"/>
<path class="st13" d="m43.1 39.8c1.7 0 1.7 2.6 0 2.6s-1.7-2.6 0-2.6z"/>

	<path class="st14" d="m44 41.1c0.1 0.3 0.1 0.6-0.1 0.9-0.3 0.6-1.4 0.5-1.8 0-0.2-0.3-0.3-0.6-0.1-0.9 0.6 0.9 1.5 0.7 2 0z"/>

<path class="st15" d="m59.8 45.1c-2.2-1.7-13-0.6-13.6-0.4h-0.3s-0.5-1.2-0.2-1.5c0.2-0.2 0.3-0.7 0.5-0.8v-0.2-0.2c-0.4-0.9-0.6-2.1-0.5-2.8 0.2 0 0.5-0.1 0.7-0.1 6.9-0.8 10.3 1 12.1 3 0.8 1.4 1.2 2.6 1.3 3z"/>
<path class="st16" d="m59.8 45c-0.5-0.8-7.7-5.8-14.5-3.4v-0.1c-0.5-0.9-0.5-2.2-0.5-2.8 0.2 0 0.5-0.1 0.8-0.1 7.2-0.9 10.9 1.1 12.7 3.3 1 1.3 1.4 2.7 1.5 3.1z"/>
<path class="st17" d="m47.6 44.5c-1.9 2.7-1.7 2.8-2.2 5.5-0.3 1.5-1.4 2.7-2.8 3.1-1.7 0.4-3.7 0-4.4-2v-0.1c-0.1-0.8-0.1-1.2-0.1-2 1.1-0.8 2.1-1.9 3.7-1.6 2 0.1 3.3-1.2 4.2-2.6 0.7-0.4 1-0.2 1.6-0.3z"/>
<path class="st13" d="m48 44.5c-1.4 0.4-2.3 0.9-3.2 0.8 0 0-0.5-1.6-0.2-1.9 0.2-0.3 0.3-0.8 0.4-1 0-0.1-0.4-2.2-0.4-2.9v-0.9c0.2 0 0.4-0.1 0.7-0.1h0.1c1.2 1.9 1.1 3.2 1.1 3.4 0.2 0.9 0.8 1.9 1.5 2.6z"/>
</svg>
