<?xml version="1.0" encoding="utf-8"?>
<!-- Generator: Adobe Illustrator 24.1.0, SVG Export Plug-In . SVG Version: 6.00 Build 0)  -->
<svg version="1.1" id="Layer_1" xmlns="http://www.w3.org/2000/svg" xmlns:xlink="http://www.w3.org/1999/xlink" x="0px" y="0px"
	 viewBox="0 0 100 100" style="enable-background:new 0 0 100 100;" xml:space="preserve">
<style type="text/css">
	.st0{fill:#FFF8E4;}
	.st1{fill:#FFEEC2;}
	.st2{fill:#FFD52A;}
</style>
<g>
	<path class="st0" d="M50,76.2c-14.5,0-26.2-11.7-26.2-26.2c0-14.5,11.7-26.2,26.2-26.2c14.5,0,26.2,11.7,26.2,26.2
		C76.2,64.5,64.5,76.2,50,76.2 M50,16.6c-18.4,0-33.4,14.9-33.4,33.4c0,18.4,14.9,33.4,33.4,33.4c18.4,0,33.4-14.9,33.4-33.4
		C83.4,31.6,68.4,16.6,50,16.6"/>
	<path class="st1" d="M50,71.3c-11.8,0-21.3-9.5-21.3-21.3c0-11.8,9.5-21.3,21.3-21.3c11.8,0,21.3,9.5,21.3,21.3
		C71.3,61.8,61.8,71.3,50,71.3 M50,23.8c-14.5,0-26.2,11.7-26.2,26.2c0,14.5,11.7,26.2,26.2,26.2c14.5,0,26.2-11.7,26.2-26.2
		C76.2,35.5,64.5,23.8,50,23.8"/>
	<path class="st2" d="M50,28.7c-11.8,0-21.3,9.5-21.3,21.3c0,11.8,9.5,21.3,21.3,21.3c11.8,0,21.3-9.5,21.3-21.3
		C71.3,38.2,61.8,28.7,50,28.7"/>
</g>
</svg>
