<?xml version="1.0" encoding="UTF-8"?>
<svg enable-background="new 0 0 100 100" version="1.1" viewBox="0 0 100 100" xml:space="preserve" xmlns="http://www.w3.org/2000/svg">
<style type="text/css">
	.st0{fill:#2292AC;}
	.st1{fill:url(#f);}
	.st2{fill:url(#e);}
	.st3{fill:#1AADBE;}
	.st4{fill:#2CBDCC;}
	.st5{fill:url(#d);}
	.st6{fill:url(#c);}
	.st7{fill:none;stroke:url(#b);stroke-width:0.7572;stroke-linecap:round;stroke-linejoin:round;stroke-miterlimit:10;}
	.st8{fill:none;stroke:url(#a);stroke-width:4.5431;stroke-linecap:round;stroke-linejoin:round;stroke-miterlimit:10;}
</style>

	
		
			
				<path class="st0" d="m52.8 54.3s-10.4 11.8-20.9 10.3c0 0-4.4-2.2-3.8-5.6 0.1-0.5 0-0.9-0.1-1.4-0.3-0.9 0-2.3 0.9-2.9 1.3-0.8 1.3-1.5 1.4-2.4 0-0.7 0.4-2.2 1.6-2.9 1.3-0.7-0.1-2.6 1.9-3s13.2 0.4 14.8 1.2c1.5 0.9 4.2 6.7 4.2 6.7z"/>
				
					<linearGradient id="f" x1="6643.2" x2="6662.7" y1="118.16" y2="118.16" gradientTransform="matrix(-.9993 -.036372 .036372 -.9993 6684 421.76)" gradientUnits="userSpaceOnUse">
					<stop stop-color="#2D0032" offset=".001898"/>
					<stop stop-color="#260232" offset=".9772"/>
					<stop stop-color="#260232" offset=".9982"/>
				</linearGradient>
				<path class="st1" d="m49.7 57.3s-4 10.9-16.9 8.7c-1.4-0.2-2.5-1.4-2.8-2.8-0.1 0.1 12 2.3 19.7-5.9z"/>
				
					
						<linearGradient id="e" x1="6929.5" x2="6949.5" y1="381.5" y2="381.5" gradientTransform="matrix(-.9964 .084538 -.084538 -.9964 6991.4 -166.18)" gradientUnits="userSpaceOnUse">
						<stop stop-color="#2D0032" offset=".001898"/>
						<stop stop-color="#260232" offset=".9772"/>
						<stop stop-color="#260232" offset=".9982"/>
					</linearGradient>
					<path class="st2" d="m34.9 44.3c0.1 0.2 0.4 0.6 0.8 1.1 3.1 3.2 13.5 10.9 16.1 9 0 0 3.1-5.7 2.9-12.5-0.1-4.3-1.5-9.1-5.9-13.3-8.3-7.9-5.9 1.5-8.1 5.1-1.3 2.2-6.4 8.9-5.8 10.6z"/>
					<path class="st3" d="m35.7 45.3c3.1 3.2 13.5 11 16.1 9.1 0 0 2.5-4.6 2.8-10.4 0.1-1.3-0.1-2.6-0.4-3.9-1.1-4-3-8.9-5.3-8.2 0 0-1.4-3-3.2-1.3 0 0-2.5-1.1-1.8 1.9 0 0-2.4-0.7-1.7 2 0 0-2.1 0.4-1.2 2.2 0 0-1.8 0.4-1.4 2.7 0 0-2.5 0.8-1.8 3.2-0.2 0-3.4 1.1-2.1 2.7z"/>
					
						<path class="st4" d="m43.9 32.5c1.3 0.5 2.5 1.3 3.7 2.1s2.3 1.7 3.3 2.7 1.9 2.1 2.6 3.4 1.1 2.7 1.1 4.1c-0.3-1.4-0.9-2.6-1.7-3.8-0.7-1.1-1.7-2.2-2.6-3.1-1-1-2-1.9-3.1-2.8s-2.2-1.7-3.3-2.6z"/>
					
					
						<path class="st4" d="m42.2 34.7c1.4 0.6 2.7 1.4 4 2.3s2.5 1.8 3.6 2.9 2.1 2.2 2.9 3.6c0.8 1.3 1.4 2.8 1.4 4.4-0.3-1.5-1.1-2.8-1.9-4-0.9-1.2-1.9-2.3-3-3.4s-2.2-2-3.4-3-2.4-1.9-3.6-2.8z"/>
					
					
						<path class="st4" d="m41.1 36.9c1.4 0.7 2.7 1.6 4 2.6 1.3 0.9 2.5 2 3.6 3.1s2.2 2.4 3 3.8 1.5 2.9 1.5 4.5c-0.1-0.4-0.2-0.8-0.3-1.1-0.1-0.4-0.3-0.7-0.5-1.1-0.1-0.4-0.4-0.7-0.6-1s-0.4-0.7-0.6-1c-0.9-1.3-1.9-2.5-3-3.6s-2.2-2.2-3.4-3.2c-1.3-1-2.5-2-3.7-3z"/>
					
					
						<path class="st4" d="m39.9 39.6c1.3 0.8 2.6 1.8 3.8 2.8s2.4 2.1 3.4 3.2c1.1 1.1 2.1 2.3 3 3.6s1.7 2.6 2.2 4.1c-0.8-1.3-1.7-2.6-2.7-3.7-1-1.2-2-2.3-3.1-3.4l-6.6-6.6z"/>
					
					
						<path class="st4" d="m37.7 42.6c1.2 0.8 2.4 1.6 3.6 2.5s2.3 1.8 3.4 2.7c1.1 1 2.2 1.9 3.2 2.9s2.1 2.1 3 3.2c-1.2-0.9-2.3-1.8-3.4-2.7s-2.2-1.9-3.3-2.8c-1.1-1-2.2-1.9-3.3-2.9-1.1-0.9-2.1-1.8-3.2-2.9z"/>
					
					
						<path class="st4" d="m48.9 31.9c1.5 1.5 2.6 3.4 3.5 5.3s1.6 4 1.8 6.1c-0.9-1.9-1.7-3.9-2.6-5.8-0.8-1.8-1.8-3.7-2.7-5.6z"/>
					
				
			
			
				<path class="st0" d="m52 54s-7.4 13.8-2.9 22c0 0 3 2.6 5.6 0.4 0.4-0.3 0.8-0.5 1.2-0.6 0.8-0.2 1.9-1.1 2.2-2.1 0.3-1.4 0.9-1.8 1.6-2.3 0.6-0.4 1.7-1.3 1.9-2.7 0.3-1.4 2.2-1.1 1.9-2.9-0.2-1.8-3.8-10.7-4.9-11.5s-6.6-0.3-6.6-0.3z"/>
				
					<linearGradient id="d" x1="4308.7" x2="4325.9" y1="-1275" y2="-1275" gradientTransform="matrix(.4428 .8966 .8966 -.4428 -719.09 -4367.6)" gradientUnits="userSpaceOnUse">
					<stop stop-color="#2D0032" offset=".001898"/>
					<stop stop-color="#260232" offset=".9772"/>
					<stop stop-color="#260232" offset=".9982"/>
				</linearGradient>
				<path class="st5" d="m50.3 57.9s-7.9 8.4-2.6 18c0.6 1.1 1.8 1.4 3 1 0 0-5.1-8.8-0.4-19z"/>
				
					
						<linearGradient id="c" x1="4779.3" x2="4797" y1="-1284.3" y2="-1284.3" gradientTransform="matrix(.3313 .9435 .9435 -.3313 -308.82 -4889)" gradientUnits="userSpaceOnUse">
						<stop stop-color="#2D0032" offset=".001898"/>
						<stop stop-color="#260232" offset=".9772"/>
						<stop stop-color="#260232" offset=".9982"/>
					</linearGradient>
					<path class="st6" d="m64.9 63.9c-0.2 0-0.6 0-1.1-0.2-3.4-1-12.6-5.9-11.7-8.9 0 0 3.8-5.2 9.5-8.2 3.6-1.9 7.9-3 12.4-1.4 8.7 3.1 0.3 5.6-2 9-1.4 2.1-5.5 9.5-7.1 9.7z"/>
					<path class="st3" d="m63.9 63.8c-3.4-1.1-12.6-5.9-11.7-8.9 0 0 3.1-4.2 7.8-7.2 1-0.7 2.2-1.2 3.3-1.5 3.6-1 8.1-1.7 8.1 0.5 0 0 2.9-0.2 1.9 2 0 0 1.6 1.5-1 2.4 0 0 1.2 1.7-1.1 2.4 0 0 0.3 1.9-1.5 2.1 0 0 0.2 1.7-1.8 2.4 0 0 0 2.4-2.1 3-0.2-0.1-0.2 3.1-1.9 2.8z"/>
					
						<path class="st4" d="m72.2 51c-1-0.6-2-1.1-3.1-1.6-1-0.5-2.1-0.9-3.2-1.2s-2.2-0.5-3.3-0.6c-1.1 0-2.2 0.1-3.4 0.4 1-0.6 2.2-0.9 3.4-1 1.2 0 2.4 0.2 3.5 0.5s2.2 0.8 3.2 1.4c1.1 0.7 2 1.3 2.9 2.1z"/>
					
					
						<path class="st4" d="m70.8 53.5c-1.1-0.6-2.2-1.2-3.3-1.7s-2.3-1-3.4-1.4c-1.2-0.4-2.4-0.7-3.6-0.8s-2.4 0-3.7 0.3c1.1-0.6 2.4-0.9 3.7-0.9s2.6 0.3 3.8 0.7 2.4 0.9 3.5 1.6c1.1 0.6 2.1 1.3 3 2.2z"/>
					
					
						<path class="st4" d="m69.3 55.4c-1.2-0.6-2.4-1.1-3.6-1.6s-2.4-1-3.6-1.3c-2.4-0.7-5-1.1-7.6-0.4 1.1-0.7 2.5-0.9 3.8-0.9s2.7 0.3 3.9 0.6c1.3 0.4 2.5 0.9 3.7 1.5 1.3 0.6 2.4 1.2 3.4 2.1z"/>
					
					
						<path class="st4" d="m67.5 57.6c-1.2-0.4-2.4-0.9-3.6-1.3s-2.4-0.8-3.6-1.2-2.4-0.7-3.6-0.9-2.5-0.4-3.7-0.4c1.3-0.3 2.6-0.2 3.8-0.1 1.3 0.1 2.5 0.4 3.8 0.8 1.2 0.4 2.4 0.8 3.6 1.3 1.1 0.6 2.2 1.1 3.3 1.8z"/>
					
					
						<path class="st4" d="m65.5 60.8c-2.2-0.7-4.4-1.7-6.5-2.6s-4.3-1.9-6.4-2.9c2.3 0.5 4.5 1.3 6.7 2.2 2.1 1 4.3 2.1 6.2 3.3z"/>
					
					
						<path class="st4" d="m71.3 46.7c-1.8 0.1-3.6 0.1-5.4 0.3s-3.6 0.4-5.4 0.6c1.7-0.7 3.5-1.1 5.3-1.3 1.9-0.2 3.8-0.1 5.5 0.4z"/>
					
				
			
			
				
					
						<linearGradient id="b" x1="6568.4" x2="6573.5" y1="-100.78" y2="-100.78" gradientTransform="matrix(-.9977 -.067175 .067175 -.9977 6619.1 390.94)" gradientUnits="userSpaceOnUse">
						<stop stop-color="#2D0032" offset=".001898"/>
						<stop stop-color="#260232" offset=".9772"/>
						<stop stop-color="#260232" offset=".9982"/>
					</linearGradient>
					<path class="st7" d="m58.5 47.8c-0.2 0.1-4.8 5.3-4.8 5.3l3.1-6.2"/>
				
				
					<linearGradient id="a" x1="7022.2" x2="7032.5" y1="560.49" y2="560.49" gradientTransform="matrix(-.9902 .14 -.14 -.9902 7088.1 -372.17)" gradientUnits="userSpaceOnUse">
					<stop stop-color="#2D0032" offset=".001898"/>
					<stop stop-color="#260232" offset=".9772"/>
					<stop stop-color="#260232" offset=".9982"/>
				</linearGradient>
				<line class="st8" x1="54" x2="49.1" y1="53.1" y2="60.1"/>
			
		
	

</svg>
