<?xml version="1.0" encoding="UTF-8"?>
<svg enable-background="new 0 0 100 100" version="1.1" viewBox="0 0 100 100" xml:space="preserve" xmlns="http://www.w3.org/2000/svg">
<style type="text/css">
	.st0{opacity:0.55;}
	.st1{fill:none;stroke:#545C56;stroke-width:0.5;stroke-miterlimit:10;}
</style>
<g class="st0">
	<path class="st1" d="m34.8 26.6c1.7 0.4 4.7 0.8 8.2 0 3.8-0.8 6.4-2.5 7.8-3.5 0.4 0.8 2.5 4.3 7 5.7 5.7 1.7 10.2-1.8 10.7-2.1 0.3 1.3 1 4.2 3.4 6.9 2.6 2.9 5.6 4 6.9 4.4-0.6 1.2-2.4 5.3-1.3 10.4 0.9 4.5 3.5 7.2 4.6 8.2-0.9 0.3-4.6 1.5-6.8 5.2-1.7 2.8-1.7 5.5-1.6 6.6-1.5-0.1-3.8 0-6.3 0.9-5.2 1.9-7.7 6.2-8.4 7.5-1.3-0.7-4.3-2.2-8.3-2.2-4.2 0-7.3 1.7-8.5 2.5-0.9-1.2-2.2-2.8-4.2-4.3-4.3-3-8.8-3.1-10.6-3 0.4-1.1 2-5.4 0.2-10.4-2-5.6-6.7-8-7.6-8.4 0.6-0.2 4.9-1.5 6.8-6 2.2-5.2-0.7-9.8-0.9-10.2 2.3 1.5 5.3 1.4 7.4-0.2 2.1-1.8 2.9-5.2 1.5-8z"/>
	<path class="st1" d="m37.8 30.8c1.4 0.3 3.7 1 6.6 0.3 3.1-0.7 5.7-2.2 6.8-3.1 0.4 0.6 1.8 3.7 5.6 4.8 4.7 1.4 8.8-1.5 9.2-1.8 0.2 1.1 0.6 3.4 2.6 5.7 2.2 2.4 4.7 3.3 5.8 3.7-0.5 1-2 4.4-1.1 8.7 0.8 3.7 3 6 3.9 6.8-0.8 0.2-3.8 1.3-5.7 4.4-1.4 2.3-1.4 4.6-1.3 5.5-1.2-0.1-3.1 0-5.2 0.8-4.3 1.6-6.4 5.2-7 6.3-1.1-0.6-3.6-1.8-7-1.8-3.5 0.1-6.1 1.5-7.1 2.1-0.7-1-1.9-2.4-3.5-3.5-3.6-2.5-7.4-2.5-8.9-2.5 0.4-0.9 1.6-4.5 0.1-8.7-1.7-4.7-6-7-6.8-7.4 0.5-0.2 4.4-0.9 6-4.6 1.8-4.3-0.8-8.7-0.9-9 1.9 1.2 4.6 1.6 6.3 0.3 2-1.5 2.8-4.6 1.6-7z"/>
	<path class="st1" d="m42 36.5c1.1 0.3 3.9 0.5 6.3 0.2 2.5-0.4 2.8-1.7 3.7-2.3 0.3 0.5 1 2.9 3.9 3.8 3.7 1.2 7.1-2 7.4-2.2 0.1 0.8 0.4 3.5 1.8 5.3 1.6 1.9 4.1 1.6 4.9 1.9-0.4 0.7-1.4 3.2-0.7 6.6 0.5 2.8 3 4.9 3.6 5.5-0.6 0.1-2.7 1.7-4.3 4-1.2 1.7-1.2 3.3-1.2 4-1-0.1-2.5-0.1-4.1 0.4-3.5 1.1-5.6 3.6-6.1 4.4-0.8-0.5-2.3-1.5-5-1.5-2.8-0.1-4.8 0.9-5.7 1.3-0.5-0.8-1.4-1.8-2.7-2.7-2.7-2-5.4-1.8-6.5-1.8 0.3-0.7 1.1-3.6 0-6.8-1.2-3.5-4.2-4.7-4.8-5 0.4-0.1 3.2-1.3 4.6-4 1.6-3.1-0.6-5.9-0.8-6.1 1.5 1 3.9 0.8 5.3-0.2 1.5-1 1.2-3 0.4-4.8z"/>
	<path class="st1" d="m45.7 41.6c0.7 0.1 2.6 2 4.1 1.5 1.6-0.4 2.2-1.7 2.8-2.1 0.2 0.3 1 2 3 2.4 2.5 0.5 3.9-1.1 4.1-1.2 0.2 0.5-0.3 1.5 0.9 2.6 1.7 1.5 3 1.8 3.4 1.9-0.2 0.5-1.2 2.1-0.6 4.2 0.5 1.8 1.6 3.1 2 3.5-0.4 0.1-1.8 0.6-2.7 2.2-0.7 1.2-0.6 2.3-0.5 2.8-0.7 0-1.7 0.1-2.7 0.6-2.2 1-3.2 2.8-3.5 3.4-0.6-0.3-1.9-0.8-3.7-0.7-1.9 0.1-3.4 0.9-3.9 1.3-0.4-0.5-0.8-1.1-1.7-1.7-2-1.1-4.3-1.8-5-1.7 0.2-0.5 1-1.6 0.1-3.6-1-2.3-3-4.8-3.4-5 0.3-0.1 1 0.1 2.7-1 2.8-1.8 1.2-5.8 0.5-6.1 1.1 0.6 3 1.1 3.9 0.4 0.8-1 0.9-2.5 0.2-3.7z"/>
	<path class="st1" d="m49.2 46.5c0.4 0.1 1.4 0.5 2.1 0.4 0.8-0.2 1.3-0.9 1.6-1.1 0.1 0.2 0.7 1.2 1.7 1.5 1.2 0.3 2.2-0.3 2.3-0.3 0.1 0.3-0.3 1.5 0.2 2.1 0.6 0.6 1.2 0.7 1.5 0.8-0.1 0.3-1 1-0.8 2.1 0.2 0.9 1.2 1.4 1.4 1.6-0.2 0.1-1.5-0.3-2 0.4-0.4 0.6 0 1.4 0 1.6-0.3 0-0.5-0.3-1.1-0.1-1.1 0.4-1.3 1.9-1.5 2.2-0.2-0.4-0.9-1.7-2.2-1.1-0.8 0.4-1 0.9-1.2 1.1-0.2-0.3-0.3-1.1-0.7-1.4-0.9-0.6-2.6 0.4-3 0.4 0.1-0.2 0.3-2.2-0.1-3.2-0.4-1.2-1.4-1.6-1.6-1.7 0.1 0 1.1-0.3 1.5-1.2 0.5-1.1-0.4-2-0.4-2.1 0.5 0.3 1.4 0.3 1.8 0 0.6-0.6 0.8-1.4 0.5-2z"/>
	<line class="st1" x1="27.2" x2="53.7" y1="69.8" y2="52.7"/>
	<line class="st1" x1="42" x2="53.7" y1="77.1" y2="52.7"/>
	<line class="st1" x1="58.9" x2="53.7" y1="76.8" y2="52.7"/>
	<line class="st1" x1="73.6" x2="53.7" y1="68.4" y2="52.7"/>
	<line class="st1" x1="82.1" x2="53.7" y1="56.5" y2="52.7"/>
	<line class="st1" x1="78.8" x2="53.7" y1="37.9" y2="52.7"/>
	<line class="st1" x1="68.5" x2="53.7" y1="26.6" y2="52.7"/>
	<line class="st1" x1="50.8" x2="53.7" y1="23.1" y2="52.7"/>
	<line class="st1" x1="34.8" x2="53.7" y1="26.6" y2="52.7"/>
	<line class="st1" x1="25.7" x2="53.8" y1="34.8" y2="52.7"/>
	<line class="st1" x1="19.8" x2="53.7" y1="51" y2="52.7"/>
</g>

	
		<ellipse transform="matrix(.3809 -.9246 .9246 .3809 -18.636 80.448)" cx="50.8" cy="54.1" rx="5.3" ry="3.8"/>
		<path d="m47.2 52.7c-0.4 1.1-0.6 2.3-0.4 3.5s0.9 2.3 2 2.7 2.3 0 3.2-0.6c0.9-0.7 1.6-1.7 2.1-2.7 0.4-1.1 0.6-2.3 0.5-3.4-0.2-1.1-0.8-2.2-1.8-2.7-1.1-0.5-2.4-0.2-3.3 0.5-1.1 0.6-1.8 1.6-2.3 2.7zm0 0c0.5-1.1 1.2-2.1 2.1-2.8s2.3-1.1 3.5-0.7c1.2 0.5 1.9 1.7 2.2 2.9 0.2 1.2 0 2.5-0.4 3.7-0.5 1.1-1.2 2.2-2.3 2.9-1 0.7-2.4 1-3.6 0.5s-1.8-1.7-2-2.9c-0.2-1.3 0-2.5 0.5-3.6z"/>
	
	
		<ellipse transform="matrix(.3809 -.9246 .9246 .3809 -12.698 79.654)" cx="53.1" cy="49.3" rx="2.1" ry="3.2"/>
		<path d="m56.1 50.5c-0.3 0.7-1 1-1.7 1.1s-1.4 0-2.1-0.2c-0.7-0.3-1.3-0.6-1.8-1.2s-0.8-1.4-0.5-2.2 1.2-1.1 1.9-1.2 1.5 0.1 2.1 0.4 1.2 0.7 1.7 1.3c0.4 0.6 0.6 1.4 0.4 2zm0 0c0.3-0.7 0-1.4-0.5-1.9s-1.1-0.9-1.7-1.1-1.3-0.3-2-0.2c-0.6 0.1-1.3 0.4-1.5 0.9s0 1.2 0.4 1.7 1 0.9 1.6 1.2 1.3 0.5 2 0.4c0.6 0 1.4-0.3 1.7-1z"/>
	
	
		<ellipse transform="matrix(.3809 -.9246 .9246 .3809 -9.1185 78.931)" cx="54.4" cy="46.3" rx="1.7" ry="2.1"/>
		<path d="m56.4 47.1c-0.4 1-1.7 1.3-2.7 0.9-0.5-0.2-1-0.5-1.3-1s-0.4-1.1-0.2-1.7 0.8-0.9 1.3-1c0.6-0.1 1.1 0 1.6 0.2 0.9 0.5 1.6 1.6 1.3 2.6zm0 0c0.2-0.5 0.1-1-0.2-1.4s-0.7-0.7-1.2-0.9c-0.9-0.3-2 0-2.4 0.8-0.3 0.8 0.3 1.8 1.1 2.2 0.4 0.2 0.9 0.3 1.4 0.2 0.6-0.1 1.1-0.4 1.3-0.9z"/>
	
	
		
			<path d="m54.4 49.3c2.1-0.9 4.3-1.7 6.4-2.4 2.2-0.7 4.4-1.4 6.6-2-2.1 0.9-4.3 1.7-6.4 2.4-2.1 0.8-4.3 1.5-6.6 2z"/>
		
		
			<path d="m53.9 49.8c1.4-0.2 2.9-0.3 4.3-0.3s2.9 0 4.3 0.2c-1.4 0.2-2.9 0.3-4.3 0.3s-2.8 0-4.3-0.2z"/>
		
		
			<path d="m52.7 50.9c1.4 0.2 2.8 0.6 4.2 1.1 1.4 0.4 2.7 0.9 4 1.5-1.4-0.2-2.8-0.6-4.2-1.1-1.3-0.4-2.7-0.9-4-1.5z"/>
		
		
			<path d="m52.7 51.7c1.7 1.6 3.4 3.3 5 5s3.1 3.5 4.6 5.4c-1.7-1.6-3.4-3.3-5-5-1.6-1.8-3.1-3.5-4.6-5.4z"/>
		
	
	
		
			<path d="m50.8 49c-0.8-1.8-1.4-3.7-2-5.5-0.6-1.9-1.1-3.8-1.5-5.7 0.8 1.8 1.4 3.7 2 5.5 0.6 1.9 1.1 3.8 1.5 5.7z"/>
		
		
			<path d="m50.8 49.7c-0.8-0.8-1.5-1.6-2.2-2.5s-1.3-1.8-1.8-2.8c0.8 0.8 1.5 1.6 2.2 2.5 0.6 0.9 1.3 1.8 1.8 2.8z"/>
		
		
			<path d="m50.7 51.3c-1-0.3-2-0.8-2.9-1.3s-1.8-1.1-2.6-1.7c1 0.3 2 0.8 2.9 1.3s1.8 1 2.6 1.7z"/>
		
		
			<path d="m50.2 51.9c-1.8 0.5-3.6 0.9-5.4 1.2s-3.7 0.6-5.5 0.8c1.8-0.5 3.6-0.9 5.4-1.2 1.8-0.4 3.7-0.7 5.5-0.8z"/>
		
	

</svg>
