<?xml version="1.0" encoding="UTF-8"?>
<svg enable-background="new 0 0 100 100" version="1.1" viewBox="0 0 100 100" xml:space="preserve" xmlns="http://www.w3.org/2000/svg">
<style type="text/css">
	.st0{fill:#EE9B93;stroke:#EE9B93;stroke-linecap:round;stroke-miterlimit:10;}
	.st1{fill:none;stroke:#EE9B93;stroke-linecap:round;stroke-miterlimit:10;}
	.st2{fill:#EE9B93;stroke:#EE9B93;stroke-miterlimit:10;}
	.st3{fill:#EE9788;}
	.st4{fill:#5B3E3A;}
	.st5{fill:#513634;}
	.st6{fill:none;stroke:#E77F56;stroke-width:0.3;stroke-linecap:round;stroke-linejoin:round;stroke-miterlimit:10;}
	.st7{fill:#E7B256;}
	.st8{fill:#EE9B93;}
	.st9{fill:#753B38;}
	.st10{fill:none;stroke:#EE9B93;stroke-width:0.4;stroke-linecap:round;stroke-linejoin:round;stroke-miterlimit:10;}
	.st11{fill:none;stroke:#A86156;stroke-width:0.5;stroke-linecap:round;stroke-linejoin:round;stroke-miterlimit:10;}
	.st12{fill:none;stroke:#753B38;stroke-width:0.5;stroke-linecap:round;stroke-linejoin:round;stroke-miterlimit:10;}
	.st13{fill:none;stroke:#513634;stroke-width:3.8957;stroke-linecap:round;stroke-linejoin:round;stroke-miterlimit:10;}
	.st14{fill:none;stroke:#CCCCCC;stroke-width:0.5;stroke-miterlimit:10;}
</style>

	
		
			
				<path class="st0" d="m61.6 35.4c0.3-0.5 0.5-1.2 0.6-1.5"/>
				<path class="st0" d="m61.4 34.5c0.4-0.6 0.5-0.8 0.6-1.3"/>
				<path class="st0" d="m60.8 34.4c0.5-0.5 0.8-1.1 0.8-1.5"/>
			
		
	


	
		
			
				
					
						<path class="st0" d="m59.2 35c0.2-0.2 0.5-0.3 0.8-0.4 0.5-0.1 0.8-0.7 1.5-0.4s0.9 0.6 0.2 1.6c-0.6 0.8-1.5 1.5-2.3 1.1s-0.7-1.4-0.2-1.9z"/>
						
							<line class="st1" x1="59.8" x2="59.2" y1="33.9" y2="35.5"/>
						
						<path class="st0" d="m60 34.9c0.4-0.5 1-1.5 1.1-1.9"/>
					
				
			
		
	


	<path class="st2" d="m61.4 34.3c0.2-0.3 0.5-1.3 0.5-1.3"/>
	<path class="st2" d="m60.9 34.2c0.2-0.4 0.3-0.8 0.5-1.3"/>

<path class="st3" d="m56.1 78-0.3 4.5s-2.5-0.2-2.5-0.4v-5.6l2.8 1.5z"/>
<path class="st4" d="m42.3 85.7c0.1 0 0.8 0.1 1.7 0.1 2.5 0 6.9-0.1 6.9-0.1s0.2-1.6-2.4-1.3h-0.1l-2.4-1.9 0.2-2h-3.5s0.2 2.8 0 3.2c-0.3 0.3-0.6 1.8-0.4 2z"/>
<path class="st5" d="m42.4 86h8.2c0.2 0 0.2-0.1 0.2-0.2v-0.3h-8.6v0.3c-0.1 0.2 0 0.2 0.2 0.2z"/>
<path class="st6" d="m46.9 83.2"/>
<path class="st6" d="m47.3 83.6"/>
<path class="st4" d="m52.7 85.7c0.1 0 0.8 0.1 1.7 0.1 2.5 0 6.9-0.1 6.9-0.1s0.2-1.6-2.4-1.3h-0.1l-2.4-1.9 0.2-2h-3.6s0.2 2.8 0 3.2c-0.2 0.3-0.5 1.8-0.3 2z"/>
<path class="st5" d="m52.8 86h8.2c0.2 0 0.2-0.1 0.2-0.2v-0.3h-8.6v0.3c0 0.2 0.1 0.2 0.2 0.2z"/>
<path class="st6" d="m56 83.2"/>
<path class="st6" d="m57.2 83.2"/>

	<path class="st4" d="m44.2 59.3c0.2 0.5 8.6 9.4 8.6 9.4v0.2c0 0.1-0.3 8.6-0.1 10.4 0.1 0.5 0.7 2.8 0.7 2.8 0.1 0.2 2.9 0 2.9 0s0.5-2.2 0.6-2.9c0.3-3.1 1.1-11.1 1-11.6-0.2-0.5-2.8-6.1-4.3-9.4-0.5-1.2-1-2.1-1.1-2.3 0 0-3 1.1-5.4 2.1-0.2 0.1-0.5 0.2-0.7 0.3 0 0-0.1 0-0.1 0.1-0.1 0-0.1 0.1-0.2 0.1s-0.1 0.1-0.2 0.1c-0.2 0.1-0.3 0.2-0.4 0.2 0 0-0.1 0-0.1 0.1h-0.2c-0.2 0.2-0.5 0.2-0.7 0.3h-0.1s-0.1 0.1-0.2 0.1h-0.2c-0.1 0.1-0.2 0.1-0.2 0.2l0.4-0.2z"/>

<path class="st4" d="m51.4 56.3-5 24.6-0.5 2.1s-2.4 1.4-2.8 0.2c0 0-0.5-2.1-0.5-2.4 0-1.5 0-6.2 0.2-9.6 0.3-4-0.4-16.7-0.4-16.7l9 1.8z"/>
<path class="st7" d="m49 34.3s2.4 4.5 2.6 5.1 1.3 16.8 1.3 16.8-7.7 2.2-11.6-0.1c0 0-0.1-13.2 0.3-16s2.6-7.6 3.1-8c0.6-0.2 4.3 2.2 4.3 2.2z"/>
<circle class="st4" cx="47.6" cy="36.3" r="2.4"/>
<polygon class="st8" points="46.1 38.2 46.7 38.6 52.4 42.5 54.6 43.9 56.9 41.5 54.1 39.1 49.3 35 48.8 34.5"/>
<path class="st4" d="m51.6 42.2c0.8-0.8 1.6-2.3 2-3.8l-4.8-4.1-2.7 3.9 5.5 4z"/>

	<ellipse class="st8" cx="55.5" cy="42.8" rx="1.5" ry="1.5"/>
	<polygon class="st8" points="60.5 37.2 58.9 36.3 54.2 42 56.8 43.6"/>


	<path class="st8" d="m48.5 33.5v-0.3l0.2-1.8-0.5-1.1-1.1-2.4-1.8 2.6-0.6 2.5c0.1 0.3 3.8 0.5 3.8 0.5z"/>

<polygon class="st4" points="48.5 33.4 45 31.3 44 32.9 48.8 34.3"/>
<path class="st9" d="m49.8 26.3s1.4-1.4 0.5-2.4-2.4-0.2-3.1-0.2c-0.8 0-4-0.2-4.4 1-0.5 1.1-0.7 2.4-0.4 3.4s1.8 3.1 1.9 3.6 0.4 0.5 0.7 0.4c0.3-0.2 1.2-2.8 1.3-2.9-0.1-0.2 3.5-2.9 3.5-2.9z"/>
<path class="st8" d="m51.2 32.3c0.7-0.7-0.6-3.4-0.6-3.4 0.4-0.2 0.5-0.4 0.5-0.6 0-0.1 0-0.2-0.1-0.3-0.3-0.2-0.9-1-0.9-1 0-0.3-0.3-1.2-0.5-1.8-0.2-0.4-0.2-0.6-0.2-0.6l-2.4 0.2s0.4 2.9 0.2 3.1c-0.6 1.3 3.3 5.1 4 4.4z"/>
<path class="st9" d="m48.8 27.1-0.2-0.2s0.6-0.8 0.7-0.7 0.2 0.4 0.2 0.4l-0.7 0.5z"/>

	<ellipse class="st9" transform="matrix(.9881 -.1539 .1539 .9881 -3.6106 7.9587)" cx="49.6" cy="27.3" rx=".2" ry=".3"/>

<path class="st9" d="m50.3 32.9c2.3-0.5 0.6-3.4 0.5-3.4-0.2-0.1-0.8-0.1-1.3 0.5"/>
<path class="st10" d="m50.5 30s0.1 0.1 0.2 0"/>
<path class="st9" d="m49.6 29.9s-0.5 0.4-1.5-0.5c-0.2-0.2-0.7-1.5-0.6-1.8 0.1-0.2 0.5-0.2 0.3-1-0.1-0.5-0.3-1.2-0.1-1.3s1.4-0.6 1.9-0.2c0.5 0.5 0.3-0.2 0.4-0.2 0.1-0.1-0.5-0.9-0.5-0.9l-3.3 0.5 0.5 3.6s1.1 3.2 1.5 3.8 1 1.5 2.2 1"/>
<path class="st11" d="m46.4 27.9c0.1 0 0.6 0.4 0.4 0.5-0.2 0.2 0.2 0.5 0.2 0.5"/>
<path class="st12" d="m41.2 53.9"/>
<path class="st12" d="m52.7 55.6"/>
<path class="st13" d="m45.6 59.3"/>
<line class="st14" x1="29.8" x2="71.4" y1="86.2" y2="86.2"/>
<path class="st8" d="m49.6 25.2"/>
</svg>
