<?xml version="1.0" encoding="UTF-8"?>
<svg enable-background="new 0 0 100 100" version="1.1" viewBox="0 0 100 100" xml:space="preserve" xmlns="http://www.w3.org/2000/svg">
<style type="text/css">
	.st0{fill:#A56156;}
	.st1{fill:#EBEBEB;}
	.st2{fill:#96554E;}
	.st3{fill:#827F43;}
	.st4{fill:#542424;}
	.st5{fill:#7C7C7C;}
	.st6{fill:#93514A;}
	.st7{opacity:0.6;fill:#9D5C4F;enable-background:new    ;}
	.st8{fill:#5E2C2C;}
	.st9{opacity:0.2;fill:#A56156;enable-background:new    ;}
	.st10{fill:#8E4646;}
	.st11{fill:#843D38;}
	.st12{fill:none;stroke:#96554E;stroke-width:0.3;stroke-linecap:round;stroke-linejoin:round;stroke-miterlimit:10;}
	.st13{fill:none;stroke:#753B38;stroke-width:0.1;stroke-linecap:round;stroke-linejoin:round;stroke-miterlimit:10;}
	.st14{fill:#E58185;}
	.st15{fill:#49291E;}
	.st16{fill:#491E1E;}
	.st17{fill:#755E5B;}
	.st18{fill:#1F243F;}
	.st19{fill:#72713D;}
	.st20{fill:none;stroke:#513634;stroke-width:0.2;stroke-linecap:round;stroke-linejoin:round;stroke-miterlimit:10;}
	.st21{fill:none;stroke:#513634;stroke-width:0.2;stroke-linecap:round;stroke-miterlimit:10;}
</style>
<path class="st0" d="m47.4 53.7c-0.2-0.5 0.1-0.8-0.2-0.5-0.2 0.2-0.2 1.2-0.2 1.4s-0.3 0.2-0.3 0.1c-0.5 0.1-0.5-0.2-0.5-0.2s-0.4-0.1-0.3-0.3c-0.2-0.1-0.4-0.3-0.2-0.8 0.1-0.5 0.6-1.8 0.6-1.8l1.3 0.2c0.1 0.7 0.3 1.5 0.3 1.7-0.1 0.4-0.5 0.5-0.5 0.2z"/>
<path class="st1" d="m52.3 76.2c22.8 0.2 22.8 6.5 0 6.7-22.8-0.2-22.8-6.5 0-6.7z"/>
<path class="st0" d="m66.5 22.1c0.1 0.6-0.1 0.9 0.2 0.6s0.4-1.4 0.4-1.7 0.4-0.3 0.4-0.1c0.4-0.1 0.4 0.3 0.4 0.3s0.4 0.1 0.3 0.4c0.3 0.2 0.4 0.4 0.2 1-0.1 0.6-0.8 2-0.8 2l-1.6-0.2c0-0.9-0.1-1.8-0.2-2 0.2-0.5 0.7-0.6 0.7-0.3z"/>

	<path class="st2" d="m67.3 22.3c0.3-0.7 0.3-1.4 0.3-1.4h-0.1s0 0.7-0.4 1.6h0.1c0.1 0 0.1-0.1 0.1-0.2z"/>


	<path class="st2" d="m67.6 22.3c0.3-0.6 0.3-1.1 0.3-1.1h-0.1s0 0.6-0.4 1.5c0.1-0.1 0.2-0.2 0.2-0.4z"/>


	<path class="st2" d="m68 22.6c0.2-0.4 0.2-0.9 0.2-0.9h-0.1s-0.1 0.6-0.4 1.1c0.2 0 0.2-0.1 0.3-0.2z"/>

<path class="st3" d="m65.3 29.7c0.7-0.2 1.1 1.8-0.4 3.1-1.6 1.5-6.3 3.2-7.2 3.6-0.6 0.3-2.7-3.2-1.2-3.4 2.3-0.4 8-3.2 8.8-3.3z"/>
<path class="st4" d="m57 26.2c-0.4 0.4-0.4 0.4-0.2 0.6s0.2 0.5-0.2 0.7c-0.4 0.3-0.4 0.4-0.4 0.5 0 0.4-0.6 0.6-1.1 0.4-0.5-0.3-0.3-0.4-0.5-0.4-0.3 0.1-0.5-0.6-0.5-0.6l-2 0.4c0 0.4-0.1 0.5-0.3 0.6-0.3 0.2-0.2 0.2-0.4 0.4-0.3 0.2-0.6 0.2-0.9-0.4-0.3-0.5-0.6-0.6-0.8-0.6-0.3-0.2-0.6-0.6-0.5-0.9s-0.3-0.3-0.3-0.6c0-0.2-0.1-0.4-0.2-0.6-0.2-0.5 0.6-0.6 0.2-1.3-0.3-0.4-0.4-0.7 0.1-1.1s0.2-0.7 0.4-1.1c0.1-0.1 0.2-0.2 0.3-0.2 0.2 0 0.3 0.1 0.4 0 0.3 0 0.4-0.1 0.6-0.6 0.3-0.5 0.6-0.9 1.1-0.7 0.6 0.2 0.6 0.4 0.8 0.2 0.4-0.4 0.9-0.2 1.3 0s0.6 0.7 1.1 0.9c0.6 0.2 0.8 0.2 0.9 0.6 0 0.2 0.1 0.4 0.2 0.5 0.1 0.3 0.3 0.4 0.4 0.6 0.3 0.2 0.4 0.5 0.2 1s0.2 0.5 0.3 0.6c0.1 0.5 0.4 0.7 0 1.1z"/>

	<path class="st5" d="m54.1 30.4c-0.4 0.3-1.1 0.6-1.1 0.6s-0.5-0.2-0.8-0.3c0-0.6-0.1-1.1-0.1-1.1s2-1 1.9-0.4c0 0.5 0.1 0.8 0.1 1.2z"/>


	<polygon class="st0" points="54.2 31.8 52.3 32.9 52.2 30.6 52.2 29.8 54.2 29.7 54.2 30.3"/>
	<path class="st6" d="m54.2 30.3-0.3 0.2c-0.6 0.6-1.1 0.6-1.9 0.2v-0.8l2-0.1 0.2 0.5z"/>
	
		<path class="st7" d="m52.1 22.3c-0.1 0 0 0 0 0z"/>
	

<path class="st0" d="m56 25.8c0 2.2-1.3 4.6-3 4.6-3.5-0.2-4.4-8.2 0-8 1.6-0.1 3 1.2 3 3.4z"/>

	<path class="st8" d="m53.9 26.6c0.1-0.5 0.7-0.4 0.6 0.1s-0.7 0.4-0.6-0.1z"/>

<path class="st9" d="m53.4 26.6c0 0.4 0.6 0.8 1 0.8 0.9 0 1.1-1.4 0.1-1.4-0.5-0.1-1.1 0.1-1.1 0.6z"/>

	<path class="st8" d="m51.8 26.2c0.4-0.1 0.5 0.7 0.1 0.8-0.3 0.1-0.5-0.7-0.1-0.8z"/>

<path class="st9" d="m52.6 26.6c0 0.4-0.6 0.8-1 0.8-0.9 0-1.1-1.4-0.1-1.4 0.6-0.1 1.1 0.1 1.1 0.6z"/>

	
		<path class="st8" d="m52.2 25.8c-0.2 0-0.6-0.2-0.7-0.2-0.3 0-0.5 0.3-0.5 0.3s-0.1 0.1-0.1 0 0.3-0.5 0.8-0.4c0-0.1 0.6-0.1 0.5 0.3 0.1-0.1 0.1 0 0 0z"/>
	
	
		<path class="st8" d="m53.9 25.8c0.2 0 0.6-0.2 0.7-0.2 0.3 0 0.5 0.3 0.5 0.3s0.1 0.1 0.1 0-0.3-0.5-0.8-0.4c-0.1-0.1-0.7-0.1-0.5 0.3v0z"/>
	

<path class="st10" d="m53.9 28.8c0 0.2-0.4 0.6-0.8 0.6s-0.8-0.4-0.8-0.6 0.4-0.2 0.8-0.2h0.1c0.3 0 0.7-0.1 0.7 0.2z"/>
<path class="st11" d="m53.9 28.7s-0.4 0.2-0.9 0.2-0.9-0.2-0.9-0.2 0.5-0.4 0.6-0.4 0.2 0.2 0.3 0.2c0 0 0.1-0.2 0.3-0.2 0.2-0.1 0.6 0.4 0.6 0.4z"/>
<path class="st12" d="m51.9 33.4c0.5 0.6 2.2 0.6 2.6-0.1"/>
<path class="st13" d="m52.6 27.5c-0.1 0.2 0 0.3 0.3 0.3 0 0 0.2 0.2 0.4 0 0 0 0.2 0 0.3-0.1v-0.1"/>
<path class="st14" d="m53.1 29.3z"/>
<path class="st14" d="m53.1 29.3z"/>
<path class="st15" d="m53.3 79.9c1.4 0 7.5-0.1 7.4-0.1 0 0 0.2-1.4-2.1-1.1l-2.1-1.7 0.1-1.8h-3.1s0.1 2.5 0 2.7c0 0.6-0.3 1.9-0.2 2z"/>
<path class="st16" d="m53.5 80.3h7.1c0.1 0 0.2-0.1 0.2-0.2v-0.3h-7.4v0.3c-0.2 0.1-0.1 0.2 0.1 0.2z"/>
<path class="st4" d="m49.8 78.6h-1.9l0.1-4.2c0-0.2 0.1-0.3 0.2-0.4s0.3-0.2 0.4-0.2h0.8c0.2 0 0.3 0.1 0.4 0.2s0.2 0.3 0.2 0.4l-0.2 4.2z"/>

	<path class="st15" d="m50.6 79.3v0.6c0 0.1-0.1 0.3-0.2 0.3-1 0.1-2.2 0.2-3.2 0-0.1 0-0.2-0.1-0.2-0.3v-0.6c0-0.2-0.1-0.5 0.1-0.7 0.1-0.3 0.2-0.4 0.3-0.6 0.2-0.3 0.4-0.4 0.6-0.6 0.1 0 0.2-0.1 0.3-0.1 0.2-0.1 0.5-0.1 0.6-0.1h0.1c0.2 0 0.5 0.1 0.7 0.3 0.4 0.3 0.9 0.5 0.9 1.1v0.7z"/>

<path class="st17" d="m59.2 53c-0.2 0.6-2.6 0.7-5.2 0.7-1.1 0-2.5-0.1-3.5-0.2-0.9-0.1-1.7-0.2-1.9-0.4-0.1 0-0.1-0.1-0.1-0.1-0.1-0.3-0.2-0.6-0.3-1-0.1-0.9 0-2.2 0.4-3.8v-0.1c0.3-1 1.4-4.2 1.4-4.2s0.1 0 0.3 0.1h0.1c0.3 0.1 0.7 0.1 1.3 0.2 0.7 0.1 1.4 0.1 2.1 0.1 1.1-0.1 2.1-0.3 3.2-0.6 0.1 0 0.1-0.1 0.2-0.1s1.1 2.3 1.7 4.1c0.1 0.2 0.3 5.2 0.3 5.3z"/>
<path class="st17" d="m59.2 51.5c0 3.5-0.9 8.9-1.6 14.3-0.2 1.1-4 2-4.3 0.1-0.4-1.9 0.3-13.1 0.3-14.5 0.2-1.5 5.5-3.7 5.6 0.1z"/>
<path class="st17" d="m53.6 53.9c0 0.3-1.5 8.8-2 13.4-0.1 0.4-0.1 0.7-0.2 1.1-0.2 1-2.2 0-2.9-0.4s-1.2-1.1-1.3-1.8v-0.2c-0.2-1.9 1.2-16.3 1.2-16.3 0.5-0.1 5.2 3.7 5.2 4.2z"/>
<path class="st17" d="m57.8 63.4c0.1 1.2-0.1 4.5-0.4 7.2-0.4 2.8-0.7 6-0.7 6s-2.7 0.7-3.4-0.1c0 0-0.2-9.2-0.1-11.5 0-2.3 4.5-3.9 4.6-1.6z"/>
<path class="st17" d="m51.5 67.3c-0.1 1.1-0.2 2.6-0.4 4.3-0.4 2.7-0.4 5.2-0.4 5.2s-0.4 0.1-0.8 0.2h-0.2c-0.5 0-1.1 0.1-1.4 0-0.2 0-0.5 0.1-0.5-0.1-0.2-0.1-0.4-0.2-0.5-0.3 0 0-0.3-6.8 0-10.5 0.1-0.8 0.1-1.5 0.3-1.9 0.3-0.7 0.7-1.2 1.4-1.3 1.1-0.1 2.2 0.8 2.6 1.7 0.1 0.8-0.2 1.7-0.1 2.7z"/>
<path class="st18" d="m53.4 44.8c0.4 0 0.4 0.5 0 0.5-0.3 0-0.3-0.5 0-0.5z"/>
<path class="st3" d="m65.8 31.4s0.6-1.9 1.1-3.1c0.4-1.2 0.9-3.4 0.9-3.4s-0.8-0.8-1.9-0.5c0 0-2.3 5.2-2.7 5.9s-0.2 1.7 0.6 2c0.8 0.4 1.6-0.3 2-0.9z"/>
<path class="st3" d="m59 47.9-0.3 0.1c-0.6 0.3-2.1 0.9-4.9 1-0.5 0-5.2-0.5-5.2-0.5-0.1-0.1-0.4-0.2-0.4-0.2s1.2-4.9 1.2-5.6c0-0.3-1.5-9.2-1.3-9.3 0.3-0.2 0.7-0.4 1.2-0.6 0.2-0.1 2.8-0.8 2.8-0.8s4.9 0.4 5.4 0.7c0.2 0.1-0.4 1.9 0 3.8 0.3 1.1 0.4 1.9 0.3 2.1-0.3 0.8-0.4 3.6-0.3 4.1 0.2 0.5 1.5 5.2 1.5 5.2z"/>
<path class="st3" d="m49.8 35.7c0 0.3-0.1 0.7-0.1 1.2-0.1 1.1-0.4 2.5-0.6 3.8-0.3 1.3-0.5 2.4-0.5 3.2 0 0.1-0.1 0.2-0.1 0.3-0.4 0.6-1.7 0.3-2.1-0.4-0.2-0.3-0.2-0.5-0.2-0.8 0.2-1.6 0.9-6.6 1.1-7.9 0.3-1.2 0.7-1.6 0.7-1.6l0.1-0.1c-0.1 0 2 0.9 1.7 2.3z"/>
<path class="st3" d="m48.6 43.7v0c-0.1 0.8-0.9 8.2-0.9 8.2h-0.1c-0.1 0.1-0.2 0.1-0.3 0.1-0.4 0.1-0.5 0.1-0.7 0h-0.1c-0.2-0.1-0.3-0.2-0.3-0.2s-0.2-4-0.2-5.3c0-1.1 0.2-3.1 0.3-3.4v-0.1c0.1-0.3 0.2-0.5 0.3-0.6 0.2-0.4 0.5-0.6 1-0.4s0.8 0.6 1 1v0.7z"/>
<path class="st3" d="m50.8 33s-0.6-2.5 0.2-2.6 0.8 0.3 2 0.4c1 0.1 2-1 2.7 0 0.6 1.1-0.4 2-0.7 2.2-0.4 0.3-4.2 0-4.2 0z"/>
<path class="st4" d="m49.9 25.2c0 0.2 1.2-0.5 1.1-1 0 0 0.6 0.1 0.6-0.6 0 0 0.7 0.3 0.9-0.5 0 0 1.1 1.1 1.9 0.5 0 0 0.1 1 0.8 0.7 0 0 0.1 1 0.6 0.7 0 0 0.3 0.8 0.5 0.6 0.3-0.2-0.6-3.1-0.6-3.1l-2.7-0.5-2.4 0.8s-0.7 2.2-0.7 2.4z"/>
<path class="st0" d="m50.5 26.7c0.1 1.4-1.1 0.9-1.4 0.1-0.2-0.5 0.1-0.9 0.4-0.9s1 0.4 1 0.8z"/>
<path class="st0" d="m55.5 26.8c0 1.4 0.9 0.9 1.4 0 0.4-1.3-1.3-1.1-1.4 0z"/>
<path class="st19" d="m49.9 31.8"/>
<polyline class="st20" points="52.7 31.9 53.3 30.9 53.9 49"/>
<path class="st21" d="m59 49.1"/>
<path class="st21" d="m48.3 49.5"/>
</svg>
