<?xml version="1.0" encoding="UTF-8"?>
<svg enable-background="new 0 0 100 100" version="1.1" viewBox="0 0 100 100" xml:space="preserve" xmlns="http://www.w3.org/2000/svg">
<style type="text/css">
	.st0{opacity:0.5;fill:#CCCCCC;enable-background:new    ;}
	.st1{fill:url(#e);}
	.st2{fill:url(#d);}
	.st3{fill:url(#c);}
	.st4{fill:url(#b);}
	.st5{fill:url(#a);}
	.st6{opacity:0.9;}
</style>

	
	
		<ellipse class="st0" cx="50.1" cy="66.4" rx="29.7" ry="4.5"/>
		
			<linearGradient id="e" x1="51.031" x2="49.677" y1="26.399" y2="84.588" gradientTransform="matrix(1 0 0 -1 0 102)" gradientUnits="userSpaceOnUse">
			<stop stop-color="#FDBC03" offset=".2969"/>
			<stop stop-color="#FDC003" offset=".3725"/>
			<stop stop-color="#FDCA03" offset=".4399"/>
			<stop stop-color="#FDDA03" offset=".4966"/>
			<stop stop-color="#FDE11F" offset=".5367"/>
			<stop stop-color="#FEEC4C" offset=".6087"/>
			<stop stop-color="#FEF46F" offset=".6782"/>
			<stop stop-color="#FFFA88" offset=".7433"/>
			<stop stop-color="#FFFE97" offset=".8026"/>
			<stop stop-color="#FFFF9C" offset=".8506"/>
		</linearGradient>
		<path class="st1" d="m45.5 60.2s-11.2 1.5-15.1-7.7c0 0 5.1 4.1 7.5 2 0 0-6.6-3.8-6.9-10.5 0 0 0.7 2.2 3.1 2.7 0 0-2-8 1.7-10.4 0 0-0.8 4.9 2.1 5.6 0 0-1.3-3.9 3-6.3s2.1-8.1 2.1-8.1 5.2 4.5 6.2 10.7c0 0 3.3 1 3.5-3.5s-2.2-10.8-2.9-11.1c0 0 10.6 3.3 9.7 12.3 0 0 1.1 2.4 2.7-0.9 0 0 2.1 4 0 6 0 0 5.7 2.2 6.9-2.9 0 0 0.3 8-1.8 11.2 0 0 2.1 0 3.3-1.2-0.3-0.2-5.1 14.1-25.1 12.1z"/>
		
			<linearGradient id="d" x1="-12.795" x2="5.5709" y1="918.45" y2="918.45" gradientTransform="matrix(.9312 -.3645 -.3645 -.9312 388.03 915.35)" gradientUnits="userSpaceOnUse">
			<stop stop-color="#434444" offset=".083997"/>
			<stop stop-color="#4A4A4A" offset=".5714"/>
			<stop stop-color="#545454" offset="1"/>
		</linearGradient>
		<polygon class="st2" points="59.7 61.4 42.6 68.2 41.1 60.9 57 54.6"/>
		
			<linearGradient id="c" x1="45.116" x2="55.662" y1="43.697" y2="43.697" gradientTransform="matrix(1 0 0 -1 0 102)" gradientUnits="userSpaceOnUse">
			<stop stop-color="#434444" offset=".083997"/>
			<stop stop-color="#4A4A4A" offset=".5714"/>
			<stop stop-color="#545454" offset="1"/>
		</linearGradient>
		<ellipse class="st3" cx="50.4" cy="58.3" rx="5.3" ry="8"/>
		
			<linearGradient id="b" x1="3531.8" x2="3547.4" y1="-1454.3" y2="-1454.3" gradientTransform="matrix(-.6948 -.7192 .7192 -.6948 3556.1 1597.7)" gradientUnits="userSpaceOnUse">
			<stop stop-color="#434444" offset=".083997"/>
			<stop stop-color="#4A4A4A" offset=".5714"/>
			<stop stop-color="#545454" offset="1"/>
		</linearGradient>
		<polygon class="st4" points="43.1 58.9 53.9 70.2 57.6 65.1 47.5 54.6"/>
		
			<linearGradient id="a" x1="50.077" x2="50.538" y1="39.984" y2="56.789" gradientTransform="matrix(1 0 0 -1 0 102)" gradientUnits="userSpaceOnUse">
			<stop stop-color="#FD8003" offset=".3111"/>
			<stop stop-color="#FDBC03" offset=".7428"/>
		</linearGradient>
		<path class="st5" d="m48.9 62.2s-8.4-2.5-6.8-13.1c0 0 1.1 3.1 3.3 2.9 0 0-2.7-8.6 0-11.9 0 0-0.7 5.1 3 6.5 0 0 1.6 0.8 2.1-1 0.8-4 3.4-5.1 3.9-8 0 0 4.5 8.3-2.5 16.8 3.3 0.7 5.8-0.9 7-3.9-0.1-0.1-2.8 12.2-10 11.7z"/>
		
	

</svg>
