<?xml version="1.0" encoding="UTF-8"?>
<svg enable-background="new 0 0 100 100" version="1.1" viewBox="0 0 100 100" xml:space="preserve" xmlns="http://www.w3.org/2000/svg">
<style type="text/css">
	.st0{fill:url(#d);}
	.st1{fill:url(#c);}
	.st2{fill:url(#b);}
	.st3{fill:none;stroke:#FFAF1F;stroke-width:4.4696;stroke-miterlimit:10;}
	.st4{fill:#8059A5;}
	.st5{fill:url(#a);}
	.st6{fill:none;stroke:#A46257;stroke-width:4.1267;stroke-linecap:round;stroke-linejoin:round;stroke-miterlimit:10;}
	.st7{fill:#9C6AFF;}
	.st8{fill:#C0726C;}
	.st9{fill:#693696;}
	.st10{fill:#753B38;}
	.st11{fill:#FFDE1A;}
	.st12{fill:#A46257;}
	.st13{fill:#5E2C2C;}
	.st14{fill:#E58186;}
	.st15{fill:#DE7472;}
	.st16{fill:none;stroke:#A46257;stroke-width:0.2;stroke-linecap:round;stroke-linejoin:round;stroke-miterlimit:10;}
	.st17{fill:none;stroke:#753B38;stroke-width:0.2;stroke-linecap:round;stroke-linejoin:round;stroke-miterlimit:10;}
	.st18{fill:#FFD900;}
	.st19{fill:#FFBC00;}
	.st20{fill:#C0726C;stroke:#C0726C;stroke-width:3;stroke-linecap:round;stroke-miterlimit:10;}
</style>
<linearGradient id="d" x1="-949.05" x2="-62.292" y1="-503.45" y2="-503.45" gradientTransform="matrix(1 0 0 -1 0 -588)" gradientUnits="userSpaceOnUse">
	<stop stop-color="#8765AA" offset=".033802"/>
	<stop stop-color="#A674AA" offset="1"/>
</linearGradient>
<path class="st0" d="m-935.6-84.6c0.6 0.1 1.2 0.1 1.8 0.1h33.9c1.2 0 2.4-0.1 3.6-0.1h-39.3z"/>
<linearGradient id="c" x1="-949.05" x2="-62.292" y1="-503.17" y2="-503.17" gradientTransform="matrix(1 0 0 -1 0 -588)" gradientUnits="userSpaceOnUse">
	<stop stop-color="#8765AA" offset=".033802"/>
	<stop stop-color="#A674AA" offset="1"/>
</linearGradient>
<path class="st1" d="m-836.4-84.7c-17-0.3-34-0.4-51 0h51z"/>
<linearGradient id="b" x1="-949.05" x2="-62.292" y1="-503.45" y2="-503.45" gradientTransform="matrix(1 0 0 -1 0 -588)" gradientUnits="userSpaceOnUse">
	<stop stop-color="#8765AA" offset=".033802"/>
	<stop stop-color="#A674AA" offset="1"/>
</linearGradient>
<path class="st2" d="m-891.2-84.6c-1.4 0-2.9 0.1-4.3 0.1h72c-2.2 0-4.4-0.1-6.6-0.1h-61.1z"/>
<path class="st3" d="m-592-324.3"/>
<path class="st4" d="m-836.5-84.7c-10.1-0.2-20.1-0.3-30.1-0.2v0.2h30.1z"/>
<linearGradient id="a" x1="-871.01" x2="-122.01" y1="-503.18" y2="-503.18" gradientTransform="matrix(1 0 0 -1 0 -588)" gradientUnits="userSpaceOnUse">
	<stop stop-color="#693696" offset=".062271"/>
	<stop stop-color="#6B3897" offset=".4466"/>
	<stop stop-color="#70409A" offset=".6598"/>
	<stop stop-color="#784EA0" offset=".8306"/>
	<stop stop-color="#8562A9" offset=".9789"/>
	<stop stop-color="#8765AA" offset="1"/>
</linearGradient>
<path class="st5" d="m-836.9-84.7c-11.4-0.2-22.8-0.3-34.1-0.2v0.2h34.1z"/>
<path class="st6" d="m60.4 46.1s-0.9 0.1-1.1 0.5c0 0 0.5 0.4 0.2 0.8s-0.5 0.5-0.5 0.5"/>
<path class="st7" d="m78.1 29.7-39.3-8.1c-0.4-0.1-0.8 0.2-0.8 0.4l-12.8 49c-0.1 0.3 0.1 0.6 0.4 0.7 1.6 0.3 3.4 0.6 5 1l4.7 1c3.8 0.5 7.3 1.6 11.1 2.3 1.9 0.4 12.2 2.4 13.8 2.8 0.9 0.3 1.9 0.4 2.9 0.6l0.5 0.1c-0.1 0-0.2 0-0.3-0.1l-5.6-1.2h-0.1l7.5 1.5c0.4 0.1 0.9-0.2 1-0.5l12.7-49c-0.1 0-0.3-0.4-0.7-0.5z"/>
<path class="st8" d="m44.5 56c-0.3-0.3-1.3-1.3-2.4-2.7-1.5-1.8-5-5.6-6.1-7.1l-0.3 0.5-2.3 2.9-0.1 0.2 0.3 0.3 4.9 5 3.4 3.6c0.1 0.1 0.5 0.5 0.6 0.5l2-3.2z"/>

	
		<polygon class="st8" points="50.7 54.9 50.7 55 50.5 54.9"/>
	
	<path class="st8" d="m54.7 56-2.2 2.5-4.2-0.9-0.8-3.2c0.5 0 1.3-0.3 1.6-0.7 0.2-0.3 0.4-1.3 0.4-1.3l0.6-2.5 4.2 0.9-0.6 2.5c0 0.1-0.3 1-0.2 1.3 0.1 0.6 0.7 1.2 1.2 1.4z"/>


	<path class="st8" d="m56.8 58.1-0.5 6.9-15.1-3.6 0.5-7.1 5.1-0.3s1.6 0.3 3.6 0.8l0.3 0.2c2.1 0.5 4.5 1 4.5 1l1.6 2.1z"/>


	<path class="st9" d="m62.5 55.7c-8.9-2.5-14.6-3.1-21.9-4.9-1.3-0.3-2.1-1.8-1.9-3.1 0.5-4 1.3-7.9 2.7-11.5 0.3-1 1.4-1.5 2.4-1.3l22.9 5.3c1 0.3 1.7 1.2 1.6 2.3-0.4 3.9-1.3 7.6-2.5 11.3-0.5 1.2-1.9 2.2-3.3 1.9z"/>

<path class="st10" d="m54.7 40.6s4.1-1.8 2.9-4.5c0 0-0.1-0.4-0.4-1-0.3-0.5 0.3-1.4-0.3-2.4-0.6-0.9 0.4-2.2-1.1-2.7-1.8-0.6-2-2.4-2.9-2.7s-3 1.7-4.1 1c-1-0.7-1.3-0.8-2.7-0.3s-0.6 1.4-1.8 1.9c-1.3 0.5-1.8-0.2-1.9 1.1-0.2 1.3 0.5 1.5-0.3 2.3-0.8 0.7-0.9 0.8-1 1.8s1.1 1.5 0.8 2.3c-0.2 0.3 0.3 2.4 2.3 2.8 0.8 0.2 0.5 1.3 0.9 1.8 0.6 0.8 0.5 1.6 0.5 1.6l9.1-3z"/>
<path class="st10" d="m54.2 39.1s-1.8-4.2 0.9-5.2c0 0 0.3-0.3 0.9-0.4 0.6-0.2 0.8-1.3 1.8-1.5 1.1-0.3 1.2-1.8 2.6-1.3 1.7 0.8 3.1-0.4 3.9 0 0.8 0.5 1.1 3.4 2.4 3.5 1.2 0.3 1.4 0.3 2.2 1.6s-0.5 1.4 0.1 2.7 1.4 1.1 0.7 2.1c-0.8 1-1.5 0.8-1.3 1.8 0.2 1.1 0.2 1.3-0.4 2-0.6 0.8-1.8 0.4-2.1 1.1-0.2 0.3-1.8 1.6-3.5 0.5-0.8-0.4-1.3 0.6-1.9 0.8-0.9 0.3-1.4 0.8-1.4 0.8l-4.9-8.5z"/>

	<path class="st11" d="m60.8 42.9c0 0.1-0.1 0.2-0.1 0.3s-0.1 0.2-0.1 0.3c-0.3 0.8-1.4 3.4-1.8 4.2-0.5 1.3-1.7 2.4-2.9 2.9l-2.2 1c-0.8 0.3-1.3 0.4-1.9 0.3-0.5-0.2-1-0.5-1.6-1.1l-1.6-1.8c-0.8-0.9-1.4-2.5-1.3-3.9l0.2-3.6v-0.5c0-0.3 0.1-0.7 0.2-1 0.3-1.4 1.1-2.6 2.1-3.5 4.5-3.9 12.5 0.3 11 6.4z"/>

<path class="st12" d="m53.9 51.8-0.4 1.9-0.5 0.2c-0.8 0.3-1.3 0.4-1.8 0.3-0.5-0.2-1-0.5-1.5-1.1l-0.3-0.4 0.4-1.8 4.1 0.9z"/>
<path class="st8" d="m60.2 44.4c0 0.1-0.7 1.7-0.7 1.7l-1.2 2.9c-0.4 1.3-1.7 2.3-2.8 2.8l-2.1 0.9c-0.8 0.3-1.3 0.4-1.8 0.3 0 0-1-0.5-1.5-1.1l-1.5-1.8c-0.8-0.9-1.4-2.4-1.3-3.7l0.2-3.5c0-0.5 0-1 0.2-1.5 0.3-1.3 1-2.5 2-3.4s2.3-1.4 3.6-1.6c0.7-0.1 2.6 0.4 2.9 0.5 0.1 0 3.4 2.3 3.9 3.8 0.4 1.1 0.4 2.4 0.1 3.7z"/>
<path class="st12" d="m60.3 44.2v0.2c-0.1-2.3-1.1-4.7-3.1-5.9-1.3-0.7-3.2-1.3-4.7-1-0.5 0.1-1.1 0.3-1.6 0.6-0.9 0.5-1.7 1.2-2.3 1.9-0.3 0.4-0.8 1.2-1.1 1.6 0.2-0.8 0.5-1.8 1.1-2.5 0.6-0.8 1.5-1.6 2.4-2 0.5-0.3 1.1-0.4 1.7-0.5 0.7-0.1 1.3-0.2 1.8-0.1 0.7 0.1 1.9 0.5 2.5 0.8 0.5 0.3 1.1 0.8 1.5 1.3 1.7 1.7 2.1 3.7 1.8 5.6z"/>

	<path class="st13" d="m54 41.7s0.1-0.1 0.3-0.2 0.7-0.7 0.7-0.8c0.2-0.5-0.1-1-1.8-2.1-1-0.7-0.5-1.6-0.1-2.2 0.7-0.1 1.3 0 1.9 0.2 0.1 0 0.9 0.3 0.9 0.3 0.1-0.1 0.2-0.1 0.3-0.2 0.1 0 0.1 0 0.2 0.1 0.3 0.1 0.5 0.3 0.8 0.3-0.5 0.3-1.4 0.8-1.4 1.3 0.1 0.7 0.8 0.7 1 1.8 0 1.5-2.8 1.5-2.8 1.5z"/>


	<path class="st10" d="m55.8 43.9c0.5 0.2 2.1 0.7 2.6 1.1 0.1 0.1 0.2 0 0.3-0.1 0.1-0.2 0.1-0.4 0.1-0.6 0-0.4-2-1.8-2.1-1.8s-0.8 0.4-1 1.1c-0.1 0.1 0 0.3 0.1 0.3z"/>
	
		<path class="st10" d="m50.7 43.9c0.5-0.1 0.7 1.5 0.2 1.6s-0.7-1.5-0.2-1.6z"/>
	
	
		<path class="st10" d="m55.7 45.5c0.5-0.9 1.2-0.5 0.7 0.4s-1.2 0.5-0.7-0.4z"/>
	
	<path class="st10" d="m51.8 43.1c-0.6 0-2.2-0.1-2.8 0.1-0.3-0.1-0.2-0.6-0.1-0.8 0.1-0.3 2.5-0.9 2.6-0.9 0.1 0.1 0.6 0.7 0.5 1.4 0.1 0.1-0.1 0.2-0.2 0.2z"/>

<path class="st6" d="m46.3 43.3"/>
<path class="st14" d="m51.1 49.3 0.3 0.8c0.1 0.3 0.3 0.4 0.7 0.5l0.5 0.1c0.3 0.1 0.6 0 0.8-0.2l0.7-0.6c-1.4-0.1-2.3-0.2-3-0.6z"/>
<path class="st15" d="m53.9 49.9-0.3-0.6c-0.2-0.3-0.5-0.8-0.9-0.8-0.4-0.1-0.9 0.1-1.2 0.4l-0.5 0.4c-0.1 0.3 1.6 0.7 2.9 0.6z"/>
<path class="st16" d="m49.9 48.7c0.8 1.1 4.2 1.7 5.1 1"/>

	<path class="st17" d="m51.9 46.9-0.2 0.2c-0.1 0.4 0.4 0.5 0.5 0.5 0.4 0.4 0.6 0.3 1.1 0.2 0.1 0 0.5 0.2 0.7-0.3 0 0 0-0.1-0.1-0.3"/>

<path class="st8" d="m66.8 54.8c-0.3 0.2-1.8 0.5-3.4 1-2 0.5-4.4 1.2-6.2 1.7-1.6 0.4-2.8 0.8-2.8 0.8l0.3 0.5 1.8 3.6 0.4-0.2c2.8-0.9 8.7-2.7 11.5-3.6 0.1 0 0.7-0.3 0.8-0.3l-2.4-3.5z"/>
<path class="st18" d="m65 60.4c0.2-0.3-1.6-1.8-1.6-4.6-1.7 0.5-3.9 0.7-5 0.7-3.2 0-1.8 1.7-1.6 3 0.4 2 0.8 3.2 1.8 3 1.3-0.1 6.3-1.9 6.4-2.1z"/>

	<path class="st19" d="m58.1 62.5-0.9 0.8-4.4 13.8c-0.2 0.7-15.3-2.6-15.1-3.3l3.6-13.6c0.3-1.4-0.6-3.7-1.3-5.9l3.6-1 3.3 0.6 2.4 5.9c0.1 0.3 0.5 0.3 0.8 0.2l4.7-3.9 2.9 0.6c-1 1.3-0.7 4.7 0.4 5.8z"/>

<path class="st8" d="m34.8 46 11.5-2.6 0.8 2.3s-10.3 3.8-11.4 4.2l-0.9-3.9z"/>
<path class="st18" d="m41 57.8s-4.8-4-4.8-4.3 2.2-0.7 3.5-3.1c1.3 1.2 3.1 2.5 4.1 2.9 0 0.1-1.4 3.9-2.8 4.5z"/>
<path class="st8" d="m34.5 46.1c3.3-1 4.7 3.4 1.5 4.6-3.2 1-4.7-3.4-1.5-4.6z"/>
<path class="st8" d="m66.8 56.6-7.2-8.8 1.7-1.7s7.8 7.2 8.7 8l-3.2 2.5z"/>
<path class="st8" d="m67.7 53.5c3.3-1 4.7 3.4 1.5 4.6-3.2 1-4.7-3.4-1.5-4.6z"/>
<path class="st20" d="m46.8 44c0.1 0.5 0.2 0.6 0.2 0.6"/>
<path class="st20" d="m59.6 46.8c0.2-0.5 0.1-0.6 0.1-0.6"/>
</svg>
