<?xml version="1.0" encoding="UTF-8"?>
<svg enable-background="new 0 0 100 100" version="1.1" viewBox="0 0 100 100" xml:space="preserve" xmlns="http://www.w3.org/2000/svg">
<style type="text/css">
	.st0{opacity:0.5;}
	.st1{fill:#9FFFF6;}
	.st2{fill:#E0A286;}
	.st3{fill:#FDC8A4;}
	.st4{fill:#C3726C;}
	.st5{fill:#FF8000;}
	.st6{fill:#FFDC00;}
	.st7{fill:#5E2C2C;}
	.st8{fill:#753B38;}
	.st9{fill:none;stroke:#FCDBCA;stroke-width:2;stroke-linecap:round;stroke-linejoin:round;stroke-miterlimit:10;}
	.st10{fill:none;}
	.st11{fill:#DF5167;}
</style>
<g class="st0">
	<path class="st1" d="m41.3 58.5c0.6 1.3 0.9 2.5 1.2 3.9 0.1 0.7 0.2 1.4 0.2 2.2s0 1.5-0.1 2.3-0.3 1.5-0.6 2c-0.2 0.2-0.2 0.4-0.4 0.5-0.2 0.2-0.2 0.3-0.4 0.4-0.2 0.2-0.4 0.4-0.5 0.9-0.1 0.4-0.1 1-0.1 1.5s0.2 1.2 0.3 1.7c0.1 0.3 0.2 0.5 0.3 0.9s0.2 0.8 0.3 1.3c0.2 0.9 0.2 1.9 0.2 2.5s0.1 1.1 0.1 1.3c0.1 0.4 0 0.6 0 1.1v0.4 0.4c0 0.2 0 0.5-0.1 0.8-0.1 1.1-0.2 2.4-0.6 4.1l-0.3 0.4c-0.8-0.7-1.4-1.8-1.8-3.1-0.1-0.4-0.2-0.6-0.3-1.1-0.1-0.2-0.1-0.4-0.1-0.5-0.1-0.2-0.1-0.4-0.1-0.6-0.2-0.8-0.2-1.7-0.1-2.6s0.2-1.7 0.3-2.2 0.2-0.7 0.4-1.1c0.1-0.4 0.3-0.7 0.4-1.5 0-0.6 0.1-1.3 0.1-2v-2.1-2.3-1.1-0.9-1.3c0.4-0.7 0.5-1.7 0.6-2.7 0.2-1.1 0.4-2.2 0.8-3.4l0.3-0.1z"/>
</g>
<g class="st0">
	<path class="st1" d="m50.6 59.3c0.7 1.2 1.1 2.5 1.5 3.8 0.2 0.7 0.3 1.4 0.4 2.2s0.1 1.5 0.1 2.3c-0.1 0.8-0.2 1.5-0.4 2-0.2 0.2-0.2 0.4-0.4 0.5-0.2 0.2-0.2 0.3-0.3 0.5-0.2 0.2-0.4 0.5-0.4 1-0.1 0.4 0 1 0.1 1.5s0.3 1.2 0.5 1.6c0.1 0.3 0.2 0.5 0.4 0.9s0.3 0.8 0.4 1.2c0.3 0.9 0.4 1.9 0.4 2.5s0.2 1.1 0.3 1.3c0.1 0.4 0.1 0.6 0.1 1.1v0.4 0.4 0.8c0 1.1 0 2.4-0.3 4.1l-0.3 0.5c-0.9-0.7-1.6-1.7-2.1-2.9-0.2-0.4-0.3-0.6-0.4-1-0.1-0.2-0.1-0.4-0.2-0.5-0.1-0.2-0.1-0.4-0.1-0.6-0.2-0.8-0.3-1.7-0.3-2.6s0-1.7 0.2-2.3c0.1-0.5 0.2-0.7 0.3-1.2 0.1-0.4 0.3-0.8 0.3-1.6 0-0.6 0-1.3-0.1-2 0-0.6-0.1-1.3-0.2-2.1-0.1-0.7-0.2-1.6-0.2-2.3v-1.1c0-0.4 0-0.6-0.1-0.9 0-0.5-0.1-0.9-0.1-1.3 0.1-0.7 0.1-1.6 0.2-2.7s0.2-2.3 0.6-3.4l0.1-0.1z"/>
</g>
<g class="st0">
	<path class="st1" d="m58.9 61.4c0.8 1.2 1.3 2.5 1.6 3.8 0.2 0.7 0.3 1.4 0.4 2.2v2.3c-0.1 0.8-0.3 1.6-0.7 2-0.2 0.2-0.3 0.4-0.5 0.6l-0.5 0.5c-0.3 0.2-0.5 0.5-0.6 1-0.1 0.4-0.1 1 0 1.5s0.3 1.2 0.5 1.7c0.1 0.3 0.2 0.5 0.4 0.9s0.3 0.8 0.5 1.2c0.3 0.9 0.4 1.9 0.4 2.5s0.1 1.1 0.2 1.3c0.1 0.4 0.1 0.6 0.1 1.1v0.4 0.4c0 0.2 0 0.5-0.1 0.8-0.1 1.1-0.2 2.4-0.6 4.1l-0.6 0.3c-1.1-0.7-1.9-1.7-2.5-2.9-0.2-0.4-0.3-0.6-0.4-1.1-0.1-0.2-0.1-0.4-0.2-0.5-0.1-0.2-0.1-0.4-0.1-0.6-0.2-0.8-0.3-1.7-0.2-2.6s0.2-1.7 0.3-2.3c0.2-0.5 0.3-0.7 0.5-1.2 0.2-0.4 0.4-0.8 0.4-1.6 0-0.6 0.1-1.3 0-2 0-0.6-0.1-1.3-0.1-2.1 0-0.7-0.1-1.6-0.1-2.3v-1.1-0.9c0-0.5-0.1-0.9 0-1.3 0.1-0.7 0.2-1.6 0.4-2.7s0.5-2.3 1-3.5l0.5 0.1z"/>
</g>
<g class="st0">
	<path class="st1" d="m43.9 66.4c-0.5 1.3-0.7 2.6-0.8 4 0 0.7-0.1 1.4-0.1 2.2s0.1 1.5 0.2 2.3c0.2 0.8 0.4 1.5 0.7 1.9 0.2 0.2 0.2 0.4 0.4 0.5 0.2 0.2 0.2 0.3 0.4 0.4 0.2 0.2 0.4 0.4 0.5 0.9 0.1 0.4 0.2 1 0.2 1.5s-0.1 1.2-0.2 1.7c0 0.3-0.1 0.5-0.2 0.9s-0.2 0.8-0.2 1.3c-0.1 0.9-0.1 1.9-0.1 2.5v1.3 1.1 0.4 0.4c0 0.2 0.1 0.5 0.1 0.8 0.2 1.1 0.4 2.4 0.8 4l0.3 0.4c0.7-0.8 1.2-1.9 1.5-3.2 0.1-0.4 0.2-0.6 0.2-1.1 0-0.2 0-0.4 0.1-0.5v-0.6c0.1-0.8 0.1-1.7-0.1-2.6-0.1-0.9-0.3-1.7-0.4-2.2-0.2-0.5-0.2-0.7-0.5-1.1-0.2-0.4-0.4-0.7-0.5-1.5-0.1-0.6-0.2-1.3-0.2-2 0-0.6-0.1-1.3-0.2-2.1 0-0.7-0.1-1.6-0.2-2.3l-0.1-1.1c0-0.4 0-0.6-0.1-0.9 0-0.5 0-0.9-0.1-1.3-0.2-0.7-0.3-1.6-0.5-2.6-0.2-1.1-0.5-2.2-1-3.3l0.1-0.1z"/>
</g>
<path class="st2" d="m47.6 75.3c-1.9-2.6-4-6-5.8-10.1-0.2-0.4-0.4-0.9-0.5-1.3-0.3-0.6-0.4-1.3-0.7-1.9-0.5-1.6-1.2-3.3-1.5-5-0.4-1.5-0.5-3.1-0.7-4.7 0-0.4-0.1-0.8-0.1-1.2v-0.3c0-0.6-0.1-1.3-0.1-1.9 0-1.7 0.1-3.4 0.4-5 0.1-0.4 0.1-0.8 0.2-1.3 0.8-4.6 2.4-8.8 4.2-12.4 0.3-0.6 0.6-1.3 1.1-1.9 0.3-0.4 0.4-0.9 0.7-1.3 1.7-2.9 3.4-5.2 4.7-6.8 0.4-0.6 0.8-1.1 1.3-1.5 1.5 1.8 4.2 5.2 6.7 9.7 2.3 4 4.3 8.9 5.3 14.3 0.1 0.4 0.2 0.8 0.2 1.3 0.3 1.6 0.4 3.3 0.4 5 0 0.6 0 1.3-0.1 1.9v0.3s0 0.2 0 0.2c-0.1 2-0.4 3.9-0.8 5.7-0.4 1.7-0.9 3.4-1.5 5-0.2 0.6-0.4 1.3-0.7 1.9l-0.3 0.6c-1.9 4.5-4.2 8.3-6.2 11.1"/>
<path class="st3" d="m63.4 48.8c0 0.6 0 1.3-0.1 1.9h-26.1c0-0.6-0.1-1.3-0.1-1.9 0-1.7 0.1-3.4 0.4-5h25.5c0.3 1.6 0.4 3.2 0.4 5z"/>
<path class="st3" d="m62.5 56.8c-0.4 1.7-0.9 3.4-1.4 5-0.2 0.6-0.4 1.3-0.7 1.9h-20.2c-0.8-2.2-1.6-4.5-2.1-6.9h24.4z"/>

	<path class="st4" d="m50.1 46.5-3.4 0.5-0.6-5.7c-0.1-1 0.5-1.8 1.5-1.9 0.9-0.1 1.8 0.5 1.9 1.5l0.6 5.6z"/>
	<polygon class="st5" points="50.2 47.8 46.8 48.2 46 41.2 49.4 40.9"/>


	<path class="st4" d="m51.3 46.3 3.4 0.4 0.6-5.7c0.1-1-0.5-1.8-1.5-1.9-0.9-0.1-1.8 0.5-1.9 1.5l-0.6 5.7z"/>
	<polygon class="st5" points="51.1 47.6 54.5 48.1 55.3 41 52 40.7"/>

<path class="st4" d="m54.9 47.4c0 1.3-1.7 2.3-3.9 2.3s-3.9-1.1-3.9-2.3 1.4-2.2 3.4-2.3c0-0.3 0.3-0.4 0.4-0.4 0.3 0 0.4 0.2 0.4 0.4 2.1 0.2 3.6 1.1 3.6 2.3z"/>
<path class="st4" d="M42.1,42.5C41,42,41,46.5,43,42.8"/>

	<path class="st4" d="m49 47.5v0.3l-0.6 1.3-0.5 1.2-0.4-0.2-3.1-1.6-1.4-0.6-1.8-3.7 0.7-0.5 2.2 3.3s0.4 0 0.9 0.1c1.4 0.1 3.4 0.3 4 0.4z"/>

<path class="st6" d="m49 47.5v0.4l-0.6 1.3-1 0.9-3.1-1.6 0.9-1.4c1.2 0.1 3.2 0.4 3.8 0.4z"/>
<path class="st7" d="m44.6 49.9s-3.1-1.1-2.2 2.1c0 0-1.5 1.5 1 2.8 0 0-0.4 2.2 2.4 1.5 0 0 2.5 1.5 3.4-0.9 0 0 2.2 0.3 1.6-2.2 0 0 0.7-2.1-0.7-2.5 0 0-0.9-1.9-2.3-1 0 0-1.9-1.6-3.2 0.2z"/>

	<path class="st4" d="m54.5 48.1c0.2-0.2 4.7-3.9 4.7-3.9v-4h0.9l0.6 4-4.3 5.8-1.9-1.9z"/>
	<path class="st6" d="m54.5 48.1 1.8 2 1.4-1.9c-0.5-0.5-1.1-1-1.7-1.4-0.7 0.6-1.4 1.2-1.5 1.3z"/>
	<path class="st4" d="m60.1 40.1h-0.9v4s-1.7 1.4-3.1 2.5c0.6 0.4 1.2 0.9 1.7 1.4l2.9-3.9-0.6-4z"/>

<path class="st7" d="m57.7 49.9s3.1-1.1 2.2 2.1c0 0 1.5 1.5-1 2.8 0 0 0.4 2.2-2.4 1.5 0 0-2.5 1.5-3.4-0.9 0 0-2.2 0.3-1.6-2.2 0 0-0.7-2.1 0.7-2.5 0 0 0.9-1.9 2.3-1 0 0 1.8-1.6 3.2 0.2z"/>
<path class="st8" d="m56.2 51.2c0.7 3-1.9 2.6-1.9 2.6-1.1 2.9-4 1.1-4 1.1-3.3 0.8-2.9-1.8-2.9-1.8-3.1-1.6-1.3-3.4-1.3-3.4 0-0.1-0.1-0.2-0.1-0.3-0.2-0.8-0.2-1.3 0-1.7 0.6-1.3 2.7-0.5 2.7-0.5 1.5-2.1 3.8-0.2 3.8-0.2 1.3-0.8 2.2 0.3 2.5 0.9l0.2 0.4c0.7 0.2 1 0.7 1.1 1.3 0.2 0.7-0.1 1.6-0.1 1.6z"/>
<path class="st3" d="m57.9 28.1h-15.1c3.6-6.8 7.5-11.1 7.5-11.1s0.4 0.4 1.2 1.4c1.4 1.8 4 5.2 6.4 9.7z"/>
<path class="st3" d="m46.4 75.6c-1.2-1.7-2.4-3.8-3.7-6.1h15.1c-1.3 2.5-2.5 4.5-3.7 6.2-0.4 0.4-0.8 0.7-1.4 0.7h-4.9c-0.5-0.1-1.1-0.4-1.4-0.8z"/>
<path class="st6" d="m56.4 49.5c-3.4 0.4-6.9 0.4-10.3 0-0.2-0.8-0.2-1.3 0-1.7 2.9 0.4 5.9 0.4 9.1 0.2l0.2 0.4c0.7 0 0.9 0.6 1 1.1z"/>
<path class="st9" d="m63.8 44.1c-0.1-0.4-0.1-0.8-0.2-1.3-0.9-5.4-2.9-10.3-5-14.3-0.7-1.3-1.4-2.5-2.1-3.7-1.3-2.2-2.6-3.9-3.5-5.1-0.3-0.4-0.5-0.6-0.7-0.9-0.9-1-1.3-1.4-1.3-1.4s-2.1 2.2-4.7 6.1c-1 1.4-2 3.1-3 4.9-2.2 4-4.1 8.9-5 14.3-0.1 0.4-0.2 0.8-0.2 1.3-0.3 1.6-0.4 3.3-0.4 5 0 0.6 0 1.3 0.1 1.9v0.3c0.1 2.1 0.4 4 0.8 5.9 0.5 2.4 1.3 4.8 2.1 6.9 0.8 2 1.7 3.9 2.6 5.7v0.1c0.1 0.2 0.3 0.4 0.4 0.6 0 0.1 0.1 0.2 0.1 0.2 0.1 0.3 0.3 0.4 0.4 0.7 0.1 0.2 0.2 0.4 0.3 0.5s0.1 0.2 0.2 0.3c0.1 0.2 0.2 0.4 0.3 0.5 0 0.1 0.1 0.1 0.1 0.2 0.1 0.2 0.3 0.4 0.4 0.5 0 0 0 0.1 0.1 0.1 0.5 0.8 1.1 1.6 1.5 2.3 0.4 0.4 0.8 0.7 1.4 0.7h4.9c0.5 0 1.1-0.3 1.4-0.7 1-1.3 2-3 3.1-4.9s2.1-4 3.1-6.3l0.3-0.6c0.3-0.6 0.4-1.3 0.7-1.9 0.5-1.6 1.1-3.3 1.4-5 0.4-1.8 0.7-3.8 0.8-5.7v-0.2-0.3c0-0.6 0.1-1.3 0.1-1.9-0.2-1.5-0.3-3.2-0.5-4.8z"/>

	<path class="st10" d="m49.8 10.7"/>


	<path class="st11" d="m82.1 38.1-5.9 1.6h-0.4c-0.5 0-1.1-0.2-1.5-0.4l-2.4-1.8 1.6-2.6c0.3-0.4 0.5-0.7 1-0.9 0.2-0.1 0.4-0.2 0.7-0.3l6.1-0.7 0.8 5.1z"/>
	<path class="st11" d="m29.2 45.9c-0.1-0.3 0.1-0.5 0.4-0.5l49.6-9.6 0.2 1-49.6 9.5c-0.3 0-0.5-0.1-0.6-0.4z"/>

</svg>
