<?xml version="1.0" encoding="UTF-8"?>
<svg enable-background="new 0 0 100 100" version="1.1" viewBox="0 0 100 100" xml:space="preserve" xmlns="http://www.w3.org/2000/svg">
<style type="text/css">
	.st0{fill:#025A3C;}
	.st1{fill:#006661;}
	.st2{fill:#FF89AD;}
	.st3{fill:#FF89B8;}
	.st4{fill:#BDFFD4;}
	.st5{fill:#FF89AD;stroke:#BDFFD4;stroke-width:0.3;stroke-miterlimit:10;}
	.st6{fill:none;stroke:#BDFFD4;stroke-width:0.3;stroke-miterlimit:10;}
</style>

	<path class="st0" d="m57.9 61s-10.1-18.3 10.6-30.1c-1.9 10.9-5.4 18.4-10.6 30.1z"/>
	<path class="st0" d="m54 53.6s-13.8-11.9-4.4-23.5c0 0-0.7 4.3 0.6 6.5 2.3 4.4 1 12 5.9 14.7 5.2 3.1-2.1 2.3-2.1 2.3z"/>
	<path class="st1" d="m59.7 64.1s-19.5-2.2-20.2-16.1c0 0 2.5 3.7 5.1 4.8 5.1 2.2 9.4 8.9 15.1 8.7 6.6-0.5 0 2.6 0 2.6z"/>

<path class="st0" d="m50.9 65s13.1-15.8 31.5-5.2c-10.5 3.2-18.7 4-31.5 5.2z"/>
<path class="st1" d="m57.8 67.2s-6-16 8.5-22.7c0 0-2.8 3.5-2.9 6-0.1 4.8-5.4 11.1-2.6 15.4 3 5-3 1.3-3 1.3z"/>
<path class="st0" d="m63.5 61.8v-0.3c-0.1 0.1-0.4 0.1-0.6 0.3-0.6 0.3-1.5 0.4-2.2 0.3 0.7 1.4 2.1 3.8 2.8-0.3z"/>
<path class="st1" d="m60.7 66c-0.7-1.2-0.9-2.6-0.7-4.1-0.4-0.1-0.9-0.3-1.3-0.3 0.4 0.1 0.9 0.3 1.3 0.3 0.6-3.7 3.2-7.9 3.4-11.4 0.1-2.5 2.9-6 2.9-6-14.4 6.7-8.5 22.7-8.5 22.7s6 3.7 2.9-1.2z"/>

	<path class="st0" d="m48.9 62.4s-16.4-14.7-1.2-31.2c2.2 10.8 1.6 18.7 1.2 31.2z"/>
	<path class="st0" d="m45.1 62s-17.5-7.5-12.9-21c0 0 0.9 4.3 2.9 6 4 3.5 5.4 11.1 11 12.3 6.3 1.5-1 2.7-1 2.7z"/>
	<path class="st0" d="m51.7 64.9s-19.4 3.2-25.2-9.8c0 0 3.8 2.8 6.6 3.2 5.7 0.7 12.3 5.9 17.6 4.1 6-2.2 1 2.5 1 2.5z"/>


	<path class="st2" d="m69 63.5c0.2 0 0.2 0 0 0z"/>


	<path class="st2" d="m66.9 64.7c0.9-0.1 1.8-0.6 2.1-1.3-0.3-0.4-0.3-1-0.1-1.5 0.1-0.6 0.3-1 0.3-1.6 0-0.1 0-0.3-0.1-0.3-0.3-0.3-0.7-0.1-1-0.3-0.3-0.1-0.3-0.7-0.1-1 0-0.4 0-0.9-0.4-1h-0.4c-0.3 0-0.6-0.3-0.6-0.6-0.1-0.3-0.1-0.6-0.3-0.9-0.3-0.3-0.7-0.6-1.2-0.6-0.3 0-0.4 0.1-0.7 0.1s-0.4 0-0.6-0.1c-0.7-0.1-1.5-0.1-2.1 0-0.3 0-0.6 0.1-0.9 0.3-0.9 0.4-1.3 1.5-0.9 2.2 0.1 0.4 0.6 0.7 0.7 1.2 0 0.3-0.1 0.6 0 0.9 0.1 0.6 1.3 0.7 1.5 1.3 0 0.1 0 0.4 0.1 0.6 0.3 0.4 1.2 0.3 1.5 0.7 0.1 0.3 0.1 0.6 0.4 0.9 0.4 0.4 1.3 0 1.6 0.4l0.1 0.1c0 0.1 0.1 0.1 0.1 0.3s0.5 0.2 1 0.2z"/>


	<path class="st2" d="m67.3 63.2z"/>


	<path class="st3" d="m51.6 55.2c-0.7 0.6-1.9 0.6-2.9 0.6-1-0.1-2.1-0.4-3.1-0.1-0.3 0-0.4 0.1-0.6 0.3-0.4 0.4-0.1 1-0.4 1.5-0.4 0.4-1.2 0.4-1.9 0.4s-1.6 0.1-1.8 0.7v0.6c0 0.4-0.6 0.9-1.2 1s-1.2 0.3-1.6 0.4c-0.7 0.3-1 1-0.9 1.8 0.1 0.3 0.3 0.6 0.4 1v0.9c-0.3 1.3 0 2.8 1 4 1 1 2.9 1.6 4.3 0.9 0.7-0.3 1.3-1 2.1-1.2 0.6-0.1 1.2 0 1.6-0.1 1-0.4 1-1.9 2.2-2.2 0.3-0.1 0.7-0.1 1-0.3 0.7-0.4 0.4-1.6 1.2-2.1 0.4-0.3 1.2-0.3 1.5-0.6 0.6-0.6 0-1.8 0.6-2.3 0.1-0.1 0.4-0.3 0.7-0.4 0.6-0.4 0.6-1.2 0.4-1.8-0.4-1.2-1.5-2.2-2.8-2.6"/>


	<path class="st3" d="m52.4 54.9c0.4 0.9 0 1.8-0.6 2.5-0.4 0.7-1.2 1.5-1.3 2.3 0 0.1 0 0.4 0.1 0.6 0.3 0.4 1 0.4 1.5 0.9 0.4 0.4 0 1.2-0.3 1.8s-0.4 1.3 0.1 1.6c0.1 0.1 0.4 0.1 0.6 0.3 0.4 0.3 0.6 0.7 0.6 1.3 0 0.4-0.1 1-0.1 1.5 0.1 0.6 0.9 1.2 1.6 1.3h1.2s0.6 0.3 1 0.4c1.5 0.7 3.1 1 4.7 0.7 1.6-0.4 2.9-1.8 2.6-3.1-0.1-0.7-0.6-1.3-0.4-2.1 0.1-0.4 0.4-0.9 0.4-1.3 0-1-1.6-1.6-1.6-2.5 0-0.3 0.1-0.6 0.1-0.9-0.1-0.7-1.6-0.9-1.9-1.6-0.1-0.4 0.1-1-0.1-1.5-0.4-0.7-1.9-0.6-2.3-1.3-0.1-0.3-0.1-0.4-0.1-0.7-0.1-0.6-1-0.9-1.8-1-1.5-0.1-2.9 0.3-4 1.2"/>


	<path class="st3" d="m53.4 54.9c0.1 0 0.1 0 0 0z"/>


	<path class="st3" d="m54.8 56.2c0.9-0.4 2.1-0.1 2.9 0.3 0.9 0.4 1.8 0.9 2.8 0.9 0.3 0 0.4 0 0.7-0.1 0.6-0.3 0.6-0.9 1-1.2 0.6-0.4 1.3-0.1 2.1 0.1 0.6 0.3 1.6 0.3 1.9-0.1 0.1-0.1 0.1-0.4 0.3-0.6 0.3-0.4 0.9-0.6 1.5-0.6s1.2 0.1 1.8 0c0.7-0.1 1.3-0.7 1.5-1.5v-1s0.3-0.6 0.4-0.9c0.7-1.2 1.2-2.6 0.6-4s-2.1-2.3-3.7-2.1c-0.9 0.1-1.6 0.6-2.3 0.4-0.6 0-1-0.3-1.6-0.3-1.2 0-1.8 1.5-2.9 1.5-0.4 0-0.7-0.1-1.2 0-0.9 0.1-1 1.3-1.9 1.8-0.6 0.1-1.2 0-1.6 0.1-0.9 0.4-0.6 1.6-1.5 2.1-0.3 0.1-0.6 0.1-0.9 0.1-0.7 0.1-1 0.9-1.2 1.6-0.1 1.3 0.4 2.5 1.6 3.4"/>


	
		<path class="st3" d="m54.8 55z"/>
	
	
		<path class="st3" d="m57.5 56.1z"/>
	
	
		<path class="st3" d="m57.3 56.2c0.2-0.1 0 0 0 0z"/>
	


	
		<path class="st3" d="m52.4 55.3c0.1-0.9 1-1.5 2.1-1.9 0.9-0.4 1.9-0.7 2.5-1.5 0.1-0.1 0.3-0.3 0.3-0.6 0-0.4-0.6-0.9-0.6-1.5s0.7-1 1.3-1.3 1.2-0.9 0.9-1.5l-0.4-0.4c-0.3-0.4 0-1 0.3-1.3s0.7-0.7 1-1.2c0.3-0.6 0-1.3-0.6-1.8-0.3-0.3-0.7-0.3-1-0.6-0.3-0.1-0.4-0.4-0.6-0.7-0.7-1.2-1.9-2.4-3.5-2.7-1.6-0.4-3.5 0.1-4.1 1.5-0.3 0.6-0.4 1.5-0.9 1.9-0.4 0.3-1 0.6-1.3 0.9-0.6 0.9 0.4 2.1-0.3 3-0.1 0.3-0.6 0.4-0.7 0.7-0.3 0.7 0.7 1.5 0.6 2.4-0.1 0.4-0.7 0.7-0.7 1.3-0.1 0.7 1.2 1.3 1 2.2 0 0.3-0.3 0.4-0.3 0.7-0.1 0.6 0.3 1.3 0.9 1.6 1.2 0.7 2.8 1 4.1 0.8"/>
	
	
		<path class="st3" d="m51 53.1c-1-0.1-1.8-0.9-2.3-1.6-0.6-0.7-1-1.6-1.8-2.1-0.1-0.1-0.4-0.3-0.6-0.3-0.6 0-1 0.6-1.6 0.6-0.7 0.1-1.2-0.6-1.6-1s-1-1-1.8-0.7c-0.1 0.1-0.3 0.3-0.6 0.3-0.4 0.3-1.2 0.1-1.6-0.1-0.4-0.3-0.9-0.6-1.5-0.7-0.7-0.1-1.6 0-2.1 0.6-0.3 0.3-0.4 0.6-0.7 0.9s-0.6 0.4-0.9 0.6c-1.5 0.7-2.6 1.8-3.1 3.1-0.4 1.3 0.3 3 1.8 3.5 0.7 0.3 1.6 0.3 2.3 0.7 0.4 0.3 0.7 0.7 1.2 1 1 0.4 2.3-0.4 3.4 0 0.3 0.1 0.6 0.4 0.9 0.6 0.9 0.3 1.8-0.7 2.6-0.6 0.6 0.1 1 0.6 1.5 0.6 0.9 0 1.6-1.2 2.5-1 0.3 0 0.6 0.1 0.9 0.3 0.7 0.1 1.5-0.3 1.9-0.9 0.9-1 1.2-2.4 0.7-3.5"/>
	

<ellipse class="st2" transform="matrix(.9994 -.033238 .033238 .9994 -1.806 1.7522)" cx="51.8" cy="55.2" rx="2.3" ry="1.9"/>
<ellipse class="st4" cx="42.1" cy="54.7" rx=".7" ry=".7"/>
<ellipse class="st4" transform="matrix(.409 -.9125 .9125 .409 -27.506 77.757)" cx="46.3" cy="60.1" rx=".6" ry=".7"/>
<ellipse class="st4" transform="matrix(.96 -.2801 .2801 .96 -14.923 18.568)" cx="57.5" cy="61.5" rx=".9" ry=".6"/>
<ellipse class="st4" transform="matrix(.1696 -.9855 .9855 .1696 -1.6437 92.768)" cx="54.2" cy="47.4" rx=".6" ry=".9"/>
<path class="st4" d="m42.1 54.7s6.5-1.3 9.7 0.4"/>

	<path class="st5" d="m46.3 60.2s3.8-1.6 5.4-5"/>


	<path class="st5" d="m57.8 61.6s-2.3-5.1-6-6.5"/>

<path class="st6" d="m54.3 47.4s-2.9 5.7-2.6 7.8"/>
<ellipse class="st4" cx="59.6" cy="54.7" rx=".6" ry=".7"/>
<path class="st4" d="m59.6 54.7s-5.1-1.3-7.7 0.4"/>
</svg>
