<?xml version="1.0" encoding="UTF-8"?>
<svg enable-background="new 0 0 100 100" version="1.1" viewBox="0 0 100 100" xml:space="preserve" xmlns="http://www.w3.org/2000/svg">
<style type="text/css">
	.st0{fill:#FFDB00;}
	.st1{fill:#AF7971;}
	.st2{fill:#FDBC03;}
	.st3{fill:#66403C;}
	.st4{fill:#51312E;}
	.st5{fill:#FDDA03;}
	.st6{fill:#AC655A;}
	.st7{fill:#96675C;}
	.st8{fill:#CE8E8D;}
	.st9{fill:#C67F77;}
	.st10{fill:#693696;}
	.st11{fill:#8765AA;}
	.st12{fill:#9F59B6;}
	.st13{fill:#A56156;}
	.st14{fill:#EEB393;}
	.st15{fill:#FAD1B7;}
</style>

	<path class="st0" d="m50.8 41.2c2.3 0 2.3 3.6 0 3.6s-2.3-3.6 0-3.6z"/>
	<polygon class="st1" points="55 42 54.4 41.8 54.4 41.9 54.4 42.8 54.5 43.3 54.5 43.7 54.6 44.9 54.6 45.4 53.6 45.6 51 46 50.9 45.6 50.8 43.8 50.7 43.1 50.7 42.9 50.6 42.5 50.6 42.3 50.6 42.1 50.6 41.6 50.5 41.4 50.5 41.2 50.5 40.5 50.4 39.5 50.1 36.5 53.8 34.7 53.9 36.8 54.2 37.9 54.6 40.3 54.7 40.8 54.8 41 54.8 41.1 54.9 41.4 54.9 41.6"/>
	<path class="st2" d="m56.5 45.4c-0.1 2-0.5 10.1-0.5 10.1l0.6 2.7c-3.4 1-8.6 2.2-8.7 2 0 0 0-4.2-0.2-9.1-0.1-1.2-1.6-2.9-0.9-4.8 1-2 5.8-6 7.8-6.6 0.1 0.2 1.9 3.3 1.9 5.7z"/>
	<path class="st3" d="m53.8 22.4s1.3-1.4 2.2-0.8c1.4 0.8 2-0.4 3.2 0.3 0.9 1.8 1.9 1.4 3.3 2.7 0.5 0.8 0.6 2 1.2 2.7 0.6 1.7 0.3 3.5 0.4 5.2-1.1 3.9-3.5 6.4-7.6 5.3-1.2 0.2-2.3-0.3-2.6-0.8-0.4-0.6-1.9-14-0.1-14.6z"/>
	<path class="st3" d="m63.1 34.8c0-0.5 0.5-1.5 0.9-2.3 0.5-0.8-0.4-2-0.2-2.7 0-0.1 0-0.2 0.1-0.3-0.4 0.5-0.9 0.8-1.5 1-0.8 0.1 0 1 0.1 1.4-0.2 0.5-1 0.5-1.3 0 0.4 0.5-0.1 0.8-0.4 1.2-0.7 0.4-1.1-0.8-1.2-1.4-0.5-0.9-2 0.5-2-0.5-0.6-2.1-2.9-2.4-4.7-2 0.2 3.6 0.6 7.3 0.8 7.6 1.5 1.3 4.3 1 6.3 0.8 0.9 0.3 0.5-0.6 1.5-0.9 1.2-0.1 1.5-1.3 1.6-1.9z"/>
	<path class="st3" d="m57.4 24.4s1.9-3.3 4.1-2.1c0.6 0.6 1.8 0.4 2.8 1 0.7 0.6 1.9-0.2 2.2 1.1 0.4 1.5 1.9 1.9 2.1 2.7-1.3 2-0.8 3.5-1.2 5.7-3.7 2.6-0.4 2.7-4.9 3-1 1.5-2.5 0.1-3.5-0.1-0.4 0.1-2-0.5-2.3-2.2-0.1-0.7-1-1.1-1.4-1.4-0.6-0.5-0.1-1.5-0.1-1.5l2.2-6.2z"/>
	<path class="st4" d="m54.9 25.1s2-3.1 4.1-1.9c0 0 0.4 0.1 0.8 0.4 0.5 0.3 1.3-0.1 2.1 0.5 0.7 0.5 1.9-0.2 2.3 1 0.4 1.4 1.3 2.2 1.4 2.9 0.2 0.7-1 1.8-0.5 2.7 1.2 1.6-0.7 2.7-1.8 3.4-0.2 2.4-2 0.7-3.1 1.5-0.6 0.5-0.6 1.4-1.4 1.3-0.8 0-2.5 0.8-3.2 1-0.4 0.1-2.1-0.4-2.3-2-0.1-0.7 0.1-3-0.4-3.2-0.6-0.5-1.4-0.5-1.4-0.5l3.4-7.1z"/>
	<path class="st5" d="m56.2 34s4.5-6.7-0.4-10.8c0 0-2.4-1.6-4-0.5-2.4 1.6-0.8 3.7-0.8 3.7l5.2 7.6"/>
	<path class="st1" d="m55.1 34.7c-0.3 0.6-0.7 1.1-1.4 1.4-6.6 2.2-7.3 0-6.2-4.4l-0.2-0.2c-0.1-0.1-0.1-0.2-0.2-0.3-0.2-0.3 0-0.8 0.3-0.8 0.8-0.2 1.2-0.6 1.3-0.6 0.2-0.2 0.3-0.5 0.3-0.8-0.4-2.5 0.7-3.9 1.5-4.6 0.2-0.2 0.5-0.4 0.5-0.4 0.2-0.1 0.3-0.1 0.3-0.1l-0.3 0.2c6 0.5 4.7 8.5 4.7 8.5l0.9-0.1-1.4 2-0.1 0.2"/>
	<path class="st6" d="m51.8 24.8s-0.1 0-0.2 0.1c0.1 0 0.2-0.1 0.2-0.1"/>
	<path class="st1" d="m54.3 33.3c-0.2 0.8-0.4 1.7 0.4 1.9 0.7 0.2 1.9-0.5 2.4-1.2 1.3-2.4-2.1-2.6-2.8-0.7z"/>
	<path class="st7" d="m56.4 32.8c-0.3 0-1.1 0.3-1.4 0.5-0.1 0.1-0.1 0.2 0 0.3l0.2 0.4v0.1l-0.5 0.5c-0.1 0.1-0.1 0.3 0 0.4s0.3 0.1 0.4 0l0.5-0.5c0.3-0.3 0.2-0.7 0-0.9l-0.2-0.2-0.2 0.2 0.2 0.1c0.1-0.1 0.3-0.2 0.6-0.3h0.3 0.1c0.1 0 0.2-0.1 0.2-0.2 0.1-0.3-0.1-0.4-0.2-0.4z"/>
	<path class="st8" d="m48.6 33.7-0.5 0.5c-0.2 0.2-0.5 0.3-0.7 0.2h-0.2c-0.1 0-0.1-0.1-0.1-0.1 0-0.2 0.1-0.5 0.2-0.7 0.4 0 0.9 0.1 1.3 0.1z"/>
	<path class="st9" d="m48.6 33.7c-0.5 0-0.9 0-1.4-0.1-0.3-0.7 0-1.2 0.2-1.2 0.4 0.1 0.7 0.4 0.9 0.7l0.3 0.6z"/>
	<path class="st7" d="m47.3 33.7c0.8 0.1 1.9 0.2 2.5-0.2v-0.1h-0.1c-0.5 0.5-1.6 0.3-2.4 0.3z"/>
	<path class="st3" d="m49.3 28.5c0.5 0.1 1.4 0.2 2 0.5 0.3 0.1 0.3-0.5 0.2-0.6-0.7-0.9-2-1.9-2.3-0.1 0 0.1 0.1 0.2 0.1 0.2z"/>
	<path class="st1" d="m49.3 30c0.1-0.3 0.3-0.5 0.5-0.5 0.4 0.2 0 1.2-0.4 1.2-0.1-0.1-0.2-0.4-0.1-0.7z"/>
	<path class="st4" d="m50.8 27.3s0.1 0 0.2-0.1 0.2-0.1 0.4-0.2c0.1-0.1 0.2-0.2 0.2-0.3 0.2-0.3 0-0.6-1.1-1.5-0.6-0.5-0.2-1.1 0.2-1.4 0.5 0 0.8 0.1 1.3 0.3 0.2 0.1 0.6 0.4 0.8 0.2 0 0 0.1 0 0.1 0.1 0.2 0.1 0.4 0.2 0.5 0.3-0.4 0.2-1 0.4-1.1 0.7 0 0.5 0.5 0.5 0.5 1.3-0.2 0.9-2 0.6-2 0.6z"/>
	<path class="st3" d="m52.2 26.6c-0.1 0.2-0.2 0.4-0.4 0.5-0.2 0.2-0.5 0.2-0.7 0.2 0.1-0.1 0.2-0.1 0.4-0.2 0.1-0.1 0.2-0.2 0.2-0.3 0.2-0.3 0-0.6-1.1-1.5-0.5-0.5-0.3-0.9 0-1.3 0.5-0.4 1.1-0.1 1.8 0.1 0.2 0.1 0.3 0.1 0.5 0.2 0 0 0.1 0 0.1 0.1-0.3 0.3-1.4 0.4-1.4 0.7-0.2 0.4 0.9 0.9 0.6 1.5z"/>
	<path class="st10" d="m40.5 26.4c0.1-0.5 0.4-1.1 0.8-1.4 0.1-0.1 0.3-0.2 0.4-0.1l2.1 1.2-0.8 1.5-2.3-0.8c-0.1-0.2-0.2-0.3-0.2-0.4z"/>
	<path class="st10" d="m45.7 29.7 0.6-1.2 0.6 0.4c0.3 0.1 0.4 0.5 0.2 0.6l-0.1 0.3c-0.1 0.3-0.5 0.4-0.6 0.2l-0.7-0.3z"/>
	<path class="st10" d="m44.7 29.5 0.8-1.5 0.8 0.5c0.2 0.1 0.3 0.3 0.2 0.5l-0.5 1c-0.1 0.2-0.3 0.3-0.5 0.2l-0.8-0.7z"/>
	<path class="st11" d="m42.2 27.5 0.8-1.5c0.2-0.3 0.5-0.4 0.8-0.2l2.3 1.6c0.2 0.2 0.3 0.5 0.2 0.7l-0.7 1.2c-0.2 0.3-0.5 0.4-0.7 0.2l-2.4-1.3c-0.3 0-0.4-0.4-0.3-0.7z"/>
	<path class="st12" d="m44.2 28.6-0.4 0.8c-0.2 0.3 0.3 0.6 0.5 0.3l0.4-0.7c0.1-0.1 0-0.3-0.1-0.4-0.1-0.2-0.3-0.1-0.4 0z"/>
	<path class="st11" d="m44.4 29.1-0.2 0.4c0 0.1 0 0.2 0.1 0.2l0.2 0.1c0.1 0 0.2 0 0.2-0.1l0.2-0.4c0-0.1 0-0.2-0.1-0.2l-0.2-0.1c-0.1 0.1-0.2 0.1-0.2 0.1z"/>
	<path class="st12" d="m43.1 28.1-0.4 0.7c-0.1 0.2 0.1 0.7 0.5 0.3l0.4-0.7c0.1-0.2-0.1-0.7-0.5-0.3z"/>
	<path class="st1" d="m39.1 38.3 3.3-9 2 0.5s-2.1 8.9-2.3 9.9l-3-1.4z"/>
	<path class="st1" d="m43.1 27.4c0.5-0.6 0.8-0.9 1.2-1.3v-0.2h-0.2c-0.4 0.4-0.7 0.7-1.2 1.3v0.2h0.2z"/>
	<path class="st1" d="m44.2 27.2c0.2-0.4 0.3-0.5 0.3-0.6l0.3-0.3v-0.2h-0.2c-0.4 0.4-0.3 0.2-0.6 0.9l0.1 0.2h0.1z"/>
	<path class="st1" d="m44.7 27.7c0.3-0.8 0.3-0.8 0.6-1.2v-0.2h-0.2c-0.3 0.4-0.3 0.4-0.6 1.2l0.1 0.2h0.1z"/>
	<path class="st1" d="m44.7 29.5s-0.2-0.2 0.1-0.9c0.8-1.3-1.6-3.4-2.4-1-0.9 1.4 0.7 4.5 1.8 2.8 0.1-0.3 0.5-0.6 0.5-0.9z"/>
	<path class="st1" d="m44.5 29c0.3-0.6 0.5-1.4 1.2-1.7l0.1-0.2-0.2-0.1c-0.9 0.4-1.1 1.3-1.4 1.9l0.1 0.2 0.2-0.1z"/>
	<path class="st13" d="m44 26.6 0.5-0.5v-0.2h-0.2l-0.5 0.5v0.2h0.2z"/>
	<path class="st13" d="m44.5 26.9c0.1-0.2 0.3-0.4 0.4-0.4l0.1-0.1v-0.1 0.1-0.1 0.1l0.1-0.2-0.1-0.1s-0.4 0.1-0.7 0.7l0.1 0.2 0.1-0.1z"/>
	<path class="st13" d="m45 27.5 0.5-0.5v-0.2h-0.2l-0.5 0.5v0.2h0.2z"/>
	<path class="st1" d="m41 36.9c2.6 0 2.6 4 0 4s-2.6-4 0-4z"/>
	<path class="st1" d="m40.2 40.7-0.3-0.3 1.6-3.2c0.5 0.2 2.1 0.7 3.9 1.2 1.8 0.4 3.5 0.7 3.5 0.7l0.2 3.9-4.1-1.1-4.6-1.2h-0.2"/>
	<path class="st5" d="m45.7 44c-0.5-0.9-0.2-4.4 1-5.4 2.4 0.5 4.5 1.2 4.5 1.2 1 0.3 1.8 0.6 2.2 1.2 0.7 1.1 0.6 2.5-1.1 3-1.6 0.3-3.4 0.4-6.6 0z"/>
	<path class="st5" d="m52 40.1c2.3 0 2.3 3.6 0 3.6s-2.3-3.6 0-3.6z"/>
	<path class="st14" d="m85 57.3c-0.1 0.6-4.7 15.7-5.4 15.8-1.2 0.2-51-0.4-51.3-0.4-2.9-0.1-7.9-18.3-7.9-18.3 0-0.1-0.1-0.4-0.1-0.5l14.6 4.4 14.5 0.1h3.1l28.1 0.3 4.4-1.4z"/>
	<path class="st15" d="m85 57.3c-0.1 0.1-0.3 0.1-0.4 0.2l-1 0.5c-0.7 0.3-1.4 0.5-2.1 0.6-0.7 0.2-1.4 0.4-2.2 0.5l-2 0.2c-0.4 0.1-0.7 0.1-1.1 0.1 0 0-18.4 0.7-24 0.6-5.4-0.2-11-0.4-16.6-0.6-1.2-0.1-5.3-0.5-7.4-0.9-0.6-0.1-1.3-0.4-1.9-0.6-1.5-0.8-4.3-2.3-5.9-3.2-0.4-0.3-0.7-0.7-0.9-1.3-0.3-0.8-0.5-1.9-0.5-1.9s4.2 2.9 6.2 3.7c2.1 0.9 4.1 1.4 6.3 1.6 1.6 0.2 3.3 0.3 4 0.4 1.4 0.1 2.8 0.2 4.1 0.3l4.1 0.2c2.8 0.2 5.5 0.3 8.3 0.4 6 0 33-0.8 33-0.8z"/>
	<path class="st3" d="m50.4 30.5-1.2-0.9h-0.2c-0.1 0.2-0.3 0.5-0.2 0.5 0.4 0.1 1.1 0.3 1.6 0.4z"/>

</svg>
