<?xml version="1.0" encoding="UTF-8"?>
<svg enable-background="new 0 0 100 100" version="1.1" viewBox="0 0 100 100" xml:space="preserve" xmlns="http://www.w3.org/2000/svg">
<style type="text/css">
	.st0{fill:#FDBC03;}
	.st1{fill:#FFFFFF;}
	.st2{fill:#B08814;}
	.st3{fill:none;stroke:#B08814;stroke-width:2.6807;stroke-miterlimit:10;}
	.st4{fill:none;stroke:#7F3736;stroke-width:0.1913;stroke-miterlimit:10;}
	.st5{fill:none;stroke:#B08814;stroke-width:1.3404;stroke-miterlimit:10;}
	.st6{fill:#593084;}
	.st7{fill:#8565A8;}
	.st8{fill:#491D1D;}
	.st9{fill:none;stroke:#B08814;stroke-width:1.3403;stroke-linecap:round;stroke-linejoin:round;stroke-miterlimit:10;}
	.st10{fill:none;stroke:#FDBC03;stroke-width:2.0403;stroke-linecap:round;stroke-linejoin:round;stroke-miterlimit:10;}
</style>
<path class="st0" d="m74.2 55.1c-0.2 0.9-0.8 1.9-1.9 2.8-1.9 1.7-4.8 3.1-8.8 4-8.9 2.1-19.3 0.8-23.3-2.8-0.7-0.7-1.2-1.5-1.5-2.2-0.1-0.3-0.1-0.7-0.1-0.9 0.1-2 1.9-3.9 4.9-5.5 1.5-0.7 3.4-1.4 5.5-2 9-2.2 19.7-1 23.6 2.8 0.8 0.7 1.3 1.6 1.4 2.4 0.3 0.4 0.3 0.9 0.2 1.4z"/>
<path class="st0" d="m74.4 49.2-0.2 5.2c-0.2 0.9-1.6 2.6-2.5 3.4l-33-1.9 0.2-5.7 35.5-1z"/>

	<path class="st1" d="m57.7 45.5v0.3c3.5 0 6.6 0.8 8 2.2 0.7 0.7 0.9 1.4 0.7 2.1-0.5 1.6-2.7 3.1-6 3.8-1.7 0.4-3.4 0.7-5.2 0.7-3.5 0-6.6-0.8-8-2.2-0.7-0.7-0.9-1.4-0.7-2.1 0.4-1.6 2.6-3 5.9-3.8 1.7-0.5 3.5-0.7 5.3-0.7v-0.3m0 0c-1.8 0-3.6 0.2-5.4 0.7-5.1 1.3-7.4 4.2-5.1 6.3 1.5 1.5 4.7 2.2 8.1 2.2 1.8 0 3.5-0.2 5.2-0.7 5.1-1.3 7.5-4.1 5.3-6.3-1.4-1.4-4.6-2.2-8.1-2.2z"/>

<path class="st2" d="m53.2 42.5-7.4 1.9c-0.4 0.1-0.9 0-1.2-0.2l-0.4-0.5c-0.3-0.3-0.1-0.6 0.3-0.7l7.4-1.9c0.5-0.1 0.9 0 1.2 0.2l0.5 0.5c0.2 0.3 0 0.6-0.4 0.7z"/>
<path class="st0" d="m72.3 46.2c3.8 3.7-0.3 8.5-8.9 10.6s-18.6 0.9-22.4-2.7 0-8.5 8.6-10.6c8.7-2.3 18.9-1.1 22.7 2.7z"/>
<path class="st3" d="m72.3 46.2c3.8 3.7-0.3 8.5-8.9 10.6s-18.6 0.9-22.4-2.7 0-8.5 8.6-10.6c8.7-2.3 18.9-1.1 22.7 2.7z"/>

	
		<line class="st4" x1="49" x2="64.1" y1="55" y2="45.3"/>
	
	
		<line class="st4" x1="46.5" x2="66.5" y1="47.4" y2="53"/>
	
	
		<line class="st4" x1="57.7" x2="55.3" y1="44.5" y2="55.8"/>
	
	
		<line class="st4" x1="68.9" x2="44.1" y1="50.1" y2="50.1"/>
	

<path class="st5" d="m67.8 47.4c2.7 2.7-0.2 6.1-6.4 7.6-6.1 1.5-13.3 0.7-16.1-2-2.8-2.6 0-6.1 6.2-7.6 6.2-1.6 13.6-0.7 16.3 2z"/>
<path class="st0" d="m57.4 31.5c3.9 3.8-0.1 8.7-8.8 11-8.7 2.2-18.7 1-22.7-2.7-3.9-3.7-0.2-8.7 8.5-11 8.8-2.4 19.1-1.1 23 2.7z"/>
<path class="st3" d="m57.4 31.5c3.9 3.8-0.1 8.7-8.8 11-8.7 2.2-18.7 1-22.7-2.7-3.9-3.7-0.2-8.7 8.5-11 8.8-2.4 19.1-1.1 23 2.7z"/>
<path class="st2" d="m53 32.7c2.8 2.7-0.1 6.2-6.3 7.9-6.2 1.6-13.5 0.7-16.3-2s-0.1-6.2 6.1-7.9c6.2-1.6 13.7-0.8 16.5 2z"/>
<path class="st2" d="m60 49.3c0.8 0.8 0 1.9-2 2.3-1.9 0.5-4.1 0.2-4.9-0.6s0-1.9 2-2.3c1.8-0.5 4-0.2 4.9 0.6z"/>
<path class="st6" d="m50.6 44.5s-0.1 0.1 0 0l4.4 6h0.1l1.6 0.7h0.2l1.3-0.3c0.1 0 0.1 0 0.1-0.1l-0.2-1-7-5.2c-0.3-0.1-0.4-0.1-0.5-0.1z"/>
<polygon class="st6" points="62.5 55.7 62.1 55.8 55.1 50.5 54.8 49.5 56.3 49.1 57.9 49.9"/>
<path class="st7" d="m57.7 49.9c0.3 0.3 0 0.7-0.7 0.8-0.7 0.2-1.5 0.1-1.8-0.2s0-0.7 0.7-0.8c0.7-0.2 1.5-0.1 1.8 0.2z"/>
<path class="st2" d="m69.5 62-1.9 0.5c-0.3 0.1-0.7 0-0.9-0.2l-1.5-1.4c-0.2-0.2-0.1-0.4 0.3-0.5l2-0.5c0.3-0.1 0.7 0 0.9 0.2l1.5 1.4c0 0.2-0.1 0.4-0.4 0.5z"/>
<path class="st2" d="m69.5 63.2-1.9 0.5c-0.3 0.1-0.7 0-0.9-0.2l-1.5-1.4c-0.2-0.2 0-1.6 0.3-1.7l1.9 0.7c0.3-0.1 0.7 0 0.9 0.2l1.5 0.2c0.2 0.2 0 1.7-0.3 1.7z"/>
<ellipse class="st8" transform="matrix(.027755 -.9996 .9996 .027755 2.269 126.86)" cx="66.3" cy="62.3" rx=".7" ry=".3"/>
<path class="st9" d="m67.7 61.5c0.7-0.3 1.4-0.4 2.1-0.4 3.4 0.1 5.9 2.9 5.9 6.1-0.1 3.4-2.9 5.9-6.1 5.9-3.4-0.1-5.9-2.9-5.9-6.1 0.1-2 1-3.7 2.5-4.7"/>
<path class="st10" d="m67.7 62c0.7-0.3 1.4-0.4 2.1-0.4 3.4 0.1 5.9 2.9 5.9 6.1-0.1 3.4-2.9 5.9-6.1 5.9-3.4-0.1-5.9-2.9-5.9-6.1 0.1-2 1-3.7 2.5-4.7"/>
</svg>
