<?xml version="1.0" encoding="UTF-8"?>
<svg enable-background="new 0 0 100 100" version="1.1" viewBox="0 0 100 100" xml:space="preserve" xmlns="http://www.w3.org/2000/svg">
<style type="text/css">
	.st0{fill:#FFDB1D;}
	.st1{fill:#DD5167;}
	.st2{fill:#FFC41D;}
	.st3{fill:#C1726C;}
	.st4{fill:#FFEED4;}
	.st5{fill:#FFFFFF;}
</style>

	<path class="st0" d="m42.9 45.4c-4-2.1-8.7-0.9-5.6-4.4 3-3.5 8.8-4.6 12.8-2.5s4.9 6.7 1.8 10.2-5-1.2-9-3.3z"/>

<path class="st1" d="m43.2 68.6h-6.1c-1.8 0-3.3-1.5-3.3-3.3v-6.1c0-1.8 1.5-3.3 3.3-3.3h6.1c1.8 0 3.3 1.5 3.3 3.3v6.1c0.1 1.8-1.4 3.3-3.3 3.3z"/>
<path class="st1" d="m60.6 47.4h-6.1c-1.8 0-3.3-1.5-3.3-3.3v-6.1c0-1.8 1.5-3.3 3.3-3.3h6.1c1.8 0 3.3 1.5 3.3 3.3v6.1c0.1 1.8-1.4 3.3-3.3 3.3z"/>

	<path class="st2" d="m35.5 57.8c-4.3 1.6-6.5 5.8-7 1.2-0.6-4.6 2.5-9.6 6.8-11.2s8.2 0.9 8.8 5.5c0.4 4.7-4.3 3-8.6 4.5z"/>

<path class="st1" d="m49.6 59.7h-6.1c-1.8 0-3.3-1.5-3.3-3.3v-6.1c0-1.8 1.5-3.3 3.3-3.3h6.1c1.8 0 3.3 1.5 3.3 3.3v6.1c0 1.8-1.4 3.3-3.3 3.3z"/>

	<path class="st3" d="m44.1 55.9c-2.6 1.9-3.2 4.3-4.6 2.6-1.5-1.7-0.5-4.6 2.1-6.5s5.9-2 7.4-0.3c1.4 1.6-2.3 2.3-4.9 4.2z"/>


	<path class="st2" d="m50.8 52.5c-4.3 1.6-6.5 5.8-7 1.2s2.5-9.6 6.8-11.2 8.2 0.9 8.8 5.5-4.3 3-8.6 4.5z"/>


	<path class="st0" d="m58.2 55.2c-4.3 1.6-6.5 5.8-7 1.2-0.6-4.6 2.5-9.6 6.8-11.2s8.2 0.9 8.8 5.5-4.3 2.9-8.6 4.5z"/>


	<path class="st2" d="m51.1 65.2c-4.3 1.6-6.5 5.8-7 1.2s2.5-9.6 6.8-11.2 8.2 0.9 8.8 5.5c0.4 4.6-4.3 2.9-8.6 4.5z"/>

<path class="st4" d="m39.7 64c-0.7 0.5-0.4 3.7 1.3 4.9 2.6 1.8 7.1-2.1 7-2.7-0.1-0.3-1.4 0.5-3.5 0.1-2.9-0.5-4.1-2.8-4.8-2.3z"/>
<polygon class="st5" points="52.4 60.1 52.9 62.2 55 61.6 55 60.1 53.7 60.1"/>
<polygon class="st5" points="58 50.4 60 51.3 60.8 49.4 59.6 48.4 58.8 49.4"/>
<path class="st1" d="m63.4 64.9h-6.1c-1.8 0-3.3-1.5-3.3-3.3v-6.1c0-1.8 1.5-3.3 3.3-3.3h6.1c1.8 0 3.3 1.5 3.3 3.3v6.1c0.1 1.8-1.4 3.3-3.3 3.3z"/>
<path class="st4" d="m59.7 64.9c-0.2 0.8 2.1 3.1 4.1 3 3.1-0.2 4.2-6.1 3.7-6.5-0.3-0.2-0.8 1.3-2.6 2.3-2.7 1.4-5 0.4-5.2 1.2z"/>
<path class="st4" d="m39.9 57.8c-0.3 0.8 1.5 3.4 3.6 3.6 3.1 0.3 5.2-5.4 4.7-5.8-0.2-0.2-1 1.1-3 1.8-2.8 1-5-0.4-5.3 0.4z"/>
<polygon class="st5" points="51.3 45 53.3 46 54.2 44.1 53 43.1 52.1 44.1"/>
<polygon class="st5" points="42.4 48.3 42.9 50.4 45 49.9 45 48.3 43.7 48.3"/>

	<path class="st3" d="m65.4 57.2c-2.3-2.3-4.7-2.5-3.2-4.2s4.5-1.2 6.8 1.1 2.9 5.5 1.4 7.2c-1.5 1.8-2.8-1.8-5-4.1z"/>

<polygon class="st5" points="43.4 60.9 42.4 62.9 44.3 63.8 45.4 62.6 44.4 61.7"/>
<path class="st4" d="m52.3 56.6c-0.3 0.8 1.5 3.4 3.6 3.6 3.1 0.3 5.2-5.4 4.7-5.8-0.2-0.2-1 1.1-3 1.8-2.8 1-5-0.4-5.3 0.4z"/>
<path class="st4" d="m52.3 56.6c-0.3 0.8 1.5 3.4 3.6 3.6 3.1 0.3 5.2-5.4 4.7-5.8-0.2-0.2-1 1.1-3 1.8-2.8 1-5-0.4-5.3 0.4z"/>
<path class="st4" d="m60 68.7c0.8-0.3 1.5-3.4 0.3-5-1.9-2.5-7.4-0.2-7.4 0.4 0 0.3 1.5-0.1 3.4 1 2.5 1.4 3 3.9 3.7 3.6z"/>
<path class="st4" d="m50 69.4c0.5 0.7 3.7 0.2 4.8-1.5 1.7-2.6-2.4-7-3-6.8-0.3 0.1 0.6 1.4 0.3 3.5-0.4 2.8-2.6 4.2-2.1 4.8z"/>
<polygon class="st5" points="60.6 59.5 59.7 61.4 61.6 62.3 62.6 61.1 61.6 60.3"/>
<polygon class="st5" points="62.3 51 62.9 53.1 64.9 52.6 64.9 51 63.6 51"/>
<path class="st4" d="m51 42.7c0.4 0.8 3.6 0.9 5-0.5 2.2-2.3-1-7.4-1.6-7.3-0.3 0 0.3 1.5-0.4 3.5-1 2.7-3.4 3.6-3 4.3z"/>
<polygon class="st5" points="34.6 53.9 35.1 56 37.2 55.5 37.2 53.9 35.9 53.9"/>
</svg>
