<?xml version="1.0" encoding="UTF-8"?>
<svg enable-background="new 0 0 100 100" version="1.1" viewBox="0 0 100 100" xml:space="preserve" xmlns="http://www.w3.org/2000/svg">
<style type="text/css">
	.st0{fill:#FDBC03;}
	.st1{fill:#E5E5E5;}
	.st2{fill:#C1726C;}
	.st3{fill:#4D4D4D;}
	.st4{fill:none;stroke:#474747;stroke-width:3;stroke-linecap:round;stroke-linejoin:round;stroke-miterlimit:10;}
	.st5{fill:#474747;}
	.st6{fill:none;stroke:#545454;stroke-width:3;stroke-linecap:round;stroke-linejoin:round;stroke-miterlimit:10;}
	.st7{fill:none;stroke:#515151;stroke-width:3;stroke-linecap:round;stroke-linejoin:round;stroke-miterlimit:10;}
	.st8{fill:#545454;}
	.st9{fill:#FFAC86;}
	.st10{fill:#E59170;}
	.st11{fill:#333333;}
	.st12{fill:#383838;}
</style>
<path class="st0" d="m45.6 33.7-2.5 2c-0.4 0.3-1.3 0.2-1.9-0.4l-0.5-0.5c-0.6-0.6-0.7-1.4-0.3-1.7l2.5-2c0.4-0.3 1.3-0.2 1.9 0.4l0.5 0.5c0.6 0.5 0.7 1.2 0.3 1.7z"/>
<ellipse class="st1" cx="51.5" cy="69.3" rx="30.1" ry="7.7"/>

	<path class="st0" d="m42 65.4-3 0.8c-0.5 0.2-1.1-0.2-1.3-0.5l-0.2-0.4c-0.2-0.4 0.2-0.9 0.7-1.1l3-0.8c0.5-0.2 1.1 0.2 1.3 0.5l0.2 0.4c0.1 0.5-0.2 0.9-0.7 1.1z"/>
	<path class="st0" d="m34.5 66.8-2.2-0.9c-0.2-0.1-0.3-0.3-0.2-0.4l0.1-0.1c0.1-0.2 0.3-0.3 0.5-0.2l2.2 0.9c0.2 0.1 0.3 0.3 0.2 0.4l-0.1 0.1c-0.2 0.3-0.3 0.3-0.5 0.2z"/>
	<path class="st0" d="m49.1 63.5-2.5 0.3c-0.3 0-0.4-0.1-0.4-0.3v-0.2c0-0.2 0.2-0.3 0.3-0.4l2.5-0.3c0.3 0 0.4 0.1 0.4 0.3v0.1c0.1 0.3-0.1 0.5-0.3 0.5z"/>
	
		<path class="st2" d="m37.7 66.8c-0.7-0.6-1.6-0.6-0.8-1.2 0.7-0.6 1.9-0.5 2.5 0.1s0.6 1.6-0.1 2.1c-0.7 0.7-0.9-0.4-1.6-1z"/>
	
	
		<path class="st2" d="m34.1 68.3c-1 0.2-1.5 0.5-1.6 0.1s0.6-0.9 1.6-1.1 1.9 0.2 2 0.6c0 0.4-1 0.4-2 0.4z"/>
	
	
		<path class="st2" d="m44.1 66.3c-1-0.1-1.6 0.1-1.6-0.3s0.8-0.4 1.9-0.4c1 0.1 1.8 0.4 1.8 0.7-0.2 0.3-1.2 0-2.1 0z"/>
	
	
		<path class="st2" d="m47.5 64.4c-1-0.1-1.6 0.1-1.6-0.2s0.8-0.4 1.9-0.4 1.8 0.4 1.8 0.7-1.1-0.1-2.1-0.1z"/>
	

<path class="st3" d="m68.1 71.1c-5.1-0.3-7.6-9.2-10.2-18.2-0.2-0.4-0.3-0.9-0.4-1.4-2.1-8-2.8-15.6-0.6-18.7 0.9-1.3 2.2-2 4.2-1.4 5 1.1 15.7 13.1 15.3 22.5-0.4 9.3-3.2 17.4-8.3 17.2z"/>
<path class="st4" d="m58.2 71s-2.5 0.8-2.8 1.5"/>
<path class="st4" d="m56.6 71s-3 0.9-3.2 1.4"/>
<path class="st4" d="m51.5 71.7s1.2-0.7 1.6-0.8c0.4-0.3 3.2-0.3 3.2-0.3"/>
<path class="st5" d="m63.7 69.8c-1.8-3.1-3.7-6.2-5.8-9.1-2.1-3-4.4-5.6-7-8.2l5.1-3.5 4.2 20.6c0.2 0.8-0.4 1.6-1.2 1.9-0.8 0.2-1.4-0.3-1.8-0.9l-7.5-19.7c-0.6-1.6 0.2-3.5 1.9-4.1 0.9-0.4 2-0.3 2.8 0.3l0.4 0.3c3.4 2 6.7 4.3 9.7 6.9s6 5.3 8.8 8l0.1 0.1c2.4 2.5 2.3 6.4-0.2 8.8s-6.4 2.3-8.8-0.2c-0.1-0.3-0.3-0.8-0.7-1.2z"/>

	<polyline class="st6" points="43.2 39.9 41.5 37.1 41.3 34.2"/>

<line class="st6" x1="44.8" x2="44.4" y1="35.7" y2="39"/>
<polyline class="st7" points="44.1 39.5 42.7 36.5 43 34.2"/>

	<path class="st8" d="m57.5 33 3.8 17c0.4 1.9-0.8 3.7-2.5 4.1-0.7 0.2-1.4 0.1-2-0.2h-0.1c-1.9-0.8-3.1-1.9-4.5-3-1.3-1.1-2.5-2.1-3.7-3.2-1.2-1.2-2.2-2.3-3.2-3.5-1.1-1.2-2.1-2.4-3-3.7-0.6-0.8-0.4-2.1 0.4-2.7 0.8-0.5 1.8-0.4 2.5 0.2 2.1 2 4.4 3.8 6.8 5.5 1.3 0.8 2.4 1.6 3.7 2.3s2.5 1.3 3.5 1.5l-4.6 3.8-2.7-17.1c-0.3-1.6 0.8-3 2.5-3.4 1.4-0.1 2.7 0.9 3.1 2.4z"/>

<path class="st3" d="m63.7 27.7c-0.4 1.1-1.3 2-2.1 2.5-0.4 0.3-0.9 0.5-1.5 0.8-5.4 2.6-15.5 5.2-11.6-3.8 0.5-1.3-0.8-3.2-1-3.7v-0.1c-0.5-2 0.8-4.7 2.1-5.7 1.3-0.9 2.6-1.4 4-1.8 5.3-1.1 10.6 2 11.3 5.3 0.2 2.4 0.5 2.9-1.2 6.5z"/>
<path class="st1" d="m60 29.1c-0.3 1.4-1.3 2.6-2.5 3-5.5 2.1-12.5 3-9.2-4.7 0.5-1.3-0.8-3.2-1-3.7v-0.1c-0.5-2 0.8-4.7 2.1-5.7 1.3-0.9 2.6-1.4 4-1.8 3.7 0.8 7.7 7.5 6.6 13z"/>

	<path class="st9" d="m53.3 22.1c-0.5 2.1-0.4 5.3 1.3 5.8 1.8 0.5 5.3-2.5 5.8-4.6s-1.2-4.1-3-4.2c-2.2-0.2-3.6 0.9-4.1 3z"/>
	
		<path class="st10" d="m59.9 22.6c-1 0.2-1.7 0.3-2.2 0.4-0.5 0.3-0.8 0.4-1.1 0.6s-0.7 0.6-1.2 1c-0.3 0.3-0.5 0.4-0.8 0.8-0.3 0.3-0.6 0.5-1.1 0.8-0.2-0.4-0.4-0.8-0.4-1.3-0.1-0.4 0-0.9 0-1.4 0.3-0.9 0.6-1.9 1.5-2.5 0.9-0.7 2.2-0.9 3.2-0.5 1.1 0.4 1.8 1 2.1 2.1z"/>
	
	
		<path class="st10" d="m56.1 25.5c-0.6-0.4-0.9-0.7-1.2-0.9-0.3-0.3-0.4-0.4-0.4-0.5 0-0.2 0.1-0.1 0.3-0.2 0.3-0.1 0.4-0.5 0.1-1.2 0.2-0.3 0.3-0.6 0.7-0.7 0.3-0.2 0.7-0.1 1 0.1 0.7 0.3 1 0.9 1.1 1.4s0 0.9-0.3 1.3c-0.1 0.3-0.6 0.6-1.3 0.7z"/>
	

<path class="st1" d="m53.3 21s2.1-0.8 2.5-0.7c0.4 0.3-2.5 1.8-2.6 2s1.6-0.2 1.4 0.3c-0.2 0.4-1.5 1.1-1.5 1.9s1.4 0.3 1.4 1.3c0.1 1 0.2 2-0.2 2.6-0.3 0.3-3.2-5.3-1-7.4z"/>
<path class="st9" d="m48.5 33c0.6 0.4 1.3 0.3 1.9-0.3 2-2.1-0.4-2.8 0.3-4.7 0.4-1.3 0.8-1.4 0.6-2.2-0.4-4.6-4.2-4.7-3.9-2v0.1c0.2 0.3 1.2 2.9 0.3 3.7-0.3 0.2-0.4 0.4-0.7 0.5-0.6 0.5-0.5 1.5-0.2 2.3 0.4 0.8 0.7 2 1.7 2.6z"/>

	<path class="st11" d="m49.6 25.2c0.1 0.5-0.2 1-0.6 1.2s-0.3-0.3-0.4-0.8-0.4-1 0-1.1 0.8 0.2 1 0.7z"/>


	
		
			
				<path class="st12" d="m55.9 57.5c0.4 0 0.9 0.1 1.4 0.2 0.3 0 0.4 0.1 0.7 0.1 0.3 0.1 0.4 0.1 0.7 0.2-0.3 0.2-0.4 0.3-0.7 0.3s-0.4 0-0.7 0c-0.3-0.1-0.4-0.1-0.7-0.3-0.2-0.2-0.4-0.3-0.7-0.5z"/>
			
		
	


	
		
			
				<path class="st12" d="m65.1 41c-0.3-0.4-0.7-0.7-1-0.8-0.2-0.1-0.4-0.2-0.5-0.3s-0.4-0.1-0.6-0.2c0.2-0.2 0.4-0.3 0.7-0.3s0.5 0.1 0.7 0.3c0.3 0.2 0.4 0.3 0.5 0.5 0.2 0.2 0.3 0.4 0.2 0.8z"/>
			
		
	

</svg>
