<?xml version="1.0" encoding="UTF-8"?>
<svg enable-background="new 0 0 100 100" version="1.1" viewBox="0 0 100 100" xml:space="preserve" xmlns="http://www.w3.org/2000/svg" xmlns:xlink="http://www.w3.org/1999/xlink">
<style type="text/css">
	.st0{fill:#E2E2E2;}
	.st1{fill:#C4C4C4;}
	.st2{stroke:#000000;stroke-width:0.3;stroke-linecap:round;stroke-miterlimit:10;}
	.st3{fill:none;}
	.st4{fill:#456900;}
	.st5{fill:#5B8206;}
</style>
<ellipse class="st0" cx="50" cy="60.9" rx="23" ry="5.8"/>
<ellipse class="st1" cx="48.9" cy="57.6" rx="8.5" ry="1.3"/>
<path class="st2" d="m73.3 34.5c-0.2 0.1-0.3 0.3-0.5 0.4"/>
<path class="st3" d="m46.3 50v0 0z"/>
<path class="st3" d="m51.3 47.2c-1.3 0.2-2.5 0.6-3.4 1.1-0.5 0.3-0.9 0.6-1.1 0.9-0.1 0.1-0.2 0.3-0.3 0.4s-0.1 0.2-0.1 0.3v0.1s0.1 0.2 0.4 0.3c0.3 0.2 0.8 0.4 1.3 0.5s1.3 0.2 1.7 0.2c1 0 1.7-0.3 2.5-0.9 0.7-0.6 1.4-1.6 1.9-2.8 0-0.1 0-0.1 0.1-0.2-1.1-0.1-2.1 0-3 0.1z"/>
<path class="st4" d="m46.3 50z"/>

	<defs>
		<path id="a" d="m67.9 31.2h-1-0.8c-0.5 0-1.1 0.1-1.6 0.2-1.1 0.2-2.2 0.6-3.2 1.2-2.1 1.1-3.8 3.1-4.6 5.2-0.4 0.9-0.6 1.7-0.8 2.6-1.8-0.2-3.7-0.1-5.6 0.2-2 0.3-4 0.9-5.9 2.1-0.9 0.6-1.9 1.3-2.7 2.2-0.4 0.5-0.8 1-1.2 1.6-0.3 0.6-0.6 1.3-0.8 2-0.3 1.2-0.2 2.5 0.2 3.8 0.1 0.3 0.2 0.6 0.4 0.9 0.8 1.5 2 2.5 3.1 3.1s2.2 0.9 3.3 1.2c1.1 0.2 2 0.3 3.2 0.3 1.2-0.1 2.3-0.2 3.5-0.7 1.1-0.4 2.2-1.1 3.1-1.9 1.8-1.6 2.9-3.5 3.6-5.3 0.2-0.5 0.4-0.9 0.5-1.4 0.5-1.4 0.8-2.8 1-4l0.4-2.4c0-0.1 0.1-0.3 0.1-0.4 0.1-0.4 0.2-0.9 0.4-1.3 0.4-1 1-1.7 1.8-2.1 0.4-0.2 0.9-0.4 1.4-0.5 0.3 0 0.5-0.1 0.8-0.1h0.4 0.2c1.2 0.1 3.3-0.5 4.6-1.4 0.6-0.4 1-1 1.1-1.5 0.3-2-3.2-3.4-4.9-3.6zm-21.5 18.7c0-0.1 0-0.2 0.1-0.3s0.1-0.2 0.3-0.4c0.2-0.3 0.6-0.6 1.1-0.9 0.9-0.5 2.1-1 3.4-1.1 0.9-0.1 1.9-0.2 2.9-0.2 0 0.1 0 0.1-0.1 0.2-0.5 1.2-1.2 2.2-1.9 2.8s-1.5 0.8-2.5 0.9c-0.5 0-1.2-0.1-1.7-0.2-0.6-0.1-1-0.3-1.3-0.5-0.2-0.1-0.3-0.2-0.3-0.3-0.1 0.1-0.1 0.1 0 0z"/>
	</defs>
	<use fill="#456900" xlink:href="#a"/>
	<clipPath>
		<use xlink:href="#a"/>
	</clipPath>

<path class="st4" d="m61.6 44.3c-0.2 1.3-0.5 2.7-1 4.1 0.8 0.3 1.4 0.7 1.9 1.1 0.7 0.6 1.2 1.3 1.3 2.2 0 0.2 0.1 0.5 0.1 0.7v0.4 0.2 0.1c0 0.2-0.1 0.6-0.4 1-0.5 0.8-1.3 1.7-2.4 2.4-2.1 1.5-4.9 2.5-7.7 2.9-2.8 0.5-5.9 0.5-8.9 0.2-3-0.4-6-0.9-8.7-2-1.3-0.5-2.6-1.2-3.5-1.9-0.5-0.4-0.6-0.5-1-1.1-0.3-0.5-0.6-1-0.8-1.5-0.4-1.1-0.5-2.1-0.2-3 0.3-1 1-2 2.1-2.8s2.5-1.5 3.9-2c0.3-0.1 0.7-0.3 1.2-0.4 0.4-0.1 0.8-0.3 1.2-0.4 0.8-0.3 1.6-0.6 2.4-1s1.6-0.8 2.3-1.3 1.5-1.2 2-2.2c0.3-0.5 0.4-1.2 0.3-1.8s-0.4-1.2-0.8-1.6-0.8-0.7-1.3-0.9c-0.2-0.1-0.5-0.2-0.8-0.2s-0.5 0-0.7-0.1c-1.7-0.1-3.4 0.1-5 0.1-0.8 0-1.6-0.1-2.3-0.3s-1.4-0.6-1.9-1.1c-0.2-0.1-0.4-0.2-0.6 0s-0.2 0.4 0 0.6c1.2 1.4 3.1 1.8 4.8 2s3.3 0.1 4.9 0.3c0.2 0 0.4 0.1 0.5 0.1s0.2 0.1 0.4 0.2c0.3 0.1 0.5 0.3 0.6 0.6 0.3 0.5 0.3 0.8 0 1.2s-0.8 0.9-1.5 1.2c-0.6 0.3-1.3 0.6-2.1 0.9-0.7 0.2-1.5 0.4-2.3 0.6-0.4 0.1-0.8 0.2-1.2 0.2l-1.2 0.2c-1.7 0.3-3.5 0.8-5.2 1.7s-3.5 2.2-4.6 4.2-1.3 4.5-0.8 6.6c0.2 1.1 0.6 2.1 1.2 3 0.5 0.9 1.4 2 2.2 2.7 1.7 1.4 3.3 2.3 5 3 3.4 1.5 6.8 2.3 10.4 2.8 7 0.9 14.7 0.4 21.4-4.1 1.6-1.2 3.2-2.6 4.4-4.6 0.6-1 1.1-2.2 1.3-3.6l0.1-0.5v-0.4-0.9c0-0.6-0.1-1.2-0.2-1.7-0.4-2.4-1.9-4.6-3.6-6.1-1.6-1.4-3.3-2.2-5-2.8 0 0.1-0.1 0.3-0.1 0.4l-0.1 2.4z"/>
<ellipse cx="69.7" cy="33.9" rx=".8" ry=".4"/>

	<path d="m71.8 34.8c0.3 0 0.7 0 1-0.1"/>
	<path d="m71.8 34.5c0.3 0 0.7 0.1 1 0 0.1 0 0.2 0 0.2 0.1s0 0.1-0.1 0.2c-0.3 0.2-0.7 0.2-1 0.2-0.2 0-0.3-0.1-0.3-0.2-0.1-0.2 0-0.3 0.2-0.3-0.1 0 0 0 0 0z"/>

<path class="st2" d="m72.8 34.8c0.2 0.1 0.3 0.2 0.5 0.3"/>
<path class="st5" d="m71.8 36c-1.3 1-3.5 1.6-4.6 1.4h-0.2-0.4c-0.3 0-0.5 0.1-0.8 0.1-0.5 0.1-1 0.3-1.4 0.5-0.8 0.5-1.4 1.1-1.8 2.1-0.2 0.4-0.3 0.8-0.4 1.3 0 0.1-0.1 0.3-0.1 0.4l-0.4 2.4c-0.2 1.3-0.5 2.7-1 4-0.1 0.5-0.3 0.9-0.5 1.4-0.7 1.8-1.9 3.7-3.6 5.3-0.9 0.8-2 1.4-3.1 1.9-1.2 0.5-2.3 0.6-3.5 0.7-1.2 0-2.1-0.1-3.2-0.3s-2.2-0.5-3.3-1.2c-1.1-0.6-2.3-1.6-3.1-3.1-0.2-0.3-0.3-0.6-0.4-0.9l1.4 2.1c5.1 4.1 12.1 2.7 14 1 5.2-4.5 5.5-12.3 6.2-13.9 0.6-1.6 0.3-5.7 3.3-4.7 3.4 1.1 6.9-0.5 6.9-0.5z"/>
</svg>
