<?xml version="1.0" encoding="utf-8"?>
<!-- Generator: Adobe Illustrator 23.1.1, SVG Export Plug-In . SVG Version: 6.00 Build 0)  -->
<svg version="1.1" id="Layer_1" xmlns="http://www.w3.org/2000/svg" xmlns:xlink="http://www.w3.org/1999/xlink" x="0px" y="0px"
	 viewBox="0 0 100 100" style="enable-background:new 0 0 100 100;" xml:space="preserve">
<style type="text/css">
	.st0{fill:#7F7F7F;}
	.st1{fill:none;}
</style>
<g>
	<path class="st0" d="M28.35,72.62c2.46,1.67,5.01,2.73,7.46,3.37l-10.13,4.75c-3.43,1.6-7-1.9-5.45-5.35l3.23-7.18
		C24.89,69.9,26.53,71.38,28.35,72.62z"/>
	<path class="st0" d="M51.92,68.45L39,74.51h-0.01c-3.01-0.45-6.32-1.51-9.46-3.64c-1.94-1.31-3.65-2.93-5.11-4.82l4.9-10.94
		c2.13,4.05,5.04,6.77,7.64,8.56C41.92,67.07,47.07,68.36,51.92,68.45z"/>
	<g>
		<path class="st0" d="M61.9,54.92c-0.18,0.03-0.35,0.07-0.53,0.12c-0.63,0.15-1.15,0.32-1.51,0.47c2,3.22,2.59,5.45,2.35,6.08
			c-0.05,0.02-0.16,0.04-0.35,0.04c-2.37,0-8.05-3.17-13.93-9.06c-7.39-7.38-9.45-13.18-9.02-14.28c0.05-0.01,0.17-0.03,0.36-0.03
			c1.21,0,3.3,0.84,5.84,2.44c0.11-0.36,0.23-0.86,0.35-1.47c0.04-0.2,0.07-0.42,0.11-0.65c-2.52-1.52-4.73-2.37-6.29-2.37
			c-0.77,0-1.39,0.2-1.81,0.62c-0.37,0.37-0.57,0.88-0.6,1.51c-0.01,0.01-0.01,0.01-0.01,0.02l-6.37,14.19
			c1.97,4.57,5,7.51,7.69,9.35c6.41,4.39,13.19,4.98,19.11,4.04l4.91-2.31h0.01l0.01-0.01c0.6-0.03,1.1-0.23,1.46-0.59
			C64.94,61.76,64.16,58.68,61.9,54.92z"/>
	</g>
	<g>
		<path class="st0" d="M49.35,41.2c-0.23,0.92-0.5,1.65-0.67,2.07c-0.04,0.11-0.07,0.19-0.11,0.25c-0.21,0.5-0.7,0.8-1.22,0.8
			c-0.17,0-0.35-0.04-0.52-0.12c-0.67-0.29-0.98-1.06-0.7-1.73c0.07-0.17,0.19-0.47,0.33-0.86c0.18-0.53,0.38-1.26,0.54-2.11
			c0.39-2.13,0.42-5.05-1.18-7.8c-0.89-1.51-2.15-2.77-3.74-3.73c-0.62-0.38-0.83-1.2-0.44-1.82c0.25-0.41,0.69-0.63,1.13-0.63
			c0.22,0,0.47,0.06,0.68,0.19c1.98,1.2,3.55,2.76,4.67,4.67c1.21,2.06,1.67,4.18,1.73,6.11C49.93,38.31,49.67,39.95,49.35,41.2z"/>
	</g>
	<g>
		<path class="st0" d="M74.85,58.36c-0.22,0.15-0.48,0.22-0.72,0.22c-0.43,0-0.86-0.21-1.11-0.6c-1.02-1.57-2.32-2.78-3.86-3.63
			c-1.7-0.92-3.46-1.24-5.04-1.24c-0.3,0-0.58,0.01-0.86,0.03c-0.83,0.05-1.6,0.19-2.26,0.35c-0.85,0.2-1.54,0.44-2.03,0.65
			c-0.25,0.1-0.44,0.19-0.57,0.24c-0.18,0.08-0.38,0.13-0.57,0.13c-0.5,0-0.96-0.28-1.2-0.76c-0.15-0.32-0.16-0.67-0.05-0.97
			c0.11-0.34,0.35-0.62,0.7-0.78c0.02-0.01,0.04-0.02,0.07-0.03c0.35-0.17,1.06-0.47,2-0.75c0.92-0.28,2.07-0.55,3.37-0.67
			c0.45-0.04,0.92-0.06,1.4-0.06c1.97,0,4.16,0.39,6.29,1.56c1.94,1.05,3.55,2.56,4.81,4.5C75.63,57.15,75.46,57.97,74.85,58.36z"/>
	</g>
	<path class="st0" d="M62.3,33.87L57,42.16l-2.38,3.7l-0.07,0.12c-0.24,0.36-0.63,0.57-1.04,0.6c-0.26,0.01-0.55-0.05-0.79-0.21
		c-0.61-0.39-0.79-1.21-0.4-1.83L52.66,44l2.24-3.5l5.17-8.05c0.39-0.61,1.22-0.79,1.83-0.4C62.52,32.44,62.7,33.26,62.3,33.87z"/>
	<path class="st0" d="M73.54,38.39L62.03,47c-0.01,0.01-0.03,0.02-0.04,0.03c-0.23,0.17-0.52,0.24-0.78,0.23
		c-0.39-0.01-0.77-0.19-1.03-0.53c-0.43-0.58-0.32-1.41,0.26-1.85l11.51-8.61c0.58-0.44,1.41-0.32,1.85,0.26
		C74.24,37.12,74.13,37.96,73.54,38.39z"/>
	<path class="st0" d="M72.66,30.78c-2.52,0-4.57-2.05-4.57-4.57s2.05-4.57,4.57-4.57c2.52,0,4.57,2.05,4.57,4.57
		S75.18,30.78,72.66,30.78z M72.66,23.68c-1.4,0-2.53,1.14-2.53,2.53c0,1.4,1.14,2.53,2.53,2.53c1.4,0,2.53-1.14,2.53-2.53
		C75.19,24.82,74.06,23.68,72.66,23.68z"/>
	<path class="st0" d="M77.67,52.46c-0.39,0-0.76-0.23-0.93-0.58l-1.81-3.23l-3.32-1.75c-0.32-0.17-0.54-0.52-0.56-0.89
		c-0.01-0.37,0.19-0.75,0.51-0.94l3.3-1.85l1.74-3.31c0.18-0.33,0.55-0.56,0.92-0.56c0.37,0,0.73,0.21,0.91,0.54l1.83,3.27
		l3.32,1.75c0.33,0.17,0.55,0.53,0.56,0.9c0.01,0.38-0.21,0.75-0.53,0.93l-3.27,1.83l-1.75,3.31
		C78.42,52.24,78.05,52.46,77.67,52.46z M74.17,45.96L76.14,47c0.15,0.08,0.29,0.2,0.38,0.35l1.13,2l1.04-1.96
		c0.08-0.16,0.22-0.3,0.37-0.4l1.98-1.11l-1.96-1.04c-0.2-0.11-0.37-0.29-0.47-0.5l-1.04-1.85l-1.04,1.96
		c-0.08,0.16-0.22,0.3-0.37,0.4L74.17,45.96z"/>
	<path class="st0" d="M55.07,29.95c-0.37,0-0.73-0.21-0.91-0.53l-1.84-3.28l-3.32-1.75c-0.33-0.17-0.55-0.53-0.56-0.9
		c-0.01-0.37,0.2-0.74,0.51-0.92l3.3-1.85l1.74-3.31c0.18-0.33,0.55-0.56,0.92-0.56c0.37,0,0.73,0.21,0.91,0.53l1.84,3.28l3.31,1.74
		c0.33,0.18,0.56,0.55,0.56,0.93c0,0.37-0.21,0.73-0.53,0.91l-3.27,1.83L56,29.39c-0.17,0.32-0.53,0.55-0.89,0.56
		C55.09,29.95,55.08,29.95,55.07,29.95z M55.07,28.93h0.01H55.07z M51.58,23.44l1.96,1.04c0.15,0.08,0.29,0.21,0.38,0.35l1.12,2
		l1.04-1.96c0.08-0.16,0.22-0.3,0.37-0.4l1.98-1.11l-1.96-1.04c-0.19-0.1-0.35-0.26-0.45-0.46l-1.06-1.89l-1.03,1.96
		c-0.1,0.19-0.27,0.35-0.46,0.45L51.58,23.44z"/>
</g>
<rect x="10" y="10" class="st1" width="80" height="80"/>
</svg>
