<?xml version="1.0" encoding="utf-8"?>
<!-- Generator: Adobe Illustrator 22.0.1, SVG Export Plug-In . SVG Version: 6.00 Build 0)  -->
<svg version="1.1" id="Layer_1" xmlns="http://www.w3.org/2000/svg" xmlns:xlink="http://www.w3.org/1999/xlink" x="0px" y="0px"
	 viewBox="0 0 100 100" style="enable-background:new 0 0 100 100;" xml:space="preserve">
<style type="text/css">
	.st0{fill:#7F7F7F;}
	.st1{fill:#CCCCCC;}
	.st2{opacity:0.15;fill:#7F7F7F;}
	.st3{fill:#B4B4B5;}
	.st4{fill:#6A6B6A;}
	.st5{fill:#FFFFFF;}
	.st6{fill:#F2F2F2;}
	.st7{fill:#FFFFFF;fill-opacity:0;}
</style>
<g>
	<path class="st0" d="M10.344,62.616c0,0.1,0.01,0.21,0.03,0.3c-0.01-0.01-0.02-0.03-0.03-0.05V62.616z"/>
	<g>
		<path class="st0" d="M88.49,18.477V61.4l-0.104,0.142c-0.567,0.803-1.484,1.276-2.457,1.276H44.812l15.64-46.447H13.617
			c-0.142,0-0.284,0.009-0.425,0.038c0.142-0.028,0.284-0.047,0.425-0.047h72.756c0.652,0,1.219,0.293,1.616,0.728
			C88.301,17.466,88.49,17.948,88.49,18.477z"/>
		<path class="st1" d="M88.49,61.4v7.598c0,1.162-0.945,2.117-2.117,2.117H13.617c-0.491,0-0.954-0.18-1.314-0.482
			c-0.482-0.378-0.794-0.964-0.794-1.635V61.4c0.009,0.019,0.019,0.038,0.028,0.047c0.567,0.85,1.512,1.37,2.533,1.37h71.858
			c0.973,0,1.89-0.472,2.457-1.276L88.49,61.4z"/>
		<path class="st2" d="M11.51,18.477v-0.312c0-0.803,0.605-1.465,1.436-1.692C12.115,16.757,11.51,17.542,11.51,18.477z"/>
		<path class="st2" d="M44.812,62.817l-0.047,0.142H13.617c-0.491,0-0.954-0.151-1.314-0.406c-0.397-0.265-0.68-0.652-0.765-1.106
			c0.567,0.85,1.512,1.37,2.533,1.37H44.812z"/>
		<circle class="st3" cx="50.039" cy="66.916" r="1.933"/>
		<path class="st4" d="M60.452,16.37l-15.64,46.447H14.071c-1.021,0-1.966-0.52-2.533-1.37c-0.019-0.085-0.028-0.189-0.028-0.283
			V18.166c0-1.002,0.954-1.796,2.107-1.796H60.452z"/>
		<path class="st4" d="M59.185,20.141L46.088,59.037H17.18c-1.04,0-1.89-0.851-1.89-1.89V22.031c0-1.039,0.85-1.89,1.89-1.89H59.185
			z"/>
		<path class="st5" d="M84.71,22.031v35.116c0,1.039-0.851,1.89-1.89,1.89H17.18c-1.04,0-1.89-0.851-1.89-1.89V22.031
			c0-1.039,0.85-1.89,1.89-1.89h65.64C83.859,20.141,84.71,20.991,84.71,22.031z"/>
		<path class="st6" d="M59.185,20.141L46.088,59.037H17.18c-1.04,0-1.89-0.851-1.89-1.89V22.031c0-1.039,0.85-1.89,1.89-1.89H59.185
			z"/>
		<g>
			<path class="st4" d="M34.611,38.897l7.53,3.017v2.745l-10.071-4.196v-3.153l10.071-4.196v2.768L34.611,38.897z"/>
			<path class="st4" d="M47.334,48.764l7.327-20.913h3.289l-7.327,20.913H47.334z"/>
			<path class="st4" d="M69.697,38.715l-7.554-3.017v-2.745l10.094,4.196v3.153l-10.094,4.195v-2.767L69.697,38.715z"/>
		</g>
		<path class="st1" d="M70.374,82.647v0.992H29.701v-0.992c0-1.162,0.945-2.107,2.107-2.107h36.458
			C69.429,80.54,70.374,81.485,70.374,82.647z"/>
		<polygon class="st3" points="57.016,80.54 43.057,80.54 43.586,75.827 44.11,71.114 55.963,71.114 56.492,75.827 		"/>
	</g>
	<rect x="9.5" y="9.5" class="st7" width="81" height="81"/>
</g>
</svg>
