<?xml version="1.0" encoding="utf-8"?>
<!-- Generator: Adobe Illustrator 21.0.0, SVG Export Plug-In . SVG Version: 6.00 Build 0)  -->
<svg version="1.1" id="Layer_1" xmlns="http://www.w3.org/2000/svg" xmlns:xlink="http://www.w3.org/1999/xlink" x="0px" y="0px"
	 viewBox="0 0 100 100" style="enable-background:new 0 0 100 100;" xml:space="preserve">
<style type="text/css">
	.st0{fill:#B4B4B5;}
	.st1{fill:#BABABA;}
	.st2{fill:#939393;}
	.st3{fill:#9D9E9E;}
	.st4{fill:#C6C6C6;}
	.st5{fill:#7F7F7F;}
	.st6{fill:#CCCCCC;}
	.st7{fill:#F2F2F2;}
	.st8{fill:#E6E6E6;}
	.st9{fill:none;stroke:#B5B5B5;stroke-width:0.75;stroke-linecap:round;stroke-miterlimit:10;}
	.st10{fill:none;stroke:#9D9E9E;stroke-width:0.75;stroke-linecap:round;stroke-miterlimit:10;}
</style>
<path class="st0" d="M50,50"/>
<path class="st0" d="M58.6,45.5"/>
<polygon class="st1" points="70.9,65.3 89.3,56.3 80.2,52.5 "/>
<g>
	<polygon class="st1" points="70.9,64.3 70.9,64.5 69.2,65.6 69.2,65.6 69.1,65.6 59.7,60.7 61.9,59.5 	"/>
	<polygon class="st2" points="70.9,64.3 70.9,65.3 69.1,66.5 69.1,65.6 	"/>
</g>
<g>
	<path class="st3" d="M10.7,58.3v1c0,0.4,0.2,0.7,0.5,0.9L42.8,78c0.7,0.4,1.6,0.4,2.4,0.1l23.9-11.6v-0.9l-25,11.2L10.7,58.3z"/>
	<path class="st4" d="M69.1,65.6L45.3,77.2c-0.8,0.4-1.7,0.3-2.4-0.1L11.2,59.3c-0.7-0.4-0.7-1.5,0.1-1.9l23.3-10.5L69.1,65.6z"/>
</g>
<path class="st5" d="M88.7,38.1l0.5,0.8c0.2,0.4,0.2,1-0.1,1.4l-18.2,25l0-1L88.7,38.1z"/>
<path class="st3" d="M88.7,39.7L70.9,64.3L36.3,45.7l17.9-23.6c0.4-0.5,1.1-0.7,1.6-0.4l32.4,16C89,38.1,89.2,39,88.7,39.7z"/>
<path class="st3" d="M67.3,61v3.5c0,0.1-0.1,0.2-0.1,0.2l-21.1,10c-0.8,0.4-1.7,0.3-2.4-0.1L15.8,58.5c-0.3-0.2-0.5-0.5-0.5-0.9
	v-3.3L44.7,70L67.3,61z"/>
<path class="st6" d="M36.5,44.3l-20.6,9.1c-0.8,0.3-0.8,1.4-0.1,1.9l28,15.7c0.7,0.4,1.6,0.4,2.4,0.1L67.3,61L36.5,44.3z"/>
<path class="st5" d="M67.2,61.1l0.1,0.2l2.4,1.3c0.1,0.1,0.3,0.1,0.4-0.1l15.3-21.1c0.3-0.4,0.2-1.2-0.1-1.7L83,37L67.2,61.1z"/>
<path class="st7" d="M36.5,44.3l-20.6,9.1c-0.8,0.3-0.8,1.4-0.1,1.9l28,15.7c0.7,0.4,1.6,0.4,2.4,0.1L67.3,61L36.5,44.3z"/>
<path class="st8" d="M36.5,44.3l16.1-21.2c0.4-0.5,1.1-0.7,1.6-0.4l28.6,14.1c0.7,0.4,1,1.3,0.5,2L67.3,61L36.5,44.3z"/>
<g>
	<line class="st9" x1="22.7" y1="56.1" x2="30.9" y2="52.3"/>
	<line class="st9" x1="26.4" y1="58.1" x2="42.6" y2="50.5"/>
	<line class="st9" x1="30" y1="60.1" x2="46.3" y2="52.5"/>
	<line class="st9" x1="33.6" y1="62" x2="50" y2="54.4"/>
	<line class="st9" x1="37.2" y1="64.1" x2="53.7" y2="56.4"/>
	<line class="st9" x1="40.8" y1="66.1" x2="57.3" y2="58.4"/>
</g>
<g>
	<line class="st10" x1="64.6" y1="54" x2="71.3" y2="44.7"/>
	<line class="st10" x1="48.7" y1="46" x2="59.2" y2="31.4"/>
	<line class="st10" x1="52.6" y1="47.9" x2="63.2" y2="33.3"/>
	<line class="st10" x1="45.1" y1="43.8" x2="55.6" y2="29.3"/>
	<line class="st10" x1="56.8" y1="50" x2="67.4" y2="35.4"/>
	<line class="st10" x1="60.7" y1="52.2" x2="71.3" y2="37.6"/>
</g>
<path class="st5" d="M38.1,42.3l8.2,4.4l-0.4-2.4l2.6-0.7l-8.3-4.5C40,39,39.7,39,39.6,39.2l-1.7,2.3C37.8,41.8,37.8,42.1,38.1,42.3
	z"/>
</svg>
