<?xml version="1.0" encoding="utf-8"?>
<!-- Generator: Adobe Illustrator 21.0.0, SVG Export Plug-In . SVG Version: 6.00 Build 0)  -->
<svg version="1.1" id="Layer_1" xmlns="http://www.w3.org/2000/svg" xmlns:xlink="http://www.w3.org/1999/xlink" x="0px" y="0px"
	 viewBox="0 0 100 100" style="enable-background:new 0 0 100 100;" xml:space="preserve">
<style type="text/css">
	.st0{fill:#9D9E9E;}
	.st1{fill:#B4B4B5;}
	.st2{fill:#7F7F7F;}
	.st3{fill:#CCCCCC;}
</style>
<path class="st0" d="M77.5,46.4v5.2C77,56.7,65.5,62,48.8,62s-28.2-5.3-28.7-10.4v-5.2L50,52.8L77.5,46.4z"/>
<path class="st0" d="M77.5,51.5v17.3c0,2-1.3,4-3.7,5.6c-1.6,1.1-3.7,2.1-6.1,3c-2.5,0.9-5.3,1.6-8.4,2.1c-1.9,0.3-4,0.5-6.1,0.6
	c-1.4,0.1-2.9,0.1-4.4,0.1c-1.4,0-2.7,0-4-0.1c-2.1-0.1-4.1-0.3-6.1-0.6c-3.1-0.5-6-1.1-8.4-2c-2.4-0.8-4.4-1.8-6.1-2.9
	c-2.6-1.7-4-3.7-4-5.8V51.5c0.5,5.1,12,10.4,28.7,10.4S77,56.6,77.5,51.5z"/>
<path class="st1" d="M77.5,46.4c0,6.3-12.8,11.4-28.7,11.4c-15.8,0-28.7-5.1-28.7-11.4c0-3,2.9-5.7,7.6-7.7l15.8,9.9
	c0.5,0.2,1,0.3,1.5,0.1c0.3-0.1,0.6-0.3,0.8-0.6c0.5-0.8,0.3-1.8-0.4-2.3L33,36.9c4.5-1.2,10-1.9,15.8-1.9c3,0,5.9,0.2,8.6,0.5
	l-7.9,5.6c-0.7,0.5-0.9,1.5-0.4,2.3c0.2,0.3,0.4,0.5,0.7,0.6c0.5,0.2,1,0.1,1.5-0.1l11.8-7.4C71.7,38.5,77.5,42.2,77.5,46.4z"/>
<path class="st2" d="M23.4,31.4l21.4,15.3c0.3,0.2,0.4,0.6,0.2,0.9c-0.2,0.3-0.6,0.4-0.9,0.2l-22.3-14c-0.7-0.4-0.9-1.3-0.5-2
	C21.8,31.1,22.7,30.9,23.4,31.4C23.4,31.3,23.4,31.3,23.4,31.4z"/>
<path class="st2" d="M71.4,26.6L50,41.9c-0.3,0.2-0.4,0.6-0.2,0.9c0.2,0.3,0.6,0.4,0.9,0.2L73,29.1c0.7-0.4,0.9-1.3,0.5-2
	C73.1,26.4,72.2,26.2,71.4,26.6C71.5,26.6,71.5,26.6,71.4,26.6z"/>
<path class="st2" d="M30.2,60v17.5c-2.4-0.8-4.5-1.8-6.1-2.8v-17L30.2,60z"/>
<path class="st2" d="M44.7,63.8v16.3c-2.1-0.1-4.1-0.3-6.1-0.6v-18L44.7,63.8z"/>
<path class="st2" d="M59.3,62v17.5c-1.9,0.3-4,0.5-6.1,0.6V63.3L59.3,62z"/>
<path class="st2" d="M73.8,57.7v16.7c-1.6,1.1-3.7,2.1-6.1,3V60.7L73.8,57.7z"/>
<path class="st3" d="M77.5,46.8v4.1c0,0.1,0,0.2,0,0.3s0,0.2,0,0.3c-0.5,5.1-12,10.4-28.7,10.4s-28.2-5.3-28.7-10.4
	c0-0.1,0-0.2,0-0.3s0-0.2,0-0.3v-4.1c-1.2,1.4-1.8,2.8-1.8,4.4s0.6,3,1.8,4.4c4.2,4.9,15.3,8.3,28.7,8.3s24.5-3.4,28.7-8.3
	c1.2-1.4,1.8-2.9,1.8-4.4S78.7,48.1,77.5,46.8z"/>
</svg>
