<?xml version="1.0" encoding="utf-8"?>
<!-- Generator: Adobe Illustrator 22.0.1, SVG Export Plug-In . SVG Version: 6.00 Build 0)  -->
<svg version="1.1" id="Layer_1" xmlns="http://www.w3.org/2000/svg" xmlns:xlink="http://www.w3.org/1999/xlink" x="0px" y="0px"
	 viewBox="0 0 100 100" style="enable-background:new 0 0 100 100;" xml:space="preserve">
<style type="text/css">
	.st0{fill:#FFFFFF;fill-opacity:0;}
	.st1{fill:#7F7F7F;}
	.st2{fill:#9D9E9E;}
	.st3{fill:#6A6B6A;}
</style>
<rect x="9.5" y="9.5" class="st0" width="81" height="81"/>
<path class="st1" d="M81.589,25.927H15.954c-1.106,0-2.002-0.896-2.002-2.002s0.896-2.002,2.002-2.002h65.634
	c1.106,0,2.002,0.896,2.002,2.002S82.694,25.927,81.589,25.927z"/>
<path class="st1" d="M42.199,37.977c-1.064,1.247-2.013,2.585-2.859,4.003H15.95c-1.098,0-2.002-0.892-2.002-2.002
	c0-1.098,0.904-2.002,2.002-2.002H42.199z"/>
<path class="st1" d="M34.993,57.741c0,0.103,0,0.194,0.011,0.297H15.95c-1.098,0-2.002-0.892-2.002-2.002
	c0-1.098,0.904-2.002,2.002-2.002h19.272C35.074,55.248,34.993,56.483,34.993,57.741z"/>
<path class="st1" d="M39.717,74.097H15.95c-1.098,0-2.002-0.892-2.002-2.002c0-1.109,0.904-2.002,2.002-2.002h21.628
	C38.185,71.489,38.905,72.827,39.717,74.097z"/>
<path class="st2" d="M65.717,37.406c11.231,0,20.335,9.104,20.335,20.335c0,11.231-9.104,20.335-20.335,20.335
	c-11.231,0-20.335-9.104-20.335-20.335C45.381,46.51,54.486,37.406,65.717,37.406 M65.717,33.975
	c-13.105,0-23.766,10.662-23.766,23.766s10.662,23.766,23.766,23.766s23.766-10.662,23.766-23.766S78.821,33.975,65.717,33.975
	L65.717,33.975z"/>
<path class="st3" d="M70.527,66.064c-2.32,0-4.523-1.272-5.891-3.402l-3.758-8.05C60.02,53.274,59.35,52.8,58.32,52.8h-5.428v-3.773
	h5.428c2.164,0,3.866,1.081,5.357,3.402l3.757,8.05c0.728,1.134,1.885,1.812,3.094,1.812h4.336v3.773H70.527z"/>
<g>
	<path class="st3" d="M62.833,63.506l-1.681-3.603l-0.275,0.572c-0.858,1.338-1.521,1.819-2.562,1.819h-5.421v3.774h5.421
		c1.819,0,3.294-0.755,4.621-2.368l-0.046-0.069L62.833,63.506z"/>
	<path class="st3" d="M65.486,51.588l1.681,3.591l0.263-0.572c0.732-1.132,1.887-1.807,3.1-1.807h3.03v2.756
		c0,0.207,0.262,0.32,0.432,0.185l5.385-4.281c0.115-0.092,0.123-0.255,0.016-0.356l-5.385-5.052
		c-0.164-0.154-0.447-0.046-0.447,0.171v2.802h-3.03c-1.922,0-3.774,0.869-5.124,2.39l0.023,0.046L65.486,51.588z"/>
	<path class="st3" d="M74.008,59.335c-0.164-0.154-0.447-0.046-0.447,0.171v2.785h-3.033c-1.21,0-2.367-0.677-3.094-1.812
		l-3.756-8.05c-1.491-2.322-3.193-3.402-5.357-3.402h-5.428V52.8h5.428c1.03,0,1.7,0.474,2.559,1.812l3.758,8.05
		c1.368,2.131,3.571,3.402,5.891,3.402h3.033v2.775c0,0.207,0.262,0.32,0.432,0.185l5.385-4.281
		c0.115-0.092,0.123-0.255,0.016-0.356L74.008,59.335z"/>
</g>
</svg>
