<?xml version="1.0" encoding="utf-8"?>
<!-- Generator: Adobe Illustrator 20.1.0, SVG Export Plug-In . SVG Version: 6.00 Build 0)  -->
<svg version="1.1" id="Layer_1" xmlns="http://www.w3.org/2000/svg" xmlns:xlink="http://www.w3.org/1999/xlink" x="0px" y="0px"
	 viewBox="0 0 100 100" style="enable-background:new 0 0 100 100;" xml:space="preserve">
<style type="text/css">
	.st0{fill:#BFBEC0;}
	.st1{enable-background:new    ;}
	.st2{fill:#656868;}
	.st3{fill:#B4B4B5;}
	.st4{fill:#646666;}
</style>
<path class="st0" d="M84.9,35.1l-7.4,17.4c-0.4,0-0.8,0-1.2,0c-11.4,0-20.7,8.8-21.5,19.9H8.4c-0.4,0-0.6-0.4-0.5-0.7l2-4.8
	c0.1-0.2,0.3-0.3,0.5-0.3h22.8l2.5-5.9H21.3c-0.4,0-0.6-0.4-0.5-0.7l2.1-4.9c0.1-0.2,0.3-0.3,0.5-0.3h14.8l2.5-5.9H12.2
	c-0.4,0-0.6-0.4-0.5-0.7l2.1-4.9c0.1-0.2,0.3-0.3,0.5-0.3h28.8l2.5-5.9H28.2c-0.4,0-0.6-0.4-0.5-0.7l2.3-5.3
	c0.1-0.2,0.3-0.3,0.5-0.3h26l25.6,0.1C84.3,30.9,85.7,33.1,84.9,35.1z"/>
<g class="st1">
	<path class="st2" d="M59.7,58.3h-8.2l0.3-1.5h2.7l3.2-15.3H53l-0.6,0.6l-0.7,3.4h-1.9l1.1-5.4h17l-1.1,5.4h-1.9l0.7-3.4l-0.4-0.6
		h-4.6l-3.2,15.3h2.7L59.7,58.3z"/>
</g>
<circle class="st3" cx="76.3" cy="74.1" r="19.4"/>
<circle class="st3" cx="76.3" cy="74.1" r="19.4"/>
<path class="st4" d="M84.6,73.8c0.6,0.4,0.6,1.3,0,1.6l-6.4,3.7l-6.5,3.7c-0.6,0.4-1.4-0.1-1.4-0.8v-7.4v-7.4c0-0.7,0.8-1.2,1.4-0.8
	l6.4,3.7L84.6,73.8z"/>
</svg>
