<?xml version="1.0" encoding="utf-8"?>
<!-- Generator: Adobe Illustrator 21.0.0, SVG Export Plug-In . SVG Version: 6.00 Build 0)  -->
<svg version="1.1" id="Layer_1" xmlns="http://www.w3.org/2000/svg" xmlns:xlink="http://www.w3.org/1999/xlink" x="0px" y="0px"
	 viewBox="0 0 100 100" style="enable-background:new 0 0 100 100;" xml:space="preserve">
<style type="text/css">
	.st0{fill:#7F8080;}
	.st1{fill:#C4C4C4;}
	.st2{fill:#818285;}
	.st3{fill:none;stroke:#67686B;stroke-width:4.1959;stroke-miterlimit:10;}
	.st4{fill:#B4B4B5;stroke:#67686B;stroke-width:4;stroke-miterlimit:10;}
</style>
<g>
	<path class="st0" d="M25.6,78.6c0.3-0.4,0.3-0.8,0-1.3l-0.3-0.3c-0.3-0.4-0.9-0.5-1.5-0.3l-5,3.1c-0.1,0,4.4-5.1,4.4-5.1
		c0.2-0.3,0.3-0.5,0.3-0.8l-0.3-1c-0.1-0.5-0.5-0.9-1-0.9c0,0-7.1-0.8-6.9-0.8l6.9-1.9c0.5-0.1,0.9-0.6,0.8-1.2l-0.1-1.5
		c-0.1-0.4-0.3-0.8-0.7-0.9c0,0-6.9-2.6-6.7-2.5L22,63c0.5,0.1,1-0.4,1.2-0.8l0.1-1.4c0.1-0.4-0.1-0.8-0.4-1l-6.1-5.2
		c-0.1-0.1,7,3.4,7,3.4c0.5,0.3,1.2,0.1,1.5-0.4l0.7-1.2c0.2-0.3,0.2-0.7,0-1.2c0,0-2.6-5.6-2.4-5.5l5.9,5.9c0,0-2.2,1.8-3.1,4.6
		c-0.9,2.4-0.8,12.5,0.7,15.3c0.8,1.2,2.3,2.4,2.3,2.4L23,83.1C22.8,83.1,25.6,78.6,25.6,78.6z"/>
	<path class="st0" d="M80.7,20.7c-0.3-1.6-2.2-1.7-2.7-0.2c-0.2,0.4-0.7,1.6-1.5,2.7c-0.4,0.6-1.3,1.5-1.9,1.9
		c-1.2-1.6-2.7-3.3-5-4.6c-1.9-1.2-3.6-1.5-5.8-2.1c-8.1-2-14.7-0.4-16.5,0.1c-2.2,0.6-4.3,1.2-6.6,2.7c-1,0.6-3.1,2.2-4.9,4.7
		c-1-1.3-2.4-3.3-1.9-5.1c0.4-1.2-0.6-1.3-1-1c-0.3,0.2-0.7,0.4-1.2,0.8c-1.3,1.5-1.7,3-1.8,3.9c-0.5,2.6,1.8,6.8,2.3,7.7
		c0.2,0.4,0.8,1.4,0.8,1.4l0,0l0,0l0,0c0,0,0,1.6,0,2.1c0,2.1,0.1,8,0.3,9.7c0.2,1.4,0.3,2.1,0.9,3c1,1.5,1.9,1,3,2.5
		c1,1.5,0.9,3.4,0.9,3.7c-0.1,0.7-0.2,1.4-0.4,1.8c-0.7,0-1.7,0.2-2.6,0.4c-4,1.2-6.3,4.7-6.8,5.5c1,1.9,2.1,3.9,3.1,5.8
		c0.7-1.6,1.6-2.7,2.3-3.4c-0.4,1.2-0.8,2.8-0.7,4.9c0,0.5,0.1,1.3,0.2,2.3c0.2,0.8,0.4,1.7,0.9,2.6c0.6,1.3,1.8,2.6,4.1,4
		c-0.2,2.1-0.3,4.7-0.3,4.8c0.2,0,7.8,0.1,7.8,0.1l-0.2-2.5c0,0,8.5,0.5,14.6-0.5c-0.1,0.6,0,2.6,0,2.9c0.2,0,8,0,8.8,0
		c0.1-2.3,0.1-4.6-0.2-6.6c0.3-0.5,0.6-1,0.9-1.8c1.4-3.4,1.5-8.9,0.9-12.7c-0.3-2.6-0.8-4.8-1.3-6.2c-0.2-0.5-0.2-1.3,0-2.1
		c0.2-0.6,0.6-1,0.6-1.3c1-1.3,5.3-6.7,6.8-10.9c1.3-3.6,1.2-7.2,0.8-9.5c0.1-0.1,1.6-2,1.8-2.2c1-1.7,1.6-2.3,1.8-5
		C81.2,22.2,80.8,21.3,80.7,20.7z"/>
	<path class="st1" d="M58.3,27L58.3,27c-2-1.8-5.6-2.9-9.8-2.9c-4.7,0-9.1,1.4-11.2,3.6c-0.7,0.7-1.2,1.6-1.4,2.6
		c-1,6.4-0.6,15.5,0.4,17.6c0,0,1,1.3,3.4,2.6c0.6,0.3,1.2,1.4,1.2,1.4c0.1,0.4,0,3.7-0.4,4.5c-0.2,0.5-0.9,0.9-1.3,1
		c-1.8,0.8-3.1,3.1-4,5.6l0,0c-0.6,1.6-0.9,3.1-1,4.3c-0.3,3.7,0.2,5.5,2,7.7l0,0c0.6,0.6,1.4,1.2,2,1.6l0,0
		c1.5,0.7,3.5,1.2,5.6,1.4c3,0.2,6.3,0.1,8.7-0.2c1.7-0.2,3-0.5,3.6-0.7c4-1.7,3.6-4.4,4-9.8c0,0,0-0.1,0-0.2c0-0.2,0-0.6,0-1.2
		c0-0.1,0-0.2,0-0.3c0-0.2,0-0.4-0.1-0.6c-3,2.4-6.8,2.5-7.7,2.5c-1-1.9-2.3-3.8-3.4-5.7c1.8,0.2,3.1,0,4.1-0.2c1.3-0.2,3-0.6,4.5-2
		l-0.1-0.1c-0.6-0.9-4-1.8-4.4-4.8c0-1.5,0.5-2.8,1.6-3.6c1-0.6,2.3-1.5,3.1-2.1c4-2.5,3.3-12.4,3.3-15.9
		C61.1,30.4,60.3,28.4,58.3,27z M40.3,38.5c0.6,0,1,0.7,1,1.7c0,0.9-0.4,1.7-1,1.7s-1-0.7-1-1.7S39.7,38.5,40.3,38.5z M45.7,49.2
		c-4.2,0-5.6-1.5-5.6-3.1c0-0.1,0-0.2,0-0.2c0.1-2,1.5-2.9,5.1-2.9c0.1,0,0.2,0,0.4,0c0.2,0,0.2,0,0.4,0c3.8,0.1,5,0.9,5.1,2.9
		c0,0.1,0,0.2,0,0.2C51.2,47.8,49.7,49.2,45.7,49.2z M51.7,41.8c-0.6,0-1-0.7-1-1.7c0-0.9,0.4-1.7,1-1.7c0.6,0,1,0.7,1,1.7
		S52.3,41.8,51.7,41.8z"/>
	<path class="st2" d="M32.5,76.6"/>
	<path class="st3" d="M68.8,46.9"/>
</g>
<path class="st4" d="M59.5,13.4"/>
</svg>
