<?xml version="1.0" encoding="utf-8"?>
<!-- Generator: Adobe Illustrator 21.0.0, SVG Export Plug-In . SVG Version: 6.00 Build 0)  -->
<svg version="1.1" id="Layer_1" xmlns="http://www.w3.org/2000/svg" xmlns:xlink="http://www.w3.org/1999/xlink" x="0px" y="0px"
	 viewBox="0 0 100 100" style="enable-background:new 0 0 100 100;" xml:space="preserve">
<style type="text/css">
	.st0{fill:#FFFFFF;fill-opacity:0;}
	.st1{fill:#7F8080;}
	.st2{fill:#6A6B6A;}
	.st3{fill:#9D9E9E;}
	.st4{fill:url(#SVGID_1_);}
	.st5{fill:url(#SVGID_2_);}
	.st6{fill:#686969;}
	.st7{fill:#C4C4C4;}
</style>
<rect x="9.5" y="9.5" class="st0" width="81" height="81"/>
<path class="st1" d="M51.2,85.3c-12.9,0-25.2-2.4-24-18.4c0.3-4.6,1.5-7.9,2.9-11.3c0.9,1.8,10,3,21.2,3c11.2,0,20.4-1.3,21.2-3.1
	c1.4,3.4,2.5,6.8,2.9,11.4C76.3,82.9,64,85.3,51.2,85.3z"/>
<path class="st2" d="M72.5,48.5v6.8c0,0.1,0,0.2-0.1,0.2c-0.8,1.8-10,3.1-21.2,3.1c-11.2,0-20.3-1.3-21.2-3c0-0.1-0.1-0.2-0.1-0.3
	v-6.5c1,1.7,10.1,3,21.2,3C63,51.8,72.5,50.3,72.5,48.5z"/>
<path class="st3" d="M72.5,48.5c0,1.8-9.5,3.3-21.3,3.3c-11.1,0-20.2-1.3-21.2-3c-0.1-0.1-0.1-0.2-0.1-0.3c0-1.8,9.5-3.3,21.3-3.3
	S72.5,46.7,72.5,48.5z"/>
<g>
	
		<radialGradient id="SVGID_1_" cx="-3646.6274" cy="-618.6434" r="6.9275" gradientTransform="matrix(-1 0 0 -1 -3598.1279 -596)" gradientUnits="userSpaceOnUse">
		<stop  offset="0" style="stop-color:#FFFFFF"/>
		<stop  offset="0.4935" style="stop-color:#FDFDFD"/>
		<stop  offset="0.6712" style="stop-color:#F6F6F6"/>
		<stop  offset="0.7979" style="stop-color:#EBEBEB"/>
		<stop  offset="0.8997" style="stop-color:#DADADA"/>
		<stop  offset="0.9865" style="stop-color:#C4C4C4"/>
		<stop  offset="1" style="stop-color:#C0C0C0"/>
	</radialGradient>
	<path class="st4" d="M55.2,21.3L55.2,21.3C55.3,21.5,55.3,21.5,55.2,21.3C55.3,21.5,55.3,21.5,55.2,21.3z"/>
	
		<radialGradient id="SVGID_2_" cx="-3646.6274" cy="-618.6434" r="6.9275" gradientTransform="matrix(-1 0 0 -1 -3598.1279 -596)" gradientUnits="userSpaceOnUse">
		<stop  offset="0" style="stop-color:#FFFFFF"/>
		<stop  offset="0.4935" style="stop-color:#FDFDFD"/>
		<stop  offset="0.6712" style="stop-color:#F6F6F6"/>
		<stop  offset="0.7979" style="stop-color:#EBEBEB"/>
		<stop  offset="0.8997" style="stop-color:#DADADA"/>
		<stop  offset="0.9865" style="stop-color:#C4C4C4"/>
		<stop  offset="1" style="stop-color:#C0C0C0"/>
	</radialGradient>
	<path class="st5" d="M55.2,21.3L55.2,21.3C55.3,21.5,55.3,21.5,55.2,21.3C55.3,21.5,55.3,21.5,55.2,21.3z"/>
</g>
<ellipse class="st1" cx="51.2" cy="48.5" rx="16.5" ry="1.7"/>
<path class="st6" d="M62.3,48.9c-0.2,0-0.8,0.1-0.9,0.1c-2.8,0.2-6.3,0.4-10.2,0.4c-1.4,0-2.8,0-4.2-0.1l0,0
	c-2.7-0.1-5.2-0.2-7.2-0.5h-0.1c-0.1-0.6-0.1-1.1-0.2-1.6c0-0.4,0-0.7,0-1v-0.1c0-0.2,0-0.3,0-0.3c-5.3-2-7.5-4.9-9.3-10.7
	c-0.1-0.2-0.1-0.4-0.2-0.7c0-0.1,0-0.1-0.1-0.2c-2.7-1.1-4.1-3.6-3.9-3.9c0.1-0.3,1.6,0.1,3.6-0.4c0-0.2,0-0.4,0.1-0.7
	c1.7-9.6,16.1-12.7,20.8-12.1c1,0.1,2,0.3,2.7,0.7c0.7-0.7,1.9-2.2,2.1-3.1c0,0,0.9,1.2,1.1,2.5c0.2,0.8,0.2,1.7,0.1,2.4l0.1,0.1
	c1.3,1.1,1.9,2,1.9,2c5.6,8.3,4.5,15.4,1.3,19c-0.7,0.8-1.8,1.4-0.9,2.5C58.9,43.2,62.1,47.2,62.3,48.9z"/>
<path class="st7" d="M61.4,49c-2.8,0.2-6.3,0.4-10.2,0.4c-1.4,0-2.8,0-4.2-0.1c0-0.5,0.9-7.1,0.9-7.1c-5.1-0.8-7.1-4.9-8.6-8.5
	c-2.3-5.3,0.4-8.7,1.1-9.4c5.1-3.7,13.7-7.2,18.3-0.4c0.2,0.3,6.5,9.8-0.1,16.5c-0.9,0.9-1.4,2.3-0.1,3.9
	C58.9,44.7,61.2,48.3,61.4,49z"/>
<ellipse transform="matrix(0.9036 -0.4285 0.4285 0.9036 -8.4377 22.9251)" class="st6" cx="46.7" cy="30.2" rx="1.1" ry="1.5"/>
<ellipse transform="matrix(0.9036 -0.4285 0.4285 0.9036 -6.2036 26.066)" class="st6" cx="54.8" cy="26.8" rx="1.1" ry="1.4"/>
<g>
	<g>
		<path id="SVGID_5_" class="st6" d="M57.1,29.5c0.7,1.7,0.8,5.2-3.9,7.2c-0.1,0.1-2.6,1-4.8-0.5c-1-0.6-1.7-2.2-1.9-2.6
			C46.8,33.6,56.3,29.9,57.1,29.5z"/>
	</g>
</g>
</svg>
