<?xml version="1.0" encoding="utf-8"?>
<!-- Generator: Adobe Illustrator 21.0.0, SVG Export Plug-In . SVG Version: 6.00 Build 0)  -->
<svg version="1.1" id="Layer_1" xmlns="http://www.w3.org/2000/svg" xmlns:xlink="http://www.w3.org/1999/xlink" x="0px" y="0px"
	 viewBox="0 0 100 100" style="enable-background:new 0 0 100 100;" xml:space="preserve">
<style type="text/css">
	.st0{fill:none;stroke:#B4B4B5;stroke-miterlimit:10;}
	.st1{fill:#B4B4B5;}
	.st2{fill:#969696;}
	.st3{fill:#686969;}
</style>
<line class="st0" x1="58.4" y1="82.9" x2="60.9" y2="74.7"/>
<path class="st1" d="M78.2,49.7c-5.3,10.9-17.3,26.5-17.3,26.5H43.8c0,0-11.4-15.6-16.8-26.5c-5.3-10.9-5.5-17.7-1.9-25
	C33.7,6.9,52.6,7.6,52.6,7.6s18.9-0.7,27.5,17.1C83.7,32,83.5,38.8,78.2,49.7z"/>
<path class="st2" d="M78.2,49.7c-5.3,10.9-17.3,26.5-17.3,26.5h-4.6c0,0,12.1-18,12.2-38.9c0-12.3-5-22.8-12.9-29.5
	c5.7,0.6,18,3.5,24.5,16.9C83.7,32,83.5,38.8,78.2,49.7z"/>
<path class="st1" d="M59.6,83l-1.2,6.2c-0.1,0.5-0.5,0.8-1,0.8H45.7c-0.5,0-0.9-0.4-1-0.8L43.5,83c-0.1-0.3,0.5-0.7,0.8-0.7h8h1H59
	C59.4,82.3,59.6,82.6,59.6,83z"/>
<g>
	<g>
		<path class="st2" d="M49.6,54.4c0,0.3,0,0.5,0,0.8l0,0c-0.1,0.7-0.2,1.4-0.4,2.1c0,0,0,0-0.1,0h-0.2c-0.3,0-0.6,0.1-0.8,0.1
			c-5.3,0.6-10-1.9-10.3-4.1c-0.2-2,3.6-3,8.5-3.6c0.3,0,0.5-0.1,0.8-0.1s0.5-0.1,0.8-0.1c0.5,0.6,0.8,1.3,1.1,2l0,0
			C49.4,52.4,49.6,53.4,49.6,54.4z"/>
		<path class="st3" d="M63.1,61.2c0,0-0.3-1.5-0.4-1.8l-0.1-0.3c-0.1-0.3-0.4-0.5-0.7-0.4l-2.1,0.6h-1.1l1-1.2
			c0.2-0.3,0.2-0.6-0.1-0.8l-0.2-0.2c-0.2-0.2-0.6-0.2-0.8,0L56.7,59l-1,1.7l-7.4,0.9c-0.3,0-0.6,0-0.9-0.1L45.7,61
			c2-0.8,3.6-2.1,4.2-3.9l0,0c-0.1,0-0.3,0.1-0.4,0.1l0,0l-0.3,0.1c0,0,0,0-0.1,0h-0.2c-0.3,0-0.6,0.1-0.8,0.1
			c-5.3,0.6-10-1.9-10.3-4.1c-0.2-2,3.6-3,8.5-3.6c0.3,0,0.5-0.1,0.8-0.1s0.5-0.1,0.8-0.1l0.5-0.1c-1.9-2.8-5.1-5-9-5.5
			c-0.5-0.1-1.1-0.1-1.6-0.1l-0.5-1.4l-1.7-1.2L32.1,37c-0.3-0.4-0.9-0.5-1.4-0.2l-5.4,3.4c-0.4,0.3-0.3,1,0.3,1H30
			c0.2,0,0.3,0,0.5,0.1l3.1,1.6l0.5,1.6c-4.2,1.3-7.4,4.7-7.9,8.2c-0.5,4,2.1,6.7,6.8,8.1h-4l-3.5-3.4l-0.7-0.6L24,55.4l0.9-2
			c0.1-0.3,0-0.6-0.2-0.7l-0.1-0.1c-0.2-0.2-0.4-1-0.5-1.3v-0.1c-0.1-0.3-0.4-0.4-0.7-0.4L20,51.4c-0.2,0-0.4,0.2-0.5,0.4l-1,3.3
			c-0.1,0.2,0,0.4,0.1,0.6l8.1,9.6c0.3,0.3,0.8,0.5,1.3,0.5l6.6-0.5L33.7,73l0,0c-1.7,1.7-6.4,6.2-7,6.6c-0.4,0.2-0.6,0.7-0.5,1.2
			l0.4,1.3l-3.2,4l-2.7,3.1h-0.4v0.9H26v-1h-0.4l1.2-3.5l2.3-1.9l2,0.1c0.3,0,0.6-0.1,0.8-0.3l4.3-2.5h6.4l0.9,1.1l-3.4,5.7v1.5
			c0,0.3,0.3,0.7,0.6,0.7h8.6v-0.4c0-0.3-0.2-0.5-0.5-0.5h-0.3v-0.3c0-0.3-0.2-0.5-0.5-0.5l-3.4-1.4c-0.3-0.2-0.4-0.6-0.2-0.9l2.9-3
			h0.2c0.5,0.1,1-0.1,1.2-0.5l0.7-1.4c0.2-0.4,0.1-0.9-0.2-1.2l-7.1-7.2l0.1-7.6l5.1,1.2c0.3,0.1,0.7,0.1,1,0l8.4-2.1l5.8-0.3
			c0.3,0,0.6-0.3,0.6-0.6v-0.1C63.1,63,63.1,61.5,63.1,61.2z"/>
	</g>
</g>
</svg>
