<?xml version="1.0" encoding="utf-8"?>
<!-- Generator: Adobe Illustrator 21.0.0, SVG Export Plug-In . SVG Version: 6.00 Build 0)  -->
<svg version="1.1" id="Layer_1" xmlns="http://www.w3.org/2000/svg" xmlns:xlink="http://www.w3.org/1999/xlink" x="0px" y="0px"
	 viewBox="0 0 100 100" style="enable-background:new 0 0 100 100;" xml:space="preserve">
<style type="text/css">
	.st0{fill:#FFFFFF;fill-opacity:0;}
	.st1{fill:#A8A8A8;}
	.st2{fill:#686969;}
	.st3{fill:#C4C4C4;}
	.st4{fill:none;}
</style>
<rect x="9.5" y="9.5" class="st0" width="81" height="81"/>
<g>
	<g>
		<g id="pfgLbB.tif">
			<g>
				<path class="st1" d="M63.9,39.2c-0.1,0-3.9,0-4.1,0c-2.8,0-22.6,9.8-20.9,18c0,0-5.1,0.5-6.4,1.9c-1.4,1.3-1.2,3.9-0.1,6.5
					l-1.6-0.7c0,0-2.8,9.7-0.2,10.7c0.6,0.2,2.2,0.8,2.3,0.8c0,0.1,0.1,0.3,0.1,0.4c-0.2,0-0.3,0.1-0.4,0.1c-1.6,0.5-2.5,2.1-2,3.7
					c0.1,0.4,0.3,1,0.5,1.6c-3.3-0.6-6.2-2.2-8.8-4.3c-9.4-7.2-13.8-21-10.4-33.1c2.4-8.7,7.7-12.8,16.7-13c2.9,0,8.7,0,8.7,0
					l-1.5-4.6c0,0,6.8-6.3,11.6-9.2c3.1-1.9,6.3-3.4,8.9-4.4c1.4,6.8-2.2,13.3-7.7,15.2c-3.6,1.3-6.9,0.3-9.2-0.7
					c0.5,1.4,0.7,2.6,0.9,3.8h9.9C57.2,32.1,61.4,35.2,63.9,39.2z"/>
			</g>
		</g>
	</g>
	<g>
		<path class="st2" d="M89.4,74c-2.8,1.8-5.4,2.4-7.4,2.3c-1.1,2.1-2.5,4-3.9,5.3C68.4,90.7,51.9,84,47,82.2
			c-2.1,1.8-13.2,1.5-13.2,1.5s-0.8-2.5-1.1-3.6c-0.1-0.5,0.1-0.8,0.5-1c0.6-0.2,1.8-0.2,2.9-0.2c-0.7-1.4-1.1-2.9-1.3-4.3
			c-0.8-0.3-2.5-0.6-2.9-0.9c-0.5-0.3,0.5-5.6,0.5-5.6s2,0.9,2.5,1.5c0.4,0.5,0.4,0.6,0.6,0.7c0,0,1.2-0.3,2.5-0.7
			c-3.9-3.2-4.9-8-4-8.9s3.6-1.1,3.6-1.1l1.3,4.9l1.9,2.2c0,0,1.9,0.5,1.7,0c-1.9-4.1,12.1-39.9,35.3-18.4c6.7,6.2,8,14,6.7,20.7
			C85.3,70.9,89.6,73.9,89.4,74z"/>
	</g>
	<path class="st3" d="M70.8,74c-0.8,0.6-3.5,2.6-8.9,4.2c-6.2,1.8-9.2,0.6-11-0.5c-2.3,0-4.7,0.1-6.1,0.8c-5.7,2.7-8.2-0.8-8.5-1.2
		c-1.2-1.7-2.1-6.1,0.1-8c1.8-1.7,3.8-2.3,5.6-2.4c-2.6-5.1-1.9-14.5,8.1-20.2c3.4-1.9,7.5-4.9,10.3-4.9c4.3,0,8.2,4.1,10.6,6.2
		C83.6,58.9,79,67.9,70.8,74z"/>
	<path class="st4" d="M35.7,85.3c-0.1,0-0.1,0-0.2,0"/>
	<path class="st2" d="M55.1,47.3c1.1-0.9,2.6-1,3.2-0.3c0.6,0.8,0.2,2.2-0.9,3.1L55.1,47.3z"/>
	<ellipse transform="matrix(0.7752 -0.6318 0.6318 0.7752 -21.984 55.7938)" class="st2" cx="67.4" cy="58.8" rx="2.7" ry="1.8"/>
	<g>
		<g>
			<g>
				<path id="SVGID_5_" class="st2" d="M65.8,63.5c-5.2,5.5-12.1,3.8-15,1.8c-1.9-1.4-5.9-7.8-1.4-12.9
					C49.7,52.7,64.5,62.7,65.8,63.5z"/>
			</g>
		</g>
	</g>
	<path class="st2" d="M47.8,74l-1.3-4.9c0,0-2.7,0.2-3.6,1.1c-1.1,1.1,0.5,7.4,6.1,10.3c0.1,0,2.9-2,2.9-2L47.8,74z"/>
</g>
</svg>
