<?xml version="1.0" encoding="utf-8"?>
<!-- Generator: Adobe Illustrator 21.0.0, SVG Export Plug-In . SVG Version: 6.00 Build 0)  -->
<svg version="1.1" id="Layer_1" xmlns="http://www.w3.org/2000/svg" xmlns:xlink="http://www.w3.org/1999/xlink" x="0px" y="0px"
	 viewBox="0 0 100 100" style="enable-background:new 0 0 100 100;" xml:space="preserve">
<style type="text/css">
	.st0{fill:#FFFFFF;fill-opacity:0;}
	.st1{fill:#A8A8A8;}
	.st2{fill:#686969;}
	.st3{opacity:0.6;fill:none;stroke:#FFFFFF;stroke-width:5.4192;stroke-miterlimit:10;enable-background:new    ;}
	.st4{fill:#C4C4C4;}
</style>
<rect x="9.5" y="9.5" class="st0" width="81" height="81"/>
<path class="st1" d="M87.4,50c0,11.6-5.3,22-13.6,28.8C67.2,84.1,59,87.4,50,87.4c-20.7,0-37.4-16.7-37.4-37.4
	c0-9.3,3.4-17.7,8.9-24.2c6.8-8.1,17.1-13.2,28.5-13.2C70.6,12.6,87.4,29.4,87.4,50z"/>
<path class="st2" d="M73.7,48.7c2.8-7-1.4-12.2-1.4-12.2c-1.3-1.4-5.9-6.1-7.4-7.4c0,0-5.1-4.2-12.2-1.4c-0.4-0.5-2.3-2.6-2.5-3.9
	c0,0-1.2,1.4-1.5,2.9c-0.3,1.4,0,3.1,0,3.2c-0.8,0.6-7.1,4.7-8,13L40,40.8l0.7-5.3c0,0-2.8-0.8-4-0.4c-1.5,0.7-2.3,7.3,1.7,12.3
	c-8.1,5-9.5,8.1-9,12c-1.1,0.1-3,0.5-5,2.1c-0.1,0.1,3.4,3.6,3.4,3.6l3.7-1.6c0.8,1,5.6,5.8,6.8,6.6L36.8,74c0,0,3.5,3.5,3.6,3.4
	c1.8-2.2,2.1-4.5,2-5.5c3.8,0.3,7.9-1.4,11.3-8.1c0,0,0.2-0.3,0.5-0.6c5,3.7,11.4,2.8,12,1.4c0.5-1.3-0.3-4.1-0.3-4.1l-5.3,0.7
	l-1.8-0.6c7.8-0.9,12.7-7.9,12.7-7.9s1.7,0.4,3.2,0c1.6-0.3,2.9-1.5,2.9-1.5C76.3,51,73.9,49,73.7,48.7z"/>
<path class="st3" d="M23.1,38.6c2.8-6.7,7.8-12,13.8-15.1"/>
<path class="st3" d="M78,61.5c-3.2,7.5-8.9,13-15.8,15.9"/>
<path class="st4" d="M55.5,57.2c-1,0-3.5,2.6-3.8,3.5c-2.1,6.4-5.2,7.8-9,7.5c-2.8-0.4-9.5-7.4-9.5-9.5c-0.2-3.8,2-6.2,8.3-8.8
	c0.9-0.3,2.8-3.1,2.8-4.1c-0.1-2.3,0-4.8,0.8-7c0.5-1.3,7.5-10.6,14.3-8.8c4.5,0.8,11.6,9.7,12.2,12.2c1.7,6.7-7.4,13.8-8.8,14.3
	C60.3,57.2,57.9,57.4,55.5,57.2z"/>
<ellipse transform="matrix(0.7538 -0.6571 0.6571 0.7538 -9.1529 46.9483)" class="st2" cx="58.1" cy="35.7" rx="1.9" ry="1.3"/>
<ellipse transform="matrix(0.7538 -0.6571 0.6571 0.7538 -12.2219 53.5779)" class="st2" cx="65.4" cy="43.1" rx="1.9" ry="1.3"/>
<g>
	<g>
		<path id="SVGID_9_" class="st2" d="M64.1,47.2c-0.3,0.3-2.3,1.9-5,1.7c-1.5-0.1-3.2-0.8-5-2.6c-0.1-0.1-4.3-4.8,0.1-8.9
			C54.4,37.6,63.3,46.5,64.1,47.2z"/>
	</g>
</g>
</svg>
