<?xml version="1.0" encoding="utf-8"?>
<!-- Generator: Adobe Illustrator 23.0.1, SVG Export Plug-In . SVG Version: 6.00 Build 0)  -->
<svg version="1.1" id="Layer_1" xmlns="http://www.w3.org/2000/svg" xmlns:xlink="http://www.w3.org/1999/xlink" x="0px" y="0px"
	 viewBox="0 0 100 100" style="enable-background:new 0 0 100 100;" xml:space="preserve">
<style type="text/css">
	.st0{fill:#FFFFFF;fill-opacity:0;}
	.st1{fill:#EAEAEA;enable-background:new    ;}
	.st2{fill:#7F7F7F;}
	.st3{fill:#9D9E9E;}
	.st4{fill:#686868;}
	.st5{fill:#BCBCBC;}
	.st6{fill:#6A6B6A;}
	.st7{fill:#FFFFFF;}
	.st8{fill:none;stroke:#FFFFFF;stroke-width:0.8391;stroke-linecap:round;stroke-miterlimit:10;}
</style>
<rect x="10" y="10" class="st0" width="80" height="80"/>
<g>
	<circle class="st1" cx="50" cy="50" r="40"/>
	<g>
		<polygon class="st2" points="75.7,38.4 72,41.7 69,44.2 50.5,44.2 50.5,32.6 69,32.6 		"/>
		<polygon class="st2" points="48,49.2 48,60.7 29.4,60.7 26.6,58.3 22.7,54.9 29.4,49.2 		"/>
		<ellipse class="st3" cx="49.2" cy="80.2" rx="10.4" ry="2.4"/>
		<ellipse class="st4" cx="49.2" cy="80" rx="3.5" ry="0.9"/>
		<path class="st5" d="M47.7,79.7V23.3h3v56.4C50.7,80.6,47.7,80.6,47.7,79.7z"/>
		<path class="st2" d="M52.4,20.8c0,1.8-1.4,3.2-3.2,3.2S46,22.6,46,20.8c0-0.1,0-0.2,0-0.3l0,0c0.2-1.6,1.5-2.9,3.2-2.9
			s3,1.3,3.2,2.9l0,0C52.4,20.6,52.4,20.7,52.4,20.8z"/>
		<path class="st3" d="M52.4,20.4C52.4,20.5,52.4,20.5,52.4,20.4c-0.2,1.1-1.5,1.9-3.2,1.9s-3-0.8-3.2-1.8l0,0
			c0.2-1.6,1.5-2.9,3.2-2.9S52.2,18.8,52.4,20.4z"/>
		<polygon class="st6" points="50.7,32.6 50.7,44.2 61.2,44.2 		"/>
		<polygon class="st6" points="47.6,49.2 47.6,60.7 30.7,60.7 42.1,49.2 		"/>
		<g>
			<g>
				<g>
					<path class="st7" d="M35,57.5c-0.1,0-0.2,0-0.3-0.1c-0.2-0.2-0.2-0.5,0-0.6l4.1-4.1c0.2-0.2,0.5-0.2,0.6,0
						c0.2,0.2,0.2,0.5,0,0.6l-4.1,4.1C35.3,57.5,35.2,57.5,35,57.5z"/>
				</g>
				<g>
					<path class="st7" d="M39.1,57.6c-0.1,0-0.2,0-0.3-0.1l-4.1-4.1c-0.2-0.2-0.2-0.5,0-0.6c0.2-0.2,0.5-0.2,0.6,0l4.1,4.1
						c0.2,0.2,0.2,0.5,0,0.6C39.4,57.5,39.3,57.6,39.1,57.6z"/>
				</g>
			</g>
		</g>
		<polyline class="st8" points="58.6,38.6 60.1,40.4 64.1,36.5 		"/>
	</g>
</g>
</svg>
