<?xml version="1.0" encoding="utf-8"?>
<!-- Generator: Adobe Illustrator 23.0.1, SVG Export Plug-In . SVG Version: 6.00 Build 0)  -->
<svg version="1.1" id="Layer_1" xmlns="http://www.w3.org/2000/svg" xmlns:xlink="http://www.w3.org/1999/xlink" x="0px" y="0px"
	 viewBox="0 0 100 100" style="enable-background:new 0 0 100 100;" xml:space="preserve">
<style type="text/css">
	.st0{fill:#FFFFFF;fill-opacity:0;}
	.st1{fill:#EDEDED;}
	.st2{fill:#6A6B6A;}
	.st3{fill:#9D9E9E;}
	.st4{fill:#B5B5B5;}
	.st5{fill:#7F7F7F;}
	.st6{fill:#A8A8A8;}
</style>
<rect x="10" y="10" class="st0" width="80" height="80"/>
<g>
	<path class="st1" d="M51.3,11.35h-2.6c-16.29,0-29.5,13.21-29.5,29.5v47.79h61.6V40.86C80.8,24.56,67.6,11.35,51.3,11.35z"/>
	<g>
		<path class="st2" d="M67.05,71.04l-10.94-0.18c-0.48-0.02-0.58,0.66-0.12,0.79l3.51,0.96l-2.61,0.72
			c-5.17,1.42-10.64,1.33-15.76-0.28l-1.38-0.43l4.19-1.09c0.55-0.14,0.43-0.96-0.14-0.94l-11.83,0.45l-2.54,3.76
			c-0.14,0.21,0.05,0.48,0.3,0.42l6.71-1.74l4.82,1.63c1.35,0.46,1.34,2.37-0.01,2.82l-8.54,2.79c-0.43,0.14-0.9,0.11-1.32-0.07
			l-3.76-1.82c-0.41-0.18-0.88-0.05-1.13,0.32l-4.88,7.22l20.44-0.05c0.49,0,0.63-0.67,0.19-0.87l-5.03-2.26
			c-0.15-0.07-0.14-0.28,0.01-0.34l4.78-1.72c5.36-1.93,11.21-1.98,16.61-0.16l5.17,1.74l-5.62,2.69c-0.44,0.21-0.29,0.87,0.2,0.87
			l19.32-0.05c0.38,0,0.59-0.43,0.36-0.73l-4.92-6.44c-0.26-0.34-0.73-0.46-1.12-0.27l-5.03,2.41l-9.62-3.02
			c-1.19-0.37-1.25-2.04-0.09-2.5l5.57-2.19l6.23,1.58c0.42,0.11,0.74-0.38,0.47-0.72L67.05,71.04L67.05,71.04z"/>
	</g>
	<g>
		<path class="st3" d="M53.04,24.65l-0.5,5.16c0,0.54-0.21,1.04-0.55,1.34c0,0-1.5,1.23-1.67,1.23h-0.95
			c-0.17,0-1.67-1.23-1.67-1.23c-0.34-0.3-0.55-0.8-0.55-1.34l-0.45-4.84L53.04,24.65z"/>
		<path class="st2" d="M47.09,28.73l-0.38-0.22l-0.34-0.81c0,0-0.31-2.57-0.12-3.15c0.28-0.89,1.26-2.01,2.03-2.16
			c0,0,2.19-0.19,3.04-0.64l1.35-0.72c0,0,0.54,0.42,0.82,1.03c0.52,1.8,0.06,4.75,0.06,4.75l-0.91,1.99l0.15-1.47
			c0.13-1.28-0.9-2.39-2.22-2.39h-0.53h-0.91c-0.49,0-0.95,0.2-1.3,0.55l-0.28,0.28c-0.16,0.16-0.26,0.38-0.28,0.62L47.09,28.73z"/>
		<path class="st3" d="M47.09,28.73c0.15,0.5,0.37,1.15-0.11,1.31c-0.27,0.09-0.62-0.26-0.77-0.76s-0.05-0.96,0.22-1.04
			S46.94,28.23,47.09,28.73z"/>
		<path class="st3" d="M52.54,28.73c-0.15,0.5-0.37,1.15,0.11,1.31c0.27,0.09,0.62-0.26,0.77-0.76s0.05-0.96-0.22-1.04
			S52.69,28.23,52.54,28.73z"/>
	</g>
	<path class="st4" d="M57.53,54.06l-0.28,0.75c-0.27,0.73-0.7,1.39-1.27,1.93l-0.74,0.7l0.15-2.1l0.09-1.27L57.53,54.06z"/>
	<path class="st4" d="M41.98,54.02l0.38,1.17c0.15,0.46,0.41,0.87,0.75,1.2l1.14,1.09l-0.17-3.41L41.98,54.02z"/>
	<path class="st5" d="M57.89,46.48l-0.3,7.59h-2.1c0,0,0.36-4.5,0.13-8.3c-0.19-2.95-0.46-5.39-0.46-5.39h-0.27l-0.05,5.35
		l0.14,5.06h-10.4l0.25-5.12l-0.07-5.29l-0.27-0.04c0,0-0.35,2.47-0.53,5.42c-0.24,3.8,0.12,8.3,0.12,8.3h-2.1l-0.34-7.55l0.49-8.98
		c0.03-0.87,0.35-1.71,0.91-2.41c0.3-0.35,0.68-0.62,1.12-0.78l3.59-1.69c0,0,1.38,0.78,1.53,0.78c0,0,0.22,0.08,0.45,0.08
		c0.27,0,0.55-0.08,0.55-0.08c0.15,0,1.54-0.78,1.54-0.78l3.58,1.69c0.44,0.16,0.82,0.43,1.12,0.78c0.57,0.7,0.89,1.54,0.92,2.41
		L57.89,46.48z"/>
	<polygon class="st6" points="45.3,75.01 48.3,75.01 48.58,64.31 49.49,54.02 49.97,54.04 51.05,63.98 51.47,75.01 54.24,75.01 
		54.99,51.38 44.48,51.38 	"/>
	<path class="st3" d="M48.23,75.39v1.11c0,0.18-0.1,0.35-0.27,0.44l-2.56,1.34c-0.16,0.08-0.45,0.17-0.77,0.08l-0.98-0.21
		c-0.17,0-0.5-0.18-0.5-0.34v-0.67c0-0.16,0.09-0.31,0.23-0.38l1.92-1.36h2.93V75.39z"/>
	<path class="st3" d="M51.47,75.45v1.35l0.88,1.33c0.23,0.35,0.63,0.56,1.05,0.56h0.91c0.43,0,0.74-0.41,0.63-0.82l-0.64-2.42H51.47
		z"/>
</g>
</svg>
