<?xml version="1.0" encoding="utf-8"?>
<!-- Generator: Adobe Illustrator 20.1.0, SVG Export Plug-In . SVG Version: 6.00 Build 0)  -->
<svg version="1.1" id="Layer_1" xmlns="http://www.w3.org/2000/svg" xmlns:xlink="http://www.w3.org/1999/xlink" x="0px" y="0px"
	 viewBox="0 0 100 100" style="enable-background:new 0 0 100 100;" xml:space="preserve">
<style type="text/css">
	.st0{fill:#B4B4B5;}
	.st1{fill:#969696;}
	.st2{opacity:0.48;fill:#646666;enable-background:new    ;}
	.st3{fill:#686969;}
	.st4{fill:#646666;}
</style>
<path class="st0" d="M37.3,23.3V39c0,0.3-0.3,0.6-0.6,0.6h-8.2c-0.3,0-0.6-0.3-0.6-0.6V23.3c0-0.3,0.3-0.6,0.6-0.6h8.2
	C37,22.7,37.3,23,37.3,23.3z"/>
<path class="st1" d="M84.5,48.5v5.8c-0.1,0-0.2-0.1-0.2-0.1c-1-0.4-1.9-0.8-2.9-1c-1.6-0.5-3.5-0.7-5.2-0.7
	c-8.4,0-15.7,4.8-19.3,11.9c-1.5,2.9-2.3,6.3-2.3,9.7c0,2.6,0.5,5.1,1.3,7.5H19.5V48l9.5-8.3l0.1-0.1l8.2-7.1l14.5-12.6L84.5,48.5z"
	/>
<path class="st2" d="M84.5,51.2v3.1c-0.1,0-0.2-0.1-0.2-0.1c-1-0.4-1.9-0.8-2.9-1L51.9,27.7L19.5,55.3v-4.7l12.8-10.9l0.1-0.1
	l4.9-4.1l1.3-1.2l11.7-10.7c1-0.8,2.2-0.8,3.1,0l28.8,25.7L84.5,51.2z"/>
<path class="st0" d="M15.4,53.2c-0.7,0-1.3-0.3-1.8-0.9c-0.9-1-0.8-2.5,0.3-3.4L50,18.3c1.2-1,2.8-1,3.9,0l35.4,30.6
	c1,0.9,1.2,2.4,0.3,3.4c-0.9,1-2.4,1.2-3.4,0.3L51.9,23L17,52.6C16.5,53,15.9,53.2,15.4,53.2z"/>
<path class="st3" d="M54.6,74.2c0,2.6,0.5,5.1,1.3,7.5h-12V66.3c0-1.1,0.8-1.8,1.8-1.8h11.1C55.4,67.3,54.6,70.7,54.6,74.2z"/>
<polygon class="st2" points="27.9,37.1 27.9,33.3 37.3,25.5 37.3,29.1 "/>
<circle class="st0" cx="76.1" cy="73.9" r="19.6"/>
<path class="st4" d="M84,73.1c0.6,0.4,0.6,1.3,0,1.5l-6.2,3.6l-6.3,3.6c-0.6,0.4-1.3-0.1-1.3-0.8v-7.1v-7.2c0-0.7,0.8-1.2,1.3-0.8
	l6.2,3.6L84,73.1z"/>
</svg>
