<?xml version="1.0" encoding="utf-8"?>
<!-- Generator: Adobe Illustrator 21.0.0, SVG Export Plug-In . SVG Version: 6.00 Build 0)  -->
<svg version="1.1" id="Layer_1" xmlns="http://www.w3.org/2000/svg" xmlns:xlink="http://www.w3.org/1999/xlink" x="0px" y="0px"
	 viewBox="0 0 100 100" style="enable-background:new 0 0 100 100;" xml:space="preserve">
<style type="text/css">
	.st0{fill:#FFFFFF;fill-opacity:0;}
	.st1{fill:none;stroke:#7F8080;stroke-width:4;stroke-miterlimit:10;}
	.st2{opacity:0.35;fill:#FFFFFF;enable-background:new    ;}
	.st3{fill:#7F7F7F;}
</style>
<rect x="9" y="9.5" class="st0" width="81" height="81"/>
<g>
	<circle class="st1" cx="50" cy="50" r="31.7"/>
	<circle class="st2" cx="50" cy="50" r="29.8"/>
	<g>
		<rect x="29.4" y="47.1" class="st3" width="2.6" height="1.8"/>
		<rect x="29.4" y="51.1" class="st3" width="2.6" height="1.9"/>
		<rect x="34.3" y="42.5" class="st3" width="2.6" height="6.4"/>
		<rect x="34.3" y="51.1" class="st3" width="2.6" height="6.8"/>
		<rect x="39.2" y="35" class="st3" width="2.6" height="14"/>
		<rect x="39.2" y="51.1" class="st3" width="2.6" height="14"/>
		<rect x="43.9" y="38.5" class="st3" width="2.6" height="10.5"/>
		<rect x="43.9" y="51.1" class="st3" width="2.6" height="10.6"/>
		<rect x="48.8" y="29.2" class="st3" width="2.6" height="19.8"/>
		<rect x="48.8" y="51.1" class="st3" width="2.6" height="19.8"/>
		<rect x="53.6" y="32" class="st3" width="2.6" height="16.9"/>
		<rect x="53.6" y="51.1" class="st3" width="2.6" height="16.9"/>
		<rect x="58.5" y="38.9" class="st3" width="2.6" height="10"/>
		<rect x="58.5" y="51.1" class="st3" width="2.6" height="10.6"/>
		<rect x="63.4" y="43.8" class="st3" width="2.6" height="5.1"/>
		<rect x="63.4" y="51.1" class="st3" width="2.6" height="5.5"/>
		<rect x="68.1" y="46.5" class="st3" width="2.6" height="2.5"/>
		<rect x="68.1" y="51.1" class="st3" width="2.6" height="3.1"/>
	</g>
</g>
</svg>
