<?xml version="1.0" encoding="utf-8"?>
<!-- Generator: Adobe Illustrator 23.0.1, SVG Export Plug-In . SVG Version: 6.00 Build 0)  -->
<svg version="1.1" id="Layer_1" xmlns="http://www.w3.org/2000/svg" xmlns:xlink="http://www.w3.org/1999/xlink" x="0px" y="0px"
	 viewBox="0 0 100 100" style="enable-background:new 0 0 100 100;" xml:space="preserve">
<style type="text/css">
	.st0{fill:#FFFFFF;fill-opacity:0;}
	.st1{fill:#BCBCBC;}
	.st2{fill:#6A6B6A;}
	.st3{fill:#7F7F7F;}
</style>
<rect x="10" y="10" class="st0" width="80" height="80"/>
<g>
	<path class="st1" d="M84.66,50.08c-0.27-2.52-4.86-6.78-4.91-7.21c-0.16-1.39,1.29-2.39,1.83-3.69c0.58-1.38,0.28-7.62-6.42-7.94
		c-2.68-0.13-4.4-0.17-6.28,1.65c-1.81,1.79-2.57,3.93-2.92,5.32c-0.15,0.56-0.73,0.17-1.03-0.13c-0.36-0.36,0.18-1.29,0.27-1.71
		c0.32-1.6,0.54-3.25,1.94-4.05c4.78-2.73,5.78-7.14,5.39-8.45c-0.27-0.91-6.23-5.59-11.68-5.48c-4.9,0.11-9.37,4.97-9.37,5.11
		c0.01,5.86-0.04,11.73-0.09,17.59c-0.02,2.13,0.07,13.06,1.74,17.71c0.66,1.82,3.39,0.84,3.7,0.75c0.92-0.27,1.4-1.55,1.74-2.4
		c0.62-1.58,0.79-3.33,0.47-5c-0.07-0.28,0.13-0.55,0.42-0.6c0.28-0.07,0.55,0.13,0.6,0.41c0.31,1.6,0.47,4.75-1.81,7.92
		c-0.92,1.29-2.18,2.19-3.64,2.78c-0.83,0.34-0.95,0.18-1.33,0.93c-0.36,0.72-0.13,10.43,1.77,13.56
		c7.32,12.06,21.24-0.8,22.23-3.19c0.82-1.98,4.46-8.87,4.73-10.66c0.4-2.59-1.91-3.55-3.94-3.55c-3.38,0.15-5.65-1.81-6.67-2.87
		c-0.2-0.2-0.34-0.44-0.21-0.7c0.47-0.87,4.02,1.5,4.76,1.61C82.83,58.86,84.86,51.99,84.66,50.08z M59.74,42.84
		c-0.29,0.07-0.57-0.13-0.62-0.41c0-0.03-0.02-0.05-0.02-0.08c0-0.26,0.16-0.49,0.42-0.54c0.18-0.03,0.36-0.07,0.54-0.08
		c2.5-0.28,5.11,0.82,6.79,2.94c2.43,3.04,2.42,6.2,2.19,7.82c0,0.03-0.02,0.07-0.03,0.1c-0.08,0.23-0.31,0.39-0.55,0.34
		c-0.29-0.03-0.51-0.31-0.46-0.59c0.21-1.45,0.23-4.29-1.96-7.02C64.49,43.39,61.96,42.4,59.74,42.84z M70.71,69.77
		c-1.44-0.26-4.28-0.38-7.08,1.71c-1.99,1.47-3.13,3.9-2.76,6.15c0.02,0.13,0.03,0.34,0.03,0.34c-0.08-0.02-0.18-0.05-0.26-0.1
		c-0.13-0.05-0.28-0.1-0.41-0.15c-0.08-0.03-0.15-0.07-0.23-0.1c-0.05-0.02-0.1-0.03-0.15-0.07v-0.02c-0.31-2.56,0.9-5.24,3.15-6.9
		c3.08-2.32,6.22-2.2,7.83-1.93c0.02,0.02,0.03,0.02,0.05,0.02c0.28,0.05,0.47,0.31,0.42,0.6C71.26,69.62,70.98,69.82,70.71,69.77z"
		/>
	<path class="st2" d="M79.49,69.57c0.36,1.11,0.47,2.27,0.36,3.46c-0.88,9.65-16.01,20.66-27.32,8.76
		c-0.47-0.47-0.93-1.01-1.37-1.57c0-0.62-0.02-1.24,0-1.84c-0.02-1.09-0.02-2.19-0.02-3.28v-0.59l0.07-11.42
		c0.91,0.11,1.84,0.05,2.73-0.23v2.79c0,2.02,0.52,4.31,1.4,6.36c0.83,1.93,3.54,2.06,4.6,0.24c0.08-0.13,0.16-0.28,0.26-0.41
		c3.84-5.52,10.92-3.62,10.64-3.13c-1.62-0.28-4.75-0.39-7.83,1.93c-2.25,1.66-3.46,4.34-3.15,6.9c0.05,0.03,0.1,0.07,0.15,0.08
		c0.08,0.03,0.15,0.07,0.23,0.1c0.05,0.03,0.1,0.05,0.15,0.07c0.08,0.03,0.18,0.07,0.26,0.08c0.08,0.05,0.18,0.08,0.26,0.1
		c13.61,4.63,16.01-9.68,16.01-9.68c5.22-2.35,4.31-7.75,1.18-8.55c0.11,0,0.23,0,0.34-0.02c0.57-0.03,1.13-0.15,1.57-0.28
		c0.02,0.02,0.05,0,0.07-0.02c0.38-0.1,0.7-0.21,0.9-0.29c0.18-0.07,0.28-0.11,0.29-0.11c0.54-0.23,1.08-0.26,1.58-0.16
		c1.16,0.24,2.11,1.22,2.15,2.56C85.02,62.01,85.72,66.8,79.49,69.57z"/>
	<path class="st2" d="M83.6,56.29c-0.39,0.34-0.85,0.69-1.35,1.01c-0.05,0.03-0.1,0.07-0.15,0.1c-0.18,0.1-0.36,0.21-0.55,0.31
		c-0.2,0.11-0.39,0.21-0.6,0.31c-0.05,0.03-0.08,0.05-0.13,0.07c-0.2,0.08-0.41,0.15-0.62,0.21c-0.21,0.07-0.42,0.13-0.65,0.18
		c-0.26,0.08-0.54,0.13-0.83,0.18c-0.2,0.03-0.39,0.05-0.59,0.05c-1.18,0.07-2.25-0.15-3.17-0.52c-0.13-0.07-2.47-1.43-3.13-2.25
		l-0.05-0.04c0.21-0.34,2.22,0.92,3.11,1.15c0.02,0.01,0.04,0.01,0.07,0.02c4.52,1.18,8.69-3.26,7.38-7.75
		c-0.85-2.93-3.12-5.42-5.72-5.9c7.33-3.54,3.33-14.57-6.15-11.65c2.71-1.91,5.04-1.89,6.76-1.34c0.08,0.02,0.16,0.05,0.24,0.08
		c0.13,0.05,0.26,0.1,0.41,0.16c0.34,0.15,0.64,0.31,0.91,0.47c6.95,4.26,3.92,9.82,3.07,11.38c0.98,0.41,1.94,1.22,2.71,2.28
		c0.05,0.05,0.08,0.1,0.11,0.15c0.11,0.16,0.23,0.34,0.34,0.51c0.15,0.26,0.29,0.51,0.42,0.78c0.05,0.1,0.1,0.2,0.15,0.31
		C86.9,49.51,86.86,53.41,83.6,56.29z"/>
	<path class="st2" d="M74.51,25.78c0,0.47-0.13,0.91-0.34,1.34c-0.13,0.28-0.29,0.52-0.47,0.77c-0.03,0.05-0.07,0.1-0.1,0.13
		c-0.18,0.21-0.36,0.42-0.55,0.62c-0.34,0.34-1.09,0.93-1.13,0.96c-0.08,0.05-0.24,0.15-0.46,0.28c-1.03,0.64-3.36,2.2-4.29,3.57
		c-0.13,0.18-0.26,0.38-0.38,0.57c-1.64,2.38-1.84,4.06-1.86,4.06c-0.1,0.23-1.06-1.05,0.72-4.57c0.58-1.14,1.88-2.38,3.15-3.38
		c2.4-1.88,2.79-5.52,0.52-7.59c-0.42-0.41-0.86-0.7-1.22-0.86c-6.64-3.05-14.17,2.22-14.17,9.51l0,24.53
		c0,2.26,3.12,2.88,3.98,0.78c1.04-2.56,0.7-4.52,1.1-4.45c0.03,0.1,0.53,2.46-0.3,4.74c-0.82,2.28-2.25,3.92-3.77,4.5
		c-0.33,0.13-1.01,0.29-1.01,0.29c-0.6,0.08-1.22,0-1.76-0.31c-0.36-0.21-0.67-0.51-0.83-0.91c-0.03-0.1-0.07-0.2-0.08-0.29
		c-0.02-0.11,0.16-41.55,0.16-41.55c-0.02-0.44,0-1.09,0.38-1.7c1.09-1.84,4.31-1.86,5.79-1.88h0.1c2.04,0.11,3.84,0.36,5.42,0.7
		c0.13,0.03,0.26,0.05,0.39,0.1c9.94,2.24,10.92,8.16,11,9.68C74.51,25.65,74.51,25.77,74.51,25.78z"/>
	<path class="st2" d="M70.23,52.61c-0.03,0.31-1.22,0.28-1.22-0.03c0.02-0.03,0.03-0.07,0.03-0.1c0.23-1.62,0.24-4.78-2.19-7.82
		c-1.68-2.12-4.29-3.22-6.79-2.94c-0.16,0-0.28,0.02-0.33,0.03c-0.31,0.08-0.65-0.08-0.77-0.39c-0.1-0.31,0.05-0.64,0.36-0.75
		c0.85-0.33,4.32-0.18,7.07,1.91C68.41,44.03,70.66,47.15,70.23,52.61z"/>
	<path class="st1" d="M23.35,59.62c-0.7,0.1-1.49,0.12-1.49,0.12c-0.05,0-5.01-0.4-5.55,1.89c-0.57,2.4,3.31,7.52,4.2,7.93
		c-0.29,0.58,5.78,13.26,13.93,15.63c5.76,1.68,14.41-6.57,14.41-6.82c0.02-1.09-0.64-9.69-0.71-13.49
		c-0.91,0.11-1.19-1.75-2.07-2.03c-1.68-0.44-3.23-1.49-4.31-2.99c-2.28-3.17-2.12-6.32-1.81-7.92c0.05-0.28,0.33-0.47,0.6-0.41
		c0.29,0.05,0.49,0.33,0.42,0.6c-0.34,1.46-0.17,3.11,0.3,4.52c0.26,0.78,0.65,2.05,1.43,2.31c0.73,0.24,4.76-1.8,5.05-2.4
		c0.31-0.63,0.18-33.26-0.65-33.76c-2.94-1.77-6.27-2.9-9.69-3.26c-0.59-0.06-7.16,0.27-9.22,2.73c-1.72,2.05,0.9,6.23,1.37,6.76
		c1.03,1.16,2.29,2.11,3.23,3.35c0.48,0.63,3.47,6.19,1.74,6.19c-0.23,0-0.44-0.15-0.51-0.38c-0.36-1.39-1.25-3.69-3.06-5.49
		c-2.41-2.33-6.74-2.25-9.59-0.51c-2.34,1.42-3.71,4.51-2.69,7.05c0.53,1.3,1.63,2.62,1.13,3.93c-0.21,0.56-6.69,8.11-0.37,13.95
		c2.12,1.96,6.38-0.31,7.42-0.62c0.49-0.14,1.6-1.06,1.94-0.37c0.13,0.26-0.02,0.51-0.21,0.7c-1.07,1.07-2.29,1.95-3.73,2.45
		C24.88,59.32,24.15,59.51,23.35,59.62z M33.96,45.32c-2.19,2.73-2.17,5.57-1.96,7.02c0.05,0.28-0.16,0.55-0.46,0.59
		c-0.24,0.05-0.47-0.11-0.55-0.34c-0.02-0.03-0.03-0.07-0.03-0.1c-0.23-1.62-0.24-4.78,2.19-7.82c1.68-2.12,4.29-3.22,6.79-2.94
		c0.18,0.02,0.36,0.05,0.54,0.08c0.26,0.05,0.42,0.28,0.42,0.54c0,0.03-0.02,0.05-0.02,0.08c-0.05,0.28-0.33,0.47-0.62,0.41
		C38.04,42.4,35.51,43.39,33.96,45.32z M28.69,69.34c-0.05-0.29,0.15-0.55,0.42-0.6c0.02,0,0.03,0,0.05-0.02
		c1.62-0.28,4.75-0.39,7.83,1.93c2.25,1.66,3.46,4.34,3.15,6.9v0.02c-0.05,0.03-0.1,0.05-0.15,0.07c-0.08,0.03-0.15,0.07-0.23,0.1
		c-0.13,0.05-0.28,0.1-0.41,0.15c-0.08,0.05-0.18,0.08-0.26,0.1c0,0,0.02-0.21,0.03-0.34c0.38-2.25-0.77-4.68-2.76-6.15
		c-2.81-2.09-5.65-1.97-7.08-1.71C29.02,69.82,28.74,69.62,28.69,69.34z"/>
	<path class="st3" d="M20.51,69.57c-0.36,1.11-0.47,2.27-0.36,3.46c0.88,9.65,16.01,20.66,27.32,8.76c0.47-0.47,0.93-1.01,1.37-1.57
		c0-0.62,0.02-1.24,0-1.84c0.02-1.09,0.02-2.19,0.02-3.28v-0.59L48.8,63.09c-0.91,0.11-1.84,0.05-2.73-0.23v2.79
		c0,2.02-0.52,4.31-1.4,6.36c-0.83,1.93-3.54,2.06-4.6,0.24c-0.08-0.13-0.16-0.28-0.26-0.41c-3.84-5.52-10.92-3.62-10.64-3.13
		c1.62-0.28,4.75-0.39,7.83,1.93c2.25,1.66,3.46,4.34,3.15,6.9c-0.05,0.03-0.1,0.07-0.15,0.08c-0.08,0.03-0.15,0.07-0.23,0.1
		c-0.05,0.03-0.1,0.05-0.15,0.07c-0.08,0.03-0.18,0.07-0.26,0.08c-0.08,0.05-0.18,0.08-0.26,0.1c-13.61,4.63-16.01-9.68-16.01-9.68
		c-5.22-2.35-4.31-7.75-1.18-8.55c-0.11,0-0.23,0-0.34-0.02c-0.57-0.03-1.13-0.15-1.57-0.28c-0.02,0.02-0.05,0-0.07-0.02
		c-0.38-0.1-0.7-0.21-0.9-0.29c-0.18-0.07-0.28-0.11-0.29-0.11c-0.54-0.23-1.08-0.26-1.58-0.16c-1.16,0.24-2.11,1.22-2.15,2.56
		C14.98,62.01,14.28,66.8,20.51,69.57z"/>
	<path class="st3" d="M16.4,56.29c0.39,0.34,0.85,0.69,1.35,1.01c0.05,0.03,0.1,0.07,0.15,0.1c0.18,0.1,0.36,0.21,0.55,0.31
		c0.2,0.11,0.39,0.21,0.6,0.31c0.05,0.03,0.08,0.05,0.13,0.07c0.2,0.08,0.41,0.15,0.62,0.21c0.21,0.07,0.42,0.13,0.65,0.18
		c0.26,0.08,0.54,0.13,0.83,0.18c0.2,0.03,0.39,0.05,0.59,0.05c1.18,0.07,2.25-0.15,3.17-0.52c0.13-0.07,2.47-1.43,3.13-2.25
		l0.05-0.04c-0.21-0.34-2.22,0.92-3.11,1.15c-0.02,0.01-0.04,0.01-0.07,0.02c-4.52,1.18-8.69-3.26-7.38-7.75
		c0.85-2.93,3.12-5.42,5.72-5.9c-7.33-3.54-3.33-14.57,6.15-11.65c-2.71-1.91-5.04-1.89-6.76-1.34c-0.08,0.02-0.16,0.05-0.24,0.08
		c-0.13,0.05-0.26,0.1-0.41,0.16c-0.34,0.15-0.64,0.31-0.91,0.47c-6.95,4.26-3.92,9.82-3.07,11.38c-0.98,0.41-1.94,1.22-2.71,2.28
		c-0.05,0.05-0.08,0.1-0.11,0.15c-0.11,0.16-0.23,0.34-0.34,0.51c-0.15,0.26-0.29,0.51-0.42,0.78c-0.05,0.1-0.1,0.2-0.15,0.31
		C13.1,49.51,13.14,53.41,16.4,56.29z"/>
	<path class="st3" d="M25.49,25.78c0,0.47,0.13,0.91,0.34,1.34c0.13,0.28,0.29,0.52,0.47,0.77c0.03,0.05,0.07,0.1,0.1,0.13
		c0.18,0.21,0.36,0.42,0.55,0.62c0.34,0.34,0.7,0.65,1.06,0.91c0.02,0,0.03,0.02,0.07,0.05c0.08,0.05,0.24,0.15,0.46,0.28
		c1.03,0.64,3.36,2.2,4.29,3.57c0.13,0.18,0.26,0.38,0.38,0.57c1.64,2.38,1.84,4.06,1.86,4.06c0.1,0.23,1.06-1.05-0.72-4.57
		c-0.58-1.14-1.88-2.38-3.15-3.38c-2.4-1.88-2.79-5.52-0.52-7.59c0.42-0.41,0.86-0.7,1.22-0.86c6.64-3.05,14.17,2.22,14.17,9.51
		l0,24.53c0,2.26-3.12,2.88-3.98,0.78c-1.04-2.56-0.7-4.52-1.1-4.45c-0.03,0.1-0.53,2.46,0.3,4.74c0.82,2.28,2.25,3.92,3.77,4.5
		c0.33,0.13,1.01,0.29,1.01,0.29c0.6,0.08,1.22,0,1.76-0.31c0.36-0.21,0.67-0.51,0.83-0.91c0.03-0.1,0.07-0.2,0.08-0.29
		c0.02-0.11,0.03-0.23,0.03-0.36l-0.02-4.24l-0.18-36.62v-0.33c0.02-0.44,0-1.09-0.38-1.7c-1.09-1.84-4.31-1.86-5.79-1.88h-0.1
		c-2.04,0.11-3.84,0.36-5.42,0.7c-0.13,0.03-0.26,0.05-0.39,0.1c-9.94,2.24-10.92,8.16-11,9.68C25.49,25.65,25.49,25.77,25.49,25.78
		z"/>
	<path class="st3" d="M29.77,52.61c0.03,0.31,1.22,0.28,1.22-0.03c-0.02-0.03-0.03-0.07-0.03-0.1c-0.23-1.62-0.24-4.78,2.19-7.82
		c1.68-2.12,4.29-3.22,6.79-2.94c0.16,0,0.28,0.02,0.33,0.03c0.31,0.08,0.65-0.08,0.77-0.39c0.1-0.31-0.05-0.64-0.36-0.75
		c-0.85-0.33-4.32-0.18-7.07,1.91C31.59,44.03,29.34,47.15,29.77,52.61z"/>
</g>
</svg>
