<?xml version="1.0" encoding="utf-8"?>
<!-- Generator: Adobe Illustrator 21.0.0, SVG Export Plug-In . SVG Version: 6.00 Build 0)  -->
<svg version="1.1" id="Layer_1" xmlns="http://www.w3.org/2000/svg" xmlns:xlink="http://www.w3.org/1999/xlink" x="0px" y="0px"
	 viewBox="0 0 100 100" style="enable-background:new 0 0 100 100;" xml:space="preserve">
<style type="text/css">
	.st0{fill:#F2F2F2;fill-opacity:0;}
	.st1{fill:#B5B5B5;}
	.st2{fill:#646767;}
	.st3{enable-background:new    ;}
	.st4{fill:#F2F2F2;}
	.st5{fill:#D8D8D8;}
</style>
<path class="st0" d="M89.6,10.3V58c-0.2-0.2-0.5-0.4-0.8-0.6c-2.6-2.1-5.8-3.5-9.2-4.2C79,53.1,78.6,53,78,53c-0.1,0-0.2,0-0.2,0
	c-0.1,0-0.1,0-0.2,0c-0.6-0.1-1.3-0.1-1.9-0.1c-1.2,0-2.3,0.1-3.4,0.3c-0.5,0.1-0.9,0.2-1.4,0.3c-0.7,0.1-1.3,0.3-2,0.6
	c-1.4,0.5-2.7,1.1-4,1.8c-0.7,0.4-1.3,0.8-1.9,1.2c-0.2,0.2-0.5,0.4-0.7,0.6c-0.2,0.2-0.4,0.4-0.7,0.5c-0.6,0.6-1.2,1.2-1.7,1.8
	c-0.5,0.5-1,1.1-1.5,1.8c-0.8,1.1-1.5,2.2-2,3.5c-0.2,0.5-0.4,0.9-0.6,1.4c0,0,0,0.1,0,0.1c-0.9,2.4-1.4,4.9-1.4,7.6
	c0,1.3,0.1,2.6,0.3,3.8c0.9,4.9,3.4,9.2,7,12.2H9.6v-80H89.6z"/>
<path class="st1" d="M77.8,24.4v28.5c-0.1,0-0.1,0-0.2,0c-0.6-0.1-1.3-0.1-1.9-0.1c-1.2,0-2.3,0.1-3.4,0.3c-0.5,0.1-0.9,0.2-1.4,0.3
	c-0.7,0.1-1.3,0.3-2,0.6c-1.4,0.5-2.7,1.1-4,1.8c-0.7,0.4-1.3,0.8-1.9,1.2c-0.2,0.2-0.5,0.4-0.7,0.6c-0.2,0.2-0.4,0.4-0.7,0.5
	c-0.6,0.6-1.2,1.2-1.7,1.8c-0.5,0.5-1,1.1-1.5,1.8c-1.1,1.5-2,3.2-2.7,4.9c-0.9,2.4-1.4,4.9-1.4,7.6c0,1.3,0.1,2.6,0.3,3.8H24
	c-1.4,0-2.5-1.1-2.5-2.5V24.3c0-1.4,1.1-2.5,2.5-2.5h51.3C76.7,21.9,77.8,23,77.8,24.4z"/>
<circle class="st1" cx="75.7" cy="74.1" r="19.6"/>
<path class="st2" d="M83.8,73.3c0.6,0.4,0.6,1.3,0,1.6l-6.4,3.7L71,82.3c-0.6,0.4-1.4-0.1-1.4-0.8v-7.4v-7.4c0-0.7,0.8-1.2,1.4-0.8
	l6.4,3.7L83.8,73.3z"/>
<g class="st3">
	<path class="st2" d="M60.5,36.5c-0.7,0.1-1.3,0.1-1.9,0.1H41.3c-0.6,0-1.2,0-1.8-0.1c-0.6-0.1-1.3-0.1-2-0.2l-1.2,9.6l1.4,0.4
		c0.6-2.6,1.5-4.5,2.7-5.8c1.2-1.3,2.8-1.9,4.8-1.9c1.5,0,2.2,0.5,2.2,1.7V61c0,2.8-1.6,4.1-4.8,4.1v1.3h13.2
		c0.2-0.5,0.4-0.9,0.6-1.4c-3-0.1-4.5-1.5-4.5-4.1V40.2c0-1,0.7-1.5,2.2-1.5c4.4,0,6.8,2.4,7.2,7.2l1.2-0.2v-9.4
		C61.9,36.4,61.2,36.5,60.5,36.5z"/>
</g>
<path class="st4" d="M47.1,53.5L47.1,53.5C47.1,53.6,47.1,53.5,47.1,53.5z"/>
<path class="st5" d="M50.5,53.5C50.5,53.6,50.5,53.6,50.5,53.5L50.5,53.5z"/>
<path class="st4" d="M51.3,53.5C51.3,53.6,51.3,53.6,51.3,53.5L51.3,53.5z"/>
<g>
	<path class="st4" d="M78,51.9V53c-0.1,0-0.2,0-0.2,0c-0.1,0-0.1,0-0.2,0c-0.6-0.1-1.3-0.1-1.9-0.1c-1.2,0-2.3,0.1-3.4,0.3
		c-0.5,0.1-0.9,0.2-1.4,0.3c-0.7,0.1-1.3,0.3-2,0.6c-1.4,0.5-2.7,1.1-4,1.8c-0.7,0.4-1.3,0.8-1.9,1.2H21v-5.1H78z"/>
	<path class="st5" d="M62.6,51.8v5.1H52l-1.9-1.1l-1-0.6l0,0l-1.4-0.9c0.3,0,0.8-0.1,1.5-0.5c0.3-0.1,0.6-0.3,1-0.5
		c0.9-0.4,1.9-0.9,3-1.5C53.3,51.8,62.6,51.8,62.6,51.8z"/>
	<path class="st4" d="M61.6,49.5v8.6c-0.6,0.6-1.2,1.2-1.7,1.8c-0.5,0.5-1,1.1-1.5,1.8l-5.7-3.5l-0.7-0.4L50.9,57l-1.8-1.1L49,55.8
		l-0.5-0.3l-1.9-1.1c0.3,0,1.1-0.3,2.1-0.8c0.1,0,0.2-0.1,0.3-0.2c0,0,0,0,0,0c0.2-0.1,0.4-0.2,0.7-0.3c0.1,0,0.2-0.1,0.3-0.1
		c0.3-0.1,0.6-0.3,0.9-0.5c0.3-0.2,0.7-0.4,1.1-0.6c0.2-0.1,0.4-0.2,0.7-0.3h0c0.2-0.1,0.4-0.2,0.5-0.3c2-1.1,4.1-2.2,5.6-3.1
		C60.1,47.3,61.6,48.2,61.6,49.5z"/>
	<path class="st5" d="M50.6,54.3l-1.5,0.9l0,0l-2.9,1.8H35.6v-5.1h9.5c1.5,0.9,3,1.5,4,2C49.9,54,50.4,54.3,50.6,54.3z"/>
	<path class="st4" d="M51.6,54.3l-2.5,1.5l-2.8,1.8l-7,4.4c-1.1,0.8-2.8-0.1-2.8-1.5V49.5c0-1.4,1.5-2.3,2.6-1.5
		c1.9,1,4.4,2.5,6.6,3.8c1.1,0.6,2.3,1.1,3.1,1.6C50.4,53.9,51.3,54.3,51.6,54.3z"/>
	<path class="st5" d="M54.5,54.4c0,1.5-0.8,2.9-1.8,3.8l-3.6-2.3l-2.8,1.6c-0.8-0.9-1.3-1.9-1.3-3.1c0-1,0.3-1.9,0.9-2.6
		c1.1,0.6,2.3,1.1,3.1,1.6c1.1-0.5,2.6-1.4,4.1-2.1C54,52,54.5,53.2,54.5,54.4z"/>
	<circle class="st4" cx="49.9" cy="54.4" r="4"/>
</g>
</svg>
