<?xml version="1.0" encoding="utf-8"?>
<!-- Generator: Adobe Illustrator 22.0.1, SVG Export Plug-In . SVG Version: 6.00 Build 0)  -->
<svg version="1.1" id="Layer_1" xmlns="http://www.w3.org/2000/svg" xmlns:xlink="http://www.w3.org/1999/xlink" x="0px" y="0px"
	 viewBox="0 0 100 100" style="enable-background:new 0 0 100 100;" xml:space="preserve">
<style type="text/css">
	.st0{fill:#FFFFFF;fill-opacity:0;}
	.st1{fill:none;stroke:#7F8080;stroke-width:4;stroke-miterlimit:10;}
	.st2{opacity:0.35;fill:#FFFFFF;enable-background:new    ;}
	.st3{fill:#6A6B6A;}
</style>
<g>
	<rect x="9.5" y="9.5" class="st0" width="81" height="81"/>
	<g>
		<circle class="st1" cx="50.5" cy="50" r="31.7"/>
		<circle class="st2" cx="50.5" cy="50" r="29.8"/>
	</g>
	<g>
		<g>
			<path class="st3" d="M32.475,39.1c-0.434,1.401-0.76,2.509-0.962,3.208c-0.55,1.898-0.788,2.837-1.604,3.849
				c-0.359,0.445-0.714,0.762-0.962,0.962c0.214,0.748,0.428,1.497,0.642,2.245c0.962-0.214,1.925-0.428,2.887-0.642
				c-0.566,1.084-0.964,1.862-1.226,2.379c-0.28,0.551-0.488,0.967-0.944,1.366c-0.432,0.377-0.887,0.564-1.205,0.663
				c0.169,0.343,0.346,0.774,0.482,1.285c0.109,0.408,0.169,0.782,0.201,1.105c0.808-0.146,1.654-0.324,2.53-0.542
				c1.59-0.395,3.038-0.86,4.338-1.346c0-0.777,0-1.553,0-2.33c-0.335,0.186-0.71,0.371-1.125,0.542
				c-0.954,0.393-1.839,0.597-2.571,0.703c-0.007-0.1-0.013-0.201-0.02-0.301c0.316-0.506,0.631-1.021,0.944-1.546
				c1.2-2.015,2.265-3.996,3.213-5.925c-0.77-0.288-1.54-0.576-2.31-0.864c-0.375,0.89-0.75,1.781-1.125,2.671
				c-0.629,0.074-1.259,0.147-1.888,0.221c0.156-0.269,0.31-0.543,0.462-0.823c1.083-2,1.873-3.973,2.45-5.844
				C33.948,39.791,33.211,39.445,32.475,39.1z"/>
			<path class="st3" d="M28.906,57.744c0.085,0.554,0.158,1.134,0.215,1.74c0.026,0.277,0.047,0.549,0.064,0.816
				c0.891-0.169,1.832-0.38,2.814-0.644c1.631-0.439,3.101-0.953,4.403-1.482c0.031-0.241,0.054-0.499,0.064-0.773
				c0.023-0.603-0.018-1.146-0.086-1.611c-0.757,0.305-1.397,0.541-1.869,0.709c-2.856,1.015-4.116,1.157-4.661,1.203
				C29.452,57.735,29.123,57.743,28.906,57.744z"/>
			<path class="st3" d="M36.123,59.033c0.625-0.887,1.29-1.974,1.89-3.265c0.374-0.804,0.669-1.57,0.902-2.277
				c0.723,0.315,1.446,0.63,2.169,0.945c-0.341,0.975-0.781,2.056-1.353,3.2c-0.5,1-1.021,1.887-1.525,2.663
				C37.512,59.878,36.817,59.455,36.123,59.033z"/>
			<path class="st3" d="M50.102,43.931v-2.278c-2.21-0.01-4.42-0.019-6.63-0.026c0.196-0.658,0.395-1.312,0.59-1.97
				c-0.824-0.167-1.649-0.337-2.473-0.504c-0.074,0.427-0.167,0.876-0.279,1.347c-0.096,0.395-0.202,0.77-0.311,1.126
				c-1.639,0.026-3.278,0.055-4.918,0.083v2.107h4.356c-0.215,0.654-0.43,1.309-0.645,1.966c-0.937,0.01-1.873,0.019-2.81,0.029
				v2.245c0.616-0.01,1.235-0.019,1.854-0.026c-0.122,0.35-0.276,0.738-0.478,1.152c-0.212,0.43-0.433,0.805-0.648,1.123
				c0.17,0.776,0.34,1.556,0.507,2.332c1.546-0.029,3.092-0.055,4.635-0.083c0.029,1.347,0.058,2.698,0.087,4.045
				c0.01,0.449,0.016,0.898,0.026,1.347c0.003,0.055,0,0.337-0.225,0.565c-0.26,0.26-0.603,0.228-0.645,0.225H39.93
				c0.225,0.722,0.452,1.44,0.677,2.162c1.001-0.029,2.002-0.055,3.006-0.083c0.205-0.039,0.507-0.128,0.815-0.337
				c0.635-0.433,0.84-1.081,0.898-1.293c-0.01-2.201-0.019-4.401-0.029-6.602h4.776c0.01-0.77,0.019-1.537,0.029-2.306h-4.831
				v-4.465h-3.038c0.228-0.629,0.452-1.257,0.677-1.883h7.192V43.931z M42.994,47.976v2.332h-2.557
				c0.196-0.314,0.407-0.709,0.59-1.18c0.16-0.411,0.266-0.792,0.337-1.123C41.906,47.995,42.451,47.986,42.994,47.976z"/>
			<path class="st3" d="M46.363,54.265c0.736-0.256,1.472-0.513,2.208-0.769c0.328,0.675,0.652,1.386,0.968,2.134
				c0.529,1.254,0.971,2.459,1.34,3.597c-0.711,0.306-1.422,0.612-2.134,0.918c-0.208-0.829-0.487-1.749-0.868-2.729
				C47.402,56.196,46.872,55.145,46.363,54.265z"/>
		</g>
		<g>
			<path class="st3" d="M53.806,55.282c0.63-0.166,1.512-0.411,2.555-0.744c1.795-0.573,4.536-1.553,7.716-3.151
				c0.663-0.333,1.5-0.771,2.456-1.315c0.215,0.695,0.43,1.389,0.645,2.084c-0.709,0.454-1.453,0.902-2.233,1.34
				c-3.529,1.98-6.962,3.28-10.048,4.143C54.533,56.853,54.169,56.068,53.806,55.282z"/>
			<path class="st3" d="M55.939,46.226c0.587-0.546,1.174-1.092,1.762-1.637c0.606,0.463,1.229,0.966,1.861,1.513
				c1.049,0.908,1.98,1.811,2.804,2.679c-0.571,0.587-1.141,1.174-1.712,1.762c-0.643-0.697-1.361-1.422-2.158-2.158
				C57.615,47.573,56.756,46.857,55.939,46.226z"/>
			<path class="st3" d="M54.516,42.751v-2.349h17.578l-0.431,14.642l-0.117,2.231c0,0-0.078,1.018-0.313,1.527
				s-0.274,0.626-0.587,1.018c-0.313,0.391-0.47,0.548-0.861,0.705s-0.548,0.157-1.018,0.196c-0.47,0.039-4.463,0-4.463,0
				l-0.68-2.115l3.929-0.014c0,0,0.742-0.114,1.11-0.538c0.477-0.551,0.676-1.326,0.706-2.033
				c0.029-0.675,0.326-13.308,0.326-13.308L54.516,42.751z"/>
		</g>
	</g>
</g>
</svg>
