<?xml version="1.0" encoding="utf-8"?>
<!-- Generator: Adobe Illustrator 21.0.0, SVG Export Plug-In . SVG Version: 6.00 Build 0)  -->
<svg version="1.1" id="Layer_1" xmlns="http://www.w3.org/2000/svg" xmlns:xlink="http://www.w3.org/1999/xlink" x="0px" y="0px"
	 viewBox="0 0 100 100" style="enable-background:new 0 0 100 100;" xml:space="preserve">
<style type="text/css">
	.st0{fill:#FFFFFF;fill-opacity:0;}
	.st1{fill:#9D9E9E;}
	.st2{fill:#6A6B6A;}
</style>
<rect x="9" y="9.5" class="st0" width="81" height="81"/>
<g>
	<path class="st1" d="M43.8,86c-0.3,0-0.6,0-0.8,0c-9,0-17.9,0-26.9,0c-1.3,0-1.5-0.2-1.5-1.5c0-8.9,0-17.9,0-26.8
		c0-0.3,0-0.5,0-0.8c2.8,0,5.5,0,8.3,0c-2.1,4.2-1.6,8,2.5,10.7c2.8,1.9,6.3,1.4,8.9-0.8c1.4-1.2,2.2-2.8,2.5-4.7
		c0.2-1.8-0.2-3.5-1.2-5.2c2.8,0,5.5,0,8.3,0c0,0.2,0,0.5,0,0.7c0,3.2,0,6.4,0,9.6c0,1.6,0.8,2.3,2.4,2.1c1.2-0.1,2.1-0.7,3.1-1.3
		c1.4-0.9,2.9-0.9,4.3-0.1c2,1.1,2.6,3.7,1.4,5.7c-1.2,1.9-3.8,2.6-5.7,1.4c-1-0.6-2-1.3-3.3-1.4c-1.5-0.1-2.3,0.5-2.3,2.1
		c0,3.2,0,6.4,0,9.6C43.8,85.4,43.8,85.6,43.8,86z"/>
	<path class="st1" d="M43.8,53.3c-1.2,0-2.4,0-3.5,0c-2.3,0-4.6,0-6.8,0c-1.5,0-2.2,0.8-2.1,2.3c0.1,1,0.5,2,1.1,2.8
		c0.9,1.2,1.2,2.5,0.7,4c-0.6,1.7-1.8,2.6-3.6,2.8c-1.6,0.1-2.9-0.5-3.8-1.9c-0.9-1.4-0.9-3,0-4.4c0.7-1,1.2-2.1,1.4-3.3
		c0.1-1.4-0.6-2.2-1.9-2.2c-3.2,0-6.5,0-9.7,0c-0.2,0-0.5,0-0.8,0c0-0.3,0-0.5,0-0.8c0-9,0-18,0-27c0-1.2,0.2-1.4,1.4-1.4
		c9,0,18.1,0,27.1,0c0.2,0,0.4,0,0.7,0c0,2.8,0,5.5,0,8.3c-2.2-1.3-4.6-1.7-7-0.8c-1.5,0.6-2.7,1.6-3.6,2.9
		c-1.7,2.6-1.6,6.2,0.3,8.6c1.2,1.6,2.8,2.6,4.8,3c1.6,0.3,2.1,0.2,5.6-1.1C43.8,47.8,43.8,50.5,43.8,53.3z"/>
	<path class="st2" d="M86.7,26.5c-1.2-1.9-3.8-2.6-5.7-1.4c-1,0.7-1.7,0.7-3,0.8c-1.3,0.1-1.3-0.4-1.4-1.7c0-0.1,0-10.2,0-10.2h-8.2
		c2.1,4.2,1.6,7.9-2.4,10.7c-2.3,1.6-8.9,1.7-10.5-2.7c0,0,0-0.1-0.1-0.1c-0.4-0.8-0.7-1.6-0.9-2.6c-0.3-1.9,0.2-3.7,1.2-5.3
		c-0.1,0-0.1,0-0.2,0h0c0,0-0.1,0-0.1,0h-8v29.2c0,0,0,0,0,0h29.2c0,0,0-10.4,0-10.4c0.2-1.2,0.1-1.8,1.6-1.6
		c1.1,0.1,1.8,0.3,2.7,0.9c1.4,0.9,2.9,1,4.4,0.1C87.2,31.1,87.9,28.5,86.7,26.5z"/>
	<path class="st1" d="M76.5,56.8v27.7c0,1.4-0.2,1.5-1.5,1.5H47.3v-8.3c2.1,1.3,4.3,1.7,6.6,0.9c1.6-0.5,2.9-1.5,3.9-2.9
		c1.9-2.7,1.7-6.4-0.5-9c-1.9-2.3-5.7-4-10.1-1.5v-8.3h10.3c1.5,0,2.3-0.8,2.1-2.3c0-0.4-0.1-0.8-0.2-1.1c-0.2-0.6-0.5-1.1-0.8-1.6
		c-0.9-1.2-1.2-2.5-0.7-4c0.6-1.7,1.8-2.6,3.6-2.8c1.6-0.1,2.9,0.5,3.8,1.9c0.9,1.4,0.9,2.9,0.1,4.4c-0.4,0.7-0.9,1.4-1.1,2.1
		c-0.1,0.4-0.2,0.8-0.3,1.2c-0.1,1.4,0.6,2.2,2,2.2C69.2,56.8,76.5,56.8,76.5,56.8z"/>
</g>
</svg>
