<?xml version="1.0" encoding="utf-8"?>
<!-- Generator: Adobe Illustrator 20.1.0, SVG Export Plug-In . SVG Version: 6.00 Build 0)  -->
<svg version="1.1" id="Layer_1" xmlns="http://www.w3.org/2000/svg" xmlns:xlink="http://www.w3.org/1999/xlink" x="0px" y="0px"
	 viewBox="0 0 100 100" style="enable-background:new 0 0 100 100;" xml:space="preserve">
<style type="text/css">
	.st0{opacity:0.35;fill:#FFFFFF;enable-background:new    ;}
	.st1{fill:none;stroke:#7F8080;stroke-width:3;stroke-miterlimit:10;}
	.st2{fill:#B5B5B6;}
	.st3{fill:#7F8080;}
	.st4{fill:none;stroke:#7F8080;stroke-width:2;stroke-miterlimit:10;}
	.st5{fill:none;stroke:#7F8080;stroke-width:6;stroke-miterlimit:10;}
	.st6{fill:none;stroke:#7F8080;stroke-width:4;stroke-miterlimit:10;}
</style>
<circle class="st0" cx="50" cy="53.3" r="29.8"/>
<line class="st1" x1="50" y1="53.3" x2="57.7" y2="35.5"/>
<g>
	<circle class="st2" cx="50" cy="53.3" r="2.5"/>
	<path class="st3" d="M50,51.4c1.1,0,1.9,0.9,1.9,1.9c0,1.1-0.9,1.9-1.9,1.9s-1.9-0.9-1.9-1.9C48.1,52.2,48.9,51.4,50,51.4 M50,50.3
		c-1.6,0-3,1.4-3,3s1.4,3,3,3s3-1.4,3-3S51.6,50.3,50,50.3L50,50.3z"/>
</g>
<line class="st4" x1="24.3" y1="53.3" x2="26.9" y2="53.3"/>
<line class="st4" x1="73.1" y1="53.3" x2="75.7" y2="53.3"/>
<line class="st4" x1="50" y1="79" x2="50" y2="76.4"/>
<line class="st4" x1="50" y1="30.2" x2="50" y2="27.7"/>
<line class="st4" x1="31.9" y1="35.2" x2="33.7" y2="37"/>
<line class="st5" x1="23.8" y1="27.6" x2="26.6" y2="30.3"/>
<line class="st4" x1="66.3" y1="69.6" x2="68.1" y2="71.4"/>
<line class="st4" x1="31.9" y1="71.4" x2="33.7" y2="69.6"/>
<line class="st4" x1="66.3" y1="37" x2="68.1" y2="35.2"/>
<line class="st6" x1="50" y1="24.6" x2="50" y2="20.2"/>
<path class="st3" d="M55.5,20.4h-11c-0.6,0-1.1-0.4-1.1-1.1v-3.2c0-0.6,0.4-1.1,1.1-1.1h11.1c0.6,0,1.1,0.4,1.1,1.1v3.2
	C56.6,20,56.1,20.4,55.5,20.4z"/>
<circle class="st6" cx="50" cy="53.3" r="29.8"/>
</svg>
