<?xml version="1.0" encoding="utf-8"?>
<!-- Generator: Adobe Illustrator 23.0.1, SVG Export Plug-In . SVG Version: 6.00 Build 0)  -->
<svg version="1.1" id="Layer_1" xmlns="http://www.w3.org/2000/svg" xmlns:xlink="http://www.w3.org/1999/xlink" x="0px" y="0px"
	 viewBox="0 0 100 100" style="enable-background:new 0 0 100 100;" xml:space="preserve">
<style type="text/css">
	.st0{fill:#FFFFFF;fill-opacity:0;}
	.st1{fill:#DDDDDD;}
	.st2{fill:#9D9E9E;}
	.st3{fill:#6A6B6A;}
	.st4{fill:#9F9F9F;}
</style>
<rect x="10" y="10" class="st0" width="80" height="80"/>
<path class="st1" d="M85.8,52c0,9.1-3.4,17.4-9.1,23.7c-0.1,0.2-0.3,0.3-0.5,0.5c-0.5,0.5-1,1.1-1.6,1.6c-5.1,4.8-11.7,8.1-19,9.2
	c-1.5,0.2-3.1,0.4-4.7,0.4c-0.1,0-0.3,0-0.4,0s-0.2,0-0.4,0c-1.5,0-2.9-0.1-4.3-0.3C45.4,87,45,87,44.6,86.9
	c-8-1.3-15.1-5.4-20.3-11.1c-0.1-0.1-0.1-0.1-0.2-0.2c-0.6-0.7-1.2-1.4-1.7-2.1c-4.4-6-7.1-13.4-7.1-21.5c0-5.4,1.2-10.6,3.4-15.2
	c1.9,1,4,1.6,6.3,1.6c7.4,0,13.5-6,13.5-13.5c0-2-0.4-3.9-1.2-5.6c4.1-1.7,8.6-2.6,13.3-2.6C70,16.8,85.8,32.6,85.8,52z"/>
<g>
	<path class="st2" d="M62,39.5l-1.9,18.2c0,1.9-0.8,3.7-2.1,4.7c0,0-5.8,5.4-6.5,5.4h-3.7c-0.7,0-6.4-5.4-6.4-5.4
		c-1.3-1-2.1-2.8-2.1-4.7l-3.9-17L62,39.5z"/>
	<path class="st3" d="M39.1,53.9l-1.7-0.8c-1.9-1.2-2.1-8.7-2-13.3c0-2.1,1.3-3.9,3.2-4.7c0,0,3.8-5.7,8.4-5
		c8.7,1.4,13.7-3.4,13.7-3.4l0,0c2.2,1.8,3.4,4.4,3.4,7.1c0,0-0.2,7-0.7,12.2c-0.4,4.2-1.3,6.6-1.3,6.6L60.5,54l-0.8-10.6
		c-0.1-1-0.9-1.8-1.9-1.9l-15.3-0.6c-1,0-1.9,0.7-2.1,1.7c-0.3,1.8-0.7,4.7-0.9,6.9L39.1,53.9z"/>
	<path class="st2" d="M38.8,52.7c0.6,2,1.86,5,0.06,5.7c-1,0.3-2.86-1.5-3.46-3.5s-0.2-3.8,0.8-4.1S38.2,50.8,38.8,52.7z"/>
	<path class="st2" d="M60.2,52.7c-0.6,2-1.4,4.5,0.4,5.2c1,0.3,2.4-1,3-3c0.6-2,0.2-3.8-0.8-4.1S60.8,50.8,60.2,52.7z"/>
</g>
<path class="st4" d="M50.6,72.2L50.6,72.2C50.5,72.2,50.5,72.2,50.6,72.2C50.5,72.2,50.5,72.2,50.6,72.2z"/>
<path class="st4" d="M50.5,72.2L50.5,72.2L50.5,72.2L50.5,72.2z"/>
<path class="st3" d="M76.7,75.7c-0.1,0.2-0.3,0.3-0.5,0.5c-0.5,0.5-1,1.1-1.6,1.6c-5.1,4.8-11.7,8.1-19,9.2
	c-1.5,0.2-3.1,0.4-4.7,0.4h-0.8c-1.5,0-2.9-0.1-4.3-0.3C45.4,87,45,87,44.6,86.9c-8-1.3-15.1-5.4-20.3-11.1l2.9-2.8
	c1-1,2.3-1.7,3.7-2.1l11.8-3l7.8,0.2l7.8-0.2l11.8,3c1.4,0.4,2.6,1.1,3.7,2.1L76.7,75.7z"/>
<g>
	<path class="st2" d="M44.5,78.5l-0.1-0.3c-0.2-0.8-1.1-2.3-2-3.8c-1.4-2.3-2.2-3.7-2.2-4.5c0.2-2.7,0.3-4.4,0.2-4.8
		c0-0.5-0.6-1.4-1.1-2.2c-1-1.6-2.1-3.3-1.3-4.7c0.1-0.2,0.3-0.3,0.5-0.3c0.5,0,1.2,0.7,3.3,3c2.3,2.5,5.7,6.3,7.7,6.5
		c0.8-0.2,1.5-0.6,2.2-1c0.8-0.4,1.7-0.9,2.8-1.2c0.2,0,0.4-0.1,0.6-0.1c0.6,0,0.8,0.3,0.9,0.5c0.2,0.4,0,0.8-0.4,1.3
		s-0.8,0.9-1.2,1.4c-0.3,0.3-0.5,0.6-0.8,0.9c-1,1.2-1.8,2.5-2.4,4.1l-0.1,0.2c-0.2,0.5-0.5,1.4-0.5,1.9c0,0.3,0.7,1.8,1.1,2.4
		l0.4,0.6h-7.6V78.5z"/>
	<path class="st1" d="M38.6,58.4c1.1,0,7.5,9.2,11,9.4c1.8-0.4,3.1-1.7,5.1-2.1c0.2,0,0.4-0.1,0.5-0.1c0.6,0,0.7,0.4,0.2,1.1
		c-0.6,0.8-1.3,1.5-2,2.3c-1.1,1.3-1.9,2.7-2.5,4.2c-0.2,0.6-0.7,1.6-0.5,2.2c0.1,0.4,0.8,2,1.2,2.6h-6.7c-0.4-1.8-4.2-6.8-4.2-8.1
		c0.1-1.8,0.3-4.3,0.2-4.8c-0.1-1.6-3.5-4.8-2.4-6.6C38.5,58.4,38.5,58.4,38.6,58.4 M38.6,57.6c-0.3,0-0.7,0.2-0.8,0.5
		c-0.9,1.6,0.3,3.4,1.3,5.1c0.5,0.8,1,1.6,1,2c0,0.2,0,1-0.2,4.7c-0.1,0.9,0.8,2.4,2.2,4.7c0.8,1.4,1.8,2.9,2,3.6l0.1,0.6h0.6h6.7
		h1.4l-0.7-1.2c-0.3-0.6-1-2-1.1-2.3c-0.1-0.4,0.3-1.2,0.4-1.6l0.1-0.2c0.6-1.5,1.4-2.9,2.3-4c0.3-0.3,0.5-0.6,0.8-0.9
		c0.4-0.5,0.8-0.9,1.2-1.4c0.7-0.8,0.6-1.4,0.4-1.7c-0.1-0.2-0.4-0.7-1.2-0.7c-0.2,0-0.4,0-0.7,0.1c-1.1,0.3-2,0.7-2.9,1.2
		c-0.7,0.4-1.4,0.7-2.1,0.9c-1.9-0.3-5.3-4-7.4-6.3C40,58.4,39.3,57.6,38.6,57.6L38.6,57.6z"/>
</g>
<path class="st1" d="M59.1,86.3c-0.3,0.1-0.7,0.2-1,0.2c-0.8,0.2-1.6,0.3-2.4,0.4c-1.7,0.2-3.4,0.4-5.1,0.4c-1.4,0-2.8-0.1-4.1-0.2
	c-0.2,0-0.4,0-0.5-0.1c-0.2,0-0.4-0.1-0.6-0.1l-2.1-10.3l7.8-1.4L59.1,86.3z"/>
<path class="st3" d="M58.1,86.5c-0.8,0.2-1.6,0.3-2.4,0.4c-1.7,0.2-3.4,0.4-5.1,0.4c-1.4,0-2.8-0.1-4.1-0.2l-2.1-9.9l6.2-1
	L58.1,86.5z"/>
<circle class="st1" cx="25" cy="25" r="12.4"/>
<g>
	<path class="st3" d="M23.8,26.8c0-0.7,0.1-1.2,0.3-1.6c0.2-0.4,0.5-0.8,0.9-1.2c0.4-0.4,0.7-0.7,0.9-1c0.1-0.2,0.2-0.5,0.2-0.8
		c0-0.8-0.4-1.2-1.2-1.2c-0.4,0-0.7,0.1-0.9,0.3s-0.3,0.5-0.3,0.9h-2.1c0-0.9,0.3-1.7,0.9-2.2s1.4-0.8,2.4-0.8s1.9,0.3,2.4,0.8
		c0.6,0.5,0.9,1.2,0.9,2.1c0,0.4-0.1,0.8-0.3,1.2c-0.2,0.4-0.5,0.8-1,1.2l-0.6,0.6c-0.4,0.4-0.6,0.8-0.6,1.3v0.5h-1.9V26.8z
		 M23.6,29.1c0-0.3,0.1-0.6,0.3-0.8c0.2-0.2,0.5-0.3,0.9-0.3c0.3,0,0.6,0.1,0.9,0.3s0.3,0.5,0.3,0.8s-0.1,0.6-0.3,0.8
		c-0.2,0.2-0.5,0.3-0.9,0.3s-0.6-0.1-0.9-0.3C23.7,29.7,23.6,29.4,23.6,29.1z"/>
</g>
</svg>
