<?xml version="1.0" encoding="utf-8"?>
<!-- Generator: Adobe Illustrator 20.1.0, SVG Export Plug-In . SVG Version: 6.00 Build 0)  -->
<svg version="1.1" id="Layer_1" xmlns="http://www.w3.org/2000/svg" xmlns:xlink="http://www.w3.org/1999/xlink" x="0px" y="0px"
	 viewBox="0 0 100 100" style="enable-background:new 0 0 100 100;" xml:space="preserve">
<style type="text/css">
	.st0{fill:#5D5E5E;}
	.st1{fill:#E2E2E2;}
	.st2{fill:#7F8080;}
	.st3{fill:#686969;}
	.st4{fill:#C4C4C4;}
	.st5{opacity:0.63;fill:none;stroke:#B5B6B6;stroke-linecap:round;stroke-miterlimit:10;enable-background:new    ;}
	.st6{fill:#B4B4B5;}
	.st7{fill:#646666;}
</style>
<polygon class="st0" points="80.6,34.1 80.6,41.8 77.9,41.8 77.9,40 75.9,40 75.9,36.1 77.9,36.1 77.9,34.1 "/>
<polygon class="st0" points="14.5,36.1 14.5,40 12.1,40 12.1,41.8 9.4,41.8 9.4,34.1 12.1,34.1 12.1,36.1 "/>
<path class="st1" d="M65.6,22.2V45H24.3V22.2c0-1.1,0.9-2,2-2h37.3C64.7,20.2,65.6,21.1,65.6,22.2z"/>
<path class="st2" d="M75.9,51.6v1c-1.7,0-3.4,0.2-5,0.6l0,0l0,0c0-0.1-2-1.3-2.4-1.4c-0.2,0-0.3-0.1-0.4-0.1s-0.2,0-0.3,0H25.3
	c-0.2,0-0.3,0-0.4,0s-0.2,0-0.4,0.1c-0.3,0.1-0.6,0.2-0.9,0.3c-0.1,0-0.2,0.1-0.2,0.1c-0.1,0.1-0.2,0.1-0.3,0.2s-0.2,0.1-0.3,0.2
	c-0.6,0.4-1,1-1.3,1.7c-0.1,0.1-0.1,0.2-0.1,0.3c0,0,0,0,0,0.1c0,0.2-0.1,0.3-0.1,0.5s0,0.3,0,0.5v13.2c0,0.4,0.1,0.8,0.2,1.2
	c0.1,0.3,0.2,0.6,0.4,0.9c0.7,1.2,2,1.9,3.4,1.9h29.6l0,0c0,0.3,0,0.6,0,1c0,1.9,0.3,3.8,0.8,5.6h-32c-3.1,0-5.7-2.5-5.7-5.7V56.2
	h0.2c-2.1,0-3.8-1.7-3.8-3.8v-0.8v-5.5V33.2c0-2.1,1.7-3.8,3.8-3.8h3.5c0.6,0,1,0.4,1,1V44c0,0.5,0.5,1,1,1h42.4c0.5,0,1-0.5,1-1
	V30.4c0-0.6,0.5-1,1-1h4c2.1,0,3.8,1.7,3.8,3.8v12.9C75.9,46.1,75.9,51.6,75.9,51.6z"/>
<path class="st3" d="M70.9,53.3L70.9,53.3c-1.8,0.4-3.5,1.1-5,2c-0.9,0.5-1.8,1.1-2.7,1.7l0,0c-0.7,0.5-1.4,1.1-2,1.8
	c-0.9,0.9-1.7,1.8-2.5,2.9c-0.3,0.4-0.6,0.9-0.9,1.3c-0.6,1-1.1,2-1.5,3.1c-0.2,0.6-0.5,1.2-0.6,1.8c-0.3,0.9-0.5,1.8-0.6,2.8
	c-0.1,0.7-0.2,1.4-0.2,2.2l0,0H25.3c-1.5,0-2.7-0.8-3.4-2c-0.2-0.3-0.3-0.6-0.4-0.9s-0.2-0.7-0.2-1.1V55.7c0-0.2,0-0.3,0-0.5
	s0.1-0.3,0.1-0.5c0,0,0,0,0-0.1s0.1-0.2,0.1-0.3c0.2-0.7,0.7-1.3,1.3-1.7c0.1-0.1,0.2-0.1,0.3-0.2c0.1-0.1,0.2-0.1,0.3-0.2
	c0.1,0,0.2-0.1,0.2-0.1c0.3-0.1,0.6-0.2,0.9-0.3c0.1,0,0.3-0.1,0.4-0.1s0.2,0,0.4,0h42.5c0.1,0,0.6,0,0.8,0.1
	C69.7,52,70.8,52.9,70.9,53.3z"/>
<g>
	<path class="st4" d="M32,57h-1.1c-0.9,0-1.6-0.7-1.6-1.6l0,0c0-0.9,0.7-1.6,1.6-1.6H32c0.9,0,1.6,0.7,1.6,1.6l0,0
		C33.6,56.3,32.9,57,32,57z"/>
	<path class="st4" d="M28.4,61.9h-1.1c-0.9,0-1.6-0.7-1.6-1.6l0,0c0-0.9,0.7-1.6,1.6-1.6h1.1c0.9,0,1.6,0.7,1.6,1.6l0,0
		C30,61.2,29.3,61.9,28.4,61.9z"/>
	<path class="st4" d="M32,66.2h-1.1c-0.9,0-1.6-0.7-1.6-1.6l0,0c0-0.9,0.7-1.6,1.6-1.6H32c0.9,0,1.6,0.7,1.6,1.6l0,0
		C33.6,65.5,32.9,66.2,32,66.2z"/>
	<path class="st4" d="M38.5,66.2h-1.1c-0.9,0-1.6-0.7-1.6-1.6l0,0c0-0.9,0.7-1.6,1.6-1.6h1.1c0.9,0,1.6,0.7,1.6,1.6l0,0
		C40.1,65.5,39.3,66.2,38.5,66.2z"/>
	<path class="st4" d="M44.9,66.2h-1.1c-0.9,0-1.6-0.7-1.6-1.6l0,0c0-0.9,0.7-1.6,1.6-1.6h1.1c0.9,0,1.6,0.7,1.6,1.6l0,0
		C46.5,65.5,45.8,66.2,44.9,66.2z"/>
	<path class="st4" d="M51.3,66.2h-1c-0.9,0-1.6-0.7-1.6-1.6l0,0c0-0.9,0.7-1.6,1.6-1.6h1c0.9,0,1.6,0.7,1.6,1.6l0,0
		C52.9,65.5,52.2,66.2,51.3,66.2z"/>
	<path class="st4" d="M34.9,61.9h-1.1c-0.9,0-1.6-0.7-1.6-1.6l0,0c0-0.9,0.7-1.6,1.6-1.6h1.1c0.9,0,1.6,0.7,1.6,1.6l0,0
		C36.5,61.2,35.8,61.9,34.9,61.9z"/>
	<path class="st4" d="M41.4,61.9h-1.1c-0.9,0-1.6-0.7-1.6-1.6l0,0c0-0.9,0.7-1.6,1.6-1.6h1.1c0.9,0,1.6,0.7,1.6,1.6l0,0
		C43,61.2,42.2,61.9,41.4,61.9z"/>
	<path class="st4" d="M47.9,61.9h-1.1c-0.9,0-1.6-0.7-1.6-1.6l0,0c0-0.9,0.7-1.6,1.6-1.6h1.1c0.9,0,1.6,0.7,1.6,1.6l0,0
		C49.5,61.2,48.7,61.9,47.9,61.9z"/>
	<path class="st4" d="M54.3,61.9h-1c-0.9,0-1.6-0.7-1.6-1.6l0,0c0-0.9,0.7-1.6,1.6-1.6h1c0.9,0,1.6,0.7,1.6,1.6l0,0
		C55.9,61.2,55.2,61.9,54.3,61.9z"/>
	<path class="st4" d="M61.2,58.8c-0.9,0.9-1.7,1.8-2.5,2.9c-0.4-0.4-0.7-0.8-0.7-1.4c0-0.9,0.7-1.6,1.6-1.6h1.1
		C60.9,58.7,61,58.7,61.2,58.8z"/>
	<path class="st4" d="M38.5,57h-1.1c-0.9,0-1.6-0.7-1.6-1.6l0,0c0-0.9,0.7-1.6,1.6-1.6h1.1c0.9,0,1.6,0.7,1.6,1.6l0,0
		C40.1,56.3,39.3,57,38.5,57z"/>
	<path class="st4" d="M44.9,57h-1.1c-0.9,0-1.6-0.7-1.6-1.6l0,0c0-0.9,0.7-1.6,1.6-1.6h1.1c0.9,0,1.6,0.7,1.6,1.6l0,0
		C46.5,56.3,45.8,57,44.9,57z"/>
	<path class="st4" d="M51.3,57h-1c-0.9,0-1.6-0.7-1.6-1.6l0,0c0-0.9,0.7-1.6,1.6-1.6h1c0.9,0,1.6,0.7,1.6,1.6l0,0
		C52.9,56.3,52.2,57,51.3,57z"/>
	<path class="st4" d="M57.8,57h-1.1c-0.9,0-1.6-0.7-1.6-1.6l0,0c0-0.9,0.7-1.6,1.6-1.6h1.1c0.9,0,1.6,0.7,1.6,1.6l0,0
		C59.4,56.3,58.6,57,57.8,57z"/>
	<path class="st4" d="M57.9,63c-0.6,1-1.1,2-1.5,3.1c-0.8-0.1-1.2-0.8-1.2-1.6c0-0.9,0.7-1.6,1.6-1.6L57.9,63
		C57.8,63,57.8,63,57.9,63z"/>
	<path class="st4" d="M65.9,55.3c-0.9,0.5-1.8,1.1-2.7,1.7l0,0c-0.9,0-1.6-0.7-1.6-1.6c0-0.9,0.7-1.6,1.6-1.6h1.1
		C65.1,53.8,65.8,54.4,65.9,55.3z"/>
	<path class="st4" d="M55.7,67.9c-0.3,0.9-0.5,1.8-0.6,2.8H32.7c-0.8,0-1.4-0.6-1.4-1.4s0.6-1.4,1.4-1.4H55.7z"/>
</g>
<line class="st5" x1="30.6" y1="28.2" x2="59.4" y2="28.2"/>
<line class="st5" x1="30.6" y1="33.3" x2="59.4" y2="33.3"/>
<line class="st5" x1="30.6" y1="38.4" x2="59.4" y2="38.4"/>
<circle class="st6" cx="76.1" cy="73.9" r="19.6"/>
<path class="st7" d="M84.2,73.1c0.6,0.4,0.6,1.3,0,1.6l-6.4,3.7l-6.4,3.7C70.8,82.5,70,82,70,81.3v-7.4v-7.4c0-0.7,0.8-1.2,1.4-0.8
	l6.4,3.7L84.2,73.1z"/>
</svg>
