<?xml version="1.0" encoding="utf-8"?>
<!-- Generator: Adobe Illustrator 21.0.0, SVG Export Plug-In . SVG Version: 6.00 Build 0)  -->
<svg version="1.1" id="Layer_1" xmlns="http://www.w3.org/2000/svg" xmlns:xlink="http://www.w3.org/1999/xlink" x="0px" y="0px"
	 viewBox="0 0 100 100" style="enable-background:new 0 0 100 100;" xml:space="preserve">
<style type="text/css">
	.st0{fill:#9D9E9E;}
	.st1{fill:#6A6B6A;}
</style>
<path class="st0" d="M49.1,56.8c1.9,3,3.8,5.9,5.9,8.4c-2.7,1.2-5.9,1.5-9,0.4c-6.7-2.2-10.5-9.4-8.3-16c0.5-1.7,1.5-3.3,2.7-4.8
	c2.3,2.3,4.3,5.3,5.9,7.9L49.1,56.8z"/>
<path class="st0" d="M62.2,57.5c-0.5,1.9-1.6,3.6-3,4.9c-2.1-2.2-3.9-5.2-5.8-8.1l-2.6-3.9c-1.6-2.7-3.7-5.7-6.2-8.3
	c2.8-1.4,6.2-1.6,9.4-0.5C60.6,43.7,64.4,50.8,62.2,57.5z"/>
<path class="st1" d="M64.1,67.9c-6.3-0.3-10.1-6.2-13.8-12.1l-2.4-3.6c-3.1-5-7.9-11.6-13.6-11.6c-5.4,0-9.9,4.8-12.2,13.3
	c-0.1,0.5-0.8,0.9-1.3,0.8c-0.5-0.1-0.9-0.8-0.8-1.3c2.6-9.4,7.8-14.7,14.2-14.7c6.7,0,11.9,7.2,15.3,12.6l2.4,3.6
	c3.6,5.8,7,11.2,12.2,11.2c6.7,0,9.3-4.8,13.7-12.8c0.3-0.5,0.9-0.6,1.4-0.4s0.6,0.9,0.4,1.4C75.1,62.1,71.5,68.3,64.1,67.9z"/>
<circle class="st0" cx="21.4" cy="53.5" r="12.9"/>
<circle class="st0" cx="78.6" cy="53.5" r="12.9"/>
</svg>
