<?xml version="1.0" encoding="utf-8"?>
<!-- Generator: Adobe Illustrator 20.1.0, SVG Export Plug-In . SVG Version: 6.00 Build 0)  -->
<svg version="1.1" id="Layer_1" xmlns="http://www.w3.org/2000/svg" xmlns:xlink="http://www.w3.org/1999/xlink" x="0px" y="0px"
	 viewBox="0 0 100 100" style="enable-background:new 0 0 100 100;" xml:space="preserve">
<style type="text/css">
	.st0{fill:#7F8080;}
	.st1{fill:#B4B4B5;}
	.st2{fill:#646666;}
	.st3{fill:#9F9F9F;}
	.st4{fill:#6A6B6B;}
	.st5{fill:#67686B;}
</style>
<rect x="47.8" y="45" class="st0" width="9.1" height="1.3"/>
<circle class="st1" cx="76.3" cy="74.1" r="19.4"/>
<path class="st2" d="M84.5,73.3c0.6,0.4,0.6,1.3,0,1.6l-6.4,3.7l-6.5,3.7c-0.6,0.4-1.4-0.1-1.4-0.8v-7.4v-7.4c0-0.7,0.8-1.2,1.4-0.8
	l6.4,3.7L84.5,73.3z"/>
<path class="st1" d="M81.7,48.8v2.5l0,2c-1.7-0.5-3.5-0.7-5.4-0.7c-11.9,0-21.5,9.6-21.5,21.5c0,1.4,0.2,3.8,0.6,5.1l-2.3,0h-3.1
	V48.8H81.7z"/>
<path class="st1" d="M81.7,48.8H43.6c-0.6,0-1-0.4-1-1v-1h38.6c0.3,0,0.5,0.2,0.5,0.5V48.8z"/>
<g>
	<path class="st1" d="M29.5,20v0.1h-0.1l0.1-0.4C29.5,19.8,29.5,19.9,29.5,20z"/>
	<path class="st0" d="M27.2,31l-2.4,2.8c-0.7,0.7-1,1.7-0.9,2.6L23.6,52l11.6,0.2l0.2-5.5c0,0-2.3-0.1-2.3-0.2l-7.5-8.4
		c-0.1-0.1-0.1-0.4,0.1-0.5l0.4-0.2l7,7.6l2.4-0.7c0,0-0.9-7.4-1.6-9.4c-0.5-1.7-1.8-3-3.4-3.5l-1.8-0.7
		C27.9,30.6,27.4,30.7,27.2,31z"/>
	<path class="st3" d="M34.5,21.3l0.4,6.4L34,30.3c-0.2,0.5-0.8,0.7-1.3,0.7l-4.7-1.3l-3.8-5.5l0.3-5l10.5,0L34.5,21.3z"/>
	<path class="st0" d="M35.1,21.4L29,22.5l-0.6,6.8c0,0.2-0.3,0.3-0.5,0.2l-2.5-1.9c-0.6-0.5-1.1-1-1.3-1.7L23.4,24
		c-0.4-1.1-0.2-2.2,0.2-3.1l0.4-0.9c0.5-1.1,1.7-1.9,3.1-2l6.5-0.4l2.7-1.4c0.2-0.1,0.5,0.1,0.5,0.3l0.1,1.8
		C37,18.2,35.1,21.4,35.1,21.4z"/>
	<path class="st0" d="M31,35c0.2-0.1,0.3,0,0.4,0.1l4.8,7.8l7.9,0.1v2.8L34,45.8l-0.4-0.2l-0.4-0.4l-6.4-7.1
		c-0.1-0.1-0.1-0.3,0.1-0.4L31,35z"/>
	<path class="st4" d="M43.2,76.1l-0.1,2.6c0,0.1,0.1,0.3,0.3,0.3l9.6,0.2c0.2,0,0.4-0.2,0.3-0.4l-0.2-1.3c0-0.1-3.2-0.4-3.2-0.4
		l-2-0.9L43.2,76.1z"/>
	<path class="st3" d="M44.7,45.5c0,0,2.8,0.2,3,0.1l1.7-0.9c0.2-0.1,0.2-0.3,0-0.4l-1.6-1.6c0-0.1-0.2-0.1-0.3-0.1l-2.8,0.9V45.5z"
		/>
	<path class="st3" d="M30.8,24.2H30c-0.5,0-0.9,0.3-1,0.8v0.1c-0.1,0.4,0.1,0.8,0.5,1l0.9,0.6L30.8,24.2z"/>
	<path class="st3" d="M23.6,52.8L23.6,52.8c-0.4,3.6,1,5.5,4.3,7c0.2,0.1,0.5,0.2,0.7,0.2l1.3,0.2h10.8c0.5,0,0.9,0.4,1,0.9
		l1.5,14.3l4.1,0l0.5-18.5c0-0.5-1.3-1.9-1.8-2l-10.8-2L23.6,52.8z"/>
</g>
<rect x="28.3" y="63.8" class="st1" width="3.3" height="12.9"/>
<path class="st0" d="M38.3,64.8h-18v-1.9c0-1.1,0.9-2,2-2h14c1.1,0,2,0.9,2,2V64.8z"/>
<rect x="22.4" y="77.4" class="st1" width="15.1" height="1.8"/>
<path class="st0" d="M22.4,64.8h-3.3c-0.6,0-1-0.4-1-1v-24h2.3c1.1,0,2,0.9,2,2V64.8z"/>
<polygon class="st5" points="67.9,40 70.8,38.5 71,19.4 67.9,17 "/>
<path class="st0" d="M72.6,22.8v18.7l-4.1,4h3.2l3.5-3.5V23.8c0-0.6-0.4-1-1-1H72.6z"/>
<path class="st0" d="M64.3,14.7h2.8c0.1,0,0.2,0.1,0.2,0.2v26.1c0,0.1-0.1,0.2-0.2,0.2h-2.8c-0.1,0-0.2-0.1-0.2-0.2V15
	C64,14.8,64.2,14.7,64.3,14.7z"/>
<polygon class="st5" points="70.9,22.8 72.6,22.8 72.6,32.3 70.8,32.3 "/>
<rect x="65.5" y="44.6" class="st0" width="10" height="1.7"/>
</svg>
