<?xml version="1.0" encoding="utf-8"?>
<!-- Generator: Adobe Illustrator 20.1.0, SVG Export Plug-In . SVG Version: 6.00 Build 0)  -->
<svg version="1.1" id="Layer_1" xmlns="http://www.w3.org/2000/svg" xmlns:xlink="http://www.w3.org/1999/xlink" x="0px" y="0px"
	 viewBox="0 0 100 100" style="enable-background:new 0 0 100 100;" xml:space="preserve">
<style type="text/css">
	.st0{fill:#686868;}
	.st1{fill:none;stroke:#686868;stroke-width:3.5;stroke-linecap:round;stroke-miterlimit:10;}
	.st2{fill:none;stroke:#B5B5B5;stroke-width:2.5;stroke-linecap:round;stroke-miterlimit:10;}
	.st3{fill:#B5B5B5;}
	.st4{fill:#B4B4B5;}
	.st5{fill:#646666;}
</style>
<path class="st0" d="M40.3,33.8h-1.2c-0.3,0-0.5-0.2-0.5-0.5v-6.8c0-0.3,0.2-0.5,0.5-0.5h1.2c0.3,0,0.5,0.2,0.5,0.5v6.8
	C40.8,33.5,40.6,33.8,40.3,33.8z"/>
<path class="st0" d="M32,60.2h-1.2c-0.3,0-0.5-0.2-0.5-0.5v-6.8c0-0.3,0.2-0.5,0.5-0.5H32c0.3,0,0.5,0.2,0.5,0.5v6.8
	C32.5,60,32.2,60.2,32,60.2z"/>
<g>
	<line class="st1" x1="21.2" y1="29.9" x2="33.4" y2="29.9"/>
</g>
<line class="st1" x1="21.2" y1="56.3" x2="26.2" y2="56.3"/>
<path class="st0" d="M24.8,52.2l4,4.1l-4,4.1c-0.3,0.3-0.8,0.1-0.8-0.3v-7.6C24,52.1,24.5,51.9,24.8,52.2z"/>
<path class="st0" d="M32.3,25.4l4.4,4.5l-4.4,4.5c-0.3,0.3-0.9,0.1-0.9-0.4v-8.3C31.5,25.3,32,25.1,32.3,25.4z"/>
<line class="st2" x1="43.6" y1="29.9" x2="77.2" y2="29.9"/>
<line class="st2" x1="20.1" y1="43.4" x2="77.2" y2="43.4"/>
<path class="st3" d="M54.3,69.6c-0.2,0.8-0.3,1.7-0.3,2.5H18.8c-0.7,0-1.2-0.6-1.2-1.2s0.6-1.2,1.2-1.2H54.3z"/>
<path class="st3" d="M64.6,55c-1,0.6-2,1.3-2.9,2.1c-0.2,0.1-0.3,0.3-0.5,0.4H35c-0.7,0-1.2-0.6-1.2-1.2s0.6-1.2,1.2-1.2L64.6,55
	L64.6,55z"/>
<circle class="st4" cx="75.7" cy="73.8" r="19.6"/>
<path class="st5" d="M83.8,73c0.6,0.4,0.6,1.3,0,1.6l-6.4,3.7L71,82c-0.6,0.4-1.4-0.1-1.4-0.8v-7.4v-7.4c0-0.7,0.8-1.2,1.4-0.8
	l6.4,3.7L83.8,73z"/>
</svg>
