<?xml version="1.0" encoding="utf-8"?>
<!-- Generator: Adobe Illustrator 20.1.0, SVG Export Plug-In . SVG Version: 6.00 Build 0)  -->
<svg version="1.1" id="Layer_1" xmlns="http://www.w3.org/2000/svg" xmlns:xlink="http://www.w3.org/1999/xlink" x="0px" y="0px"
	 viewBox="0 0 100 100" style="enable-background:new 0 0 100 100;" xml:space="preserve">
<style type="text/css">
	.st0{fill:#CECECE;}
	.st1{fill:#9D9E9E;}
	.st2{fill:none;stroke:#6A6B6A;stroke-width:0.9567;stroke-linecap:round;stroke-miterlimit:10;}
	.st3{fill:#7F7F7F;}
	.st4{fill:#6A6B6A;}
</style>
<path class="st0" d="M24.1,38.6c-2.5,0-5,0-7.4,0c-2,0-3.4-1.4-3.4-3.1c0-1.6,1.3-3.1,3.1-3.2c0.3,0,0.5,0,0.5-0.5
	c-0.2-2,2-3.4,3.7-2.4c0.2,0.1,0.3,0.1,0.5-0.1c1.3-3,4.4-4.3,7.3-3.1c2.3,0.9,3.8,3.4,3.5,5.8c-0.1,0.3,0,0.5,0.3,0.5
	c1.6,0.2,2.8,2.1,2.4,3.7c-0.3,1.4-1.6,2.4-3.4,2.4C28.9,38.6,26.5,38.6,24.1,38.6L24.1,38.6z"/>
<path class="st0" d="M42.1,33c0,1.3-1,2.3-2.4,2.3H36c0-0.8-0.2-1.6-0.7-2.2c-0.6-0.8-1.3-1.3-2.1-1.6c0.1-2-0.8-4.1-2.4-5.3
	c0.1,0,0.1,0,0.2-0.1c2.2-0.9,4.5,0.1,5.4,2.3c0.1,0.2,0.2,0.2,0.3,0.1c1.4-0.7,3,0.3,2.8,1.9c0,0.3,0.1,0.3,0.3,0.3
	C41.2,30.7,42.1,31.8,42.1,33z"/>
<path class="st0" d="M60.6,85.3c-2.4,0-4.8,0-7.1,0c-1.8,0-3.1-1-3.4-2.4c-0.4-1.6,0.8-3.5,2.4-3.7c0.3,0,0.4-0.2,0.3-0.5
	c-0.3-2.4,1.2-4.9,3.5-5.8c2.9-1.2,6,0.1,7.3,3.1c0.2,0.2,0.3,0.2,0.5,0.1c1.7-1,3.9,0.4,3.7,2.4c0,0.5,0.2,0.5,0.5,0.5
	c1.8,0.1,3.1,1.6,3.1,3.2c0,1.7-1.4,3.1-3.4,3.1C65.6,85.3,63.1,85.3,60.6,85.3L60.6,85.3z"/>
<path class="st0" d="M44.9,77.4c0.2,0,0.3,0,0.3-0.3c-0.2-1.6,1.4-2.6,2.8-1.9c0.1,0.1,0.2,0.1,0.3-0.1c0.9-2.2,3.2-3.2,5.4-2.3
	c0.1,0.1,0.1,0.1,0.2,0.1c-1.6,1.2-2.5,3.3-2.4,5.3c-0.8,0.3-1.5,0.8-2.1,1.6c-0.5,0.6-0.7,1.4-0.7,2.2H45c-1.4,0-2.4-1-2.4-2.3
	C42.6,78.5,43.5,77.4,44.9,77.4z"/>
<g>
	<path class="st1" d="M18.4,56.3h-6.9c-0.1,0-0.2-0.2-0.2-0.4s0.1-0.4,0.2-0.4h7c0.1,0,0.2,0.2,0.2,0.4
		C18.6,56.2,18.5,56.3,18.4,56.3z"/>
</g>
<g>
	<path class="st1" d="M20.3,62.6h-6.9c-0.1,0-0.2-0.2-0.2-0.4s0.1-0.4,0.2-0.4h7c0.1,0,0.2,0.2,0.2,0.4
		C20.5,62.5,20.4,62.6,20.3,62.6z"/>
</g>
<g>
	<path class="st1" d="M19.7,50.9H8.3c-0.2,0-0.3-0.2-0.3-0.4S8.2,50,8.3,50h11.5c0.2,0,0.3,0.2,0.3,0.4C20,50.8,19.9,50.9,19.7,50.9
		z"/>
</g>
<polyline class="st2" points="68.3,60.8 73.9,64.9 76.9,63.6 75.7,56.8 "/>
<path class="st3" d="M78.6,60.3l-1.2-13.9l-6.7,0.5l-2.4,8.8l0,0C68.2,55.9,68,56,67.8,56h-0.1c-0.1,0-0.2-0.1-0.2-0.2
	c-0.1-0.1-0.1-0.2-0.1-0.4l2.3-8.4l-1.5,0.1c-1.1,0.1-1.9,1-1.8,2v3c0,0.6-0.3,1.1-0.8,1.5c0,0-0.7,0.3-1.1,0.4l-2.1,0.1
	c-0.4,0-1.1-0.1-1.2-0.2c-0.4-0.2-0.8-0.7-0.9-1.1l-0.8-3.2C59.4,48.8,58,48,57.9,48l-2.2,8.3c-0.1,0.3-0.3,0.4-0.5,0.4h-0.1
	c-0.2-0.1-0.4-0.3-0.3-0.6l2-8l-22.3,5.4h-0.1c-0.9,0-1.8-0.3-2.5-0.8l-4.2-3.1c-0.2-0.1-3.5-2.8-3.7-2.8c-3,0-2.5,5.4-2.6,8.8
	c0,3.4,2.4,6.1,5.4,6.2h0.7l23.1,0.7v-0.1c0-0.4,0.4-0.7,0.8-0.8L71.7,59c1.2-0.2,2.4,0.6,2.8,1.7l1.9-0.2L78.6,60.3z"/>
<polygon class="st3" points="78.3,57.1 77.4,46.4 77.4,46.4 "/>
<path class="st0" d="M79.9,60.2l-1.3,0.1l-1.2-14l1.2-0.1c1.8-0.1,3.4,1.2,3.6,3l1,7.2C83.4,58.4,79.9,60.2,79.9,60.2z"/>
<path class="st0" d="M83.2,56.4L83.2,56.4l-1-7.1c-0.2-1.8-1.8-3.1-3.6-3l-1.2,0.1v-0.1l1.2-0.1c1.8-0.1,3.4,1.2,3.6,3L83.2,56.4z"
	/>
<line class="st2" x1="56.1" y1="56.4" x2="59.2" y2="45"/>
<polyline class="st2" points="72,43.8 71.9,44.2 71.2,46.9 "/>
<line class="st2" x1="71.2" y1="46.9" x2="68.9" y2="55.2"/>
<g>
	<path class="st4" d="M47.5,44.3L77.1,38c1.6-0.3,3.1,0.7,3.4,2.2c0.3,1.6-0.7,3.1-2.2,3.4c-0.1,0-0.2,0-0.4,0.1l-30.2,2.5
		c-0.5,0-1-0.4-1.1-0.9C46.6,44.8,47,44.4,47.5,44.3z"/>
</g>
<g>
	<path class="st4" d="M51.8,61.8l20-1.9c0.9-0.1,1.7,0.6,1.8,1.5c0.1,0.9-0.6,1.7-1.5,1.8c-0.1,0-0.1,0-0.2,0l-20.1-0.4
		c-0.3,0-0.6-0.3-0.6-0.6C51.3,62,51.5,61.8,51.8,61.8z"/>
</g>
<ellipse transform="matrix(1.816832e-02 -0.9998 0.9998 1.816832e-02 8.1852 142.0922)" class="st4" cx="76.4" cy="66.9" rx="4.7" ry="4.7"/>
<ellipse transform="matrix(1.816832e-02 -0.9998 0.9998 1.816832e-02 8.1852 142.0922)" class="st3" cx="76.4" cy="66.9" rx="2.1" ry="2.1"/>
<g>
	<path class="st4" d="M85.3,63.7c0,0-0.4-1.3-0.8-3.4c-0.2-1-0.4-2.2-0.6-3.5s-0.4-2.6-0.5-4s-0.3-2.7-0.4-4s-0.1-2.5-0.2-3.5
		c-0.1-2.1,0-3.5,0-3.5s0.4,1.3,0.8,3.4c0.2,1,0.4,2.2,0.6,3.5s0.4,2.6,0.5,4s0.3,2.7,0.4,4s0.1,2.5,0.2,3.5
		C85.4,62.3,85.3,63.7,85.3,63.7z"/>
</g>
<path class="st4" d="M29.5,55.4c0,1.4-1.2,2.6-2.6,2.5s-2.6-1.2-2.5-2.7c0-1.4,1.2-2.6,2.6-2.5S29.6,54,29.5,55.4z"/>
<path class="st0" d="M83.2,51.1l1.4-0.2c0.5-0.1,1,0.3,1.1,0.8l0.1,0.9c0.1,0.5-0.3,1-0.9,1.1l-1.4,0.2L83.2,51.1z"/>
<line class="st2" x1="75" y1="55.3" x2="36.4" y2="57.9"/>
</svg>
