<?xml version="1.0" encoding="utf-8"?>
<!-- Generator: Adobe Illustrator 20.1.0, SVG Export Plug-In . SVG Version: 6.00 Build 0)  -->
<svg version="1.1" id="Layer_1" xmlns="http://www.w3.org/2000/svg" xmlns:xlink="http://www.w3.org/1999/xlink" x="0px" y="0px"
	 viewBox="0 0 100 100" style="enable-background:new 0 0 100 100;" xml:space="preserve">
<style type="text/css">
	.st0{fill:none;stroke:#7F8080;stroke-width:2;stroke-miterlimit:10;}
	.st1{fill:#B4B4B5;}
	.st2{fill:#7F8080;}
	.st3{fill:#9F9F9F;}
	.st4{fill:#6A6B6B;}
</style>
<line class="st0" x1="93.2" y1="84.7" x2="8.3" y2="84.7"/>
<path class="st1" d="M47,20v0.1h-0.1l0.1-0.4C47,19.8,47,19.9,47,20z"/>
<g>
	<path class="st2" d="M63.1,80.7h-5c-0.1,0-0.3-0.1-0.3-0.2c0,0-1.6-8.8-1.9-10.4L49.4,63c-0.1-0.1-0.1-0.2-0.1-0.3l3.8-8.8
		c0.1-0.2,0.4-0.2,0.5,0l7.8,13.5l0.4,1l1.5,12.1C63.4,80.5,63.3,80.7,63.1,80.7z"/>
	<path class="st3" d="M41.6,50.2l-2.9,13.1c-0.2,0.5-0.4,0.9-0.6,1.4l-8.4,12.1c-0.1,0.1-0.1,0.3,0.1,0.4l3.3,2
		c0.1,0.1,0.3,0.1,0.4,0l12.3-11.7c0.3-0.4,0.6-0.8,0.9-1.2l6-13.1c0.1-0.1,0.2-0.6,0-0.7L42,50C41.8,49.9,41.6,50,41.6,50.2z"/>
	<path class="st2" d="M45.9,31l-2.6,2.6c-0.7,0.7-1.1,1.6-1.1,2.5l-1.1,16.5l11.6,0.2l0.4-4.7v-0.2l-1.6-0.7l-0.1-0.1L51,46.9
		c0,0-0.1,0-0.1-0.1l-7-8.8c-0.1-0.1-0.1-0.4,0.1-0.5l0.4-0.2l6.5,8l2.4-0.6c0,0-0.5-7.4-1-9.5c-0.4-1.7-1.6-3.1-3.2-3.7l-1.8-0.8
		C46.7,30.6,46.2,30.7,45.9,31z"/>
	<path class="st3" d="M53.8,21.7v6.4l-1,2.6c-0.2,0.5-0.8,0.7-1.3,0.6l-4.6-1.6L43.4,24l0.6-5l10.5,0.6L53.8,21.7z"/>
	<path class="st2" d="M54.4,21.8l-6.2,0.8l-1,6.8c0,0.2-0.3,0.3-0.5,0.2l-2.4-2c-0.6-0.5-1-1.1-1.2-1.8l-0.5-2.1
		c-0.3-1.1-0.1-2.2,0.4-3.1l0.5-0.9c0.6-1.1,1.8-1.8,3.2-1.8h6.5l2.8-1.2c0.2-0.1,0.5,0.1,0.5,0.3v1.8
		C56.5,18.8,54.4,21.8,54.4,21.8z"/>
	<path class="st2" d="M49.5,35.3c0.2-0.1,0.3,0,0.4,0.1l4.3,8.1l7.8,4.1c0.5,0.3,0.7,0.9,0.4,1.4l-0.5,0.9c-0.2,0.4-0.8,0.6-1.3,0.4
		l-8.8-4l-0.4-0.2L51,45.7l-6-7.5c-0.1-0.1-0.1-0.3,0.1-0.4L49.5,35.3z"/>
	<path class="st2" d="M40.8,42.6l-2.7,2l0.3-0.3l-5.6,6.4c-0.3,0.4-0.9,0.4-1.3,0.2L31,50.6c-0.5-0.3-0.6-0.9-0.3-1.4l4.3-7l0,0
		l0.3-0.3l6-6.1L40.8,42.6z"/>
	<path class="st4" d="M28.9,77.5l-1.8,2.2c-0.1,0.1-0.1,0.3,0,0.4l7.2,5.1c0.2,0.1,0.4,0,0.5-0.2l0.3-1.7c0-0.2,0-0.5-0.2-0.6
		L34,82.1L33,80L28.9,77.5z"/>
	<path class="st4" d="M58,81.2l-0.1,2.6c0,0.1,0.1,0.3,0.3,0.3l9.8,0.2c0.2,0,0.4-0.2,0.3-0.4l-0.9-1.4c0-0.1-1.1-0.1-1.2-0.1
		l-1.5-0.2l-2-0.9L58,81.2z"/>
</g>
<path class="st3" d="M29.8,50.9l-1.9,1.8c0,0-0.1,0.1-0.1,0.2l-0.1,1.7c0,0.2,0.2,0.3,0.3,0.3l2.1-0.4c0.1,0,0.2-0.1,0.2-0.2
	l0.9-2.2L29.8,50.9z"/>
<path class="st3" d="M62.8,50.7l2.4,1.5c0.1,0,0.1,0.1,0.2,0l2-0.2c0.2,0,0.3-0.2,0.2-0.4l-0.8-2.1c0-0.1-0.1-0.2-0.2-0.2L63.9,49
	L62.8,50.7z"/>
<path class="st3" d="M48.3,24.2h-0.8c-0.5,0-0.9,0.3-1,0.8v0.1c-0.1,0.4,0.1,0.8,0.5,1l0.9,0.6L48.3,24.2z"/>
</svg>
