<?xml version="1.0" encoding="utf-8"?>
<!-- Generator: Adobe Illustrator 20.1.0, SVG Export Plug-In . SVG Version: 6.00 Build 0)  -->
<svg version="1.1" id="Layer_1" xmlns="http://www.w3.org/2000/svg" xmlns:xlink="http://www.w3.org/1999/xlink" x="0px" y="0px"
	 viewBox="0 0 100 100" style="enable-background:new 0 0 100 100;" xml:space="preserve">
<style type="text/css">
	.st0{fill:#9D9E9E;}
	.st1{fill:#6A6B6A;}
	.st2{fill:none;stroke:#7F7F7F;stroke-width:2;stroke-miterlimit:10;}
	.st3{fill:#7F7F7F;}
	.st4{fill:none;stroke:#6A6B6A;stroke-width:1.5;stroke-miterlimit:10;}
	.st5{fill:none;stroke:#6A6B6A;stroke-width:2;stroke-miterlimit:10;}
</style>
<path class="st0" d="M64.1,45.8c-0.5,0.6-1.1,1.2-1.6,1.7l-1.7-0.1h-0.5h-0.5l0.2-1.9l2.4-0.8c0.1,0,0.1,0,0.2,0.1L64.1,45.8z"/>
<path class="st1" d="M59.5,45.2l-0.2,2.5l-8-0.2l-0.8,0.1L50,46.7l-1-1.6c0.8-1.8,1.4-4.4,1.4-4.4l2.1,3.7L59.5,45.2z"/>
<line class="st2" x1="92.4" y1="84.8" x2="7.6" y2="84.8"/>
<g>
	<path class="st0" d="M51.4,27.9l-0.1,5l-0.8,2c-0.2,0.3-0.6,0.5-1,0.4l-3.6-1.4l-2.6-4.5l0.6-3.8l8.1,0.7L51.4,27.9z"/>
	<path class="st3" d="M51.9,28L47,28.5l-0.9,5.3c0,0.2-0.2,0.2-0.4,0.1l-1.8-1.6c-0.8-0.9-1.7-3.4-0.8-5.6l0.3-0.7
		c0.5-0.8,1.4-1.4,2.6-1.4l5.1,0.1l2.2-0.8c0.2-0.1,0.4,0.1,0.3,0.3v1.4C53.6,25.6,51.9,28,51.9,28z"/>
	<path class="st0" d="M47.1,29.7l-0.7-0.1c-0.4,0-0.7,0.2-0.8,0.6v0.1c-0.1,0.3,0,0.7,0.4,0.8l0.8,0.5L47.1,29.7z"/>
</g>
<path class="st1" d="M63.1,71.9l-9-0.1c-0.1,0-0.2-0.1-0.3-0.2v-0.1v-2c0-0.1,0.1-0.3,0.3-0.3h4.1L60,70l1.4,0.1
	c0.5,0,1.2,0.4,1.6,0.9l0.1,0.1l0.2,0.3C63.4,71.7,63.3,71.9,63.1,71.9z"/>
<g>
	<circle class="st1" cx="75.8" cy="77" r="8"/>
	<path class="st3" d="M69.9,65.2c1.9-1.5,4.4-1.9,5.6-1.7c2.6,0.3,6.1,1.8,7.1,4.6c0.1,0.5,0.2,0.9,0.2,1.2
		c-5.2,1.2-10.5,2.4-15.7,3.6c-0.2-0.9-0.5-1.8,0-3.4C67.6,67.9,68.5,66.3,69.9,65.2z"/>
	<circle class="st3" cx="75.8" cy="77" r="5.1"/>
	<path class="st3" d="M73.2,65.6c-0.9,4.5-2.5,6.7-3.3,7.8c-0.9,1.2-2.7,3.2-4.2,3.2H35.6c-2.7-0.3-3.2-4.8-5.4-6.2
		c-0.4-0.2-0.9-0.4-1.4-0.4c-4.7,0.2-9.3,0.3-9.8-2.5c-0.2-1.5,0.3-2.9,0.5-3.3c0.6-1.6,1.6-2.8,2.7-3.8c2.8-2.4,6.6-3,7.2-3.1
		c7,0.3,15.5-0.8,22.6-0.5c-1.1,0.7-3.6,3.6-4.7,6c-0.7,1.4-1.7,3.7-0.7,5.9c0.9,1.9,2.7,2.6,3.3,2.9h10.5c0.6-0.3,1.4-0.9,2.2-1.7
		c1.8-2,2.2-4.3,2.3-5.3c0.5-3.6-1-6.4-2.3-9.2s-3-4.8-4.3-6.2c-0.4-0.4-0.4-1,0-1.4c1.5-1.6,3-3.2,4.5-4.8c0.3-0.3,0.7-0.3,1-0.1
		c0.9,0.6,1.6,1.2,2.4,1.8c0.7,0.5,0.7,1.5,0.1,2.1S65,48,64.4,48.5c2.1,2.2,4.2,4.4,6.3,6.5c0.7,0.6,1.7,1.7,2.4,3.3
		C74.4,61.4,73.5,64.2,73.2,65.6z"/>
	<path class="st1" d="M50.7,59.7H21.4c-0.8,0-1.4-0.6-1.4-1.4v-1.9c0-0.8,0.6-1.4,1.4-1.4l29.3-1.3c0.8,0,1.5,0.6,1.5,1.4v3.2
		C52.2,59,51.5,59.7,50.7,59.7z"/>
	<circle class="st1" cx="26.9" cy="77" r="8"/>
	<path class="st1" d="M40.3,68.5c-0.4,0.8-1.2,1.3-4.3,1.9c-2.4,0.5-6.7,0.3-7.3,0.3c-5.1,0.2-10.3,0.4-10.8-2.8
		c-0.2-1.6,0.3-3.2,0.5-3.7c0.6-1.7,1.7-3.1,3-4.1c0.9-0.6,2.1-1.1,3.4-1.5c5.6-1.5,11.4,2,14.1,5.7C39.6,65.2,41,67.1,40.3,68.5z"
		/>
	<circle class="st3" cx="26.9" cy="77" r="5.1"/>
</g>
<g>
	<path class="st1" d="M54.4,68.6c-0.5-1.9-2-11.8-2-11.8l0.1-0.8c0,0-7.9,1.1-12.3,1.2c-2.5,0.1-3.8-1.1-4.3-3.5l0.8-2.5
		c-0.1-0.2,7-0.7,7.2-0.6c0,0,13.7,0.9,13.8,2.4c0,0,0.6,2.1,0.5,4.9c-0.3,4.6-0.9,10.7-0.9,10.7c0,0.1-0.1,0.2-0.2,0.2
		C56.3,68.7,54.4,68.7,54.4,68.6z"/>
	<path class="st3" d="M48.7,36c0,0-2.8-1.6-3.2-1.4l-2,1.4c-0.7,0.3-1.3,0.9-1.7,1.7l-1.7,3.9l-4,8.9l9.5,2.6c0,0,0.8-1.9,1.6-4.2
		l-3.9-5l0.1-0.7l4,5.1c1.3-3.7,2.5-7.3,2.6-8.4C50.2,38.5,49.7,37,48.7,36z"/>
	<path class="st0" d="M62.4,49.4l-1.5,1c-0.1,0-0.1,0-0.2,0l-0.5-0.1l-2-0.2l0.2-1.9l2.2-0.6l0.2-0.1c0.1,0,0.1,0,0.2,0.1l0,0
		l0.9,0.8l0.5,0.5C62.6,49.2,62.5,49.3,62.4,49.4z"/>
	<path class="st3" d="M57.5,47.9l-0.2,2.5l-7.6-0.2H49l-5.5-6.8c0.8-1.5,1.7-3,2.3-4.3l5.1,8.1L57.5,47.9z"/>
	<path class="st0" d="M56.5,52.6c1.7,2.9-0.6,16.1-0.7,16.1l-4.3-0.1c-0.1,0,0.1-8.3,0-10.8c0-0.5-0.4-1-0.9-1
		c-4.9,0.7-8.6,0.7-10.7,0.6c-2.1-0.1-3.9-1.7-4.1-3.9c-0.2-1.3,0.2-2.7,0.6-3.6l9.8,1C46.3,51,56.1,51.9,56.5,52.6z"/>
	<path class="st1" d="M60.5,72.1l-9-0.4c-0.1,0-0.2-0.1-0.3-0.2v-0.1l0.1-2c0-0.1,0.1-0.3,0.3-0.3l4.1,0.2l1.8,0.9l1.4,0.2
		c0.5,0,1.2,0.5,1.6,0.9c0,0.1,0.1,0.1,0.1,0.1l0.2,0.3C60.8,72,60.7,72.2,60.5,72.1z"/>
</g>
<path class="st4" d="M48.9,35.6c-0.4,0.4-1.1,0.9-2,1c-1.8,0.2-2.6-1.5-4.9-2.1c-2.2-0.6-4.2,0.1-5.1,0.4c-2.9,1-3.3,2.8-5.2,2.8
	c-0.9,0-2.2-0.3-3.9-2.2"/>
<path class="st5" d="M44.8,34.1c0.4,0.3,1,0.8,1.8,1.1c1.1,0.5,2.2,0.5,2.7,0.4"/>
<g>
	<path class="st0" d="M37.2,29.2H12.1c-0.4,0-0.7-0.3-0.7-0.7c0-0.4,0.3-0.7,0.7-0.7h25.2c0.4,0,0.7,0.3,0.7,0.7
		C37.8,28.9,37.5,29.2,37.2,29.2z"/>
</g>
<g>
	<path class="st0" d="M24.3,40.9H5.8c-0.3,0-0.5-0.3-0.5-0.7s0.2-0.7,0.5-0.7h18.5c0.3,0,0.5,0.3,0.5,0.7S24.5,40.9,24.3,40.9z"/>
</g>
<g>
	<path class="st0" d="M25.6,51.6H11.2c-0.2,0-0.4-0.3-0.4-0.7s0.2-0.7,0.4-0.7h14.5c0.2,0,0.4,0.3,0.4,0.7S25.9,51.6,25.6,51.6z"/>
</g>
</svg>
