<?xml version="1.0" encoding="utf-8"?>
<!-- Generator: Adobe Illustrator 20.1.0, SVG Export Plug-In . SVG Version: 6.00 Build 0)  -->
<svg version="1.1" id="Layer_1" xmlns="http://www.w3.org/2000/svg" xmlns:xlink="http://www.w3.org/1999/xlink" x="0px" y="0px"
	 viewBox="0 0 100 100" style="enable-background:new 0 0 100 100;" xml:space="preserve">
<style type="text/css">
	.st0{fill:none;stroke:#7F7F7F;stroke-width:2;stroke-miterlimit:10;}
	.st1{fill:#9D9E9E;}
	.st2{fill:#7F7F7F;}
	.st3{fill:#6A6B6A;}
	.st4{fill:none;stroke:#6A6B6A;stroke-width:3;stroke-miterlimit:10;}
	.st5{fill:none;stroke:#6A6B6A;stroke-width:3;stroke-linecap:round;stroke-miterlimit:10;}
</style>
<line class="st0" x1="92.4" y1="84.8" x2="7.6" y2="84.8"/>
<g>
	<path class="st1" d="M55.8,21.8l1.1,5.3l-0.4,2.3c-0.1,0.4-0.5,0.7-1,0.7l-4.1-0.6l-3.8-4.2l-0.3-4.1L56,20L55.8,21.8z"/>
	<path class="st2" d="M56.3,21.8l-5,1.7l0.3,5.8c0,0.2-0.2,0.3-0.4,0.2l-2.3-1.3c-1.1-0.8-2.6-3.2-2.2-5.7l0.2-0.8
		c0.3-1,1.2-1.8,2.4-2.1l5.4-1.1l2.1-1.4c0.2-0.1,0.4,0,0.4,0.2l0.3,1.5C57.5,18.9,56.3,21.8,56.3,21.8z"/>
	<path class="st1" d="M51.6,24.8l-0.7,0.1c-0.4,0.1-0.7,0.4-0.7,0.8v0.1c0,0.3,0.2,0.7,0.6,0.8l0.9,0.3L51.6,24.8z"/>
</g>
<g>
	<path class="st3" d="M53.2,65c0-2,1.1-9.5,1.1-9.5l0.3-0.8c0,0-8.2-0.1-12.5-1.2c-2.4-0.6-3.1-3-2.9-5.5l0.5-2.5
		c0-0.2,7.9,1.5,8.1,1.6c0,0,9.4,3.7,11.5,4.9c0.3,0.2,0.4,0.7,0.4,0.7l-2.8,12.6C56.8,65.4,53.2,65.1,53.2,65z"/>
	<path class="st3" d="M61.6,42.7L61.2,45L54,44h-0.7l-0.4-0.8l-0.8-1.7c0.7-1.9,1.3-3.8,1.6-5l1.7,4.8L61.6,42.7z"/>
	<path class="st2" d="M52.2,31c0,0-2.8-1.6-3.2-1.4L47,31c-0.7,0.3-1.3,0.9-1.7,1.7l-1.7,3.9l-4.1,8.9l9.2,3.7c0,0,0.7-1.8,1.5-4.1
		l-4.6-6.9l0.5-0.6l4.4,6.8c1.3-3.7,2.9-8.3,3.1-9.4C53.7,33.5,53.2,32,52.2,31z"/>
	<path class="st1" d="M61.8,45l2.4,0.5c0.1,0,0.1,0,0.2,0l1.5-0.8c0.1-0.1,0.2-0.2,0.1-0.4l-1.3-1.4c-0.1-0.1-0.1-0.1-0.2-0.1
		l-2.3,0.4L61.8,45z"/>
	<circle class="st4" cx="31.4" cy="72.2" r="11.5"/>
	<path class="st3" d="M52.6,65.5c-0.2,0-0.4,0.1-0.4,0.3l-0.3,2c0,0.1,0.1,0.3,0.2,0.3l8.9,1.1c0.2,0,0.4-0.2,0.3-0.3l-0.2-0.4
		c-0.3-0.6-1-1.1-1.6-1.2L58.1,67l-1.7-1L52.6,65.5z"/>
	<circle class="st4" cx="76.7" cy="72.2" r="11.5"/>
	<circle class="st2" cx="31.4" cy="72.2" r="2.8"/>
	<circle class="st2" cx="76.7" cy="72.2" r="2.8"/>
	<polyline class="st0" points="31.4,72.2 37.8,55.3 67.2,54.2 76.7,72.2 	"/>
	<path class="st2" d="M48.5,71.2c-0.1,0.3-0.1,0.6-0.1,0.9s0,0.6,0.1,0.9H32v-1.8H48.5z"/>
	<path class="st2" d="M69.7,58.4L57.8,71.3l-1.7,1.8H56c0.1-0.3,0.1-0.6,0.1-0.9c0-0.5-0.1-1-0.3-1.4l1.3-1.5l11.2-12.2L69.7,58.4z"
		/>
	<line class="st0" x1="38.9" y1="55.3" x2="47.7" y2="70.9"/>
	<path class="st2" d="M57.8,71.3c-0.1-0.7-0.3-1.4-0.7-2c-1-1.7-2.8-2.8-4.9-2.8c-2.8,0-5.2,2.1-5.6,4.8c-0.1,0.3-0.1,0.6-0.1,0.9
		s0,0.6,0.1,0.9c0.4,2.7,2.8,4.8,5.6,4.8c3.1,0,5.7-2.5,5.7-5.7C57.9,71.9,57.9,71.6,57.8,71.3z M52.2,76c-1.8,0-3.3-1.2-3.7-2.9
		c-0.1-0.3-0.1-0.6-0.1-0.9s0-0.6,0.1-0.9c0.4-1.7,1.9-2.9,3.7-2.9c1.6,0,3,1,3.6,2.4c0.2,0.4,0.3,0.9,0.3,1.4c0,0.3,0,0.6-0.1,0.9
		C55.6,74.7,54,76,52.2,76z"/>
	<path class="st0" d="M60.9,44.7h4.6c0.4,0,0.7,0.4,0.5,0.8l-1.8,3.2l4.6,8.5"/>
	<line class="st5" x1="36.4" y1="51.6" x2="42.9" y2="51.6"/>
	<path class="st1" d="M59.4,45.5l2.4,0.5c0.1,0,0.1,0,0.2,0l1.5-0.8c0.1-0.1,0.2-0.2,0.1-0.4l-1.3-1.4c-0.1-0.1-0.1-0.1-0.2-0.1
		l-2.3,0.4L59.4,45.5z"/>
	<path class="st2" d="M59,43.3l-0.4,2.3l-7.2-0.9l-0.7-0.1l-4.5-7c0.9-1.3,1.9-2.7,2.6-3.8l4,8.1L59,43.3z"/>
	<path class="st1" d="M49,49.2l4.5,9.2c0.1,0.3,0.2,0.5,0.2,0.8l-0.1,11.4c0,0.1-0.1,0.2-0.2,0.2h-3.8c-0.1,0-0.2-0.1-0.2-0.2
		l-0.9-9.4c0-0.4-0.2-0.9-0.6-1.2l-9-8.6l0,0c-1.4-2-0.7-4.3,0.7-6l0,0L49,49.2z"/>
	<path class="st3" d="M49.3,71.5c-0.2,0-0.3,0.2-0.3,0.3v2c0,0.1,0.1,0.3,0.3,0.3h9c0.2,0,0.3-0.2,0.2-0.4l-0.2-0.3
		c-0.3-0.5-1.1-1-1.7-1l-1.4-0.1l-1.8-0.8H49.3z"/>
</g>
</svg>
