<?xml version="1.0" encoding="utf-8"?>
<!-- Generator: Adobe Illustrator 20.1.0, SVG Export Plug-In . SVG Version: 6.00 Build 0)  -->
<svg version="1.1" id="Layer_1" xmlns="http://www.w3.org/2000/svg" xmlns:xlink="http://www.w3.org/1999/xlink" x="0px" y="0px"
	 viewBox="0 0 100 100" style="enable-background:new 0 0 100 100;" xml:space="preserve">
<style type="text/css">
	.st0{fill:#CECECE;}
	.st1{fill:#9D9E9E;}
	.st2{fill:#6A6B6A;}
	.st3{fill:#7F7F7F;}
</style>
<path class="st0" d="M42.8,37c-2.4,0-4.7,0-7,0c-1.8,0-3.1-1-3.3-2.4c-0.4-1.6,0.8-3.4,2.4-3.6c0.3,0,0.4-0.2,0.3-0.5
	c-0.3-2.4,1.2-4.8,3.4-5.7c2.9-1.2,5.9,0.1,7.2,3.1c0.2,0.2,0.3,0.2,0.5,0.1c1.7-1,3.8,0.4,3.6,2.4c0,0.5,0.2,0.5,0.5,0.5
	c1.8,0.1,3.1,1.6,3.1,3.2c0,1.7-1.4,3.1-3.3,3.1C47.7,37,45.3,37,42.8,37L42.8,37z"/>
<path class="st0" d="M27.6,28.7c0.2,0,0.3,0,0.3-0.3c-0.2-1.6,1.4-2.6,2.8-1.9c0.1,0.1,0.2,0.1,0.3-0.1c0.9-2.2,3.2-3.2,5.4-2.3
	c0.1,0.1,0.1,0.1,0.2,0.1c-1.6,1.2-2.5,3.3-2.4,5.3c-0.8,0.3-1.5,0.8-2.1,1.6c-0.5,0.6-0.7,1.4-0.7,2.2h-3.7c-1.4,0-2.4-1-2.4-2.3
	C25.3,29.8,26.2,28.7,27.6,28.7z"/>
<path class="st0" d="M67.4,84.3c-2.5,0-5,0-7.4,0c-2,0-3.4-1.4-3.4-3.1c0-1.6,1.3-3.1,3.1-3.2c0.3,0,0.5,0,0.5-0.5
	c-0.2-2,2-3.4,3.7-2.4c0.2,0.1,0.3,0.1,0.5-0.1c1.3-3,4.4-4.3,7.3-3.1c2.3,0.9,3.8,3.4,3.5,5.8c-0.1,0.3,0,0.5,0.3,0.5
	c1.6,0.2,2.8,2.1,2.4,3.7c-0.3,1.4-1.6,2.4-3.4,2.4C72.2,84.3,69.8,84.3,67.4,84.3L67.4,84.3z"/>
<path class="st0" d="M85.4,78.7c0,1.3-1,2.3-2.4,2.3h-3.7c0-0.8-0.2-1.6-0.7-2.2c-0.6-0.8-1.3-1.3-2.1-1.6c0.1-2-0.8-4.1-2.4-5.3
	c0.1,0,0.1,0,0.2-0.1c2.2-0.9,4.5,0.1,5.4,2.3c0.1,0.2,0.2,0.2,0.3,0.1c1.4-0.7,3,0.3,2.8,1.9c0,0.3,0.1,0.3,0.3,0.3
	C84.5,76.4,85.4,77.5,85.4,78.7z"/>
<g>
	<path class="st1" d="M17.7,58.6h-5.2c-0.1,0-0.1-0.2-0.1-0.4s0.1-0.4,0.1-0.4h5.3c0.1,0,0.1,0.2,0.1,0.4
		C17.8,58.5,17.7,58.6,17.7,58.6z"/>
</g>
<g>
	<path class="st1" d="M24,64.3h-8.6c-0.2,0-0.2-0.2-0.2-0.4c0-0.2,0.2-0.4,0.2-0.4h8.7c0.2,0,0.2,0.2,0.2,0.4
		C24.2,64.2,24.1,64.3,24,64.3z"/>
</g>
<g>
	<path class="st1" d="M19.9,53.1h-8.2c-0.1,0-0.2-0.2-0.2-0.4s0.1-0.4,0.2-0.4h8.2c0.1,0,0.2,0.2,0.2,0.4C20.1,53,20,53.1,19.9,53.1
		z"/>
</g>
<path class="st2" d="M56.7,51.7l-8.2,0.2L47,50c-0.1-0.1,0-0.3,0.1-0.3h6L56.7,51.7z"/>
<path class="st1" d="M88.9,62.5c0,0.2-0.9,2.9-2.2,3c-3.1,0.2-11.3,0.9-14.1,0.9l-18.9,0.1L45,66.6l4.6-5.8h-1l-1.5,1.7L46.6,63
	H33.3l-8.1-4.3l-4.5-2.4l13.5-3.1l2.4-0.7l6.2-0.1L70,52c4.1,0,8.1,1,11.7,3.1c0.1,0,4.6,3.3,5.8,4l0,0c0.1,0.1,0.2,0.1,0.2,0.2
	C88.4,60,88.9,61.2,88.9,62.5z"/>
<path class="st3" d="M88.9,62.5c0,0.2-0.9,2.9-2.2,3c-3.1,0.2-11.3,0.9-14.1,0.9L54,66.5l7.6-4H88.9z"/>
<path class="st3" d="M21.3,53l-2.4-16.6c-0.1-0.4,0.2-0.9,0.6-0.9l2.4-0.2c0.2,0,0.4,0.1,0.6,0.3l9.1,13.2l11.1,3.6L21.3,53z"/>
<path class="st2" d="M34.2,53.7c0,0-9.2,5.5-9.4,5.5l-4.9-0.1c-0.3,0-0.5-0.3-0.4-0.8l1.8-4.7L34,53.3
	C34.3,53.3,34.3,53.6,34.2,53.7z"/>
<path class="st2" d="M64.3,61.1l-2.5,1.2c0,0-10.5,5.6-10.6,5.6l-7.9,0.4c-0.2,0-0.4-0.3-0.2-0.6l1-1.1l3.3-3.6l2.2-2.4h14.6
	C64.4,60.8,64.5,61,64.3,61.1z"/>
<path class="st2" d="M87.5,59.2l-6.1-0.1c-0.1,0-0.2-0.1-0.2-0.2l-0.1-3.5c0-0.1,0.1-0.2,0.2-0.2h0.4C81.8,55.2,86.3,58.4,87.5,59.2
	z"/>
<path class="st3" d="M43.3,66.5c0,0-1.7,0.3-7.3-2l-2.9-1.6l-1-0.6l15,0.1L43.3,66.5z"/>
<path class="st2" d="M42,58.8h-0.8c-0.3,0-0.5-0.2-0.5-0.6v-1.7c0-0.3,0.2-0.6,0.5-0.6H42c0.3,0,0.5,0.2,0.5,0.6v1.7
	C42.6,58.5,42.2,58.8,42,58.8z"/>
<path class="st2" d="M45.9,58.8h-0.8c-0.3,0-0.5-0.2-0.5-0.6v-1.7c0-0.3,0.2-0.6,0.5-0.6h0.8c0.3,0,0.5,0.2,0.5,0.6v1.7
	C46.5,58.5,46.3,58.8,45.9,58.8z"/>
<path class="st2" d="M50,58.8h-0.8c-0.3,0-0.5-0.2-0.5-0.6v-1.7c0-0.3,0.2-0.6,0.5-0.6H50c0.3,0,0.5,0.2,0.5,0.6v1.7
	C50.5,58.5,50.3,58.8,50,58.8z"/>
<path class="st2" d="M54,58.8h-0.8c-0.3,0-0.5-0.2-0.5-0.6v-1.7c0-0.3,0.2-0.6,0.5-0.6H54c0.3,0,0.5,0.2,0.5,0.6v1.7
	C54.5,58.5,54.2,58.8,54,58.8z"/>
<path class="st2" d="M57.9,58.8H57c-0.3,0-0.5-0.2-0.5-0.6v-1.7c0-0.3,0.2-0.6,0.5-0.6h0.8c0.3,0,0.5,0.2,0.5,0.6v1.7
	C58.4,58.5,58.2,58.8,57.9,58.8z"/>
<path class="st2" d="M61.9,58.8h-0.8c-0.3,0-0.5-0.2-0.5-0.6v-1.7c0-0.3,0.2-0.6,0.5-0.6h0.8c0.3,0,0.5,0.2,0.5,0.6v1.7
	C62.4,58.5,62.2,58.8,61.9,58.8z"/>
<path class="st2" d="M65.9,58.8h-0.8c-0.3,0-0.5-0.2-0.5-0.6v-1.7c0-0.3,0.2-0.6,0.5-0.6h0.8c0.3,0,0.5,0.2,0.5,0.6v1.7
	C66.4,58.5,66.1,58.8,65.9,58.8z"/>
<path class="st2" d="M69.8,58.8H69c-0.3,0-0.5-0.2-0.5-0.6v-1.7c0-0.3,0.2-0.6,0.5-0.6h0.8c0.3,0,0.5,0.2,0.5,0.6v1.7
	C70.3,58.5,70.1,58.8,69.8,58.8z"/>
<path class="st2" d="M73.8,58.8H73c-0.3,0-0.5-0.2-0.5-0.6v-1.7c0-0.3,0.2-0.6,0.5-0.6h0.8c0.3,0,0.5,0.2,0.5,0.6v1.7
	C74.3,58.5,74.1,58.8,73.8,58.8z"/>
</svg>
