<?xml version="1.0" encoding="utf-8"?>
<!-- Generator: Adobe Illustrator 20.1.0, SVG Export Plug-In . SVG Version: 6.00 Build 0)  -->
<svg version="1.1" id="Layer_1" xmlns="http://www.w3.org/2000/svg" xmlns:xlink="http://www.w3.org/1999/xlink" x="0px" y="0px"
	 viewBox="0 0 100 100" style="enable-background:new 0 0 100 100;" xml:space="preserve">
<style type="text/css">
	.st0{fill:none;stroke:#7F7F7F;stroke-width:2;stroke-miterlimit:10;}
	.st1{fill:none;stroke:#7F7F7F;stroke-miterlimit:10;}
	.st2{fill:#CECECE;}
	.st3{fill:#9D9E9E;}
	.st4{fill:#7F7F7F;}
	.st5{fill:#6A6B6A;}
</style>
<line class="st0" x1="92.4" y1="83.9" x2="7.6" y2="83.9"/>
<line class="st1" x1="92.4" y1="81.4" x2="7.6" y2="81.4"/>
<path class="st2" d="M21.1,38.6c-2.5,0-5,0-7.4,0c-2,0-3.4-1.4-3.4-3.1c0-1.6,1.3-3.1,3.1-3.2c0.3,0,0.5,0,0.5-0.5
	c-0.2-2,2-3.4,3.7-2.4c0.2,0.1,0.3,0.1,0.5-0.1c1.3-3,4.4-4.3,7.3-3.1c2.3,0.9,3.8,3.4,3.5,5.8c-0.1,0.3,0,0.5,0.3,0.5
	c1.6,0.2,2.8,2.1,2.4,3.7c-0.3,1.4-1.6,2.4-3.4,2.4C25.9,38.6,23.5,38.6,21.1,38.6L21.1,38.6z"/>
<path class="st2" d="M39.1,33c0,1.3-1,2.3-2.4,2.3H33c0-0.8-0.2-1.6-0.7-2.2c-0.6-0.8-1.3-1.3-2.1-1.6c0.1-2-0.8-4.1-2.4-5.3
	c0.1,0,0.1,0,0.2-0.1c2.2-0.9,4.5,0.1,5.4,2.3c0.1,0.2,0.2,0.2,0.3,0.1c1.4-0.7,3,0.3,2.8,1.9c0,0.3,0.1,0.3,0.3,0.3
	C38.2,30.7,39.1,31.8,39.1,33z"/>
<path class="st2" d="M72.6,38.6c-2.4,0-4.8,0-7.1,0c-1.8,0-3.1-1-3.4-2.4c-0.4-1.6,0.8-3.5,2.4-3.7c0.3,0,0.4-0.2,0.3-0.5
	c-0.3-2.4,1.2-4.9,3.5-5.8c2.9-1.2,6,0.1,7.3,3.1c0.2,0.2,0.3,0.2,0.5,0.1c1.7-1,3.9,0.4,3.7,2.4c0,0.5,0.2,0.5,0.5,0.5
	c1.8,0.1,3.1,1.6,3.1,3.2c0,1.7-1.4,3.1-3.4,3.1C77.6,38.6,75.1,38.6,72.6,38.6L72.6,38.6z"/>
<path class="st2" d="M56.9,30.7c0.2,0,0.3,0,0.3-0.3c-0.2-1.6,1.4-2.6,2.8-1.9c0.1,0.1,0.2,0.1,0.3-0.1c0.9-2.2,3.2-3.2,5.4-2.3
	c0.1,0.1,0.1,0.1,0.2,0.1c-1.6,1.2-2.5,3.3-2.4,5.3c-0.8,0.3-1.5,0.8-2.1,1.6c-0.5,0.6-0.7,1.4-0.7,2.2H57c-1.4,0-2.4-1-2.4-2.3
	C54.6,31.8,55.5,30.7,56.9,30.7z"/>
<g>
	<path class="st3" d="M67.1,51.4H43.7c-0.3,0-0.6-0.2-0.6-0.5c0-0.2,0.3-0.5,0.6-0.5h23.5c0.3,0,0.6,0.2,0.6,0.5
		C67.8,51.3,67.4,51.4,67.1,51.4z"/>
</g>
<g>
	<path class="st3" d="M60.1,46.9H30.1c-0.5,0-0.7-0.2-0.7-0.5c0-0.2,0.5-0.5,0.7-0.5h30.2c0.5,0,0.7,0.2,0.7,0.5
		C60.8,46.8,60.6,46.9,60.1,46.9z"/>
</g>
<path class="st4" d="M7.6,55.9v21.5H87c3,0,4.7-2,4.9-4.4c0.1-1-0.1-2.1-0.6-3.1c-0.3-0.5-0.6-1-1.1-1.5c-0.3-0.3-0.5-0.5-0.8-0.8
	l-8.1-7.9c-0.2-0.1-0.3-0.3-0.5-0.4c-3-2.2-6.7-3.4-10.5-3.4C70.3,55.9,7.6,55.9,7.6,55.9z"/>
<path class="st2" d="M67.9,60.9l6.5,6.3c0.8,0.8,1.9,1.2,3.1,1.2h12.7c-0.3-0.3-0.5-0.5-0.8-0.8l-8.1-7.9c-0.2-0.1-0.3-0.3-0.5-0.4
	H68.6C67.8,59.4,67.4,60.3,67.9,60.9z"/>
<path class="st2" d="M57.2,67.9h1.7c1.1,0,2-0.9,2-2v-4c0-1.1-0.9-2-2-2h-1.7c-1.1,0-2,0.9-2,2v4C55.2,67,56.1,67.9,57.2,67.9z"/>
<path class="st2" d="M49.8,67.9h1.7c1.1,0,2-0.9,2-2v-4c0-1.1-0.9-2-2-2h-1.7c-1.1,0-2,0.9-2,2v4C47.8,67,48.7,67.9,49.8,67.9z"/>
<path class="st2" d="M42.4,67.9h1.7c1.1,0,2-0.9,2-2v-4c0-1.1-0.9-2-2-2h-1.7c-1.1,0-2,0.9-2,2v4C40.4,67,41.3,67.9,42.4,67.9z"/>
<path class="st2" d="M11.5,67.9h1.7c1.1,0,2-0.9,2-2v-4c0-1.1-0.9-2-2-2h-1.7c-1.1,0-2,0.9-2,2v4C9.5,67,10.3,67.9,11.5,67.9z"/>
<path class="st5" d="M35.9,57.9h-8.1v18h8.1c0.5,0,0.9-0.4,0.9-0.9V58.8C36.7,58.3,36.3,57.9,35.9,57.9z"/>
<path class="st5" d="M18,58.8V75c0,0.5,0.4,0.9,0.9,0.9H27v-18h-8.1C18.4,57.9,18,58.3,18,58.8z"/>
<path class="st5" d="M8.9,77.4c0,1.9,1.5,3.5,3.4,3.5s3.4-1.5,3.4-3.4v-0.1H8.9z"/>
<path class="st5" d="M17,77.4c0,1.9,1.5,3.5,3.4,3.5s3.4-1.5,3.4-3.4v-0.1H17z"/>
<path class="st5" d="M62.3,77.4c0,1.9,1.5,3.5,3.4,3.5c1.9,0,3.4-1.5,3.4-3.4v-0.1H62.3z"/>
<path class="st5" d="M70.4,77.4c0,1.9,1.5,3.5,3.4,3.5s3.4-1.5,3.4-3.4v-0.1H70.4z"/>
<polygon class="st5" points="78.8,72.1 40.6,72.1 40.6,70.8 77.5,70.8 "/>
<polygon class="st5" points="81.3,74.5 40.6,74.5 40.6,73.2 79.9,73.2 "/>
<rect x="7.6" y="70.8" class="st5" width="8.6" height="1.3"/>
<rect x="7.6" y="73.2" class="st5" width="8.6" height="1.3"/>
<path class="st2" d="M31.4,67.9h1.7c1.1,0,2-0.9,2-2v-4c0-1.1-0.9-2-2-2h-1.7c-1.1,0-2,0.9-2,2v4C29.4,67,30.3,67.9,31.4,67.9z"/>
<path class="st2" d="M21.6,67.9h1.7c1.1,0,2-0.9,2-2v-4c0-1.1-0.9-2-2-2h-1.7c-1.1,0-2,0.9-2,2v4C19.6,67,20.5,67.9,21.6,67.9z"/>
</svg>
