<?xml version="1.0" encoding="utf-8"?>
<!-- Generator: Adobe Illustrator 20.1.0, SVG Export Plug-In . SVG Version: 6.00 Build 0)  -->
<svg version="1.1" id="Layer_1" xmlns="http://www.w3.org/2000/svg" xmlns:xlink="http://www.w3.org/1999/xlink" x="0px" y="0px"
	 viewBox="0 0 100 100" style="enable-background:new 0 0 100 100;" xml:space="preserve">
<style type="text/css">
	.st0{fill:#CDCDCD;}
	.st1{fill:none;stroke:#7F7F7F;stroke-width:2;stroke-miterlimit:10;}
	.st2{fill:#7F7F7F;}
	.st3{fill:#9D9E9E;}
	.st4{fill:#6A6B6A;}
</style>
<polygon class="st0" points="8,85 7.6,85.6 7.6,85 "/>
<polygon class="st0" points="8,85 7.6,85.6 7.6,85 "/>
<line class="st1" x1="92.4" y1="84.8" x2="7.6" y2="84.8"/>
<path class="st2" d="M41.5,58c1.3,1,2.8,2,4.2,3.1L42.3,68c-0.2,0.3-0.5,0.5-0.9,0.6c-3,0.1-15.9,0.6-16,0.5v-4.2
	c0-0.1,8.6-1.1,11.1-1.4c0.4,0,0.7-0.3,0.8-0.7c0.4-1.3,1.3-4.4,2.1-7.4C40,56.4,40.6,57.3,41.5,58z"/>
<path class="st3" d="M52.3,81h-4.6c-0.2,0-0.3-0.2-0.2-0.4c1.2-2.1,7.5-12.9,7.5-12.9s0-0.9-0.3-1.1c-2-1.4-8.4-6.2-12.8-9.5
	c-2.5-1.8-3.1-5.3-1.3-7.8l1.1-1.6c0.1-0.2,10.4,5.3,10.6,5.4c0,0,7.7,10.6,9.5,13c0.2,0.3,0.1,1,0.1,1l-9.2,13.8
	C52.5,80.9,52.4,81,52.3,81z"/>
<path class="st2" d="M58,32.2c0,0-3.1-2.2-3.6-2L52,31.7c-0.9,0.3-1.6,0.9-2.1,1.8L47.8,37l4.6,0.3V38l-5.1-0.4l-5.8,10L51.9,53
	c0,0,6.8-13.9,7.3-16C59.5,35.3,59.1,33.5,58,32.2z"/>
<path class="st4" d="M24.7,64.9l-3-0.3c-0.2,0-0.3,0.1-0.3,0.2l-0.4,9c0,0.2,0.2,0.4,0.4,0.3l1.6-0.6c0.2-0.1,0.4-0.3,0.4-0.5
	l0.1-1.5l1.3-2L24.7,64.9z"/>
<path class="st4" d="M47.8,81.5c-0.2,0-0.4,0.2-0.4,0.4v2.2c0,0.1,0.1,0.3,0.3,0.3h9.8c0.2,0,0.4-0.2,0.3-0.4l-0.2-0.4
	c-0.4-0.6-1.2-1.1-1.9-1.1l-1.5-0.1l-2-0.9H47.8z"/>
<path class="st3" d="M32.3,42.9l-1.4,2c0,0-0.1,0.1-0.1,0.2l-0.1,1.7c0,0.2,0.2,0.3,0.3,0.3l2.2-0.3c0.1,0,0.2-0.1,0.2-0.2l0.6-2.4
	L32.3,42.9z"/>
<path class="st3" d="M69.7,49.3h2.9c0.1,0,0.1,0,0.2-0.1l1.6-1.2c0.1-0.1,0.2-0.3,0-0.4l-1.8-1.4c-0.1-0.1-0.2-0.1-0.3,0l-2.6,1
	L69.7,49.3z"/>
<g>
	<path class="st3" d="M63.3,21.8l0.6,6.4l-0.8,2.7c-0.1,0.5-0.7,0.8-1.2,0.7l-4.8-1.2l-4-5.4l0.1-4.9l10.5-0.4L63.3,21.8z"/>
	<path class="st2" d="M63.9,21.9l-6.1,1.4l-0.4,6.8c0,0.2-0.3,0.3-0.5,0.2l-2.6-1.8c-0.6-0.4-1.1-1-1.3-1.7l-0.7-2.1
		c-0.4-1-0.3-2.1,0.1-3.2l0.4-1c0.5-1.2,1.6-2,3-2.1l6.5-0.6l2.6-1.4c0.2-0.1,0.5,0,0.5,0.3l0.2,1.7C65.6,18.7,63.9,21.9,63.9,21.9z
		"/>
	<path class="st3" d="M58,24.9L57.2,25c-0.5,0-0.9,0.4-0.9,0.9V26c0,0.4,0.2,0.8,0.6,1l1,0.5L58,24.9z"/>
</g>
<path class="st2" d="M68.8,46.8v2.8L60.3,50h-0.8l-0.7-0.8l-2.7-3.3c0.8-1.7,1.6-3.5,2.3-4.9l3,5.5L68.8,46.8z"/>
<path class="st2" d="M52.4,37.4l-11-0.8l-6.7,6.9c-0.1,0.1-0.2,0.1-0.3,0l-1.7-1.2l6.6-9.4l1-0.1l12-0.9v5.5H52.4z"/>
</svg>
