<?xml version="1.0" encoding="utf-8"?>
<!-- Generator: Adobe Illustrator 20.1.0, SVG Export Plug-In . SVG Version: 6.00 Build 0)  -->
<svg version="1.1" id="Layer_1" xmlns="http://www.w3.org/2000/svg" xmlns:xlink="http://www.w3.org/1999/xlink" x="0px" y="0px"
	 viewBox="0 0 100 100" style="enable-background:new 0 0 100 100;" xml:space="preserve">
<style type="text/css">
	.st0{fill:none;stroke:#7F7F7F;stroke-width:2;stroke-miterlimit:10;}
	.st1{fill:#CECECE;}
	.st2{fill:#7F7F7F;}
	.st3{fill:#6A6B6A;}
	.st4{fill:#9D9E9E;}
</style>
<line class="st0" x1="92.4" y1="84.9" x2="7.6" y2="84.9"/>
<g id="fg5XA7.tif_1_">
	<g>
		<path class="st1" d="M78.6,33.4c-0.5,0-1,0.2-1.4,0.3c-2,0.8-3.4,2.8-3.4,5c-0.7,0.2-1.3,0.7-1.7,1.3c-0.4,0.6-0.6,1.3-0.6,2.1
			h-0.7l0,0h-8.1c-1.8,0-3.2-1.1-3.6-2.8c-0.4-1.9,0.8-3.8,2.7-4.1c0.4-0.1,0.5-0.1,0.5-0.6c-0.4-2.6,1.3-5.4,3.8-6.3
			c3.3-1.2,6.6,0.2,8,3.4c0.2,0.3,0.2,0.3,0.6,0.2C76.3,31.1,78.1,31.9,78.6,33.4z"/>
	</g>
</g>
<path class="st1" d="M80.8,44.4c-1.9,0-3.8,0-5.7,0c-1.3,0-2.3-0.8-2.6-1.9c-0.3-1.3,0.6-2.7,1.9-2.9c0.3,0,0.4-0.1,0.3-0.4
	c-0.3-1.9,0.9-3.8,2.7-4.5c2.3-0.9,4.7,0.1,5.7,2.4c0.1,0.2,0.2,0.2,0.4,0.1c1.4-0.7,3.1,0.4,2.9,1.9c0,0.4,0.1,0.4,0.4,0.4
	c1.4,0.1,2.4,1.2,2.4,2.5s-1.1,2.4-2.6,2.4C84.7,44.4,82.8,44.4,80.8,44.4L80.8,44.4z"/>
<path class="st1" d="M25.4,42.1c-2.4,0-4.7,0-7,0c-1.9,0-3.2-1.3-3.2-3c0-1.5,1.2-3,3-3.1c0.3,0,0.4,0,0.4-0.4
	c-0.2-1.9,1.9-3.2,3.5-2.3c0.2,0.1,0.3,0.1,0.4-0.1c1.2-2.9,4.2-4.1,6.9-3c2.2,0.9,3.6,3.2,3.3,5.5c-0.1,0.3,0,0.4,0.3,0.4
	c1.5,0.2,2.6,2,2.3,3.5C35,41,33.8,42,32.2,42C30,42.1,27.7,42.1,25.4,42.1L25.4,42.1z"/>
<path class="st1" d="M42.5,36.8c0,1.2-1,2.2-2.3,2.2h-3.5c0-0.8-0.2-1.5-0.7-2.1c-0.5-0.8-1.2-1.2-2-1.5c0.1-1.9-0.8-3.8-2.3-5
	c0.1,0,0.1,0,0.2-0.1c2.1-0.9,4.3,0.1,5.2,2.2c0.1,0.2,0.2,0.2,0.3,0.1c1.3-0.7,2.9,0.3,2.6,1.8c0,0.3,0.1,0.3,0.3,0.3
	C41.6,34.6,42.5,35.6,42.5,36.8z"/>
<g>
	<path class="st2" d="M73.4,81.4H42.1c1-1.3,1.5-2.8,1.6-4.5h28C71.8,78.5,72.4,80.1,73.4,81.4z"/>
	<path class="st2" d="M93.1,74.4l-0.8,1.8L92,76.8l-2,4.5h-3.5c1-1.4,1.6-3.1,1.6-4.9c0-4.5-3.7-8.2-8.2-8.2c-4.5,0-8.2,3.7-8.2,8.2
		H43.8c0-4.5-3.6-8.1-8.1-8.1s-8.1,3.6-8.1,8.1c0,1.7,0.5,3.2,1.4,4.5l-4.2-1.2c-0.5-0.3-3.2-4.9-3.2-4.9v-4.7L21,68.5l-2.1-6.1
		l-0.8-2.3l45.6,10.5c0.4,0.1,0.8,0.1,1.2-0.1l10.4-4.8l15.9,4.7h0.1l2,0.6C94.4,71.5,93.3,73.8,93.1,74.4z"/>
	<circle class="st3" cx="79.9" cy="76.4" r="7.4"/>
	<circle class="st3" cx="35.7" cy="76.4" r="7.4"/>
	<path class="st3" d="M93.3,71l-18.1-5.2l-10.4,4.8c-0.4,0.1-0.8,0.2-1.2,0.1L18.1,60.1V60l23.5-3.6c0.4,0.8,2.1,3.9,2.8,4.2
		l11.2,4.1l5.3,2l3.3,1.2c0.3,0.1,0.6,0.2,0.9,0.2l0,0c0.3,0,0.6-0.1,0.9-0.3l8.2-3.9l0.2,0.1l0.4,0.1l2.7,1L93.3,71z"/>
	<circle class="st2" cx="79.9" cy="76.5" r="4.5"/>
	<circle class="st2" cx="35.6" cy="76.5" r="4.5"/>
	<path class="st1" d="M74.4,64l-8.6,4c-0.4,0.2-0.8,0.2-1.3,0.1l-20.1-7.5c-0.6-0.2-2.2-3.2-2.8-4.2l7.8-0.2l4.9-0.1
		c1.9,0.1,3.7,0.5,5.5,1.3L74.4,64z"/>
	<path class="st2" d="M25.8,66.3L21,68.5l-2.1-6.1l6.8,2C26.5,64.7,26.6,65.9,25.8,66.3z"/>
</g>
<g>
	<path class="st4" d="M59,60.4l0.2,2.7l-0.3,1.2c-0.1,0.2-0.3,0.3-0.5,0.3l-2.1-0.4l-1.7-2.3l0.1-2.1l4.5-0.2L59,60.4z"/>
	<path class="st2" d="M59.2,60.5l-2.6,0.6l-0.2,3c0,0.1-0.1,0.2-0.2,0.1L55,63.4c-0.2-0.2-0.5-0.4-0.6-0.7l-0.3-0.9
		c0-0.7,0.3-1.8,0.3-1.8c0.2-0.5,0.7-0.9,1.3-0.9l2.8-0.2l1.1-0.6c0.1-0.1,0.2,0,0.2,0.2l0.1,0.7C59.9,59,59.2,60.5,59.2,60.5z"/>
	<path class="st4" d="M56.6,61.8l-0.3,0.1c-0.2,0-0.4,0.2-0.4,0.4v0.1c0,0.2,0.1,0.3,0.2,0.4l0.4,0.2L56.6,61.8z"/>
</g>
<path class="st3" d="M60.8,66.7l-5.3-2l0.2-0.2c0.2-0.2,2.6,0.2,2.6,0.2C58.6,65,60.1,66.1,60.8,66.7z"/>
<g>
	<path class="st4" d="M26.4,56.7H10.3c-0.2,0-0.4-0.3-0.4-0.5s0.2-0.5,0.4-0.5h16.2c0.2,0,0.4,0.3,0.4,0.5
		C26.8,56.5,26.6,56.7,26.4,56.7z"/>
</g>
<g>
	<path class="st4" d="M17.3,63.9H9.8c-0.1,0-0.2-0.3-0.2-0.5s0.1-0.5,0.2-0.5h7.5c0.1,0,0.2,0.3,0.2,0.5
		C17.5,63.7,17.4,63.9,17.3,63.9z"/>
</g>
<g>
	<path class="st4" d="M19.6,70.3H11c-0.1,0-0.2-0.3-0.2-0.5s0.1-0.5,0.2-0.5h8.6c0.1,0,0.2,0.3,0.2,0.5
		C19.8,70.1,19.7,70.3,19.6,70.3z"/>
</g>
</svg>
