<?xml version="1.0" encoding="utf-8"?>
<!-- Generator: Adobe Illustrator 20.1.0, SVG Export Plug-In . SVG Version: 6.00 Build 0)  -->
<svg version="1.1" id="Layer_1" xmlns="http://www.w3.org/2000/svg" xmlns:xlink="http://www.w3.org/1999/xlink" x="0px" y="0px"
	 viewBox="0 0 100 100" style="enable-background:new 0 0 100 100;" xml:space="preserve">
<style type="text/css">
	.st0{fill:none;stroke:#7F7F7F;stroke-width:2;stroke-miterlimit:10;}
	.st1{fill:#6A6B6A;}
	.st2{fill:#9D9E9E;}
	.st3{fill:none;stroke:#7F7F7F;stroke-width:4;stroke-miterlimit:10;}
	.st4{fill:#7F7F7F;}
	.st5{fill:none;stroke:#6A6B6A;stroke-width:2;stroke-miterlimit:10;}
	.st6{fill:#CECECE;}
	.st7{fill:none;stroke:#6A6B6A;stroke-width:1.5;stroke-miterlimit:10;}
</style>
<line class="st0" x1="92.4" y1="84.9" x2="7.6" y2="84.9"/>
<path class="st1" d="M56.8,54.5c-2.3,1.9-2.9,2.9-3.1,4.2c-2.2-0.1-5.8-0.4-8.4-1c-2.4-0.6-3.1-3-2.9-5.6l0.5-2.5
	c0-0.2,6.5,0.7,6.6,0.8L56.8,54.5z"/>
<path class="st1" d="M49.6,65.5c-0.2,0-0.4,0.1-0.4,0.3l-0.3,2c0,0.1,0.1,0.3,0.2,0.3l8.9,1.1c0.2,0,0.4-0.2,0.3-0.3l-0.2-0.4
	c-0.3-0.6-1-1.1-1.6-1.2L55.1,67l-1.7-1L49.6,65.5z"/>
<g>
	<path class="st2" d="M48,33.1H21.2c-0.4,0-0.7-0.3-0.7-0.7c0-0.4,0.3-0.7,0.7-0.7H48c0.4,0,0.7,0.3,0.7,0.7
		C48.6,32.8,48.3,33.1,48,33.1z"/>
</g>
<path class="st2" d="M68.9,48.1l-1.5,0.8c0,0-0.1,0-0.2,0l-0.4-0.1l-2-0.4l0.3-1.2l0.1-0.5l0.4-0.1c0.7,0,1.5,0,2.4,0.1l0.9,1
	C69.1,47.8,69,48,68.9,48.1z"/>
<g>
	<path class="st2" d="M28.4,43.8H9.9c-0.3,0-0.5-0.3-0.5-0.7s0.2-0.7,0.5-0.7h18.5c0.3,0,0.5,0.3,0.5,0.7S28.6,43.8,28.4,43.8z"/>
</g>
<g>
	<path class="st2" d="M26.7,56.5H12.3c-0.2,0-0.4-0.3-0.4-0.7s0.2-0.7,0.4-0.7h14.5c0.2,0,0.4,0.3,0.4,0.7S27,56.5,26.7,56.5z"/>
</g>
<g>
	<circle class="st3" cx="31.7" cy="72.4" r="10.6"/>
	<circle class="st3" cx="76.5" cy="72.4" r="10.6"/>
	<path class="st1" d="M79.6,59.3c-0.5,0.1-3.9,0.9-4.6,1c-0.1,0-0.1,0-0.1,0l-0.1-0.6L74.6,59l0,0l0,0c-2.2,0.3-4.2,1.1-5.9,2.3
		c-3.5,2.4-5.7,6.4-5.7,11c0,1.7,0.3,3.4,0.9,4.9l-0.5,0.5c-0.8,0.9-2,1.4-3.2,1.4H48.4c-1.5,0-2.9-0.8-3.7-2l-2.4-3.7h-0.1
		l-6.1-0.2l-2.2-0.1l-1.4-2.7l2.5-1.1l5.7-2.6l2.5-1.1l-0.1-1.7L27.9,53c-0.2-0.1-0.1-0.2,0.1-0.3c1.5-0.3,4.1,0,5,0.2
		c1.3,0.3,4.2,1.2,5.7,1.9c1.5,0.8,4.7,3.1,4.7,3.1h11.2c0,0,1-2.9,5.6-4.6C66,51.1,70.5,54,70.5,54l-0.2-0.8
		C69.8,52,69,50.8,68,49.8l-1.1-1l-1.7-1.6l0,0c-0.2-0.2,0-0.6,0.3-0.6h0.3c0.7,0,1.5,0,2.4,0.1c0.4,0,0.9,0.1,1.3,0.2
		c1.9,0.5,3.5,1.7,3.5,1.7s2.9,2.1,5,4.1C80.6,55.4,81.8,58.7,79.6,59.3z"/>
	<polygon class="st1" points="77.6,72 75.9,72.4 68.3,60.6 74.6,58.3 	"/>
	<circle class="st1" cx="32.1" cy="72.4" r="4.1"/>
	<circle class="st1" cx="76.5" cy="72.4" r="4.1"/>
</g>
<path class="st1" d="M64.8,46.3l-0.5,2.3L58,47.7l-0.7-0.1l-0.4-0.8l-0.5-1c1.1-1,2.1-1.8,2.6-2.3l0.4,1.5L64.8,46.3z"/>
<path class="st4" d="M59.6,38.9c0,0-1.6-2.8-2-2.9l-2.4,0.2c-0.8-0.1-1.6,0.1-2.3,0.6l-3.5,2.4l-8.1,5.5l6.6,7.4l3.4-2.7
	c3.1-2.5,6.8-5.6,7.5-6.4C59.6,41.8,59.9,40.3,59.6,38.9z"/>
<path class="st2" d="M65.4,50.3l2.4,0.5c0.1,0,0.1,0,0.2,0l1.5-0.8c0.1-0.1,0.2-0.2,0.1-0.4l-1.2-1.4c-0.1-0.1-0.1-0.1-0.2-0.1
	l-2.3,0.4L65.4,50.3z"/>
<path class="st5" d="M56.2,35.5c0.3,0.4,1,1.3,1.7,1.8c1,0.7,2.2,1.2,3.1,1.1"/>
<polygon class="st6" points="50.3,42 53.7,47.4 53.2,47.8 49.7,42.4 "/>
<path class="st4" d="M65,48l-0.4,2.3l-9.2-1l-0.7-0.1l-4.4-7.1c1-1.3,1.9-2.7,2.7-3.8l3.9,8.2L65,48z"/>
<path class="st7" d="M61.6,38.4c-0.6,1-2.1,1-3.1,0.8c-1.8-0.4-2.5-1.7-4.7-2.5c-2.1-0.8-4.2-0.3-5.1-0.1c-3,0.8-3.5,2.5-5.5,2.4
	c-0.9-0.1-2.2-0.5-3.7-2.5"/>
<path class="st2" d="M67.3,34.5c0.2,1.4,0,3.1-0.5,4.3c0,0.1-0.1,0.2-0.1,0.2c-0.1,0.3-0.3,0.5-0.5,0.7c-0.4,0.5-1.1,0.7-1.8,0.4
	l-6-2.7c-0.7-0.3-1.2-0.8-1.4-1.5c-0.4-1-0.8-2.6-0.3-4.2c0.3-0.9,1.3-2.2,2.4-2.7c1.1-0.5,2.9-0.4,3.9-0.1c1,0.3,2,0.8,2.5,1.4
	s1.5,2.2,1.8,3.6C67.2,34.2,67.2,34.4,67.3,34.5z"/>
<path class="st2" d="M47.9,52.1l6.1,6c0.1,0.3,1.9,13.4,1.9,13.4c0,0.1-0.1,0.2-0.2,0.2h-3.8c-0.1,0-0.2-0.1-0.2-0.2
	c0,0-3.2-10.4-3.5-10.7l-9.2-8c-1.3-1.1-1.8-2.9-1.1-4.5c1-2.3,3.6-3.6,3.6-3.6L47.9,52.1z"/>
<path class="st1" d="M67.3,34.5c0.2,1.4,0,3.1-0.5,4.3c-1.4-0.6-5.9-2.5-6.2-2.6c-0.4-0.2-0.8-0.9-1-1.2s-0.3-1.4-0.3-1.9
	c0-0.1,0.1-0.2,0.2-0.2l7.7,1.2l0,0C67.2,34.2,67.2,34.4,67.3,34.5z"/>
<path class="st4" d="M51.9,72.4c-0.2,0-0.3,0.1-0.4,0.3l-0.1,2c0,0.1,0.1,0.3,0.3,0.3l9,0.2c0.2,0,0.3-0.2,0.2-0.4l-0.2-0.3
	c-0.3-0.5-1.1-1-1.7-1.1l-1.4-0.1l-1.8-0.9H51.9z"/>
</svg>
