<?xml version="1.0" encoding="utf-8"?>
<!-- Generator: Adobe Illustrator 20.1.0, SVG Export Plug-In . SVG Version: 6.00 Build 0)  -->
<svg version="1.1" id="Layer_1" xmlns="http://www.w3.org/2000/svg" xmlns:xlink="http://www.w3.org/1999/xlink" x="0px" y="0px"
	 viewBox="0 0 100 100" style="enable-background:new 0 0 100 100;" xml:space="preserve">
<style type="text/css">
	.st0{fill:#CECECE;}
	.st1{fill:#9D9E9E;}
	.st2{fill:#7F7F7F;}
	.st3{fill:#6A6B6A;}
</style>
<path class="st0" d="M40.7,44.6c-4.4,0.8-7.4,3-9.4,5H23c-1.9,0-3.2-1-3.6-2.5c-0.4-1.7,0.8-3.7,2.5-3.9c0.3,0,0.4-0.2,0.3-0.5
	c-0.3-2.5,1.3-5,3.6-6c3-1.3,6.2,0.1,7.5,3.1c0.2,0.2,0.3,0.2,0.5,0.1c1.8-1,4,0.4,3.8,2.5c0,0.5,0.2,0.5,0.5,0.5
	C39.2,43.1,40.2,43.7,40.7,44.6z"/>
<path class="st0" d="M14.3,40.8c0.2,0,0.3,0,0.3-0.3c-0.2-1.7,1.5-2.7,2.9-2c0.1,0.1,0.2,0.1,0.3-0.1c0.9-2.3,3.3-3.3,5.6-2.4
	c0.1,0.1,0.1,0.1,0.2,0.1c-1.7,1.3-2.6,3.4-2.5,5.5c-0.8,0.3-1.6,0.8-2.2,1.7c-0.5,0.6-0.7,1.5-0.7,2.3h-3.9c-1.5,0-2.5-1-2.5-2.4
	C11.9,42,12.8,40.8,14.3,40.8z"/>
<path class="st0" d="M65.9,85.3c-2.2,0-4.3,0-6.4,0c-1.7,0-2.9-1.2-2.9-2.7c0-1.4,1.1-2.7,2.7-2.8c0.3,0,0.4,0,0.4-0.4
	c-0.2-1.7,1.7-2.9,3.2-2.1c0.2,0.1,0.3,0.1,0.4-0.1c1.1-2.6,3.8-3.7,6.3-2.7c2,0.8,3.3,2.9,3,5c-0.1,0.3,0,0.4,0.3,0.4
	c1.4,0.2,2.4,1.8,2.1,3.2c-0.3,1.2-1.4,2.1-2.9,2.1C70,85.3,68,85.3,65.9,85.3L65.9,85.3z"/>
<path class="st0" d="M81.4,80.5c0,1.1-0.9,2-2.1,2h-3.2c0-0.7-0.2-1.4-0.6-1.9c-0.5-0.7-1.1-1.1-1.8-1.4c0.1-1.7-0.7-3.5-2.1-4.6
	c0.1,0,0.1,0,0.2-0.1c1.9-0.8,3.9,0.1,4.7,2c0.1,0.2,0.2,0.2,0.3,0.1c1.2-0.6,2.6,0.3,2.4,1.6c0,0.3,0.1,0.3,0.3,0.3
	C80.6,78.5,81.4,79.4,81.4,80.5z"/>
<g>
	<path class="st1" d="M35.7,74l-8,7.3c-0.1,0.1-0.3,0-0.6-0.1c-0.1-0.2-0.2-0.5-0.1-0.6l8.1-7.4c0.1-0.1,0.3,0,0.6,0.1
		C35.9,73.8,35.8,73.9,35.7,74z"/>
</g>
<g>
	<path class="st1" d="M44.7,73.7L35,82.6c-0.1,0.1-0.5,0.1-0.6-0.1c-0.1-0.2-0.2-0.5-0.1-0.6l9.8-9c0.1-0.1,0.5-0.1,0.6,0.1
		C44.9,73.4,44.8,73.6,44.7,73.7z"/>
</g>
<g>
	<path class="st1" d="M35.8,66l-10.6,9.7c-0.2,0.1-0.5,0.1-0.6-0.1c-0.1-0.3-0.1-0.6-0.1-0.6l10.7-9.8c0.2-0.1,0.5-0.1,0.6,0.1
		C36,65.6,36,65.8,35.8,66z"/>
</g>
<path class="st0" d="M42.3,64.1l3.4,3.4c-0.3,0.2-0.7,0.5-1,0.7c-2.4,1.4-5.7,2.5-6,2.6c0-0.1,0.9-3,2.5-5.2
	C41.6,64.9,41.9,64.5,42.3,64.1z"/>
<path class="st1" d="M43,64.7l2.4,2.3c-0.2,0.1-0.5,0.3-0.7,0.5c-1.6,0.8-3.9,1.7-4,1.8c0-0.1,0.7-2,1.7-3.6
	C42.5,65.4,42.7,64.9,43,64.7z"/>
<polygon class="st2" points="49.6,68 47.6,69.4 45.7,67.7 42.3,64.1 40,61.9 41.6,60.5 43.7,62.4 47.4,66 "/>
<path class="st1" d="M78.4,35.9c-0.7,1-1.6,2.2-2.4,3.3c-1.1,1.6-2.4,3.1-3.8,4.8c-1,1.4-2.3,2.6-3.6,4.1
	c-6.9,7.5-14.1,13.1-20.5,17.2l2.8,2.8C51,68.3,51,68.3,51,68.3l-9.6-9.5c0,0,0.1-0.2,0.2-0.6c1,0.3,1.9,0.7,1.9,0.7l0.7,0.3
	l0.3-0.7c5.7-11,5.2-12,5.1-12.4c-0.1-0.3-0.3-0.5-0.7-0.6c-0.1,0-0.3-0.1-0.5-0.1c2.2-3.1,9.6-13.1,21.4-17.5L78.4,35.9z"/>
<path class="st2" d="M84.8,25.6c-1.7,3.2-3.9,6.7-6.5,10.6l-8.6-8.4C75.9,25.4,83.5,24.8,84.8,25.6z"/>
<path class="st2" d="M81.8,39.4c-1.4,2.5-5.5,12.6-17.5,21.4c0-0.2-0.1-0.5-0.1-0.6c-0.1-0.3-0.5-0.8-1-0.8c-1.7,0-9.3,4.4-11.6,5.7
	l-0.7,0.5l0.3,0.7c0,0,0.4,0.7,0.7,1.6c-0.3,0.2-0.5,0.2-0.7,0.3l-2.9-2.9c6.4-4.2,13.6-9.7,20.5-17.2c0.5-0.5,1-1.1,1.6-1.7
	c0.6-0.7,1.4-1.6,2-2.3c0.6-0.8,2-2.5,3.2-4.2c1.3-1.7,2.4-3.3,2.9-4L81.8,39.4z"/>
<path class="st3" d="M81.8,39.4L78.3,36c2.6-3.8,4.7-7.3,6.5-10.6c0.2,0.3,0.3,0.8,0.3,1.1C85.3,28.6,84.9,33.5,81.8,39.4z"/>
<path class="st3" d="M51.9,65.7c0,0,1.9,4.2,2.2,6.7c0.1,2.4-0.5,8.1-1,9.2c-0.6,0.9,3.6-2,3.6-2s9.8-5.5,6.7-19.4
	C63.2,59.1,51.9,65.7,51.9,65.7z"/>
<path class="st2" d="M43.9,57.9c0,0-4.3-1.8-6.7-1.8S29,57,28.1,57.6c-0.9,0.6,1.8-3.8,1.8-3.8s5.7-10.3,19-7.6
	C49.9,46.5,43.9,57.9,43.9,57.9z"/>
<circle class="st2" cx="70.2" cy="40.9" r="5.4"/>
<path class="st3" d="M75.6,40.9c0,3-2.4,5.4-5.3,5.4c0.6-0.7,1.4-1.6,2-2.3c0.6-0.8,2-2.5,3.2-4.2C75.6,40.2,75.6,40.6,75.6,40.9z"
	/>
<path class="st2" d="M68.4,43.6"/>
</svg>
