<?xml version="1.0" encoding="utf-8"?>
<!-- Generator: Adobe Illustrator 20.1.0, SVG Export Plug-In . SVG Version: 6.00 Build 0)  -->
<svg version="1.1" id="Layer_1" xmlns="http://www.w3.org/2000/svg" xmlns:xlink="http://www.w3.org/1999/xlink" x="0px" y="0px"
	 viewBox="0 0 100 100" style="enable-background:new 0 0 100 100;" xml:space="preserve">
<style type="text/css">
	.st0{fill:none;stroke:#7F7F7F;stroke-width:2;stroke-miterlimit:10;}
	.st1{fill:#B2B3B4;}
	.st2{fill:#7F7F7F;}
	.st3{fill:#9D9E9E;}
	.st4{fill:#6A6B6A;}
</style>
<line class="st0" x1="92.4" y1="84.8" x2="7.6" y2="84.8"/>
<path class="st1" d="M46.2,19.2v0.1h-0.1l0.1-0.4C46.2,19,46.2,19.1,46.2,19.2z"/>
<path class="st2" d="M45.5,58c1.3,1,2.8,2,4.2,3.1L46.3,68c-0.2,0.3-0.5,0.5-0.9,0.6c-3,0.1-15.9,0.6-16,0.5v-4.2
	c0-0.1,8.6-1.1,11.1-1.4c0.4,0,0.7-0.3,0.8-0.7c0.4-1.3,1.3-4.4,2.1-7.4C44,56.4,44.6,57.3,45.5,58z"/>
<path class="st3" d="M56.3,81h-4.6c-0.2,0-0.3-0.2-0.2-0.4c1.2-2.1,7.5-12.9,7.5-12.9s0-0.9-0.3-1.1c-2-1.4-8.4-6.2-12.8-9.5
	c-2.5-1.8-3.1-5.3-1.3-7.8l1.1-1.6c0.1-0.2,10.4,5.3,10.6,5.4c0,0,7.7,10.6,9.5,13c0.2,0.3,0.1,1,0.1,1l-9.2,13.8
	C56.5,80.9,56.4,81,56.3,81z"/>
<path class="st2" d="M66.1,37.7c0,0-2.3-3.1-2.8-3l-2.7,0.7c-0.9,0-1.8,0.4-2.6,1.1l-3.1,2.7l4.3,1.7L59,41.5l-4.7-2l-8.5,8.2
	l10.6,5.4c0,0,8.3-8.6,9.4-10.5C66.5,41.1,66.7,39.3,66.1,37.7z"/>
<path class="st4" d="M28.6,64.8l-3-0.4c-0.2,0-0.3,0.1-0.3,0.2l-0.6,9c0,0.2,0.2,0.4,0.4,0.3l1.6-0.6c0.2-0.1,0.4-0.3,0.4-0.5
	l0.1-1.5l1.3-2v-4.5H28.6z"/>
<path class="st4" d="M51.8,81.5c-0.2,0-0.4,0.2-0.4,0.4v2.2c0,0.1,0.1,0.3,0.3,0.3h9.8c0.2,0,0.4-0.2,0.3-0.4l-0.2-0.4
	c-0.4-0.6-1.2-1.1-1.9-1.1l-1.5-0.1l-2-0.9H51.8z"/>
<path class="st3" d="M38.3,39.8l-2,1.5c0,0-0.1,0.1-0.2,0.2L35.6,43c-0.1,0.2,0.1,0.3,0.2,0.4l2.2,0.4c0.1,0,0.2,0,0.3-0.1l1.3-2.1
	L38.3,39.8z"/>
<path class="st3" d="M71.9,57.6l2.8,0.9c0.1,0,0.1,0,0.2,0l1.9-0.6c0.1-0.1,0.3-0.2,0.1-0.4l-1.3-1.9c-0.1-0.1-0.2-0.2-0.3-0.1
	l-2.8,0.1L71.9,57.6z"/>
<g>
	<path class="st3" d="M72.9,28l-0.1,6.4l-1,2.5c-0.3,0.5-0.8,0.6-1.4,0.7l-4.5-1.7L62.5,30l0.6-4.9L73.6,26L72.9,28z"/>
	<path class="st2" d="M73.5,28.1l-6.1,0.7l-1.1,6.6c0,0.2-0.3,0.3-0.5,0l-2.5-2.1c-0.4-0.6-1-1.1-1.1-1.7l-0.5-2.2
		c-0.3-1-0.1-2.1,0.5-3.2l0.5-1c0.5-1.1,1.7-1.8,3.2-1.9l6.6,0.1l2.7-1.1c0.2-0.1,0.5,0.2,0.5,0.4l0,1.7
		C75.5,25.1,73.5,28.1,73.5,28.1z"/>
	<path class="st3" d="M67.4,30.5l-0.8-0.1c-0.5-0.2-0.9,0.3-1,0.8l0,0.1c0,0.4,0,0.8,0.5,1.1l0.9,0.6L67.4,30.5z"/>
</g>
<path class="st2" d="M71.8,54.9l-0.9,2.7l-8.2-2.3L62,55.1l-0.4-1l-1.4-3.7l3.6-4.2l1.1,6.2L71.8,54.9z"/>
<path class="st2" d="M59.1,40.9l-10.2-4.2l-8.5,4.5c-0.1,0.1-0.2,0-0.3-0.1l-1.2-1.7l9.2-6.9l1,0.2l11.7,2.9L59.1,40.9L59.1,40.9z"
	/>
<g>
	<path class="st3" d="M52.7,27.2H25.9c-0.4,0-0.7-0.3-0.7-0.7c0-0.4,0.3-0.7,0.7-0.7h26.8c0.4,0,0.7,0.3,0.7,0.7
		C53.3,26.9,53,27.2,52.7,27.2z"/>
</g>
<g>
	<path class="st3" d="M33.1,39.9H14.6c-0.3,0-0.5-0.3-0.5-0.7s0.2-0.7,0.5-0.7h18.5c0.3,0,0.5,0.3,0.5,0.7S33.3,39.9,33.1,39.9z"/>
</g>
<g>
	<path class="st3" d="M31.4,59.6H17c-0.2,0-0.4-0.3-0.4-0.7s0.2-0.7,0.4-0.7h14.5c0.2,0,0.4,0.3,0.4,0.7S31.7,59.6,31.4,59.6z"/>
</g>
</svg>
