<?xml version="1.0" encoding="utf-8"?>
<!-- Generator: Adobe Illustrator 20.1.0, SVG Export Plug-In . SVG Version: 6.00 Build 0)  -->
<svg version="1.1" id="Layer_1" xmlns="http://www.w3.org/2000/svg" xmlns:xlink="http://www.w3.org/1999/xlink" x="0px" y="0px"
	 viewBox="0 0 100 100" style="enable-background:new 0 0 100 100;" xml:space="preserve">
<style type="text/css">
	.st0{fill:none;stroke:#7F7F7F;stroke-width:2;stroke-miterlimit:10;}
	.st1{fill:#9D9E9E;}
	.st2{fill:#7F7F7F;}
	.st3{fill:#6A6B6A;}
	.st4{fill:none;stroke:#6A6B6A;stroke-width:3;stroke-miterlimit:10;}
	.st5{fill:none;stroke:#6A6B6A;stroke-width:3;stroke-linecap:round;stroke-miterlimit:10;}
	.st6{fill:#CECECE;}
</style>
<line class="st0" x1="92.4" y1="84.9" x2="7.6" y2="84.9"/>
<g>
	<path class="st1" d="M64.5,28.9L62.6,34L61,35.8c-0.3,0.3-0.8,0.4-1.2,0.1l-3.2-2.6l-1.1-5.6l1.9-3.7l8.2,3.6L64.5,28.9z"/>
	<path class="st2" d="M64.9,29.1L59.7,28L57,33.1c-0.1,0.2-0.3,0.1-0.4,0l-1.3-2.3c-0.6-1.3-0.6-4.1,1.1-6l0.6-0.6
		c0.8-0.7,2-0.9,3.1-0.5l5.2,1.9l2.5-0.1c0.2,0,0.4,0.2,0.3,0.4l-0.5,1.4C67.4,27.3,64.9,29.1,64.9,29.1z"/>
	<path class="st1" d="M59.3,29.3L58.7,29c-0.4-0.1-0.8,0-1,0.4v0.1c-0.2,0.3-0.2,0.7,0.1,1l0.6,0.7L59.3,29.3z"/>
</g>
<path class="st3" d="M50.2,65c0-1.5,1.4-6.7,2-9.1c0.2-0.6-0.3-1.2-0.9-1.3c-2-0.1-6.1-0.4-9.3-1.1c-2.4-0.6-3.1-3-2.9-5.5l0.5-2.5
	c0-0.2,6.4,0.7,6.6,0.8L57,52.4c0.4,0.2,0.6,0.7,0.5,1.2l-3.6,11.8C53.8,65.4,50.2,65.1,50.2,65z"/>
<path class="st3" d="M62.6,43.4l-0.5,2.3l-7.2-1l-0.7-0.1l-0.4-0.8L53,42.1c1.1-1,2.1-1.8,2.6-2.3l0.7,2.2L62.6,43.4z"/>
<path class="st2" d="M56.6,34.9c0,0-1.6-2.8-2-2.9l-2.4,0.2c-0.8-0.1-1.6,0.1-2.3,0.6l-3.5,2.4l-8.1,5.5l5.9,7.9l4-3.2
	c3.1-2.5,6.8-5.6,7.5-6.4C56.6,37.8,56.9,36.3,56.6,34.9z"/>
<path class="st1" d="M62.8,45.8l2.4,0.5c0.1,0,0.1,0,0.2,0l1.5-0.8c0.1-0.1,0.2-0.2,0.1-0.4l-1.2-1.4c-0.1-0.1-0.1-0.1-0.2-0.1
	L63.3,44L62.8,45.8z"/>
<circle class="st4" cx="31.4" cy="72.2" r="11.5"/>
<path class="st3" d="M49.6,65.5c-0.2,0-0.4,0.1-0.4,0.3l-0.3,2c0,0.1,0.1,0.3,0.2,0.3l8.9,1.1c0.2,0,0.4-0.2,0.3-0.3l-0.2-0.4
	c-0.3-0.6-1-1.1-1.6-1.2L55.1,67l-1.7-1L49.6,65.5z"/>
<circle class="st4" cx="76.7" cy="72.2" r="11.5"/>
<circle class="st2" cx="31.4" cy="72.2" r="2.8"/>
<circle class="st2" cx="76.7" cy="72.2" r="2.8"/>
<polyline class="st0" points="31.4,72.2 37.8,55.4 67.2,54.2 76.7,72.2 "/>
<path class="st2" d="M48.5,71.3c-0.1,0.3-0.1,0.6-0.1,0.9s0,0.6,0.1,0.9H32v-1.8H48.5z"/>
<path class="st2" d="M69.7,58.4L57.8,71.3l-1.7,1.8H56c0.1-0.3,0.1-0.6,0.1-0.9c0-0.5-0.1-1-0.3-1.4l1.3-1.5l11.2-12.2L69.7,58.4z"
	/>
<line class="st0" x1="38.9" y1="55.4" x2="47.7" y2="71"/>
<path class="st2" d="M57.8,71.3c-0.1-0.7-0.3-1.4-0.7-2c-1-1.7-2.8-2.8-4.9-2.8c-2.8,0-5.2,2.1-5.6,4.8c-0.1,0.3-0.1,0.6-0.1,0.9
	s0,0.6,0.1,0.9c0.4,2.7,2.8,4.8,5.6,4.8c3.1,0,5.7-2.5,5.7-5.7C57.9,71.9,57.9,71.6,57.8,71.3z M52.2,76c-1.8,0-3.3-1.2-3.7-2.9
	c-0.1-0.3-0.1-0.6-0.1-0.9s0-0.6,0.1-0.9c0.4-1.7,1.9-2.9,3.7-2.9c1.6,0,3,1,3.6,2.4c0.2,0.4,0.3,0.9,0.3,1.4c0,0.3,0,0.6-0.1,0.9
	C55.6,74.8,54,76,52.2,76z"/>
<path class="st0" d="M60.9,44.7h4.6c0.4,0,0.7,0.4,0.5,0.8l-1.8,3.2l4.6,8.5"/>
<line class="st5" x1="36.4" y1="51.6" x2="42.9" y2="51.6"/>
<path class="st1" d="M60.4,46.3l2.4,0.5c0.1,0,0.1,0,0.2,0l1.5-0.8c0.1-0.1,0.2-0.2,0.1-0.4l-1.2-1.4c-0.1-0.1-0.1-0.1-0.2-0.1
	l-2.3,0.4L60.4,46.3z"/>
<path class="st2" d="M60,44l-0.4,2.3l-7.2-1l-0.7-0.1l-4.4-7.1c1-1.3,1.9-2.7,2.7-3.8l3.9,8.2L60,44z"/>
<path class="st1" d="M44.5,48.4l6.3,6.3c0.1,0.3,2.4,14.6,2.4,14.6c0,0.1-0.1,0.2-0.2,0.2h-3.8c-0.1,0-0.2-0.1-0.2-0.2
	c0,0-3.6-12.1-3.9-12.4l-9.2-8c-1.3-1.1-1.8-2.9-1.1-4.5c1-2.3,3.6-3.6,3.6-3.6L44.5,48.4z"/>
<path class="st3" d="M49.6,69.8c-0.2-0.1-0.4,0-0.5,0.1l-1,1.8C48,71.8,48,72,48.2,72l7.9,4.4c0.2,0.1,0.4,0,0.4-0.2v-0.4
	c0-0.6-0.5-1.4-1-1.8l-1.1-0.8l-1.2-1.6L49.6,69.8z"/>
<polygon class="st6" points="47.3,38.1 50.6,43.5 50.1,43.9 46.6,38.5 "/>
<g>
	<path class="st1" d="M46,29.1H19.2c-0.4,0-0.7-0.3-0.7-0.7c0-0.4,0.3-0.7,0.7-0.7H46c0.4,0,0.7,0.3,0.7,0.7
		C46.6,28.8,46.3,29.1,46,29.1z"/>
</g>
<g>
	<path class="st1" d="M29.4,41.8H10.9c-0.3,0-0.5-0.3-0.5-0.7s0.2-0.7,0.5-0.7h18.5c0.3,0,0.5,0.3,0.5,0.7S29.6,41.8,29.4,41.8z"/>
</g>
<g>
	<path class="st1" d="M29.7,55.5H15.3c-0.2,0-0.4-0.3-0.4-0.7s0.2-0.7,0.4-0.7h14.5c0.2,0,0.4,0.3,0.4,0.7S30,55.5,29.7,55.5z"/>
</g>
</svg>
