<?xml version="1.0" encoding="utf-8"?>
<!-- Generator: Adobe Illustrator 20.1.0, SVG Export Plug-In . SVG Version: 6.00 Build 0)  -->
<svg version="1.1" id="Layer_1" xmlns="http://www.w3.org/2000/svg" xmlns:xlink="http://www.w3.org/1999/xlink" x="0px" y="0px"
	 viewBox="0 0 100 100" style="enable-background:new 0 0 100 100;" xml:space="preserve">
<style type="text/css">
	.st0{fill:none;stroke:#7F7F7F;stroke-width:2;stroke-miterlimit:10;}
	.st1{fill:#CECECE;}
	.st2{fill:#7F7F7F;}
	.st3{fill:#6A6B6A;}
	.st4{fill:#9D9E9E;}
</style>
<line class="st0" x1="92.4" y1="84.9" x2="7.6" y2="84.9"/>
<g id="fg5XA7.tif">
	<g>
		<path class="st1" d="M77.6,32.4c-0.5,0-1,0.2-1.4,0.3c-2,0.8-3.4,2.8-3.4,5c-0.7,0.2-1.3,0.7-1.7,1.3c-0.4,0.6-0.6,1.3-0.6,2.1
			h-0.7l0,0h-8.1c-1.8,0-3.2-1.1-3.6-2.8c-0.4-1.9,0.8-3.8,2.7-4.1c0.4-0.1,0.5-0.1,0.5-0.6c-0.4-2.6,1.3-5.4,3.8-6.3
			c3.3-1.2,6.6,0.2,8,3.4c0.2,0.3,0.2,0.3,0.6,0.2C75.3,30.1,77.1,30.9,77.6,32.4z"/>
	</g>
</g>
<path class="st1" d="M79.8,43.4c-1.9,0-3.8,0-5.7,0c-1.3,0-2.3-0.8-2.6-1.9c-0.3-1.3,0.6-2.7,1.9-2.9c0.3,0,0.4-0.1,0.3-0.4
	c-0.3-1.9,0.9-3.8,2.7-4.5c2.3-0.9,4.7,0.1,5.7,2.4c0.1,0.2,0.2,0.2,0.4,0.1c1.4-0.7,3.1,0.4,2.9,1.9c0,0.4,0.1,0.4,0.4,0.4
	c1.4,0.1,2.4,1.2,2.4,2.5s-1.1,2.4-2.6,2.4C83.7,43.4,81.8,43.4,79.8,43.4L79.8,43.4z"/>
<path class="st1" d="M26.1,40c-2.4,0-4.9,0-7.3,0c-1.7,0-3-1-3.3-2.4c-0.4-1.7,0.8-3.5,2.4-3.7c0.4,0,0.5-0.1,0.4-0.5
	c-0.4-2.4,1.2-4.9,3.5-5.8c3-1.2,6.1,0.1,7.3,3.1c0.1,0.3,0.3,0.3,0.5,0.1c1.8-0.9,4,0.5,3.7,2.4c0,0.5,0.1,0.5,0.5,0.5
	c1.8,0.1,3.1,1.5,3.1,3.2S35.5,40,33.6,40C31.1,40,28.6,40,26.1,40L26.1,40z"/>
<path class="st2" d="M92,72.8c0-0.3-0.1-0.5-0.1-0.8c-0.2-1.1-0.4-1.8-0.6-2.2c0-0.1-0.1-0.2-0.1-0.2c0-0.1-0.1-0.1-0.1-0.2
	c-0.2-0.3-0.4-0.5-0.6-0.8c-1.6-2-4.1-4-5.9-4.8C81.9,62.6,73.5,61,73.5,61s-9-7.2-11.7-8.3c-2.8-1.2-6.5-2.4-9.1-2.4H41
	c-3.3,0-6.6,1-9.3,2.8c-1.7,1.2-3.3,2.6-4.3,3.7c-4.9,6.5-4.6,15-4.6,15.1c0.3-0.6,1-1.2,1.4-1.7c0.1-0.1,0.2-0.2,0.3-0.3
	c2.1-2.3,5.3-3.5,8.8-3.1c4.6,0.5,8.1,3.9,8.5,8.6c0.2,1.5,0,2.8-0.5,4.2l25.9,0.2h0.9c-0.1-0.3,1-3.2,2.8-6.1
	c0.3-0.5,0.7-1.1,1-1.6c2.2-3.1,5.2-5.7,8.7-4.8c4.7,1.2,7.4,11.9,7.3,12.3c0,0.2-0.1-0.1-0.1,0.1h2.4c0.9,0,1.6-0.4,1.6-1.2
	C92.1,76,92.1,74.1,92,72.8z M48.5,61.4H30.4c0,0,0.2-3.1,2-5c1.8-1.9,3.1-2.8,4.7-3.4c2.9-0.9,11.5-0.6,11.5-0.6v9H48.5z"/>
<path class="st1" d="M70.3,61.4h-20v-9.1c0,0,3-0.2,5.8,0.2s6.6,2.8,9,4.4C67.5,58.7,70.3,61.4,70.3,61.4z"/>
<circle class="st3" cx="77.7" cy="77.2" r="6.8"/>
<circle class="st3" cx="32.1" cy="77.2" r="6.8"/>
<circle class="st2" cx="77.7" cy="77.2" r="4.4"/>
<circle class="st2" cx="32.1" cy="77.2" r="4.4"/>
<g>
	<path class="st4" d="M57.1,55.6l0.3,3L57,59.9c-0.1,0.3-0.4,0.4-0.5,0.4l-2.3-0.5l-1.9-2.6l0.1-2.3l5-0.2L57.1,55.6z"/>
	<path class="st2" d="M57.4,55.7l-2.9,0.7l-0.2,3.3c0,0.1-0.2,0.2-0.3,0.1l-1.2-0.9c-0.3-0.2-0.5-0.4-0.6-0.8l-0.4-1
		c-0.2-0.4-0.2-1,0.1-1.5l0.2-0.4c0.3-0.5,0.8-1,1.4-1l3.1-0.3l1.2-0.7c0.1-0.1,0.3,0,0.3,0.2l0.1,0.8
		C58.2,54.1,57.4,55.7,57.4,55.7z"/>
	<path class="st4" d="M54.5,57.1c0,0-0.8-0.1-0.8,0.5v0.1c0,0.2,0.1,0.4,0.3,0.4l0.4,0.3L54.5,57.1z"/>
</g>
<path class="st2" d="M56.3,60.6c0,0-2.6-0.5-2.8-0.3l-0.9,1.2h4.9C57.1,61.1,56.7,60.8,56.3,60.6z"/>
<path class="st1" d="M91.9,72h-2.2c-0.6,0-1.1-0.3-1.4-0.8l-0.6-1c-0.3-0.7,0.1-1.4,0.9-1.4h2c0.2,0.3,0.4,0.5,0.6,0.8
	c0,0.1,0.1,0.1,0.1,0.2c0,0,0.1,0.1,0.1,0.2C91.5,70.2,91.7,70.9,91.9,72z"/>
<path class="st3" d="M32.1,66.5c-5.9,0-10.7,4.8-10.7,10.7c0,0.9,0.1,1.8,0.4,2.6H25c-0.3-0.8-0.4-1.7-0.4-2.6
	c0-4.2,3.4-7.5,7.5-7.5s7.5,3.4,7.5,7.5c0,0.9-0.2,1.8-0.4,2.6h3.3c0.2-0.8,0.4-1.7,0.4-2.6C42.7,71.3,37.9,66.5,32.1,66.5z"/>
<path class="st3" d="M77.6,66.5c-5.9,0-10.7,4.8-10.7,10.7c0,0.9,0.2,2,0.4,2.8h3.3c-0.3-0.8-0.4-1.9-0.4-2.8c0-4.2,3.4-7.5,7.5-7.5
	c4.2,0,7.5,3.4,7.5,7.5c0,0.9-0.2,1.8-0.4,2.6h3.3c0.2-0.8,0.4-1.7,0.4-2.6C88.4,71.3,83.6,66.5,77.6,66.5z"/>
<path class="st1" d="M48.5,61.4H30.4c0,0,0.2-3.1,2-5c1.8-1.9,3.1-2.8,4.7-3.4c2.9-0.9,11.5-0.6,11.5-0.6v9H48.5z"/>
<g>
	<path class="st4" d="M22.8,60.8H12.1c-0.3,0-0.5-0.3-0.5-0.6s0.2-0.6,0.5-0.6h10.8c0.3,0,0.5,0.3,0.5,0.6
		C23.2,60.5,23.1,60.8,22.8,60.8z"/>
</g>
<g>
	<path class="st4" d="M19.4,68.2H8.1c-0.3,0-0.5-0.3-0.5-0.6c0-0.4,0.2-0.6,0.5-0.6h11.3c0.3,0,0.5,0.3,0.5,0.6
		C19.9,67.9,19.7,68.2,19.4,68.2z"/>
</g>
<g>
	<path class="st4" d="M18.5,76.2H9.7c-0.1,0-0.2-0.3-0.2-0.6c0-0.4,0.1-0.6,0.2-0.6h8.7c0.1,0,0.2,0.3,0.2,0.6
		C18.7,75.9,18.6,76.2,18.5,76.2z"/>
</g>
</svg>
