<?xml version="1.0" encoding="utf-8"?>
<!-- Generator: Adobe Illustrator 21.0.0, SVG Export Plug-In . SVG Version: 6.00 Build 0)  -->
<svg version="1.1" id="Layer_1" xmlns="http://www.w3.org/2000/svg" xmlns:xlink="http://www.w3.org/1999/xlink" x="0px" y="0px"
	 viewBox="0 0 100 100" style="enable-background:new 0 0 100 100;" xml:space="preserve">
<style type="text/css">
	.st0{fill:#FFFFFF;fill-opacity:0;}
	.st1{fill:#7F7F7F;}
	.st2{fill:#6A6B6A;}
	.st3{fill:#B5B5B5;}
	.st4{fill:#9F9F9F;}
	.st5{fill:#4B4C4B;}
	.st6{fill:#808080;}
</style>
<g>
	<rect x="9" y="9.5" class="st0" width="81" height="81"/>
	<g>
		<path class="st1" d="M24,40.9h-5.6L9.2,62.3h5.6l1.6-3.9h9.3l1.5,3.9H33L24,40.9z M18,54.2l3.1-7.9l3.1,7.9H18z"/>
		<path class="st1" d="M49.3,51c2.3-0.6,3.7-2.4,3.7-4.7c0-3.3-3-5.3-7.8-5.3H35v21.4h10.5c5,0,8.2-2.3,8.2-5.9
			C53.7,53.6,52,51.5,49.3,51z M40.4,45.1h4.4c1.6,0,2.6,0.8,2.6,2.2c0,1.4-1,2.2-2.6,2.2h-4.4V45.1z M44.8,58.1h-4.4v-4.7h4.4
			c2,0,3.3,0.9,3.3,2.3C48.1,57.2,46.8,58.1,44.8,58.1z"/>
		<path class="st1" d="M66.1,40.9h-9.2v21.4h6.8c0,0,1.4-4.3,1.2-4.3h-2.6V45.3h3.6c3.4,0,6,2.6,6,6.4c0,0.8-0.1,1.4-0.3,2.1
			l5.2,0.9c-0.4,1.4,0.6-1.7,0.6-3C77.4,45.3,72.8,40.9,66.1,40.9z"/>
	</g>
	<g>
		<path class="st2" d="M90.3,46.9l-6.8,6.7l-2.2-2.2l-8.3-8.4l6.8-6.7c1.3-1.3,3.2-1.3,4.4-0.2l6.3,6.3
			C90.8,43.8,91.6,45.6,90.3,46.9z"/>
		<path class="st3" d="M83.5,53.6l-6.8,6.7c-0.5,0.5-1.1,0.8-1.8,1c-0.3,0-0.6,0.1-0.9,0c-0.6-0.1-1.3-0.3-1.7-0.8L69,57.1
			c-1.8-1.8-2.5-3.9-2-6.1c0.3-1.6,1.2-3.1,2.7-4.6l3.4-3.4l8.3,8.4L83.5,53.6z"/>
	</g>
	<path class="st4" d="M74.9,61.3c-0.9,0.2-1.9-0.1-2.6-0.8L69,57.1c-1.8-1.8-2.5-3.9-2-6.1l7,7.5L74.9,61.3z"/>
	<path class="st5" d="M90.6,42.5l-9.2,8.9l2.2,2.2l6.8-6.7C91.6,45.6,90.8,43.8,90.6,42.5z"/>
	<path class="st6" d="M74.1,58.5v2.8c0.3,0,0.6,0,0.9,0c0.6-0.1,1.3-0.4,1.8-1l6.8-6.7l-2.2-2.2L74.1,58.5z"/>
</g>
</svg>
