<?xml version="1.0" encoding="utf-8"?>
<!-- Generator: Adobe Illustrator 21.0.0, SVG Export Plug-In . SVG Version: 6.00 Build 0)  -->
<svg version="1.1" id="Layer_1" xmlns="http://www.w3.org/2000/svg" xmlns:xlink="http://www.w3.org/1999/xlink" x="0px" y="0px"
	 viewBox="0 0 100 100" style="enable-background:new 0 0 100 100;" xml:space="preserve">
<style type="text/css">
	.st0{fill:#7F7F7F;}
	.st1{fill:#B4B4B5;}
	.st2{fill:#9D9E9E;}
	.st3{fill:#CCCCCC;}
	.st4{enable-background:new    ;}
	.st5{fill:#6A6B6A;}
</style>
<path class="st0" d="M86.5,56.7l-0.3-0.8H59l-9.2,12.3l-9-12.2c0,0-21.8,0-27,0c-0.1,0.2-0.2,0.5-0.3,0.7c2.5,2.4,9.6,10.5,9.6,10.5
	s0,9.7-0.1,15.7c0,1.8,0.5,2.8,2.4,3.2c7.6,1.8,15.1,3.8,22.6,5.8c1.2,0.3,2.5,0.3,3.7-0.1c3.6-0.9,14.5-3.7,14.5-3.7
	c2.7-0.7,5.5-1.4,8.2-2.1c1.6-0.4,2.4-1.2,2.3-3c-0.1-4.8,0-16,0-16L86.5,56.7z"/>
<path class="st1" d="M76.8,83.1c0.1,1.8-0.7,2.6-2.3,3c-2.7,0.7-5.5,1.4-8.2,2.1c0,0-0.4,0.1-1.2,0.3c-2.9,0.8-10.4,2.7-13.3,3.4
	c-1.3,0.3-2.6,0.3-3.8,0.1c-7.5-1.9-15-3.9-22.6-5.8C23.6,85.8,23,84.8,23,83c0.1-6.1,0.1-15.7,0.1-15.7L50,69.5l0.6-0.1l26.3-2.2
	C76.8,67.2,76.7,78.4,76.8,83.1z"/>
<path class="st2" d="M76.8,83.1c0.1,1.8-0.7,2.6-2.3,3c-2.7,0.7-5.5,1.4-8.2,2.1c0,0-0.4,0.1-1.2,0.3l-0.8-0.2l-13.8-19l26.3-2.1
	C76.8,67.2,76.7,78.4,76.8,83.1z"/>
<polygon class="st3" points="50.5,69.3 64.6,88.7 60.3,89.7 48,73.4 48,69.2 "/>
<g class="st4">
	<path class="st5" d="M59.2,31.9c-1.8,3.4-4.8,4.7-7.4,3.4c-1.4-0.7-2.1-1.8-1.8-3.2l0.1-0.3c-1.6,0.8-3.1,0.7-4.4,0
		c-2.6-1.3-3.9-4.7-2.3-7.9c1.5-3,4.7-4.5,7.5-3c1.8,1,2.4,2.8,2.4,3.1l0.6-1.2l2.8,1.5l-4,7.8c-0.4,0.8-0.2,1.3,0.3,1.6
		c1,0.5,2.7-0.5,3.9-2.8c2.3-4.4,1.2-9.3-3.6-11.8c-4.4-2.3-9.7-0.6-12,3.8c-2.3,4.3-0.6,9.2,3.7,11.5c1.3,0.7,3.3,1.2,5.1,0.9
		l0.1,2.4c-1.9,0.3-4.5-0.2-6.3-1.2c-5.6-2.9-7.7-9.2-4.9-14.8c2.9-5.6,9.7-7.6,15.4-4.7C60.1,19.8,62.1,26.2,59.2,31.9z M46.6,25.3
		c-0.8,1.6-0.6,3.4,0.7,4.1c1.5,0.8,3-0.1,3.9-1.7c0.8-1.5,0.5-3.2-0.9-4C48.9,23,47.3,23.8,46.6,25.3z"/>
</g>
<g class="st4">
	<path class="st5" d="M46.9,47.7l2.3,7.9l-2.4,2.1l-3-10.8l2.7-2.4L56.9,49l-2.4,2.1L46.9,47.7z"/>
</g>
<g class="st4">
	<path class="st5" d="M62.5,47.6l-2.5,3l-2.6-2.2l2.6-3.1c-1.6-1.8-2.6-4-3-6.1l3.7-1.6c0.4,2.5,1.8,5.1,3.3,6.3
		c1.1,0.9,2.2,1.1,2.8,0.3c2.1-2.5-6.6-7.2-2.4-12.1c1.8-2.1,4.5-2.3,7.3-0.8l2.5-3l2.6,2.2l-2.4,2.9c1.5,1.6,2.7,3.5,3.2,5.3
		l-3.7,1.7c-0.8-2.1-2.1-4.2-3.3-5.2c-0.9-0.8-1.8-0.9-2.4-0.3c-2,2.4,6.5,7.2,2.3,12.3C68.5,49.7,65.3,49.5,62.5,47.6z"/>
</g>
<g class="st4">
	<path class="st5" d="M40.3,43.2c-0.3,2-1.3,3.8-2.7,5c-2.8,2.4-6.3,2.5-8.5,0.1c-1.7-1.9-1.3-4.1-0.5-6.3c-1.9-0.5-3.1-1.1-4-2.2
		c-1.8-2.1-1.4-4.8,1.1-7c2.4-2.1,5.2-2.2,6.8-0.3c1.7,2,1,4.5,0,6.8c1.2,0.1,2.6,0.3,4.3,0.4c-0.2-1-0.5-2.1-1-3.1l3.6-0.4
		c0.5,1.2,0.8,2.5,0.9,3.7l3.9,0.2L44,43.4L40.3,43.2z M29.9,38.9c0.6-1.5,0.8-2.9,0-3.9c-0.6-0.7-1.6-0.8-2.4-0.1
		c-0.9,0.7-0.8,1.8-0.1,2.6C27.9,38.1,28.7,38.6,29.9,38.9z M37,43c-2.2-0.2-4-0.3-5.5-0.5c-0.3,1.2-0.4,2.2,0.3,3
		c1,1.2,2.6,1.1,3.8,0.1C36.3,45,36.8,44.1,37,43z"/>
</g>
</svg>
