<?xml version="1.0" encoding="utf-8"?>
<!-- Generator: Adobe Illustrator 21.0.0, SVG Export Plug-In . SVG Version: 6.00 Build 0)  -->
<svg version="1.1" id="Layer_1" xmlns="http://www.w3.org/2000/svg" xmlns:xlink="http://www.w3.org/1999/xlink" x="0px" y="0px"
	 viewBox="0 0 100 100" style="enable-background:new 0 0 100 100;" xml:space="preserve">
<style type="text/css">
	.st0{fill:#7F7F7F;}
	.st1{fill:#B4B4B5;}
	.st2{fill:#9D9E9E;}
	.st3{fill:#CCCCCC;}
	.st4{enable-background:new    ;}
	.st5{fill:#6A6B6A;}
</style>
<path class="st0" d="M86.5,51.1l-0.3-0.8H59l-9.2,12.3l-9-12.2c0,0-21.8,0-27,0c-0.1,0.2-0.2,0.5-0.3,0.7c2.5,2.4,9.6,10.5,9.6,10.5
	s0,9.7-0.1,15.7c0,1.8,0.5,2.8,2.4,3.2c7.6,1.8,15.1,3.8,22.6,5.8c1.2,0.3,2.5,0.3,3.7-0.1c3.6-0.9,14.5-3.7,14.5-3.7
	c2.7-0.7,5.5-1.4,8.2-2.1c1.6-0.4,2.4-1.2,2.3-3c-0.1-4.8,0-16,0-16L86.5,51.1z"/>
<path class="st1" d="M76.8,77.5c0.1,1.8-0.7,2.6-2.3,3c-2.7,0.7-5.5,1.4-8.2,2.1c0,0-0.4,0.1-1.2,0.3c-2.9,0.8-10.4,2.7-13.3,3.4
	c-1.3,0.3-2.6,0.3-3.8,0.1c-7.5-1.9-15-3.9-22.6-5.8c-1.8-0.4-2.4-1.4-2.4-3.2c0.1-6.1,0.1-15.7,0.1-15.7L50,63.9l0.6-0.1l26.3-2.2
	C76.8,61.6,76.7,72.8,76.8,77.5z"/>
<path class="st2" d="M76.8,77.5c0.1,1.8-0.7,2.6-2.3,3c-2.7,0.7-5.5,1.4-8.2,2.1c0,0-0.4,0.1-1.2,0.3l-0.8-0.2l-13.8-19l26.3-2.1
	C76.8,61.6,76.7,72.8,76.8,77.5z"/>
<polygon class="st3" points="50.5,63.7 64.6,83.1 60.3,84.1 48,67.8 48,63.6 "/>
<g class="st4">
	<path class="st5" d="M27.8,31.7c0,1.7-0.5,2.5-2,2.9c1.5,0.4,2,1.2,2,2.9v2.9c0,1.1,0.5,1.6,2.1,1.6V45h-1.6
		c-3.1,0-4.2-0.9-4.2-3.4v-4.4c0-0.8-0.3-1.1-0.9-1.1h-0.9V33h0.9c0.6,0,0.9-0.3,0.9-1v-4.5c0-2.5,1.1-3.3,4.2-3.3h1.6v3
		c-1.7,0-2.1,0.4-2.1,1.6V31.7z"/>
</g>
<g class="st4">
	<path class="st5" d="M62.8,44.3V25.1h2.7v19.2H62.8z"/>
</g>
<g class="st4">
	<path class="st5" d="M76.9,36.2H76c-0.6,0-0.9,0.3-0.9,1.1v4.4c0,2.5-1.1,3.4-4.2,3.4h-1.6v-3.1c1.6,0,2.1-0.4,2.1-1.6v-2.9
		c0-1.7,0.5-2.5,2-2.9c-1.5-0.4-2-1.2-2-2.9v-2.9c0-1.1-0.5-1.6-2.1-1.6v-3h1.6c3.1,0,4.2,0.9,4.2,3.3V32c0,0.8,0.3,1,0.9,1h0.9
		V36.2z"/>
</g>
<g class="st4">
	<path class="st5" d="M38.1,35.7v3.7h-2.4v-3.7H32v-2.4h3.7v-3.7h2.4v3.7h3.7v2.4H38.1z"/>
</g>
<g class="st4">
	<path class="st5" d="M48.5,35.1c0.6,0.4,0.8,1,0.8,1.6c0,1.2-0.9,2-2.1,2c-1.1,0-2-0.7-2-2c0-0.6,0.2-1.1,0.5-1.6l1.8-2.6h2
		L48.5,35.1z M53.1,35.1c0.6,0.4,0.8,1,0.8,1.6c0,1.2-0.9,2-2.1,2c-1.1,0-2-0.7-2-2c0-0.6,0.2-1.1,0.5-1.6l1.8-2.6h2L53.1,35.1z"/>
</g>
<g class="st4">
	<path class="st5" d="M50.2,26c0.5,0,0.8-0.4,0.8-1.1h2.9c0,2.8-0.9,4.2-2.8,4.2c-1.7,0-2.6-1.3-3.4-1.3c-0.5,0-0.8,0.4-0.8,1.1H44
		c0-2.9,0.9-4.2,2.8-4.2C48.5,24.7,49.4,26,50.2,26z"/>
</g>
<g class="st4">
	<path class="st5" d="M38,44.8V42h17.3v2.8H38z"/>
</g>
</svg>
