<?xml version="1.0" encoding="utf-8"?>
<!-- Generator: Adobe Illustrator 21.0.0, SVG Export Plug-In . SVG Version: 6.00 Build 0)  -->
<svg version="1.1" id="Layer_1" xmlns="http://www.w3.org/2000/svg" xmlns:xlink="http://www.w3.org/1999/xlink" x="0px" y="0px"
	 viewBox="0 0 100 100" style="enable-background:new 0 0 100 100;" xml:space="preserve">
<style type="text/css">
	.st0{fill:#7F8080;}
	.st1{fill:none;stroke:#7F8080;stroke-width:2.7503;stroke-linejoin:round;stroke-miterlimit:10;}
	.st2{fill:none;stroke:#7F8080;stroke-width:2;stroke-linejoin:round;stroke-miterlimit:10;}
	.st3{fill:#B4B4B5;}
	.st4{fill:#646666;}
</style>
<g>
	<path class="st0" d="M45.8,56.5L45.8,56.5c-0.6,0-1-0.4-1-1v-2.2c0-0.6,0.4-1,1-1l0,0c0.6,0,1,0.4,1,1v2.2
		C46.8,56.1,46.4,56.5,45.8,56.5z"/>
</g>
<g>
	<path class="st0" d="M52.1,56.5L52.1,56.5c-0.6,0-1-0.4-1-1v-6c0-0.6,0.4-1,1-1l0,0c0.6,0,1,0.4,1,1v6
		C53.1,56.1,52.7,56.5,52.1,56.5z"/>
</g>
<g>
	<path class="st0" d="M58.3,56.5L58.3,56.5c-0.6,0-1-0.4-1-1v-2.2c0-0.6,0.4-1,1-1l0,0c0.6,0,1,0.4,1,1v2.2
		C59.3,56.1,58.9,56.5,58.3,56.5z"/>
</g>
<polyline class="st1" points="40.6,30.3 40.6,48.9 31.2,41.5 "/>
<path class="st0" d="M55.2,77.6c0.2,1.2,0.5,2.5,0.9,3.7H43.8c-0.9-0.1-1.8-0.2-2.8-0.5c-2.4-0.5-6.2-2-6.2-3.2h8.9l-0.1-0.1
	c-0.5-0.3-1-0.8-1.6-1.3c-1.2-1.1-2.2-2.3-3-3.5c-1.9-3-2.6-5.9-2.8-7v-0.3c-0.2-1.3-0.4-3.3-0.2-5.7h24.6
	c-3.6,3.7-5.7,8.8-5.7,14.4C54.9,75.3,55,76.4,55.2,77.6z"/>
<path class="st2" d="M37,65.6c-0.2,0-2.9-0.8-4.6,0.8c-0.2,0.2-0.6,0.7-0.8,1.4c-0.4,2.1,1.6,3.8,2.4,4.1c3,1.4,6.2,0.5,6.7,0.3"/>
<g>
	<circle class="st3" cx="76.3" cy="74.1" r="19.4"/>
</g>
<path class="st0" d="M40.6,17.2c-16.2,0-29.5,13.2-29.5,29.5c0,11.6,6.6,21.5,16.3,26.4v-4.2c-7.5-4.5-12.7-12.7-12.7-22.2
	c0-14.2,11.6-25.9,25.9-25.9c11.5,0,21.2,7.4,24.6,17.8H69C65.4,26.3,54.1,17.2,40.6,17.2z"/>
<g>
	<circle class="st3" cx="76.3" cy="74.1" r="19.4"/>
	<path class="st4" d="M84.6,73.8c0.6,0.4,0.6,1.3,0,1.6l-6.4,3.7l-6.5,3.7c-0.6,0.4-1.4-0.1-1.4-0.8v-7.4v-7.4
		c0-0.7,0.8-1.2,1.4-0.8l6.4,3.7L84.6,73.8z"/>
</g>
</svg>
