<?xml version="1.0" encoding="utf-8"?>
<!-- Generator: Adobe Illustrator 21.0.0, SVG Export Plug-In . SVG Version: 6.00 Build 0)  -->
<svg version="1.1" id="Layer_1" xmlns="http://www.w3.org/2000/svg" xmlns:xlink="http://www.w3.org/1999/xlink" x="0px" y="0px"
	 viewBox="0 0 100 100" style="enable-background:new 0 0 100 100;" xml:space="preserve">
<style type="text/css">
	.st0{fill:#B4B4B5;}
	.st1{fill:#646666;}
	.st2{fill:#9F9F9F;}
	.st3{fill:#E2E2E2;}
	.st4{fill:none;stroke:#E2E2E2;stroke-width:1.3507;stroke-miterlimit:10;}
	.st5{fill:#7F8080;}
	.st6{fill:#969696;}
	.st7{fill:#5D5E5E;}
	.st8{opacity:0.18;fill:#646666;enable-background:new    ;}
</style>
<path class="st0" d="M95.9,74c0,10.8-8.7,19.5-19.5,19.5S56.9,84.8,56.9,74s8.7-19.5,19.5-19.5S95.9,63.2,95.9,74L95.9,74z"/>
<path class="st1" d="M84.8,73.7c0.6,0.4,0.6,1.3,0,1.6L78.4,79l-6.5,3.7c-0.6,0.4-1.4-0.1-1.4-0.8v-7.4v-7.4c0-0.7,0.8-1.2,1.4-0.8
	l6.4,3.7L84.8,73.7z"/>
<path class="st2" d="M71.7,45.8c-0.4,1.8-2.5,3.2-4.3,3.3c0,0-0.3,1.5-0.8,3c-0.3,1.2-1.5,2.8-3,4.6c-2.6,1.9-4.7,4.4-6.2,7.3
	c-0.7,1.2-1.2,2.6-1.6,4c-0.1,0.3-0.2,0.5-0.2,0.8c-0.4,1.7-0.7,3.5-0.7,5.3c0,2.7,0.5,5.2,1.3,7.5H20.4l1.8-7
	c0.5-1.9,1.9-3.5,3.8-4.2l18-5.1v-6.2c-0.2-0.3-0.5-0.5-0.7-0.8c-0.2-0.2-0.4-0.5-0.7-0.7c-0.5-0.5-0.9-1.1-1.4-1.6
	c-1.3-1.6-2.2-3-2.5-4c-0.4-1.4-0.8-3-0.8-3c-1.8-0.1-3.9-1.5-4.3-3.3c-0.4-1.8-1-4.5,0.6-5.6c1.1-0.7,1.6-0.2,1.6-1.2
	c0-2.5-0.1-5-0.1-7.4c0-1.7,0-0.4,0.3-2.1C37,22.4,41.1,16,49,15.1c0.8-0.1,6.6,0,7.4,0c7.2,0.4,12,7.3,12.9,14.3
	c0.2,1.7,0.3,0.4,0.3,2.1c0,2.5-0.1,4.9-0.1,7.4c0,1.1,0.5,0.6,1.6,1.2C72.7,41.2,72.1,44,71.7,45.8z"/>
<g>
	<g>
		<path class="st3" d="M57.6,35.3c-0.6,1.3-1.6,2.2-1.9,2.9c-0.1,0.2-0.3,0.2-0.4,0.2c-0.9,0-2.4,0-2.4,0s-1.4,0-2.4,0
			c-0.2,0-0.3-0.1-0.4-0.2c-0.3-0.8-1.3-1.6-1.9-2.9c-0.5-1-2.1-4.6,1-7.2c1.5-1.3,3.1-1.4,3.7-1.4c0.5,0,2.2,0.2,3.7,1.4
			C59.5,30.6,58,34.3,57.6,35.3z"/>
		<path class="st3" d="M54.8,39.8h-4c-0.2,0-0.4-0.2-0.4-0.4s0.2-0.4,0.4-0.4h4c0.2,0,0.4,0.2,0.4,0.4S55.1,39.8,54.8,39.8z"/>
		<path class="st3" d="M55,40.3c0,0,0,0.5-0.3,0.9c-0.3,0.3-0.6,0.3-0.9,0.4v0.5c-0.1,0.2-0.2,0.3-0.4,0.3h-1.1
			c-0.2-0.1-0.3-0.2-0.4-0.3c0-0.2,0-0.3,0-0.5c-0.2,0-0.5-0.1-0.9-0.4c-0.3-0.4-0.5-0.9-0.3-0.9c0.8,0,1.4,0,2.2,0
			C53.5,40.3,54.2,40.3,55,40.3z"/>
	</g>
	<g>
		<line class="st4" x1="45.3" y1="32.4" x2="42.1" y2="32.4"/>
		<line class="st4" x1="63.4" y1="32.4" x2="60.3" y2="32.4"/>
		<line class="st4" x1="52.7" y1="21.9" x2="52.7" y2="25"/>
		<line class="st4" x1="61.4" y1="25.3" x2="59" y2="27.5"/>
		<line class="st4" x1="44.8" y1="25.3" x2="47" y2="27.5"/>
	</g>
</g>
<g>
	<path class="st5" d="M56.2,81.5H20.4l1.8-7c0.5-1.9,1.9-3.5,3.8-4.2l18-5.1c0,0,0,0,0.1,0c1.1,0.3,11.3,3,11.4,3.3c0,0,0,0,0,0
		c0,0,0,0,0,0c0,0.1-0.1,0.2-0.1,0.4c-0.1,0.4-0.2,0.8-0.3,1.2c-0.2,1.2-0.3,2.4-0.3,3.7C54.9,76.7,55.3,79.2,56.2,81.5z"/>
</g>
<path class="st6" d="M51.8,42.2v-0.5c-0.2,0-0.5-0.1-0.9-0.4c-0.3-0.4-0.5-1-0.3-1H55c0,0,0,0.5-0.3,1c-0.3,0.3-0.6,0.4-0.9,0.4v0.5
	c-0.1,0.2-0.2,0.3-0.4,0.3h-1.1C52,42.5,51.9,42.4,51.8,42.2z"/>
<path class="st6" d="M54.8,39.8h-4c-0.2,0-0.4-0.2-0.4-0.4c0-0.3,0.2-0.4,0.4-0.4h4c0.2,0,0.4,0.2,0.4,0.4
	C55.2,39.6,55.1,39.8,54.8,39.8z"/>
<path class="st6" d="M48.1,35.3c-0.5-1-2.1-4.6,1-7.2c1.5-1.3,3.1-1.4,3.7-1.4c0.5,0,2.2,0.2,3.7,1.4c2.9,2.5,1.5,6.2,1,7.2
	c-0.6,1.3-1.6,2.2-1.9,2.9c-0.1,0.2-0.3,0.2-0.4,0.2c-0.9,0-2.4,0-2.4,0s-1.4,0-2.4,0c-0.2,0-0.3-0.1-0.4-0.2
	C49.7,37.4,48.7,36.6,48.1,35.3z"/>
<path class="st6" d="M55.5,68.7C55.5,68.7,55.5,68.7,55.5,68.7L55.5,68.7C55.5,68.7,55.5,68.7,55.5,68.7z"/>
<path class="st6" d="M56.5,65.8c0,0.1-0.1,0.3-0.2,0.4C56.3,66.1,56.4,66,56.5,65.8C56.5,65.8,56.5,65.8,56.5,65.8z"/>
<g>
	<g>
		<g>
			<path class="st3" d="M57.6,35.3c-0.6,1.3-1.6,2.2-1.9,2.9c-0.1,0.2-0.3,0.2-0.4,0.2c-0.9,0-2.4,0-2.4,0s-1.4,0-2.4,0
				c-0.2,0-0.3-0.1-0.4-0.2c-0.3-0.8-1.3-1.6-1.9-2.9c-0.5-1-2.1-4.6,1-7.2c1.5-1.3,3.1-1.4,3.7-1.4c0.5,0,2.2,0.2,3.7,1.4
				C59.5,30.6,58,34.3,57.6,35.3z"/>
		</g>
		<g>
			<path class="st3" d="M55.2,39.3c0,0.3-0.2,0.4-0.4,0.4h-4c-0.2,0-0.4-0.2-0.4-0.4c0-0.3,0.2-0.4,0.4-0.4h4
				C55,38.9,55.2,39.1,55.2,39.3z"/>
		</g>
		<g>
			<path class="st3" d="M55,40.3c0,0,0,0.5-0.3,1c-0.3,0.3-0.6,0.4-0.9,0.4v0.5c-0.1,0.2-0.2,0.3-0.4,0.3h-1.1
				c-0.2-0.1-0.3-0.2-0.4-0.3v-0.5c-0.2,0-0.5-0.1-0.9-0.4c-0.3-0.4-0.5-1-0.3-1H55z"/>
		</g>
	</g>
	<g>
		<g>
			<rect x="42.1" y="31.7" class="st3" width="3.2" height="1.4"/>
		</g>
		<g>
			<rect x="60.3" y="31.7" class="st3" width="3.2" height="1.4"/>
		</g>
		<g>
			<rect x="52.1" y="21.9" class="st3" width="1.4" height="3.1"/>
		</g>
		<g>
			<rect x="58.6" y="25.7" transform="matrix(0.72 -0.694 0.694 0.72 -1.4592 49.1735)" class="st3" width="3.2" height="1.4"/>
		</g>
		<g>
			<rect x="45.2" y="24.8" transform="matrix(0.707 -0.7072 0.7072 0.707 -5.2123 40.2083)" class="st3" width="1.4" height="3.2"/>
		</g>
	</g>
</g>
<polygon class="st7" points="30.7,-28.4 30.7,-20.7 28,-20.7 28,-22.5 26,-22.5 26,-26.4 28,-26.4 28,-28.4 "/>
<path class="st2" d="M57.4,63.9c-0.2,0.3-0.3,0.6-0.4,0.9c-0.1,0.2-0.2,0.5-0.4,0.8c0,0.1-0.1,0.2-0.1,0.3c-0.1,0.1-0.1,0.3-0.2,0.4
	c-0.1,0.1-0.1,0.3-0.2,0.4c-0.1,0.4-0.3,0.8-0.4,1.2c0,0,0,0,0,0.1c0,0.2-0.1,0.5-0.2,0.7v0c0,0.1-0.1,0.2-0.1,0.4l-5.2-0.4
	c-2,0-3.8-0.8-5.1-2.2l-1-1L44,65.2v-6.1c0.2,0.2,0.9,0.9,1.2,1.1c0.1,0.1,0.1,0.1,0.1,0.1c0.2,0.3,0.6,0.5,1,0.8
	c0.1,0.1,0.3,0.2,0.4,0.3c0.1,0.1,0.3,0.2,0.4,0.2c1.8,1,4.1,1.9,5.7,2.1C52.8,63.8,55.3,64,57.4,63.9z"/>
<path class="st8" d="M57.4,63.9c-0.2,0.3-0.3,0.6-0.4,0.9c-0.1,0.2-0.2,0.5-0.4,0.8c0,0.1-0.1,0.2-0.1,0.3c-0.1,0.1-0.1,0.3-0.2,0.4
	c-0.1,0.1-0.1,0.3-0.2,0.4c-0.1,0.4-0.3,0.8-0.4,1.2c0,0,0,0,0,0.1c0,0.2-0.1,0.5-0.2,0.7v0c0,0.1-0.1,0.2-0.1,0.4l-5.2-0.4
	c-2,0-3.8-0.8-5.1-2.2l-1-1L44,65.2v-6.1c0.2,0.2,0.9,0.9,1.2,1.1c0.1,0.1,0.1,0.1,0.1,0.1c0.2,0.3,0.6,0.5,1,0.8
	c0.1,0.1,0.3,0.2,0.4,0.3c0.1,0.1,0.3,0.2,0.4,0.2c1.8,1,4.1,1.9,5.7,2.1C52.8,63.8,55.3,64,57.4,63.9z"/>
</svg>
