<?xml version="1.0" encoding="utf-8"?>
<!-- Generator: Adobe Illustrator 23.0.1, SVG Export Plug-In . SVG Version: 6.00 Build 0)  -->
<svg version="1.1" id="Layer_1" xmlns="http://www.w3.org/2000/svg" xmlns:xlink="http://www.w3.org/1999/xlink" x="0px" y="0px"
	 viewBox="0 0 100 100" style="enable-background:new 0 0 100 100;" xml:space="preserve">
<style type="text/css">
	.st0{fill:#FFFFFF;fill-opacity:0;}
	.st1{fill:#6A6B6A;}
	.st2{fill:#7F7F7F;}
	.st3{fill:#B4B4B5;}
	.st4{fill:#9D9E9E;}
	.st5{fill:#CCCCCC;}
	.st6{fill:#DDDDDD;}
</style>
<rect x="10" y="10" class="st0" width="80" height="80"/>
<g>
	<g>
		<path class="st1" d="M58.9,39.1c-1.2,2.3-3,4-3.6,5.5c-0.1,0.3-0.6,0.4-0.8,0.4c-1.7,0-4.4,0-4.4,0s-2.6,0-4.4,0
			c-0.3,0-0.7-0.1-0.8-0.4c-0.6-1.4-2.3-3-3.6-5.5c-1-1.8-3.7-8.6,1.9-13.3c2.8-2.3,5.8-2.5,6.9-2.5s4.1,0.3,6.9,2.5
			C62.6,30.5,59.8,37.3,58.9,39.1z"/>
		<path class="st1" d="M53.8,47.7h-7.3c-0.4,0-0.8-0.4-0.8-0.8c0-0.4,0.4-0.8,0.8-0.8h7.3c0.4,0,0.8,0.4,0.8,0.8
			C54.6,47.3,54.3,47.7,53.8,47.7z"/>
		<path class="st1" d="M54.2,48.6c0,0,0,1-0.7,1.7c-0.6,0.6-1.5,1.9-1.5,1.9c-0.1,0.3-0.4,0.6-0.8,0.7h-2.1
			c-0.4-0.1-0.7-0.4-0.8-0.7c0-0.4-1-1.2-1.5-1.9c-0.7-0.7-0.8-1.7-0.7-1.7c1.4,0,2.6,0,4,0C51.4,48.6,52.8,48.6,54.2,48.6z"/>
	</g>
	<path class="st1" d="M35.1,35.7l-6.8,0.5c-0.6,0-1.1-0.4-1.2-1s0.4-1.1,1-1.2c0,0,0.1,0,0.1,0l6.8,0.5c0.3,0,0.6,0.3,0.6,0.7
		C35.7,35.4,35.4,35.7,35.1,35.7z"/>
	<path class="st1" d="M37.8,25.1L32.4,21c-0.5-0.4-0.6-1-0.2-1.5c0.4-0.5,1-0.6,1.5-0.2c0,0,0.1,0.1,0.1,0.1l4.8,4.8
		c0.2,0.2,0.2,0.6,0,0.9C38.4,25.3,38,25.3,37.8,25.1z"/>
	<path class="st1" d="M49.4,19.2l-0.5-6.8c0-0.6,0.4-1.1,1-1.2c0.6,0,1.1,0.4,1.2,1c0,0,0,0.1,0,0.1l-0.4,6.8c0,0.3-0.3,0.6-0.7,0.6
		C49.7,19.8,49.4,19.5,49.4,19.2z"/>
	<path class="st1" d="M64.9,34.4l6.8-0.5c0.6,0,1.1,0.4,1.2,1s-0.4,1.1-1,1.2c0,0-0.1,0-0.1,0l-6.8-0.5c-0.3,0-0.6-0.3-0.6-0.7
		C64.3,34.7,64.6,34.4,64.9,34.4z"/>
	<path class="st1" d="M61.9,24.5l4.9-4.7c0.4-0.4,1.1-0.4,1.5,0c0.4,0.4,0.4,1.1,0,1.5c0,0-0.1,0.1-0.1,0.1l-5.5,4
		c-0.3,0.2-0.7,0.1-0.9-0.1C61.6,25,61.7,24.7,61.9,24.5z"/>
	<g>
		<path class="st2" d="M86.5,52.1l-0.3-0.8H59l-9.2,12.3l-9-12.2c0,0-21.8,0-27,0c-0.1,0.2-0.2,0.5-0.3,0.7
			c2.5,2.4,9.6,10.5,9.6,10.5s0,9.7-0.1,15.7c0,1.8,0.5,2.8,2.4,3.2c7.6,1.8,15.1,3.8,22.6,5.8c1.2,0.3,2.5,0.3,3.7-0.1
			c3.6-0.9,14.5-3.7,14.5-3.7c2.7-0.7,5.5-1.4,8.2-2.1c1.6-0.4,2.4-1.2,2.3-3c-0.1-4.8,0-16,0-16L86.5,52.1z"/>
		<path class="st3" d="M76.8,78.5c0.1,1.8-0.7,2.6-2.3,3c-2.7,0.7-5.5,1.4-8.2,2.1c0,0-0.4,0.1-1.2,0.3c-2.9,0.8-10.4,2.7-13.3,3.4
			c-1.3,0.3-2.6,0.3-3.8,0.1c-7.5-1.9-15-3.9-22.6-5.8c-1.8-0.4-2.4-1.4-2.4-3.2c0.1-6.1,0.1-15.7,0.1-15.7L50,64.9l0.6-0.1
			l26.3-2.2C76.8,62.6,76.7,73.8,76.8,78.5z"/>
		<path class="st4" d="M76.8,78.5c0.1,1.8-0.7,2.6-2.3,3c-2.7,0.7-5.5,1.4-8.2,2.1c0,0-0.4,0.1-1.2,0.3l-0.8-0.2l-13.8-19l26.3-2.1
			C76.8,62.6,76.7,73.8,76.8,78.5z"/>
		<polygon class="st5" points="50.5,64.7 64.6,84.1 60.3,85.1 48,68.8 48,64.6 		"/>
	</g>
	<path class="st6" d="M56.7,33.7C56.6,33.7,56.6,33.7,56.7,33.7c-0.4,0-0.8-0.4-0.8-0.8c0-0.5,0-1.7-1-2.9c-0.9-1.1-2-1.4-2.5-1.5
		c-0.4-0.1-0.7-0.5-0.6-0.9c0.1-0.4,0.5-0.7,0.9-0.6c0.8,0.2,2.2,0.6,3.4,2.1c1.2,1.5,1.3,3.2,1.3,3.9
		C57.4,33.4,57.1,33.7,56.7,33.7z"/>
</g>
</svg>
