<?xml version="1.0" encoding="utf-8"?>
<!-- Generator: Adobe Illustrator 21.0.0, SVG Export Plug-In . SVG Version: 6.00 Build 0)  -->
<svg version="1.1" id="Layer_1" xmlns="http://www.w3.org/2000/svg" xmlns:xlink="http://www.w3.org/1999/xlink" x="0px" y="0px"
	 viewBox="0 0 100 100" style="enable-background:new 0 0 100 100;" xml:space="preserve">
<style type="text/css">
	.st0{fill:none;stroke:#7F8080;stroke-width:2;stroke-miterlimit:10;}
	.st1{fill:#B4B4B5;}
	.st2{fill:none;stroke:#7F7F7F;stroke-width:2;stroke-miterlimit:10;}
	.st3{fill:#7F7F7F;}
	.st4{fill:#9D9E9E;}
	.st5{fill:#6A6B6A;}
</style>
<line class="st0" x1="93.2" y1="84.7" x2="8.3" y2="84.7"/>
<path class="st1" d="M47,20v0.1h-0.1l0.1-0.4C47,19.8,47,19.9,47,20z"/>
<line class="st2" x1="93.2" y1="85.3" x2="8.3" y2="85.3"/>
<path class="st3" d="M48.2,66.9l-13.8,8.8c0,0-16.9,2.8-17.2,2.8L17,75.3c0,0,14.1-4.5,14.1-4.5l12.2-10.5l0.1,1.2
	C43.8,64.1,45.7,66.2,48.2,66.9z"/>
<path class="st4" d="M73.7,80.9l-3.8,0.2l-2.6-15.4c0,0-0.6-0.7-0.9-0.6c-2.4,0.3-10.4,0.9-15.9,1.3c-3.1,0.3-5.8-2-6.1-5l-0.2-1.9
	c-0.1-0.2,11.3-2.8,11.5-2.9c0,0,12.8,2.9,15.7,3.5c0.3,0.1,0.7,0.7,0.7,0.7S73.8,80.8,73.7,80.9z"/>
<path class="st3" d="M44.1,58.3l1-5.6l-3.6-6l-1-1.6l3.8-0.3L44,39.4L39.8,40l0.4-2.1c0.2-0.5,3.9-1.2,3.9-1.2
	c1.7,0.1,3.3,1.1,4.3,2.5c0.6,0.9,4.5,7.6,5.7,9.7c0.2,0.4,0.3,0.8,0.4,1.2l0.5,5.4L44.1,58.3z"/>
<path class="st5" d="M16.4,75.3l-3-0.3c-0.2,0-0.3,0.1-0.3,0.2l-0.4,9c0,0.2,0.2,0.4,0.4,0.3l3.2,0.2c0.2-0.1-0.1-1.5-0.1-1.7
	l-1-0.4l0-0.7l1.3-2L16.4,75.3z"/>
<path class="st5" d="M70,81.4c-0.2,0-0.4,0.2-0.4,0.4l0,2.2c0,0.1,0.1,0.3,0.3,0.3l9.8,0c0.2,0,0.4-0.2,0.3-0.4l-0.2-0.4
	c-0.4-0.6-1.2-1.1-1.9-1.1l-1.5-0.1l-2-0.9L70,81.4z"/>
<path class="st4" d="M21.1,46l-3.2,1.1c0,0-0.1,0-0.2,0.1l-1.6,2c-0.1,0.2,0,0.4,0.1,0.4l5.7-1.6L21.1,46z"/>
<path class="st4" d="M68.7,38.3l6.1-1.9c0.1-0.1-0.6-0.6-0.8-0.7h-3.6l-2.1,0.5L68.7,38.3z"/>
<g>
	<path class="st4" d="M42.8,26.2l3.4,5.4l0.5,2.8c0.1,0.5-0.3,1-0.8,1.2l-4.8,1.1l-6-3L33,29.3l9.2-5.1L42.8,26.2z"/>
	<path class="st3" d="M43.4,26l-4.8,4l2.7,6.2c0.1,0.2-0.1,0.4-0.4,0.4l-3.1-0.4c-0.7-0.1-1.4-0.4-1.9-0.9l-1.6-1.6
		c-0.8-0.7-1.2-1.7-1.4-2.9l-0.1-1.1c-0.1-1.3,0.5-2.5,1.7-3.2l5.5-3.5l1.7-2.4c0.1-0.2,0.4-0.2,0.6,0l0.9,1.4
		C43.5,22.4,43.4,26,43.4,26z"/>
	<path class="st4" d="M39.5,31.4l-0.7,0.5c-0.4,0.2-0.6,0.8-0.4,1.2l0,0.1c0.2,0.4,0.5,0.6,1,0.6l1.1,0L39.5,31.4z"/>
</g>
<path class="st3" d="M45.1,44.1l-12.3,1.2L22.5,48l-1.2-2.2l10.3-4.2l12.3-2.8L45.1,44.1z"/>
<path class="st3" d="M68.1,38.5l-8.5,2.8l-8.3,1.2c-0.7-1.2-1.5-2.5-1.7-2.8c-0.3-0.5-0.3-0.5-0.7-0.9l9.6-0.3l9.2-2.2L68.1,38.5z"
	/>
</svg>
