<?xml version="1.0" encoding="utf-8"?>
<!-- Generator: Adobe Illustrator 21.0.0, SVG Export Plug-In . SVG Version: 6.00 Build 0)  -->
<svg version="1.1" id="Layer_1" xmlns="http://www.w3.org/2000/svg" xmlns:xlink="http://www.w3.org/1999/xlink" x="0px" y="0px"
	 viewBox="0 0 100 100" style="enable-background:new 0 0 100 100;" xml:space="preserve">
<style type="text/css">
	.st0{fill:#969696;}
	.st1{fill:#686969;}
</style>
<path class="st0" d="M70,50.2v22.3c-0.1,3.8-3.2,7-7,7H24c-3.8,0-7-3.1-7-7V50.2c0-1.5,0.6-3,1.3-4.1c0.1-0.1,0.1-0.2,0.2-0.2
	c1.3-1.6,3.2-2.7,5.5-2.7h3c0.2,0.5,0.5,0.9,0.8,1.2c1.1,1.3,2.7,2.1,4.5,2.1s3.4-0.8,4.5-2.1c0.3-0.4,0.6-0.8,0.8-1.2h17.5
	c0.5,0.5,1.2,0.9,1.9,0.9s1.5-0.3,1.9-0.9h4.8c0.8,0.1,1.6,0.3,2.3,0.7c0.4,0.2,0.8,0.4,1.1,0.7C68.9,45.8,70,47.8,70,50.2z"/>
<rect x="67.2" y="56.4" class="st0" width="8.7" height="9.9"/>
<path class="st0" d="M81.4,52.3v18.2c0,0.7-0.8,1-1.3,0.6l-4.6-4.7v-10l4.6-4.7C80.5,51.3,81.4,51.6,81.4,52.3z"/>
<g>
	<path class="st1" d="M84.4,71.7c-0.7,0-1.4-0.7-1.4-1.4V52c0-0.7,0.7-1.4,1.4-1.4c0.7,0,1.4,0.7,1.4,1.4v18.2
		C85.8,71,85.2,71.7,84.4,71.7z"/>
</g>
<g>
	<path class="st1" d="M47.3,39.4c-0.6-7.7-7.1-13.8-15-13.8c-8.4,0-15,6.7-15,15c0,1.9,0.4,3.8,1,5.5c0.1,0.4,0.3,0.8,0.5,1.1
		c2.4,4.9,7.5,8.4,13.5,8.4c7,0,12.9-4.7,14.6-11.2c0.1-0.4,0.2-0.8,0.3-1.2c0.1-0.6,0.2-1.2,0.2-1.8c0-0.2,0-0.4,0-0.7
		C47.4,40.3,47.4,39.8,47.3,39.4z M36.8,44.4c-1.1,1.3-2.7,2.1-4.5,2.1s-3.4-0.8-4.5-2.1c-0.3-0.4-0.6-0.8-0.8-1.2
		c-0.4-0.8-0.6-1.6-0.6-2.5c0-3.3,2.7-5.9,5.9-5.9s5.9,2.7,5.9,5.9c0,0.9-0.2,1.7-0.6,2.5C37.4,43.6,37.1,44,36.8,44.4z"/>
</g>
<g>
	<path class="st1" d="M57,30.7c-5.5,0-10.1,4.2-10.6,9.7c0,0.3,0,0.6,0,1c0,0.4,0,0.8,0.1,1.2c0,0.2,0.1,0.5,0.1,0.7
		c0.1,0.4,0.2,0.9,0.3,1.3c0,0.1,0,0.2,0.1,0.3c1.4,4.3,5.3,7.2,10.1,7.2c4.5,0,8.3-2.7,9.9-6.8c0.1-0.1,0.1-0.3,0.2-0.5
		c0-0.1,0-0.1,0-0.2c0.3-1,0.5-2.1,0.5-3.2C67.6,35.4,62.8,30.7,57,30.7z M57,44c-0.8,0-1.5-0.3-1.9-0.9c-0.4-0.5-0.7-1.1-0.7-1.8
		c0-1.4,1.2-2.6,2.6-2.6s2.6,1.2,2.6,2.6c0,0.7-0.3,1.3-0.7,1.8C58.5,43.7,57.8,44,57,44z"/>
</g>
</svg>
