<?xml version="1.0" encoding="utf-8"?>
<!-- Generator: Adobe Illustrator 23.1.1, SVG Export Plug-In . SVG Version: 6.00 Build 0)  -->
<svg version="1.1" id="Layer_1" xmlns="http://www.w3.org/2000/svg" xmlns:xlink="http://www.w3.org/1999/xlink" x="0px" y="0px"
	 viewBox="0 0 100 100" style="enable-background:new 0 0 100 100;" xml:space="preserve">
<style type="text/css">
	.st0{fill:#FFFFFF;fill-opacity:0;}
	.st1{enable-background:new    ;}
	.st2{fill:#6A6B6A;}
	.st3{fill:#7F7F7F;}
	.st4{fill:#B4B4B5;}
	.st5{fill:#9D9E9E;}
	.st6{fill:#CCCCCC;}
</style>
<rect x="9.5" y="9.5" class="st0" width="81" height="81"/>
<g class="st1">
	<path class="st2" d="M46.93,29.27c-0.49-1.58-1.07-2.21-1.65-2.21c-1.65,0-3.81,2.13-3.81,2.69c0,1.34,3.83,1.14,5.15,1.88
		c0.83,0.46,1.28,1.25,1.28,2.46c0,1-0.39,2.13-0.91,3.27c-0.76,0.98-1.72,1.74-2.81,2.37c-1.6,0.93-3.22,1.48-4.9,1.48
		c-2.76,0-5.91-1.86-5.91-6.75c0-2.09,0.44-3.67,1.02-4.97l1.02,0.3c-0.39,0.93-0.49,1.95-0.49,2.97c0,2.6,1.69,4.83,4.59,4.83
		c1.32,0,2.69-0.35,3.87-0.86c1.09-0.47,2.04-1.04,2.65-1.65c0-0.26-1.39-0.51-3.02-0.76c-2.25-0.33-3.22-1.41-3.22-3.06
		c0-1.74,0.67-3.41,2.02-4.87c1.46-1.58,3.04-2.64,4.5-2.64c1.49,0,1.99,1.79,1.99,2.79c0,0.67-0.33,1.58-0.91,2.72H46.93z"/>
	<path class="st2" d="M55.78,23.75c2.65,3.99,4.11,5.62,4.11,8.79c0.84-0.49,1.46-1.14,1.46-3.13c0-6.73-0.47-7.77-0.47-9.3
		c0-0.97,0.37-1.78,1.78-2.85l0.3,0.19c-0.04,0.09-0.07,0.21-0.07,0.4c0,0.77,0.81,2.36,1.95,4.25l-1.6,1.18v3.34
		c0,2.88-0.44,5.38-1.53,7.31c-0.93,1.65-2.29,2.71-4.97,2.71c-1.58,0-3.32-0.32-5.24-1.07v-0.44c3.62-0.81,5.99-1.53,7.45-2.2
		c-0.14-0.93-2.2-3.9-5.38-8.19c-1.04-1.41-1.71-2.46-1.71-3.34c0-0.67,0.33-1.55,0.9-2.5l0.23,0.02c0.53,0.84,1.85,2.06,3.64,3.52
		L55.78,23.75z"/>
</g>
<path class="st3" d="M85.2,50.1l-0.3-0.8H57.7l-9.2,12.3l-9-12.2c0,0-21.8,0-27,0c-0.1,0.2-0.2,0.5-0.3,0.7
	c2.5,2.4,9.6,10.5,9.6,10.5s0,9.7-0.1,15.7c0,1.8,0.5,2.8,2.4,3.2c7.6,1.8,15.1,3.8,22.6,5.8c1.2,0.3,2.5,0.3,3.7-0.1
	c3.6-0.9,14.5-3.7,14.5-3.7c2.7-0.7,5.5-1.4,8.2-2.1c1.6-0.4,2.4-1.2,2.3-3c-0.1-4.8,0-16,0-16L85.2,50.1z"/>
<path class="st4" d="M75.5,76.5c0.1,1.8-0.7,2.6-2.3,3c-2.7,0.7-5.5,1.4-8.2,2.1c0,0-0.4,0.1-1.2,0.3c-2.9,0.8-10.4,2.7-13.3,3.4
	c-1.3,0.3-2.6,0.3-3.8,0.1c-7.5-1.9-15-3.9-22.6-5.8c-1.8-0.4-2.4-1.4-2.4-3.2c0.1-6.1,0.1-15.7,0.1-15.7l26.9,2.2l0.6-0.1l26.3-2.2
	C75.5,60.6,75.4,71.8,75.5,76.5z"/>
<path class="st5" d="M75.5,76.5c0.1,1.8-0.7,2.6-2.3,3c-2.7,0.7-5.5,1.4-8.2,2.1c0,0-0.4,0.1-1.2,0.3L63,81.7l-13.8-19l26.3-2.1
	C75.5,60.6,75.4,71.8,75.5,76.5z"/>
<polygon class="st6" points="49.2,62.7 63.3,82.1 59,83.1 46.7,66.8 46.7,62.6 "/>
</svg>
