<?xml version="1.0" encoding="utf-8"?>
<!-- Generator: Adobe Illustrator 23.1.1, SVG Export Plug-In . SVG Version: 6.00 Build 0)  -->
<svg version="1.1" id="Layer_1" xmlns="http://www.w3.org/2000/svg" xmlns:xlink="http://www.w3.org/1999/xlink" x="0px" y="0px"
	 viewBox="0 0 100 100" style="enable-background:new 0 0 100 100;" xml:space="preserve">
<style type="text/css">
	.st0{fill:#FFFFFF;fill-opacity:0;}
	.st1{enable-background:new    ;}
	.st2{fill:#6A6B6A;}
	.st3{fill:#7F7F7F;}
	.st4{fill:#B4B4B5;}
	.st5{fill:#9D9E9E;}
	.st6{fill:#CCCCCC;}
</style>
<rect x="9.5" y="9.5" class="st0" width="81" height="81"/>
<g class="st1">
	<path class="st2" d="M42.46,34.26c-2.71,0-4.06-1.56-4.06-3.55c0-1.49,0.46-2.78,1.39-3.88c0.93-0.98,1.92-1.62,2.95-1.62
		c1.95,0,3.66,2.94,3.66,7.08c0,2.57-0.72,4.46-1.83,6.1c-1.53,2-2.87,2.65-4.11,2.65c-1.69,0-3.46-0.76-5.24-1.97l0.37-0.97
		c0.63,0.25,1.3,0.4,2.04,0.4c1.46,0,2.94-0.6,4.34-1.63c1.14-0.84,1.99-1.81,2.53-2.85C43.96,34.19,43.2,34.26,42.46,34.26z
		 M41.92,28.14c-1.2,0-1.95,0.69-1.95,1.27c0,0.81,1.35,1.65,3.23,1.65c0.56,0,1.04-0.04,1.46-0.11
		C44.22,29.37,42.99,28.14,41.92,28.14z"/>
	<path class="st2" d="M56.14,34.26c-2.71,0-4.06-1.56-4.06-3.55c0-1.49,0.46-2.78,1.39-3.88c0.93-0.98,1.92-1.62,2.95-1.62
		c1.95,0,3.66,2.94,3.66,7.08c0,2.57-0.72,4.46-1.83,6.1c-1.53,2-2.87,2.65-4.11,2.65c-1.69,0-3.46-0.76-5.24-1.97l0.37-0.97
		c0.63,0.25,1.3,0.4,2.04,0.4c1.46,0,2.94-0.6,4.34-1.63c1.14-0.84,1.99-1.81,2.53-2.85C57.64,34.19,56.88,34.26,56.14,34.26z
		 M55.69,20.65l-0.47-0.53c-0.14-0.18-0.35-0.25-0.6-0.25c-0.7,0.02-1.18,0.35-1.18,0.62c0,0.46,0.81,0.93,2.3,0.93
		c0.65,0,1.16-0.02,1.78-0.05l0.07,0.16c-0.19,0.47-0.44,0.95-0.72,1.42c-1.92,0.25-3.43,0.65-4.39,1.27l-0.21-0.21
		c0.21-0.46,0.44-0.9,0.69-1.32c-0.69-0.3-1.07-0.74-1.07-1.41c0-0.54,0.37-1.3,1.12-1.99c0.67-0.58,1.42-0.93,2.18-0.93
		s1.25,0.39,1.25,0.98c0,0.39-0.18,0.81-0.51,1.3H55.69z M55.6,28.14c-1.2,0-1.95,0.69-1.95,1.27c0,0.81,1.35,1.65,3.23,1.65
		c0.56,0,1.04-0.04,1.46-0.11C57.9,29.37,56.67,28.14,55.6,28.14z"/>
</g>
<path class="st3" d="M85.2,50.1l-0.3-0.8H57.7l-9.2,12.3l-9-12.2c0,0-21.8,0-27,0c-0.1,0.2-0.2,0.5-0.3,0.7
	c2.5,2.4,9.6,10.5,9.6,10.5s0,9.7-0.1,15.7c0,1.8,0.5,2.8,2.4,3.2c7.6,1.8,15.1,3.8,22.6,5.8c1.2,0.3,2.5,0.3,3.7-0.1
	c3.6-0.9,14.5-3.7,14.5-3.7c2.7-0.7,5.5-1.4,8.2-2.1c1.6-0.4,2.4-1.2,2.3-3c-0.1-4.8,0-16,0-16L85.2,50.1z"/>
<path class="st4" d="M75.5,76.5c0.1,1.8-0.7,2.6-2.3,3c-2.7,0.7-5.5,1.4-8.2,2.1c0,0-0.4,0.1-1.2,0.3c-2.9,0.8-10.4,2.7-13.3,3.4
	c-1.3,0.3-2.6,0.3-3.8,0.1c-7.5-1.9-15-3.9-22.6-5.8c-1.8-0.4-2.4-1.4-2.4-3.2c0.1-6.1,0.1-15.7,0.1-15.7l26.9,2.2l0.6-0.1l26.3-2.2
	C75.5,60.6,75.4,71.8,75.5,76.5z"/>
<path class="st5" d="M75.5,76.5c0.1,1.8-0.7,2.6-2.3,3c-2.7,0.7-5.5,1.4-8.2,2.1c0,0-0.4,0.1-1.2,0.3L63,81.7l-13.8-19l26.3-2.1
	C75.5,60.6,75.4,71.8,75.5,76.5z"/>
<polygon class="st6" points="49.2,62.7 63.3,82.1 59,83.1 46.7,66.8 46.7,62.6 "/>
</svg>
