<?xml version="1.0" encoding="utf-8"?>
<!-- Generator: Adobe Illustrator 23.1.1, SVG Export Plug-In . SVG Version: 6.00 Build 0)  -->
<svg version="1.1" id="Layer_1" xmlns="http://www.w3.org/2000/svg" xmlns:xlink="http://www.w3.org/1999/xlink" x="0px" y="0px"
	 viewBox="0 0 100 100" style="enable-background:new 0 0 100 100;" xml:space="preserve">
<style type="text/css">
	.st0{fill:#FFFFFF;fill-opacity:0;}
	.st1{enable-background:new    ;}
	.st2{fill:#6A6B6A;}
	.st3{fill:#7F7F7F;}
	.st4{fill:#B4B4B5;}
	.st5{fill:#9D9E9E;}
	.st6{fill:#CCCCCC;}
</style>
<rect x="9.5" y="9.5" class="st0" width="81" height="81"/>
<g class="st1">
	<path class="st2" d="M34.77,22.9l0.37-0.25c1.23,1.02,2.62,1.92,3.8,2.97c1.37,1.23,1.93,2.36,1.93,4.22
		c0,1.62-0.39,2.72-0.86,3.69c-0.98,1.35-2.62,2.13-4.18,2.13c-3.52,0-4.03-3.22-4.03-4.41c0-2.57,1.11-4.34,2.71-6.29L34.77,22.9z
		 M33.46,30.07c0,1.05,1.07,2.02,2.65,2.02c1.16,0,2.64-0.54,3.18-1.48c-0.14-1.16-1.34-2.37-3.64-3.67
		C34.11,28.3,33.46,29.32,33.46,30.07z"/>
	<path class="st2" d="M62.94,24.73c1.14,1.92,1.86,3.97,1.86,4.92c0,1.18-0.58,3.25-1.46,4.34c-2.46,1.35-6.24,2.16-9.54,2.16
		c-2.94,0-4.83-0.6-6.19-1.46c-1.56-1.02-2.53-2.58-2.53-4.87c0-1.49,0.32-3.04,1.05-4.66l1.07,0.37c-0.25,0.77-0.4,1.48-0.4,2.11
		c0,2.67,2.23,4.85,7.84,4.85c3.02,0,7.08-0.84,8.14-1.39c-0.32-0.9-0.91-2.13-1.74-3.62c0.53-0.95,1.11-1.92,1.71-2.74L62.94,24.73
		z M52.13,20.42c0.88,0.74,1.71,1.49,2.48,2.27c-0.53,0.76-1.11,1.48-1.74,2.2c-0.84-0.83-1.71-1.58-2.55-2.27L52.13,20.42z
		 M53.54,15.94c0.88,0.74,1.71,1.49,2.48,2.27c-0.53,0.76-1.11,1.48-1.74,2.2c-0.84-0.83-1.71-1.58-2.55-2.27L53.54,15.94z
		 M56.38,20.2c0.88,0.74,1.71,1.49,2.48,2.27c-0.53,0.76-1.11,1.48-1.74,2.2c-0.84-0.83-1.71-1.58-2.55-2.27L56.38,20.2z"/>
</g>
<path class="st3" d="M85.2,50.1l-0.3-0.8H57.7l-9.2,12.3l-9-12.2c0,0-21.8,0-27,0c-0.1,0.2-0.2,0.5-0.3,0.7
	c2.5,2.4,9.6,10.5,9.6,10.5s0,9.7-0.1,15.7c0,1.8,0.5,2.8,2.4,3.2c7.6,1.8,15.1,3.8,22.6,5.8c1.2,0.3,2.5,0.3,3.7-0.1
	c3.6-0.9,14.5-3.7,14.5-3.7c2.7-0.7,5.5-1.4,8.2-2.1c1.6-0.4,2.4-1.2,2.3-3c-0.1-4.8,0-16,0-16L85.2,50.1z"/>
<path class="st4" d="M75.5,76.5c0.1,1.8-0.7,2.6-2.3,3c-2.7,0.7-5.5,1.4-8.2,2.1c0,0-0.4,0.1-1.2,0.3c-2.9,0.8-10.4,2.7-13.3,3.4
	c-1.3,0.3-2.6,0.3-3.8,0.1c-7.5-1.9-15-3.9-22.6-5.8c-1.8-0.4-2.4-1.4-2.4-3.2c0.1-6.1,0.1-15.7,0.1-15.7l26.9,2.2l0.6-0.1l26.3-2.2
	C75.5,60.6,75.4,71.8,75.5,76.5z"/>
<path class="st5" d="M75.5,76.5c0.1,1.8-0.7,2.6-2.3,3c-2.7,0.7-5.5,1.4-8.2,2.1c0,0-0.4,0.1-1.2,0.3L63,81.7l-13.8-19l26.3-2.1
	C75.5,60.6,75.4,71.8,75.5,76.5z"/>
<polygon class="st6" points="49.2,62.7 63.3,82.1 59,83.1 46.7,66.8 46.7,62.6 "/>
</svg>
