<?xml version="1.0" encoding="utf-8"?>
<!-- Generator: Adobe Illustrator 23.1.1, SVG Export Plug-In . SVG Version: 6.00 Build 0)  -->
<svg version="1.1" id="Layer_1" xmlns="http://www.w3.org/2000/svg" xmlns:xlink="http://www.w3.org/1999/xlink" x="0px" y="0px"
	 viewBox="0 0 100 100" style="enable-background:new 0 0 100 100;" xml:space="preserve">
<style type="text/css">
	.st0{fill:#FFFFFF;fill-opacity:0;}
	.st1{enable-background:new    ;}
	.st2{fill:#6A6B6A;}
	.st3{fill:#7F7F7F;}
	.st4{fill:#B4B4B5;}
	.st5{fill:#9D9E9E;}
	.st6{fill:#CCCCCC;}
</style>
<rect x="9.5" y="9.5" class="st0" width="81" height="81"/>
<g class="st1">
	<path class="st2" d="M38.91,36.61c0.18-1.25,0.23-2.55,0.23-4.24c0-3.8-0.18-7.58-0.6-11.43c0.7-0.84,1.37-1.58,2.04-2.23l0.3,0.16
		c0.35,3.8,0.4,7.35,0.4,10.76c0,2.76-0.16,4.61-0.54,5.2c-0.37,0.67-0.84,1.35-1.44,2.06L38.91,36.61z"/>
	<path class="st2" d="M56.83,18.45c0,1.16,0.67,2.58,1.93,4.69l-1.58,1.2c0.09,1.88,0.12,3.85,0.12,5.92c0,2.36-0.26,4.18-0.84,5.92
		c-1.3,2.27-3.97,3.39-6.12,3.39c-2.95,0-4.83-2.2-4.83-5.43c0-1.88,0.49-3.66,1.32-5.29l0.93,0.46c-0.42,1.07-0.7,2.06-0.7,2.94
		c0,2.02,1.3,3.59,3.71,3.59c0.9,0,1.85-0.26,2.74-0.72c0.98-0.49,1.62-0.97,1.95-1.46c0.04-0.44,0.04-1.02,0.04-1.74
		c0-1.81-0.25-5.55-0.49-8.42c-0.07-0.88-0.23-1.55-0.23-2.23c0-0.65,0.14-1.21,0.47-1.63s0.76-0.86,1.37-1.32L56.83,18.45z"/>
</g>
<path class="st3" d="M85.2,50.1l-0.3-0.8H57.7l-9.2,12.3l-9-12.2c0,0-21.8,0-27,0c-0.1,0.2-0.2,0.5-0.3,0.7
	c2.5,2.4,9.6,10.5,9.6,10.5s0,9.7-0.1,15.7c0,1.8,0.5,2.8,2.4,3.2c7.6,1.8,15.1,3.8,22.6,5.8c1.2,0.3,2.5,0.3,3.7-0.1
	c3.6-0.9,14.5-3.7,14.5-3.7c2.7-0.7,5.5-1.4,8.2-2.1c1.6-0.4,2.4-1.2,2.3-3c-0.1-4.8,0-16,0-16L85.2,50.1z"/>
<path class="st4" d="M75.5,76.5c0.1,1.8-0.7,2.6-2.3,3c-2.7,0.7-5.5,1.4-8.2,2.1c0,0-0.4,0.1-1.2,0.3c-2.9,0.8-10.4,2.7-13.3,3.4
	c-1.3,0.3-2.6,0.3-3.8,0.1c-7.5-1.9-15-3.9-22.6-5.8c-1.8-0.4-2.4-1.4-2.4-3.2c0.1-6.1,0.1-15.7,0.1-15.7l26.9,2.2l0.6-0.1l26.3-2.2
	C75.5,60.6,75.4,71.8,75.5,76.5z"/>
<path class="st5" d="M75.5,76.5c0.1,1.8-0.7,2.6-2.3,3c-2.7,0.7-5.5,1.4-8.2,2.1c0,0-0.4,0.1-1.2,0.3L63,81.7l-13.8-19l26.3-2.1
	C75.5,60.6,75.4,71.8,75.5,76.5z"/>
<polygon class="st6" points="49.2,62.7 63.3,82.1 59,83.1 46.7,66.8 46.7,62.6 "/>
</svg>
