<?xml version="1.0" encoding="utf-8"?>
<!-- Generator: Adobe Illustrator 23.1.1, SVG Export Plug-In . SVG Version: 6.00 Build 0)  -->
<svg version="1.1" id="Layer_1" xmlns="http://www.w3.org/2000/svg" xmlns:xlink="http://www.w3.org/1999/xlink" x="0px" y="0px"
	 viewBox="0 0 100 100" style="enable-background:new 0 0 100 100;" xml:space="preserve">
<style type="text/css">
	.st0{fill:#FFFFFF;fill-opacity:0;}
	.st1{enable-background:new    ;}
	.st2{fill:#6A6B6A;}
	.st3{fill:#7F7F7F;}
	.st4{fill:#B4B4B5;}
	.st5{fill:#9D9E9E;}
	.st6{fill:#CCCCCC;}
</style>
<rect x="9.5" y="9.5" class="st0" width="81" height="81"/>
<g class="st1">
	<path class="st2" d="M35.75,27.14c-1.44-0.42-2.58-0.65-3.32-0.65c-0.6,0-1.11,0.09-1.49,0.3l-0.9,2.41H29.7l-1.14-2.41
		c0.46-2.2,1.65-3.52,3.85-3.52c3.06,0,5.61,2.11,8.6,2.11h2l0.12,0.25l-1.27,2.3c-6.36,1.21-10.79,3.88-10.79,6.7
		c0,2.67,3.41,4.85,8.68,4.85c1.48,0,2.95-0.14,4.39-0.47l0.19,0.42c-1.39,1.27-2.6,2.23-3.67,2.92c-0.56,0.37-1.67,0.54-3.13,0.54
		c-5.5,0-8.28-2.72-8.28-7.24c0-4.03,2.94-7.15,6.49-8.46V27.14z"/>
	<path class="st2" d="M64.07,28.6c-2.99,0-4.64-1.05-4.64-3.36c0-1.37,0.49-2.58,1.39-3.55c0.84-0.91,1.79-1.49,2.79-1.49
		c2.39,0,3.94,4.06,3.94,7.8c0,1.25-0.3,2.71-0.95,4.06c-0.46,0.35-1.37,0.72-2.58,1.05c-2.43,0.65-5.08,1.05-8.21,1.05
		c-5.82,0-8.51-2.78-8.51-6.19c0-2,0.44-3.57,1.05-4.96l1.12,0.42c-0.32,0.84-0.44,1.58-0.44,2.23c0,2.78,2.55,4.82,7.84,4.82
		c2.83,0,5.5-0.37,8.05-1.02c0.7-0.19,1-0.46,1-0.93C65.32,28.6,64.69,28.6,64.07,28.6z M62.19,14.77c0.95,0.63,1.79,1.35,2.57,2.09
		c-0.39,0.88-0.93,1.63-1.62,2.21c-0.74-0.63-1.63-1.32-2.6-1.99L62.19,14.77z M62.83,22.96c-1.2,0-1.9,0.65-1.9,1.18
		c0,0.98,1.85,1.67,4.61,1.74C64.88,24.03,63.99,22.96,62.83,22.96z"/>
</g>
<path class="st3" d="M85.2,50.1l-0.3-0.8H57.7l-9.2,12.3l-9-12.2c0,0-21.8,0-27,0c-0.1,0.2-0.2,0.5-0.3,0.7
	c2.5,2.4,9.6,10.5,9.6,10.5s0,9.7-0.1,15.7c0,1.8,0.5,2.8,2.4,3.2c7.6,1.8,15.1,3.8,22.6,5.8c1.2,0.3,2.5,0.3,3.7-0.1
	c3.6-0.9,14.5-3.7,14.5-3.7c2.7-0.7,5.5-1.4,8.2-2.1c1.6-0.4,2.4-1.2,2.3-3c-0.1-4.8,0-16,0-16L85.2,50.1z"/>
<path class="st4" d="M75.5,76.5c0.1,1.8-0.7,2.6-2.3,3c-2.7,0.7-5.5,1.4-8.2,2.1c0,0-0.4,0.1-1.2,0.3c-2.9,0.8-10.4,2.7-13.3,3.4
	c-1.3,0.3-2.6,0.3-3.8,0.1c-7.5-1.9-15-3.9-22.6-5.8c-1.8-0.4-2.4-1.4-2.4-3.2c0.1-6.1,0.1-15.7,0.1-15.7l26.9,2.2l0.6-0.1l26.3-2.2
	C75.5,60.6,75.4,71.8,75.5,76.5z"/>
<path class="st5" d="M75.5,76.5c0.1,1.8-0.7,2.6-2.3,3c-2.7,0.7-5.5,1.4-8.2,2.1c0,0-0.4,0.1-1.2,0.3L63,81.7l-13.8-19l26.3-2.1
	C75.5,60.6,75.4,71.8,75.5,76.5z"/>
<polygon class="st6" points="49.2,62.7 63.3,82.1 59,83.1 46.7,66.8 46.7,62.6 "/>
</svg>
