<?xml version="1.0" encoding="utf-8"?>
<!-- Generator: Adobe Illustrator 23.1.1, SVG Export Plug-In . SVG Version: 6.00 Build 0)  -->
<svg version="1.1" id="Layer_1" xmlns="http://www.w3.org/2000/svg" xmlns:xlink="http://www.w3.org/1999/xlink" x="0px" y="0px"
	 viewBox="0 0 100 100" style="enable-background:new 0 0 100 100;" xml:space="preserve">
<style type="text/css">
	.st0{fill:#FFFFFF;fill-opacity:0;}
	.st1{enable-background:new    ;}
	.st2{fill:#6A6B6A;}
	.st3{fill:#7F7F7F;}
	.st4{fill:#B4B4B5;}
	.st5{fill:#9D9E9E;}
	.st6{fill:#CCCCCC;}
</style>
<rect x="9.5" y="9.5" class="st0" width="81" height="81"/>
<g class="st1">
	<path class="st2" d="M38.32,24.93c-0.83-0.51-1.65-0.7-2.44-0.7c-1.78,0-3.53,1.2-3.53,1.56c0,0.56,0.6,1.18,1.32,1.79
		c0.7,0.53,1.35,0.84,1.78,0.84c0.47,0,2.39-1,5.68-2.23l0.18,0.14c-0.26,1.07-0.54,2.16-0.91,3.2c-5.54,1.88-8.56,4.08-8.56,5.89
		c0,2.21,2.99,4.15,8.16,4.15c1.35,0,2.67-0.11,3.92-0.33l0.26,0.4c-1.48,1.3-2.87,2.37-4.2,3.11C39.31,42.96,38.58,43,37.85,43
		c-4.34,0-7.77-2-7.77-6.43c0-1.88,0.76-3.81,2.5-5.84c-1.32-0.95-2.25-2.07-2.25-3.55c0-0.88,0.25-1.85,0.91-3.04
		c0.83-1.44,2.25-2.5,3.76-2.5c1.49,0,2.76,0.95,3.83,2.71L38.32,24.93z M32.91,15.93c0.93,0.63,1.76,1.32,2.51,2.06
		c-0.39,0.86-0.91,1.58-1.58,2.16c-0.72-0.63-1.6-1.28-2.55-1.95L32.91,15.93z"/>
	<path class="st2" d="M58.95,30.34c2.27-3.8,4.99-6.38,7.61-6.38c2.14,0,3.78,1.67,3.78,4.24c0,1.3-0.53,2.87-1.34,3.78
		c-1.39,1.56-3.62,2.43-7.1,2.43c-1.02,0-2.06-0.09-3.08-0.21c-0.46,1.86-1.09,3.13-1.93,3.92c-1.39,1.32-3.02,2-4.87,2
		c-2.67,0-5.13-1.92-5.13-5.94c0-2.04,0.6-3.74,1.41-5.2l0.97,0.44c-0.47,1.11-0.79,2.18-0.79,3.2c0,0.98,0.28,1.92,0.95,2.71
		c0.86,0.9,1.86,1.28,2.92,1.28c1.14,0,2.21-0.26,3.11-0.84c0.98-0.63,1.56-1.27,1.88-1.81c-0.25-1.92-0.91-3.64-1.86-5.31
		c0.62-1.02,1.23-1.92,1.85-2.69l0.21,0.07c0.58,1.25,1.02,2.69,1.35,4.32H58.95z M61.74,18.04c0.93,0.63,1.76,1.32,2.51,2.06
		c-0.39,0.86-0.91,1.58-1.58,2.16c-0.72-0.63-1.6-1.28-2.55-1.95L61.74,18.04z M62.73,30.88c2.09,0,4.39-0.44,5.73-1.51
		c-0.35-1.55-1.37-2.36-2.55-2.36c-1.88,0-3.83,1.35-5.62,3.69C61.02,30.81,61.85,30.88,62.73,30.88z"/>
</g>
<path class="st3" d="M85.2,50.1l-0.3-0.8H57.7l-9.2,12.3l-9-12.2c0,0-21.8,0-27,0c-0.1,0.2-0.2,0.5-0.3,0.7
	c2.5,2.4,9.6,10.5,9.6,10.5s0,9.7-0.1,15.7c0,1.8,0.5,2.8,2.4,3.2c7.6,1.8,15.1,3.8,22.6,5.8c1.2,0.3,2.5,0.3,3.7-0.1
	c3.6-0.9,14.5-3.7,14.5-3.7c2.7-0.7,5.5-1.4,8.2-2.1c1.6-0.4,2.4-1.2,2.3-3c-0.1-4.8,0-16,0-16L85.2,50.1z"/>
<path class="st4" d="M75.5,76.5c0.1,1.8-0.7,2.6-2.3,3c-2.7,0.7-5.5,1.4-8.2,2.1c0,0-0.4,0.1-1.2,0.3c-2.9,0.8-10.4,2.7-13.3,3.4
	c-1.3,0.3-2.6,0.3-3.8,0.1c-7.5-1.9-15-3.9-22.6-5.8c-1.8-0.4-2.4-1.4-2.4-3.2c0.1-6.1,0.1-15.7,0.1-15.7l26.9,2.2l0.6-0.1l26.3-2.2
	C75.5,60.6,75.4,71.8,75.5,76.5z"/>
<path class="st5" d="M75.5,76.5c0.1,1.8-0.7,2.6-2.3,3c-2.7,0.7-5.5,1.4-8.2,2.1c0,0-0.4,0.1-1.2,0.3L63,81.7l-13.8-19l26.3-2.1
	C75.5,60.6,75.4,71.8,75.5,76.5z"/>
<polygon class="st6" points="49.2,62.7 63.3,82.1 59,83.1 46.7,66.8 46.7,62.6 "/>
</svg>
