<?xml version="1.0" encoding="utf-8"?>
<!-- Generator: Adobe Illustrator 23.1.1, SVG Export Plug-In . SVG Version: 6.00 Build 0)  -->
<svg version="1.1" id="Layer_1" xmlns="http://www.w3.org/2000/svg" xmlns:xlink="http://www.w3.org/1999/xlink" x="0px" y="0px"
	 viewBox="0 0 100 100" style="enable-background:new 0 0 100 100;" xml:space="preserve">
<style type="text/css">
	.st0{enable-background:new    ;}
	.st1{fill:#6A6B6A;}
	.st2{fill:none;stroke:#7F7F7F;stroke-width:7;stroke-linecap:round;stroke-miterlimit:10;}
	.st3{fill:#9D9E9E;}
</style>
<g class="st0">
	<path class="st1" d="M39.85,52.03c0.16-1.14,0.21-2.34,0.21-3.88c0-3.48-0.16-6.95-0.55-10.47c0.64-0.77,1.26-1.45,1.87-2.05
		l0.27,0.15c0.32,3.48,0.37,6.73,0.37,9.86c0,2.53-0.15,4.22-0.5,4.77c-0.34,0.61-0.77,1.24-1.32,1.88L39.85,52.03z"/>
	<path class="st1" d="M58.62,35.38c0,1.06,0.61,2.37,1.77,4.3l-1.45,1.1c0.08,1.72,0.11,3.53,0.11,5.43c0,2.16-0.24,3.83-0.77,5.43
		c-1.19,2.08-3.64,3.11-5.61,3.11c-2.71,0-4.43-2.01-4.43-4.98c0-1.72,0.45-3.35,1.21-4.85l0.85,0.42
		c-0.39,0.98-0.64,1.89-0.64,2.69c0,1.85,1.19,3.29,3.4,3.29c0.82,0,1.69-0.24,2.51-0.66c0.9-0.45,1.48-0.89,1.79-1.34
		c0.03-0.4,0.03-0.93,0.03-1.6c0-1.66-0.23-5.09-0.45-7.72c-0.06-0.81-0.21-1.42-0.21-2.05c0-0.6,0.13-1.11,0.43-1.5
		c0.31-0.39,0.69-0.79,1.26-1.21L58.62,35.38z"/>
</g>
<line class="st2" x1="25.2" y1="66.6" x2="8.7" y2="83.3"/>
<path class="st3" d="M49.9,18.1c12.3,0,22.8,8.4,25.8,19.7c0.6,2.2,0.9,4.6,0.9,7.1c0,5.7-1.7,11.1-4.8,15.3
	c-2.7,4-6.6,7.3-11.3,9.2c-2.4,1.1-5,1.7-7.8,2c-1.1,0.1-1.9,0.2-3,0.2c-4.6,0-8.8-1.2-12.6-3.2c-3-1.6-5.6-3.7-7.8-6.2
	c-4-4.7-6.4-10.8-6.4-17.4C23.1,30.1,35.1,18.1,49.9,18.1 M49.9,13.7c-17.3,0-31.3,14-31.3,31.3c0,7.5,2.6,14.6,7.5,20.3
	c2.5,2.9,5.6,5.4,9.1,7.3c4.5,2.4,9.6,3.7,14.7,3.7c1.2,0,2.3-0.1,3.5-0.2c3.2-0.3,6.2-1.2,9.1-2.4c5.3-2.3,9.8-6,13.1-10.7
	c3.7-5.3,5.7-11.5,5.7-17.9c0-2.7-0.3-5.5-1.1-8.2C76.3,23.2,63.9,13.7,49.9,13.7L49.9,13.7z"/>
<path class="st3" d="M23.3,60.6l-3,2.9c-0.4,0.4-0.4,1,0,1.4l7.2,7.1c0.4,0.4,1,0.4,1.4,0l2.9-3.1L23.3,60.6z"/>
</svg>
