<?xml version="1.0" encoding="utf-8"?>
<!-- Generator: Adobe Illustrator 23.1.1, SVG Export Plug-In . SVG Version: 6.00 Build 0)  -->
<svg version="1.1" id="Layer_1" xmlns="http://www.w3.org/2000/svg" xmlns:xlink="http://www.w3.org/1999/xlink" x="0px" y="0px"
	 viewBox="0 0 100 100" style="enable-background:new 0 0 100 100;" xml:space="preserve">
<style type="text/css">
	.st0{enable-background:new    ;}
	.st1{fill:#6A6B6A;}
	.st2{fill:none;stroke:#7F7F7F;stroke-width:7;stroke-linecap:round;stroke-miterlimit:10;}
	.st3{fill:#9D9E9E;}
</style>
<g class="st0">
	<path class="st1" d="M42.95,40.14c-0.76-0.47-1.51-0.64-2.24-0.64c-1.63,0-3.24,1.1-3.24,1.43c0,0.52,0.55,1.08,1.21,1.64
		c0.64,0.48,1.24,0.77,1.63,0.77c0.44,0,2.19-0.92,5.2-2.05l0.16,0.13c-0.24,0.98-0.5,1.98-0.84,2.93c-5.08,1.72-7.85,3.74-7.85,5.4
		c0,2.03,2.74,3.8,7.48,3.8c1.24,0,2.45-0.1,3.59-0.31l0.24,0.37c-1.35,1.19-2.63,2.17-3.85,2.85c-0.6,0.19-1.26,0.22-1.93,0.22
		c-3.98,0-7.12-1.84-7.12-5.9c0-1.72,0.69-3.5,2.29-5.35c-1.21-0.87-2.06-1.9-2.06-3.26c0-0.8,0.23-1.69,0.84-2.79
		c0.76-1.32,2.06-2.29,3.45-2.29c1.37,0,2.53,0.87,3.51,2.48L42.95,40.14z"/>
	<path class="st1" d="M60.88,46.84c-0.98,0-1.98-0.16-2.92-0.8c-0.73-0.58-1.19-1.4-1.19-2.63c0-2.98,2.24-5.01,3.9-5.01
		c2.46,0,3.83,4.59,3.83,7.25c0,1.4-0.23,2.54-0.64,3.48c-0.42,0.71-1.13,1.51-2.21,2.29c-1.63,1.16-3.43,1.87-5.49,1.87
		c-4.66,0-6.12-3.62-6.12-6.41c0-1.79,0.37-3.43,0.9-5.04l1.08,0.32c-0.31,1.03-0.48,2.01-0.48,2.95c0.02,3.54,2.4,4.9,4.96,4.9
		c1.42,0,2.85-0.4,4.25-1.19c0.98-0.55,1.8-1.14,2.35-1.79c0-0.16-0.03-0.29-0.1-0.42C62.22,46.76,61.51,46.84,60.88,46.84z
		 M57.48,33.46c0.77,0.63,1.42,1.27,1.93,1.9c-0.37,0.64-0.89,1.21-1.48,1.72c-0.64-0.63-1.31-1.21-1.98-1.8L57.48,33.46z
		 M60.01,41.21c-1.22,0-1.8,0.89-1.8,1.3c0,0.77,1.11,1.42,3.17,1.42c0.42,0,0.82-0.03,1.19-0.1C61.99,42.2,61.16,41.21,60.01,41.21
		z M61.01,33.29c0.77,0.63,1.42,1.27,1.93,1.9c-0.37,0.64-0.89,1.21-1.48,1.72c-0.64-0.63-1.3-1.21-1.98-1.8L61.01,33.29z"/>
</g>
<line class="st2" x1="25.2" y1="66.6" x2="8.7" y2="83.3"/>
<path class="st3" d="M49.9,18.1c12.3,0,22.8,8.4,25.8,19.7c0.6,2.2,0.9,4.6,0.9,7.1c0,5.7-1.7,11.1-4.8,15.3
	c-2.7,4-6.6,7.3-11.3,9.2c-2.4,1.1-5,1.7-7.8,2c-1.1,0.1-1.9,0.2-3,0.2c-4.6,0-8.8-1.2-12.6-3.2c-3-1.6-5.6-3.7-7.8-6.2
	c-4-4.7-6.4-10.8-6.4-17.4C23.1,30.1,35.1,18.1,49.9,18.1 M49.9,13.7c-17.3,0-31.3,14-31.3,31.3c0,7.5,2.6,14.6,7.5,20.3
	c2.5,2.9,5.6,5.4,9.1,7.3c4.5,2.4,9.6,3.7,14.7,3.7c1.2,0,2.3-0.1,3.5-0.2c3.2-0.3,6.2-1.2,9.1-2.4c5.3-2.3,9.8-6,13.1-10.7
	c3.7-5.3,5.7-11.5,5.7-17.9c0-2.7-0.3-5.5-1.1-8.2C76.3,23.2,63.9,13.7,49.9,13.7L49.9,13.7z"/>
<path class="st3" d="M23.3,60.6l-3,2.9c-0.4,0.4-0.4,1,0,1.4l7.2,7.1c0.4,0.4,1,0.4,1.4,0l2.9-3.1L23.3,60.6z"/>
</svg>
