<?xml version="1.0" encoding="utf-8"?>
<!-- Generator: Adobe Illustrator 23.1.1, SVG Export Plug-In . SVG Version: 6.00 Build 0)  -->
<svg version="1.1" id="Layer_1" xmlns="http://www.w3.org/2000/svg" xmlns:xlink="http://www.w3.org/1999/xlink" x="0px" y="0px"
	 viewBox="0 0 100 100" style="enable-background:new 0 0 100 100;" xml:space="preserve">
<style type="text/css">
	.st0{enable-background:new    ;}
	.st1{fill:#6A6B6A;}
	.st2{fill:none;stroke:#7F7F7F;stroke-width:7;stroke-linecap:round;stroke-miterlimit:10;}
	.st3{fill:#9D9E9E;}
</style>
<g class="st0">
	<path class="st1" d="M43.7,34.98c0,1.06,0.61,2.37,1.77,4.3l-1.45,1.1c0.08,1.37,0.1,2.72,0.1,4.09c0,2.18-0.5,4.01-1.5,5.49
		c-1.53,1.1-3.9,1.79-6.27,1.79c-3.75,0-5.35-1.9-5.35-5.17c0-1.32,0.34-2.66,0.93-4.03l1,0.39c-0.31,0.73-0.47,1.43-0.47,2.03
		c0,1.77,0.85,3.54,4.51,3.54c1.71,0,3.88-0.5,5.33-1.35c0.05-0.55,0.05-1.1,0.05-1.66c0-3.48-0.55-7.19-0.55-7.94
		c0-0.6,0.13-1.11,0.44-1.5s0.69-0.79,1.26-1.21L43.7,34.98z M38.73,40.41c-0.13-0.13-0.27-0.21-0.47-0.21
		c-0.37,0-0.87,0.32-1.4,0.92v0.03h1.18c1,0,1.53,0.4,1.53,1.34c0,0.19-0.05,0.52-0.18,0.97c-0.31,1.1-1.18,1.64-2.51,1.64
		c-0.23,0-0.5-0.02-0.82-0.08c-0.52-0.26-1-0.53-1.45-0.84l0.08-0.26c2.37-0.16,3.71-0.45,3.71-0.89c0-0.29-1.21-0.24-2.72-0.26
		c-0.03-0.18-0.03-0.31-0.03-0.48c0-1.19,0.47-2.17,1.26-2.88c0.6-0.52,1.11-0.85,1.51-0.85c0.5,0,0.68,0.34,0.68,0.84
		c0,0.34-0.08,0.64-0.19,0.98L38.73,40.41z"/>
	<path class="st1" d="M61.37,50.08c-0.58,0.82-1.37,1.43-2.93,1.43c-0.21,1.39-0.61,2.51-1.26,3.34c-1.13,1.4-2.95,2.3-4.9,2.3
		c-3.29,0-4.91-2.51-4.91-5.45c0-1.43,0.4-3.19,1.34-4.69l0.87,0.43c-0.55,1.19-0.76,2.1-0.76,2.68c0,1.06,0.19,2.03,1.14,2.84
		c0.79,0.6,1.68,0.92,2.69,0.92c1.22,0,2.24-0.4,3.14-1.02c0.76-0.52,1.32-1.05,1.42-1.58c0-1.06-0.79-2.53-1.76-4.08
		c0.56-0.98,1.1-1.89,1.63-2.61l0.16,0.03c0.35,0.81,0.73,1.66,1.11,2.64c0.23,0.53,0.55,0.93,1.16,0.93c0.31,0,0.64-0.13,0.98-0.37
		c0.61-0.43,0.73-1.55,0.98-2.4c0.43-0.31,0.87-0.53,1.27-0.76l0.11,0.1c-0.11,0.42-0.19,0.84-0.19,1.29c0,0.58,0.11,1.01,0.42,1.34
		c0.39,0.39,0.84,0.58,1.32,0.58c0.29,0,0.52-0.06,0.68-0.23c-0.02-0.58-0.21-1.61-0.53-2.96c0.6-0.68,1.18-1.3,1.77-1.85L66.54,43
		c0.21,1.16,0.35,2.32,0.35,3.51c0,1.16-0.32,2.11-0.93,3c-0.71,1.03-1.47,1.72-2.38,1.72c-0.63,0-1.32-0.26-2.13-1.16h-0.08V50.08z
		 M59.42,39.01c0.77,0.63,1.42,1.27,1.93,1.9c-0.37,0.64-0.89,1.21-1.48,1.72c-0.64-0.63-1.31-1.21-1.98-1.8L59.42,39.01z
		 M60.78,35.46c0.77,0.63,1.42,1.27,1.93,1.9c-0.37,0.64-0.89,1.21-1.48,1.72c-0.64-0.63-1.3-1.21-1.98-1.8L60.78,35.46z
		 M62.94,38.85c0.77,0.63,1.42,1.27,1.93,1.9c-0.37,0.64-0.89,1.21-1.48,1.72c-0.64-0.63-1.3-1.21-1.98-1.8L62.94,38.85z"/>
</g>
<line class="st2" x1="25.2" y1="66.6" x2="8.7" y2="83.3"/>
<path class="st3" d="M49.9,18.1c12.3,0,22.8,8.4,25.8,19.7c0.6,2.2,0.9,4.6,0.9,7.1c0,5.7-1.7,11.1-4.8,15.3
	c-2.7,4-6.6,7.3-11.3,9.2c-2.4,1.1-5,1.7-7.8,2c-1.1,0.1-1.9,0.2-3,0.2c-4.6,0-8.8-1.2-12.6-3.2c-3-1.6-5.6-3.7-7.8-6.2
	c-4-4.7-6.4-10.8-6.4-17.4C23.1,30.1,35.1,18.1,49.9,18.1 M49.9,13.7c-17.3,0-31.3,14-31.3,31.3c0,7.5,2.6,14.6,7.5,20.3
	c2.5,2.9,5.6,5.4,9.1,7.3c4.5,2.4,9.6,3.7,14.7,3.7c1.2,0,2.3-0.1,3.5-0.2c3.2-0.3,6.2-1.2,9.1-2.4c5.3-2.3,9.8-6,13.1-10.7
	c3.7-5.3,5.7-11.5,5.7-17.9c0-2.7-0.3-5.5-1.1-8.2C76.3,23.2,63.9,13.7,49.9,13.7L49.9,13.7z"/>
<path class="st3" d="M23.3,60.6l-3,2.9c-0.4,0.4-0.4,1,0,1.4l7.2,7.1c0.4,0.4,1,0.4,1.4,0l2.9-3.1L23.3,60.6z"/>
</svg>
