<?xml version="1.0" encoding="utf-8"?>
<!-- Generator: Adobe Illustrator 23.1.1, SVG Export Plug-In . SVG Version: 6.00 Build 0)  -->
<svg version="1.1" id="Layer_1" xmlns="http://www.w3.org/2000/svg" xmlns:xlink="http://www.w3.org/1999/xlink" x="0px" y="0px"
	 viewBox="0 0 100 100" style="enable-background:new 0 0 100 100;" xml:space="preserve">
<style type="text/css">
	.st0{enable-background:new    ;}
	.st1{fill:#6A6B6A;}
	.st2{fill:none;stroke:#7F7F7F;stroke-width:7;stroke-linecap:round;stroke-miterlimit:10;}
	.st3{fill:#9D9E9E;}
</style>
<g class="st0">
	<path class="st1" d="M46,41.03c1.4,2.3,1.97,3.71,1.97,5.03c0,0.76-0.06,1.18-0.06,1.48c0,1.55-0.29,2.98-1.03,4.27
		c-1.02,1.72-2.26,2.72-3.66,2.72c-1.24,0-2.95-0.52-4.42-1.4l0.31-0.85c0.48,0.13,1.02,0.19,1.61,0.19c1.32,0,2.69-0.76,3.92-1.95
		c1.1-1.1,1.77-2.21,1.77-2.72c0-0.58-0.61-1.71-2.16-4.03c0.45-0.97,0.97-1.9,1.45-2.74H46z M44.16,35.23
		c0.87,0.58,1.64,1.24,2.35,1.92c-0.35,0.81-0.85,1.5-1.48,2.03c-0.68-0.58-1.5-1.21-2.38-1.82L44.16,35.23z"/>
	<path class="st1" d="M59.34,45.85l-1.35,2.4c-1.16,0.1-2.24,0.31-3.27,0.58c-0.98,0.27-1.82,0.71-2.56,1.18l-0.26-0.42
		c0.29-0.6,0.63-1.13,1.02-1.63c-0.84-0.44-1.45-1.02-1.45-1.9c0-0.93,0.48-1.9,1.47-2.92c1.06-0.95,2.14-1.63,3.27-1.63
		c0.93,0,1.72,0.48,1.72,1.6c0,0.53-0.26,1.14-0.77,1.76l-0.32-0.03c-0.21-0.61-0.55-1.11-1.43-1.11c-0.74,0-1.8,0.47-1.8,0.98
		c0,0.63,0.9,1.24,2.56,1.24c0.76,0,1.84-0.08,3.09-0.27L59.34,45.85z"/>
</g>
<line class="st2" x1="25.2" y1="66.6" x2="8.7" y2="83.3"/>
<path class="st3" d="M49.9,18.1c12.3,0,22.8,8.4,25.8,19.7c0.6,2.2,0.9,4.6,0.9,7.1c0,5.7-1.7,11.1-4.8,15.3
	c-2.7,4-6.6,7.3-11.3,9.2c-2.4,1.1-5,1.7-7.8,2c-1.1,0.1-1.9,0.2-3,0.2c-4.6,0-8.8-1.2-12.6-3.2c-3-1.6-5.6-3.7-7.8-6.2
	c-4-4.7-6.4-10.8-6.4-17.4C23.1,30.1,35.1,18.1,49.9,18.1 M49.9,13.7c-17.3,0-31.3,14-31.3,31.3c0,7.5,2.6,14.6,7.5,20.3
	c2.5,2.9,5.6,5.4,9.1,7.3c4.5,2.4,9.6,3.7,14.7,3.7c1.2,0,2.3-0.1,3.5-0.2c3.2-0.3,6.2-1.2,9.1-2.4c5.3-2.3,9.8-6,13.1-10.7
	c3.7-5.3,5.7-11.5,5.7-17.9c0-2.7-0.3-5.5-1.1-8.2C76.3,23.2,63.9,13.7,49.9,13.7L49.9,13.7z"/>
<path class="st3" d="M23.3,60.6l-3,2.9c-0.4,0.4-0.4,1,0,1.4l7.2,7.1c0.4,0.4,1,0.4,1.4,0l2.9-3.1L23.3,60.6z"/>
</svg>
