<?xml version="1.0" encoding="utf-8"?>
<!-- Generator: Adobe Illustrator 23.1.1, SVG Export Plug-In . SVG Version: 6.00 Build 0)  -->
<svg version="1.1" id="Layer_1" xmlns="http://www.w3.org/2000/svg" xmlns:xlink="http://www.w3.org/1999/xlink" x="0px" y="0px"
	 viewBox="0 0 100 100" style="enable-background:new 0 0 100 100;" xml:space="preserve">
<style type="text/css">
	.st0{enable-background:new    ;}
	.st1{fill:#6A6B6A;}
	.st2{fill:none;stroke:#7F7F7F;stroke-width:7;stroke-linecap:round;stroke-miterlimit:10;}
	.st3{fill:#9D9E9E;}
</style>
<g class="st0">
	<path class="st1" d="M35.58,41.45c0.74-2.14,1.68-3.54,3.37-3.54c1.47,0,2.67,1,3.72,2.71c0.61,1.03,1.02,2.09,1.02,3
		c0,0.71-0.39,1.64-1,2.71c-2.11-0.26-3.42-0.39-4.69-0.39c-0.89,0-1.64,0.21-2.06,0.64c0.24,2.74,2.08,7.52,2.08,8.8
		c0,0.69-0.18,1.68-0.53,3.01l-0.37-0.03c-0.48-3.29-2.84-8.1-2.84-10.62c0-0.58,0.13-1.27,0.4-2.11c0.21-0.63,0.58-1.34,1.18-2.06
		L35.58,41.45z M37.03,42.9c0.47-0.18,0.98-0.26,1.55-0.26c0.77,0,1.74,0.11,2.77,0.29l0.03-0.11c-1-1.34-2.06-2.09-3.21-2.09
		c-0.32,0-0.61,0.05-0.84,0.14v0.23c0,0.27-0.02,0.69-0.08,1.11l-0.27,0.64L37.03,42.9z"/>
	<path class="st1" d="M60.21,46.22c-0.58,0.82-1.37,1.43-2.93,1.43c-0.21,1.39-0.61,2.51-1.26,3.34c-1.13,1.4-2.95,2.3-4.9,2.3
		c-3.29,0-4.92-2.51-4.92-5.45c0-1.43,0.4-3.19,1.34-4.69l0.87,0.43c-0.55,1.19-0.76,2.1-0.76,2.68c0,1.06,0.19,2.03,1.14,2.84
		c0.79,0.6,1.68,0.92,2.69,0.92c1.22,0,2.24-0.4,3.14-1.02c0.76-0.52,1.32-1.05,1.42-1.58c0-1.06-0.79-2.53-1.76-4.08
		c0.56-0.98,1.1-1.89,1.63-2.61l0.16,0.03c0.35,0.81,0.72,1.66,1.11,2.64c0.23,0.53,0.55,0.93,1.16,0.93c0.31,0,0.64-0.13,0.98-0.37
		c0.61-0.43,0.72-1.55,0.98-2.4c0.44-0.31,0.87-0.53,1.27-0.76l0.11,0.1c-0.11,0.42-0.19,0.84-0.19,1.29c0,0.58,0.11,1.01,0.42,1.34
		c0.39,0.39,0.84,0.58,1.32,0.58c0.29,0,0.52-0.06,0.68-0.23c-0.02-0.58-0.21-1.61-0.53-2.96c0.6-0.68,1.18-1.3,1.77-1.85l0.21,0.06
		c0.21,1.16,0.35,2.32,0.35,3.51c0,1.16-0.32,2.11-0.93,3c-0.71,1.03-1.47,1.72-2.38,1.72c-0.63,0-1.32-0.26-2.13-1.16H60.21z"/>
</g>
<line class="st2" x1="25.2" y1="66.6" x2="8.7" y2="83.3"/>
<path class="st3" d="M49.9,18.1c12.3,0,22.8,8.4,25.8,19.7c0.6,2.2,0.9,4.6,0.9,7.1c0,5.7-1.7,11.1-4.8,15.3
	c-2.7,4-6.6,7.3-11.3,9.2c-2.4,1.1-5,1.7-7.8,2c-1.1,0.1-1.9,0.2-3,0.2c-4.6,0-8.8-1.2-12.6-3.2c-3-1.6-5.6-3.7-7.8-6.2
	c-4-4.7-6.4-10.8-6.4-17.4C23.1,30.1,35.1,18.1,49.9,18.1 M49.9,13.7c-17.3,0-31.3,14-31.3,31.3c0,7.5,2.6,14.6,7.5,20.3
	c2.5,2.9,5.6,5.4,9.1,7.3c4.5,2.4,9.6,3.7,14.7,3.7c1.2,0,2.3-0.1,3.5-0.2c3.2-0.3,6.2-1.2,9.1-2.4c5.3-2.3,9.8-6,13.1-10.7
	c3.7-5.3,5.7-11.5,5.7-17.9c0-2.7-0.3-5.5-1.1-8.2C76.3,23.2,63.9,13.7,49.9,13.7L49.9,13.7z"/>
<path class="st3" d="M23.3,60.6l-3,2.9c-0.4,0.4-0.4,1,0,1.4l7.2,7.1c0.4,0.4,1,0.4,1.4,0l2.9-3.1L23.3,60.6z"/>
</svg>
