<?xml version="1.0" encoding="utf-8"?>
<!-- Generator: Adobe Illustrator 23.1.1, SVG Export Plug-In . SVG Version: 6.00 Build 0)  -->
<svg version="1.1" id="Layer_1" xmlns="http://www.w3.org/2000/svg" xmlns:xlink="http://www.w3.org/1999/xlink" x="0px" y="0px"
	 viewBox="0 0 100 100" style="enable-background:new 0 0 100 100;" xml:space="preserve">
<style type="text/css">
	.st0{enable-background:new    ;}
	.st1{fill:#6A6B6A;}
	.st2{fill:none;stroke:#7F7F7F;stroke-width:7;stroke-linecap:round;stroke-miterlimit:10;}
	.st3{fill:#9D9E9E;}
</style>
<g class="st0">
	<path class="st1" d="M40.91,47.16c2.14-2.48,4.32-4.11,6.49-4.11c2.32,0,3.69,1.84,3.69,3.98c0,0.9-0.52,2.59-1.31,3.51
		c-1.53,1.37-4.85,2.03-8.43,2.03c-0.81,0-1.6-0.02-2.32-0.1c-0.48,0.58-0.98,1.21-1.5,1.97l-0.27-0.32l0.31-1.8l-0.81-0.1
		c-1-1.06-1.95-2.14-2.85-3.24l0.1-0.19c1.76,0.26,3.37,0.44,4.91,0.56l0.5-0.71c0.16-1.06,0.19-2.35,0.19-3.92
		c0-1.61-0.1-3.25-0.24-5.17c-0.06-0.72-0.24-1.47-0.24-2.19c0-0.79,0.39-1.4,1.64-2.42l0.19,0.11c0,1.02,0.37,2.13,1.79,4.35
		l-1.4,1.06c0.03,1.32,0.06,2.55,0.06,3.27c0,1.22-0.18,2.35-0.6,3.38L40.91,47.16z M49.24,47.82c-0.23-0.82-1.22-1.84-2.59-1.84
		c-1.68,0-3.63,1.1-5.95,3.42C44.96,49.4,47.91,48.88,49.24,47.82z"/>
	<path class="st1" d="M55.77,47.53c0,1.5,0.81,2.05,2.34,2.05c1.01,0,2.17-0.23,3.5-0.9c-0.48-1.84-2.01-3.33-4.25-4.58
		c-0.55-0.31-0.89-0.58-0.89-0.95c0-0.53,0.43-1.43,1.03-2.48h0.11c1.45,0.92,2.85,2,4.06,3.46c0.98,1.18,1.48,2.53,1.48,4.03
		c0,1.06-0.29,2.11-0.81,3.03c-1.27,1-2.75,1.59-4.51,1.59c-1.98,0-3.19-1.08-3.19-3.5c0-0.45,0.02-1.05,0.1-1.76h1.03V47.53z
		 M56.92,35.52c0.85,0.58,1.61,1.21,2.3,1.89c-0.35,0.79-0.84,1.45-1.45,1.98c-0.66-0.58-1.47-1.18-2.34-1.79L56.92,35.52z"/>
</g>
<line class="st2" x1="25.2" y1="66.6" x2="8.7" y2="83.3"/>
<path class="st3" d="M49.9,18.1c12.3,0,22.8,8.4,25.8,19.7c0.6,2.2,0.9,4.6,0.9,7.1c0,5.7-1.7,11.1-4.8,15.3
	c-2.7,4-6.6,7.3-11.3,9.2c-2.4,1.1-5,1.7-7.8,2c-1.1,0.1-1.9,0.2-3,0.2c-4.6,0-8.8-1.2-12.6-3.2c-3-1.6-5.6-3.7-7.8-6.2
	c-4-4.7-6.4-10.8-6.4-17.4C23.1,30.1,35.1,18.1,49.9,18.1 M49.9,13.7c-17.3,0-31.3,14-31.3,31.3c0,7.5,2.6,14.6,7.5,20.3
	c2.5,2.9,5.6,5.4,9.1,7.3c4.5,2.4,9.6,3.7,14.7,3.7c1.2,0,2.3-0.1,3.5-0.2c3.2-0.3,6.2-1.2,9.1-2.4c5.3-2.3,9.8-6,13.1-10.7
	c3.7-5.3,5.7-11.5,5.7-17.9c0-2.7-0.3-5.5-1.1-8.2C76.3,23.2,63.9,13.7,49.9,13.7L49.9,13.7z"/>
<path class="st3" d="M23.3,60.6l-3,2.9c-0.4,0.4-0.4,1,0,1.4l7.2,7.1c0.4,0.4,1,0.4,1.4,0l2.9-3.1L23.3,60.6z"/>
</svg>
