<?xml version="1.0" encoding="utf-8"?>
<!-- Generator: Adobe Illustrator 23.1.1, SVG Export Plug-In . SVG Version: 6.00 Build 0)  -->
<svg version="1.1" id="Layer_1" xmlns="http://www.w3.org/2000/svg" xmlns:xlink="http://www.w3.org/1999/xlink" x="0px" y="0px"
	 viewBox="0 0 100 100" style="enable-background:new 0 0 100 100;" xml:space="preserve">
<style type="text/css">
	.st0{enable-background:new    ;}
	.st1{fill:#6A6B6A;}
	.st2{fill:none;stroke:#7F7F7F;stroke-width:7;stroke-linecap:round;stroke-miterlimit:10;}
	.st3{fill:#9D9E9E;}
</style>
<g class="st0">
	<path class="st1" d="M44.26,48.17c-2.48,0-3.72-1.43-3.72-3.26c0-1.37,0.42-2.54,1.27-3.56c0.85-0.9,1.76-1.48,2.71-1.48
		c1.79,0,3.35,2.69,3.35,6.49c0,2.35-0.66,4.09-1.68,5.59c-1.4,1.84-2.63,2.43-3.77,2.43c-1.55,0-3.17-0.69-4.8-1.8l0.34-0.89
		c0.58,0.23,1.19,0.37,1.87,0.37c1.34,0,2.69-0.55,3.98-1.5c1.05-0.77,1.82-1.66,2.32-2.61C45.63,48.11,44.94,48.17,44.26,48.17z
		 M43.76,42.57c-1.1,0-1.79,0.63-1.79,1.16c0,0.74,1.24,1.51,2.96,1.51c0.52,0,0.95-0.03,1.34-0.1
		C45.87,43.69,44.74,42.57,43.76,42.57z"/>
	<path class="st1" d="M56.67,48.17c-2.48,0-3.72-1.43-3.72-3.26c0-1.37,0.42-2.54,1.27-3.56c0.85-0.9,1.76-1.48,2.71-1.48
		c1.79,0,3.35,2.69,3.35,6.49c0,2.35-0.66,4.09-1.68,5.59c-1.4,1.84-2.63,2.43-3.77,2.43c-1.55,0-3.17-0.69-4.8-1.8l0.34-0.89
		c0.58,0.23,1.19,0.37,1.87,0.37c1.34,0,2.69-0.55,3.98-1.5c1.05-0.77,1.82-1.66,2.32-2.61C58.04,48.11,57.35,48.17,56.67,48.17z
		 M56.25,35.7l-0.43-0.48c-0.13-0.16-0.32-0.23-0.55-0.23c-0.64,0.02-1.08,0.32-1.08,0.56c0,0.42,0.74,0.85,2.11,0.85
		c0.6,0,1.06-0.02,1.63-0.05l0.06,0.15c-0.18,0.43-0.4,0.87-0.66,1.3c-1.76,0.23-3.14,0.6-4.03,1.16l-0.19-0.19
		c0.19-0.42,0.4-0.82,0.63-1.21c-0.63-0.27-0.98-0.68-0.98-1.29c0-0.5,0.34-1.19,1.03-1.82c0.61-0.53,1.3-0.85,2-0.85
		c0.69,0,1.14,0.35,1.14,0.9c0,0.35-0.16,0.74-0.47,1.19H56.25z M56.17,42.57c-1.1,0-1.79,0.63-1.79,1.16
		c0,0.74,1.24,1.51,2.96,1.51c0.52,0,0.95-0.03,1.34-0.1C58.28,43.69,57.15,42.57,56.17,42.57z"/>
</g>
<line class="st2" x1="25.2" y1="66.6" x2="8.7" y2="83.3"/>
<path class="st3" d="M49.9,18.1c12.3,0,22.8,8.4,25.8,19.7c0.6,2.2,0.9,4.6,0.9,7.1c0,5.7-1.7,11.1-4.8,15.3
	c-2.7,4-6.6,7.3-11.3,9.2c-2.4,1.1-5,1.7-7.8,2c-1.1,0.1-1.9,0.2-3,0.2c-4.6,0-8.8-1.2-12.6-3.2c-3-1.6-5.6-3.7-7.8-6.2
	c-4-4.7-6.4-10.8-6.4-17.4C23.1,30.1,35.1,18.1,49.9,18.1 M49.9,13.7c-17.3,0-31.3,14-31.3,31.3c0,7.5,2.6,14.6,7.5,20.3
	c2.5,2.9,5.6,5.4,9.1,7.3c4.5,2.4,9.6,3.7,14.7,3.7c1.2,0,2.3-0.1,3.5-0.2c3.2-0.3,6.2-1.2,9.1-2.4c5.3-2.3,9.8-6,13.1-10.7
	c3.7-5.3,5.7-11.5,5.7-17.9c0-2.7-0.3-5.5-1.1-8.2C76.3,23.2,63.9,13.7,49.9,13.7L49.9,13.7z"/>
<path class="st3" d="M23.3,60.6l-3,2.9c-0.4,0.4-0.4,1,0,1.4l7.2,7.1c0.4,0.4,1,0.4,1.4,0l2.9-3.1L23.3,60.6z"/>
</svg>
