<?xml version="1.0" encoding="utf-8"?>
<!-- Generator: Adobe Illustrator 23.1.1, SVG Export Plug-In . SVG Version: 6.00 Build 0)  -->
<svg version="1.1" id="Layer_1" xmlns="http://www.w3.org/2000/svg" xmlns:xlink="http://www.w3.org/1999/xlink" x="0px" y="0px"
	 viewBox="0 0 100 100" style="enable-background:new 0 0 100 100;" xml:space="preserve">
<style type="text/css">
	.st0{enable-background:new    ;}
	.st1{fill:#6A6B6A;}
	.st2{fill:none;stroke:#7F7F7F;stroke-width:7;stroke-linecap:round;stroke-miterlimit:10;}
	.st3{fill:#9D9E9E;}
</style>
<g class="st0">
	<path class="st1" d="M37.19,41.12l0.34-0.22c1.13,0.93,2.4,1.76,3.48,2.72c1.26,1.13,1.77,2.16,1.77,3.87
		c0,1.48-0.35,2.5-0.79,3.38c-0.9,1.24-2.4,1.95-3.83,1.95c-3.22,0-3.69-2.95-3.69-4.04c0-2.35,1.02-3.98,2.48-5.77L37.19,41.12z
		 M35.98,47.69c0,0.97,0.98,1.85,2.43,1.85c1.06,0,2.42-0.5,2.92-1.35c-0.13-1.06-1.22-2.18-3.33-3.37
		C36.58,46.06,35.98,47,35.98,47.69z"/>
	<path class="st1" d="M62.05,42.79c1.05,1.76,1.71,3.64,1.71,4.51c0,1.08-0.53,2.98-1.34,3.98c-2.26,1.24-5.72,1.98-8.75,1.98
		c-2.69,0-4.43-0.55-5.67-1.34c-1.43-0.93-2.32-2.37-2.32-4.46c0-1.37,0.29-2.79,0.97-4.27l0.98,0.34
		c-0.23,0.71-0.37,1.35-0.37,1.93c0,2.45,2.05,4.45,7.19,4.45c2.77,0,6.49-0.77,7.46-1.27c-0.29-0.82-0.84-1.95-1.6-3.32
		c0.48-0.87,1.02-1.76,1.56-2.51L62.05,42.79z M52.14,38.84c0.81,0.68,1.56,1.37,2.27,2.08c-0.48,0.69-1.01,1.35-1.59,2.01
		c-0.77-0.76-1.56-1.45-2.34-2.08L52.14,38.84z M53.43,34.73c0.81,0.68,1.56,1.37,2.27,2.08c-0.48,0.69-1.01,1.35-1.59,2.01
		c-0.77-0.76-1.56-1.45-2.34-2.08L53.43,34.73z M56.04,38.63c0.81,0.68,1.56,1.37,2.27,2.08c-0.48,0.69-1.01,1.35-1.59,2.01
		c-0.77-0.76-1.56-1.45-2.34-2.08L56.04,38.63z"/>
</g>
<line class="st2" x1="25.2" y1="66.6" x2="8.7" y2="83.3"/>
<path class="st3" d="M49.9,18.1c12.3,0,22.8,8.4,25.8,19.7c0.6,2.2,0.9,4.6,0.9,7.1c0,5.7-1.7,11.1-4.8,15.3
	c-2.7,4-6.6,7.3-11.3,9.2c-2.4,1.1-5,1.7-7.8,2c-1.1,0.1-1.9,0.2-3,0.2c-4.6,0-8.8-1.2-12.6-3.2c-3-1.6-5.6-3.7-7.8-6.2
	c-4-4.7-6.4-10.8-6.4-17.4C23.1,30.1,35.1,18.1,49.9,18.1 M49.9,13.7c-17.3,0-31.3,14-31.3,31.3c0,7.5,2.6,14.6,7.5,20.3
	c2.5,2.9,5.6,5.4,9.1,7.3c4.5,2.4,9.6,3.7,14.7,3.7c1.2,0,2.3-0.1,3.5-0.2c3.2-0.3,6.2-1.2,9.1-2.4c5.3-2.3,9.8-6,13.1-10.7
	c3.7-5.3,5.7-11.5,5.7-17.9c0-2.7-0.3-5.5-1.1-8.2C76.3,23.2,63.9,13.7,49.9,13.7L49.9,13.7z"/>
<path class="st3" d="M23.3,60.6l-3,2.9c-0.4,0.4-0.4,1,0,1.4l7.2,7.1c0.4,0.4,1,0.4,1.4,0l2.9-3.1L23.3,60.6z"/>
</svg>
