<?xml version="1.0" encoding="utf-8"?>
<!-- Generator: Adobe Illustrator 23.1.1, SVG Export Plug-In . SVG Version: 6.00 Build 0)  -->
<svg version="1.1" id="Layer_1" xmlns="http://www.w3.org/2000/svg" xmlns:xlink="http://www.w3.org/1999/xlink" x="0px" y="0px"
	 viewBox="0 0 100 100" style="enable-background:new 0 0 100 100;" xml:space="preserve">
<style type="text/css">
	.st0{enable-background:new    ;}
	.st1{fill:#6A6B6A;}
	.st2{fill:none;stroke:#7F7F7F;stroke-width:7;stroke-linecap:round;stroke-miterlimit:10;}
	.st3{fill:#9D9E9E;}
</style>
<g class="st0">
	<path class="st1" d="M45.08,39.91c1.05,2.26,1.69,4.59,1.69,7.11c0,1.18-0.39,2.63-0.98,3.96c-1.31,1.87-3.77,2.98-5.8,2.98
		c-3.11,0-5.09-2.17-5.09-5.35c0-1.61,0.47-3.32,1.47-5.16l0.89,0.45c-0.53,1.11-0.82,2.16-0.82,2.85c0,3.35,2.8,3.79,3.83,3.79
		c1.63,0,3.53-0.84,4.45-1.79c0.21-0.23,0.32-0.48,0.32-0.82c0-1.13-0.56-2.85-1.85-5.32c0.48-0.9,1.05-1.77,1.71-2.74L45.08,39.91z
		 M40.21,34.79c1.01,0.64,1.88,1.34,2.63,2.08c-0.42,0.77-0.95,1.55-1.63,2.29c-0.84-0.74-1.72-1.42-2.63-2.05L40.21,34.79z"/>
	<path class="st1" d="M62.04,43.94c-0.45-1.45-0.98-2.03-1.51-2.03c-1.51,0-3.5,1.95-3.5,2.47c0,1.22,3.51,1.05,4.72,1.72
		c0.76,0.42,1.18,1.14,1.18,2.26c0,0.92-0.35,1.95-0.84,3c-0.69,0.9-1.58,1.59-2.58,2.17c-1.47,0.85-2.95,1.35-4.5,1.35
		c-2.53,0-5.41-1.71-5.41-6.19c0-1.92,0.4-3.37,0.93-4.56l0.93,0.27c-0.35,0.85-0.45,1.79-0.45,2.72c0,2.38,1.55,4.43,4.21,4.43
		c1.21,0,2.46-0.32,3.54-0.79c1-0.44,1.87-0.95,2.43-1.52c0-0.24-1.27-0.47-2.77-0.69c-2.06-0.31-2.95-1.29-2.95-2.8
		c0-1.6,0.61-3.13,1.85-4.46c1.34-1.45,2.79-2.42,4.12-2.42c1.37,0,1.82,1.64,1.82,2.56c0,0.61-0.31,1.45-0.84,2.5L62.04,43.94
		L62.04,43.94z M53.71,56.24c0.79,0.6,1.53,1.26,2.22,2.01c-0.5,0.79-1.03,1.42-1.53,1.95c-0.76-0.72-1.5-1.39-2.27-1.98
		L53.71,56.24z M57.51,55.98c0.79,0.6,1.53,1.26,2.22,2.01c-0.5,0.79-1.03,1.42-1.53,1.95c-0.76-0.72-1.5-1.39-2.27-1.98
		L57.51,55.98z"/>
</g>
<line class="st2" x1="25.2" y1="66.6" x2="8.7" y2="83.3"/>
<path class="st3" d="M49.9,18.1c12.3,0,22.8,8.4,25.8,19.7c0.6,2.2,0.9,4.6,0.9,7.1c0,5.7-1.7,11.1-4.8,15.3
	c-2.7,4-6.6,7.3-11.3,9.2c-2.4,1.1-5,1.7-7.8,2c-1.1,0.1-1.9,0.2-3,0.2c-4.6,0-8.8-1.2-12.6-3.2c-3-1.6-5.6-3.7-7.8-6.2
	c-4-4.7-6.4-10.8-6.4-17.4C23.1,30.1,35.1,18.1,49.9,18.1 M49.9,13.7c-17.3,0-31.3,14-31.3,31.3c0,7.5,2.6,14.6,7.5,20.3
	c2.5,2.9,5.6,5.4,9.1,7.3c4.5,2.4,9.6,3.7,14.7,3.7c1.2,0,2.3-0.1,3.5-0.2c3.2-0.3,6.2-1.2,9.1-2.4c5.3-2.3,9.8-6,13.1-10.7
	c3.7-5.3,5.7-11.5,5.7-17.9c0-2.7-0.3-5.5-1.1-8.2C76.3,23.2,63.9,13.7,49.9,13.7L49.9,13.7z"/>
<path class="st3" d="M23.3,60.6l-3,2.9c-0.4,0.4-0.4,1,0,1.4l7.2,7.1c0.4,0.4,1,0.4,1.4,0l2.9-3.1L23.3,60.6z"/>
</svg>
