<?xml version="1.0" encoding="utf-8"?>
<!-- Generator: Adobe Illustrator 23.1.1, SVG Export Plug-In . SVG Version: 6.00 Build 0)  -->
<svg version="1.1" id="Layer_1" xmlns="http://www.w3.org/2000/svg" xmlns:xlink="http://www.w3.org/1999/xlink" x="0px" y="0px"
	 viewBox="0 0 100 100" style="enable-background:new 0 0 100 100;" xml:space="preserve">
<style type="text/css">
	.st0{enable-background:new    ;}
	.st1{fill:#6A6B6A;}
	.st2{fill:none;stroke:#7F7F7F;stroke-width:7;stroke-linecap:round;stroke-miterlimit:10;}
	.st3{fill:#9D9E9E;}
</style>
<g class="st0">
	<path class="st1" d="M39.08,43.83c-1.32-0.39-2.37-0.6-3.05-0.6c-0.55,0-1.02,0.08-1.37,0.27l-0.82,2.21h-0.31l-1.05-2.21
		c0.42-2.01,1.51-3.22,3.53-3.22c2.8,0,5.14,1.93,7.88,1.93h1.84l0.11,0.23l-1.16,2.11c-5.83,1.11-9.89,3.56-9.89,6.14
		c0,2.45,3.13,4.45,7.96,4.45c1.35,0,2.71-0.13,4.03-0.43l0.18,0.39c-1.27,1.16-2.38,2.05-3.37,2.67c-0.52,0.34-1.53,0.5-2.87,0.5
		c-5.04,0-7.59-2.5-7.59-6.64c0-3.69,2.69-6.56,5.95-7.75V43.83z"/>
	<path class="st1" d="M64.09,45.17c-2.74,0-4.25-0.97-4.25-3.08c0-1.26,0.45-2.37,1.27-3.25c0.77-0.84,1.64-1.37,2.56-1.37
		c2.19,0,3.61,3.72,3.61,7.15c0,1.14-0.27,2.48-0.87,3.72c-0.42,0.32-1.26,0.66-2.37,0.97c-2.22,0.6-4.66,0.97-7.52,0.97
		c-5.33,0-7.8-2.55-7.8-5.67c0-1.84,0.4-3.27,0.97-4.54l1.03,0.39c-0.29,0.77-0.4,1.45-0.4,2.05c0,2.55,2.34,4.42,7.19,4.42
		c2.59,0,5.04-0.34,7.38-0.94c0.64-0.18,0.92-0.42,0.92-0.85C65.23,45.17,64.65,45.17,64.09,45.17z M62.37,32.49
		c0.87,0.58,1.64,1.24,2.35,1.92c-0.35,0.8-0.85,1.5-1.48,2.03c-0.68-0.58-1.5-1.21-2.38-1.82L62.37,32.49z M62.95,40
		c-1.1,0-1.74,0.6-1.74,1.08c0,0.9,1.69,1.53,4.22,1.6C64.83,40.98,64.01,40,62.95,40z"/>
</g>
<line class="st2" x1="25.2" y1="66.6" x2="8.7" y2="83.3"/>
<path class="st3" d="M49.9,18.1c12.3,0,22.8,8.4,25.8,19.7c0.6,2.2,0.9,4.6,0.9,7.1c0,5.7-1.7,11.1-4.8,15.3
	c-2.7,4-6.6,7.3-11.3,9.2c-2.4,1.1-5,1.7-7.8,2c-1.1,0.1-1.9,0.2-3,0.2c-4.6,0-8.8-1.2-12.6-3.2c-3-1.6-5.6-3.7-7.8-6.2
	c-4-4.7-6.4-10.8-6.4-17.4C23.1,30.1,35.1,18.1,49.9,18.1 M49.9,13.7c-17.3,0-31.3,14-31.3,31.3c0,7.5,2.6,14.6,7.5,20.3
	c2.5,2.9,5.6,5.4,9.1,7.3c4.5,2.4,9.6,3.7,14.7,3.7c1.2,0,2.3-0.1,3.5-0.2c3.2-0.3,6.2-1.2,9.1-2.4c5.3-2.3,9.8-6,13.1-10.7
	c3.7-5.3,5.7-11.5,5.7-17.9c0-2.7-0.3-5.5-1.1-8.2C76.3,23.2,63.9,13.7,49.9,13.7L49.9,13.7z"/>
<path class="st3" d="M23.3,60.6l-3,2.9c-0.4,0.4-0.4,1,0,1.4l7.2,7.1c0.4,0.4,1,0.4,1.4,0l2.9-3.1L23.3,60.6z"/>
</svg>
