<?xml version="1.0" encoding="utf-8"?>
<!-- Generator: Adobe Illustrator 23.1.1, SVG Export Plug-In . SVG Version: 6.00 Build 0)  -->
<svg version="1.1" id="Layer_1" xmlns="http://www.w3.org/2000/svg" xmlns:xlink="http://www.w3.org/1999/xlink" x="0px" y="0px"
	 viewBox="0 0 100 100" style="enable-background:new 0 0 100 100;" xml:space="preserve">
<style type="text/css">
	.st0{fill:#FFFFFF;fill-opacity:0;}
	.st1{enable-background:new    ;}
	.st2{fill:#6A6B6A;}
	.st3{fill:#7F7F7F;}
	.st4{fill:#B4B4B5;}
	.st5{fill:#9D9E9E;}
	.st6{fill:#CCCCCC;}
</style>
<rect x="9.5" y="9.5" class="st0" width="81" height="81"/>
<g class="st1">
	<path class="st2" d="M39.97,24.93c-0.83-0.51-1.65-0.7-2.44-0.7c-1.78,0-3.53,1.2-3.53,1.56c0,0.56,0.6,1.18,1.32,1.79
		c0.7,0.53,1.35,0.84,1.78,0.84c0.47,0,2.39-1,5.68-2.23l0.18,0.14c-0.26,1.07-0.54,2.16-0.91,3.2c-5.54,1.88-8.56,4.08-8.56,5.89
		c0,2.21,2.99,4.15,8.16,4.15c1.35,0,2.67-0.11,3.92-0.33l0.26,0.4c-1.48,1.3-2.87,2.37-4.2,3.11C40.95,42.96,40.23,43,39.49,43
		c-4.34,0-7.77-2-7.77-6.43c0-1.88,0.76-3.81,2.5-5.84c-1.32-0.95-2.25-2.07-2.25-3.55c0-0.88,0.25-1.85,0.91-3.04
		c0.83-1.44,2.25-2.5,3.76-2.5c1.49,0,2.76,0.95,3.83,2.71L39.97,24.93z"/>
	<path class="st2" d="M60.58,32.24c-1.07,0-2.16-0.18-3.18-0.88c-0.79-0.63-1.3-1.53-1.3-2.87c0-3.25,2.44-5.47,4.25-5.47
		c2.69,0,4.18,5.01,4.18,7.91c0,1.53-0.25,2.78-0.7,3.8c-0.46,0.77-1.23,1.65-2.41,2.5c-1.78,1.27-3.74,2.04-5.99,2.04
		c-5.08,0-6.68-3.96-6.68-7c0-1.95,0.4-3.74,0.98-5.5l1.18,0.35c-0.33,1.12-0.53,2.2-0.53,3.22c0.02,3.87,2.62,5.34,5.41,5.34
		c1.55,0,3.11-0.44,4.64-1.3c1.07-0.6,1.97-1.25,2.57-1.95c0-0.18-0.04-0.32-0.11-0.46C62.04,32.15,61.26,32.24,60.58,32.24z
		 M56.87,17.63c0.84,0.69,1.55,1.39,2.11,2.07c-0.4,0.7-0.97,1.32-1.62,1.88c-0.7-0.69-1.42-1.32-2.16-1.97L56.87,17.63z
		 M59.63,26.09c-1.34,0-1.97,0.97-1.97,1.42c0,0.84,1.21,1.55,3.46,1.55c0.46,0,0.9-0.04,1.3-0.11
		C61.79,27.18,60.88,26.09,59.63,26.09z M60.72,17.46c0.84,0.69,1.55,1.39,2.11,2.07c-0.4,0.7-0.97,1.32-1.62,1.88
		c-0.7-0.69-1.42-1.32-2.16-1.97L60.72,17.46z"/>
</g>
<path class="st3" d="M85.2,50.1l-0.3-0.8H57.7l-9.2,12.3l-9-12.2c0,0-21.8,0-27,0c-0.1,0.2-0.2,0.5-0.3,0.7
	c2.5,2.4,9.6,10.5,9.6,10.5s0,9.7-0.1,15.7c0,1.8,0.5,2.8,2.4,3.2c7.6,1.8,15.1,3.8,22.6,5.8c1.2,0.3,2.5,0.3,3.7-0.1
	c3.6-0.9,14.5-3.7,14.5-3.7c2.7-0.7,5.5-1.4,8.2-2.1c1.6-0.4,2.4-1.2,2.3-3c-0.1-4.8,0-16,0-16L85.2,50.1z"/>
<path class="st4" d="M75.5,76.5c0.1,1.8-0.7,2.6-2.3,3c-2.7,0.7-5.5,1.4-8.2,2.1c0,0-0.4,0.1-1.2,0.3c-2.9,0.8-10.4,2.7-13.3,3.4
	c-1.3,0.3-2.6,0.3-3.8,0.1c-7.5-1.9-15-3.9-22.6-5.8c-1.8-0.4-2.4-1.4-2.4-3.2c0.1-6.1,0.1-15.7,0.1-15.7l26.9,2.2l0.6-0.1l26.3-2.2
	C75.5,60.6,75.4,71.8,75.5,76.5z"/>
<path class="st5" d="M75.5,76.5c0.1,1.8-0.7,2.6-2.3,3c-2.7,0.7-5.5,1.4-8.2,2.1c0,0-0.4,0.1-1.2,0.3L63,81.7l-13.8-19l26.3-2.1
	C75.5,60.6,75.4,71.8,75.5,76.5z"/>
<polygon class="st6" points="49.2,62.7 63.3,82.1 59,83.1 46.7,66.8 46.7,62.6 "/>
</svg>
