<?xml version="1.0" encoding="utf-8"?>
<!-- Generator: Adobe Illustrator 23.1.1, SVG Export Plug-In . SVG Version: 6.00 Build 0)  -->
<svg version="1.1" id="Layer_1" xmlns="http://www.w3.org/2000/svg" xmlns:xlink="http://www.w3.org/1999/xlink" x="0px" y="0px"
	 viewBox="0 0 100 100" style="enable-background:new 0 0 100 100;" xml:space="preserve">
<style type="text/css">
	.st0{enable-background:new    ;}
	.st1{fill:#6A6B6A;}
	.st2{fill:none;stroke:#7F7F7F;stroke-width:7;stroke-linecap:round;stroke-miterlimit:10;}
	.st3{fill:#9D9E9E;}
</style>
<g class="st0">
	<path class="st1" d="M36.77,44.53c0,1.5,0.81,2.05,2.34,2.05c1.02,0,2.18-0.23,3.5-0.9c-0.48-1.84-2.01-3.33-4.25-4.58
		c-0.55-0.31-0.89-0.58-0.89-0.95c0-0.53,0.44-1.43,1.03-2.48h0.11c1.45,0.92,2.85,2,4.06,3.46c0.98,1.18,1.48,2.53,1.48,4.03
		c0,1.06-0.29,2.11-0.81,3.03c-1.27,1-2.76,1.59-4.51,1.59c-1.98,0-3.19-1.08-3.19-3.5c0-0.45,0.02-1.05,0.1-1.76h1.03V44.53z"/>
	<path class="st1" d="M56.43,43.83c-1.32-0.39-2.37-0.6-3.05-0.6c-0.55,0-1.01,0.08-1.37,0.27l-0.82,2.21h-0.31l-1.05-2.21
		c0.42-2.01,1.51-3.22,3.53-3.22c2.8,0,5.14,1.93,7.88,1.93h1.84l0.11,0.23l-1.16,2.11c-5.83,1.11-9.89,3.56-9.89,6.14
		c0,2.45,3.13,4.45,7.96,4.45c1.35,0,2.71-0.13,4.03-0.43l0.18,0.39c-1.27,1.16-2.38,2.05-3.37,2.67c-0.52,0.34-1.53,0.5-2.87,0.5
		c-5.04,0-7.59-2.5-7.59-6.64c0-3.69,2.69-6.56,5.95-7.75C56.43,43.88,56.43,43.83,56.43,43.83z M57.49,48.33
		c1.01,0.64,1.88,1.34,2.63,2.08c-0.42,0.77-0.95,1.55-1.63,2.29c-0.84-0.74-1.72-1.42-2.63-2.05L57.49,48.33z"/>
</g>
<line class="st2" x1="25.2" y1="66.6" x2="8.7" y2="83.3"/>
<path class="st3" d="M49.9,18.1c12.3,0,22.8,8.4,25.8,19.7c0.6,2.2,0.9,4.6,0.9,7.1c0,5.7-1.7,11.1-4.8,15.3
	c-2.7,4-6.6,7.3-11.3,9.2c-2.4,1.1-5,1.7-7.8,2c-1.1,0.1-1.9,0.2-3,0.2c-4.6,0-8.8-1.2-12.6-3.2c-3-1.6-5.6-3.7-7.8-6.2
	c-4-4.7-6.4-10.8-6.4-17.4C23.1,30.1,35.1,18.1,49.9,18.1 M49.9,13.7c-17.3,0-31.3,14-31.3,31.3c0,7.5,2.6,14.6,7.5,20.3
	c2.5,2.9,5.6,5.4,9.1,7.3c4.5,2.4,9.6,3.7,14.7,3.7c1.2,0,2.3-0.1,3.5-0.2c3.2-0.3,6.2-1.2,9.1-2.4c5.3-2.3,9.8-6,13.1-10.7
	c3.7-5.3,5.7-11.5,5.7-17.9c0-2.7-0.3-5.5-1.1-8.2C76.3,23.2,63.9,13.7,49.9,13.7L49.9,13.7z"/>
<path class="st3" d="M23.3,60.6l-3,2.9c-0.4,0.4-0.4,1,0,1.4l7.2,7.1c0.4,0.4,1,0.4,1.4,0l2.9-3.1L23.3,60.6z"/>
</svg>
