<?xml version="1.0" encoding="utf-8"?>
<!-- Generator: Adobe Illustrator 23.1.1, SVG Export Plug-In . SVG Version: 6.00 Build 0)  -->
<svg version="1.1" id="Layer_1" xmlns="http://www.w3.org/2000/svg" xmlns:xlink="http://www.w3.org/1999/xlink" x="0px" y="0px"
	 viewBox="0 0 100 100" style="enable-background:new 0 0 100 100;" xml:space="preserve">
<style type="text/css">
	.st0{fill:#FFFFFF;fill-opacity:0;}
	.st1{enable-background:new    ;}
	.st2{fill:#6A6B6A;}
	.st3{fill:#7F7F7F;}
	.st4{fill:#B4B4B5;}
	.st5{fill:#9D9E9E;}
	.st6{fill:#CCCCCC;}
</style>
<rect x="9.5" y="9.5" class="st0" width="81" height="81"/>
<g class="st1">
	<path class="st2" d="M32.97,26.72c0.81-2.34,1.83-3.87,3.67-3.87c1.6,0,2.92,1.09,4.06,2.95c0.67,1.12,1.11,2.29,1.11,3.27
		c0,0.77-0.42,1.79-1.09,2.95c-2.3-0.28-3.73-0.42-5.12-0.42c-0.97,0-1.79,0.23-2.25,0.7c0.26,2.99,2.27,8.21,2.27,9.6
		c0,0.76-0.19,1.83-0.58,3.29l-0.4-0.04c-0.53-3.59-3.09-8.84-3.09-11.58c0-0.63,0.14-1.39,0.44-2.3c0.23-0.69,0.63-1.46,1.28-2.25
		L32.97,26.72z M34.55,28.3c0.51-0.19,1.07-0.28,1.69-0.28c0.84,0,1.9,0.12,3.02,0.32l0.04-0.12c-1.09-1.46-2.25-2.29-3.5-2.29
		c-0.35,0-0.67,0.05-0.91,0.16v0.25c0,0.3-0.02,0.76-0.09,1.21l-0.3,0.7L34.55,28.3z"/>
	<path class="st2" d="M59.85,31.92c-0.63,0.9-1.49,1.56-3.2,1.56c-0.23,1.51-0.67,2.74-1.37,3.64c-1.23,1.53-3.22,2.51-5.34,2.51
		c-3.59,0-5.36-2.74-5.36-5.94c0-1.56,0.44-3.48,1.46-5.12l0.95,0.47c-0.6,1.3-0.83,2.29-0.83,2.92c0,1.16,0.21,2.21,1.25,3.09
		c0.86,0.65,1.83,1,2.94,1c1.34,0,2.44-0.44,3.43-1.11c0.83-0.56,1.44-1.14,1.55-1.72c0-1.16-0.86-2.76-1.92-4.45
		c0.62-1.07,1.2-2.06,1.78-2.85l0.18,0.04c0.39,0.88,0.79,1.81,1.21,2.88c0.25,0.58,0.6,1.02,1.27,1.02c0.33,0,0.7-0.14,1.07-0.4
		c0.67-0.47,0.79-1.69,1.07-2.62c0.47-0.33,0.95-0.58,1.39-0.83l0.12,0.11c-0.12,0.46-0.21,0.91-0.21,1.41
		c0,0.63,0.12,1.11,0.46,1.46c0.42,0.42,0.91,0.63,1.44,0.63c0.32,0,0.56-0.07,0.74-0.25c-0.02-0.63-0.23-1.76-0.58-3.23
		c0.65-0.74,1.28-1.42,1.93-2.02l0.23,0.07c0.23,1.27,0.39,2.53,0.39,3.83c0,1.27-0.35,2.3-1.02,3.27c-0.77,1.12-1.6,1.88-2.6,1.88
		c-0.69,0-1.44-0.28-2.32-1.27H59.85z"/>
</g>
<path class="st3" d="M85.2,50.1l-0.3-0.8H57.7l-9.2,12.3l-9-12.2c0,0-21.8,0-27,0c-0.1,0.2-0.2,0.5-0.3,0.7
	c2.5,2.4,9.6,10.5,9.6,10.5s0,9.7-0.1,15.7c0,1.8,0.5,2.8,2.4,3.2c7.6,1.8,15.1,3.8,22.6,5.8c1.2,0.3,2.5,0.3,3.7-0.1
	c3.6-0.9,14.5-3.7,14.5-3.7c2.7-0.7,5.5-1.4,8.2-2.1c1.6-0.4,2.4-1.2,2.3-3c-0.1-4.8,0-16,0-16L85.2,50.1z"/>
<path class="st4" d="M75.5,76.5c0.1,1.8-0.7,2.6-2.3,3c-2.7,0.7-5.5,1.4-8.2,2.1c0,0-0.4,0.1-1.2,0.3c-2.9,0.8-10.4,2.7-13.3,3.4
	c-1.3,0.3-2.6,0.3-3.8,0.1c-7.5-1.9-15-3.9-22.6-5.8c-1.8-0.4-2.4-1.4-2.4-3.2c0.1-6.1,0.1-15.7,0.1-15.7l26.9,2.2l0.6-0.1l26.3-2.2
	C75.5,60.6,75.4,71.8,75.5,76.5z"/>
<path class="st5" d="M75.5,76.5c0.1,1.8-0.7,2.6-2.3,3c-2.7,0.7-5.5,1.4-8.2,2.1c0,0-0.4,0.1-1.2,0.3L63,81.7l-13.8-19l26.3-2.1
	C75.5,60.6,75.4,71.8,75.5,76.5z"/>
<polygon class="st6" points="49.2,62.7 63.3,82.1 59,83.1 46.7,66.8 46.7,62.6 "/>
</svg>
