<?xml version="1.0" encoding="utf-8"?>
<!-- Generator: Adobe Illustrator 23.1.1, SVG Export Plug-In . SVG Version: 6.00 Build 0)  -->
<svg version="1.1" id="Layer_1" xmlns="http://www.w3.org/2000/svg" xmlns:xlink="http://www.w3.org/1999/xlink" x="0px" y="0px"
	 viewBox="0 0 100 100" style="enable-background:new 0 0 100 100;" xml:space="preserve">
<style type="text/css">
	.st0{fill:#FFFFFF;fill-opacity:0;}
	.st1{enable-background:new    ;}
	.st2{fill:#6A6B6A;}
	.st3{fill:#7F7F7F;}
	.st4{fill:#B4B4B5;}
	.st5{fill:#9D9E9E;}
	.st6{fill:#CCCCCC;}
</style>
<rect x="9.5" y="9.5" class="st0" width="81" height="81"/>
<g class="st1">
	<path class="st2" d="M39.19,17.73c0.81,0.72,1.48,1.46,2,2.18c-0.46,0.67-1.04,1.27-1.72,1.79c-0.67-0.72-1.35-1.41-2.06-2.09
		L39.19,17.73z M40.5,22.9l0.37-0.25c1.23,1.02,2.62,1.92,3.8,2.97c1.37,1.23,1.93,2.36,1.93,4.22c0,1.62-0.39,2.72-0.86,3.69
		c-0.98,1.35-2.62,2.13-4.18,2.13c-3.52,0-4.03-3.22-4.03-4.41c0-2.57,1.11-4.34,2.71-6.29L40.5,22.9z M39.18,30.07
		c0,1.05,1.07,2.02,2.65,2.02c1.16,0,2.64-0.54,3.18-1.48c-0.14-1.16-1.34-2.37-3.64-3.67C39.83,28.3,39.18,29.32,39.18,30.07z
		 M42.9,17.58c0.81,0.72,1.48,1.46,2,2.18c-0.46,0.67-1.04,1.27-1.72,1.79c-0.67-0.72-1.35-1.41-2.06-2.09L42.9,17.58z"/>
	<path class="st2" d="M56.94,26.08c1.53,2.51,2.14,4.04,2.14,5.48c0,0.83-0.07,1.28-0.07,1.62c0,1.69-0.32,3.25-1.12,4.66
		c-1.11,1.88-2.46,2.97-3.99,2.97c-1.35,0-3.22-0.56-4.82-1.53l0.33-0.93c0.53,0.14,1.11,0.21,1.76,0.21c1.44,0,2.94-0.83,4.27-2.13
		c1.2-1.2,1.93-2.41,1.93-2.97c0-0.63-0.67-1.86-2.36-4.39c0.49-1.05,1.05-2.07,1.58-2.99H56.94z"/>
</g>
<path class="st3" d="M85.2,50.1l-0.3-0.8H57.7l-9.2,12.3l-9-12.2c0,0-21.8,0-27,0c-0.1,0.2-0.2,0.5-0.3,0.7
	c2.5,2.4,9.6,10.5,9.6,10.5s0,9.7-0.1,15.7c0,1.8,0.5,2.8,2.4,3.2c7.6,1.8,15.1,3.8,22.6,5.8c1.2,0.3,2.5,0.3,3.7-0.1
	c3.6-0.9,14.5-3.7,14.5-3.7c2.7-0.7,5.5-1.4,8.2-2.1c1.6-0.4,2.4-1.2,2.3-3c-0.1-4.8,0-16,0-16L85.2,50.1z"/>
<path class="st4" d="M75.5,76.5c0.1,1.8-0.7,2.6-2.3,3c-2.7,0.7-5.5,1.4-8.2,2.1c0,0-0.4,0.1-1.2,0.3c-2.9,0.8-10.4,2.7-13.3,3.4
	c-1.3,0.3-2.6,0.3-3.8,0.1c-7.5-1.9-15-3.9-22.6-5.8c-1.8-0.4-2.4-1.4-2.4-3.2c0.1-6.1,0.1-15.7,0.1-15.7l26.9,2.2l0.6-0.1l26.3-2.2
	C75.5,60.6,75.4,71.8,75.5,76.5z"/>
<path class="st5" d="M75.5,76.5c0.1,1.8-0.7,2.6-2.3,3c-2.7,0.7-5.5,1.4-8.2,2.1c0,0-0.4,0.1-1.2,0.3L63,81.7l-13.8-19l26.3-2.1
	C75.5,60.6,75.4,71.8,75.5,76.5z"/>
<polygon class="st6" points="49.2,62.7 63.3,82.1 59,83.1 46.7,66.8 46.7,62.6 "/>
</svg>
