<?xml version="1.0" encoding="utf-8"?>
<!-- Generator: Adobe Illustrator 23.1.1, SVG Export Plug-In . SVG Version: 6.00 Build 0)  -->
<svg version="1.1" id="Layer_1" xmlns="http://www.w3.org/2000/svg" xmlns:xlink="http://www.w3.org/1999/xlink" x="0px" y="0px"
	 viewBox="0 0 100 100" style="enable-background:new 0 0 100 100;" xml:space="preserve">
<style type="text/css">
	.st0{fill:#FFFFFF;fill-opacity:0;}
	.st1{enable-background:new    ;}
	.st2{fill:#6A6B6A;}
	.st3{fill:#7F7F7F;}
	.st4{fill:#B4B4B5;}
	.st5{fill:#9D9E9E;}
	.st6{fill:#CCCCCC;}
</style>
<rect x="9.5" y="9.5" class="st0" width="81" height="81"/>
<g class="st1">
	<path class="st2" d="M44.2,26.08c1.53,2.51,2.14,4.04,2.14,5.48c0,0.83-0.07,1.28-0.07,1.62c0,1.69-0.32,3.25-1.12,4.66
		c-1.11,1.88-2.46,2.97-3.99,2.97c-1.35,0-3.22-0.56-4.82-1.53l0.33-0.93c0.53,0.14,1.11,0.21,1.76,0.21c1.44,0,2.94-0.83,4.27-2.13
		c1.2-1.2,1.93-2.41,1.93-2.97c0-0.63-0.67-1.86-2.36-4.39c0.49-1.05,1.05-2.07,1.58-2.99H44.2z M42.19,19.76
		c0.95,0.63,1.79,1.35,2.57,2.09c-0.39,0.88-0.93,1.63-1.62,2.21c-0.74-0.63-1.63-1.32-2.6-1.99L42.19,19.76z"/>
	<path class="st2" d="M58.9,31.34l-1.48,2.62c-1.27,0.11-2.44,0.33-3.57,0.63c-1.07,0.3-1.99,0.77-2.79,1.28l-0.28-0.46
		c0.32-0.65,0.69-1.23,1.11-1.78c-0.91-0.47-1.58-1.11-1.58-2.07c0-1.02,0.53-2.07,1.6-3.18c1.16-1.04,2.34-1.78,3.57-1.78
		c1.02,0,1.88,0.53,1.88,1.74c0,0.58-0.28,1.25-0.84,1.92l-0.35-0.04c-0.23-0.67-0.6-1.21-1.56-1.21c-0.81,0-1.97,0.51-1.97,1.07
		c0,0.69,0.98,1.35,2.79,1.35c0.83,0,2-0.09,3.38-0.3L58.9,31.34z"/>
</g>
<path class="st3" d="M85.2,50.1l-0.3-0.8H57.7l-9.2,12.3l-9-12.2c0,0-21.8,0-27,0c-0.1,0.2-0.2,0.5-0.3,0.7
	c2.5,2.4,9.6,10.5,9.6,10.5s0,9.7-0.1,15.7c0,1.8,0.5,2.8,2.4,3.2c7.6,1.8,15.1,3.8,22.6,5.8c1.2,0.3,2.5,0.3,3.7-0.1
	c3.6-0.9,14.5-3.7,14.5-3.7c2.7-0.7,5.5-1.4,8.2-2.1c1.6-0.4,2.4-1.2,2.3-3c-0.1-4.8,0-16,0-16L85.2,50.1z"/>
<path class="st4" d="M75.5,76.5c0.1,1.8-0.7,2.6-2.3,3c-2.7,0.7-5.5,1.4-8.2,2.1c0,0-0.4,0.1-1.2,0.3c-2.9,0.8-10.4,2.7-13.3,3.4
	c-1.3,0.3-2.6,0.3-3.8,0.1c-7.5-1.9-15-3.9-22.6-5.8c-1.8-0.4-2.4-1.4-2.4-3.2c0.1-6.1,0.1-15.7,0.1-15.7l26.9,2.2l0.6-0.1l26.3-2.2
	C75.5,60.6,75.4,71.8,75.5,76.5z"/>
<path class="st5" d="M75.5,76.5c0.1,1.8-0.7,2.6-2.3,3c-2.7,0.7-5.5,1.4-8.2,2.1c0,0-0.4,0.1-1.2,0.3L63,81.7l-13.8-19l26.3-2.1
	C75.5,60.6,75.4,71.8,75.5,76.5z"/>
<polygon class="st6" points="49.2,62.7 63.3,82.1 59,83.1 46.7,66.8 46.7,62.6 "/>
</svg>
