<?xml version="1.0" encoding="utf-8"?>
<!-- Generator: Adobe Illustrator 23.1.1, SVG Export Plug-In . SVG Version: 6.00 Build 0)  -->
<svg version="1.1" id="Layer_1" xmlns="http://www.w3.org/2000/svg" xmlns:xlink="http://www.w3.org/1999/xlink" x="0px" y="0px"
	 viewBox="0 0 100 100" style="enable-background:new 0 0 100 100;" xml:space="preserve">
<style type="text/css">
	.st0{fill:#FFFFFF;fill-opacity:0;}
	.st1{enable-background:new    ;}
	.st2{fill:#6A6B6A;}
	.st3{fill:#7F7F7F;}
	.st4{fill:#B4B4B5;}
	.st5{fill:#9D9E9E;}
	.st6{fill:#CCCCCC;}
</style>
<rect x="9.5" y="9.5" class="st0" width="81" height="81"/>
<g class="st1">
	<path class="st2" d="M38.53,31.49c2.34-2.71,4.71-4.48,7.08-4.48c2.53,0,4.03,2,4.03,4.34c0,0.98-0.56,2.83-1.42,3.83
		c-1.67,1.49-5.29,2.21-9.19,2.21c-0.88,0-1.74-0.02-2.53-0.11c-0.53,0.63-1.07,1.32-1.63,2.14l-0.3-0.35l0.33-1.97l-0.88-0.11
		c-1.09-1.16-2.13-2.34-3.11-3.53l0.11-0.21c1.92,0.28,3.67,0.47,5.36,0.62l0.54-0.77c0.18-1.16,0.21-2.57,0.21-4.27
		c0-1.76-0.11-3.55-0.26-5.64c-0.07-0.79-0.26-1.6-0.26-2.39c0-0.86,0.42-1.53,1.79-2.64l0.21,0.12c0,1.11,0.4,2.32,1.95,4.75
		l-1.53,1.16c0.04,1.44,0.07,2.78,0.07,3.57c0,1.34-0.19,2.57-0.65,3.69L38.53,31.49z M47.62,32.21c-0.25-0.9-1.34-2-2.83-2
		c-1.83,0-3.96,1.2-6.49,3.73C42.94,33.94,46.16,33.38,47.62,32.21z"/>
	<path class="st2" d="M54.88,31.9c0,1.63,0.88,2.23,2.55,2.23c1.11,0,2.37-0.25,3.81-0.98c-0.53-2-2.2-3.64-4.64-4.99
		c-0.6-0.33-0.97-0.63-0.97-1.04c0-0.58,0.47-1.56,1.12-2.71h0.12c1.58,1,3.11,2.18,4.43,3.78c1.07,1.28,1.62,2.76,1.62,4.39
		c0,1.16-0.32,2.3-0.88,3.3c-1.39,1.09-3.01,1.74-4.92,1.74c-2.16,0-3.48-1.18-3.48-3.81c0-0.49,0.02-1.14,0.11-1.92H54.88z
		 M56.13,18.8c0.93,0.63,1.76,1.32,2.51,2.06c-0.39,0.86-0.91,1.58-1.58,2.16c-0.72-0.63-1.6-1.28-2.55-1.95L56.13,18.8z"/>
</g>
<path class="st3" d="M85.2,50.1l-0.3-0.8H57.7l-9.2,12.3l-9-12.2c0,0-21.8,0-27,0c-0.1,0.2-0.2,0.5-0.3,0.7
	c2.5,2.4,9.6,10.5,9.6,10.5s0,9.7-0.1,15.7c0,1.8,0.5,2.8,2.4,3.2c7.6,1.8,15.1,3.8,22.6,5.8c1.2,0.3,2.5,0.3,3.7-0.1
	c3.6-0.9,14.5-3.7,14.5-3.7c2.7-0.7,5.5-1.4,8.2-2.1c1.6-0.4,2.4-1.2,2.3-3c-0.1-4.8,0-16,0-16L85.2,50.1z"/>
<path class="st4" d="M75.5,76.5c0.1,1.8-0.7,2.6-2.3,3c-2.7,0.7-5.5,1.4-8.2,2.1c0,0-0.4,0.1-1.2,0.3c-2.9,0.8-10.4,2.7-13.3,3.4
	c-1.3,0.3-2.6,0.3-3.8,0.1c-7.5-1.9-15-3.9-22.6-5.8c-1.8-0.4-2.4-1.4-2.4-3.2c0.1-6.1,0.1-15.7,0.1-15.7l26.9,2.2l0.6-0.1l26.3-2.2
	C75.5,60.6,75.4,71.8,75.5,76.5z"/>
<path class="st5" d="M75.5,76.5c0.1,1.8-0.7,2.6-2.3,3c-2.7,0.7-5.5,1.4-8.2,2.1c0,0-0.4,0.1-1.2,0.3L63,81.7l-13.8-19l26.3-2.1
	C75.5,60.6,75.4,71.8,75.5,76.5z"/>
<polygon class="st6" points="49.2,62.7 63.3,82.1 59,83.1 46.7,66.8 46.7,62.6 "/>
</svg>
