<?xml version="1.0" encoding="utf-8"?>
<!-- Generator: Adobe Illustrator 23.1.1, SVG Export Plug-In . SVG Version: 6.00 Build 0)  -->
<svg version="1.1" id="Layer_1" xmlns="http://www.w3.org/2000/svg" xmlns:xlink="http://www.w3.org/1999/xlink" x="0px" y="0px"
	 viewBox="0 0 100 100" style="enable-background:new 0 0 100 100;" xml:space="preserve">
<style type="text/css">
	.st0{fill:#FFFFFF;fill-opacity:0;}
	.st1{enable-background:new    ;}
	.st2{fill:#6A6B6A;}
	.st3{fill:#7F7F7F;}
	.st4{fill:#B4B4B5;}
	.st5{fill:#9D9E9E;}
	.st6{fill:#CCCCCC;}
</style>
<rect x="9.5" y="9.5" class="st0" width="81" height="81"/>
<g class="st1">
	<path class="st2" d="M45.4,36.9c-1.9,1.6-4.6,2.6-8.1,2.8V46h-4.9v-6.3c-3.5-0.2-6.2-1.2-8.1-2.8c-1.9-1.6-2.8-3.9-2.8-6.7
		c0-2.8,0.9-5,2.8-6.6c1.9-1.6,4.6-2.5,8.1-2.7v-6.7h4.9v6.7c3.5,0.2,6.2,1.2,8.1,2.8c1.9,1.6,2.8,3.8,2.8,6.6
		C48.3,33,47.3,35.3,45.4,36.9z M28.1,34c0.9,0.9,2.4,1.4,4.4,1.7V25c-2,0.2-3.5,0.7-4.4,1.6c-0.9,0.8-1.4,2.1-1.4,3.6
		C26.7,31.8,27.1,33.1,28.1,34z M41.8,34c0.9-0.9,1.4-2.1,1.4-3.8c0-1.6-0.5-2.8-1.4-3.6s-2.4-1.4-4.4-1.6v10.6
		C39.4,35.4,40.8,34.8,41.8,34z"/>
	<path class="st2" d="M51.9,21.1h5.3V32l8.9-10.9h4.9v18.3h-5.3V28.5l-8.9,10.9h-4.9V21.1z M55.1,13.9h3.5c0,0.8,0.2,1.4,0.7,1.9
		c0.4,0.4,1,0.7,1.9,0.7s1.4-0.2,1.9-0.7c0.4-0.4,0.7-1.1,0.7-1.9h3.5c0,3.5-2,5.3-6.1,5.3C57.1,19.1,55.1,17.4,55.1,13.9z"/>
</g>
<path class="st3" d="M85.2,50.1l-0.3-0.8H57.7l-9.2,12.3l-9-12.2c0,0-21.8,0-27,0c-0.1,0.2-0.2,0.5-0.3,0.7
	c2.5,2.4,9.6,10.5,9.6,10.5s0,9.7-0.1,15.7c0,1.8,0.5,2.8,2.4,3.2c7.6,1.8,15.1,3.8,22.6,5.8c1.2,0.3,2.5,0.3,3.7-0.1
	c3.6-0.9,14.5-3.7,14.5-3.7c2.7-0.7,5.5-1.4,8.2-2.1c1.6-0.4,2.4-1.2,2.3-3c-0.1-4.8,0-16,0-16L85.2,50.1z"/>
<path class="st4" d="M75.5,76.5c0.1,1.8-0.7,2.6-2.3,3c-2.7,0.7-5.5,1.4-8.2,2.1c0,0-0.4,0.1-1.2,0.3c-2.9,0.8-10.4,2.7-13.3,3.4
	c-1.3,0.3-2.6,0.3-3.8,0.1c-7.5-1.9-15-3.9-22.6-5.8c-1.8-0.4-2.4-1.4-2.4-3.2c0.1-6.1,0.1-15.7,0.1-15.7l26.9,2.2l0.6-0.1l26.3-2.2
	C75.5,60.6,75.4,71.8,75.5,76.5z"/>
<path class="st5" d="M75.5,76.5c0.1,1.8-0.7,2.6-2.3,3c-2.7,0.7-5.5,1.4-8.2,2.1c0,0-0.4,0.1-1.2,0.3L63,81.7l-13.8-19l26.3-2.1
	C75.5,60.6,75.4,71.8,75.5,76.5z"/>
<polygon class="st6" points="49.2,62.7 63.3,82.1 59,83.1 46.7,66.8 46.7,62.6 "/>
</svg>
