<?xml version="1.0" encoding="utf-8"?>
<!-- Generator: Adobe Illustrator 23.1.1, SVG Export Plug-In . SVG Version: 6.00 Build 0)  -->
<svg version="1.1" id="Layer_1" xmlns="http://www.w3.org/2000/svg" xmlns:xlink="http://www.w3.org/1999/xlink" x="0px" y="0px"
	 viewBox="0 0 100 100" style="enable-background:new 0 0 100 100;" xml:space="preserve">
<style type="text/css">
	.st0{enable-background:new    ;}
	.st1{fill:#6A6B6A;}
	.st2{fill:none;stroke:#7F7F7F;stroke-width:7;stroke-linecap:round;stroke-miterlimit:10;}
	.st3{fill:#9D9E9E;}
</style>
<g class="st0">
	<path class="st1" d="M46.4,36.2c1.3,0.7,2.3,1.8,3.1,3.1c0.7,1.3,1.1,2.9,1.1,4.7c0,1.8-0.4,3.3-1.1,4.7c-0.7,1.3-1.8,2.4-3.1,3.1
		c-1.3,0.7-2.8,1.1-4.4,1.1c-2.2,0-3.9-0.7-5.2-2.1v8h-5V35.3h4.8v2c1.2-1.5,3-2.2,5.4-2.2C43.7,35.1,45.1,35.5,46.4,36.2z
		 M44.4,47.4c0.8-0.9,1.2-2,1.2-3.5c0-1.5-0.4-2.6-1.2-3.5c-0.8-0.9-1.9-1.3-3.2-1.3c-1.3,0-2.3,0.4-3.2,1.3s-1.2,2-1.2,3.5
		c0,1.5,0.4,2.6,1.2,3.5c0.8,0.9,1.9,1.3,3.2,1.3C42.5,48.7,43.5,48.3,44.4,47.4z"/>
	<path class="st1" d="M70.9,35.3l-7.8,18.3c-0.8,2-1.8,3.4-2.9,4.2C59,58.6,57.6,59,56,59c-0.9,0-1.8-0.1-2.7-0.4
		c-0.9-0.3-1.6-0.7-2.1-1.2l1.8-3.6c0.4,0.3,0.8,0.6,1.3,0.8c0.5,0.2,1,0.3,1.5,0.3c0.7,0,1.2-0.2,1.7-0.5c0.4-0.3,0.8-0.9,1.2-1.6
		l0.1-0.2l-7.5-17.3h5.2L61.2,47l4.9-11.7H70.9z"/>
</g>
<line class="st2" x1="25.2" y1="66.6" x2="8.7" y2="83.3"/>
<path class="st3" d="M49.9,18.1c12.3,0,22.8,8.4,25.8,19.7c0.6,2.2,0.9,4.6,0.9,7.1c0,5.7-1.7,11.1-4.8,15.3
	c-2.7,4-6.6,7.3-11.3,9.2c-2.4,1.1-5,1.7-7.8,2c-1.1,0.1-1.9,0.2-3,0.2c-4.6,0-8.8-1.2-12.6-3.2c-3-1.6-5.6-3.7-7.8-6.2
	c-4-4.7-6.4-10.8-6.4-17.4C23.1,30.1,35.1,18.1,49.9,18.1 M49.9,13.7c-17.3,0-31.3,14-31.3,31.3c0,7.5,2.6,14.6,7.5,20.3
	c2.5,2.9,5.6,5.4,9.1,7.3c4.5,2.4,9.6,3.7,14.7,3.7c1.2,0,2.3-0.1,3.5-0.2c3.2-0.3,6.2-1.2,9.1-2.4c5.3-2.3,9.8-6,13.1-10.7
	c3.7-5.3,5.7-11.5,5.7-17.9c0-2.7-0.3-5.5-1.1-8.2C76.3,23.2,63.9,13.7,49.9,13.7L49.9,13.7z"/>
<path class="st3" d="M23.3,60.6l-3,2.9c-0.4,0.4-0.4,1,0,1.4l7.2,7.1c0.4,0.4,1,0.4,1.4,0l2.9-3.1L23.3,60.6z"/>
</svg>
