<?xml version="1.0" encoding="utf-8"?>
<!-- Generator: Adobe Illustrator 23.1.1, SVG Export Plug-In . SVG Version: 6.00 Build 0)  -->
<svg version="1.1" id="Layer_1" xmlns="http://www.w3.org/2000/svg" xmlns:xlink="http://www.w3.org/1999/xlink" x="0px" y="0px"
	 viewBox="0 0 100 100" style="enable-background:new 0 0 100 100;" xml:space="preserve">
<style type="text/css">
	.st0{enable-background:new    ;}
	.st1{fill:#6A6B6A;}
	.st2{fill:none;stroke:#7F7F7F;stroke-width:7;stroke-linecap:round;stroke-miterlimit:10;}
	.st3{fill:#9D9E9E;}
</style>
<g class="st0">
	<path class="st1" d="M47.8,51.4c-1.6,1.4-3.9,2.2-6.9,2.4v5.3h-4.1v-5.3c-3-0.2-5.3-1-6.9-2.4c-1.6-1.4-2.4-3.3-2.4-5.8
		c0-2.4,0.8-4.3,2.4-5.6s3.9-2.1,6.9-2.3V32h4.1v5.7c3,0.2,5.3,1,6.9,2.3c1.6,1.4,2.4,3.2,2.4,5.6C50.2,48.1,49.4,50,47.8,51.4z
		 M33,48.9c0.8,0.8,2,1.2,3.8,1.4v-9.1c-1.7,0.2-3,0.6-3.8,1.3c-0.8,0.7-1.2,1.8-1.2,3.1C31.8,47.1,32.2,48.2,33,48.9z M44.7,48.9
		c0.8-0.8,1.2-1.8,1.2-3.2c0-1.3-0.4-2.4-1.2-3.1c-0.8-0.7-2.1-1.2-3.8-1.3v9.1C42.6,50.2,43.9,49.7,44.7,48.9z"/>
	<path class="st1" d="M53.3,38h4.5v9.3l7.6-9.3h4.1v15.6h-4.5v-9.3l-7.6,9.3h-4.2V38z M56,31.8h3c0,0.7,0.2,1.2,0.6,1.6
		c0.4,0.4,0.9,0.6,1.6,0.6s1.2-0.2,1.6-0.6s0.6-0.9,0.6-1.6h3c0,3-1.7,4.5-5.2,4.5C57.7,36.3,56,34.8,56,31.8z"/>
</g>
<line class="st2" x1="25.2" y1="66.6" x2="8.7" y2="83.3"/>
<path class="st3" d="M49.9,18.1c12.3,0,22.8,8.4,25.8,19.7c0.6,2.2,0.9,4.6,0.9,7.1c0,5.7-1.7,11.1-4.8,15.3
	c-2.7,4-6.6,7.3-11.3,9.2c-2.4,1.1-5,1.7-7.8,2c-1.1,0.1-1.9,0.2-3,0.2c-4.6,0-8.8-1.2-12.6-3.2c-3-1.6-5.6-3.7-7.8-6.2
	c-4-4.7-6.4-10.8-6.4-17.4C23.1,30.1,35.1,18.1,49.9,18.1 M49.9,13.7c-17.3,0-31.3,14-31.3,31.3c0,7.5,2.6,14.6,7.5,20.3
	c2.5,2.9,5.6,5.4,9.1,7.3c4.5,2.4,9.6,3.7,14.7,3.7c1.2,0,2.3-0.1,3.5-0.2c3.2-0.3,6.2-1.2,9.1-2.4c5.3-2.3,9.8-6,13.1-10.7
	c3.7-5.3,5.7-11.5,5.7-17.9c0-2.7-0.3-5.5-1.1-8.2C76.3,23.2,63.9,13.7,49.9,13.7L49.9,13.7z"/>
<path class="st3" d="M23.3,60.6l-3,2.9c-0.4,0.4-0.4,1,0,1.4l7.2,7.1c0.4,0.4,1,0.4,1.4,0l2.9-3.1L23.3,60.6z"/>
</svg>
