<?xml version="1.0" encoding="utf-8"?>
<!-- Generator: Adobe Illustrator 24.2.1, SVG Export Plug-In . SVG Version: 6.00 Build 0)  -->
<svg version="1.1" id="Layer_1" xmlns="http://www.w3.org/2000/svg" xmlns:xlink="http://www.w3.org/1999/xlink" x="0px" y="0px"
	 viewBox="0 0 100 100" style="enable-background:new 0 0 100 100;" xml:space="preserve">
<style type="text/css">
	.st0{fill:#FFFFFF;fill-opacity:0;}
	.st1{enable-background:new    ;}
	.st2{fill:#6A6B6A;}
	.st3{fill:#7F7F7F;}
	.st4{fill:#B4B4B5;}
	.st5{fill:#9D9E9E;}
	.st6{fill:#CCCCCC;}
</style>
<rect x="9.5" y="9.5" class="st0" width="81" height="81"/>
<g class="st1">
	<path class="st2" d="M40,22.2c0-0.3,0.2-0.5,0.5-0.8C40.2,21.7,40,22,40,22.2z"/>
	<path class="st2" d="M52.1,15.7c-0.2,0.5-0.4,2.6-1.1,2.8c0,0-8.5,4.1-8.5,4.1c-0.2,3.6,0.7,10.3-1.6,13.2
		c-7,4.5-15.9,1.3-11.7-8.1c0.5-0.2,0.9-0.2,1.1,0.4c-2.9,6.5,5.7,7.4,10.2,4.6c0.3-3.3-0.5-9.7-0.6-10.5c0.1-0.8,1.2-1.5,1.8-1.9
		c2.1-1.4,5.9-3.2,10-5C52,15.3,52.2,15.5,52.1,15.7z"/>
	<path class="st2" d="M41.8,20.3c-0.3,0.2-0.8,0.5-1.1,0.9C41,20.9,41.4,20.7,41.8,20.3z"/>
	<path class="st2" d="M62.4,35.9c-0.6,0.9-1.5,1.6-3.2,1.6c-0.2,1.5-0.7,2.7-1.4,3.6c-1.2,1.5-3.2,2.5-5.3,2.5
		c-3.6,0-5.4-2.7-5.4-5.9c0-1.6,0.4-3.5,1.5-5.1l1,0.5c-0.6,1.3-0.8,2.3-0.8,2.9c0,1.2,0.2,2.2,1.2,3.1c0.9,0.7,1.8,1,2.9,1
		c1.3,0,2.4-0.4,3.4-1.1c0.8-0.6,1.4-1.1,1.5-1.7c0-1.2-0.9-2.8-1.9-4.5c0.6-1.1,1.2-2.1,1.8-2.9l0.2,0c0.4,0.9,0.8,1.8,1.2,2.9
		c0.2,0.6,0.6,1,1.3,1c0.3,0,0.7-0.1,1.1-0.4c0.7-0.5,0.8-1.7,1.1-2.6c0.5-0.3,1-0.6,1.4-0.8l0.1,0.1c-0.1,0.5-0.2,0.9-0.2,1.4
		c0,0.6,0.1,1.1,0.5,1.5c0.4,0.4,0.9,0.6,1.4,0.6c0.3,0,0.6-0.1,0.7-0.2c0-0.6-0.2-1.8-0.6-3.2c0.7-0.7,1.3-1.4,1.9-2l0.2,0.1
		c0.2,1.3,0.4,2.5,0.4,3.8c0,1.3-0.3,2.3-1,3.3c-0.8,1.1-1.6,1.9-2.6,1.9c-0.7,0-1.4-0.3-2.3-1.3L62.4,35.9L62.4,35.9z M60.3,23.9
		c0.8,0.7,1.5,1.4,2.1,2.1c-0.4,0.7-1,1.3-1.6,1.9c-0.7-0.7-1.4-1.3-2.2-2L60.3,23.9z M61.8,20c0.8,0.7,1.5,1.4,2.1,2.1
		c-0.4,0.7-1,1.3-1.6,1.9c-0.7-0.7-1.4-1.3-2.2-2L61.8,20z M64.1,23.7c0.8,0.7,1.6,1.4,2.1,2.1c-0.4,0.7-1,1.3-1.6,1.9
		c-0.7-0.7-1.4-1.3-2.2-2L64.1,23.7z"/>
</g>
<path class="st3" d="M85.2,50.1l-0.3-0.8H57.7l-9.2,12.3l-9-12.2c0,0-21.8,0-27,0c-0.1,0.2-0.2,0.5-0.3,0.7
	c2.5,2.4,9.6,10.5,9.6,10.5s0,9.7-0.1,15.7c0,1.8,0.5,2.8,2.4,3.2c7.6,1.8,15.1,3.8,22.6,5.8c1.2,0.3,2.5,0.3,3.7-0.1
	c3.6-0.9,14.5-3.7,14.5-3.7c2.7-0.7,5.5-1.4,8.2-2.1c1.6-0.4,2.4-1.2,2.3-3c-0.1-4.8,0-16,0-16L85.2,50.1z"/>
<path class="st4" d="M75.5,76.5c0.1,1.8-0.7,2.6-2.3,3c-2.7,0.7-5.5,1.4-8.2,2.1c0,0-0.4,0.1-1.2,0.3c-2.9,0.8-10.4,2.7-13.3,3.4
	c-1.3,0.3-2.6,0.3-3.8,0.1c-7.5-1.9-15-3.9-22.6-5.8c-1.8-0.4-2.4-1.4-2.4-3.2c0.1-6.1,0.1-15.7,0.1-15.7l26.9,2.2l0.6-0.1l26.3-2.2
	C75.5,60.6,75.4,71.8,75.5,76.5z"/>
<path class="st5" d="M75.5,76.5c0.1,1.8-0.7,2.6-2.3,3c-2.7,0.7-5.5,1.4-8.2,2.1c0,0-0.4,0.1-1.2,0.3L63,81.7l-13.8-19l26.3-2.1
	C75.5,60.6,75.4,71.8,75.5,76.5z"/>
<polygon class="st6" points="49.2,62.7 63.3,82.1 59,83.1 46.7,66.8 46.7,62.6 "/>
</svg>
