<?xml version="1.0" encoding="utf-8"?>
<!-- Generator: Adobe Illustrator 24.2.3, SVG Export Plug-In . SVG Version: 6.00 Build 0)  -->
<svg version="1.1" id="Layer_1" xmlns="http://www.w3.org/2000/svg" xmlns:xlink="http://www.w3.org/1999/xlink" x="0px" y="0px"
	 viewBox="0 0 100 100" style="enable-background:new 0 0 100 100;" xml:space="preserve">
<style type="text/css">
	.st0{fill:#FFFFFF;fill-opacity:0;}
	.st1{enable-background:new    ;}
	.st2{fill:#6A6B6A;}
	.st3{fill:none;stroke:#7F7F7F;stroke-width:7;stroke-linecap:round;stroke-miterlimit:10;}
	.st4{fill:#9D9E9E;}
</style>
<rect x="9.5" y="18.2" class="st0" width="81" height="81"/>
<g class="st1">
	<path class="st2" d="M44,34.6c0-0.3,0.2-0.5,0.5-0.8C44.2,34.1,44,34.4,44,34.6z"/>
	<path class="st2" d="M45.8,32.7c-0.3,0.2-0.8,0.5-1.1,0.9C45,33.3,45.4,33.1,45.8,32.7z"/>
	<g class="st1">
		<path class="st2" d="M47.9,55.1L47.9,55.1l-0.2,0.2c-1-0.4-1.8-0.8-2.2-1.2s-0.8-0.8-0.9-1.3c-0.1-0.5-7.7-18.5-7.7-18.5l-0.6-1
			L35.8,32l0,0l0.1-0.2c0.7,0.2,1.2,0.4,1.7,0.7c0.4,0.3,0.8,0.8,1,1.3C38.9,33.7,47.8,54.6,47.9,55.1z"/>
	</g>
	<g class="st1">
		<path class="st2" d="M62.2,39.7c0-0.3,0.2-0.5,0.5-0.8C62.4,39.2,62.2,39.5,62.2,39.7z"/>
		<path class="st2" d="M74.3,33.2c-0.2,0.5-0.4,2.6-1.1,2.8l-8.5,4.1c-0.2,3.6,0.7,10.3-1.6,13.2c-7,4.5-15.9,1.3-11.7-8.1
			c0.5-0.2,0.9-0.2,1.1,0.4c-2.9,6.5,5.7,7.4,10.2,4.6c0.3-3.3-0.5-9.7-0.6-10.5c0.1-0.8,1.2-1.5,1.8-1.9c2.1-1.4,5.9-3.2,10-5
			C74.2,32.8,74.4,33,74.3,33.2z"/>
		<path class="st2" d="M64,37.8c-0.3,0.2-0.8,0.5-1.1,0.9C63.2,38.4,63.6,38.2,64,37.8z"/>
	</g>
	<g class="st1">
		<path class="st2" d="M73.1,31.5L73.1,31.5L73.1,31.5c-0.4-0.3-0.8-0.3-1.1-0.3c-0.3,0-0.5,0-0.7,0.2c-0.2,0.1-8,4-8,4l-0.5,0.2
			L62.2,36l0,0V36c0.3,0.1,0.5,0.2,0.7,0.3c0.2,0,0.5,0,0.7-0.1C63.8,36,72.9,31.7,73.1,31.5z"/>
	</g>
</g>
<line class="st3" x1="28.4" y1="65.1" x2="11.9" y2="81.8"/>
<path class="st4" d="M53.1,16.6c12.3,0,22.8,8.4,25.8,19.7c0.6,2.2,0.9,4.6,0.9,7.1c0,5.7-1.7,11.1-4.8,15.3
	c-2.7,4-6.6,7.3-11.3,9.2c-2.4,1.1-5,1.7-7.8,2c-1.1,0.1-1.9,0.2-3,0.2c-4.6,0-8.8-1.2-12.6-3.2c-3-1.6-5.6-3.7-7.8-6.2
	c-4-4.7-6.4-10.8-6.4-17.4C26.3,28.6,38.3,16.6,53.1,16.6 M53.1,12.2c-17.3,0-31.3,14-31.3,31.3c0,7.5,2.6,14.6,7.5,20.3
	c2.5,2.9,5.6,5.4,9.1,7.3c4.5,2.4,9.6,3.7,14.7,3.7c1.2,0,2.3-0.1,3.5-0.2c3.2-0.3,6.2-1.2,9.1-2.4c5.3-2.3,9.8-6,13.1-10.7
	c3.7-5.3,5.7-11.5,5.7-17.9c0-2.7-0.3-5.5-1.1-8.2C79.5,21.7,67.1,12.2,53.1,12.2L53.1,12.2z"/>
<path class="st4" d="M26.5,59.1l-3,2.9c-0.4,0.4-0.4,1,0,1.4l7.2,7.1c0.4,0.4,1,0.4,1.4,0l2.9-3.1L26.5,59.1z"/>
</svg>
