<?xml version="1.0" encoding="utf-8"?>
<!-- Generator: Adobe Illustrator 24.2.3, SVG Export Plug-In . SVG Version: 6.00 Build 0)  -->
<svg version="1.1" id="Layer_1" xmlns="http://www.w3.org/2000/svg" xmlns:xlink="http://www.w3.org/1999/xlink" x="0px" y="0px"
	 viewBox="0 0 100 100" style="enable-background:new 0 0 100 100;" xml:space="preserve">
<style type="text/css">
	.st0{fill:#FFFFFF;fill-opacity:0;}
	.st1{enable-background:new    ;}
	.st2{fill:#6A6B6A;}
	.st3{fill:none;stroke:#7F7F7F;stroke-width:7;stroke-linecap:round;stroke-miterlimit:10;}
	.st4{fill:#9D9E9E;}
</style>
<rect x="9.5" y="18.2" class="st0" width="81" height="81"/>
<g class="st1">
	<path class="st2" d="M44,34.6c0-0.3,0.2-0.5,0.5-0.8C44.2,34.1,44,34.4,44,34.6z"/>
	<path class="st2" d="M56.1,28.1c-0.2,0.5-0.4,2.6-1.1,2.8L46.5,35c-0.2,3.6,0.7,10.3-1.6,13.2c-7,4.5-15.9,1.3-11.7-8.1
		c0.5-0.2,0.9-0.2,1.1,0.4c-2.9,6.5,5.7,7.4,10.2,4.6c0.3-3.3-0.5-9.7-0.6-10.5c0.1-0.8,1.2-1.5,1.8-1.9c2.1-1.4,5.9-3.2,10-5
		C56,27.7,56.2,27.9,56.1,28.1z"/>
	<path class="st2" d="M45.8,32.7c-0.3,0.2-0.8,0.5-1.1,0.9C45,33.3,45.4,33.1,45.8,32.7z"/>
	<path class="st2" d="M66.4,48.3c-0.6,0.9-1.5,1.6-3.2,1.6c-0.2,1.5-0.7,2.7-1.4,3.6C60.6,55,58.6,56,56.5,56
		c-3.6,0-5.4-2.7-5.4-5.9c0-1.6,0.4-3.5,1.5-5.1l1,0.5c-0.6,1.3-0.8,2.3-0.8,2.9c0,1.2,0.2,2.2,1.2,3.1c0.9,0.7,1.8,1,2.9,1
		c1.3,0,2.4-0.4,3.4-1.1c0.8-0.6,1.4-1.1,1.5-1.7c0-1.2-0.9-2.8-1.9-4.5c0.6-1.1,1.2-2.1,1.8-2.9h0.2c0.4,0.9,0.8,1.8,1.2,2.9
		c0.2,0.6,0.6,1,1.3,1c0.3,0,0.7-0.1,1.1-0.4c0.7-0.5,0.8-1.7,1.1-2.6c0.5-0.3,1-0.6,1.4-0.8l0.1,0.1c-0.1,0.5-0.2,0.9-0.2,1.4
		c0,0.6,0.1,1.1,0.5,1.5s0.9,0.6,1.4,0.6c0.3,0,0.6-0.1,0.7-0.2c0-0.6-0.2-1.8-0.6-3.2c0.7-0.7,1.3-1.4,1.9-2l0.2,0.1
		c0.2,1.3,0.4,2.5,0.4,3.8s-0.3,2.3-1,3.3c-0.8,1.1-1.6,1.9-2.6,1.9C68.1,49.7,67.4,49.4,66.4,48.3L66.4,48.3L66.4,48.3z M64.3,36.3
		c0.8,0.7,1.5,1.4,2.1,2.1c-0.4,0.7-1,1.3-1.6,1.9c-0.7-0.7-1.4-1.3-2.2-2L64.3,36.3z M65.8,32.4c0.8,0.7,1.5,1.4,2.1,2.1
		c-0.4,0.7-1,1.3-1.6,1.9c-0.7-0.7-1.4-1.3-2.2-2L65.8,32.4z M68.1,36.1c0.8,0.7,1.6,1.4,2.1,2.1c-0.4,0.7-1,1.3-1.6,1.9
		c-0.7-0.7-1.4-1.3-2.2-2L68.1,36.1z"/>
</g>
<line class="st3" x1="28.4" y1="65.1" x2="11.9" y2="81.8"/>
<path class="st4" d="M53.1,16.6c12.3,0,22.8,8.4,25.8,19.7c0.6,2.2,0.9,4.6,0.9,7.1c0,5.7-1.7,11.1-4.8,15.3
	c-2.7,4-6.6,7.3-11.3,9.2c-2.4,1.1-5,1.7-7.8,2c-1.1,0.1-1.9,0.2-3,0.2c-4.6,0-8.8-1.2-12.6-3.2c-3-1.6-5.6-3.7-7.8-6.2
	c-4-4.7-6.4-10.8-6.4-17.4C26.3,28.6,38.3,16.6,53.1,16.6 M53.1,12.2c-17.3,0-31.3,14-31.3,31.3c0,7.5,2.6,14.6,7.5,20.3
	c2.5,2.9,5.6,5.4,9.1,7.3c4.5,2.4,9.6,3.7,14.7,3.7c1.2,0,2.3-0.1,3.5-0.2c3.2-0.3,6.2-1.2,9.1-2.4c5.3-2.3,9.8-6,13.1-10.7
	c3.7-5.3,5.7-11.5,5.7-17.9c0-2.7-0.3-5.5-1.1-8.2C79.5,21.7,67.1,12.2,53.1,12.2L53.1,12.2z"/>
<path class="st4" d="M26.5,59.1l-3,2.9c-0.4,0.4-0.4,1,0,1.4l7.2,7.1c0.4,0.4,1,0.4,1.4,0l2.9-3.1L26.5,59.1z"/>
</svg>
