<?xml version="1.0" encoding="utf-8"?>
<!-- Generator: Adobe Illustrator 24.2.3, SVG Export Plug-In . SVG Version: 6.00 Build 0)  -->
<svg version="1.1" id="Layer_1" xmlns="http://www.w3.org/2000/svg" xmlns:xlink="http://www.w3.org/1999/xlink" x="0px" y="0px"
	 viewBox="0 0 100 100" style="enable-background:new 0 0 100 100;" xml:space="preserve">
<style type="text/css">
	.st0{fill:#FFFFFF;fill-opacity:0;}
	.st1{enable-background:new    ;}
	.st2{fill:#6A6B6A;}
	.st3{fill:#7F7F7F;}
	.st4{fill:#B4B4B5;}
	.st5{fill:#9D9E9E;}
	.st6{fill:#CCCCCC;}
</style>
<rect x="9.5" y="9.5" class="st0" width="81" height="81"/>
<g class="st1">
	<path class="st2" d="M44.3,39.2L44.3,39.2l-0.2,0.2c-1-0.4-1.8-0.8-2.2-1.2s-0.8-0.8-0.9-1.3c-0.1-0.5-7.7-18.5-7.7-18.5l-0.6-1
		L32.3,16l0,0l0.1-0.2c0.7,0.2,1.2,0.4,1.7,0.7c0.4,0.3,0.8,0.8,1,1.3C35.3,17.8,44.2,38.6,44.3,39.2z"/>
</g>
<g class="st1">
	<path class="st2" d="M58.6,23.8c0-0.3,0.2-0.5,0.5-0.8C58.8,23.3,58.6,23.6,58.6,23.8z"/>
	<path class="st2" d="M70.7,17.3c-0.2,0.5-0.4,2.6-1.1,2.8l-8.5,4.1c-0.2,3.6,0.7,10.3-1.6,13.2c-7,4.5-15.9,1.3-11.7-8.1
		c0.5-0.2,0.9-0.2,1.1,0.4c-2.9,6.5,5.7,7.4,10.2,4.6c0.3-3.3-0.5-9.7-0.6-10.5c0.1-0.8,1.2-1.5,1.8-1.9c2.1-1.4,5.9-3.2,10-5
		C70.6,16.9,70.8,17.1,70.7,17.3z"/>
	<path class="st2" d="M60.4,21.9c-0.3,0.2-0.8,0.5-1.1,0.9C59.6,22.5,60,22.3,60.4,21.9z"/>
</g>
<path class="st3" d="M85.2,50.1l-0.3-0.8H57.7l-9.2,12.3l-9-12.2c0,0-21.8,0-27,0c-0.1,0.2-0.2,0.5-0.3,0.7
	c2.5,2.4,9.6,10.5,9.6,10.5s0,9.7-0.1,15.7c0,1.8,0.5,2.8,2.4,3.2c7.6,1.8,15.1,3.8,22.6,5.8c1.2,0.3,2.5,0.3,3.7-0.1
	c3.6-0.9,14.5-3.7,14.5-3.7c2.7-0.7,5.5-1.4,8.2-2.1c1.6-0.4,2.4-1.2,2.3-3c-0.1-4.8,0-16,0-16L85.2,50.1z"/>
<path class="st4" d="M75.5,76.5c0.1,1.8-0.7,2.6-2.3,3c-2.7,0.7-5.5,1.4-8.2,2.1c0,0-0.4,0.1-1.2,0.3c-2.9,0.8-10.4,2.7-13.3,3.4
	c-1.3,0.3-2.6,0.3-3.8,0.1c-7.5-1.9-15-3.9-22.6-5.8c-1.8-0.4-2.4-1.4-2.4-3.2c0.1-6.1,0.1-15.7,0.1-15.7l26.9,2.2l0.6-0.1l26.3-2.2
	C75.5,60.6,75.4,71.8,75.5,76.5z"/>
<path class="st5" d="M75.5,76.5c0.1,1.8-0.7,2.6-2.3,3c-2.7,0.7-5.5,1.4-8.2,2.1c0,0-0.4,0.1-1.2,0.3L63,81.7l-13.8-19l26.3-2.1
	C75.5,60.6,75.4,71.8,75.5,76.5z"/>
<polygon class="st6" points="49.2,62.7 63.3,82.1 59,83.1 46.7,66.8 46.7,62.6 "/>
<g class="st1">
	<path class="st2" d="M68.7,16.7L68.7,16.7v-0.1c-0.4-0.2-0.8-0.2-1.1-0.2c-0.3,0-0.5,0-0.7,0.2c-0.2,0.1-8,4-8,4l-0.5,0.2l-0.5,0.1
		l0,0V21c0.3,0.1,0.5,0.2,0.7,0.3c0.2,0,0.5,0,0.7-0.1C59.4,21.2,68.5,16.8,68.7,16.7z"/>
</g>
</svg>
