<?xml version="1.0" encoding="utf-8"?>
<!-- Generator: Adobe Illustrator 23.1.1, SVG Export Plug-In . SVG Version: 6.00 Build 0)  -->
<svg version="1.1" id="Layer_1" xmlns="http://www.w3.org/2000/svg" xmlns:xlink="http://www.w3.org/1999/xlink" x="0px" y="0px"
	 viewBox="0 0 100 100" style="enable-background:new 0 0 100 100;" xml:space="preserve">
<style type="text/css">
	.st0{fill:#FFFFFF;fill-opacity:0;}
	.st1{enable-background:new    ;}
	.st2{fill:#6A6B6A;}
	.st3{fill:#7F7F7F;}
	.st4{fill:#B4B4B5;}
	.st5{fill:#9D9E9E;}
	.st6{fill:#CCCCCC;}
</style>
<rect x="9.5" y="9.5" class="st0" width="81" height="81"/>
<g class="st1">
	<path class="st2" d="M28.5,38.2c-2-1.1-3.5-2.5-4.7-4.4c-1.1-1.9-1.7-4-1.7-6.3c0-2.3,0.6-4.4,1.7-6.3c1.1-1.9,2.7-3.3,4.7-4.4
		c2-1.1,4.2-1.6,6.7-1.6c2.5,0,4.7,0.5,6.7,1.6c2,1.1,3.5,2.5,4.7,4.4c1.1,1.9,1.7,4,1.7,6.3c0,2.3-0.6,4.4-1.7,6.3
		c-1.1,1.9-2.7,3.3-4.7,4.4c-2,1.1-4.2,1.6-6.7,1.6C32.7,39.8,30.5,39.3,28.5,38.2z M39,34.1c1.1-0.6,2-1.5,2.7-2.7s1-2.5,1-3.9
		c0-1.5-0.3-2.8-1-3.9c-0.6-1.2-1.5-2.1-2.7-2.7c-1.1-0.6-2.4-1-3.8-1c-1.4,0-2.7,0.3-3.8,1c-1.1,0.6-2,1.5-2.7,2.7
		c-0.6,1.2-1,2.5-1,3.9c0,1.5,0.3,2.8,1,3.9s1.5,2.1,2.7,2.7c1.1,0.6,2.4,1,3.8,1C36.6,35.1,37.9,34.8,39,34.1z M36.7,8.8h5.7
		l-6.2,4.9h-4.1L36.7,8.8z"/>
	<path class="st2" d="M55,37c-1.9-1.9-2.8-4.6-2.8-8.1V15.6h5.5v13.1c0,4.3,1.8,6.4,5.3,6.4c1.7,0,3-0.5,3.9-1.5
		c0.9-1,1.4-2.6,1.4-4.8V15.6h5.4v13.3c0,3.5-0.9,6.2-2.8,8.1c-1.9,1.9-4.5,2.8-7.9,2.8C59.5,39.8,56.9,38.9,55,37z M60,8.8h5
		l-3.5,4.9h-3.9L60,8.8z M66.9,8.8h5l-3.5,4.9h-3.9L66.9,8.8z"/>
</g>
<path class="st3" d="M85.2,50.1l-0.3-0.8H57.7l-9.2,12.3l-9-12.2c0,0-21.8,0-27,0c-0.1,0.2-0.2,0.5-0.3,0.7
	c2.5,2.4,9.6,10.5,9.6,10.5s0,9.7-0.1,15.7c0,1.8,0.5,2.8,2.4,3.2c7.6,1.8,15.1,3.8,22.6,5.8c1.2,0.3,2.5,0.3,3.7-0.1
	c3.6-0.9,14.5-3.7,14.5-3.7c2.7-0.7,5.5-1.4,8.2-2.1c1.6-0.4,2.4-1.2,2.3-3c-0.1-4.8,0-16,0-16L85.2,50.1z"/>
<path class="st4" d="M75.5,76.5c0.1,1.8-0.7,2.6-2.3,3c-2.7,0.7-5.5,1.4-8.2,2.1c0,0-0.4,0.1-1.2,0.3c-2.9,0.8-10.4,2.7-13.3,3.4
	c-1.3,0.3-2.6,0.3-3.8,0.1c-7.5-1.9-15-3.9-22.6-5.8c-1.8-0.4-2.4-1.4-2.4-3.2c0.1-6.1,0.1-15.7,0.1-15.7l26.9,2.2l0.6-0.1l26.3-2.2
	C75.5,60.6,75.4,71.8,75.5,76.5z"/>
<path class="st5" d="M75.5,76.5c0.1,1.8-0.7,2.6-2.3,3c-2.7,0.7-5.5,1.4-8.2,2.1c0,0-0.4,0.1-1.2,0.3L63,81.7l-13.8-19l26.3-2.1
	C75.5,60.6,75.4,71.8,75.5,76.5z"/>
<polygon class="st6" points="49.2,62.7 63.3,82.1 59,83.1 46.7,66.8 46.7,62.6 "/>
</svg>
