<?xml version="1.0" encoding="utf-8"?>
<!-- Generator: Adobe Illustrator 25.1.0, SVG Export Plug-In . SVG Version: 6.00 Build 0)  -->
<svg version="1.1" id="Layer_1" xmlns="http://www.w3.org/2000/svg" xmlns:xlink="http://www.w3.org/1999/xlink" x="0px" y="0px"
	 viewBox="0 0 100 100" style="enable-background:new 0 0 100 100;" xml:space="preserve">
<style type="text/css">
	.st0{fill:none;stroke:#7F7F7F;stroke-width:7;stroke-linecap:round;stroke-miterlimit:10;}
	.st1{fill:#9D9E9E;}
	.st2{fill:#6A6B6A;}
</style>
<line class="st0" x1="25.2" y1="66.6" x2="8.7" y2="83.3"/>
<path class="st1" d="M49.9,18.1c12.3,0,22.8,8.4,25.8,19.7c0.6,2.2,0.9,4.6,0.9,7.1c0,5.7-1.7,11.1-4.8,15.3
	c-2.7,4-6.6,7.3-11.3,9.2c-2.4,1.1-5,1.7-7.8,2c-1.1,0.1-1.9,0.2-3,0.2c-4.6,0-8.8-1.2-12.6-3.2c-3-1.6-5.6-3.7-7.8-6.2
	c-4-4.7-6.4-10.8-6.4-17.4C23.1,30.1,35.1,18.1,49.9,18.1 M49.9,13.7c-17.3,0-31.3,14-31.3,31.3c0,7.5,2.6,14.6,7.5,20.3
	c2.5,2.9,5.6,5.4,9.1,7.3c4.5,2.4,9.6,3.7,14.7,3.7c1.2,0,2.3-0.1,3.5-0.2c3.2-0.3,6.2-1.2,9.1-2.4c5.3-2.3,9.8-6,13.1-10.7
	c3.7-5.3,5.7-11.5,5.7-17.9c0-2.7-0.3-5.5-1.1-8.2C76.3,23.2,63.9,13.7,49.9,13.7L49.9,13.7z"/>
<path class="st1" d="M23.3,60.6l-3,2.9c-0.4,0.4-0.4,1,0,1.4l7.2,7.1c0.4,0.4,1,0.4,1.4,0l2.9-3.1L23.3,60.6z"/>
<g>
	<path class="st2" d="M47.3,54.9h-5.7V52c-1.2,2.1-3.2,3.2-5.8,3.2c-3.9,0-6.4-2.6-6.4-6.8V37.1h5.7v9.6c0,2.1,1.2,3.4,3,3.4
		c2.2,0,3.5-1.8,3.5-4.2v-8.8h5.7V54.9z M32.7,32.1c0-1.5,1.1-2.6,2.6-2.6s2.6,1.1,2.6,2.6s-1.1,2.5-2.6,2.5S32.7,33.5,32.7,32.1z
		 M39.1,32.1c0-1.5,1.1-2.6,2.6-2.6s2.6,1.1,2.6,2.6s-1.1,2.5-2.6,2.5C40.2,34.6,39.1,33.5,39.1,32.1z M55.2,32.1
		c0-1.5,1.1-2.6,2.6-2.6s2.6,1.1,2.6,2.6s-1.1,2.5-2.6,2.5S55.2,33.5,55.2,32.1z M61.6,32.1c0-1.5,1.1-2.6,2.6-2.6s2.6,1.1,2.6,2.6
		s-1.1,2.5-2.6,2.5C62.7,34.6,61.6,33.5,61.6,32.1z"/>
	<path class="st2" d="M55.3,54.8c-1.6-0.9-2.9-2.1-3.9-3.6c-1-1.5-1.4-3.3-1.4-5.3c0-2,0.4-3.7,1.4-5.3c1-1.6,2.3-2.7,3.9-3.6
		c1.6-0.9,3.6-1.3,5.7-1.3c2.1,0,3.9,0.4,5.7,1.3c1.6,0.9,2.9,2.1,3.9,3.6c1,1.5,1.4,3.3,1.4,5.3c0,2-0.4,3.7-1.4,5.3
		c-1,1.5-2.3,2.7-3.9,3.6s-3.5,1.3-5.7,1.3C58.9,56.1,57.1,55.7,55.3,54.8z M64.7,49.8c1-1,1.4-2.3,1.4-4c0-1.6-0.4-3.1-1.4-4
		c-1-1-2.2-1.5-3.6-1.5c-1.5,0-2.7,0.5-3.7,1.5S56,44,56,45.7c0,1.6,0.4,3.1,1.4,4c1,1,2.2,1.5,3.7,1.5
		C62.5,51.3,63.7,50.9,64.7,49.8z"/>
</g>
</svg>
