<?xml version="1.0" encoding="utf-8"?>
<!-- Generator: Adobe Illustrator 25.1.0, SVG Export Plug-In . SVG Version: 6.00 Build 0)  -->
<svg version="1.1" id="Layer_1" xmlns="http://www.w3.org/2000/svg" xmlns:xlink="http://www.w3.org/1999/xlink" x="0px" y="0px"
	 viewBox="0 0 100 100" style="enable-background:new 0 0 100 100;" xml:space="preserve">
<style type="text/css">
	.st0{fill:#FFFFFF;fill-opacity:0;}
	.st1{fill:#7F7F7F;}
	.st2{fill:#B4B4B5;}
	.st3{fill:#9D9E9E;}
	.st4{fill:#CCCCCC;}
	.st5{fill:#6A6B6A;}
</style>
<rect x="9.5" y="9.5" class="st0" width="81" height="81"/>
<path class="st1" d="M85.2,50.1l-0.3-0.8H57.7l-9.2,12.3l-9-12.2c0,0-21.8,0-27,0c-0.1,0.2-0.2,0.5-0.3,0.7
	c2.5,2.4,9.6,10.5,9.6,10.5s0,9.7-0.1,15.7c0,1.8,0.5,2.8,2.4,3.2c7.6,1.8,15.1,3.8,22.6,5.8c1.2,0.3,2.5,0.3,3.7-0.1
	c3.6-0.9,14.5-3.7,14.5-3.7c2.7-0.7,5.5-1.4,8.2-2.1c1.6-0.4,2.4-1.2,2.3-3c-0.1-4.8,0-16,0-16L85.2,50.1z"/>
<path class="st2" d="M75.5,76.5c0.1,1.8-0.7,2.6-2.3,3c-2.7,0.7-5.5,1.4-8.2,2.1c0,0-0.4,0.1-1.2,0.3c-2.9,0.8-10.4,2.7-13.3,3.4
	c-1.3,0.3-2.6,0.3-3.8,0.1c-7.5-1.9-15-3.9-22.6-5.8c-1.8-0.4-2.4-1.4-2.4-3.2c0.1-6.1,0.1-15.7,0.1-15.7l26.9,2.2l0.6-0.1l26.3-2.2
	C75.5,60.6,75.4,71.8,75.5,76.5z"/>
<path class="st3" d="M75.5,76.5c0.1,1.8-0.7,2.6-2.3,3c-2.7,0.7-5.5,1.4-8.2,2.1c0,0-0.4,0.1-1.2,0.3L63,81.7l-13.8-19l26.3-2.1
	C75.5,60.6,75.4,71.8,75.5,76.5z"/>
<polygon class="st4" points="49.2,62.7 63.3,82.1 59,83.1 46.7,66.8 46.7,62.6 "/>
<g>
	<path class="st5" d="M47.4,44h-5.7v-2.9c-1.2,2.1-3.2,3.2-5.8,3.2c-3.9,0-6.4-2.6-6.4-6.8V26.2h5.7v9.6c0,2.1,1.2,3.4,3,3.4
		c2.2,0,3.5-1.8,3.5-4.2v-8.8h5.7V44z M32.8,21.2c0-1.5,1.1-2.6,2.6-2.6s2.6,1.1,2.6,2.6s-1.1,2.5-2.6,2.5S32.8,22.6,32.8,21.2z
		 M39.2,21.2c0-1.5,1.1-2.6,2.6-2.6s2.6,1.1,2.6,2.6s-1.1,2.5-2.6,2.5C40.3,23.7,39.2,22.6,39.2,21.2z M55.3,21.2
		c0-1.5,1.1-2.6,2.6-2.6s2.6,1.1,2.6,2.6s-1.1,2.5-2.6,2.5S55.3,22.6,55.3,21.2z M61.7,21.2c0-1.5,1.1-2.6,2.6-2.6s2.6,1.1,2.6,2.6
		s-1.1,2.5-2.6,2.5C62.8,23.7,61.7,22.6,61.7,21.2z"/>
	<path class="st5" d="M55.4,43.9c-1.6-0.9-2.9-2.1-3.9-3.6c-1-1.5-1.4-3.3-1.4-5.3c0-2,0.4-3.7,1.4-5.3c1-1.6,2.3-2.7,3.9-3.6
		c1.6-0.9,3.6-1.3,5.7-1.3s3.9,0.4,5.7,1.3c1.6,0.9,2.9,2.1,3.9,3.6c1,1.5,1.4,3.3,1.4,5.3c0,2-0.4,3.7-1.4,5.3
		c-1,1.5-2.3,2.7-3.9,3.6s-3.5,1.3-5.7,1.3C59,45.2,57.2,44.7,55.4,43.9z M64.8,38.8c1-1,1.4-2.3,1.4-4c0-1.6-0.4-3.1-1.4-4
		c-1-1-2.2-1.5-3.6-1.5c-1.5,0-2.7,0.5-3.7,1.5c-1,1-1.4,2.3-1.4,4c0,1.6,0.4,3.1,1.4,4c1,1,2.2,1.5,3.7,1.5
		C62.6,40.4,63.8,39.9,64.8,38.8z"/>
</g>
</svg>
