<?xml version="1.0" encoding="utf-8"?>
<!-- Generator: Adobe Illustrator 21.0.0, SVG Export Plug-In . SVG Version: 6.00 Build 0)  -->
<svg version="1.1" id="Layer_1" xmlns="http://www.w3.org/2000/svg" xmlns:xlink="http://www.w3.org/1999/xlink" x="0px" y="0px"
	 viewBox="0 0 100 100" style="enable-background:new 0 0 100 100;" xml:space="preserve">
<style type="text/css">
	.st0{fill:#A47D52;}
	.st1{fill:#EDAC7C;}
	.st2{fill:#E4BD8B;}
	.st3{fill:#EFD6B8;}
	.st4{fill:#B69469;}
	.st5{fill:#63B0DB;}
	.st6{fill:#FDC998;}
	.st7{fill:#F7C092;}
	.st8{fill:#F7F8F9;}
	.st9{fill:#0A0B0C;}
	.st10{fill:#F04F36;}
</style>
<g>
	<path id="XMLID_65_" class="st0" d="M56.3,53.8c0.2,0.1,0.7,7-1.4,17.8c3.2-0.7,9.1-3.8,10.2-4.5C63.6,67,57.9,54.6,56.3,53.8z"/>
	<ellipse class="st1" cx="64.4" cy="76.2" rx="5.1" ry="2.9"/>
	<path id="XMLID_12_" class="st2" d="M43.8,91.6c2.7-6.8,4-64.5,6.1-64.4C43.2,27,16.1,69.5,18.4,75.7C20.5,82.2,44,91,43.8,91.6z"
		/>
	<path id="XMLID_31_" class="st3" d="M81.5,76.2c-3.7-3.6-24.1-36.7-26.8-41.8c-6.6-12-5.6-8.6-6.8,3.8c-1.1,12.2-5.2,51.6-4.7,52.4
		c1.2,2.3,6.2,0.7,7.9,0.4c3.8-0.4,6.5-36.6,5.1-37.2c1.7,0.8,11.3,21.9,13.6,23.7C71.3,78.5,84,78.4,81.5,76.2z"/>
	<g id="XMLID_191_">
		<path class="st4" d="M52.4,8.3c-2.1-1.5-4.2,17.9-2.2,17.6C50.7,26,55,10.3,52.4,8.3z"/>
	</g>
	<g id="XMLID_186_">
		<path class="st4" d="M60.5,14.7c-3.2-2.4-9.1,13-8.9,12.3C54,29,60.5,14.7,60.5,14.7z"/>
	</g>
	<g id="XMLID_185_">
		<path class="st4" d="M47.8,25c-1.2-1.7-6.2-12.9-7.9-12.9C32.9,12.7,51.5,30.2,47.8,25z"/>
	</g>
	<path id="XMLID_20_" class="st5" d="M70,77.6c-0.7-1.9-1.7,0.4-2.7,0.5c-2.1,0.4-3.2-1.7-4.8-1.5c-2.1,0.1-1.2,3.7-2.5,5.8
		c-0.4,0.7-2.7,2.9-2.6,3.7c0.2,2,3.7,1.5,5.5,1.3C67.7,86.8,71.8,82.8,70,77.6z"/>
	<path id="XMLID_27_" class="st6" d="M76.5,84.6c-0.1-0.4-0.5-0.1-1-0.1c-1.7,0.1-11.7,1.9-17.1,1.3c-0.1,0,3.2-7.5,3-7.5
		c-2.6-0.2-6,4.2-6.2,4.8c-0.2,0.4-0.7,0.5-1.5,2.7c-0.7,2,1.2,2.6,2.1,3.1c1.7,0.8,19.1-1.1,19.7-1.2
		C75.8,87.7,76.8,85.2,76.5,84.6z"/>
	<path id="XMLID_25_" class="st7" d="M79.8,77.8c-1.5-0.7-9.8-1.2-10.2-1.1c-0.2,0.1,0.4,1.9,0.5,2l5.3,0.5
		c-1.5,0.7-10.3,6.1-10.9,6.4c-2,1,2.6,2.4,2.7,2.3c0.4-0.2,12.4-8.1,12.9-8.7C81,78.4,80.1,77.8,79.8,77.8z"/>
	<path id="XMLID_14_" class="st7" d="M60.7,70.4C60.4,70.6,63,76,65,76.9c1,0.5,2.5,0.8,3.6,0.4c2-0.8,3.5-2.7,4-4.6
		c1-2.7-0.9-8.2-1.2-9.3C71.3,62.7,61,70.1,60.7,70.4z"/>
	<path id="XMLID_190_" class="st8" d="M68.8,75.9c0-0.1-1.5-0.7-1.6-0.5c-0.1,0.1,0.1,0.8,0.2,1C68.4,76.6,68.8,75.9,68.8,75.9z"/>
	<path id="XMLID_170_" class="st9" d="M67.7,71.1c-0.7-0.4-1.6-0.1-2.2,0.4c-0.1,0.1,0,0.2,0.1,0.2s1-0.2,1-0.1
		c-0.1,0.4,0.1,0.7,0.4,0.7s0.4-0.2,0.5-0.5C67.9,71.8,68,71.3,67.7,71.1z"/>
	<path id="XMLID_167_" class="st9" d="M72.6,71.2c-0.7-0.4-1.2-0.2-1.6,0.1c-0.1,0.1,0,0.2,0.1,0.2c0.2-0.1,0.4-0.1,0.7-0.1
		c-0.1,0.2,0,0.7,0.2,0.7s0.4-0.2,0.4-0.4C72.6,71.8,72.8,71.3,72.6,71.2z"/>
	<path id="XMLID_172_" class="st9" d="M67.9,69.7c-1.1-0.4-3.2,0.1-3.2,0.5c0,0.1,2.1-0.4,3,0C68.1,70.1,68,69.7,67.9,69.7z"/>
	<path id="XMLID_171_" class="st9" d="M71.5,69.7c-0.1,0-0.5,0.2-0.2,0.4l2.4,0.1C73.7,70,72.4,69.3,71.5,69.7z"/>
	<path class="st10" d="M55,68.9c0,0.1-0.1,0.2-0.1,0.2s-0.1,0-0.1,0.1c0-0.1,0-0.2,0-0.2C54.8,68.9,55,68.9,55,68.9z"/>
	<path class="st10" d="M75.2,69.4c-2.1,4.5-4.3-3.6-6.7-3.6c-1.7,0-3,6.2-6.1,6c2.4,5.8-0.5,12.3-7.8,12.5
		c-1.4,0.1-0.4-10.8-0.4-10.8c-1.5,1.2-5.1,6.2-5.3,9.4c-5.1-5.7,5.6-13.1,6.2-13.8c-3.7,0.7-7.7,3.5-10-1.3
		c4.2,4.8,16.2-8.1,21.1-8.2C70.7,59.5,78.4,62,75.2,69.4z"/>
</g>
</svg>
