<?xml version="1.0" encoding="utf-8"?>
<!-- Generator: Adobe Illustrator 21.0.0, SVG Export Plug-In . SVG Version: 6.00 Build 0)  -->
<svg version="1.1" id="Layer_1" xmlns="http://www.w3.org/2000/svg" xmlns:xlink="http://www.w3.org/1999/xlink" x="0px" y="0px"
	 viewBox="0 0 100 100" style="enable-background:new 0 0 100 100;" xml:space="preserve">
<style type="text/css">
	.st0{fill:#0290C9;}
	.st1{fill:#FCC299;}
	.st2{fill:#F58870;}
	.st3{fill:#F16648;}
</style>
<g>
	<path id="XMLID_194_" class="st0" d="M71.6,90c1.3-0.9,1.9-2.3,1.2-3.7C69.5,79.5,50.9,69,48.8,67.8c-4.7-2.2-27.9-10.9-31.3-4.7
		c-1.7,3,3.7,8.4,6.2,10.4c10.4,7.4,18.6,10.5,22.3,12C59.3,90.8,70.1,91,71.6,90z"/>
	<path class="st1" d="M41.4,70.4c0.9,0.2,2.3,0.7,2.3,0.8c0,0.2-6.9,3.9-7.5,2.8c0,0-0.2-0.7-0.1-1c2.1-5,5.2-7.3,6.1-7.6
		c-0.2-0.2-3.1-8.3-3.2-11c0-0.6,4.7-0.9,4.9-0.2c0.8,2.2,2.3,11.4,2.2,11.7C45.8,66.2,43.5,68.4,41.4,70.4z"/>
	<path class="st1" d="M54.3,73.9c0.1,0.1,0.1,2.8-1.6,3.4c-1,0.6-2.2,0.9-3.4,1.3c-2.2,0.8-2.1-1-2-1.4c0,0,1.9-9.8,3.8-11.2
		c-0.1,0-3-5-3.9-6.8c-0.3-0.9,5.4-3.2,5.9-2c0.2,1,2,7.6,2,8.3c0,1-0.2,2.1-0.8,3c-0.3,0.8-2.1,4.3-3.8,6.9
		C52.3,74.7,54.3,73.8,54.3,73.9z"/>
	<path id="XMLID_170_" class="st2" d="M54.4,32.9c-0.1-1-12.6,2-19.3,20.2c0,1,0.2,2.2,1,2.8c1.7,1.2,13.5,4.5,14.7,4
		c0.7-0.2,2.3-1.6,2.4-1.7c0.2-0.1,5.3-0.8,5.8-1C59.4,56.9,54.4,33.9,54.4,32.9z"/>
	<path id="XMLID_167_" class="st1" d="M18.2,17.6c0.1,0,1.9,2,1.9,1.9c-0.1-0.6-0.3-1.9-0.1-1.7c0.9,0.7,1.2,2.7,1.3,2.9
		c1.3,2.1,8.6,5.2,10.3,6c2.3,1,1,3.8-1.6,2.8c-2.2-1-9.3-5.1-10.9-7.3C15.3,18.4,17.6,17.3,18.2,17.6z"/>
	<path id="XMLID_176_" class="st1" d="M81.2,24.8c-0.1,0-2.2,1.4-2.2,1.3c0.2-0.3,1.3-1.4,0.8-1.3c-1,0.2-1.9,2.2-2.2,2.3
		c-8.4,4-22.8,4.4-23.4,4.3c-1.7,0.2-0.8,3.4-0.6,3.4c5.8,0.7,23.4-2,28.6-8.3C83.1,25.9,83.9,23.3,81.2,24.8z"/>
	<path class="st3" d="M39.2,18.1c-1.3,2.8-3.9,4.7-6.8,5.6c-21.9,4.9-5.2,20.4-0.3,18.6c3.8-1.3,2.2,0.1,1.6,0.6
		c-0.7,0.6-1.6,2-0.9,2c24.5-2.9,27.1-25.2,26.1-29.3C58.1,11.5,47.3,3.1,39.2,18.1z"/>
</g>
</svg>
