<?xml version="1.0" encoding="utf-8"?>
<!-- Generator: Adobe Illustrator 21.0.0, SVG Export Plug-In . SVG Version: 6.00 Build 0)  -->
<svg version="1.1" id="Layer_1" xmlns="http://www.w3.org/2000/svg" xmlns:xlink="http://www.w3.org/1999/xlink" x="0px" y="0px"
	 viewBox="0 0 100 100" style="enable-background:new 0 0 100 100;" xml:space="preserve">
<style type="text/css">
	.st0{fill:#0290C9;}
	.st1{fill:#63B0DB;}
	.st2{fill:#71C0DB;}
	.st3{fill:#FFFFFF;}
	.st4{fill:#FCC299;}
	.st5{fill:#F16648;}
	.st6{fill:none;stroke:#0290C9;stroke-width:1.1088;stroke-linecap:round;stroke-miterlimit:10;}
	.st7{fill:none;stroke:#333333;stroke-width:0.9434;stroke-linecap:round;stroke-miterlimit:10;}
	.st8{fill:none;stroke:#333333;stroke-width:1.0575;stroke-linecap:round;stroke-miterlimit:10;}
	.st9{fill:#333333;}
</style>
<g>
	<path id="XMLID_149_" class="st0" d="M37.4,27.9C23.2,32.7,3.7,68.7,11.5,72.3c5.3,2.7,9.9-4.9,10.9-8.1
		C25.1,51.2,37.8,27.7,37.4,27.9z"/>
	<path id="XMLID_175_" class="st1" d="M57.1,45.4c-0.3-2.4-0.9-4.9-1.8-7.2c-0.4-1.2-2.7-9.3-8.1-10.9
		c-23.8-3.6-16.8,23.8-18.4,28.9c-0.3,0.7-6.8,18.9-6.6,20c9.1,5.4,20.3,6.4,26.2,6.4C49.3,81.8,60.1,53,57.1,45.4z"/>
	<path class="st2" d="M48.5,82.5c-5.9,0-11.4-0.9-16.2-2C35.4,56.5,42.7,51.9,44,51c3.2-2.3,8-1.4,10.1,1.9
		C55,54.4,48.7,82.5,48.5,82.5z"/>
	<path id="XMLID_226_" class="st3" d="M48.7,39.6c-0.7,0-2.4,1.6-2,3c0.3,1.1,0.9,3.2,2.3,3.2s1.9-2.4,2-3.8
		C51.2,40.8,49.2,39.6,48.7,39.6z"/>
	<path id="XMLID_139_" class="st4" d="M55.4,28.5c-0.3,0.7-1.4,5.4,1.4,11.8c1.9,4.3,8.2,6.6,10.7,5.1C88.7,32.5,59.8,20,55.4,28.5z
		"/>
	<path id="XMLID_145_" class="st3" d="M65.5,40.7c0-0.1-2.7-0.3-4.1,0.1c-0.7,0.1,0.3,1.9,1.2,2.2c0.9,0.3,1.9,0.3,2.4-0.4
		C65.6,41.9,65.9,40.8,65.5,40.7z"/>
	<path id="XMLID_143_" class="st5" d="M66,75.3c5.3-2,22.3-4.2,24.3-19.7c1.4-11.2-8.1-23.5-8.4-24.1c-19.7-23.9-30.3-8.2-28.1-2.2
		c0.3,0.4,3.9-0.9,4.7-2.4c1.4,3,11.8,8.8,14.2,8.9c0.4,0-2.8,6.4-8.2,8.6C52.4,49,47.8,59.6,45.8,65.6c-4.1,11.8,1.9,20.8,2.7,20.4
		c0.3-0.1,4.3-5.8,4.7-5.8c0.8,0,1.1,4.2,3.8,0.1C59,77.2,62.8,76.5,66,75.3z"/>
	<path id="XMLID_112_" class="st4" d="M82.5,68.1c1.1,0-0.1,1.4-0.3,1.6C77,75.4,63.1,80.8,43.9,73c-0.1,0-5.4-2.8-4.5-3.6
		c0.1,0,1.8,0.9,2,1.1c2,0.9,1.8-0.3,1.2-0.7c-0.1-0.1-2.3-1.8-2.4-2c0.4-0.9,3.8,1.4,4.2,1.1c0.1-0.1-2.8-2.7-2.3-3
		c0.3-0.4,4.3,2.4,4.3,2.4s-0.3-2,0-2c0.9,0,2.2,3.6,2.4,3.8C66.9,76.9,82.4,68.1,82.5,68.1z"/>
	<path id="XMLID_142_" class="st4" d="M42.1,67.1c-0.1-0.1-3.8-2.3-3.8-2.3l0,0c0,0,3.1,0,2.2-0.7c-0.7-0.3-3.6-0.8-3.8-0.8
		c-0.1,0-6.9-6.9-7.3-10.7c0.1-0.4-0.1-0.7-0.3-0.7c-3.8,3-1.4,12,8,18c0.8,0.7,2.4,1.8,3.1,1.1c0.1-0.1-3.8-3-2-2.8
		c0.1,0,3.1,1.8,3.4,1.6c0.7-0.4-2.8-2.8-2.8-3.1C38.9,66.7,45.1,69.1,42.1,67.1z"/>
	<g id="XMLID_523_">
		<path id="XMLID_150_" class="st0" d="M82.3,21.8c-15.8-19.3-36.6,2.3-33.9,4.9c3,0.7,8.9-5.4,12.2-5.9c13-1.8,16.4,12,18,12.4
			C85.4,35.6,85.1,25.3,82.3,21.8z"/>
	</g>
	<circle class="st3" cx="38.1" cy="36.1" r="4.3"/>
	<path class="st6" d="M35.2,36.5c0-1.4,1.2-2.7,2.7-2.7c1.4,0,2.7,1.2,2.7,2.7"/>
	<path class="st3" d="M55.5,38c-0.3,0-0.4,0-0.8,0c-2.2,0-4.1-1.8-4.1-4.1c0-1.4,0.7-2.4,1.6-3.2C54.2,32.6,55.4,36.9,55.5,38z"/>
	<path class="st0" d="M53.7,33.4c-0.1,0-0.9,2.2-1.6,2c-0.3,0-0.7-0.3-0.7-0.7c0-0.8,0.8-2.3,1.8-2.4C53.3,32.6,53.5,33,53.7,33.4z"
		/>
	<ellipse class="st0" cx="48.5" cy="37.1" rx="2.2" ry="1.9"/>
	<path class="st7" d="M56.9,35.2c0.8-0.7,2-0.3,2.4,0.1"/>
	<path class="st8" d="M65.4,35.2c0.8-0.8,2.3-0.4,2.8,0.1"/>
	<path class="st9" d="M58.7,32.1c-0.1,0.3-2.4,0.4-2.4,0.4c-0.3,0-0.4,0-0.7-0.3C55.8,31.9,58.1,30.8,58.7,32.1z"/>
	<g>
		<path class="st0" d="M51.9,42.1c-0.7-0.1-2.4-0.7-3.1-2c-2.2,2.3-3.9,1.1-3,0.8c0.7,0,3.6-3.2,3.6-2.7
			C49,39.2,53.1,42.1,51.9,42.1z"/>
	</g>
</g>
</svg>
