<?xml version="1.0" encoding="utf-8"?>
<!-- Generator: Adobe Illustrator 21.0.0, SVG Export Plug-In . SVG Version: 6.00 Build 0)  -->
<svg version="1.1" id="Layer_1" xmlns="http://www.w3.org/2000/svg" xmlns:xlink="http://www.w3.org/1999/xlink" x="0px" y="0px"
	 viewBox="0 0 100 100" style="enable-background:new 0 0 100 100;" xml:space="preserve">
<style type="text/css">
	.st0{fill:#5F6A99;}
	.st1{fill:#FCC299;}
	.st2{fill:#EFB58E;}
	.st3{fill:#F05036;}
	.st4{fill:#6D8AC6;}
	.st5{fill:#221F1F;}
	.st6{fill:#FFFFFF;}
	.st7{fill:#F06648;}
	.st8{fill:#AED6EC;}
	.st9{fill:#63B0DB;}
	.st10{fill:#0788C5;}
	.st11{fill:#0390C9;}
	.st12{fill:#89CDA7;}
	.st13{fill:#00B6A2;}
	.st14{fill:none;stroke:#0788C5;stroke-width:0.3996;stroke-miterlimit:10;}
	.st15{fill:none;stroke:#0788C5;stroke-width:0.4516;stroke-linecap:round;stroke-miterlimit:10;}
</style>
<g>
	<g>
		<path class="st0" d="M90.5,71.7c0,5.8-18.2,10.4-40.4,10.4S9.7,77.5,9.6,71.7c-0.3-9,18.2-10.4,40.5-10.4S90.5,62.8,90.5,71.7z"/>
	</g>
	<path id="XMLID_497_" class="st1" d="M54.3,59.9C54.4,59.9,54.4,59.9,54.3,59.9C54.4,59.9,54.4,59.9,54.3,59.9z"/>
	<path id="XMLID_1035_" class="st2" d="M83.6,64.6c-0.5-0.1-2.3-0.5-3-0.7c-1.2-0.5-26.3-6.8-31.6-1.6c-0.9,0.9-1.9,2.8,0,4.2
		c0.5,0.4,30.3,1.4,31.6,1.4c1.2,0,5.5,0.5,6.8,0.4C87.3,68.2,90,67.4,83.6,64.6z"/>
	<path id="XMLID_1023_" class="st1" d="M82.4,68.8c-0.5,0-29.6-3.9-31.2-3.4c-1.4,0.4-2.7,0.9-3.4,2.2c-0.7,1.2-1.4,3.2,0,3.9
		c3.4,1.6,37.3,0.7,38.4,0.5C88.7,72,83.6,68.5,82.4,68.8z"/>
	<path id="XMLID_1022_" class="st2" d="M59.7,64.6c-1.2-0.4-10-0.4-9.6,1.5c0.1,0.4,0,3,7.7-0.1c1.5-0.7,14.9,5.4,16.1,5.5
		c0.1,0,0.4,0,0.4-0.1C74.4,71.2,60.1,64.3,59.7,64.6z"/>
	<path id="XMLID_1034_" class="st3" d="M64.8,32c-3,1.2-16.1,12.6-5.8,20.8c0,0-0.1-1.9,0-2.7s1.4-2.7,1.5-3c0,1.9-0.5,6.2,3.4,10
		c0.5,0.5,6.3-22.3,6.1-22.4C69.2,33.4,65.5,31.8,64.8,32z"/>
	<path id="XMLID_1020_" class="st4" d="M73.8,36.8c-0.1-0.1-6.3,2.3-6.8,3.4C66.6,41.3,63.6,57,62.5,59c-0.5,0.9-6.8,6.5-2.8,6.2
		c1.9-0.1,8.5,4.3,10.4,5c2.8,1.2,9,2.8,10-1.5C81.5,65,79.3,43.2,73.8,36.8z"/>
	<path id="XMLID_1029_" class="st2" d="M72.1,36.9L72.1,36.9c0.1-0.1,1.5-5.4,0.7-6.3c-0.4-0.5-2.3,1.4-3,1.9
		c-1.5,1.4-1.4,4.3-1.4,6.2C68.6,39.5,71.9,37.3,72.1,36.9z"/>
	<path id="XMLID_1027_" class="st1" d="M75.5,29.2c0,0-6.5-8.2-6.9-8.2c-0.9-0.1-2.3,2.8-2.8,3.4c-0.5,1.2-1.5,1.6-2.7,2.2
		c-0.1,0-0.4,0.5,0,1.2c0.1,0.1,0.4,0.4,0.5,0.7c0.4,0.5-0.1,4.5,1.5,5.5c0.9,0.7,2.3,0.5,3.4,0.1C69.8,33.8,75.5,29.2,75.5,29.2z"
		/>
	<path class="st5" d="M67,26.5c0.4-0.1,0.7-0.1,1.2,0c0.5,0.1,0.7,0.4,1.2,0.7l0,0c0.1,0.1-0.1,1.2-0.7,0.5c0,0-1.4-0.9-1.5-0.7
		C67,26.9,67,26.8,67,26.5C67,26.8,67,26.5,67,26.5z"/>
	<path id="XMLID_1019_" class="st6" d="M67.1,31.2c0,0-1.9,0-1.9,0.1c0,0.9,0.5,1.6,0.9,1.6C66.7,33.1,67.1,31.8,67.1,31.2z"/>
	<path id="XMLID_1026_" class="st7" d="M82.4,26.2c-0.4-3-5.5-11.3-14.5-7.2c-1.2,0.5-1.4,1.9-0.9,3c0.4,1.5,1.6,3.5,3,4.7
		c-0.5-0.1-3.9-1.6-3.5-6.3c0-0.1-1.9,1.9-0.4,4.7c2.8,3.2,6.5,3.2,7.2,3.2c0.5,0,1.2,0.4,1.2,0.9c0,0.1-1.6,1.9-1.6,2
		c-0.1,0-1.5,6.8-1.5,7c0.1,0.4,0.4,0.5,0.7,0.5C80.2,40,82.8,29.1,82.4,26.2z"/>
	<path id="XMLID_498_" class="st1" d="M73.8,41.9c0-2.3-1.6-2.8-2.2-2.8c-2.8-0.5-3.6,16.7-3.9,16.9l0,0c0,0-16.6,9-16.7,9.3
		c-0.1,0.7,0.9,1.5,0.9,1.6c0.4,0.4,19.2-7.7,19.2-7.8l0,0C71.3,58.6,73.8,43.2,73.8,41.9z"/>
	<g>
		<path id="XMLID_389_" class="st8" d="M38,45.9c0-1.9,0-4.1,0.3-5.8c0-0.1-5.8,2.2-5.9,4.7C30.9,47.3,38,46.5,38,45.9z"/>
		<ellipse transform="matrix(0.5632 -0.8263 0.8263 0.5632 -44.8139 39.8113)" class="st9" cx="15.3" cy="62.3" rx="2.8" ry="3.9"/>
		
			<ellipse transform="matrix(4.203914e-02 -0.9991 0.9991 4.203914e-02 -40.184 98.3492)" class="st9" cx="31.2" cy="70.1" rx="2.4" ry="5.9"/>
		
			<ellipse transform="matrix(4.203914e-02 -0.9991 0.9991 4.203914e-02 -24.8519 103.2301)" class="st10" cx="41.4" cy="64.6" rx="1.8" ry="4.5"/>
		<path id="XMLID_334_" class="st9" d="M32.3,45.4c0.3-0.7,2.6-3.4,4.9-4.2c5.1-1.6,5.9-3.1,6.1-3.9c0.5-2.2,0.1-4.2,0.1-4.3
			c-0.5-1.1-9.3-2.7-10.8-2.8c-0.7,0-6.9,9.7-9.3,14"/>
		<path id="XMLID_319_" class="st11" d="M39.2,71.9c0.1-1.8-3.2-3.4-3.2-3.1c-0.1,3.2-8,2.8-7.7,3.1C28.1,71.9,39,74.7,39.2,71.9z"
			/>
		<path class="st6" d="M41.3,38.6c1.5,0.1,1.6-2.7,1.6-2.7c0-0.1-1.9,0-2.6,0.3C40.1,36.1,40.5,38.2,41.3,38.6z"/>
		<path id="XMLID_215_" class="st12" d="M42.4,63.4c-13.9,13.8-22.7,8-23.5,5.9c-4.7-14,4.1-25.7,4.5-25.8c3.2-1.8,8.9,1.9,10,2.4
			c3.1,1.1,4.3-1.5,4.5-1.5c0.3,0.3,2.4,6.6,3.4,7.6C43.9,54.6,44.7,61.1,42.4,63.4z"/>
		<path id="XMLID_213_" class="st9" d="M26.6,45.5c-2.6-0.1-3.4,3.2-2.6,5.1c0.5,1.5,7.3,3.1,8.9,4.1c0.7,0.3,3.4,2.4,4.1,2.4
			c0.7,0.1,1.4-0.5,1.4-1.4c0-0.7-0.3-1.5-0.7-2.2C36.6,52.3,28.5,45.5,26.6,45.5z"/>
		<path id="XMLID_212_" class="st11" d="M33.8,56.3c0.7,0.3,1.5-0.5,1.8-1.1c0.9-1.1,5-3.5,5.8-4.5c0.5-1.1,0.9-2.7,0.1-3.9
			c-0.5-1.1-1.8-2.2-3.1-2.2c-0.7,0-0.3,4.9-0.9,5.5C33.2,53.6,33.2,55.9,33.8,56.3z"/>
		<path id="XMLID_187_" class="st12" d="M32.6,27.2c-1.6-0.7-8.9-0.1-8.5,6.5c0,0.7,0.9,3.1,1.4,3.1c5.1-1.1,10.1-5.7,10.3-5.9
			C35.7,30.1,33.4,27.4,32.6,27.2z"/>
		<path id="XMLID_185_" class="st13" d="M24.3,35.7c0,0-1.9,0.9-3.5,3.2c-0.9,1.5-0.1,2.8,1.6,2.8c2.8,0,9-7.7,9-8
			C31.6,33.8,24.9,35.5,24.3,35.7z"/>
		<circle class="st6" cx="34.7" cy="36.8" r="2.7"/>
		<circle class="st14" cx="34.7" cy="36.8" r="3.4"/>
		<circle class="st11" cx="35.5" cy="36.1" r="1.1"/>
		<polygon class="st10" points="42.3,34.9 40.7,33.4 43,33 		"/>
		<ellipse transform="matrix(0.9338 -0.3579 0.3579 0.9338 -7.9877 11.7304)" class="st13" cx="27.7" cy="27.4" rx="0.9" ry="0.5"/>
		<path class="st13" d="M27.6,28.4c-0.1,1.6,0,3.4,1.1,5.7"/>
		<path class="st13" d="M29.3,27.6c1.1,0,3.9,1.4,4.6,3.6"/>
		<path class="st15" d="M43,35.9c-0.9-0.1-0.7-1.6-0.7-1.6c0,0.3,0.1,2.2-2.6,1.8"/>
	</g>
</g>
</svg>
