<?xml version="1.0" encoding="utf-8"?>
<!-- Generator: Adobe Illustrator 21.0.0, SVG Export Plug-In . SVG Version: 6.00 Build 0)  -->
<svg version="1.1" id="Layer_1" xmlns="http://www.w3.org/2000/svg" xmlns:xlink="http://www.w3.org/1999/xlink" x="0px" y="0px"
	 viewBox="0 0 100 100" style="enable-background:new 0 0 100 100;" xml:space="preserve">
<style type="text/css">
	.st0{fill:#FCC299;}
	.st1{fill:#89CDA7;}
	.st2{fill:#6D8AC6;}
	.st3{fill:#00B5A2;}
	.st4{fill:#F06648;}
	.st5{fill:none;stroke:#00B5A2;stroke-width:1.1434;stroke-linecap:round;stroke-miterlimit:10;}
</style>
<g>
	<path class="st0" d="M53.7,90.9c-3,1.4-3.3,0.8-3.3,0.7C50.2,91.4,49,80.9,49,80c0-1.1,0.1-2,0.4-3c0.1-1.1,0.1-1.7,0-2.7
		c-0.2-2.5,0-4.7-0.1-7c0-1.3,6.2-2.6,5.7-1.1c-0.1,1.2-0.1,2.2-0.4,4.8c-0.4,4.9-1.4,13.9-2,18c0.7,0,1.1-0.4,1.8-0.7
		c0.2-0.1,1.6,0.4,1.8,0.5C57.5,89,54.4,90.4,53.7,90.9z"/>
	<path class="st0" d="M46.1,89.1c-3,1.4-3.3,0.8-3.3,0.7c-0.1-0.2-1.3-10.8-1.3-11.6c0-1.1,0.1-2,0.4-3c0.1-1.1,0.1-1.7,0-2.7
		c-0.2-2.5,0-4.7-0.1-7c0-1.3,6.2-2.6,5.7-1.1c-0.1,1.2-0.1,2.2-0.4,4.8c-0.4,4.9-1.4,13.9-2,18c0.7,0,1.1-0.4,1.8-0.7
		c0.2-0.1,1.6,0.4,1.8,0.5C49.9,87.3,46.8,88.8,46.1,89.1z"/>
	<polygon class="st1" points="22.2,62.4 23.2,52.3 38.2,52.7 36.7,62.5 	"/>
	<path id="XMLID_610_" class="st2" d="M56.6,33.7c-3.7-5-13.7,5.3-13.9,5.6c-0.1,0.4-5.5,23.8-4.3,27.7c0,0,0,0.1,0.1,0.1
		c1.6,0.8,20.5,0.1,21-0.5C59.7,66.3,57.3,34.5,56.6,33.7z"/>
	<path id="XMLID_12_" class="st1" d="M76.2,46.8c0-0.8-3-7.5-3.6-7.8c-0.1-0.1-0.2,0-0.4,0.1c-0.1,0.7,2.5,7.5,3,8
		C75.4,47.5,76.2,47.2,76.2,46.8z"/>
	<path id="XMLID_11_" class="st1" d="M70.9,40C70.8,40,70.8,40,70.9,40c0.1,1.6,4.8,6.9,5.6,6.8c0.2,0,0.5-0.2,0.5-0.5
		C77.1,45.6,71.5,40.4,70.9,40z"/>
	<g>
		<path class="st0" d="M75.6,44.2c-3,1.7-12.7,2.3-12.8,2.2c-2.2-1-8.6-10.3-8.2-11.7c0.2-2.7,2.7-1.6,3.1-1.1
			c0.4,0.4,5.6,9.2,6.1,9.6c0,0,6.7,0.2,6.9,0.1c0.2-0.1,2.5-2,2.7-1.6c-0.2,0.4-0.5,0.7-1,1.1c0,0.1,2.2-0.5,2.3-0.5
			C76.8,42.3,75.6,44.2,75.6,44.2z"/>
	</g>
	<path id="XMLID_8_" class="st3" d="M69,38.1c0.4,0.4,0.4,1.1,0.7,1.6c0.5,0.8,1.7,0.2,1.2-0.5c-0.5-0.8-1.3-1.3-2.3-1.4
		C68.5,37.9,68.9,38,69,38.1z"/>
	<path id="XMLID_1_" class="st3" d="M71.5,36.4C71.5,36.3,71.5,36.3,71.5,36.4c-0.4-0.2-1,2.6,0.7,2.5c0.1,0,0.2-0.1,0.2-0.2
		C72.9,37.6,71.5,37.1,71.5,36.4z"/>
	<path id="XMLID_618_" class="st0" d="M30.6,52.4c-0.1-0.1,4.8-8.4,5.6-10.3c0.1-0.1,3.6-0.4,3.5-0.1s-5.5,9.7-5.5,10.3
		c0,0.4,0.5,2.6,0,2.4C33.9,54.6,33.9,52.6,30.6,52.4z"/>
	<g id="XMLID_554_">
		<path id="XMLID_572_" class="st4" d="M45.1,14.6c-2.4,3.5-3,8.8-6.9,10.4c-14.8,6.2-5.7,16.6-4.1,17.3
			c24.4,9.4,31.7-26.9,24.1-31.4C50.1,6.3,45.2,14.6,45.1,14.6z"/>
	</g>
	<path id="XMLID_551_" class="st4" d="M33.8,43.2c-1.2-1-4.9-2.7-5.5-7.6c0-0.2-0.4-0.2-0.5,0c-0.7,2,0.8,8,5.4,9.2
		C34.2,44.9,34.6,43.7,33.8,43.2z"/>
	<line class="st5" x1="24.6" y1="54" x2="23.6" y2="61.2"/>
</g>
</svg>
