<?xml version="1.0" encoding="utf-8"?>
<!-- Generator: Adobe Illustrator 21.0.0, SVG Export Plug-In . SVG Version: 6.00 Build 0)  -->
<svg version="1.1" id="Layer_1" xmlns="http://www.w3.org/2000/svg" xmlns:xlink="http://www.w3.org/1999/xlink" x="0px" y="0px"
	 viewBox="0 0 100 100" style="enable-background:new 0 0 100 100;" xml:space="preserve">
<style type="text/css">
	.st0{fill:#F06648;}
	.st1{fill:#FCC299;}
	.st2{fill:#FDCA99;}
	.st3{fill:#6D8AC6;}
	.st4{fill:#FFFFFF;}
	.st5{fill:#333333;}
</style>
<g>
	<path id="XMLID_129_" class="st0" d="M59.4,9.6C43.6,8.2,40.7,27.7,41.3,30.7c1.6,10.7,27.8,33.6,33,35.3
		c12.4,4.4,10.2-8.3,8.7-10.1c-1.3-1.6-4.3-2.8-3.6-4.8c4.3-12.8-3.1-16.9-3.6-18C74.3,30.8,74.7,10.9,59.4,9.6z"/>
	<path class="st1" d="M84.8,85.6c-0.9,1.3-14.2,1.2-24.7,1.3c1.6,1.7,2.3,3.4,1.2,3.6c-0.4,0.1-4.8-2.1-7.5-3.5
		c-2.1,0.1-6.7,1.2-7.5,0.1c-0.1-0.4,1.2-1.2,2.7-2.1c-7-1.7-25.7-4.8-27.3-7.5c-1.6-2.3,0-5.1,1.9-6.3c1.9-1.6,14.6-6,19.1-6.6
		c-0.4,1.3,2.1,5.8,1.6,6.6c-0.8,1.3-10.1,2.1-9.8,3.1c0.1,0.8,13.7,7.5,14.5,7.8c2.1,0.5,8.3,1.9,9.3,1.6c17.5-4.8,15.6-2.1,15.3-3
		c-0.1-0.4-5.1-2.3-6.6-3.1c-1.3-0.5,2.8-7.4,4.8-6.3C73.8,72.2,87.5,82.2,84.8,85.6z"/>
	<path id="XMLID_9791_" class="st1" d="M22.7,32c0,0-0.5,2.8-0.8,3.4c-0.5,2.3,9.8,14.5,10.1,14.1c3.6-2.3,13.7-8.9,15-9.7
		c0.4-0.1,0.4,6.3-1.3,7.5c-3.5,2.1-10.6,6-14.2,7.9c-0.5,0.4-0.9,0.4-1.6-0.1C27,52.7,17.8,37.9,17.1,36.8
		c-1.3-2.6-1.3-7.9,2.1-9.3c0.4-0.1-0.9,4.4,0.4,5.8C20.5,34.7,21.5,31.2,22.7,32z"/>
	<path class="st2" d="M64.6,30c0,0-3.5,6-8.1,6.2c0.1,1.2,0.5,2.3,0.9,2.6c0.4,0.1,5.4,1.3,5.6,1.6c0.4,0.4-6,3.1-10.1,2.7
		c-2.8-0.4-3.9-4-3.6-4c0.8,0.1,1.7,0.1,2.3,0.1c0.4,0,1.2-2.1,1.3-3.1c-2.8-1.2-6.6-4-6.7-7.9c-0.8,0.4-1.6-0.4-1.7-1.3
		c-0.4-1.6,1.3-1.3,1.3-1.3c0.1-1.3,0.4-2.3,0.8-3.4c2.6,0.1,7.9-0.8,14.1-4.4c0.1-0.1,2.1,6.3,4,8.5c0.4,0.4,1.3,1.2,2.1,1.6
		C67.2,28,67.7,30.7,64.6,30z"/>
	<path id="XMLID_9773_" class="st3" d="M42.2,62.5c-0.4,1.2-3.1,2.1-3.9,2.1c-0.1,0.4,2.3,9.5,3.6,10.1c23.6,11,30.4-2.1,30.4-2.6
		c0.1-0.4-8.3-31.3-8.5-32.1c-0.1-0.4-3.4-1.3-5.2-0.1c-0.5,0.4-5.6,1.3-9.5-1.3c-0.5-0.4-1.3,0-2.1,0.4
		C46.9,39.6,43,59.1,42.2,62.5z"/>
	<path id="XMLID_9676_" class="st4" d="M53.5,33.1c0-0.1,2.7-0.8,2.7-0.8s0.5,2.1-0.9,2.6C54.8,34.8,53.6,34.7,53.5,33.1z"/>
	<path id="XMLID_341_" class="st1" d="M72.4,51.9c-2.1-3.1-7.8-10.2-8.3-10.6c-1.2-0.5-1.7-0.4-1.9,0.8c-0.5,5.4,7.9,14.6,8.3,15
		c0.4,0.8-10.5,7.5-11.5,7.5c-0.8,0.1-3.1,1.2-3.4,1.3c-0.3,0.1-0.3,0.4,0.1,0.4c0.5,0,1.3-0.1,1.9-0.4c0.4,0.1-2.8,3.4-3.1,3.4
		c-1.3,2.1,2.1,2.8,3.1,1.9c0,0,1.3-1.3,1.9-2.1c0.5-0.5,1.3-1.3,2.1-1.7c1.6-1.2,14.5-7.5,15.3-8.3C77.4,58.6,73.8,53.5,72.4,51.9z
		"/>
	<path id="XMLID_102_" class="st0" d="M15,22.9c0.5,3.4,4.8,3.5,7.1,1.9c1.2-0.8,1.9-1.9,1.7-3.1c0-0.9-1.2-2.1-2.7-2.1
		c-0.9,0.1-2.1,0.8-2.3,1.6C17.1,19.2,14.3,20.2,15,22.9z"/>
	<ellipse class="st4" cx="17.5" cy="22.7" rx="0.5" ry="0.5"/>
	<ellipse class="st4" cx="21.1" cy="21.9" rx="1.2" ry="1.3"/>
	<ellipse class="st0" cx="23.1" cy="26.9" rx="0.5" ry="0.5"/>
	<path class="st0" d="M18.4,26.4l2.8-0.1c0.8,0,1.2,1.3,0.1,1.3l-3.1-0.1C17.5,27.3,18,26.4,18.4,26.4z"/>
	<ellipse class="st5" cx="49.1" cy="25.5" rx="0.8" ry="1.2"/>
	<ellipse class="st5" cx="58.2" cy="26.1" rx="0.9" ry="1.2"/>
	<path class="st5" d="M57.9,21.1c0.4-0.4,2.6,0.4,3.1,0.8c0.1,0.1,0.1,0.9-0.4,0.5l0,0c-0.4-0.1-2.1-0.4-2.3-0.4l0,0
		C57.7,21.8,57.7,21.5,57.9,21.1z"/>
</g>
</svg>
