<?xml version="1.0" encoding="utf-8"?>
<!-- Generator: Adobe Illustrator 21.0.0, SVG Export Plug-In . SVG Version: 6.00 Build 0)  -->
<svg version="1.1" id="Layer_1" xmlns="http://www.w3.org/2000/svg" xmlns:xlink="http://www.w3.org/1999/xlink" x="0px" y="0px"
	 viewBox="0 0 100 100" style="enable-background:new 0 0 100 100;" xml:space="preserve">
<style type="text/css">
	.st0{fill:#FCC299;}
	.st1{fill:#F06648;}
	.st2{fill:#FDCA99;}
	.st3{fill:#6D8AC6;}
	.st4{fill:#333333;}
	.st5{fill:#A7BBE0;}
	.st6{fill:#D4E1F4;}
	.st7{fill:#FFFFFF;}
	.st8{fill:none;stroke:#CCD9EF;stroke-width:1.1778;stroke-linecap:round;stroke-miterlimit:10;}
	.st9{fill:none;stroke:#CCD9EF;stroke-width:0.9668;stroke-linecap:round;stroke-miterlimit:10;}
	.st10{fill:none;stroke:#CCD9EF;stroke-width:1.2136;stroke-linecap:round;stroke-miterlimit:10;}
	.st11{fill:none;stroke:#CCD9EF;stroke-width:1.451;stroke-linecap:round;stroke-miterlimit:10;}
</style>
<g>
	<path class="st0" d="M82,77.7c-0.6,1.4-13.4,5.2-23,8.2c1.9,1.3,3.3,2.4,1.9,3.2c-0.6,0.4-6.3-0.4-9.6-0.6
		c-1.4,0.5-4.9,2.5-5.8,1.9c-0.1-0.1,0.5-1,1.5-2c-7.2,0.1-25.2,1.9-27.6,0c-2.3-1.9-1.5-4.8-0.1-6.7C20.5,79.7,29.9,73,33.8,71
		c0.1,1.4,5.3,3.7,5.2,4.6c-0.4,1.4-8.7,5.2-8.4,5.8c0.5,0.6,17.3,3.9,18.2,3.3c4.6-3.3,6.1-1.3,7.1-1.4c1.6-0.1,5.4-5.3,12.8-6.2
		c0.6,0,1.6-0.1,1-0.9c-0.4-0.5-7.1-1.5-8.6-1.9c-1.4-0.1,0.8-7.7,2.8-7.5C66.1,67.2,83.3,73.5,82,77.7z"/>
	<path id="XMLID_107_" class="st1" d="M58.1,40.6c3.4-7.1,3.3-13.9,3-16.8C60,11.5,38-0.1,31,21.8c-2.4,7.6-18.2,30.6-9,40.7
		C39.9,77.2,57.5,41.3,58.1,40.6z"/>
	<path class="st2" d="M56.3,30c-0.4,1.5-2.3,6.7-7.1,7.8c0.4,1.3,0.8,3.2,1.3,3c0.8,0,1.6,0,2.4-0.1c0.4,0-2.8,6.7-12.9,1
		c1.3-0.4,4.4-1,4.7-1.3c0.4-0.1,0.6-1.5,0.8-2.5c-5.7-0.8-7.7-6.2-7.7-6.2c-0.9,0.6-2.4-0.6-2.4-1.6c2-1,3.8-3.8,4.7-6.1
		c1-2.3,1.5-4.4,1.6-4.6c0.5-0.5,3.4,2.9,14.7,4.4c0.1,1.3,0.1,3.8,0.1,3.8C57.1,27.2,58.6,29.4,56.3,30z"/>
	<path id="XMLID_94_" class="st3" d="M55.3,41c-0.6-0.5-1.4-0.6-1.9-0.5c-0.1,0-3,4.3-7.2,2.5c-0.8-0.4-2.4-1.4-3.2-1.6
		c-1.3-0.6-3.9,0.4-4.2,0.6c-0.1,0.6-5.3,27.3-5.7,28.1c-0.6,0.9-3.4,3-3.4,3.4c0.1,0.5,3.7,3.9,4.3,4.6c2.3,2.5,26.2-0.6,27-1.5
		s2.4-8.4,3.8-9.6c0.4-0.4-1.5-0.8-2-0.8C60.9,66.2,55.8,41.4,55.3,41z"/>
	<g id="XMLID_14_">
		<path id="XMLID_1_" class="st4" d="M48.5,35.1c-0.4-0.9-1.6-1.5-2.5-1.4c-0.4,0-0.4,0.5,0,0.6c0.8,0.1,1.9,0.6,2.3,1
			C48.1,35.6,48.6,35.3,48.5,35.1z"/>
	</g>
	<circle class="st5" cx="48" cy="59.2" r="10.5"/>
	<circle class="st6" cx="47.7" cy="59.1" r="4.9"/>
	<path id="XMLID_39_" class="st7" d="M46.8,55.3c0.1,0.9,4.6,3,4.7,2.5C51.9,54.3,46.7,54.7,46.8,55.3z"/>
	<path class="st8" d="M43.8,53.8c0.6-0.6,2-1.9,3.9-1.5"/>
	<path class="st9" d="M41,58.7c-0.1-0.6,0-2,0.8-2.9"/>
	<path class="st10" d="M43,63.9c-1.4-0.8-1.9-2.5-1.9-3"/>
	<path class="st10" d="M48.6,66.3c-0.8,0.1-2.8-0.4-3.4-0.9"/>
	<path class="st8" d="M51.3,53.3c1.9,0.6,2.8,2.5,2.9,3"/>
	<path class="st11" d="M54.7,60c0,1-0.6,3.7-2.4,4.8"/>
	<circle class="st7" cx="46.1" cy="61.9" r="1.3"/>
	<circle class="st7" cx="48.5" cy="62.5" r="0.8"/>
	<path id="XMLID_35_" class="st4" d="M44.6,23.2c0.1,0.1,0.1,0.4,0.1,0.5c0,0.1-1.5,0.1-2.5,0.9c-0.5,0.4-0.8,0.1-0.8,0
		C42.3,23.2,44.3,22.9,44.6,23.2z"/>
	<path id="XMLID_34_" class="st4" d="M53,23.2c0.9-0.5,2.3,0.1,2.9,1c0,0,0,0.6-0.6,0.1c-1-0.6-2-0.8-2-0.8
		C52.8,23.6,52.8,23.3,53,23.2z"/>
	<path id="XMLID_23_" class="st0" d="M43.9,67.7c0.5,0,2-0.1,1.9-0.4c-0.5-0.8-3.3-0.4-4.9-0.9c-1.9-0.9-9.6-5.7-9.6-6.2
		c0-0.1,9.5-11.1,8.7-16.6c-0.1-1-0.9-1.4-1.9-0.8c-0.5,0.4-13.4,16.7-13,18.2c0.1,0.9,17.3,11.9,23.2,9
		C48.9,69.7,43.8,67.7,43.9,67.7z"/>
	<path id="XMLID_18_" class="st0" d="M52.3,66.8c0-0.1-2.5-0.8-2.4-0.9c0-0.8,3.7,0.1,5.2-0.6c1.9-0.9,9.6-6.1,9.6-6.3
		c0-0.1-10.5-10.9-10-16.2c0.1-1,0.8-1.4,1.9-0.8c1.5,0.9,14.3,17,14,18.1c-0.4,1.5-13.9,8.2-14.9,8.7c-0.9,0.5-5.7,3-8.1,0.8
		C45.2,67.5,52.3,66.8,52.3,66.8z"/>
	<ellipse class="st4" cx="44.6" cy="27.7" rx="0.9" ry="1"/>
	<ellipse class="st4" cx="53.7" cy="27.5" rx="0.9" ry="1"/>
</g>
</svg>
