<?xml version="1.0" encoding="utf-8"?>
<!-- Generator: Adobe Illustrator 21.0.0, SVG Export Plug-In . SVG Version: 6.00 Build 0)  -->
<svg version="1.1" id="Layer_1" xmlns="http://www.w3.org/2000/svg" xmlns:xlink="http://www.w3.org/1999/xlink" x="0px" y="0px"
	 viewBox="0 0 100 100" style="enable-background:new 0 0 100 100;" xml:space="preserve">
<style type="text/css">
	.st0{fill:#59C5C7;}
	.st1{fill:#EFC995;}
	.st2{fill:#FFEFAB;}
	.st3{fill:#333333;}
	.st4{fill:#ECC086;}
</style>
<g>
	<path id="XMLID_24_" class="st0" d="M74.2,65.8c-0.7-0.9-2.9-4.1-7.6-3.7c-2.7,0.1-14.8,0.9-16.7,1c-2,0.3-3.9,0.9-5.4,2.1
		c-9.5,8-18.7,24.2-18.7,24.2s6.1,0.3,8.9,0.5l0,0c0.3-0.1,7.6-12.3,8-12.3c0.3,0.4-4.8,12.7-4.8,12.7L74.3,90
		C74.3,89.9,75.2,67.3,74.2,65.8z"/>
	<path id="XMLID_109_" class="st1" d="M63.5,58.4C63.3,56.6,62,40.1,62,40.1S53.9,55,53.9,56.2c0,1.3,0.1,4.1,0,5.4
		c0,0.8-3,2.2-3.4,2.6c-0.1,0.1,0.7,5.2,1.4,6c1.2,1.4,3,1.7,4.7,0.9c1.6-0.7,9.7-7.7,9.7-8C66.3,62.8,63.6,62.7,63.5,58.4z"/>
	<path id="XMLID_11_" class="st1" d="M67.5,30.9c-1.8-1.7-31.2-11.1-31.4-11c-3.4,4.2-4.1,9.2-4.2,14.4c-0.1,7.3,1.2,23.4,13.6,25.1
		c3,0.5,6.1-0.5,8.5-2.2C56.7,55.4,70.5,33.7,67.5,30.9z"/>
	<path id="XMLID_12_" class="st2" d="M64.4,15.4c-0.7-0.4-1.6,0-1.8,0.7c-1.8-1.8-3.9-3.5-6.3-4.8c-1.3-0.8-2.9-1.4-4.4-1.2
		c-1.3,0.3-2.5,1.3-2.9,2.7c-1.4-0.7-4.6-3.9-9.7-3.1c-1.8,0.3-5.4,3-4.3,6.7c0.3,0.9-11,3.1-9.4,12.4c0.3,1.3,9,4.2,14.5-2.1
		c-0.4,0.3,2.1,3.8,5.4,1.4c0.4-0.3,0.8-0.8,1-1.2c0.7,1.3,5,1.8,5.4,1.2c0,0.1,1.6,3,4.3,2.4c0.3,1.6,0.9,3.1,2.2,4.2
		c0.8,0.7,1.8,0.9,2.9,0.5c0.9-0.4,1.6-1.2,2.6-1.3c0.7-0.1,1.4,0.1,2,0.5c0.9,0.8,0.9,2.4,0.4,3.4c-0.5,1-3,2.9-3.1,3
		c-0.1,0.1-0.3,2.7-0.4,3.9c-0.1,3,3.1,3.3,5,1.7C72.7,42.2,75.7,21.8,64.4,15.4z"/>
	<path id="XMLID_7_" class="st3" d="M51.3,40.1c-1.4-0.7-3-0.7-4.4,0.1c-0.5,0.4-1-0.5-0.7-0.9c1.4-1.6,3.9-1.7,5.8-0.5
		C52.7,39.2,52.1,40.5,51.3,40.1z"/>
	<path id="XMLID_10_" class="st3" d="M36.4,41c-0.7,0-3.3,0.3-3.9,0.5c-0.5,0.1-0.8-0.5-0.4-0.9c1-1,3.4-1.3,4.6-0.1
		C36.8,40.6,36.7,41,36.4,41z"/>
	<path id="XMLID_13_" class="st3" d="M53.8,32.5c-1.8-0.7-3.7-0.9-5.6-0.8c-0.5,0-1.7,0-1.8,0.7c-0.3,0.9,0.8,1,1.4,1
		c1.7,0.1,3.3,0.4,5,0.8c0.7,0.1,1.3,0.4,1.6-0.4C54.6,33.3,54.3,32.6,53.8,32.5z"/>
	<path id="XMLID_14_" class="st3" d="M34.8,32.9c-0.9,0.1-1.7,0.5-2.6,0.9c-0.5,0.3-0.3,1.3,0.4,1.2c0.9-0.1,2.1-0.5,2.7-1.3
		C35.6,33.3,35.3,32.8,34.8,32.9z"/>
	<ellipse class="st3" cx="44.6" cy="54.3" rx="1.7" ry="0.9"/>
	<path id="XMLID_6_" class="st4" d="M41.5,46c-1,0.1-1.8,3.4-1.7,3.7c0.1,0.4,5.1,0,5.5-0.3C45.4,49.2,43.5,45.8,41.5,46z"/>
	<circle class="st3" cx="34.2" cy="41.8" r="1.3"/>
	<circle class="st3" cx="48.7" cy="40.7" r="1.3"/>
</g>
</svg>
