<?xml version="1.0" encoding="utf-8"?>
<!-- Generator: Adobe Illustrator 21.0.0, SVG Export Plug-In . SVG Version: 6.00 Build 0)  -->
<svg version="1.1" id="Layer_1" xmlns="http://www.w3.org/2000/svg" xmlns:xlink="http://www.w3.org/1999/xlink" x="0px" y="0px"
	 viewBox="0 0 100 100" style="enable-background:new 0 0 100 100;" xml:space="preserve">
<style type="text/css">
	.st0{fill:#F26648;}
	.st1{fill:#EEB48D;}
	.st2{fill:#FFFFFF;}
	.st3{fill:#FDCA99;}
	.st4{fill:#6D8AC6;}
	.st5{fill:#333333;}
	.st6{fill:#CCD9EF;}
	.st7{fill:none;stroke:#CCD9EF;stroke-width:1.0782;stroke-linecap:round;stroke-miterlimit:10;stroke-dasharray:2.8753;}
</style>
<g>
	<path id="XMLID_43_" class="st0" d="M90.3,38.1c0.9-8.9-1.5-20.1-15.8-18.8c-5.7,0.5-7.6,8.2-12.6,10.9c-5.3,3-37.7,2.3-45.9,9.9
		c-8.5,8.1-7,15.9-4.9,22.7c7.6,16.5,26.1,20.7,40.6,16.3C70.3,73.6,88,58.6,90.3,38.1z"/>
	<path id="XMLID_11_" class="st1" d="M69.9,40.3c0.1,0,1.4,0.3,1.6,0.4c0.5,0.3,3.5,0.5,3.9,0.1c0.3-0.5,0.4-1.2,0.5-1.8
		c0.1-0.5,3.6-2,3.8-1.9c0.3,1.8,0.4,3.5,0.3,5.1c-0.1,0.7-10.7,5.8-11.2,6.5S67,40.8,69.9,40.3z"/>
	<path id="XMLID_21_" class="st1" d="M64.1,47c-0.3-1.5-1.2-14.6-1.5-15.4c0-0.1-2.7-0.5-2.8,0.9c0,1.6,0.7,14.6,0.8,15.3
		C60.8,48.5,64.2,47.6,64.1,47z"/>
	<path class="st1" d="M56.6,59c-0.9-0.8-6.9-9.3-6.9-9.7C46.2,52.8,37.7,62,37.1,62c-0.5,0-8.8,1.5-8.9,0.1c-0.1-1.2,6.5-3,7-3.2
		C36,58.4,44.3,48.1,46,46.4c4.1-4.3,6.3-3,6.5-3c0.4,0.3,2.8,2.8,3.6,3.8C56.8,47.8,57.3,59.7,56.6,59z"/>
	<g id="XMLID_1_">
		<g id="XMLID_2_">
			<path id="XMLID_32_" class="st2" d="M61.8,38.9L61.8,38.9L61.8,38.9z"/>
			<path id="XMLID_35_" class="st2" d="M61.8,38.9L61.8,38.9L61.8,38.9L61.8,38.9z"/>
		</g>
	</g>
	<g id="XMLID_9_">
		<g id="XMLID_51_">
			<path id="XMLID_53_" class="st2" d="M61.8,38.9L61.8,38.9L61.8,38.9z"/>
			<path id="XMLID_52_" class="st2" d="M61.8,38.9L61.8,38.9L61.8,38.9L61.8,38.9z"/>
		</g>
	</g>
	<g id="XMLID_57_">
		<g id="XMLID_58_">
			<path id="XMLID_60_" class="st2" d="M61.8,38.9L61.8,38.9L61.8,38.9z"/>
			<path id="XMLID_59_" class="st2" d="M61.8,38.9L61.8,38.9L61.8,38.9L61.8,38.9z"/>
		</g>
	</g>
	<path class="st3" d="M57.3,66.1c-3.8,0.4-12-7.6-13.5-9.6c-0.3,3.9-6.5,11.2-6.5,11.2c0.4,0.4,2.3,1.9-0.5,4.9
		c-0.7,0.8-1.8,1.6-2.2,2.6c-0.4,0.4-1.2,3.2-1.6,3.2c-1.4,0.1-0.7-6.5-0.1-8.5c0.1-0.7,9.5-20.8,9.7-20.9c1.8-1.4,3.5-0.5,4.9,0.4
		c1.8,1.2,7.7,6.3,9.2,7.6C57.4,57.7,58.8,65.8,57.3,66.1z"/>
	<path class="st3" d="M33.4,78.1L33.4,78.1L33.4,78.1z"/>
	<path id="XMLID_7_" class="st4" d="M73,40.3c-0.9-0.5-1.5,0-2.3,0.7c-0.9,0.8-5.1,5.7-6.9,6.3c-2.2,0.9-8.8-1.9-8.5,0.4
		c0.1,0.5-0.4,9.9-1.8,14c-0.3,0.8-3,3.1-2.2,3.9c10.1,8.8,22.7-4.7,25.4-7.7c1.8-1.9,6.9-10.3,5.9-14c-0.1-0.5-0.3-1.2-0.8-1.5
		c-0.8-0.5-1.9-0.3-2.8-0.1C76.9,42.4,73.1,40.3,73,40.3z"/>
	<path class="st3" d="M80.5,48.4c-1.5,0.9-14.9,7.3-15.7,7.2c-0.4-0.1-7.7-9.2-8.4-9.9c-0.1-0.1-2.6-4.1-2.7-4.3
		c-0.5-2.2,1.5-2.2,1.6-2c0.5,0.8,1.8,2.7,1.9,2.7c0,0,0.4-1.5,0.5-1.6c0.3,0,0.4,0.1,0.4,0.4s0.3,2.7,0.3,2.7
		c0.3,0.7,6.5,7.2,6.9,7.7c0,0,11.5-6.6,13.4-7.2C82.8,43,82.6,47,80.5,48.4z"/>
	<path id="XMLID_6_" class="st3" d="M72.7,30.3c-0.1,1.6,0,7.6,3.2,8.9c2,0.7,4.3-0.1,5.8-1.6c0.9-0.9,2-3.6,2-3.8
		c2.3-1.2,0.3-1.9,0.3-1.9c0-0.3,0-1.2-0.1-1.5c-0.3-0.3-8.2-3.9-8.5-3.9C75.1,26.6,72.8,28.3,72.7,30.3z"/>
	<path id="XMLID_15_" class="st2" d="M78.6,36.4c0-0.1-0.1-0.3-0.3-0.3c-0.4,0-2.7,0.4-2.6,0.8c0.3,0.8,0.8,1.6,1.9,1.4
		C78.4,38,78.9,37.3,78.6,36.4z"/>
	<path id="XMLID_22_" class="st5" d="M73.1,32l0.1,0.1c0.5-0.4,1.5-0.1,1.6,0.1c0,0.1,0.1,0,0.1,0C75.1,31.4,73.5,30.8,73.1,32z"/>
	<circle class="st6" cx="61" cy="36.4" r="3.9"/>
	<path id="XMLID_19_" class="st5" d="M80.3,31.6c0.5,0.1,1.2,0.7,0.9,1.4c0,0.3-0.4,0.3-0.5,0c-0.1-0.3-0.3-0.5-0.7-0.7
		c-0.3,0-0.7,0.1-0.8,0.4c-0.1,0-0.1,0-0.1-0.1C78.9,31.9,79.6,31.6,80.3,31.6z"/>
	<path id="XMLID_16_" class="st5" d="M82.4,30.8c-0.1-1.2-2-1.4-2.8-1.2c-0.3,0-0.4,0.5,0,0.5c0.8,0.1,1.9-0.1,2.6,0.5
		C82.3,31,82.4,31,82.4,30.8z"/>
	<path id="XMLID_18_" class="st5" d="M74.9,29.1c-0.3-0.1-1.4-0.4-2.2,0c-0.1,0-0.1,0.4,0,0.4c0.4,0,1.6,0.1,1.9,0.1
		C75,29.6,75.1,29.2,74.9,29.1z"/>
	<path id="XMLID_29_" class="st2" d="M61.2,33.1c-0.5,0-0.9,0.4-0.9,0.9c0.1,0.7,3.2,2.3,3.5,2C64.5,34.6,61.8,33.1,61.2,33.1z"/>
	<circle class="st2" cx="60.3" cy="39.1" r="0.7"/>
	<circle class="st2" cx="62.3" cy="38.9" r="0.3"/>
	<circle class="st7" cx="61" cy="36.4" r="5.3"/>
</g>
</svg>
