<?xml version="1.0" encoding="utf-8"?>
<!-- Generator: Adobe Illustrator 21.0.0, SVG Export Plug-In . SVG Version: 6.00 Build 0)  -->
<svg version="1.1" id="Layer_1" xmlns="http://www.w3.org/2000/svg" xmlns:xlink="http://www.w3.org/1999/xlink" x="0px" y="0px"
	 viewBox="0 0 100 100" style="enable-background:new 0 0 100 100;" xml:space="preserve">
<style type="text/css">
	.st0{fill:#E8674D;}
	.st1{fill:#EEB48D;}
	.st2{fill:#FCC299;}
	.st3{fill:#F27252;}
	.st4{fill:#FFFFFF;}
	.st5{fill:#333333;}
	.st6{fill:#F68D3D;}
</style>
<g>
	<path class="st0" d="M48.6,27.7c3.3,1,22.8,4.3,16.4,11.6c-1.3,0.1-2.4-2-1.2-2.9c-6.7,1.3,2.3,7.8,6.9,0.8c7.9-12-19-31.4-25-24.4
		C41.1,18.3,41.8,23.6,48.6,27.7z M54.8,19.3c-4,0-6.7-1.6-7.8-4.8C43.9,11.1,55.1,19.4,54.8,19.3z"/>
	<path id="XMLID_323_" class="st1" d="M51.2,28.7c-0.2-0.5-0.1-1.6-0.7-2c-0.1,0-2.1-0.3-2.2,0.2c-0.1,0.5,0,1.3-0.3,1.8
		c-0.3,0.3-3.8,1.4-3.9,1.6c0,0.1,2.4,1.8,5.4,2.1c2.8,0.1,5.8-1.8,5.9-2C54.7,30.4,51.4,29.2,51.2,28.7z"/>
	<path id="XMLID_293_" class="st2" d="M56.2,21.2c-1.2-0.3-1.3-5.2-3.3-6.6c-3.7-2.3-7.5,0.3-8.2,4.1c-0.7,3.7,1.4,8.8,5.9,8.6
		C54,27.6,57.5,21.7,56.2,21.2z"/>
	<path class="st3" d="M71.8,20.4c-3.1-2.3-24.8-17.8-26-7.3c-1.2,9.9,24.6,8.1,22.1,25.2C78,38.6,78.4,25.4,71.8,20.4z M54.8,19.3
		c-4,0-6.4-0.9-7.6-4.1C48.6,14.5,55.1,19.4,54.8,19.3z"/>
	<path id="XMLID_348_" class="st4" d="M50.7,23.8c-0.3-0.1-1.6,0.1-2.1,0.2c-0.2,0,0,2.1,1.4,2C50.9,25.8,51.3,23.9,50.7,23.8z"/>
	<path id="XMLID_13_" class="st5" d="M53.7,21.1c-0.2-0.5-0.8-0.9-1.4-0.9c-0.2,0-1.3,0.7-1,0.9c0.1,0.1,1-0.2,1.3-0.2
		C52.6,21,54,21.8,53.7,21.1z"/>
	<path id="XMLID_11_" class="st5" d="M54.5,18.7c-0.5-0.5-2.4-1.5-2.9-0.6C51.6,18.3,54.7,18.9,54.5,18.7z"/>
	<path id="XMLID_325_" class="st5" d="M46.9,17.5c-0.1,0-2.5,0.7-2.1,1c-0.1-0.1,2-0.3,2-0.5C46.9,18.2,47.7,17.3,46.9,17.5z"/>
	<path id="XMLID_10_" class="st5" d="M46.4,20.5c0.6,0,1.3,0.2,1.2,0c-0.6-1.6-2.6-0.1-2.4,0.1C45.3,20.6,45.9,20.5,46.4,20.5z"/>
	<path id="XMLID_6_" class="st2" d="M52.8,60.5c0,0.8,0.2,24,0.7,29.2c0,0.5,5,0.8,5.1,0.6c0.1-0.3-1.2-2.3-1.3-2.6
		c-1.3-4.8,0.2-22.5,0.3-26.5C57.6,60.8,52.8,60.1,52.8,60.5z"/>
	<path id="XMLID_337_" class="st2" d="M43.8,63.3c0,1.4,2.5,20.8,1.6,22c-0.2,0.3-2.8,3.1-3.2,3.7c-0.1,0.1,3.7,0.5,4.1,0.5
		c0.1,0,2.3-2.2,2.4-2.8c0.1-0.8-0.5-22.6-0.5-25.1C48.2,60.9,43.8,62.4,43.8,63.3z"/>
	<path id="XMLID_9791_" class="st2" d="M34.2,37.7c2.4,1,8.8-7.1,10.2-6.9c3,0.5,0.6,3.3-0.3,4.5c-1.8,2.1-4.6,5.4-7.1,6.4
		c-2.6,1-10.4-6.7-12-8.3c-2.5-2.6-0.5-4.5,0.5-5.8C25.2,28.1,32.5,37,34.2,37.7z"/>
	<path id="XMLID_335_" class="st2" d="M63.7,59.2c-2.3-0.2-0.9-4.3-1-6.1c-0.9-13.1-9.4-21.5-9.4-21.5s1.5-2.1,2.8-0.9
		c0.9,0.7,3.7,3.5,5.2,6.2c2.3,4.1,5.2,17.3,4.6,21.6C65.7,59.6,64.2,59.2,63.7,59.2z"/>
	<path id="XMLID_331_" class="st6" d="M56,31.1c-2.1-2.4-2.3,0.2-6,0.2c-3.2,0-5.5-2-6.4-0.7c-2.4,2.8-3.6,31.4-0.7,32.9
		c3.8,2.2,11.6,0.1,15.3-2C59.1,61.2,57.8,33.3,56,31.1z"/>
</g>
</svg>
