<?xml version="1.0" encoding="utf-8"?>
<!-- Generator: Adobe Illustrator 21.0.0, SVG Export Plug-In . SVG Version: 6.00 Build 0)  -->
<svg version="1.1" id="Layer_1" xmlns="http://www.w3.org/2000/svg" xmlns:xlink="http://www.w3.org/1999/xlink" x="0px" y="0px"
	 viewBox="0 0 100 100" style="enable-background:new 0 0 100 100;" xml:space="preserve">
<style type="text/css">
	.st0{fill:#63B0DB;}
	.st1{fill:#0490C8;}
	.st2{fill:#FCC299;}
	.st3{fill:#35B0A7;}
	.st4{fill:#89CDA7;}
	.st5{fill:#F05036;}
</style>
<g>
	<g id="XMLID_471_">
		<g id="XMLID_470_">
			<path id="XMLID_790_" class="st0" d="M88.2,25.9c-0.4-1.8-2.5-2.5-4.1-2.5c-2,0-13.9,3.4-21.8,10.1c-0.8-0.4-1.6-0.5-2.5-0.8
				c0.3-0.5,8.7-11.6,11-14.3c1-1.1,2-2.9,0.4-4.1C63.6,10.6,57.1,33.1,57,33.1c-4.8,1.1-5.3,10.5-5,14.5c0,0.4,13.4-1,13.8-1.8
				c0.1-1.1,0.1-9.8-1.5-10.8c3.3-1,17.9-2.7,21.4-4.8C86.8,29.4,88.7,27.9,88.2,25.9z"/>
			<path id="XMLID_598_" class="st1" d="M84,24.1c-0.8,0.1,0,5.6,0.3,5.6C89.5,27.1,85.2,23.7,84,24.1z"/>
		</g>
		<path id="XMLID_596_" class="st1" d="M70.6,14.7c-0.5-0.3-2.7,0.5-2.7,1C67.7,16,70.2,18,70.5,18C70.7,18,72.1,15.5,70.6,14.7z"/>
	</g>
	<path id="XMLID_782_" class="st2" d="M50.3,42.2c-1-0.4-3.8-0.5-4.8-0.3c-0.5,0.1-2,5-1.1,5.5c1.1,0.4,6,0.4,6.3,0.3
		C51.9,46,52.3,43,50.3,42.2z"/>
	<path class="st3" d="M90.5,66.6C89.4,67,48,85,46.5,86.1c-11-7.6-35.9-17.6-37-18.1c0,0,15.1-24.3,15.5-24.3
		c13.8,3.8,40-1.1,40.5-1.1l0,0C65.8,42.8,90.5,66.6,90.5,66.6z"/>
	<path class="st4" d="M87.5,63.5c-13.8,4.8-41.3,18-41.3,18S22.2,68,11.8,64.2c0.5-1.2,1.5-2.6,2.3-4c10.2,3.7,21,9.1,32.3,16.1
		C58.5,69.9,71.1,64.5,84,60C85.2,61.3,86.4,62.5,87.5,63.5z"/>
	<path class="st4" d="M79.7,55.7C68.7,59.8,46.2,71,46.2,71S25.9,59.3,16.9,55.6c1-1.4,1.6-2.6,2.6-3.8c1.4,0.5,21.8,11,26.9,14
		C56,60.8,66,56.1,76,52.5C77.3,53.5,78.5,54.5,79.7,55.7z"/>
	<path class="st4" d="M72,48.1c-8.6,3.5-25.6,12.3-25.6,12.3s-5.2-3.3-7.2-4.2c1-0.4,1.8-1.1,2.7-2c1.4,0.8,3.3,2,4.6,2.7
		c7.6-4,15.3-7.6,23.2-10.8C70.2,46.6,71,47.4,72,48.1z"/>
	<g id="XMLID_600_">
		<path id="XMLID_466_" class="st5" d="M47,24.4c-11.3-5-13.9,10.6-19,12.3c-8.2,2.6-6.8,8.6-6.7,8.2c0-0.4,2-5.6,6.8-5.5
			c-9.7,5.3-7,17.5,3.3,18c17,0.8,14.5-14.9,14.9-15.1C54.2,29.8,49.7,25.7,47,24.4z"/>
	</g>
</g>
</svg>
