<?xml version="1.0" encoding="utf-8"?>
<!-- Generator: Adobe Illustrator 21.0.0, SVG Export Plug-In . SVG Version: 6.00 Build 0)  -->
<svg version="1.1" id="Layer_1" xmlns="http://www.w3.org/2000/svg" xmlns:xlink="http://www.w3.org/1999/xlink" x="0px" y="0px"
	 viewBox="0 0 100 100" style="enable-background:new 0 0 100 100;" xml:space="preserve">
<style type="text/css">
	.st0{fill:#FCC299;}
	.st1{fill:#F04F36;}
	.st2{fill:#333333;}
	.st3{fill:#63B0DB;}
	.st4{fill:#F16648;}
</style>
<g>
	<path id="XMLID_33_" class="st0" d="M88.8,45.8c0.5-0.1-3-2.3-4.4-3.2c-3.2-2.1-6.2-3.9-9.6-5.6c-6-3-12.5-4.4-18.6-7.1
		c-10.6-4.5-44.5-8.4-44.9-6.2c0,0.5,3.4,0.4,3.8,0.5c-0.1-0.1-3.9,0.5-3.9,1c-0.1,0.5,3.2,0.1,3.4,0.5c0,0-3.4,0.9-3,1.3
		c0.5,0.9,3.9-0.9,4.7-0.5c0,0-2.1,1.6-1.6,2.1c0.5,0.4,3-1.7,3.5-1.8c6-1.7,30,3.2,31.3,4.9c0.9,1.3-1.6,4.3,1.2,4.3
		c1.7,0,1.6-3.9,2.3-3.8c5.6,0.4,26.5,11,27.5,11.9c0.9,1,1.6,2.9,2.6,4.3c0-0.1,0.1-0.1,0.4-0.1c0-0.4-0.1-1.7-0.1-1.8
		c0.4,0.4,3.2,3.8,3.8,3c0.5-0.5-1.6-2.2-1.7-2.9c0.6-0.4,2.6,2.7,3.2,1.8c0.4-0.5-1.8-2.2-2.1-2.7C86.1,45.2,88.7,46.3,88.8,45.8z"
		/>
	<path id="XMLID_26_" class="st1" d="M63.4,46.1c-0.6-2.1-7.1-9.5-9.5-6.9C49.1,44.3,64.7,50.5,63.4,46.1z"/>
	<path id="XMLID_24_" class="st1" d="M46.2,38.6c-0.5-3-13.9,5.1-11.8,7.4C34.7,46.1,47.1,43.1,46.2,38.6z"/>
	<path id="XMLID_22_" class="st0" d="M55.1,39.3c-0.5-1.6-1.2-2.9-2.2-4c-1.3-1.2-2.9-1.6-4.5-1c-1.3,0.5-6.2,3.2-6.9,10.3
		c0,0.1,14,7.8,14.4,2.6C55.8,46.3,55.6,40.9,55.1,39.3z"/>
	<path id="XMLID_352_" class="st2" d="M46.9,40.5c-0.5-0.6-1.7-0.6-2.3,0c-0.1,0.1,0,0.4,0.1,0.1c0.6-0.4,1.3-0.1,1.7,0.4
		C46.7,41.3,47.1,40.9,46.9,40.5z"/>
	<path id="XMLID_353_" class="st2" d="M54.5,41.8c-0.5-0.9-2.1-1-2.7-0.1c-0.1,0.1,0.1,0.4,0.4,0.1c1-0.4,1.7,0,2.1,0.4
		C54.4,42.2,54.7,41.9,54.5,41.8z"/>
	<path id="XMLID_359_" class="st2" d="M51.2,35.8c-0.6-0.6-1.8-0.6-2.6,0c-0.1,0.1,0,0.4,0.1,0.4c1-0.4,1.7,0,1.8,0.1
		C51,36.5,51.6,36.2,51.2,35.8z"/>
	<path id="XMLID_351_" class="st2" d="M46.5,43.5c-0.1,0-2.6-0.6-2.9-0.9l0,0l0,0c-0.1,0.9,2.7,1.3,3,1.3c0.1,0,0.5-0.1,0.5-0.4
		C46.9,43.5,46.5,43.5,46.5,43.5z"/>
	<path id="XMLID_38_" class="st3" d="M68.4,10.9c-0.5-1.2-19.6-2.1-21.6-0.1c-1.3,1.2-2.9,17.9-1.6,19.6c0-0.1,9.4,0.9,11.7,2.9
		C60,32.1,68.4,11.7,68.4,10.9z"/>
	<g id="XMLID_1_">
		<path id="XMLID_406_" class="st4" d="M82.1,80.6L82.1,80.6L82.1,80.6z"/>
		<path id="XMLID_415_" class="st4" d="M82.1,80.6L82.1,80.6L82.1,80.6z"/>
		<path id="XMLID_420_" class="st4" d="M83.8,84.7c-4.7-10.3,0-23.2-10.1-34.4c-5.5-6-20.6-12.7-26.9-3.2
			c-4.3-11.8-19.7,1.8-21.9,8.4c-3.5,10.6,2.6,21.3,11.8,26.2c15.6,8.1,30.8,2.7,46.1,8.8c-5.1-6.8-29.6-6.8-36.1-10
			c-6.2-3-9.6-11-7.4-15.6c2.3-4.7,9.5-10.1,8.4-12.5c3,6.4,13.6,9.6,8.3,19.2c-0.9,1.6-7.7,4.9-7.8,5.6c-0.4,1.3,13.5-1,14.8-5.2
			c0.6,4,3.5,10.8,11.9,10.6c-10.3-3.5-4.4-14.7-9.5-24.2c3,3.2,3,8.3,6,16.5C73.8,81.8,84.4,86.3,83.8,84.7z"/>
	</g>
	<path id="XMLID_407_" class="st1" d="M61.2,76.3c-2.1,0-7.1,2.7-9.7,3.4c-1.7,0.4,15.2,2.9,15.3,2.3C66.9,81.8,63,76.3,61.2,76.3z"
		/>
	<ellipse transform="matrix(0.5 -0.866 0.866 0.5 -12.7527 56.6353)" class="st0" cx="42.7" cy="39.4" rx="1" ry="1"/>
	<ellipse transform="matrix(0.5 -0.866 0.866 0.5 -7.7795 68.8114)" class="st0" cx="55.7" cy="41.1" rx="1" ry="1"/>
</g>
</svg>
