<?xml version="1.0" encoding="utf-8"?>
<!-- Generator: Adobe Illustrator 21.0.0, SVG Export Plug-In . SVG Version: 6.00 Build 0)  -->
<svg version="1.1" id="Layer_1" xmlns="http://www.w3.org/2000/svg" xmlns:xlink="http://www.w3.org/1999/xlink" x="0px" y="0px"
	 viewBox="0 0 100 100" style="enable-background:new 0 0 100 100;" xml:space="preserve">
<style type="text/css">
	.st0{fill:#F4F4F4;}
	.st1{fill:#C6DAE7;}
	.st2{fill:#0390C9;}
	.st3{fill:#63B0DB;}
	.st4{fill:#FFFFFF;}
</style>
<path id="XMLID_2_" class="st0" d="M46.1,59.9c-0.1-0.3-0.4-0.3-0.7-0.5c-0.3-0.3-0.1-0.4-0.3-0.7c-0.4-0.9-4.5-0.7-4.8-0.3
	c-0.1,0.1,0,0.4,0,0.5c-0.1,0.3-0.4,0.4-0.7,0.7c-0.9,0.9-0.8,7.2,0.1,8.1c0.8,0.8,6.4,1.2,6.5-0.9C46.4,65.2,46.5,60.3,46.1,59.9z"
	/>
<path id="XMLID_1_" class="st1" d="M56.5,22.9c-2-4-6-3.9-9.7-5c-4.1-1.3-5.7-2.7-9-5.6c-6.5-5.8-10.1-1.6-15.5,3.9
	c-4,4-15.4,4.5-12.5,12.8c1.5,4,5.6,4,8.4,6.4c2.5,2.1,2.9,11.2,11.6,13.6c3.1,0.8,4.1,2.4,6.5,4.1c3.3,2.4,5.3,6.8,5.6-0.1
	c0.1-2.7-2.4-5.4,0-6.5c10.4-4.1,4.5-10.1,9.3-14C54,30,58.9,27.6,56.5,22.9z"/>
<path id="XMLID_325_" class="st2" d="M55.9,61.6c-0.3-1.7-9.3-7-10.4-6.4C43.1,57,57.7,69.6,55.9,61.6z"/>
<path id="XMLID_277_" class="st3" d="M41.9,64.4c2.1,4.9,10.5,6,14.9,5.6c-5.3,2.7-6.8,10.4-5,15.8c-2.1,0.3-7.3,2.1-2.8,4.4
	c1.5,0.8,5.7,0.3,7.7,0.4c6.4,0.3,14-0.3,17.4-6.4c3.1-5.4,1.3-12.9-0.8-18.5c-1.2-3.1-2.7-6-4.4-8.8c-0.3-0.5-4.8-7.4-5.6-7.3
	c1.6-0.4,8.6,7.4,10,8.6c2.4,2.3,8.2,10,12.2,7.3C93,60.3,70.3,47.5,67,46.1c-4.9-1.9-10.8-3.1-15.1,0.5c-2.9,2.4-6,6.6-1.3,8.4
	c2.4,0.9,2.7,0.5,3.6,2.9c0.8,1.9,1.6,5.3,0,6.6c-1.5,1.3-4.5,0.8-6.4,0.1C47.3,64.9,40.8,61.9,41.9,64.4z M83.1,62.5
	C83.2,62.3,83.2,62.7,83.1,62.5z"/>
<path id="XMLID_272_" class="st2" d="M48.2,52c0.3-0.9,1.3-0.3,1.3,0.3C49.7,53.9,48.1,53,48.2,52z"/>
<path id="XMLID_263_" class="st2" d="M50.5,87.7c-1.6-2.4-3.7-0.4-5.2,1.5c-1.5,1.9,8,2.3,8.1,1.6C53.6,90.7,50.1,87,50.5,87.7z"/>
<path id="XMLID_109_" class="st2" d="M45.5,64c2.1,0.8-0.8,1.9-1.7,2.4C42.9,66.7,38.5,61.7,45.5,64z"/>
<path id="XMLID_78_" class="st2" d="M76.4,59.1c-0.5-0.1,7.3,0.4,7,0.3c1.3,0.5,4,6.2-1.1,6C80.7,65.2,75.6,58.7,76.4,59.1z"/>
<path id="XMLID_275_" class="st3" d="M70.4,44.1c2.9,0.1,19.1-4,19.5-1.7C92.8,53.8,60.5,43.8,70.4,44.1z"/>
<path id="XMLID_273_" class="st4" d="M54.6,55.8c0-0.3,1.3-1.1,1.6-0.8c0.4,0.8,0.3,1.3-0.3,1.9C55.2,57.2,54.6,56.4,54.6,55.8z"/>
<circle class="st4" cx="55.9" cy="50.4" r="2.9"/>
<circle class="st2" cx="54.9" cy="49.5" r="1.3"/>
</svg>
