<?xml version="1.0" encoding="utf-8"?>
<!-- Generator: Adobe Illustrator 21.0.0, SVG Export Plug-In . SVG Version: 6.00 Build 0)  -->
<svg version="1.1" id="Layer_1" xmlns="http://www.w3.org/2000/svg" xmlns:xlink="http://www.w3.org/1999/xlink" x="0px" y="0px"
	 viewBox="0 0 100 100" style="enable-background:new 0 0 100 100;" xml:space="preserve">
<style type="text/css">
	.st0{fill:#63B0DB;}
	.st1{fill:#0490C8;}
	.st2{fill:#FFFFFF;}
	.st3{fill:#EA990A;}
</style>
<g>
	<path id="XMLID_9_" class="st0" d="M73.6,56.5c0.8-7.7-7.3-5.6-8.6-6c-3.6-1.3-7.7-1.9-11.5-1.5c-17.3,2.3-14,34.8-13.1,40.7
		c8.7,1.1,26.4,0.9,31.7,0.1c0.4-0.5-5-23.8-5-23.8C70.4,64.3,73.3,59,73.6,56.5z"/>
	<path id="XMLID_10_" class="st0" d="M54.8,46c-5.2-23.4-13.2-31.9-14.6-33.2c-10.2-9-13.1,2.4-6,11.4c4.1,5.4,16,19.7,19.6,22.4
		C53.8,47,55.2,47.4,54.8,46z"/>
	<path id="XMLID_16_" class="st0" d="M21.3,27.9c-16.3,0.9-10.3,11-8.1,12.3c5.4,3,18.3-5.6,32,9.1c1.3,1.5,2.4,1.3,2.4,0.8
		C47.1,39.3,34.1,27.2,21.3,27.9z"/>
	<path id="XMLID_307_" class="st1" d="M17.2,30.4c-0.4-0.1-5.8,1.9-4.6,6.1c1.3,4.5,7.8,2,7.8,2C20.5,38.6,17.8,30.7,17.2,30.4z"/>
	<circle class="st2" cx="52.9" cy="58.7" r="6.4"/>
	<path id="XMLID_308_" class="st1" d="M40.2,15c-0.5-0.5-3.7-4.6-6.8-3c-1.1,0.8-2.3,3.6,0.1,6.5C33.9,19.1,40.5,15.6,40.2,15z"/>
	<path class="st2" d="M63.4,67.5c-0.4,1.1-1.3,2.3-2.6,2.3s-2.6-1.1-2.6-2.3c-0.1-2,1.3-1.5,2.6-1.5S63.9,65.6,63.4,67.5z"/>
	<path class="st1" d="M72.1,52.9c0.4,0.9-0.8,2.8-2.6,3.6c-1.9,0.8-3.7,0-4.1-1.1c-0.4-0.9,0.9-1.9,2.8-2.6
		C70.1,52,71.7,52,72.1,52.9z"/>
	<path class="st1" d="M50.5,59.9c0.1-1.3,0.8-2.6,1.9-3.3c0.9-0.5,3.6-0.8,4.1,0.8c0.9,2.3-2,0.8-2.8,0.8
		C52.1,58.1,51.9,59.8,50.5,59.9z"/>
	<path class="st3" d="M36.5,61.7c0,0-12.7,0.8-11.8-1.7c0.5-1.5,11.9,0.4,13.8,0.5C38.9,61.5,38.2,61.9,36.5,61.7z"/>
	<path class="st3" d="M36.9,66.2c-0.1,0-4.6,1.9-3.6-0.1C33.9,65.1,36.9,64.8,36.9,66.2z"/>
	<path class="st3" d="M36.5,69.3c-2.4,2.4-5.6,4.2-8.7,5c-0.5,0.1-2.3,0.8-2.8,0.4c-0.1-0.1-1.5-1.3-0.1-1.3c2.3,0,4.5-0.8,6.5-1.7
		C31.7,71.6,36.5,68.4,36.5,69.3z"/>
	<path class="st3" d="M36.4,73.4c-0.5,0.5-5.2,3.3-3.3,0.9C33.3,74,36.4,73,36.4,73.4z"/>
	<path class="st3" d="M70.1,70.3c2.6,0.5,5.4,1.1,7.8,2c0.8,0.1,3.2,0.4,1.5,1.5C77.6,75.2,71.1,70.3,70.1,70.3z"/>
	<path class="st3" d="M74.5,65.4c3.2-0.5,3.3,1.9-0.1,0.8C74.4,66,74.5,65.6,74.5,65.4z"/>
	<path class="st3" d="M76.8,58.9c1.7-0.1,14-1.1,12.8,0.8C88.4,61.5,78.1,58.9,76.8,58.9z"/>
	<path class="st3" d="M72.7,50.5c0.5-0.8,5-6,5.4-4.1C78.3,47.5,73.3,51.1,72.7,50.5z"/>
	<path class="st3" d="M63.3,47.5c0.1-1.1,1.9-9.3,3.2-8.1c0.8,0.8-1.3,4.5-1.7,5.2C64.4,45.1,63.3,48.3,63.3,47.5z"/>
	<path class="st3" d="M41,55.6l-8.7-5.4c-0.4-0.1,0.1-1.5,0.5-1.3l0,0l0,0l8.7,6.1C41.5,55.2,41,55.6,41,55.6z"/>
</g>
</svg>
