<?xml version="1.0" encoding="utf-8"?>
<!-- Generator: Adobe Illustrator 21.0.0, SVG Export Plug-In . SVG Version: 6.00 Build 0)  -->
<svg version="1.1" id="Layer_1" xmlns="http://www.w3.org/2000/svg" xmlns:xlink="http://www.w3.org/1999/xlink" x="0px" y="0px"
	 viewBox="0 0 100 100" style="enable-background:new 0 0 100 100;" xml:space="preserve">
<style type="text/css">
	.st0{fill:none;stroke:#C4DAF1;stroke-width:0.9503;stroke-miterlimit:10;stroke-dasharray:3.6751,3.6751;}
	.st1{fill:#FEBE10;}
	.st2{fill:none;stroke:#FEBE10;stroke-width:3.8012;stroke-miterlimit:10;stroke-dasharray:1.3053,7.8318;}
	.st3{fill:#89CDA7;}
	.st4{fill:#006181;}
	.st5{fill:#FFFFFF;}
	.st6{fill:#E3F2FA;}
	.st7{fill:#C4DAF1;}
	.st8{fill:#006C90;}
	.st9{fill:#F47A5A;}
</style>
<g>
	<circle class="st0" cx="62.3" cy="35.4" r="14"/>
	<circle class="st1" cx="39.3" cy="35.8" r="12.7"/>
	<ellipse transform="matrix(0.1935 -0.9811 0.9811 0.1935 -3.4144 67.4489)" class="st2" cx="39.3" cy="35.8" rx="16.1" ry="16.1"/>
	<g id="XMLID_5_">
		<path class="st3" d="M90.5,27.1v53.2h-81V38.9l0,0c6.8,4.5,8.5,24.6,10.1,24c2.4-1.1,2.3-1.3,6.1-1.3c2.8,0,4.5,4.3,6.2,6.2
			c3.6,3.9,14.3,1.9,18.2,0.8c3.6-1.1,9.9,1.6,11.6,0.7c1.6-0.7,3.5-5.8,5.9-7.3c2.7-1.8,7.7-1.2,10.1-2.6c4.2-2.7,5.3-9.9,6.5-14.6
			C85.6,39.2,87.1,33.1,90.5,27.1z"/>
	</g>
	<path class="st4" d="M36.6,29.6c-0.8,0.3-1.8,0.9-1.6,1.9C35.2,32.2,37.6,29.3,36.6,29.6z"/>
	<path class="st4" d="M43.2,29.6c0,0-1.2-0.4-1.2,0.1c0-0.1,2,1.4,1.9,1.4C44.2,30.4,43.9,30,43.2,29.6z"/>
	<path class="st5" d="M43.4,38.7c-0.7-0.3-6.1-0.4-6.9,0.1c-0.9,0.7,0,3.4,0.5,4.2C41,48.4,44.5,39.1,43.4,38.7z"/>
	<circle class="st6" cx="62.3" cy="35.4" r="11.9"/>
	<path class="st7" d="M74,35.4c0,6.5-5.3,11.9-11.7,11.9c-3.8,0-7.2-1.8-9.3-4.5c1.9,1.5,4.3,2.4,7,2.4c6.1,0,11.1-5,11.1-11.1
		c0-4.7-2.8-8.6-7-10.4C69.7,24.6,74,29.5,74,35.4z"/>
	<path class="st8" d="M56.9,35c0.1,0.1-4.6-0.7-4.6-0.8C50.4,36.4,58.4,36.5,56.9,35z"/>
	<path class="st8" d="M66.5,36.9c0,0.1-1.5,0.5-3,0.4c-1.2,0-2.3-0.9-2.3-0.7C61.6,39.3,66.3,38.4,66.5,36.9z"/>
	<path class="st8" d="M61.3,41c-1.4,0.3-1.2,1.1-3.2,0.9c-0.5,0-2.8-1.5-1.6,0.1c0.5,0.8,2.3,1.1,3.2,0.8
		C60.5,42.7,62.2,40.8,61.3,41z"/>
	<path class="st7" d="M63.4,32.2c-0.3,0.1-1.1,0.8-0.5,0.8c2,0,4.2,1.6,4.5,1.5C69,34.1,64.3,31.9,63.4,32.2z"/>
	<path class="st7" d="M57.2,30.7c-3.4-1.6-5.4,0.8-4.6,0.7c1.6-0.3,3.2-0.3,4.6,0.3C57.6,31.8,57.6,31,57.2,30.7z"/>
	<circle class="st9" cx="32.9" cy="35.4" r="1.2"/>
	<circle class="st9" cx="46" cy="35.4" r="1.2"/>
	<ellipse class="st4" cx="37.4" cy="33.5" rx="0.8" ry="0.9"/>
	<ellipse class="st4" cx="42.8" cy="33" rx="0.8" ry="0.9"/>
</g>
</svg>
