<?xml version="1.0" encoding="utf-8"?>
<!-- Generator: Adobe Illustrator 21.0.0, SVG Export Plug-In . SVG Version: 6.00 Build 0)  -->
<svg version="1.1" id="Layer_1" xmlns="http://www.w3.org/2000/svg" xmlns:xlink="http://www.w3.org/1999/xlink" x="0px" y="0px"
	 viewBox="0 0 100 100" style="enable-background:new 0 0 100 100;" xml:space="preserve">
<style type="text/css">
	.st0{fill:#F16648;}
	.st1{fill:#FDC998;}
	.st2{fill:#63B0DB;}
	.st3{fill:#FCC299;}
	.st4{fill:#72C39D;}
	.st5{fill:#01867B;}
	.st6{fill:#333333;}
</style>
<g>
	<path id="XMLID_1279_" class="st0" d="M53.9,29.3c-2.5-1.4-18.6-8.8-24.1-11.1c-9.2-3.8-8.8,11.7-5.7,16.5
		c2.9,4.6,8.8,11.1,21.5,8.3c10.8-2.1,19.9,10.9,18.8,12.6c-5.3,7.4-2.1-1.4-2.5-1.8c-1.2-1.4-4,5.3-3.4,6.7
		c1.3,3.3,5.1,1.4,7.5,0.3c7.1-3.6,7.9-8.4,4.1-16.1C67.3,39.3,56.6,30.8,53.9,29.3z"/>
	<path id="XMLID_1228_" class="st1" d="M39.5,45.6c0.8-0.4-0.7-5.5-0.8-6.3c-0.7-2-2.6-2.9-4.5-1.1c-0.8,0.8-1.4,6.6-0.3,7.1
		C34.6,45.7,38.6,46.1,39.5,45.6z"/>
	<path id="XMLID_1259_" class="st2" d="M47.5,63c-0.9-4.1-1.8-18-5.4-20c-1.1-0.8-4.5,0.4-6.2,0.4c-4.3,0.3-4.3-1.1-6.6,2.6
		c-1.3,2.1-4,17.6-2,19.8C30.2,68.6,49,69.4,47.5,63z"/>
	<path id="XMLID_1265_" class="st3" d="M21.9,76.8c-0.1-2.4-2.4-9-0.8-10.7c-1.1,1.2-10.8,2.1-8.3,7.1C13.6,74.7,22.1,80,21.9,76.8z
		"/>
	<path id="XMLID_1267_" class="st3" d="M62.2,76c-3.3-2.9-6.7-5.4-10.4-7.5c0.3,0.1-8.6,8.6-9.4,11.1C41.6,81.4,69.7,85.1,62.2,76z"
		/>
	<path class="st1" d="M46,29.1c0,5.5-4.3,10-9.7,10s-9.7-4.5-9.7-10s1.6-10.4,9.2-10.7C42.8,18.3,46,23.5,46,29.1z"/>
	<ellipse class="st4" cx="36.2" cy="74.4" rx="19.5" ry="16.1"/>
	<path class="st1" d="M47.3,30.3c0,0.9-0.7,1.6-1.3,1.6c-0.7,0-0.8-3.3,0-3.3C46.6,28.7,47.3,29.5,47.3,30.3z"/>
	<path id="XMLID_1213_" class="st5" d="M52.8,68.6c-6.3-2.9-26.7-5.7-31.7-2.8C37.7,58.1,52.7,68.6,52.8,68.6z"/>
	<path id="XMLID_1212_" class="st5" d="M53.1,70.9c-2.9-0.4-26.5-5.3-33.8-0.8C28.8,70.3,49,71.4,53.1,70.9z"/>
	<path id="XMLID_1211_" class="st5" d="M52.7,74c-0.9,2.8-31.9,3-33.8-1.6C21.6,78.4,50.7,81.1,52.7,74z"/>
	<path id="XMLID_1210_" class="st5" d="M52.3,79c-3.3,4.5-33.7,1.2-34.1-2.9C19.1,84.6,48.1,85.1,52.3,79z"/>
	<path id="XMLID_1209_" class="st5" d="M45,86.5c-0.4,0.9-20.3-1.3-20.4-1.7C26.6,88.7,43.5,88.5,45,86.5z"/>
	<path id="XMLID_171_" class="st6" d="M37.5,36.5L37.5,36.5c0.1,0-2.9,1.1-2.9,1.1c-0.1,0.3,1.2,0.3,1.3,0.3
		C36.6,37.6,37.4,37.2,37.5,36.5z"/>
	<path id="XMLID_67_" class="st6" d="M42.7,31c-0.7-0.8-0.8-1.6-1.7-1.7c-0.7,0-2.4,0.9-2.1,1.7c0.1,0.4,1.7-0.4,2.4-0.3
		C41.1,30.7,43.1,31.5,42.7,31z"/>
	<path id="XMLID_66_" class="st6" d="M32.7,30.3c-0.3-0.9-1.2-1.7-2.1-1.6c-0.4,0.1-1.8,1.6-1.4,1.7c0.3,0.1,1.4-0.7,1.8-0.7
		C31.1,30,32.8,31,32.7,30.3z"/>
	<path id="XMLID_163_" class="st6" d="M32.4,26.4c-0.3-0.9-1.6-1.2-2.5-1.2c-0.4,0-1.1,0.1-1.3,0.4c-0.3,0.1-0.8,0.7-0.8,0.8
		c0,0.1,0,0.3,0.1,0.3c0.1,0,0.1,0,0.3,0c0.1-0.1,0.4-0.1,0.7-0.3c0.1,0,0.1-0.1,0.3-0.1c0.7-0.3,1.4-0.1,2,0
		C31.6,26.4,31.9,26.5,32.4,26.4C32.4,26.5,32.4,26.4,32.4,26.4z"/>
	<path id="XMLID_1220_" class="st0" d="M83.5,31.5c-9-12.1-22.7-5.4-31.9-11.3c-4.9-3.3-4.3-9.1-11.7-10.4c-6.5-1.2-12,1.6-11.3,8.4
		c1.1,12.9,23.8,10.3,32.7,14.4c5.8,2.6,12.9,6.7,13.7,13.8c0.3,4.3-5.3,7.2-6.2,9.4C68.1,62.3,98.6,52.4,83.5,31.5z M43.6,26.2
		c-1.7-0.1-13.3-6.5-12.6-6.6c1.4-0.1,10.9,4.6,14.8,6.7C45,26.2,44.4,26.2,43.6,26.2z"/>
	<path id="XMLID_1172_" class="st1" d="M36.2,64.9c-1.2-1.7-14.4-5.7-14.5-6.2c0-0.3,8.4-10.4,8.6-10.8c0.8-1.1,1.7-4.5-0.8-3.7
		c-1.1,0.4-12.8,14.5-11.2,16.1c0.4,1.4,14.1,6.2,15.3,6.7C33.8,67.3,36.5,65.3,36.2,64.9z"/>
	<path id="XMLID_1182_" class="st1" d="M42.5,43.2L42.5,43.2c-0.3,1.1,1.2,5.7,1.3,6.1c0,0.3,6.6,8.8,6.7,9.1
		c-0.1,0.7-14.9,8.6-15.7,9.9c0,0,0,0,0,0.1c-0.3,0.4,2.4,3,2.8,2.6c1.2-1.2,18.3-10,18-12C55.4,58,42.5,43,42.5,43.2z"/>
	<path class="st1" d="M27,31.8c-0.8,0-1.3-0.8-1.3-1.6c0-0.8,0.7-1.6,1.3-1.6C27.7,28.6,27.7,31.8,27,31.8z"/>
</g>
</svg>
