<?xml version="1.0" encoding="utf-8"?>
<!-- Generator: Adobe Illustrator 21.0.0, SVG Export Plug-In . SVG Version: 6.00 Build 0)  -->
<svg version="1.1" id="Layer_1" xmlns="http://www.w3.org/2000/svg" xmlns:xlink="http://www.w3.org/1999/xlink" x="0px" y="0px"
	 viewBox="0 0 100 100" style="enable-background:new 0 0 100 100;" xml:space="preserve">
<style type="text/css">
	.st0{fill:#FCC299;}
	.st1{fill:#EFB58E;}
	.st2{fill:#63B0DB;}
	.st3{fill:#89CDA7;}
	.st4{fill:#35B0A7;}
	.st5{fill:#EE6246;}
</style>
<path id="XMLID_108_" class="st0" d="M31.4,41.7C31.4,41.9,31.6,41.9,31.4,41.7l10.8,1.5l-5.1-3.5L31.4,41.7z"/>
<path id="XMLID_39_" class="st1" d="M68.5,64.6c0.7,0,1.4-3.2,1.2-3.5c-0.1-0.4-6.1,0.7-6.7,0.4c-0.4-0.1-7.1-15.9-9.8-15.7
	c-1.8,0.3-6.5,3.6-6.9,4c-0.6,1,3.2,7.2,3.5,7.8c0.7,1.1,3.6-4,3.6-3.9c0,1,8.3,10.5,8.5,10.7C62.6,64.9,68,64.6,68.5,64.6z"/>
<path id="XMLID_2_" class="st0" d="M62.8,54.8c0,0,7.1,13,7.5,13.2c0.6,0.6,7.9-0.3,8.3-0.6c0.3-0.1,0.8-3.3,0.6-3.3
	c-1.7,0.1-5.8,0.8-6.2,0.6S65.8,48.5,65,48c-3.3-2.5-13.7,8.3-14.7,9.1c-0.7,0.7,4.7,10.3,5.4,9.6C58.2,64.1,62.8,54.4,62.8,54.8z"
	/>
<path id="XMLID_1259_" class="st2" d="M29.8,58.4C32.1,68.5,44.1,77,54,70c10.1-6.9-1.7-12.2-4.9-16.6c-3-4.4-0.8-9-6.9-11.2
	c-1-0.4-4.3,0.1-5.8,0.1c-1.9,0-4.4-1.7-6.2-0.7C25.9,44.1,28.9,54.6,29.8,58.4z"/>
<path id="XMLID_355_" class="st3" d="M83.2,70.3c0-0.6-0.7-0.8-1.1-0.6c-0.6,0.6-0.7,1.2-1,1.9c-0.3,0.7-0.6,1.1-0.8,1.8
	c-0.7,1.2-1.4,2.4-2.4,3.6c-1.9,2.2-4.2,3.7-6.9,4.3c-2.5,0.7-5.3,0.1-7.3-1.2c-2.2-1.4-3.3-3.5-4.4-5.7c-0.1-0.3-0.6-0.1-0.6,0.1
	c-0.1,4.3,4,8.2,8.2,8.9c5,0.8,10-1.5,13-5.4c0.8-1.1,1.7-2.4,2.4-3.7C82.3,73.2,83.3,71.7,83.2,70.3z"/>
<path id="XMLID_354_" class="st4" d="M58.8,74.3c10.1,20.2,25.5-2.1,23.3-4.4C82,69.9,58.8,74.2,58.8,74.3z"/>
<path id="XMLID_342_" class="st4" d="M90.8,65.2c-1.8,0-3.3,0.1-5.1-0.4c-1.7-0.6-3.2-1.4-4.4-2.6c-2.5-2.5-3.9-6.2-3.9-9.8
	c0-0.3-0.4-0.4-0.4-0.1c-1.7,3.9-0.6,16.2,14.1,14.6C92,66.7,91.5,65.2,90.8,65.2z"/>
<path id="XMLID_339_" class="st3" d="M77.9,51.9c-0.1-0.1-0.6-0.1-0.6,0.1c0,0.1-1.9,15.5,13.7,13.4C91.3,65.4,78,52,77.9,51.9z"/>
<path id="XMLID_56_" class="st0" d="M52.9,75.8c-0.1-0.1-7.6-29.3-7.8-29.8c-0.7-1.8-4.7-3.6-4.4,1.4c0,0.7,7.8,27.6,8,28.7
	c0.4,1.8,1,3.5,2.6,4c9.6,3.2,7.2-2.6,7.2-2.8C58.8,77,54.3,76.5,52.9,75.8z"/>
<path id="XMLID_113_" class="st0" d="M27.1,44.9c-2.5,4.2-10.7,23-11.2,23.8c-0.4,0.3-5.5-0.7-6.7,0.1c-0.1,0.1-1.2,4.3-0.8,4.2
	c0.1,0,5.8-0.8,6.2-0.8c0.8,0,1.9-0.3,2.6-0.8c0.8-0.6,12.9-23.2,13.6-25C32.1,44.4,30.9,39.1,27.1,44.9z"/>
<path class="st5" d="M28.8,19.1C13.8,42.2,54.5,43,58.2,49c2.5,4-3.3,8.2-4.9,3.2c-1.9,4.4,9.4,8.9,7.6-5c-1.5-5.7-9.4-9.7-9.4-11
	c14.1,0,21.3,10.4,11.6,16.6c20-0.8,12.3-25.5-1.1-26.2C47.5,26.1,44.1,9.3,28.8,19.1z"/>
</svg>
