<?xml version="1.0" encoding="utf-8"?>
<!-- Generator: Adobe Illustrator 21.0.0, SVG Export Plug-In . SVG Version: 6.00 Build 0)  -->
<svg version="1.1" id="Layer_1" xmlns="http://www.w3.org/2000/svg" xmlns:xlink="http://www.w3.org/1999/xlink" x="0px" y="0px"
	 viewBox="0 0 100 100" style="enable-background:new 0 0 100 100;" xml:space="preserve">
<style type="text/css">
	.st0{fill:#EFD6B8;}
	.st1{fill:#E4BD8B;}
	.st2{fill:#A57C52;}
	.st3{fill:#EFB58E;}
	.st4{fill:#F58870;}
	.st5{fill:#FDC998;}
	.st6{fill:#333333;}
	.st7{fill:#FFFFFF;}
	.st8{fill:#F16648;}
</style>
<g>
	<path id="XMLID_63_" class="st0" d="M80.8,82.3c-5.3-12.7-27.3-58.6-31.4-57.7c-2.3,0.5-30.3,54-29.9,57.7c0.5,4.7,19.7,6.6,21,6.8
		C68.2,89.5,82.6,86.3,80.8,82.3z"/>
	<path id="XMLID_43_" class="st1" d="M73.3,79.8C70.5,70.7,58,64.4,53.9,55.2C53,53,49.1,37,49,37.1c-1.2,0.4-2.6,17-11.1,28.8
		c-1.4,1.8-12.1,11.7-12.1,12.2c0.2,0,8.4,9.1,8.1,8.6c4.7,2.7,23.5,1,27.2,4.6C64.1,88.7,71.2,80.9,73.3,79.8z"/>
	<path id="XMLID_65_" class="st2" d="M48.9,48.6c-0.9,10.8-4.6,30-6.8,35.7l16-0.6C54.9,72.1,50.2,51,48.9,48.6z"/>
	<path id="XMLID_69_" class="st3" d="M52.2,82.4c0.9-0.4,3.6-7.3,3.6-7.5c0-0.1-9.6,0.5-9.6,0.6C45.3,77.1,46.8,86.1,52.2,82.4z"/>
	<path id="XMLID_158_" class="st4" d="M52.4,82.4l-4.7-0.1c0,0-3.1,6.5-2.5,6.8c2.1,0.9,9.3,0.6,10,0.4C56,89.2,52.4,82.4,52.4,82.4
		z"/>
	<path id="XMLID_97_" class="st5" d="M55,77c0-0.4-2.8,2.8-3.1,3.1c-0.9,1,1.7,10.5,3.6,11.6c0.5,0.2,1.2,0.2,1.6-0.1
		C58.8,89.5,55.1,77.7,55,77z"/>
	<path id="XMLID_67_" class="st5" d="M45.7,75.6c-0.1-0.2-0.4-0.2-0.6,0c-0.5,0.7,0.2,3.2,0.4,3.4c-0.6-0.2-1.6-0.5-2.2-0.1
		c-0.6,0.5-2,8.2-1.4,11.6c0.2,0.9,1,1.7,2,1c2-1.6,3.8-8.4,4.2-10.5C48.2,80.7,45.9,78.3,45.7,75.6z"/>
	<polygon id="XMLID_184_" class="st3" points="45,79.7 44.9,82.1 43.2,88.7 46.1,80.8 	"/>
	<path id="XMLID_66_" class="st5" d="M54.5,74.3c-0.2-0.1-5-4.4-5.5-4.6c-1-0.2-2.6,2.8-3,3.2c-0.2,0.4-0.1,0.7-0.1,1.2
		c0,0.5,0.5,3,0.7,3.6c0.4,0.9,0.7,1.6,1.6,2.1c1,0.6,2.5,0.9,3.6,0.1c0.5-0.4,0.9-0.7,1.4-1.4C53.5,77.7,54.8,74.4,54.5,74.3z"/>
	<path id="XMLID_115_" class="st6" d="M47.9,75.3c-0.2,0-0.9,0.4-0.7,0.6c0.1,0.2,0.5-0.2,0.6-0.2s0.7,0.2,0.7,0.2
		C48.9,75.9,48,75.3,47.9,75.3z"/>
	<path id="XMLID_84_" class="st6" d="M52.2,75.3c0.4,0,1.2,0.7,0.5,0.9c-0.2,0-0.2-0.4-0.6-0.4c-0.2,0-0.5,0.4-0.6,0.4
		C51.1,75.9,52.1,75.3,52.2,75.3z"/>
	<path id="XMLID_119_" class="st6" d="M48.4,73.9c-0.4-0.1-1.2-0.1-1.6,0c0,0-0.5,0.5-0.2,0.5c0.1,0,0.4-0.4,1.8-0.2
		C48.5,74.2,48.5,74,48.4,73.9z"/>
	<path id="XMLID_142_" class="st6" d="M53.4,74.3c-0.1-0.7-1.5-0.5-2-0.4c-0.2,0.1-0.1,0.4,0,0.4C52.9,74,53.5,74.4,53.4,74.3z"/>
	<path id="XMLID_160_" class="st7" d="M51.2,78.2c0-0.1-2.1,0.2-2.1,0.4c0.1,0.5,0.7,1.2,1.5,0.9C51.1,79.3,51.3,78.8,51.2,78.2z"/>
	<path id="XMLID_64_" class="st8" d="M54.6,67.3c-2.5-0.9-5.4-0.6-7.5,0.9c-1.2,0.9-3.2,5.2-1.6,6.8c0.5,0.5,2.6-3.8,3.2-3.8
		c0,0,5.3,3.9,5.3,3.4c0.2,5.4,1,15.4,3.8,16.4c5.3,2.1,7.1-4.4,7.1-4.4C65.8,78.6,59.1,69,54.6,67.3z"/>
	<polygon id="XMLID_36_" class="st2" points="49.2,6.6 50.3,22.1 49.1,22.7 46.8,6.6 	"/>
	<path id="XMLID_40_" class="st2" d="M41.1,10.7L48.2,23l-0.5,0.6L39,12L41.1,10.7z"/>
	<polygon id="XMLID_44_" class="st2" points="59.1,8.9 60.5,10.5 51.7,23.7 50.6,23.1 	"/>
</g>
</svg>
