<?xml version="1.0" encoding="utf-8"?>
<!-- Generator: Adobe Illustrator 21.0.0, SVG Export Plug-In . SVG Version: 6.00 Build 0)  -->
<svg version="1.1" id="Layer_1" xmlns="http://www.w3.org/2000/svg" xmlns:xlink="http://www.w3.org/1999/xlink" x="0px" y="0px"
	 viewBox="0 0 100 100" style="enable-background:new 0 0 100 100;" xml:space="preserve">
<style type="text/css">
	.st0{fill:#63B0DB;}
	.st1{fill:#016F98;}
	.st2{fill:#FFFFFF;}
	.st3{fill:#FCC299;}
	.st4{fill:#F58870;}
	.st5{fill:#F26A4D;}
	.st6{fill:#0290C9;}
</style>
<g>
	<path class="st0" d="M87.5,79.5c0.3-0.1,0.4-0.1,0.4-0.1C87.6,79.4,87.6,79.4,87.5,79.5z"/>
	<path class="st1" d="M87.8,79.4c0,0,0-2-0.1-4.3c0.7,0,1.6,0.3,1.8,0.5C90,76.6,89.8,78.3,87.8,79.4z"/>
	<path class="st0" d="M87.8,79.4L87.8,79.4c0,0-0.1,0-0.4,0.1c-1.6,0.5-8.2,2.7-11.6,2.3c-3.8-0.5-9.3-1.5-9.6-10.2
		c-0.3-8.8,1.5-22.2,6.6-29.4c5.1-7.1,14.8-2,15.8,1.3c0.4,1.2-0.5,3.6-3.8,4.4c0,0,1.1,14.4,0.8,17.9c0,0,1.5,1.6,1.6,3.5
		C87.5,69.9,87.8,79.4,87.8,79.4z"/>
	<path id="XMLID_120_" class="st0" d="M67.4,82.3c4.4-9.4-17.5-2.8-6.3,2.4C64.2,86.4,65.6,86,67.4,82.3z"/>
	<circle class="st2" cx="82.1" cy="43.4" r="2.7"/>
	<path id="XMLID_61_" class="st0" d="M76.8,23.7c-2-7.8-12.5-17.3-8.2-3.5c0.7,2.2,8.9,17.7,9.7,16.7C80.2,34.5,77.4,26.1,76.8,23.7
		z"/>
	<path id="XMLID_111_" class="st0" d="M73.9,38.4c0.5-5.8-17.4-29.5-18.6-18.3c-0.5,4.7,7.4,11.1,10.6,13.6
		C66.1,33.8,73.9,39.6,73.9,38.4z"/>
	<path id="XMLID_86_" class="st3" d="M51.4,68.9c-0.5-1.1-3.1-4.3-3.9-4.4c-0.7,0,0.1,5.4,0.5,5.7C48.4,70.4,51.5,69.4,51.4,68.9z"
		/>
	<path id="XMLID_77_" class="st3" d="M58.8,64.4c-0.7,0-8.9,3-11.7,5.1c-0.5,0.5,1.1,8,1.9,7.5c2.6-1.1,13.2-6.3,13.7-6.7
		C62.7,70.4,62.1,64.3,58.8,64.4z"/>
	<path id="XMLID_84_" class="st0" d="M54.7,42.7c-0.3,0.5,2.3,5.9,3.1,7.8c0.3,0.5,0.7,0.7,0.9,0.1c0.5-0.7,1.3-7.3,1.3-8.4
		C60.3,41.8,54.9,42.6,54.7,42.7z"/>
	<path id="XMLID_76_" class="st3" d="M60.1,45c-0.7-0.3-0.3,1.5-0.4,2c-0.1,0.5-5.4,8.6-5.8,8c-1.3-1.8-5.3-7.3-6.1-8.2
		c-0.7-0.8-1.8,0.1-1.9,1.1c-0.3,1.6,8,12.4,8.8,12.1c0.7-0.1,6.6-11.1,6.7-11.6C61.5,47.7,60.3,45,60.1,45z"/>
	<path id="XMLID_81_" class="st4" d="M49.3,70.8C48.1,65.1,49.1,46,46.8,45c-6.7-3.1-13.1,1.6-14.7,7c-2.3,6.9-8.5,22-0.4,26.8
		c3.5,2,10,1.6,13.6,0.5C50.7,78,50.4,75.7,49.3,70.8z"/>
	<path class="st5" d="M35.5,27.5c-4.3,3.4-11.9,6.6-15.5,6.9C7.3,35.7,3,55.8,19.4,58.2c0,0,22,3.1,32.2-18.2c2-4,2.2-8.9-0.4-12.9
		C48.8,23.5,44.2,20.6,35.5,27.5z"/>
	<circle class="st4" cx="58.5" cy="39.1" r="3.5"/>
	<circle class="st4" cx="56.3" cy="37.5" r="2.7"/>
	<circle class="st4" cx="55.3" cy="41" r="2.8"/>
	<ellipse class="st6" cx="87.8" cy="43.4" rx="0.5" ry="0.8"/>
	<circle class="st6" cx="82.9" cy="43.3" r="1.3"/>
</g>
</svg>
