<?xml version="1.0" encoding="utf-8"?>
<!-- Generator: Adobe Illustrator 21.0.0, SVG Export Plug-In . SVG Version: 6.00 Build 0)  -->
<svg version="1.1" id="Layer_1" xmlns="http://www.w3.org/2000/svg" xmlns:xlink="http://www.w3.org/1999/xlink" x="0px" y="0px"
	 viewBox="0 0 100 100" style="enable-background:new 0 0 100 100;" xml:space="preserve">
<style type="text/css">
	.st0{fill:#F04F36;}
	.st1{fill:#FCC299;}
	.st2{fill:#F58870;}
	.st3{fill:#EFB58E;}
	.st4{fill:#FFFFFF;}
	.st5{fill:#F16648;}
	.st6{fill:#231F20;}
</style>
<path id="XMLID_717_" class="st0" d="M48.9,40c-5,3.8-10.8,10.8-8.1,18.3c0.7,1.9,3.1,4.6,5.3,5.3c0,0-0.3-2.3-0.2-3.3
	c0.6-2.3,1.6-3.3,1.9-3.8c0,2.4,0.3,9.6,4.6,12.4c1,0.3,9.3-22.3,9.4-23.4C61.4,45.3,49.6,39.6,48.9,40z"/>
<path id="XMLID_503_" class="st1" d="M80.4,88.3c-0.2,0-2.3-2.4-3.7-2.3c-0.7,0-3.1-0.7-3.8-1c-1.6-0.6-32.2-8-39.5-0.6
	c-1,1.3-2.1,4.9,2.4,5.7c1,0.2,29.8-0.7,30-0.7c0.2,0,14.1,0.9,15.4,0.7C82.5,90.2,81.7,88.7,80.4,88.3z"/>
<path id="XMLID_510_" class="st2" d="M67,47.4c-1-2.6-2.4-2.7-3.7-2.7c-7.3,0.6-6.1,29.7-16.2,36.2c-0.6,1,12,5.4,14.1,6.6
	c3.4,1.9,11,3.7,12.6-1.6C75,82.2,78.4,75.2,67,47.4z"/>
<path id="XMLID_495_" class="st1" d="M61.9,50.5c-3.1-1.4-11.1,16.7-11.1,17c-1.9-1-13.3-3-13.7-3c-3.7-1.4-9.1,4.7-8.4,5
	c1.6,0.3,7.7-2.3,8.1-2.1c0.9,0.6,14.8,7,16.5,4.2C54.3,70.4,67.4,52.3,61.9,50.5z"/>
<path id="XMLID_494_" class="st3" d="M63.3,44.6c-0.6-1.3-3.1-8.6-3.1-8.4c-0.3,0-2.6,6.1-2.4,7.1c0.2,1,1.3,5.7,1.6,5.6
	C60.9,48.7,63.3,45,63.3,44.6z"/>
<path id="XMLID_501_" class="st1" d="M60.9,33c-0.9-0.7-11.8-3-12.1-2.7c-1,0.6-0.6,4.7-0.3,5.4c0.3,1.6-1.6,4.4-1.3,4.6
	c1,0.9,1.6,0.7,1.9,0.9c0.7,0.3,2.7,4.2,5.4,4.7C59,46.5,61.3,33.4,60.9,33z"/>
<path id="XMLID_509_" class="st4" d="M54.3,41.8c0-0.2-1.9,1.4-1.9,1.4c0.2,0.3,2.1,1.7,2.4,0.7C55,43.2,54.6,42.3,54.3,41.8z"/>
<path id="XMLID_497_" class="st5" d="M57,21.9c-3.7-0.3-8,2.3-10.1,5.4c-1.9,4.6,6.4,6.8,7.3,6.8c-0.7,0.3-5,0.2-8-4.2
	c1,9.1,11.3,5.7,12.6,3.4c3.1-0.3,1.4,2.6,1.4,2.7c0,0.1,2.7,8.7,3.1,8.9C71.8,41.4,71.1,23.2,57,21.9z"/>
<polygon class="st1" points="31.9,43.9 30.7,39.7 26.5,38.7 30.7,37.4 31.8,33.3 33,37.3 37.3,38.5 33.2,39.7 "/>
<polygon class="st1" points="21.5,51.4 20.2,47.3 16.1,46.1 20.2,44.7 21.3,40.6 22.5,44.7 26.9,45.8 22.7,47.3 "/>
<polygon class="st1" points="30.2,55.7 29.5,53.4 27,52.8 29.5,52.1 30,49.8 30.7,52.1 33.2,52.6 30.7,53.4 "/>
<polygon class="st1" points="23.2,27.7 22.5,25.4 20.1,24.7 22.5,24 23.1,21.8 23.8,24 26.2,24.7 23.8,25.4 "/>
<polygon class="st1" points="41.2,20.6 40,16.3 35.8,15.3 40,13.9 41,9.8 42.2,13.9 46.4,14.9 42.4,16.3 "/>
<path class="st6" d="M53.7,36.4c0.3,0.2,0.7,1,0.3,0.9c-1-0.7-3,0.6-3.3,0C51.6,35.3,53.7,36.4,53.7,36.4z"/>
</svg>
