<?xml version="1.0" encoding="utf-8"?>
<!-- Generator: Adobe Illustrator 21.0.0, SVG Export Plug-In . SVG Version: 6.00 Build 0)  -->
<svg version="1.1" id="Layer_1" xmlns="http://www.w3.org/2000/svg" xmlns:xlink="http://www.w3.org/1999/xlink" x="0px" y="0px"
	 viewBox="0 0 100 100" style="enable-background:new 0 0 100 100;" xml:space="preserve">
<style type="text/css">
	.st0{fill:#F16648;}
	.st1{fill:#FCC299;}
	.st2{fill:#F58870;}
	.st3{fill:#EFB58E;}
	.st4{fill:#333333;}
	.st5{fill:#FFFFFF;}
</style>
<g>
	<path id="XMLID_3_" class="st0" d="M86.2,33.5c-2.2-10.7-7-11.5-8.5-11.7c-16.5-3.6-19.2,39.8-7,44.4c5.3,2,10.9-0.4,13.2-2.3
		C94.6,55.1,87.9,35.4,86.2,33.5z"/>
	<path id="XMLID_318_" class="st1" d="M80.7,12.2C61,23.5,62.4,43.9,62.4,43.9c-0.1,0.7,4.2-1.6,4.1-1.9
		C66,28.5,75.6,19.3,78.8,17.2c0.3,0.1,2.3-0.4,2.7-1.2c0.1-0.1-1.4,0-1.4,0c0.1-0.1,1.9-1.6,2.2-2.2C82.7,12.9,81.8,11.5,80.7,12.2
		z"/>
	<path id="XMLID_328_" class="st2" d="M76.9,45.7c-0.1-0.7-11.6-5.4-12.2-4.9C57.5,50.5,41.7,57.6,41.2,58
		C39,59.9,52.9,80.4,57.8,76.3C69.4,66.3,77.7,48.1,76.9,45.7z"/>
	<path id="XMLID_406_" class="st0" d="M48.3,64.3c-0.4-0.7-5.9-7.3-6.8-4.7c-0.4,1.4,7.8,12.3,9.6,13.8C58.4,78.8,50.6,67,48.3,64.3
		z"/>
	<path id="XMLID_342_" class="st1" d="M50.3,68.4c-0.3-0.1-21.6,12-36.2,17.6c0,0-0.8,0.7-0.4,0.8c2.2,1.4,6.2,1.4,6.9,1.2
		c9.3-3,32-14.6,32.3-14.7C53.2,72.8,50.6,68.4,50.3,68.4z"/>
	<path id="XMLID_346_" class="st1" d="M44,60.4c0,0-23.8,11.1-31.2,13.2c-0.3,0-4.7,5-3.1,5.3c4.1,0.1,37.4-14.7,37.4-15.1
		C47.2,63.9,44,60.4,44,60.4z"/>
	<path id="XMLID_323_" class="st3" d="M74.9,44.3c-0.7-0.4-2.7-1.8-1.9-4.7c0-0.1-3-1.1-3-1.1s-0.7,2.8-4.2,3.2
		c-2,0.9,5.4,4.7,7.4,4.7C74,46.9,75.3,44.7,74.9,44.3z"/>
	<path id="XMLID_293_" class="st1" d="M79.6,34.9c0.1-0.1,0.3-1.9-0.1-2.2c-5.3-2.7-5.4-7-6.5-6.3c-1.1,0.7-4.2,2.2-4.3,2.4
		c-2.3,6.3,0.3,9.6,2,10.5c4.3,2,8.4-2.8,8.2-2.8C79.4,37,81.8,35.4,79.6,34.9z"/>
	<path class="st4" d="M75.2,33c0.4-0.3,1.9,0.1,2,0.3c0.4,0.3,0.7,1.1-0.3,0.9l0,0c-0.1-0.1-1.2-0.7-1.6-0.4l0,0
		C75.2,33.8,75,33.1,75.2,33z"/>
	<path id="XMLID_296_" class="st0" d="M78.3,32.7c-4.7-1.9-5.3-8-5.9-7.4c-0.9,8.2,8,9.2,9.2,8.6C82.3,33.1,79.4,33.1,78.3,32.7z"/>
	<path id="XMLID_317_" class="st1" d="M90.3,21.6c0-0.9-0.3-5.4-0.7-5.9c-0.3-0.3-1.2-1.2-1.9,0c-0.1,0.3,0.1,3,0.1,3
		s-0.7-0.9-0.8-0.8c-0.3,0.1,0.3,1.8,0.7,2c0.3,3.4-1.6,16.2-12.3,25.5c-1.1,0.9-0.1,5.1,0.3,4.9C89.1,39.2,90.3,24.9,90.3,21.6z"/>
	<path class="st5" d="M73.8,36.5c0,0.1-0.3,2-1.8,1.8C70.9,38,71,36.1,71.3,36C71.8,35.7,73.8,36,73.8,36.5z"/>
	<path class="st4" d="M69,30.7c0.4-0.3,2.2,0,2.3,0.9c0,0.1-0.7,0.3-0.7,0.3c-0.3-0.7-1.2-0.7-1.6-0.4l0,0
		C69,31.5,68.8,30.8,69,30.7z"/>
	<path class="st4" d="M77.1,29.9c1.1,0,2.2,0.7,2.8,1.4c0.1,0.1-0.4,0.8-0.7,0.7l0,0c-0.4-0.8-1.4-1.2-2.3-1.4l0,0
		C76.8,30.6,76.9,29.9,77.1,29.9z"/>
	<path class="st4" d="M71.4,28.3c0.1,0,0.7,0.8-0.1,0.8l0,0c-0.7-0.1-1.4-0.1-2,0C69.1,28.9,68.8,28,71.4,28.3z"/>
</g>
</svg>
