<?xml version="1.0" encoding="utf-8"?>
<!-- Generator: Adobe Illustrator 23.0.3, SVG Export Plug-In . SVG Version: 6.00 Build 0)  -->
<svg version="1.1" id="Layer_1" xmlns="http://www.w3.org/2000/svg" xmlns:xlink="http://www.w3.org/1999/xlink" x="0px" y="0px"
	 viewBox="0 0 160 160" style="enable-background:new 0 0 160 160;" xml:space="preserve">
<style type="text/css">
	.st0{fill:none;stroke:#B2B2B2;stroke-miterlimit:10;stroke-dasharray:3;}
	.st1{fill:#FFFFFF;stroke:#666666;stroke-linecap:round;stroke-miterlimit:10;}
	.st2{fill:#00CBAA;stroke:#FFFFFF;stroke-miterlimit:10;}
	.st3{fill:#F8CC00;}
	.st4{fill:none;stroke:#666666;stroke-miterlimit:10;}
	.st5{fill:#FFFFFF;stroke:#666666;stroke-miterlimit:10;}
	.st6{fill:none;stroke:#666666;stroke-linecap:round;stroke-miterlimit:10;}
	.st7{fill:none;}
</style>
<g>
	<path class="st0" d="M63.96,112.65c-1.65,0.1-3.3,0.15-4.96,0.14c-6.29-0.04-13.08,0.66-19.31-0.12c-2.3-0.26-4.23-1.55-4.95-3.4
		c-0.91-2.34,0.5-4.56,1.24-5.72c1.81-2.85,4.66-3.86,5.72-4.18c1.02-0.16,1.79-1.01,1.86-2.01c0.06-0.93-0.5-1.81-1.39-2.17
		c-2.42-0.41-4.85-0.82-7.27-1.24c-1.26,0.09-2.63,0.09-5.19-1.08c-1.65-0.76-3.66-1.68-4.49-3.87c-1.12-2.99,0.92-5.81,1.08-6.03
		c2.3-3.07,6.22-2.81,6.5-2.78c3.92-0.17,6.84-0.34,10.76-0.51c3.71-0.16,5.77,0.09,8.32-2.71c0.44-0.48,0.84-1.05,0.88-1.7
		c0.08-1.25-1.17-2.18-2.37-2.55s-2.53-0.47-3.53-1.24c-1.38-1.06-1.62-3.17-0.89-4.75s2.23-2.68,3.81-3.41
		c3.49-1.6,7.46-1.66,11.29-1.87c5.66-0.31,11.29-1.02,16.85-2.12c1.61-0.32,3.4-0.79,4.24-2.2c1.54-2.55,0.69-4.23,4.04-4.39
		c2.36-0.12,4.73-0.18,7.1-0.27c3.78-0.14,7.56-0.29,11.34-0.43c7.01,0.05,14.02,0.1,21.03,0.15c5.82,1,9.53,4.1,9.43,6.81
		c-0.07,1.89-1.98,3.39-2.78,4.02c-1.48,1.17-3.58,1.41-7.58,2.01c-2.59,0.39-4.18,0.47-4.95,1.7c-0.07,0.12-0.64,1.05-0.31,1.86
		c0.32,0.75,1.13,0.66,2.32,1.7c0.6,0.52,1.16,1.01,1.24,1.7c0.13,1.21-1.32,2.25-1.86,2.63c-1.14,0.81-2.4,1.09-4.79,1.24
		c-1.66,0.1-4.92-0.7-6.33-0.12c-1.71,0.71-1.27,2.66,0.09,3.88c1.02,0.92,2.35,1.46,3.31,2.43c1.38,1.38,1.84,3.6,1.12,5.41
		c-7.75,0.76-15.53,1.53-23.12,3.29c-1.43,0.33-2.89,0.72-4.1,1.55s-2.14,2.22-2.06,3.68c0.18,2.93,4.13,4.97,3.48,7.83
		c-0.2,0.89-0.84,1.61-1.45,2.29c-1.49,1.65-3.06,3.36-5.12,4.21c-1.27,0.52-2.65,0.68-4.01,0.84
		C73.44,111.71,68.72,112.36,63.96,112.65z"/>
	<path class="st1" d="M44.33,81.34c-1.11-2.31-3.93-8.35-4.64-9.87c-0.81-1.72-0.04-3.77,1.7-4.54l3.95-1.73l1.81-0.8l0.14-0.06
		l0.98-0.43l17.35-7.62l0.17-0.08L77,51.29c1.08-0.47,2.27-0.34,3.19,0.25c0.01,0,0.01,0.01,0.02,0.01
		c0.53,0.35,0.98,0.85,1.25,1.48c2.05,4.68,6.1,14.02,9.88,23.44c3.9,9.73,7.51,19.55,9.17,24.12c0.54,1.49-0.16,3.14-1.61,3.78
		L68.54,117.8l-0.84,0.37l-0.77,0.34c-0.37,0.16-0.76,0.25-1.14,0.25c-1.09,0.03-2.15-0.54-2.71-1.55
		c-2.37-4.29-7.51-13.69-12.35-23.17"/>
	<path class="st1" d="M62.96,94.24c-0.83-2.06-1.66-4.17-2.49-6.27c-3.93-10.07-7.56-20.18-9.39-25.35
		c-0.68-1.93,0.36-4.04,2.31-4.68l4.83-1.57l3.34-1.09l0.36-0.12l0.25-0.08l2.96-0.96l11.95-3.88l5.36-1.74l1.84-0.6l5.41-1.76
		l3.48-1.13c1.21-0.39,2.47-0.12,3.39,0.61c0.42,0.33,0.77,0.76,1.02,1.27c0.05,0.1,0.1,0.21,0.14,0.32
		c0.01,0.04,0.03,0.09,0.04,0.13c0.13,0.4,0.27,0.84,0.42,1.3c1.79,5.54,4.84,15.17,7.64,24.85c1.1,3.8,2.16,7.62,3.13,11.18
		c1.49,5.49,2.76,10.39,3.63,13.77c0.15,0.6,0.29,1.15,0.42,1.64c0.02,0.07,0.03,0.13,0.05,0.2c0.03,0.13,0.06,0.26,0.07,0.39l0,0
		c0.03,0.25,0.03,0.51,0.01,0.76c-0.02,0.17-0.05,0.34-0.1,0.51c-0.08,0.31-0.22,0.61-0.39,0.88c-0.17,0.26-0.37,0.5-0.61,0.71
		c-0.31,0.28-0.69,0.49-1.1,0.63l-1.53,0.5l-7.65,2.51l-5.22,1.71l-7.33,2.41l-14.01,4.6c-1.59,0.52-3.32-0.26-3.98-1.8
		c-0.17-0.41-0.37-0.86-0.57-1.34c-0.25-0.59-3.28-7.52-3.57-8.21"/>
	<path class="st1" d="M65.97,62.96c-0.44-4.4-0.78-7.78-0.92-9.16c-0.16-1.56-0.31-2.96-0.43-4.18c-0.04-0.39-0.08-0.76-0.11-1.11
		c-0.21-2.08,1.31-3.91,3.35-4.07l41.68-3.2c2.01-0.15,3.75,1.38,3.9,3.42c0.41,5.59,1.18,16.71,1.64,27.81
		c0.14,3.44,0.26,6.88,0.35,10.16c0,0.03,0,0.06,0,0.09c0.14,4.98,0.22,9.57,0.28,13.19c0.03,1.91,0.04,3.54,0.06,4.82
		c0.02,1.68-1.21,3.1-2.84,3.3c-0.05,0.01-0.1,0.01-0.15,0.01l-0.88,0.07l-38.25,2.92c-1.67,0.13-3.17-1.06-3.44-2.74
		c-0.11-0.69-0.53-4.61-1.08-9.99c-0.4-3.95-0.88-8.69-1.37-13.52"/>
	<path class="st2" d="M114.7,99.84c0.02,1.56-1.15,2.88-2.69,3.07c-0.05,0.01-0.09,0.01-0.14,0.01l-0.84,0.07l-36.29,2.72
		c-1.59,0.12-3-0.98-3.27-2.55c-0.11-0.65-0.5-4.29-1.03-9.3c1.81,0.25,3.8,0.31,5.92,0.02c4.86-0.66,8.51-2.88,13.65-6.01
		c6.13-3.73,6.39-5.06,10.39-6.31c2.4-0.75,6.36-1.94,10.7-0.3c1.28,0.48,2.36,1.12,3.27,1.81
		C114.58,90.15,114.67,96.38,114.7,99.84z"/>
	<circle class="st3" cx="80.98" cy="81.89" r="4.1"/>
	<line class="st4" x1="75.66" y1="67.37" x2="104.6" y2="65.93"/>
	<line class="st4" x1="75.16" y1="59.55" x2="96.98" y2="58.02"/>
	<circle class="st5" cx="66.32" cy="67.15" r="1.22"/>
	<circle class="st5" cx="46.26" cy="84.89" r="1.22"/>
	<g>
		<line class="st6" x1="64.69" y1="102.66" x2="66.1" y2="98.52"/>
		<line class="st6" x1="63.43" y1="99.63" x2="67.36" y2="101.55"/>
	</g>
</g>
<rect x="15" y="15" class="st7" width="130" height="130"/>
</svg>
