<?xml version="1.0" encoding="utf-8"?>
<!-- Generator: Adobe Illustrator 23.0.3, SVG Export Plug-In . SVG Version: 6.00 Build 0)  -->
<svg version="1.1" id="Layer_1" xmlns="http://www.w3.org/2000/svg" xmlns:xlink="http://www.w3.org/1999/xlink" x="0px" y="0px"
	 viewBox="0 0 160 160" style="enable-background:new 0 0 160 160;" xml:space="preserve">
<style type="text/css">
	.st0{fill:none;}
	.st1{fill:none;stroke:#B2B2B2;stroke-miterlimit:10;}
	.st2{fill:none;stroke:#B2B2B2;stroke-miterlimit:10;stroke-dasharray:2.9954,2.9954;}
	.st3{fill:none;stroke:#B2B2B2;stroke-miterlimit:10;stroke-dasharray:2.7835;}
	.st4{fill:#E5E5E5;}
	.st5{fill:#FFFFFF;stroke:#666666;stroke-linecap:round;stroke-miterlimit:10;}
	.st6{fill:#FFFFFF;stroke:#666666;stroke-width:0.903;stroke-linecap:round;stroke-miterlimit:10;}
	.st7{fill:#FFFFFF;stroke:#666666;stroke-width:0.9;stroke-linecap:round;stroke-miterlimit:10;}
	.st8{fill:none;stroke:#666666;stroke-width:0.8519;stroke-linecap:round;stroke-miterlimit:10;}
	.st9{fill:#FFD400;stroke:#666666;stroke-linecap:round;stroke-miterlimit:10;}
	.st10{fill:#59E0BC;stroke:#666666;stroke-linecap:round;stroke-miterlimit:10;}
</style>
<g>
	<rect x="15" y="15" class="st0" width="130" height="130"/>
</g>
<g>
	<g>
		<g>
			<polyline class="st1" points="77.36,101.89 75.86,101.89 75.9,103.39 			"/>
			<path class="st1" d="M75.91,103.94l0.04,1.5c0,0-0.55,0-1.5,0.01"/>
			<path class="st2" d="M71.46,105.46c-5.91,0.02-16.11,0.04-20.99-0.02c-1.99-0.26-3.73-1.39-4.33-3.12
				c-0.78-2.17-0.52-5.64,0.09-6.68c1.56-2.6,3.47-2.95,5.46-3.03l5.99-0.09c0,0,9.14,0.22,9.36-13.16c0-0.09,0-0.09,0-0.17
				c-0.17-7.02-3.47-8.75-8.06-9.53c-4.77-0.78-15.61-1.04-15.61-1.04c-10.23,0.07-10.75-19.68,3.38-19.6
				c8.75-0.17,44.11,0.26,44.11,0.26l2.95,1.39c0,0,17.5,0.35,24.52,0.43c3.01,0,9.09,2.35,9.09,7.89v4.77
				c0,3.99-4.25,7.63-7.45,7.63l-9.36,0.52c-1.65,0.17-2.95,1.91-2.95,3.9v0.09c0,2.08,1.39,3.81,3.12,3.81h3.9
				c4.51,0.17,8.06,4.33,8.06,10.74c0,5.2-0.87,11.35-8.75,11.44H78.87"/>
		</g>
	</g>
	<path class="st3" d="M43.93,87.85h-6.76c-2.51,0-4.59-2.08-4.59-4.59v-1.04c0-2.51,2.08-4.59,4.59-4.59h6.76
		c2.51,0,4.59,2.08,4.59,4.59v1.04C48.53,85.76,46.45,87.85,43.93,87.85z"/>
	<ellipse class="st4" cx="78.13" cy="117.92" rx="20.52" ry="2.52"/>
	<path class="st5" d="M64.37,81.79h7.13v12.06H60.35c-0.48,0-0.88-0.4-0.88-0.88V86.3"/>
	<path class="st5" d="M71.5,57.61H60.35c-0.48,0-0.88-0.4-0.88-0.89V46.36c0-0.48,0.4-0.89,0.88-0.89h11.16L71.5,57.61L71.5,57.61z"
		/>
	<g>
		<path class="st6" d="M83.74,114.02v3.11c-0.09,0.48-0.48,0.88-0.97,0.88H72.42c-0.48,0-0.89-0.4-0.89-0.88v-11.16h11.96"/>
		<path class="st6" d="M83.74,114.02"/>
		<path class="st6" d="M83.74,105.96"/>
	</g>
	<g>
		<rect x="71.5" y="93.84" class="st5" width="12.12" height="12.12"/>
	</g>
	<polyline class="st5" points="95.78,71.69 95.78,81.79 83.65,81.79 83.65,69.66 	"/>
	<polyline class="st5" points="92.94,69.66 83.65,69.66 83.65,57.52 95.78,57.52 95.78,62.62 	"/>
	<circle class="st7" cx="95.78" cy="66.7" r="1.07"/>
	<circle class="st7" cx="60.27" cy="82.66" r="1.07"/>
	<g>
		<line class="st8" x1="82.66" y1="111.74" x2="84.5" y2="109.68"/>
		<line class="st8" x1="82.55" y1="109.76" x2="84.6" y2="111.67"/>
	</g>
	<path class="st5" d="M107.02,93.9H95.78V81.85h11.32c0.48,0,0.81,0.32,0.81,0.81v10.53C107.83,93.59,107.5,93.9,107.02,93.9z"/>
	<rect x="83.65" y="81.79" class="st7" width="12.12" height="12.12"/>
	<rect x="71.5" y="81.79" class="st9" width="12.12" height="12.12"/>
	<path class="st10" d="M95.78,57.52H83.65V45.48h11.16c0.48,0,0.88,0.4,0.88,0.88L95.78,57.52L95.78,57.52z"/>
	<rect x="71.5" y="45.48" class="st5" width="12.12" height="12.12"/>
</g>
</svg>
