<?xml version="1.0" encoding="utf-8"?>
<!-- Generator: Adobe Illustrator 23.0.3, SVG Export Plug-In . SVG Version: 6.00 Build 0)  -->
<svg version="1.1" id="Layer_1" xmlns="http://www.w3.org/2000/svg" xmlns:xlink="http://www.w3.org/1999/xlink" x="0px" y="0px"
	 viewBox="0 0 160 160" style="enable-background:new 0 0 160 160;" xml:space="preserve">
<style type="text/css">
	.st0{fill:none;}
	.st1{fill:none;stroke:#B2B2B2;stroke-miterlimit:10;}
	.st2{fill:none;stroke:#B2B2B2;stroke-miterlimit:10;stroke-dasharray:3.3948,3.3948;}
	.st3{fill:none;stroke:#B2B2B2;stroke-miterlimit:10;stroke-dasharray:3.0784,3.0784;}
	.st4{fill:none;stroke:#B2B2B2;stroke-miterlimit:10;stroke-dasharray:3.1574,3.1574;}
	.st5{fill:#FFFFFF;stroke:#666666;stroke-linecap:round;stroke-miterlimit:10;}
	.st6{fill:#666666;}
	.st7{fill:#FFFFFF;}
	.st8{fill:#FFFFFF;stroke:#666666;stroke-width:1.0399;stroke-miterlimit:10;}
	.st9{fill:#3DBC8A;}
	.st10{fill:#666666;stroke:#FFFFFF;stroke-miterlimit:10;}
	.st11{fill:#58DFBB;}
	.st12{fill:#FFD400;}
	.st13{fill:#59E0BC;}
	.st14{fill:#00CBAA;}
	.st15{fill:#E3B500;}
	.st16{fill:#26C69C;}
	.st17{fill:#00A585;}
	.st18{fill:none;stroke:#666666;stroke-linecap:round;stroke-miterlimit:10;}
</style>
<rect x="15" y="15" class="st0" width="130" height="130"/>
<g>
	<g>
		<g>
			<polyline class="st1" points="72.46,85.31 70.91,85.31 71.52,83.88 			"/>
			<line class="st2" x1="72.83" y1="80.76" x2="82.73" y2="57.3"/>
			<polyline class="st1" points="83.39,55.73 83.99,54.31 85.53,54.31 			"/>
			<path class="st3" d="M88.61,54.32l33.52,0.07c4.2,0.3,7.79,1.53,7.79,4.81c0,5.26-6.64,6.41-8.63,6.87
				c-7.51,1.74-6.97,3.29-6.97,5.15c-0.01,3.19,2.81,4.3,6.16,4.8c2.13,0.3,4.35,2.87,4.35,5.09c0,2.83-3.59,3.97-6.41,4.2H74"/>
		</g>
	</g>
	<g>
		<polyline class="st1" points="54.27,86.3 53.63,85.09 52.25,85.09 		"/>
		<path class="st4" d="M49.44,85.09H37.03H36.5c-1.68,0-8.32,0.15-8.32,6.11c0,2.83,3.43,5.26,6.26,5.42
			c6.95,0.38,11.84-0.15,11.84,4.51c0,4.2-2.29,3.21-3.97,4.43c-2.37,1.75-2.06,5.58-0.61,7.18c2.13,2.45,6.26,3.21,9.54,3.05
			l15.77-0.2l1.41-0.02l4.37-0.02l-0.64-1.22"/>
	</g>
	<g>
		<path class="st5" d="M49.5,87.75l-7.02-9.6c-0.68-0.76-0.46-1.91,0.38-2.37l3.83-2.13l14.51,7.68l18.46,34.5l-5.26,0.99
			c-0.86,0.22-1.78-0.11-2.3-0.84L58.82,99.33"/>
	</g>
	<path class="st5" d="M57.28,90.14L45.7,72.21c-0.53-0.84-0.23-1.91,0.68-2.29l26.57-10.08l4.38,56.91
		c-1.57-0.11-2.58,0.08-3.47-1.35L63.64,99.48"/>
	<path class="st5" d="M55.43,75.81l-4.77-9.56c-0.38-0.92,0.08-1.98,1.07-2.29L94.49,53.8c0.76-0.23,1.53,0.15,1.83,0.92
		l25.36,47.42c0.38,0.84-0.08,1.91-1,2.13l-42.66,12.55c-0.76,0.23-1.53-0.15-1.83-0.84l-15.31-29.5"/>
	<g>
		<path class="st6" d="M91.21,66.09c-0.28,0-0.56-0.06-0.83-0.17c-0.56-0.23-1-0.67-1.24-1.22c-0.23-0.55-0.24-1.17-0.01-1.73
			c0.45-1.1,0.74-2.26,0.87-3.42c0.18-1.67,0.03-3.34-0.45-4.98c-0.36-1.2,0.34-2.46,1.53-2.81c0.2-0.06,0.43-0.09,0.64-0.09
			c1,0,1.89,0.67,2.17,1.63c0.65,2.21,0.85,4.48,0.61,6.74c-0.17,1.59-0.57,3.16-1.17,4.65c-0.35,0.85-1.17,1.41-2.1,1.41
			L91.21,66.09z"/>
		<path class="st7" d="M91.73,53.32c0.26,0,0.51,0.17,0.58,0.44c0.59,2,0.77,4.05,0.55,6.09c-0.15,1.44-0.52,2.85-1.07,4.21
			c-0.1,0.23-0.32,0.37-0.56,0.37h-0.01c-0.07,0-0.15-0.02-0.22-0.04c-0.31-0.12-0.46-0.48-0.33-0.79c0.51-1.25,0.84-2.55,0.98-3.88
			c0.2-1.89,0.04-3.78-0.51-5.62c-0.1-0.32,0.09-0.66,0.41-0.76C91.61,53.33,91.68,53.32,91.73,53.32 M91.73,50
			c-0.37,0-0.76,0.05-1.11,0.16c-1,0.29-1.82,0.96-2.33,1.89c-0.51,0.92-0.61,1.98-0.32,2.99c0.42,1.42,0.55,2.88,0.39,4.33
			c-0.11,1.01-0.36,2.02-0.76,2.98c-0.82,2,0.15,4.3,2.15,5.11c0.46,0.19,0.94,0.28,1.44,0.29h0.02h0.03c1.6,0,3.02-0.96,3.64-2.45
			c0.67-1.64,1.1-3.35,1.29-5.1c0.27-2.48,0.04-4.96-0.67-7.39C95,51.16,93.46,50,91.73,50L91.73,50z"/>
	</g>
	<g>
		<path class="st6" d="M94.52,68.59c-0.18,0-0.36-0.04-0.52-0.11c-0.74-0.3-1.08-1.14-0.79-1.87c0.84-2.04,1.37-4.17,1.61-6.35
			c0.34-3.09,0.05-6.19-0.84-9.2c-0.22-0.76,0.21-1.56,0.97-1.78c0.13-0.04,0.27-0.06,0.41-0.06c0.63,0,1.2,0.43,1.38,1.03
			c1,3.38,1.31,6.86,0.93,10.33c-0.27,2.44-0.87,4.83-1.81,7.12c-0.22,0.54-0.75,0.89-1.33,0.89H94.52z"/>
		<path class="st7" d="M95.36,50.06c0.27,0,0.51,0.17,0.58,0.44c0.96,3.28,1.27,6.64,0.91,10.01c-0.26,2.37-0.84,4.69-1.74,6.9
			c-0.1,0.23-0.32,0.37-0.56,0.37h-0.01c-0.07,0-0.15-0.02-0.22-0.04c-0.31-0.12-0.46-0.48-0.33-0.79c0.86-2.11,1.42-4.32,1.66-6.57
			c0.35-3.2,0.05-6.4-0.86-9.52c-0.1-0.32,0.09-0.66,0.41-0.76C95.25,50.06,95.31,50.06,95.36,50.06 M95.36,48.39
			c-0.21,0-0.43,0.03-0.64,0.09c-1.2,0.36-1.89,1.62-1.54,2.81c0.85,2.92,1.13,5.91,0.81,8.88c-0.22,2.1-0.75,4.15-1.55,6.12
			c-0.47,1.16,0.09,2.48,1.25,2.95c0.27,0.11,0.54,0.17,0.83,0.17c0.95,0,1.78-0.55,2.13-1.41c0.96-2.36,1.59-4.83,1.86-7.35
			c0.38-3.58,0.06-7.16-0.96-10.65C97.25,49.06,96.36,48.39,95.36,48.39L95.36,48.39z"/>
	</g>
	<path class="st8" d="M55.43,75.81"/>
	<path class="st6" d="M64.22,60.63c0,0-0.55,0-0.67,0c-1.17-0.12-1.84-0.55-1.84-2.38c0-2.03,0.98-2.02,1.71-2.32
		c0.24-0.12,0.8-0.06,0.8-0.06c-0.19,0.55-0.37,1.28-0.37,2.27C63.8,59.29,63.97,60.08,64.22,60.63z"/>
	<path class="st9" d="M64.4,61.44C64.33,61.44,64.33,61.44,64.4,61.44L64.4,61.44L64.4,61.44z"/>
	<path class="st10" d="M88.92,56.93c0,6.11-2.75,11.2-6.78,11.99h-3.99l-12.22-6.11l-0.92-0.46c0,0-0.38-0.23-0.68-1.07
		c0,0,0,0,0.08,0h-0.08c-0.3-0.68-0.53-1.68-0.53-3.21c0-1.22,0.23-2.13,0.46-2.83c0-0.08,0.08-0.15,0.08-0.23
		c0.3-0.76,0.68-1.15,0.68-1.15l1.22-0.92L77.85,45c0,0,2.23-0.26,3.97-0.38C85.79,44.87,88.92,50.29,88.92,56.93z"/>
	<path class="st11" d="M64.4,61.44C64.33,61.44,64.33,61.44,64.4,61.44L64.4,61.44L64.4,61.44z"/>
	<g>
		<g>
			<path class="st12" d="M73.29,96.04l-5.36-11.06c-0.13-0.28,0-0.55,0.28-0.68l9.28-2.61c0.2-0.07,0.48,0.07,0.55,0.28l5.57,11.06
				L73.29,96.04z"/>
		</g>
		<g>
			<path class="st13" d="M85.39,92.39l-5.36-10.73c-0.13-0.28,0-0.62,0.28-0.68l9.14-2.68c0.2-0.07,0.48,0.07,0.55,0.28l5.43,10.86
				L85.39,92.39z"/>
		</g>
		<g>
			<path class="st14" d="M96.87,89.03L91.51,78.3c-0.13-0.28,0-0.62,0.28-0.68l8.46-2.47c0.2-0.07,0.41,0.07,0.55,0.2l5.71,10.73
				L96.87,89.03z"/>
		</g>
		<path class="st15" d="M83.4,93.56l-9.55,2.75c-0.48,0.13-0.68-0.55-0.68-0.55l10.38-2.95C83.53,92.81,84.01,93.42,83.4,93.56z"/>
		<path class="st16" d="M95.22,90.19l-9.14,2.68c-0.48,0.13-0.68-0.55-0.68-0.55l10.01-2.93C95.42,89.44,95.77,90.05,95.22,90.19z"
			/>
		<path class="st17" d="M106.28,86.96l-8.73,2.61c-0.55,0.2-0.68-0.55-0.68-0.55l9.62-2.95C106.49,86.07,106.83,86.75,106.28,86.96z
			"/>
	</g>
	<path class="st7" d="M81.2,68.85h-0.3h-2.75c0,0-5.5-2.52-6.19-12.07c-0.38-5.42,2.21-9.77,4.96-11.53
		c1.15-0.68,4.89-0.68,4.89-0.68c-0.61,0-7.18,2.37-7.03,12.29C74.87,62.59,78.15,67.55,81.2,68.85z"/>
	<circle class="st5" cx="51.87" cy="90.86" r="1.19"/>
	<circle class="st5" cx="56.97" cy="79.15" r="1.19"/>
	<g>
		<line class="st18" x1="61.29" y1="97.63" x2="61.47" y2="94.44"/>
		<line class="st18" x1="59.81" y1="95.74" x2="62.95" y2="96.33"/>
	</g>
</g>
</svg>
