<?xml version="1.0" encoding="utf-8"?>
<!-- Generator: Adobe Illustrator 23.0.3, SVG Export Plug-In . SVG Version: 6.00 Build 0)  -->
<svg version="1.1" id="Layer_1" xmlns="http://www.w3.org/2000/svg" xmlns:xlink="http://www.w3.org/1999/xlink" x="0px" y="0px"
	 viewBox="0 0 160 160" style="enable-background:new 0 0 160 160;" xml:space="preserve">
<style type="text/css">
	.st0{fill:none;}
	.st1{fill:none;stroke:#B2B2B2;stroke-miterlimit:10;}
	.st2{fill:none;stroke:#B2B2B2;stroke-miterlimit:10;stroke-dasharray:2.5083,2.5083;}
	.st3{fill:none;stroke:#B2B2B2;stroke-miterlimit:10;stroke-dasharray:2.5243,2.5243;}
	.st4{fill:#FFD400;stroke:#666666;stroke-miterlimit:10;}
	.st5{fill:#59E0BC;stroke:#666666;stroke-miterlimit:10;}
	.st6{fill:#FFFFFF;}
	.st7{fill:#FFFFFF;stroke:#666666;stroke-linecap:round;stroke-miterlimit:10;}
	.st8{fill:#FFFFFF;stroke:#666666;stroke-miterlimit:10;}
	.st9{fill:none;stroke:#666666;stroke-linecap:round;stroke-miterlimit:10;}
</style>
<g>
	<rect x="15" y="15" class="st0" width="130" height="130"/>
</g>
<g>
	<g>
		<path class="st1" d="M53.32,69.78c-0.45,0.62-0.77,1-0.77,1h-1.26"/>
		<path class="st2" d="M48.78,70.78h-7.5c-2.01,0-10.26,0.24-10.26,8.02c0,3.77,4.16,6.98,7.63,7.14c8.63,0.4,13.85-0.24,13.85,5.93
			c0,5.45-8.6,4.25-10.6,5.85c-2.93,2.33-2.54,7.3-0.77,9.46c2.7,3.21,6.71,4.25,10.8,4.01h31.64l23.56-0.16
			c0.93,0,4.7-0.16,4.7-4.01c0-1.84-1.92-3.45-3.54-3.52c-3.93-0.24-9.22,0.16-9.22-2.97c0-2.72,6.54-2.17,7.54-2.89
			c1.31-3.09-0.47-4.41-2.19-5.04"/>
		<path class="st1" d="M103.22,92.25c-0.64-0.15-1.12-0.22-1.22-0.3h1.26"/>
		<path class="st3" d="M105.79,91.95h12.94c2,0,10.26-0.24,10.26-8.02c-0.16-3.61-4.32-6.82-7.78-6.99
			c-8.56-0.49-14.73,0.24-14.73-5.93c0-5.45,8.6-4.25,10.6-5.85c2.93-2.33,2.54-7.3,0.77-9.46c-2.7-3.21-6.71-4.25-10.72-4.01
			L48.5,51.45c-0.93,0-4.7,0.16-4.7,4.25c0,2.01,3.92,3.69,5.54,3.77c1.39,0.08,2.6,0.08,3.52,0.24c5.92,0.54,3.2,5.99,1.18,9.03"/>
	</g>
</g>
<circle class="st4" cx="55.71" cy="96.47" r="7.53"/>
<circle class="st4" cx="99.97" cy="55.99" r="10.44"/>
<circle class="st5" cx="71.36" cy="51.8" r="6.47"/>
<circle class="st5" cx="106.58" cy="90.68" r="9.01"/>
<g>
	<path class="st6" d="M53.78,57.82c3.14,0.83,5.55,3.05,6.76,5.82c0.88,2.04,1.1,4.36,0.49,6.66c-1.44,5.44-7.02,8.69-12.47,7.25
		s-8.69-7.02-7.25-12.47C42.76,59.63,48.33,56.38,53.78,57.82z"/>
	<path class="st7" d="M43.51,60.96c2.18-2.47,5.5-3.83,9-3.37c3.22,0.42,5.9,2.31,7.42,4.92c1.12,1.9,1.64,4.17,1.34,6.54
		c-0.75,5.59-5.87,9.51-11.45,8.76c-4.59-0.61-8.06-4.18-8.73-8.54"/>
	<path class="st7" d="M58.73,62.56"/>
	<circle class="st7" cx="41.96" cy="65.24" r="1.35"/>
</g>
<g>
	<path class="st7" d="M82.35,65.53c-0.75-0.13-1.54-0.2-2.34-0.2c-7.86,0-14.22,6.36-14.22,14.21s6.36,14.22,14.22,14.22
		s14.21-6.36,14.21-14.21c0-3.7-1.44-7.07-3.75-9.6"/>
	<path class="st8" d="M80.01,68.8c-5.94,0-10.74,4.8-10.74,10.74c0,5.94,4.8,10.74,10.74,10.74c5.94,0,10.74-4.79,10.74-10.73
		C90.75,73.6,85.88,68.8,80.01,68.8z"/>
	<g>
		<line class="st9" x1="86.46" y1="65.82" x2="87.25" y2="68.53"/>
		<line class="st9" x1="88.25" y1="66.9" x2="85.47" y2="67.45"/>
	</g>
</g>
</svg>
