<?xml version="1.0" encoding="utf-8"?>
<!-- Generator: Adobe Illustrator 23.0.3, SVG Export Plug-In . SVG Version: 6.00 Build 0)  -->
<svg version="1.1" id="Layer_1" xmlns="http://www.w3.org/2000/svg" xmlns:xlink="http://www.w3.org/1999/xlink" x="0px" y="0px"
	 viewBox="0 0 160 160" style="enable-background:new 0 0 160 160;" xml:space="preserve">
<style type="text/css">
	.st0{fill:none;}
	.st1{fill:#E5E5E5;}
	.st2{fill:none;stroke:#B2B2B2;stroke-miterlimit:10;stroke-dasharray:3;}
	.st3{fill:#FFFFFF;}
	.st4{fill:#EE7430;}
	.st5{fill:#FFFFFF;stroke:#666666;stroke-miterlimit:10;}
	.st6{fill:#00BF9A;stroke:#666666;stroke-miterlimit:10;}
	.st7{fill:#FFFFFF;stroke:#666666;stroke-linecap:round;stroke-miterlimit:10;}
	.st8{fill:#59DFBB;}
	.st9{fill:#00CBAA;}
	.st10{fill:#FFD100;stroke:#666666;stroke-miterlimit:10;}
	.st11{fill:#4DDAB8;stroke:#666666;stroke-miterlimit:10;}
	.st12{fill:none;stroke:#666666;stroke-miterlimit:10;}
	.st13{fill:none;stroke:#666666;stroke-linecap:round;stroke-miterlimit:10;}
</style>
<g>
	<rect x="15" y="15" class="st0" width="130" height="130"/>
</g>
<g>
	<ellipse class="st1" cx="81.59" cy="116.82" rx="26.07" ry="1.93"/>
	<path class="st2" d="M130.85,56.73c-0.08,1.78-2.03,5.58-9.73,5.67c-2.45,0-3.89,0.42-4.65,1.61c0,0,0,0,0,0.08
		c-0.25,0.85,0.34,1.69,1.1,1.95c3.72,1.27,3.89,6.43-0.59,6.26c-1.02,0-8.63,0.17-8.63,0.17l-16.92,0.47l-17.6,12.81l3.47,21.07
		l-9.64,0.42c0,0-16.41-0.08-23.94-0.08c-2.11-0.25-4.23-1.35-4.65-3.21c-1.61-7.78,4.91-8.8,5.92-9.05
		c4.23-0.17,3.47-4.82,1.02-4.65c-2.28-0.42-10.32-0.34-12.86-1.18c-2.2-0.76-3.64-1.95-3.89-4.06c-0.85-7.44,6.85-8.29,7.11-8.29
		c5.58-0.25,29.69-1.18,29.69-1.18L85.67,50.3c6.6,0.08,29.86,0.08,36.46,0.17C129.58,50.21,130.93,54.19,130.85,56.73z"/>
	<polygon class="st3" points="93.84,79.34 74.04,99.06 65.32,65.01 93.84,65.01 	"/>
	<g>
		<path class="st4" d="M56.18,66.03v0.08V66.03z"/>
	</g>
	<path class="st5" d="M81.55,66.11l-0.51,0.51l-4.68,4.66c-0.16-0.31-0.31-0.69-0.39-1.08c-0.08-0.47-0.31-0.85-0.69-1.16
		c-0.77-0.61-2.01-0.54-2.93,0.24c-1.16,0.92-1.32,2.62-0.47,3.48c0.31,0.31,0.61,0.47,1.01,0.54c0.39,0.08,0.77,0.16,1.08,0.39
		l-4.64,4.64l-0.54,0.54L56.17,66.04L68.32,53.9l0.51-0.51l0.04-0.03l12.14,12.22L81.55,66.11z"/>
	<path class="st5" d="M94.62,78.71l-0.51,0.51l-4.67,4.67c-0.16-0.31-0.31-0.69-0.39-1.08c-0.08-0.47-0.31-0.85-0.69-1.16
		c-0.77-0.61-2.01-0.54-2.93,0.24c-1.16,0.92-1.32,2.62-0.47,3.48c0.31,0.31,0.61,0.47,1.01,0.54c0.39,0.08,0.77,0.16,1.08,0.39
		l-4.64,4.64l-0.54,0.54"/>
	<path class="st6" d="M106.99,66.11L94.32,78.79l0,0l-0.08-0.08l-0.47-0.47l-4.25-4.25c-0.16,0.31-0.31,0.69-0.39,1.08
		c-0.08,0.39-0.24,0.77-0.54,1.01c-0.92,0.92-2.56,0.77-3.48-0.47c-0.77-0.92-0.85-2.17-0.24-2.93c0.31-0.39,0.69-0.61,1.16-0.69
		c0.39-0.08,0.77-0.24,1.08-0.39l-5.57-5.57l12.77-12.77l0.54,0.54l11.61,11.61L106.99,66.11z"/>
	<path class="st7" d="M79.58,42.62l1.28-1.27c0.39-0.39,1.08-0.39,1.47,0l11.99,12l-5.26,5.19c0.39,0.24,0.77,0.39,1.24,0.47
		c0.39,0.16,0.77,0.31,1.08,0.61c0.92,0.92,0.69,2.56-0.47,3.48c-0.92,0.77-2.17,0.85-2.93,0.24c-0.39-0.31-0.61-0.69-0.69-1.16
		s-0.24-0.92-0.47-1.32l-5.26,5.26l-5.03-5.03c-0.24,0.39-0.39,0.77-0.47,1.24c-0.08,0.39-0.24,0.77-0.54,1.01
		c-0.92,0.92-2.56,0.69-3.48-0.47c-0.77-0.92-0.85-2.17-0.24-2.93c0.31-0.39,0.69-0.61,1.16-0.69c0.47-0.08,0.85-0.24,1.24-0.47
		l-5.41-5.41l3.53-3.52"/>
	<path class="st5" d="M118.99,79.56L107,91.55l-3.25-3.25l-1.93-1.93c0.31-0.16,0.77-0.31,1.16-0.39c0.47-0.08,0.85-0.31,1.16-0.69
		c0.61-0.77,0.54-2.01-0.24-2.93c-0.92-1.16-2.62-1.32-3.48-0.47c-0.31,0.31-0.47,0.61-0.54,1.01c-0.08,0.39-0.24,0.77-0.39,1.16
		l-4.64-4.64l-0.54-0.54l5.19-5.19c-0.31-0.16-0.69-0.31-1.08-0.39c-0.39-0.08-0.69-0.24-1.01-0.54c-0.92-0.92-0.69-2.56,0.47-3.48
		c0.92-0.77,2.17-0.85,2.93-0.24c0.39,0.31,0.61,0.69,0.69,1.16c0.08,0.39,0.24,0.77,0.39,1.08l5.19-5.19l11.99,11.99
		C119.36,78.48,119.36,79.1,118.99,79.56z"/>
	<g>
		<path class="st8" d="M69.25,103.86l-0.39,0.39l-0.38-0.39c0.24,0,0.31,0,0.31,0H69.25z"/>
		<path class="st9" d="M86.81,96.59c0,0.08,0,0.08-0.08,0.16l-0.08-0.08C86.72,96.59,86.81,96.59,86.81,96.59z"/>
	</g>
	<path class="st10" d="M68.85,78.79L68.85,78.79L68.85,78.79l-7.58,7.51l-5.19,5.19l-11.91-12c-0.39-0.39-0.39-1.08,0-1.47
		l0.61-0.61l11.29-11.37l0,0l0,0l5.19,5.19c0.31-0.31,0.47-1.4,0.54-1.47c0.08-0.31,0.24-0.54,0.47-0.77
		c0.61-0.61,1.47-0.69,2.24-0.39c0.85,0.24,1.55,1.24,1.77,1.86c0,0.08,0.31,1.08-0.31,1.93c-0.31,0.39-0.69,0.61-1.16,0.69
		c-0.47,0.08-0.85,0.24-1.24,0.47L68.85,78.79z"/>
	<path class="st11" d="M94.32,104.23l-12.04,12.04c-0.4,0.4-1.05,0.4-1.45,0L69.4,104.85l-0.54-0.54l12.68-12.77l5.19,5.19
		c0.16-0.24,0.24-0.54,0.31-0.77c0-0.08,0.08-0.24,0.08-0.31c0.08-0.39,0.24-0.69,0.54-1.01c0.92-0.92,2.56-0.69,3.48,0.47
		c0.24,0.24,0.39,0.54,0.47,0.77c0.31,0.77,0.16,1.55-0.24,2.17c-0.31,0.39-0.69,0.61-1.16,0.69c-0.39,0.08-0.77,0.24-1.08,0.39
		l0.92,0.92L94.32,104.23z"/>
	<path class="st7" d="M59.54,95.16l-3.45-3.66l5.19-5.19l0,0c-0.31-0.16-0.69-0.31-1.08-0.39c-0.39-0.08-0.77-0.24-1.01-0.54
		c-0.24-0.24-1.47-1.62,0.47-3.48c0.85-0.77,2.17-0.85,2.93-0.24c0,0,0.54,0.31,0.69,1.16c0.08,0.31,0.16,0.54,0.24,0.85
		c0,0.08,0.08,0.16,0.16,0.24l5.19-5.19l0.08,0.08l0.47,0.47l5.03,5.03c-0.39,0.16-0.77,0.31-1.16,0.39
		c-0.47,0.08-0.85,0.31-1.16,0.69c-0.61,0.77-0.54,2.01,0.24,2.93c0.92,1.16,2.62,1.32,3.48,0.47c0.31-0.31,0.47-0.61,0.54-1.01
		c0.08-0.39,0.24-0.77,0.39-1.16l4.79,4.79l-5.19,5.19c0.39,0.24,0.77,0.39,1.24,0.47c0.39,0.08,0.77,0.24,1.01,0.54
		c0.08,0.24,0.16,0.31,0.24,0.47c0.61,0.92,0.31,2.32-0.69,3.17c-0.92,0.69-2.17,0.85-2.93,0.24c-0.39-0.31-0.61-0.69-0.69-1.16
		s-0.24-0.85-0.47-1.24l-5.19,5.19l-3.41-3.41"/>
	<line class="st12" x1="87.12" y1="86.03" x2="81.55" y2="91.56"/>
	<circle class="st5" cx="77.08" cy="45.34" r="1.19"/>
	<g>
		<line class="st13" x1="60.81" y1="97.9" x2="63.48" y2="97.64"/>
		<line class="st13" x1="62.19" y1="96.43" x2="62.1" y2="99.11"/>
	</g>
</g>
</svg>
