<?xml version="1.0" encoding="utf-8"?>
<!-- Generator: Adobe Illustrator 23.0.3, SVG Export Plug-In . SVG Version: 6.00 Build 0)  -->
<svg version="1.1" id="Layer_1" xmlns="http://www.w3.org/2000/svg" xmlns:xlink="http://www.w3.org/1999/xlink" x="0px" y="0px"
	 viewBox="0 0 160 160" style="enable-background:new 0 0 160 160;" xml:space="preserve">
<style type="text/css">
	.st0{fill:none;}
	.st1{fill:none;stroke:#B2B2B2;stroke-width:1.2006;stroke-miterlimit:10;stroke-dasharray:3;}
	.st2{fill:#FFFFFF;stroke:#666666;stroke-linecap:round;stroke-miterlimit:10;}
	.st3{fill:#4DDAB8;stroke:#666666;stroke-miterlimit:10;}
	.st4{fill:#FFD100;stroke:#666666;stroke-miterlimit:10;}
	.st5{fill:#00BF9A;}
	.st6{fill:#FFBF00;}
	.st7{fill:#FFFFFF;stroke:#666666;stroke-miterlimit:10;}
	.st8{fill:none;stroke:#666666;stroke-linecap:round;stroke-miterlimit:10;}
</style>
<g>
	<rect x="15" y="15" class="st0" width="130" height="130"/>
</g>
<g>
	<path class="st1" d="M130.34,54.02c-0.1,4.66-4.94,6.52-6.34,6.89c-5.96,1.59-6.84,3.45-6.84,7.92c0,3.45,2.8,3.7,4.29,4.26
		c1.49,0.56,3.94,2.73,3.85,4.6c-0.08,2.89-4.55,2.93-8.52,3.02c-3.2,0.08-4.16,0.43-4.16,0.43l-1.99,22.77l4.94-2.48
		c7.72-0.16,8.8,11.68,0.24,12.25L45,114.04c-2.24,0.1-4.57-0.46-6.06-2.33c-1.03-1.21-1.12-3.73,0.56-5.03
		c1.77-1.39,4.19-0.65,4.19-3.73c0-3.54-2.88-3.17-7.73-3.45c-1.96-0.1-4.38-1.96-4.38-4.1c0-4.47,4.66-4.57,5.78-4.57l12.09-0.24
		c4.35-0.09,7.82-3.67,7.76-8.03l0,0c-0.07-4.25-3.47-7.68-7.71-7.8L35.45,74.4c-1.12,0-5.78-1.83-5.78-6.3
		c0-2.14,2.33-4.78,4.38-4.96c4.85-0.28,7.73,0.1,7.73-3.45c0-3.17-2.33-2.24-4.29-3.36c-1.86-1.03-1.39-5.06-0.46-6.27
		c1.49-1.86,3.82-2.42,6.06-2.33l81.85-0.37C127.82,47.94,130.34,51.13,130.34,54.02z"/>
	<path class="st2" d="M113.92,102.53c-1.11,0.87-2.23,1.6-3.36,2.18c-2.17,1.12-4.37,1.71-6.48,1.71l0,0c-1.83,0-3.59-0.46-5.34-1.3
		c-2.29-1.22-4.88-2.75-7.17-5.42L81.48,87.96l22.58-19.84l10.07,11.76c1.86,2.14,3.27,4.45,4.1,6.83 M118.61,94.92
		c-0.32,1.4-0.84,2.83-1.66,4.18c-0.75,1.23-1.73,2.4-3.03,3.43 M91.6,89.69l4.84,5.37c1.76,1.98,3.66,3.05,5.87,3.28
		c0.23,0,0.46,0,0.68,0c1.9,0,3.74-0.76,5.49-2.29c1.98-1.76,2.98-3.66,3.05-5.87c0.08-2.13-0.76-4.27-2.52-6.26l-4.84-5.37
		L91.6,89.69z"/>
	<path class="st3" d="M81.44,79.79c-3.97-3.2-8.93-4.35-13.43-3.59c-3.59,0.61-6.86,2.52-9.31,5.49c-5.49,6.79-4.2,17.02,2.83,22.74
		c4.58,3.74,10.45,4.65,15.49,3.05c0.08,0,0.15,0,0.15-0.08c2.75-0.91,5.19-2.52,7.09-4.88C89.84,95.81,88.55,85.59,81.44,79.79z
		 M72.06,100.24c-4.35,0-7.93-3.66-7.93-8.16S67.71,84,72.06,84s7.93,3.66,7.93,8.16C80,96.65,76.49,100.24,72.06,100.24z"/>
	<g>
		<path class="st4" d="M110.52,62.14c-0.12-1.19-0.47-2.39-1.05-3.61c-0.97-1.94-2.42-3.84-4.53-5.64l-10.5-8.93L76.13,65.3
			l-1.31,1.52l1.62,1.4l4.73,4.09l5.2-6.1l3.66,3.17l-1.1,9.69l7.01,5.72l1.25-11.45l0.08,0.02c0.08,0.02,0.22,0.05,0.37,0.08
			c1.78,0.4,3.5,0.4,5.34-0.12c4.51-1.25,7.21-6.98,7.48-8.87C110.59,63.68,110.6,62.91,110.52,62.14z M100.95,64.73
			c-0.62,0.54-1.57,1.1-2.89,1.1c-0.37,0-0.74-0.04-1.15-0.12c-0.82-0.18-1.73-0.63-2.61-1.22l-0.88-0.77l-2.79-2.4l5.85-6.89
			l3.65,3.18c1.38,1.16,2.21,2.37,2.33,3.57c0.09,0.48,0.01,1.11-0.24,1.74C101.97,63.53,101.54,64.19,100.95,64.73z"/>
	</g>
	<path class="st5" d="M71.9,83.54c-2.6,0.05-6.36,1.37-7.91,6.14l-7.49-2.87c0,0,1.24-4.19,4.36-7.09c2.03-1.96,5.63-2.88,8.43-3.21
		L71.9,83.54z"/>
	<polygon class="st6" points="79.29,62.27 82.33,70.19 81.12,71.62 75.51,66.77 	"/>
	<path class="st2" d="M49.9,79.97l11.25,5.09l4.88-5.42L58.4,66.2l13.96,6.49l4.88-5.42L64.73,45.31l0,0l-4.35,4.81l8.08,14.19
		l-14.8-6.86l-4.2,4.65l8.01,14.11l-14.73-6.79l-4.73,5.19l3.58,1.62"/>
	<circle class="st7" cx="118.81" cy="90.8" r="1.16"/>
	<g>
		<line class="st8" x1="46.31" y1="79.52" x2="44.97" y2="76.57"/>
		<line class="st8" x1="44.09" y1="78.52" x2="47.18" y2="77.56"/>
	</g>
</g>
</svg>
