<?xml version="1.0" encoding="utf-8"?>
<!-- Generator: Adobe Illustrator 23.0.3, SVG Export Plug-In . SVG Version: 6.00 Build 0)  -->
<svg version="1.1" id="Layer_1" xmlns="http://www.w3.org/2000/svg" xmlns:xlink="http://www.w3.org/1999/xlink" x="0px" y="0px"
	 viewBox="0 0 160 160" style="enable-background:new 0 0 160 160;" xml:space="preserve">
<style type="text/css">
	.st0{fill:none;}
	.st1{fill:none;stroke:#B2B2B2;stroke-miterlimit:10;stroke-dasharray:3;}
	.st2{fill:#59DFBB;stroke:#666666;stroke-miterlimit:10;}
	.st3{fill:#3EC8A1;}
	.st4{fill:#FFFFFF;stroke:#666666;stroke-linecap:round;stroke-miterlimit:10;}
	.st5{opacity:0.8;fill:#F1F1F1;enable-background:new    ;}
	.st6{fill:#FFD300;stroke:#666666;stroke-miterlimit:10;}
	.st7{fill:#F1C700;}
	.st8{fill:none;stroke:#666666;stroke-linecap:round;stroke-miterlimit:10;}
	.st9{fill:none;stroke:#666666;stroke-miterlimit:10;}
	.st10{fill:#FFFFFF;stroke:#666666;stroke-miterlimit:10;}
</style>
<g>
	<rect x="15" y="15" class="st0" width="130" height="130"/>
</g>
<g>
	<path class="st1" d="M130.08,50.64c-0.09,1.89-2.16,4.94-10.35,5.03c-2.61,0-4.86,1.05-4.95,2.8c0.01,0.91,0.36,1.8,1.17,2.07
		c8.64-0.29,12.07,12.21,0.13,13c-1.08,0-11.18,0.68-11.18,0.68L81.7,115.2c0,0-32.31,0-40.32,0c-2.25-0.27-4.5-2.44-4.95-4.42
		c-1.71-8.28,5.22-7.36,6.3-7.63c4.5-0.18,3.69-5.13,1.08-4.95c-2.43-0.45-10.98-0.36-13.68-1.26c-2.34-0.81-3.87-2.07-4.14-4.32
		c-0.9-7.92,7.29-8.82,7.56-8.82c5.94-0.27,29.02-0.55,29.02-0.55L86.02,43.8c7.02,0.09,27.77,0.09,34.79,0.18
		C128.73,43.71,130.17,47.94,130.08,50.64z"/>
	<path class="st2" d="M108.35,93.84h-58.8c-0.67,0-1.15,0.58-1.15,1.25v13.62c0,0.67,0.48,1.25,1.15,1.25h58.9
		c0.67,0,1.15-0.58,1.15-1.25V94.99C109.5,94.32,109.02,93.84,108.35,93.84z M57.32,105.06c-1.63,0-3.07-1.44-3.07-3.17
		c0-1.73,1.34-3.17,3.07-3.17c1.63,0,3.07,1.44,3.07,3.17C60.39,103.62,58.95,105.06,57.32,105.06z"/>
	<path class="st3" d="M76.33,94.24H49.54c-0.37,0-0.67,0.31-0.67,0.67v13.87c0,0.36,0.3,0.67,0.67,0.67h31.98L76.33,94.24z"/>
	<path class="st4" d="M87.68,72.06H49.55c-0.67,0-1.15,0.58-1.15,1.25v13.62c0,0.67,0.48,1.25,1.15,1.25h58.9
		c0.67,0,1.15-0.58,1.15-1.25V73.21c-0.1-0.67-0.58-1.15-1.25-1.15h-5.96 M57.32,76.95c1.63,0,3.07,1.44,3.07,3.17
		c0,1.73-1.44,3.17-3.07,3.17s-3.07-1.44-3.07-3.17S55.59,76.95,57.32,76.95z"/>
	<path class="st5" d="M69.13,72.54H49.65c-0.43,0-0.78,0.35-0.78,0.77v13.7c0,0.35,0.34,0.69,0.63,0.69l24.77-0.03L69.13,72.54z
		 M57.32,83.28c-1.63,0-3.07-1.44-3.07-3.17c0-1.73,1.34-3.17,3.07-3.17c1.63,0,3.07,1.44,3.07,3.17
		C60.39,81.85,58.95,83.28,57.32,83.28z"/>
	<path class="st6" d="M108.35,48.85h-58.8c-0.67,0-1.15,0.58-1.15,1.25v13.62c0,0.67,0.48,1.25,1.15,1.25h58.9
		c0.67,0,1.15-0.58,1.15-1.25V50.09C109.5,49.42,109.02,48.85,108.35,48.85z M57.32,53.74c1.63,0,3.07,1.44,3.07,3.17
		c0,1.73-1.44,3.17-3.07,3.17s-3.07-1.44-3.07-3.17C54.25,55.18,55.59,53.74,57.32,53.74z"/>
	<path class="st7" d="M61.66,49.35H49.6c-0.44,0-0.81,0.36-0.81,0.81v13.61c0,0.38,0.32,0.7,0.71,0.7h17.29L61.66,49.35z
		 M57.32,60.07c-1.63,0-3.07-1.44-3.07-3.17s1.34-3.17,3.07-3.17c1.63,0,3.07,1.44,3.07,3.17S58.95,60.07,57.32,60.07z"/>
	<g>
		<line class="st8" x1="96.08" y1="70.76" x2="99.11" y2="73.36"/>
		<line class="st8" x1="99.09" y1="70.72" x2="96.13" y2="73.4"/>
	</g>
	<path class="st9" d="M57.32,60.07c-1.63,0-3.07-1.44-3.07-3.17s1.34-3.17,3.07-3.17c1.63,0,3.07,1.44,3.07,3.17
		S58.95,60.07,57.32,60.07z"/>
	<path class="st9" d="M57.32,83.28c-1.63,0-3.07-1.44-3.07-3.17c0-1.73,1.34-3.17,3.07-3.17c1.63,0,3.07,1.44,3.07,3.17
		C60.39,81.85,58.95,83.28,57.32,83.28z"/>
	<path class="st10" d="M57.32,105.06c-1.63,0-3.07-1.44-3.07-3.17c0-1.73,1.34-3.17,3.07-3.17c1.63,0,3.07,1.44,3.07,3.17
		C60.39,103.62,58.95,105.06,57.32,105.06z"/>
</g>
</svg>
