<?xml version="1.0" encoding="utf-8"?>
<!-- Generator: Adobe Illustrator 24.3.0, SVG Export Plug-In . SVG Version: 6.00 Build 0)  -->
<svg version="1.1" id="Layer_1" xmlns="http://www.w3.org/2000/svg" xmlns:xlink="http://www.w3.org/1999/xlink" x="0px" y="0px"
	 viewBox="0 0 160 160" style="enable-background:new 0 0 160 160;" xml:space="preserve">
<style type="text/css">
	.st0{fill:none;}
	.st1{fill:none;stroke:#B2B2B2;stroke-miterlimit:10;}
	.st2{fill:none;stroke:#B2B2B2;stroke-miterlimit:10;stroke-dasharray:3.0191,3.0191;}
	.st3{fill:none;stroke:#B2B2B2;stroke-miterlimit:10;stroke-dasharray:2.9932,2.9932;}
	.st4{fill:none;stroke:#B2B2B2;stroke-miterlimit:10;stroke-dasharray:3;}
	.st5{fill:#FFFFFF;}
	.st6{fill:#FFFFFF;stroke:#666666;stroke-linecap:round;stroke-miterlimit:10;}
	.st7{fill:none;stroke:#666666;stroke-width:0.9806;stroke-linecap:round;stroke-miterlimit:10;}
	.st8{fill:none;stroke:#666666;stroke-linecap:round;stroke-miterlimit:10;}
	.st9{fill:none;stroke:#00CBAA;stroke-width:1.7;stroke-linecap:round;stroke-miterlimit:10;}
	.st10{fill:#00CBAA;}
	.st11{fill:none;stroke:#F9C900;stroke-width:1.7;stroke-linecap:round;stroke-miterlimit:10;}
</style>
<g>
	<rect x="15" y="15" class="st0" width="130" height="130"/>
	<g>
		<g>
			<g>
				<polyline class="st1" points="83.97,116.1 86.11,116.1 86.84,114.39 				"/>
			</g>
			<g>
				<g>
					<line class="st1" x1="87.58" y1="112.69" x2="88.18" y2="111.31"/>
					<line class="st2" x1="89.38" y1="108.54" x2="96.01" y2="93.32"/>
					<line class="st1" x1="96.61" y1="91.93" x2="97.21" y2="90.56"/>
				</g>
			</g>
			<g>
				<polyline class="st1" points="100.06,84.02 100.64,82.68 99.19,82.69 				"/>
			</g>
			<g>
				<g>
					<line class="st1" x1="96.25" y1="82.7" x2="94.75" y2="82.71"/>
					<path class="st3" d="M91.75,82.72l-59.19,0.22c-1.83,0-8.96,0.17-8.96,6.61c0,3.05,2.79,5.74,6.7,5.83
						c7.57,0.17,11.92-0.17,11.92,4.87c0,4.53-4.87,3.57-6.7,4.79c-3.05,2.09-2.52,6.44-1.13,8.36c1.91,2.44,6.35,2.87,9.92,2.7
						H79.2"/>
					<line class="st1" x1="80.7" y1="116.1" x2="82.2" y2="116.1"/>
				</g>
			</g>
		</g>
		<path class="st4" d="M127.29,62.24c2.28-0.16,9.17-0.57,9.1-5.85c-0.08-4.54-2.68-5.68-8.2-5.85h-25.66l0.08,31.03l21.69,0.16
			c2.85-0.24,6.42-0.16,6.5-4.23c0.08-2.92-2.28-3.66-4.39-4.23s-6.74-1.78-6.82-5.44C119.41,65.49,120.71,62.81,127.29,62.24z"/>
		<g>
			<g>
				<path class="st5" d="M47.53,82.32v25.16c0,0.88,0.57,1.66,1.21,1.66h63.34c0.65,0,1.21-0.77,1.21-1.66v-4.31V92.34V46.88
					c0.08-0.99-0.48-1.76-1.21-1.76H48.74c-0.65,0-1.21,0.77-1.21,1.66v13.66"/>
			</g>
		</g>
		<circle class="st6" cx="47.37" cy="66.28" r="1.16"/>
		<g>
			<line class="st7" x1="112.33" y1="100.35" x2="114.28" y2="98"/>
			<line class="st7" x1="112.22" y1="98.1" x2="114.39" y2="100.26"/>
		</g>
		<g>
			<line class="st8" x1="60.88" y1="92.55" x2="99.91" y2="92.55"/>
			<line class="st8" x1="60.88" y1="75.29" x2="99.91" y2="75.29"/>
			<line class="st8" x1="60.88" y1="83.92" x2="99.91" y2="83.92"/>
			<line class="st8" x1="60.88" y1="66.66" x2="99.91" y2="66.66"/>
			<rect x="70.74" y="90.56" class="st5" width="5.12" height="3.95"/>
			<rect x="83.01" y="90.56" class="st5" width="5.12" height="3.95"/>
			<ellipse class="st9" cx="79.47" cy="92.55" rx="6.49" ry="4.18"/>
			<path class="st10" d="M97.24,57.58c-0.11-0.4-0.35-0.6-0.71-0.6c-0.18,0-0.38,0.05-0.7,0.16c-0.07,0-0.13-0.05-0.24-0.14
				l-0.11-0.1c-0.26-0.2-0.65-0.5-1.36-0.5c-0.71,0-1.11,0.31-1.37,0.51c-0.18,0.14-0.25,0.2-0.46,0.2c-0.2,0-0.27-0.05-0.47-0.2
				c-0.26-0.2-0.65-0.5-1.36-0.5c-0.72,0-1.12,0.31-1.38,0.51c-0.18,0.14-0.25,0.2-0.46,0.2c-0.2,0-0.27-0.05-0.47-0.2
				c-0.26-0.2-0.65-0.5-1.36-0.5c-0.71,0-1.11,0.31-1.37,0.51l-0.09,0.07c-0.1,0.08-0.16,0.13-0.3,0.13c-0.01,0-0.03,0-0.05,0
				c-0.11-0.03-0.2-0.04-0.28-0.04c-0.09,0-0.14,0.02-0.17,0.04c-0.23,0.19-0.29,0.59-0.21,0.85c0.09,0.27,0.26,0.54,0.92,0.63
				c0.53-0.07,0.86-0.32,1.1-0.51c0.18-0.13,0.25-0.18,0.45-0.18c0.2,0,0.26,0.05,0.47,0.21c0.26,0.2,0.66,0.5,1.36,0.5
				c0.71,0,1.11-0.31,1.37-0.51c0.19-0.15,0.26-0.2,0.47-0.2c0.19,0,0.26,0.05,0.46,0.2c0.24,0.19,0.64,0.51,1.37,0.51
				c0.71,0,1.09-0.3,1.37-0.51c0.18-0.14,0.25-0.2,0.46-0.2c0.21,0,0.27,0.05,0.51,0.23c0.26,0.19,0.65,0.48,1.33,0.48
				c0.28,0,0.5-0.04,0.67-0.13C97.08,58.36,97.34,57.96,97.24,57.58z"/>
			<g>
				<path class="st5" d="M88.7,69.27c-1.15-1.75-2.49-3.4-4-4.9c-0.93-0.93-0.87-2.39,0.15-3.24c0.47-0.39,1.07-0.61,1.7-0.61
					c0.7,0,1.37,0.27,1.84,0.74c0.83,0.83,1.62,1.69,2.36,2.59l1.64-2.45c0.45-0.68,1.27-1.1,2.14-1.1c0.46,0,0.91,0.12,1.31,0.34
					c0.57,0.32,0.97,0.82,1.13,1.42c0.16,0.6,0.05,1.21-0.3,1.74l-5.82,8.72L88.7,69.27z"/>
			</g>
			<line class="st11" x1="60.95" y1="79.24" x2="73.89" y2="79.24"/>
			<path class="st9" d="M86.47,62.47c0,0,0.68,0.87,1.49,1.87c1.59,1.95,2.9,4.11,2.9,4.11l3.77-6.22"/>
		</g>
		<g>
			<path class="st8" d="M113.31,103.07v4.06c0,1.1-0.9,2-2,2H49.37c-1.1,0-2-0.9-2-2V72.86"/>
			<path class="st8" d="M47.37,58.78V47.12c0-1.1,0.9-2,2-2h61.94c1.1,0,2,0.9,2,2v44.96"/>
		</g>
	</g>
</g>
</svg>
