<?xml version="1.0" encoding="utf-8"?>
<!-- Generator: Adobe Illustrator 23.0.3, SVG Export Plug-In . SVG Version: 6.00 Build 0)  -->
<svg version="1.1" id="Layer_1" xmlns="http://www.w3.org/2000/svg" xmlns:xlink="http://www.w3.org/1999/xlink" x="0px" y="0px"
	 viewBox="0 0 160 160" style="enable-background:new 0 0 160 160;" xml:space="preserve">
<style type="text/css">
	.st0{fill:none;}
	.st1{fill:none;stroke:#B2B2B2;stroke-miterlimit:10;stroke-dasharray:3;}
	.st2{fill:url(#SVGID_1_);}
	.st3{fill:url(#SVGID_2_);}
	.st4{fill:url(#SVGID_3_);}
	.st5{fill:url(#SVGID_4_);}
	.st6{fill:#FFFFFF;stroke:#666666;stroke-linecap:round;stroke-miterlimit:10;}
	.st7{fill:#4DDAB8;}
	.st8{fill:#00CBAA;}
	.st9{fill:#00BF9A;}
	.st10{fill:#FFFFFF;}
	.st11{fill:#FFBF00;}
	.st12{fill:#FFD100;}
	.st13{fill:none;stroke:#666666;stroke-width:0.9806;stroke-linecap:round;stroke-miterlimit:10;}
	.st14{fill:#30D4AD;}
</style>
<g>
	<rect x="15" y="15" class="st0" width="130" height="130"/>
</g>
<g>
	<g>
		<polyline class="st1" points="83.95,116.1 85.4,116.1 85.97,114.78 		"/>
		<line class="st1" x1="87.18" y1="111.98" x2="98.74" y2="85.42"/>
		<polyline class="st1" points="99.35,84.02 99.93,82.68 98.48,82.69 		"/>
		<path class="st1" d="M95.54,82.7l-63.68,0.24c-1.83,0-8.96,0.17-8.96,6.61c0,3.05,2.79,5.74,6.7,5.83
			c7.57,0.17,11.92-0.17,11.92,4.87c0,4.53-4.87,3.57-6.7,4.79c-3.05,2.09-2.52,6.44-1.13,8.36c1.91,2.44,6.35,2.87,9.92,2.7h38.86"
			/>
	</g>
	<path class="st1" d="M127.36,63.13c2.44-0.17,9.83-0.61,9.75-6.27c-0.09-4.87-2.87-6.09-8.79-6.27h-27.5l0.09,33.25l23.24,0.17
		c3.05-0.26,6.88-0.17,6.96-4.53c0.09-3.13-2.44-3.92-4.7-4.53c-2.26-0.61-7.22-1.91-7.31-5.83
		C118.91,66.61,120.31,63.74,127.36,63.13z"/>
	
		<linearGradient id="SVGID_1_" gradientUnits="userSpaceOnUse" x1="59.4356" y1="-526.51" x2="135.6532" y2="-526.51" gradientTransform="matrix(1 0 0 -1 0 -476)">
		<stop  offset="7.952536e-03" style="stop-color:#C38FF9"/>
		<stop  offset="0.3226" style="stop-color:#C9A8FB"/>
		<stop  offset="0.7542" style="stop-color:#D0C6FE"/>
		<stop  offset="1" style="stop-color:#D3D1FF"/>
	</linearGradient>
	<polygon class="st2" points="94.53,50.51 94.53,50.51 95.75,50.51 	"/>
	
		<linearGradient id="SVGID_2_" gradientUnits="userSpaceOnUse" x1="54.2287" y1="-526.51" x2="106.035" y2="-526.51" gradientTransform="matrix(1 0 0 -1 0 -476)">
		<stop  offset="0.3384" style="stop-color:#7EDCBD"/>
		<stop  offset="0.5615" style="stop-color:#57CAAE"/>
		<stop  offset="0.69" style="stop-color:#3EBFA4"/>
	</linearGradient>
	<polygon class="st3" points="94.53,50.51 94.53,50.51 95.75,50.51 	"/>
	
		<linearGradient id="SVGID_3_" gradientUnits="userSpaceOnUse" x1="54.2287" y1="-526.555" x2="106.035" y2="-526.555" gradientTransform="matrix(1 0 0 -1 0 -476)">
		<stop  offset="0.3384" style="stop-color:#7EDCBD"/>
		<stop  offset="0.5615" style="stop-color:#57CAAE"/>
		<stop  offset="0.69" style="stop-color:#3EBFA4"/>
	</linearGradient>
	<polygon class="st4" points="106.02,50.6 106.02,50.6 95.75,50.51 	"/>
	
		<linearGradient id="SVGID_4_" gradientUnits="userSpaceOnUse" x1="49.4646" y1="-526.555" x2="110.8054" y2="-526.555" gradientTransform="matrix(1 0 0 -1 0 -476)">
		<stop  offset="0.3384" style="stop-color:#7EDCBD"/>
		<stop  offset="0.5615" style="stop-color:#57CAAE"/>
		<stop  offset="0.69" style="stop-color:#3EBFA4"/>
	</linearGradient>
	<polygon class="st5" points="106.02,50.6 106.02,50.6 95.75,50.51 	"/>
	<path class="st6" d="M85.48,47.03H55.11c-0.52,0-0.87,0.44-0.87,0.87V54l51.78,0.09V47.9c0-0.52-0.44-0.87-0.87-0.87h-4.26"/>
	<path class="st6" d="M71.54,53.12h22.99l1.13,0.09h14.01c0.61,0,1.13,0.44,1.13,1.13v24.02l-4.96-0.3c0,0,0,0-0.01,0
		c-3.13,0.3-46.38-1.95-46.38-1.95l-5.22,1.91h-4.79V54.26c0-0.61,0.52-1.13,1.13-1.13h7.31"/>
	<g>
		<g>
			<path class="st6" d="M82.09,80.89h-2.35v2.26h2.35c1.13,0,1.65-0.35,1.65-1.13C83.74,81.32,83.22,80.89,82.09,80.89z
				 M82.78,86.55h-3.05v2.35h3.05c1.13,0,1.65-0.35,1.65-1.22C84.44,86.89,83.92,86.55,82.78,86.55z M82.78,86.55h-3.05v2.35h3.05
				c1.13,0,1.65-0.35,1.65-1.22C84.44,86.89,83.92,86.55,82.78,86.55z M83.74,82.02c0-0.78-0.52-1.13-1.65-1.13h-2.35v2.26h2.35
				C83.22,83.15,83.74,82.8,83.74,82.02z M44.66,88.91v19.91c0,0.7,0.61,1.31,1.31,1.31h68.32c0.7,0,1.31-0.61,1.31-1.31V60.87
				c0.09-0.78-0.52-1.39-1.31-1.39H45.97c-0.7,0-1.31,0.61-1.31,1.31V71.6"/>
		</g>
	</g>
	<g>
		<path class="st7" d="M89.66,88.29c0,1.31-0.61,2.35-1.65,3.13c-1.13,0.7-2.7,1.13-4.79,1.13h-8.53V77.32h8.09
			c2,0,3.57,0.35,4.61,1.04c1.04,0.7,1.57,1.65,1.57,2.87c0,0.7-0.17,1.31-0.52,1.91c-0.35,0.61-0.87,1.04-1.57,1.39
			c0.87,0.35,1.57,0.78,2.09,1.48C89.49,86.63,89.66,87.42,89.66,88.29z"/>
	</g>
	<g>
		<polygon class="st8" points="67.55,92.55 66.51,89.85 60.77,89.85 59.72,92.55 54.59,92.55 61.2,77.41 66.16,77.41 72.78,92.55 		
			"/>
	</g>
	<g>
		<polygon class="st9" points="72.78,92.55 67.55,92.55 66.51,89.85 60.77,89.85 59.72,92.55 55.12,92.55 68.83,83.54 68.89,83.64 
					"/>
	</g>
	<g>
		<polygon class="st10" points="63.64,82.37 65.12,86.2 62.16,86.2 		"/>
	</g>
	<g>
		<path class="st10" d="M83.74,82.02c0-0.78-0.52-1.13-1.65-1.13h-2.35v2.26h2.35C83.22,83.15,83.74,82.8,83.74,82.02z"/>
	</g>
	<g>
		<path class="st11" d="M103.93,86.89l3.22,2.87c-0.78,0.96-1.74,1.74-2.87,2.26c-1.13,0.52-2.44,0.78-3.92,0.78
			c-1.57,0-3.18-0.42-4.35-1.04c-1.31-0.7-2.26-1.57-3.05-2.79c-0.7-1.22-1.13-2.61-1.13-4.09c0-1.57,0.35-2.87,1.13-4.09
			c0.7-1.22,1.74-2.18,3.05-2.79c1.31-0.7,2.7-1.04,4.35-1.04c1.48,0,2.79,0.26,3.92,0.78s2.09,1.31,2.87,2.26l-3.22,2.87
			c-0.96-1.22-2-1.74-3.31-1.74c-1.04,0-1.91,0.35-2.61,1.04c-0.7,0.7-0.96,1.57-0.96,2.79c0,1.13,0.35,2.09,0.96,2.79l0,0
			c0.7,0.7,1.48,1.04,2.52,1.04C101.84,88.72,102.98,88.11,103.93,86.89z"/>
	</g>
	<path class="st12" d="M107.15,89.77c-0.78,0.96-1.74,1.74-2.87,2.26c-1.13,0.52-2.44,0.78-3.92,0.78c-1.57,0-3.98-0.44-5.6-1.85
		l0.04-0.05l3.4-3c0.65,0.54,1.4,0.8,2.32,0.8c1.31,0,2.44-0.7,3.39-1.83L107.15,89.77z"/>
	<circle class="st6" cx="62.85" cy="53.12" r="1.16"/>
	<circle class="st6" cx="44.66" cy="79.28" r="1.16"/>
	<g>
		<line class="st13" x1="93.22" y1="48.21" x2="95.17" y2="45.86"/>
		<line class="st13" x1="93.11" y1="45.96" x2="95.28" y2="48.12"/>
	</g>
	<path class="st14" d="M89.66,88.29c0,1.31-0.61,2.35-1.65,3.13c-1.13,0.7-2.7,1.13-4.79,1.13h-8.53l12.18-8.01
		c0.87,0.35,1.57,0.78,2.09,1.48C89.49,86.63,89.66,87.42,89.66,88.29z"/>
	<g>
		<path class="st10" d="M82.78,86.55h-3.05v2.35h3.05c1.13,0,1.65-0.35,1.65-1.22C84.44,86.89,83.92,86.55,82.78,86.55z"/>
	</g>
</g>
</svg>
