<?xml version="1.0" encoding="utf-8"?>
<!-- Generator: Adobe Illustrator 23.0.3, SVG Export Plug-In . SVG Version: 6.00 Build 0)  -->
<svg version="1.1" id="Layer_1" xmlns="http://www.w3.org/2000/svg" xmlns:xlink="http://www.w3.org/1999/xlink" x="0px" y="0px"
	 viewBox="0 0 160 160" style="enable-background:new 0 0 160 160;" xml:space="preserve">
<style type="text/css">
	.st0{fill:none;}
	.st1{fill:none;stroke:#B2B2B2;stroke-miterlimit:10;stroke-dasharray:3;}
	.st2{fill:#FFFFFF;stroke:#666666;stroke-linecap:round;stroke-miterlimit:10;}
	.st3{fill:#7F7F7F;}
	.st4{fill:#666666;}
	.st5{fill:#30C5A1;}
	.st6{fill:#FFFFFF;}
	.st7{fill:#FFCE00;}
	.st8{fill:none;stroke:#666666;stroke-linecap:round;stroke-miterlimit:10;}
	.st9{fill:none;stroke:#666666;stroke-width:0.9806;stroke-linecap:round;stroke-miterlimit:10;}
</style>
<rect x="15" y="15" class="st0" width="130" height="130"/>
<g>
	<path class="st1" d="M123.07,75.69l-14.99-0.19l-23.72,26.58l32.91,0.19c6.53-0.09,5.97-6.71,1.12-6.81c0,0-2.24-0.28-2.24-2.24
		c0-3.07,3.92-2.99,5.78-3.07C134.27,89.57,134.17,75.69,123.07,75.69z"/>
	<path class="st1" d="M65.12,56.19c-1.59,0-25.46-0.04-28.06,0.06c-1.78,0.09-10.17,0-10.35,7.28c-0.09,8.11,5.97,8.3,9.51,8.58
		c3.83,0.28,7.33,0.19,9.1,0.47c2.99,0.19,2.92,4.11-1.38,5.32c-3.83,0.84-6.8,1.4-6.7,8.02c0,4.11,3.26,6.81,7.09,6.9l38.49,0.09
		C79.83,87.68,67.35,60.86,65.12,56.19z"/>
	<path class="st2" d="M99.05,117.89c0,0,3.41,0.03,4.76-2.65c1.34-2.69,2.35-9.07,2.35-9.07l-13.6-2.18L99.05,117.89z"/>
	<path class="st2" d="M105.52,92.07l-3.26,14.31c-1.61,5.95-0.6,8.81,0.9,9.79c0,0-0.92,1.09-2.02,1.15
		c-1.38,0.07-3.05-0.91-3.65-1.04c-0.96-0.21-25.9-9.48-37.78-13.73c-2.95-1.05-4.49-4.3-3.45-7.25l9.44-46.56
		c0.16-0.49,0.69-0.74,1.17-0.58l45.83,8.6c0.5,0.17,0.76,0.71,0.57,1.2l-4.62,20.39"/>
	<path class="st2" d="M55.02,59.53l2.35-14.48c0.07-0.57,0.57-0.99,1.15-0.92l48.81,5.55c0.59,0.07,1.01,0.6,0.92,1.18l-3.62,24.1
		l-2.74,18.94l-2.48,17.25c-0.28,2.22,0.51,4.29,1.71,6.17c0,0-1.32,0.55-2.56,0.55c-1.11,0-30.81-4.2-44.92-6.01
		c-3.51-0.45-5.99-3.65-5.55-7.15l5.27-32.36"/>
	<path class="st3" d="M79.46,95.34l-15.91,0.59c-0.82-0.09-1.27-1.01-0.86-1.72L73.2,79.43c0.53-0.91,1.9-0.7,2.12,0.33l5.4,14.18
		C80.89,94.72,80.24,95.43,79.46,95.34z"/>
	<path class="st4" d="M70.93,95.85l-15.5-1.27c-1.09-0.01-1.76-0.91-1.27-1.72l9.12-16.66c0.64-1.05,2.53-0.94,2.84,0.18l6.38,17.93
		C72.72,95.09,71.94,95.86,70.93,95.85z"/>
	<g>
		<path class="st5" d="M98.58,117.13c-0.48,0-6.83-0.93-14.19-2c-10.07-1.47-22.59-3.29-30.41-4.29c-3.17-0.4-5.33-3.26-4.92-6.51
			l2.11-12.58c4.06,1.54,7.81,2.28,11.44,2.28c6.34,0,10.95-2.3,15.02-4.33c2.76-1.38,5.15-2.57,7.58-2.79
			c0.84-0.08,1.64-0.11,2.43-0.11c4.37,0,8.71,1.18,13.63,3.7l-2.88,20.86c-0.03,1.65,0.54,3.85,1.39,5.59
			C99.52,117.05,99.12,117.13,98.58,117.13L98.58,117.13z"/>
		<path class="st6" d="M87.65,87.28L87.65,87.28c4.2,0,8.38,1.12,13.12,3.51l-2.83,20.53l-0.01,0.06v0.06
			c-0.02,1.49,0.45,3.51,1.19,5.21c-0.16,0.02-0.33,0.03-0.53,0.03c-0.58-0.02-7.17-0.99-14.15-2c-10.06-1.47-22.59-3.29-30.41-4.29
			c-2.9-0.37-4.89-3-4.51-5.96l2.02-12.03c3.91,1.43,7.55,2.12,11.07,2.12c6.45,0,11.12-2.33,15.24-4.38
			c2.72-1.35,5.07-2.53,7.42-2.74C86.09,87.31,86.87,87.28,87.65,87.28 M87.65,86.34c-0.86,0-1.67,0.05-2.47,0.11
			c-6.17,0.56-12.03,7.13-22.56,7.13c-3.39,0-7.28-0.69-11.81-2.46l-2.21,13.16c-0.43,3.45,1.85,6.6,5.32,7.04
			c13.96,1.78,43.57,6.29,44.66,6.29c1.23,0,1.87-0.39,1.87-0.39c-1.02-1.84-1.61-4.24-1.58-5.77l2.91-21.19
			C95.98,87.21,91.48,86.34,87.65,86.34L87.65,86.34z"/>
	</g>
	<ellipse class="st7" cx="92.55" cy="79.21" rx="3.96" ry="4.12"/>
	<line class="st8" x1="64.6" y1="56.72" x2="75.79" y2="58.03"/>
	<line class="st8" x1="63.66" y1="61.29" x2="86.05" y2="63.9"/>
	<circle class="st2" cx="107.54" cy="83.68" r="1.13"/>
	<g>
		<line class="st9" x1="52.96" y1="66" x2="55.26" y2="64.13"/>
		<line class="st9" x1="53.28" y1="63.83" x2="54.95" y2="66.3"/>
	</g>
</g>
</svg>
