<?xml version="1.0" encoding="utf-8"?>
<!-- Generator: Adobe Illustrator 23.0.3, SVG Export Plug-In . SVG Version: 6.00 Build 0)  -->
<svg version="1.1" id="Layer_1" xmlns="http://www.w3.org/2000/svg" xmlns:xlink="http://www.w3.org/1999/xlink" x="0px" y="0px"
	 viewBox="0 0 160 160" style="enable-background:new 0 0 160 160;" xml:space="preserve">
<style type="text/css">
	.st0{fill:none;stroke:#B2B2B2;stroke-width:0.8426;stroke-miterlimit:10;stroke-dasharray:3;}
	.st1{fill:none;stroke:#B2B2B2;stroke-width:0.8426;stroke-miterlimit:10;}
	.st2{fill:none;stroke:#B2B2B2;stroke-width:0.8426;stroke-miterlimit:10;stroke-dasharray:3.0293,3.0293;}
	.st3{fill:none;stroke:#B2B2B2;stroke-width:0.8426;stroke-miterlimit:10;stroke-dasharray:3.0307,3.0307;}
	.st4{fill:#FFFFFF;}
	.st5{fill:#FFFFFF;stroke:#666666;stroke-linecap:round;stroke-miterlimit:10;}
	.st6{fill:#FFFFFF;stroke:#666666;stroke-width:0.8185;stroke-miterlimit:10;}
	.st7{fill:#666666;stroke:#FFFFFF;stroke-width:1.8494;stroke-miterlimit:10;}
	.st8{fill:#F7CE00;}
	.st9{fill:none;stroke:#666666;stroke-width:0.8114;stroke-linecap:round;stroke-miterlimit:10;}
	.st10{fill:#3BCCA2;}
	.st11{fill:none;stroke:#666666;stroke-width:0.9806;stroke-linecap:round;stroke-miterlimit:10;}
	.st12{fill:none;}
</style>
<path class="st0" d="M37.11,89.13c-1.14,0-5.72,0.12-5.72,4.19c0,1.95,2.33,3.63,4.28,3.72c4.8,0.24,7.61-0.12,7.6,3.12
	c0,2.86-3.07,2.34-4.28,3.06c-2.16,1.29-2.28,4.57-0.31,5.92c1.86,1.28,4.52,1.16,5.89,1.12l16.02,0.01V89.13H37.11z"/>
<g>
	<g>
		<polyline class="st1" points="87.22,72.77 85.72,72.74 86.29,71.36 		"/>
		<line class="st2" x1="87.45" y1="68.56" x2="93.8" y2="53.15"/>
		<polyline class="st1" points="94.38,51.75 94.95,50.37 96.45,50.36 		"/>
		<path class="st3" d="M99.48,50.34l23.36-0.13c3.11,0.2,5.78,1.11,5.78,3.57c0,3.94-4.97,4.76-6.42,5.1
			c-6.13,1.44-8.86,2.04-8.71,5.74c0.1,1.74,2.94,1.93,4.49,2.35c1.56,0.41,3.24,1.5,3.23,3.11c-0.02,2.1-2.7,2.95-4.8,3.13
			l-27.67-0.42"/>
	</g>
</g>
<path class="st4" d="M107.97,43.38v68.95c0,1.08-0.86,1.95-1.94,1.95H53.97c-1.08,0-1.95-0.87-1.95-1.95V43.38
	c0-1.08,0.87-1.95,1.95-1.95h52.06C107.11,41.43,107.97,42.3,107.97,43.38z"/>
<path class="st5" d="M52.42,48.56v-5.18c0-1.08,0.87-1.94,1.94-1.94h52.06c1.08,0,1.94,0.87,1.94,1.94v47.3"/>
<path class="st6" d="M52.42,75.42"/>
<path class="st7" d="M93.26,72.83c-0.73,0.12-1.44,0.25-2.12,0.37c-1.81,0.36-4.6,1.05-8.24,1.38c-1.87,0.17-3.96,0.25-6.26,0.13
	c-4.54-0.23-8.87-1.93-12.61-3.48l7.93-12.77l3.1-4.99c0.19-0.24,0.58-0.23,0.75,0.03l5.11,7.91l4.47,0.1L93.26,72.83z"/>
<path class="st5" d="M108.36,105.45v6.87c0,1.08-0.87,1.94-1.94,1.94H54.36c-1.08,0-1.94-0.87-1.94-1.94v-50.6"/>
<path class="st7" d="M82.9,74.59c-1.87,0.17-3.96,0.25-6.26,0.13c-4.54-0.23-8.87-1.93-12.61-3.48c-1.84-0.76-3.54-1.49-5.07-1.98
	c0,0-0.35-0.14-0.97-0.33l9.75-15.52c0.19-0.27,0.6-0.27,0.77,0.01l3.37,4.95l0.07,0.11L82.9,74.59z"/>
<circle class="st8" cx="95.96" cy="53.24" r="4.68"/>
<line class="st9" x1="66.47" y1="95.11" x2="94.3" y2="95.11"/>
<line class="st9" x1="66.47" y1="100.58" x2="94.3" y2="100.58"/>
<g>
	<path class="st10" d="M35.52,85.86V84.9c0-2.47,0.86-4.76,2.9-7.66c2.31-3.16,5.2-5.52,8.37-6.85c2.39-1.01,4.92-1.53,7.5-1.53
		c3.9,0,6.55,1.17,6.66,1.22c1.14,0.4,2.48,1.01,3.88,1.64c3.41,1.55,7.27,3.29,11.31,3.51c0.65,0.04,1.28,0.05,1.89,0.05
		c4.13,0,7.38-0.75,9.53-1.24c0.38-0.09,0.74-0.17,1.07-0.24c1.78-0.38,3.72-0.73,5.81-0.73c4.15,0,7.96,1.4,11.64,4.27
		c1.02,0.9,2.03,1.3,3.32,1.3c0.87,0,1.77-0.17,2.71-0.36c0.94-0.18,1.91-0.37,2.88-0.37c0.14,0,0.3,0,0.44,0.01
		c4.17,0.26,6.39,2.36,9.27,6.41l1.08,1.52L35.52,85.86L35.52,85.86z"/>
	<path class="st4" d="M54.29,69.81c3.73,0,6.27,1.13,6.27,1.13c4.05,1.44,9.58,4.92,15.53,5.24c0.66,0.04,1.32,0.06,1.94,0.06
		c4.97,0,8.66-1.05,10.8-1.51c1.68-0.36,3.56-0.71,5.61-0.71c3.26,0,6.98,0.89,11.05,4.07c1.29,1.15,2.6,1.5,3.92,1.5
		c1.91,0,3.8-0.73,5.59-0.73c0.12,0,0.25,0,0.38,0.01c3.83,0.24,5.83,2.18,8.55,6.01c-29.15,0-58.29,0-87.45,0
		c0-2.37,0.92-4.53,2.73-7.1c3.02-4.11,6.29-5.82,7.96-6.53C49.76,70.17,52.22,69.81,54.29,69.81 M54.29,67.89L54.29,67.89
		c-2.72,0-5.36,0.54-7.87,1.6c-3.32,1.4-6.36,3.88-8.76,7.16c-2.15,3.06-3.1,5.6-3.1,8.24v1.92h1.92h87.45h3.72l-2.16-3.03
		c-2.52-3.54-5.01-6.5-9.99-6.82c-0.16-0.01-0.34-0.02-0.5-0.02c-1.07,0-2.08,0.2-3.06,0.39c-0.89,0.17-1.74,0.34-2.52,0.34
		c-1.06,0-1.84-0.3-2.63-1.01l-0.05-0.05l-0.05-0.04c-3.86-3.01-7.86-4.47-12.23-4.47c-2.18,0-4.18,0.36-6.01,0.75
		c-0.33,0.07-0.68,0.15-1.08,0.24c-2.11,0.49-5.3,1.22-9.31,1.22c-0.6,0-1.23-0.02-1.83-0.05c-3.86-0.21-7.64-1.92-10.96-3.43
		c-1.4-0.63-2.74-1.24-3.96-1.68C60.75,68.95,58.05,67.89,54.29,67.89L54.29,67.89z"/>
</g>
<circle class="st5" cx="108.36" cy="100.81" r="1.29"/>
<g>
	<line class="st11" x1="51.69" y1="54.65" x2="53.85" y2="52.06"/>
	<line class="st11" x1="51.57" y1="52.16" x2="53.96" y2="54.55"/>
</g>
<rect x="15" y="15" class="st12" width="130" height="130"/>
</svg>
