<?xml version="1.0" encoding="utf-8"?>
<!-- Generator: Adobe Illustrator 23.0.3, SVG Export Plug-In . SVG Version: 6.00 Build 0)  -->
<svg version="1.1" id="Layer_1" xmlns="http://www.w3.org/2000/svg" xmlns:xlink="http://www.w3.org/1999/xlink" x="0px" y="0px"
	 viewBox="0 0 160 160" style="enable-background:new 0 0 160 160;" xml:space="preserve">
<style type="text/css">
	.st0{fill:none;stroke:#B2B2B2;stroke-width:1.2006;stroke-miterlimit:10;stroke-dasharray:3;}
	.st1{fill:url(#SVGID_1_);}
	.st2{fill:#FFFFFF;stroke:#666666;stroke-linecap:round;stroke-miterlimit:10;}
	
		.st3{opacity:0.8;fill:#FFFFFF;stroke:#666666;stroke-width:1.2111;stroke-linecap:round;stroke-miterlimit:10;enable-background:new    ;}
	.st4{opacity:0.8;fill:#FFFFFF;stroke:#666666;stroke-width:1.2111;stroke-miterlimit:10;enable-background:new    ;}
	.st5{fill:url(#SVGID_2_);}
	.st6{fill:#FFFFFF;stroke:#666666;stroke-miterlimit:10;}
	.st7{fill:#4DDAB8;}
	.st8{fill:#00CBAA;}
	.st9{fill:#00BF9A;}
	.st10{fill:#FFD000;}
	.st11{fill:#FFD100;}
	.st12{fill:#30D4AD;}
	.st13{fill:#FFBF00;}
	.st14{fill:none;stroke:#666666;stroke-linecap:round;stroke-miterlimit:10;}
	.st15{fill:none;}
</style>
<g>
	<path class="st0" d="M121.86,100.15c0,0,1.15,11.45-9.78,11.36c0.04,0.07-63.12,0.1-63.12,0.1c-3.99-0.12-7.35-2.95-7.39-7.22
		c-0.05-6.86,4.98-7.42,8.96-8.29c4.47-1.26,3.51-5.41,0.42-5.56c-1.77-0.3-5.21-0.27-9.15-0.52c-3.67-0.29-8.45-1.94-8.36-8.9
		c0.24-7.6,7.41-7.51,9.29-7.6c0.97-0.05,8.11-0.05,17.13-0.04l35.29,17.58h15.86C116.01,91.06,121.86,95.14,121.86,100.15z"/>
	<path class="st0" d="M118.61,65.64c16.42-0.68,12.78-18.39-0.43-18.49l-41.04,0.01c-0.11-0.01-0.22-0.01-0.33-0.01H45.79
		c-1.62,0-3.09,0.66-4.15,1.72s-1.72,2.53-1.72,4.15c0,3.74,3.03,6.78,6.78,6.78h9.9l51.47,17.11l-5.37,4.28l11.8,0.05
		c10.39-0.09,9.48-8.59,1.8-8.74c0,0-3.55-0.4-3.55-2.89C112.8,65.69,115.7,65.76,118.61,65.64z"/>
	<g>
		
			<linearGradient id="SVGID_1_" gradientUnits="userSpaceOnUse" x1="99.6686" y1="-1185.535" x2="103.2146" y2="-1185.535" gradientTransform="matrix(1 0 0 -1 0 -1116)">
			<stop  offset="0.3384" style="stop-color:#7EDDBD"/>
			<stop  offset="0.5648" style="stop-color:#57CAAD"/>
			<stop  offset="0.69" style="stop-color:#3FBFA4"/>
		</linearGradient>
		<path class="st1" d="M101.51,69.35l-1.85-0.74l3.55,1.85C102.75,70,102.18,69.62,101.51,69.35z"/>
	</g>
	<path class="st2" d="M58.43,82.04l-1.58-10.63l-1.25-8.46l-0.39-2.6c-0.57-3.8,3.3-6.76,6.96-5.34l0.29,0.12
		c-1.6,0.95-0.68,2.46-0.43,4.54l4.84,10.22l-1.37,30.85c0.27,2.2,1.46,3.54,3.4,4.05c-3.05,1.73-7.09-0.05-7.63-3.6l-0.64-4.31"/>
	<path class="st3" d="M56.85,70.48"/>
	<path class="st4" d="M55.59,61.8"/>
	<path class="st2" d="M60.42,61.8l-0.38-3.22c-0.58-9.47,8.53-6.14,8.53-6.14l33.95,17.66c0,0,1.93,6.71,0.28,8.01
		c0,0-26.4,22.16-31.24,26.14c-1.46,1.2-6.36-0.26-6.63-3.6l-2.6-22.38"/>
	<g>
		
			<linearGradient id="SVGID_2_" gradientUnits="userSpaceOnUse" x1="92.1446" y1="-1200.83" x2="96.3785" y2="-1200.83" gradientTransform="matrix(1 0 0 -1 0 -1116)">
			<stop  offset="0.3384" style="stop-color:#7EDDBD"/>
			<stop  offset="0.5648" style="stop-color:#57CAAD"/>
			<stop  offset="0.69" style="stop-color:#3FBFA4"/>
		</linearGradient>
		<polygon class="st5" points="92.14,86.51 96.38,83.17 92.15,83.15 		"/>
	</g>
	<path class="st6" d="M107.54,72.61L75.18,51.43c-3.41-1.97-7.68,0.49-7.68,4.44v42.36c0,3.94,4.27,6.41,7.68,4.44l32.37-21.19
		C110.96,79.51,110.96,74.58,107.54,72.61z"/>
	<g>
		<path class="st7" d="M98.48,74.72L79.3,62.32c-1.87-1.29-4.42,0.05-4.42,2.32v24.79c0,2.27,2.55,3.61,4.42,2.32l19.18-12.39
			C100.11,78.25,100.11,75.84,98.48,74.72z"/>
		<path class="st8" d="M98.48,74.72l-2.97-1.92l-5.77,3.74l2.85,1.85c1.63,1.12,1.63,3.52,0,4.64l5.89-3.66
			C100.11,78.25,100.11,75.84,98.48,74.72z"/>
		<path class="st9" d="M98.48,74.72l-2.97-1.92l-5.77,3.74l2.85,1.85c1.63,1.12,1.63,3.52,0,4.64l5.89-3.66
			C100.11,78.25,100.11,75.84,98.48,74.72z"/>
		<path class="st7" d="M79.3,83.28l10.43-6.74l-6.56-4.24l-3.88,2.5c-1.87,1.29-4.42-0.05-4.42-2.32v8.48
			C74.88,83.23,77.44,84.56,79.3,83.28z"/>
		<polygon class="st10" points="95.51,72.8 95.51,72.8 98.48,74.72 		"/>
		<path class="st8" d="M92.59,78.38l-2.85-1.85L79.3,83.28c-1.87,1.29-4.42-0.05-4.42-2.32v8.48c0,2.27,2.55,3.61,4.42,2.32
			l19.18-12.39l-5.89,3.66C94.22,81.9,94.22,79.5,92.59,78.38z"/>
		<path class="st11" d="M79.3,74.8l3.88-2.5l-0.12-0.07l-8.18-5.29v5.54C74.88,74.75,77.44,76.09,79.3,74.8z"/>
		<polygon class="st7" points="89.74,76.54 95.51,72.8 88.95,68.56 83.18,72.3 		"/>
		<polygon class="st12" points="89.74,76.54 95.51,72.8 88.95,68.56 83.18,72.3 		"/>
		<path class="st8" d="M83.18,72.3l5.77-3.74l-9.65-6.24c-1.87-1.29-4.42,0.05-4.42,2.32v2.29l8.18,5.29L83.18,72.3z"/>
		<path class="st13" d="M83.18,72.3l5.77-3.74l-9.65-6.24c-1.87-1.29-4.42,0.05-4.42,2.32v2.29l8.18,5.29L83.18,72.3z"/>
	</g>
	<circle class="st6" cx="59" cy="86.51" r="1.53"/>
	<g>
		<line class="st14" x1="60.28" y1="68.2" x2="62.03" y2="65.2"/>
		<line class="st14" x1="59.78" y1="65.64" x2="62.53" y2="67.75"/>
	</g>
</g>
<rect x="15" y="15" class="st15" width="130" height="130"/>
</svg>
