<svg id="Layer_1" data-name="Layer 1" xmlns="http://www.w3.org/2000/svg" xmlns:xlink="http://www.w3.org/1999/xlink" viewBox="0 0 160 160"><defs><style>.cls-1{fill:none;}.cls-2{fill:#c4c4c4;}.cls-3{fill:#fd4a46;}.cls-4{fill:#ff7b7b;}.cls-5{fill:#620e00;}.cls-6{fill:#fff;}.cls-7{fill:#3daf5d;}.cls-8{fill:#620d00;}.cls-9{fill:#4ace69;}.cls-10{fill:#c3c3c3;}.cls-11{fill:#5e1100;}.cls-12{fill:#b1653e;}.cls-13{fill:#ce7751;}.cls-14{clip-path:url(#clip-path);}.cls-15{fill:#ebd8cf;}.cls-16{fill:#a35632;}.cls-17{clip-path:url(#clip-path-2);}.cls-18{fill:#fffed9;}.cls-19{fill:#f34e42;}</style><clipPath id="clip-path"><path class="cls-1" d="M48.1,100.42h0m.08-22.56h0m0,0h0m0,0h0"/></clipPath><clipPath id="clip-path-2"><path class="cls-1" d="M57.06,92c0,4.35,4.37,7.88,9.76,7.88s9.77-3.53,9.77-7.88-4.38-7.87-9.77-7.87S57.06,87.61,57.06,92"/></clipPath></defs><title>Artboard 1</title><path class="cls-2" d="M100.39,101.84c0-1-7.31-1.71-16.31-1.71s-16.32.76-16.32,1.71,7.31,1.7,16.32,1.7S100.39,102.78,100.39,101.84Z"/><path class="cls-3" d="M92.1,53.2a16.19,16.19,0,0,0-8,2.14,16.26,16.26,0,0,0-8-2.14c-10.15,0-18.38,9.55-18.38,21.32S70,102.79,80.17,102.79a9,9,0,0,0,1.38-.11,16.45,16.45,0,0,1,5,0,9,9,0,0,0,1.38.11c10.15,0,22.5-16.49,22.5-28.27S102.25,53.2,92.1,53.2"/><path class="cls-4" d="M107.38,74.75a20.3,20.3,0,0,0-4.74-13.27A15.21,15.21,0,0,0,91.13,56a.4.4,0,1,0,0,.8A14.4,14.4,0,0,1,102,62a19.51,19.51,0,0,1,4.55,12.74.4.4,0,1,0,.8,0Z"/><path class="cls-5" d="M81.45,45.77l2.62,15.1a.81.81,0,0,0,.94.66.8.8,0,0,0,.65-.93L83,45.5a.81.81,0,0,0-.94-.66.8.8,0,0,0-.65.93"/><circle class="cls-3" cx="84.37" cy="67.9" r="10.75"/><path class="cls-6" d="M95.35,56.83a.89.89,0,1,1-.89-.89A.89.89,0,0,1,95.35,56.83Z"/><path class="cls-7" d="M93.42,38.56a13.28,13.28,0,0,0-8.22,8.3,2.48,2.48,0,0,0,1,2.88A13.31,13.31,0,0,0,106,42.83a2.49,2.49,0,0,0-1-2.89A13.26,13.26,0,0,0,93.42,38.56Z"/><line class="cls-8" x1="83.17" y1="49.12" x2="100.48" y2="43.17"/><path class="cls-9" d="M83.3,49.5l17.31-6a.4.4,0,0,0,.25-.51.41.41,0,0,0-.52-.25l-17.3,6a.4.4,0,0,0,.26.76"/><ellipse class="cls-10" cx="67.36" cy="105.65" rx="7.36" ry="0.83"/><ellipse class="cls-10" cx="55.77" cy="105.65" rx="7.36" ry="0.83"/><ellipse class="cls-10" cx="45" cy="105.65" rx="7.36" ry="0.83"/><path class="cls-11" d="M68.66,96.81v8.44a.42.42,0,0,0,.12.3.46.46,0,0,0,.31.13h1.25a.44.44,0,0,0,.44-.43.44.44,0,0,0-.44-.44h-.82v-8a.43.43,0,1,0-.86,0Z"/><path class="cls-11" d="M65,96.81v8h-.82a.44.44,0,0,0-.43.44.43.43,0,0,0,.43.43h1.26a.48.48,0,0,0,.31-.13.42.42,0,0,0,.12-.3V96.81a.44.44,0,0,0-.43-.44.44.44,0,0,0-.44.44Z"/><path class="cls-11" d="M57.27,94.45v10.8a.42.42,0,0,0,.12.3.46.46,0,0,0,.31.13H59a.44.44,0,0,0,.44-.43.44.44,0,0,0-.44-.44h-.82V94.45a.43.43,0,0,0-.86,0Z"/><path class="cls-11" d="M53.58,96.81v8h-.82a.44.44,0,0,0-.43.44.43.43,0,0,0,.43.43H54a.44.44,0,0,0,.43-.43V96.81a.44.44,0,0,0-.43-.44.44.44,0,0,0-.44.44Z"/><path class="cls-11" d="M46.37,96.81v8.44a.44.44,0,0,0,.43.43h1.26a.43.43,0,0,0,.43-.43.44.44,0,0,0-.43-.44h-.82v-8a.44.44,0,0,0-.44-.43.43.43,0,0,0-.43.43"/><path class="cls-11" d="M42.69,96.81v8h-.82a.44.44,0,0,0-.44.44.44.44,0,0,0,.44.43h1.25a.44.44,0,0,0,.31-.13.42.42,0,0,0,.12-.3V96.81a.43.43,0,0,0-.86,0"/><path class="cls-12" d="M36.25,89.14a11.56,11.56,0,0,0,11.81,11.28,11.29,11.29,0,1,0,0-22.56A11.56,11.56,0,0,0,36.25,89.14"/><path class="cls-13" d="M54.08,80.51a11.73,11.73,0,0,0-6-1.65c-.35,0-.7,0-1,0a.32.32,0,0,0-.3.35.33.33,0,0,0,.35.3c.33,0,.65,0,1,0a11,11,0,0,1,5.68,1.56.33.33,0,0,0,.34-.56"/><g class="cls-14"><rect class="cls-15" x="48.1" y="77.86" width="0.09" height="22.56"/></g><path class="cls-16" d="M48.06,77.86a11.29,11.29,0,1,0,0,22.56h0a11.2,11.2,0,0,0,1.3-.08,11.23,11.23,0,0,1,0-22.41c-.4,0-.81-.07-1.22-.07h-.12"/><path class="cls-12" d="M57.06,92c0,4.35,4.37,7.88,9.76,7.88s9.77-3.53,9.77-7.88-4.38-7.87-9.77-7.87S57.06,87.61,57.06,92"/><path class="cls-13" d="M68.59,98.63a9.61,9.61,0,0,0,4.59-2,7.85,7.85,0,0,0,.79-.73.38.38,0,0,0,0-.54.39.39,0,0,0-.55,0,6.44,6.44,0,0,1-.71.66,9,9,0,0,1-4.22,1.81.39.39,0,0,0-.32.44.38.38,0,0,0,.44.32Z"/><path class="cls-13" d="M65.05,98.63a11.53,11.53,0,0,0,1.77.14.39.39,0,1,0,0-.77,11.24,11.24,0,0,1-1.65-.13.38.38,0,1,0-.12.76Z"/><g class="cls-17"><path class="cls-16" d="M66.82,84.09a11.77,11.77,0,0,0-2.4.24A11.51,11.51,0,0,0,73.93,95a12.29,12.29,0,0,0,1.8.22A6.62,6.62,0,0,0,76.59,92c0-4.35-4.38-7.87-9.77-7.87"/></g><path class="cls-11" d="M85.77,64.85A14.27,14.27,0,0,0,83,67.12a11.76,11.76,0,0,0-3.28,6.66.42.42,0,0,0,.38.48.43.43,0,0,0,.48-.38,10.88,10.88,0,0,1,3-6.16,13.93,13.93,0,0,1,1.79-1.59c.24-.18.44-.31.57-.4l.16-.09,0,0a.44.44,0,0,0-.43-.76Z"/><path class="cls-11" d="M78.63,61.55a13.71,13.71,0,0,0-2.93,8A10.12,10.12,0,0,0,76,72a.43.43,0,0,0,.84-.2,10,10,0,0,1-.25-2.2,11.92,11.92,0,0,1,1.37-5.35,13.13,13.13,0,0,1,.94-1.58,5,5,0,0,1,.3-.42l.09-.11,0,0a.43.43,0,1,0-.66-.56Z"/><path class="cls-12" d="M64.78,79.43c-1.17,5.93,3,11.74,9.32,13s12.39-2.55,13.55-8.48-3-11.74-9.32-13S66,73.51,64.78,79.43Z"/><path class="cls-11" d="M74.39,82a.33.33,0,0,0-.38.42,2.67,2.67,0,0,0,4.6.87.33.33,0,0,0-.19-.53Z"/><path class="cls-18" d="M76.75,83.14l-1-.18a.34.34,0,0,1-.27-.39l.07-.36,1.62.31-.07.36A.32.32,0,0,1,76.75,83.14Z"/><path class="cls-11" d="M82.69,81.27a6.74,6.74,0,0,0-.13-1.9c-.09-.43-.26-1.29-.74-1.45s-1.11.65-1.34,1a4.8,4.8,0,0,0-.84,1.92c-.08.4-.68.23-.61-.17a5.64,5.64,0,0,1,1.11-2.36c.4-.51,1-1.19,1.77-1s1,.9,1.15,1.49a7,7,0,0,1,.27,2.49C83.29,81.67,82.66,81.67,82.69,81.27Z"/><path class="cls-11" d="M70.89,78.86a6.89,6.89,0,0,1,1.24-2.29c.42-.51,1.08-1.11,1.79-.84s.93,1.06,1.08,1.67a5.89,5.89,0,0,1,.1,2.54c-.09.4-.7.23-.61-.17a4.76,4.76,0,0,0,0-1.88c-.09-.45-.24-1.31-.71-1.54s-1.13.58-1.37.93A6.63,6.63,0,0,0,71.5,79C71.37,79.41,70.76,79.25,70.89,78.86Z"/><path class="cls-19" d="M69.27,81.36a1.92,1.92,0,1,0,2.25-1.51A1.92,1.92,0,0,0,69.27,81.36Z"/><path class="cls-19" d="M79.62,83.4a1.92,1.92,0,1,0,3.77.74,1.92,1.92,0,0,0-3.77-.74Z"/></svg>