<svg id="Layer_1" data-name="Layer 1" xmlns="http://www.w3.org/2000/svg" xmlns:xlink="http://www.w3.org/1999/xlink" viewBox="0 0 160 160"><defs><style>.cls-1{fill:none;}.cls-2{fill:#efefef;}.cls-3{fill:#a05a3f;}.cls-4{fill:#b76444;}.cls-5{clip-path:url(#clip-path);}.cls-6{fill:#a45a3d;}.cls-7{fill:#620e00;}.cls-8{clip-path:url(#clip-path-2);}.cls-9{fill:#d1866f;}.cls-10{fill:#ff66a1;}.cls-11{fill:#f95da4;}.cls-12{clip-path:url(#clip-path-3);}.cls-13{fill:#d13b7f;}.cls-14{fill:#ff78ae;}.cls-15{fill:#ff7daf;}.cls-16{fill:#ff8cba;}.cls-17{clip-path:url(#clip-path-4);}.cls-18{fill:#fffed9;}.cls-19{fill:#fc73af;}.cls-20{fill:#e8629c;}.cls-21{fill:#fe7eb4;}.cls-22{fill:#ff77ad;}.cls-23{fill:#ff80b4;}.cls-24{fill:#ff80b3;}.cls-25{fill:#6258e0;}</style><clipPath id="clip-path"><path class="cls-1" d="M71.88,58.48a6.26,6.26,0,0,0,5.81,8.59,6.23,6.23,0,0,0,5.8-4L71.88,58.48"/></clipPath><clipPath id="clip-path-2"><path class="cls-1" d="M90.23,103.08H64.12a8.38,8.38,0,0,1-8.38-8.37V68.12a21.44,21.44,0,0,1,42.87,0V94.71a8.38,8.38,0,0,1-8.38,8.37"/></clipPath><clipPath id="clip-path-3"><path class="cls-1" d="M67.86,96.1A12.78,12.78,0,1,1,80.64,109,12.84,12.84,0,0,1,67.86,96.1"/></clipPath><clipPath id="clip-path-4"><path class="cls-1" d="M83.89,91.31a3.23,3.23,0,1,1-6.46,0c0-1.8,1.45,0,3.23,0s3.23-1.8,3.23,0"/></clipPath></defs><title>Artboard 47</title><path class="cls-2" d="M53.73,107.13c0-2.07,11.21-3.75,25-3.75s25,1.68,25,3.75-11.21,3.74-25,3.74-25-1.68-25-3.74"/><path class="cls-3" d="M92,77.34l1-3.7-1,3.69h0l1-3.7-1,3.69h0c.05,0,.44.13,1,.33a11,11,0,0,1,1.22.57,7.06,7.06,0,0,1,.78.51,2.85,2.85,0,0,1,.34.31l.1.1h0l.27-.18-.29.14,0,0,.27-.18-.29.14.89-.43h-1a1.18,1.18,0,0,0,.1.43l.89-.43h-.34l-.64-.06v.06h.65l-.64-.06.27,0-.27,0v0l.27,0-.27,0h0a6.11,6.11,0,0,0,12,2.39,12,12,0,0,0,.23-2.32,11,11,0,0,0-.74-4,12,12,0,0,0-1.54-2.79,14.78,14.78,0,0,0-3.33-3.23,21.51,21.51,0,0,0-4.52-2.4,17.88,17.88,0,0,0-2.27-.76A6.12,6.12,0,1,0,92,77.34Z"/><path class="cls-3" d="M54.84,71.33,44.1,91.71a6.12,6.12,0,0,0,10.82,5.71L65.66,77a6.11,6.11,0,1,0-10.82-5.7"/><path class="cls-4" d="M90.23,107.21H64.12a8.38,8.38,0,0,1-8.38-8.38V68.12a21.44,21.44,0,0,1,42.87,0V98.83a8.38,8.38,0,0,1-8.38,8.38"/><path class="cls-4" d="M95.6,52.66a5.55,5.55,0,1,1-5.55-5.61A5.57,5.57,0,0,1,95.6,52.66Z"/><path class="cls-4" d="M67.22,52.66a5.55,5.55,0,1,1-5.55-5.61A5.58,5.58,0,0,1,67.22,52.66Z"/><g class="cls-5"><rect class="cls-6" x="70.63" y="58.48" width="12.86" height="8.59"/></g><path class="cls-4" d="M84.2,58.66a6.23,6.23,0,1,1-12.46,0"/><path class="cls-7" d="M83.85,58.66a5.92,5.92,0,0,1-1.73,4.2,5.82,5.82,0,0,1-8.3,0,5.92,5.92,0,0,1-1.73-4.2.36.36,0,0,0-.71,0,6.65,6.65,0,0,0,1.93,4.7,6.54,6.54,0,0,0,9.32,0,6.65,6.65,0,0,0,1.93-4.7.36.36,0,0,0-.71,0Z"/><path class="cls-7" d="M84.3,63.11H82.9a3.41,3.41,0,0,1-3.34-2.77,3.58,3.58,0,0,1,3.49-4.28h1.09a3.57,3.57,0,0,1,3.49,4.28A3.4,3.4,0,0,1,84.3,63.11Z"/><path class="cls-7" d="M77,54a1.28,1.28,0,1,1-1.28-1.29A1.28,1.28,0,0,1,77,54Z"/><path class="cls-7" d="M81.46,54a1.28,1.28,0,1,1-2.55,0,1.28,1.28,0,1,1,2.55,0Z"/><g class="cls-8"><path class="cls-9" d="M85.77,103.06H68.58a5.3,5.3,0,0,1-5.3-5.31V83.36A13.6,13.6,0,0,1,76.85,69.79h.65A13.6,13.6,0,0,1,91.07,83.36V97.75a5.3,5.3,0,0,1-5.3,5.31"/></g><path class="cls-4" d="M76.6,47.21a2,2,0,1,1-2-2.06A2,2,0,0,1,76.6,47.21Z"/><ellipse class="cls-4" cx="77.18" cy="47.21" rx="2.04" ry="2.06"/><ellipse class="cls-4" cx="79.79" cy="47.21" rx="2.04" ry="2.06"/><path class="cls-4" d="M56.15,110.74h0a9.29,9.29,0,0,1-9.29-9.28V97.17a3.31,3.31,0,0,1,3.31-3.31H62.12a3.31,3.31,0,0,1,3.31,3.31v4.29A9.29,9.29,0,0,1,56.15,110.74Z"/><path class="cls-4" d="M51.05,101.31h0a4.2,4.2,0,0,1-4.19-4.19V95a4.19,4.19,0,0,1,8.38,0v2.1A4.2,4.2,0,0,1,51.05,101.31Z"/><path class="cls-4" d="M61.2,101.31h0A4.2,4.2,0,0,1,57,97.12V95a4.19,4.19,0,1,1,8.38,0v2.1A4.2,4.2,0,0,1,61.2,101.31Z"/><path class="cls-4" d="M56.12,99.1h0a4.19,4.19,0,0,1-4.18-4.19v-2.1a4.19,4.19,0,1,1,8.37,0v2.1A4.19,4.19,0,0,1,56.12,99.1Z"/><path class="cls-9" d="M49.17,94.91A1.85,1.85,0,1,1,51,96.77,1.86,1.86,0,0,1,49.17,94.91Z"/><path class="cls-9" d="M54.24,93a1.85,1.85,0,1,1,1.85,1.87A1.86,1.86,0,0,1,54.24,93Z"/><ellipse class="cls-9" cx="56.09" cy="102.3" rx="5.13" ry="5.18"/><path class="cls-9" d="M59.78,94.91a1.85,1.85,0,1,1,1.84,1.86A1.85,1.85,0,0,1,59.78,94.91Z"/><path class="cls-4" d="M103,110.74h0a9.28,9.28,0,0,1-9.28-9.28V97.17a3.31,3.31,0,0,1,3.31-3.31H109a3.31,3.31,0,0,1,3.31,3.31v4.29A9.28,9.28,0,0,1,103,110.74Z"/><path class="cls-4" d="M98,101.31h0a4.19,4.19,0,0,1-4.19-4.19V95a4.19,4.19,0,1,1,8.37,0v2.1A4.19,4.19,0,0,1,98,101.31Z"/><path class="cls-4" d="M108.09,101.31h0a4.19,4.19,0,0,1-4.18-4.19V95a4.19,4.19,0,1,1,8.37,0v2.1A4.19,4.19,0,0,1,108.09,101.31Z"/><path class="cls-4" d="M103,99.1h0a4.2,4.2,0,0,1-4.19-4.19v-2.1a4.19,4.19,0,0,1,8.38,0v2.1A4.2,4.2,0,0,1,103,99.1Z"/><path class="cls-9" d="M96.06,94.91a1.85,1.85,0,1,1,1.85,1.86A1.86,1.86,0,0,1,96.06,94.91Z"/><path class="cls-9" d="M101.14,93A1.85,1.85,0,1,1,103,94.91,1.85,1.85,0,0,1,101.14,93Z"/><path class="cls-9" d="M97.85,102.3a5.14,5.14,0,1,1,5.13,5.18A5.16,5.16,0,0,1,97.85,102.3Z"/><path class="cls-9" d="M106.67,94.91a1.85,1.85,0,1,1,1.85,1.86A1.86,1.86,0,0,1,106.67,94.91Z"/><path class="cls-10" d="M67.86,96.1A12.78,12.78,0,1,1,80.64,109,12.84,12.84,0,0,1,67.86,96.1"/><path class="cls-11" d="M83,105.14a12.84,12.84,0,0,1-12.78-12.9A13,13,0,0,1,71,87.59,12.93,12.93,0,0,0,80.64,109a12.8,12.8,0,0,0,11.93-8.26,12.72,12.72,0,0,1-9.61,4.4"/><g class="cls-12"><path class="cls-13" d="M80.31,81.69v30.69a.36.36,0,0,0,.71,0V81.69a.36.36,0,0,0-.71,0"/><path class="cls-13" d="M65.47,97.39H95.86a.36.36,0,1,0,0-.71H65.47a.36.36,0,1,0,0,.71"/><path class="cls-13" d="M68.09,81.69h.35A12.31,12.31,0,0,1,72,73a12.12,12.12,0,0,1,17.28,0,12.42,12.42,0,0,1,0,17.45,12.12,12.12,0,0,1-17.28,0,12.32,12.32,0,0,1-3.59-8.73h-.71a13.1,13.1,0,0,0,3.79,9.24,12.87,12.87,0,0,0,18.3,0,13.17,13.17,0,0,0,0-18.47,12.87,12.87,0,0,0-18.3,0,13.1,13.1,0,0,0-3.79,9.23h.36"/><path class="cls-13" d="M68.09,112.38h.35A12.34,12.34,0,0,1,72,103.65a12.12,12.12,0,0,1,17.28,0,12.43,12.43,0,0,1,0,17.46,12.14,12.14,0,0,1-17.28,0,12.35,12.35,0,0,1-3.59-8.73h-.71a13.08,13.08,0,0,0,3.79,9.23,12.87,12.87,0,0,0,18.3,0,13.16,13.16,0,0,0,0-18.46,12.84,12.84,0,0,0-18.3,0,13.06,13.06,0,0,0-3.79,9.23h.36"/></g><path class="cls-14" d="M74.21,87.22a2.56,2.56,0,0,0-.79.12.94.94,0,0,1,.56.83,1,1,0,0,1-1.09.94,1.09,1.09,0,0,1-1-.49,1.82,1.82,0,0,0-.14.7,2.44,2.44,0,1,0,2.41-2.1"/><path class="cls-15" d="M72.89,87.22a1,1,0,0,0-1.09,1,.8.8,0,0,0,.14.45,2.25,2.25,0,0,1,1.48-1.28,1.18,1.18,0,0,0-.53-.12"/><path class="cls-16" d="M73.42,87.34a2.25,2.25,0,0,0-1.48,1.28,1.09,1.09,0,0,0,1,.49A1,1,0,0,0,74,88.17a.94.94,0,0,0-.56-.83"/><path class="cls-14" d="M86.55,86.94,86.2,87a.92.92,0,0,1,.51.8,1,1,0,0,1-1.09,1,1.12,1.12,0,0,1-1-.56,2.06,2.06,0,0,0-.24,1,2.52,2.52,0,0,0,5,0,.81.81,0,0,1-.6-.28,11.07,11.07,0,0,0-2.24-2"/><path class="cls-15" d="M85.62,86.86a1,1,0,0,0-1.09,1,.86.86,0,0,0,.09.39A2.42,2.42,0,0,1,86.2,87a1.25,1.25,0,0,0-.58-.15"/><path class="cls-16" d="M86.2,87a2.42,2.42,0,0,0-1.58,1.19,1.12,1.12,0,0,0,1,.56,1,1,0,0,0,1.09-1,.92.92,0,0,0-.51-.8"/><path class="cls-7" d="M80.17,89.72a.63.63,0,1,1-.63-.63A.63.63,0,0,1,80.17,89.72Z"/><path class="cls-7" d="M82.35,89.72a.63.63,0,1,1-.62-.63A.63.63,0,0,1,82.35,89.72Z"/><path class="cls-7" d="M83.89,91.31a3.23,3.23,0,1,1-6.46,0c0-1.8,1.45,0,3.23,0S83.89,89.51,83.89,91.31Z"/><g class="cls-17"><rect class="cls-18" x="79.47" y="88.55" width="2.37" height="3.31" rx="0.36" ry="0.36"/><rect class="cls-10" x="77.17" y="93.17" width="2.37" height="3.31" rx="0.79" ry="0.79"/></g><path class="cls-19" d="M69.37,97.39h-.29a.8.8,0,0,0-.63.91,13,13,0,0,0,.37,1.52.78.78,0,0,0,.71.55.91.91,0,0,1,.23-.15.71.71,0,0,1,.32-.07h0a.78.78,0,0,0,.21-.8A9.77,9.77,0,0,1,70,98a.8.8,0,0,0-.63-.64"/><path class="cls-20" d="M69.23,97.38h0"/><path class="cls-19" d="M72.46,103.23l-.43.42c-.23.23-.45.47-.67.72a12.39,12.39,0,0,0,7.3,4.06h.12a.79.79,0,0,0,.78-.66.78.78,0,0,0-.65-.9h0a10.73,10.73,0,0,1-6.45-3.65m-2.35-3.08a.81.81,0,0,1-.31.19l-.23,0h0a.79.79,0,0,0-.17.89,12.45,12.45,0,0,0,1.54,2.55c.2-.23.41-.45.62-.66s.32-.32.49-.47a10.72,10.72,0,0,1-1.22-2.07.76.76,0,0,0-.68-.46"/><path class="cls-20" d="M72,102.68c-.17.15-.33.3-.49.47s-.42.43-.62.66l.46.56c.22-.25.44-.49.67-.72l.43-.42c-.16-.18-.31-.36-.45-.55"/><path class="cls-21" d="M70.08,100.15a.71.71,0,0,0-.32.07.91.91,0,0,0-.23.15h0l.23,0a.81.81,0,0,0,.31-.19h0"/><path class="cls-22" d="M91.14,89.36a13.22,13.22,0,0,1-1.06,1.29l.21.41a.8.8,0,0,0,.7.43.78.78,0,0,0,.71-1.13c-.17-.34-.36-.68-.56-1m-.84-.63-.22,0a.69.69,0,0,1-.18.24,1.18,1.18,0,0,1-.29.16.78.78,0,0,0,0,.79h0l0,.07c.34-.39.66-.79,1-1.21a.86.86,0,0,0-.36-.08"/><path class="cls-20" d="M90.66,88.81c-.3.42-.62.82-1,1.21.13.2.26.42.38.63a13.22,13.22,0,0,0,1.06-1.29L91,89.08a.77.77,0,0,0-.3-.27"/><path class="cls-22" d="M82.35,83.73a.78.78,0,0,0-.77.67.77.77,0,0,0,.66.89,10.67,10.67,0,0,1,4.31,1.65l.34,0a2.38,2.38,0,0,1,2.5,2.23v0h0l.22,0a.83.83,0,0,1,.26-.3.67.67,0,0,1,.21-.1.78.78,0,0,0-.1-.87,12.3,12.3,0,0,0-7.51-4.15h-.12"/><path class="cls-23" d="M86.89,86.92l-.34,0a11.07,11.07,0,0,1,2.24,2,.81.81,0,0,0,.6.28v0a2.38,2.38,0,0,0-2.5-2.23"/><path class="cls-24" d="M90.08,88.76a.67.67,0,0,0-.21.1.83.83,0,0,0-.26.3A1.18,1.18,0,0,0,89.9,89a.69.69,0,0,0,.18-.24"/><path class="cls-3" d="M97.06,75.35l.8.86-.72-.93-.08.07.8.86-.72-.93.3.39-.29-.4h0l.3.39-.29-.4,0,0,0,0h0l0,0,0,0a5.4,5.4,0,0,1-1.51.54,15.71,15.71,0,0,1-3.44.35,20.55,20.55,0,0,1-6.62-1.1,6.12,6.12,0,0,0-4,11.56A32.7,32.7,0,0,0,92.2,88.39a26.53,26.53,0,0,0,7-.88,18.08,18.08,0,0,0,3.19-1.19,12.46,12.46,0,0,0,3-2,6.11,6.11,0,1,0-8.35-8.93Z"/><path class="cls-25" d="M69.63,110.3h-.36a1.44,1.44,0,1,1-2.87,0,1.44,1.44,0,1,1,2.87,0H70a2.16,2.16,0,1,0-2.16,2.18A2.17,2.17,0,0,0,70,110.3Z"/></svg>