<svg id="Layer_1" data-name="Layer 1" xmlns="http://www.w3.org/2000/svg" viewBox="0 0 160 160"><defs><style>.cls-1{fill:#fd4a46;}</style></defs><title>Artboard 48</title><path class="cls-1" d="M78.5,80.34a10.28,10.28,0,0,1,2,6.44,9.68,9.68,0,0,1-4.43,8.51q-4.44,3-12.83,3H40.62v-42H62.08q8,0,12.23,3a9.3,9.3,0,0,1,4.19,8A10,10,0,0,1,77,72.66a10.28,10.28,0,0,1-4.17,3.75A11.7,11.7,0,0,1,78.5,80.34ZM52.37,64.9V73h8.15c4,0,6-1.35,6-4.07s-2-4-6-4ZM68.55,85.46c0-2.84-2.07-4.25-6.23-4.25h-10v8.51h10C66.48,89.72,68.55,88.3,68.55,85.46Z"/><path class="cls-1" d="M114.68,67.3a14.89,14.89,0,0,1,5.75,5.84,19.49,19.49,0,0,1,0,17.72,15,15,0,0,1-5.75,5.9,16,16,0,0,1-8.06,2.07q-6.42,0-9.59-3.78v3.24H86.18V53.81H97.57V68.62q3.29-3.36,9.05-3.36A16.18,16.18,0,0,1,114.68,67.3Zm-5.55,20.41A8.09,8.09,0,0,0,111.05,82a7.9,7.9,0,0,0-1.92-5.64,6.94,6.94,0,0,0-9.83,0A7.9,7.9,0,0,0,97.39,82a8.09,8.09,0,0,0,1.91,5.72,6.87,6.87,0,0,0,9.83,0Z"/></svg>