<svg id="Layer_1" data-name="Layer 1" xmlns="http://www.w3.org/2000/svg" xmlns:xlink="http://www.w3.org/1999/xlink" viewBox="0 0 160 160"><defs><style>.cls-1{fill:none;}.cls-2{fill:#b7b7b7;}.cls-3{fill:#a3a3a3;}.cls-4{fill:#efefef;}.cls-5{fill:#d3d3d3;}.cls-6{fill:#fd4a46;}.cls-7{fill:#bdbdbd;}.cls-8{fill:#e3423f;}.cls-9{fill:#620e00;}.cls-10{fill:#ff88b9;}.cls-11{fill:#ff66a1;}.cls-12{fill:#fff;}.cls-13{fill:#fffed9;}.cls-14{fill:#db2828;}.cls-15{fill:#ba1515;}.cls-16{fill:#6258e0;}.cls-17{clip-path:url(#clip-path);}</style><clipPath id="clip-path"><path class="cls-1" d="M92.19,107.7H69A11.7,11.7,0,0,1,57.32,96V84.43a23.27,23.27,0,0,1,46.53,0V96A11.7,11.7,0,0,1,92.19,107.7"/></clipPath></defs><title>Artboard 49</title><path class="cls-2" d="M99.46,62.93l-1,12.65A1.64,1.64,0,0,1,97.17,77l-7.81,1.72a1.62,1.62,0,0,1-2-1.5L87,70.5a1.62,1.62,0,0,1,.59-1.33l9.19-7.63a1.63,1.63,0,0,1,2.66,1.39"/><path class="cls-2" d="M61.71,62.93l1,12.65A1.63,1.63,0,0,0,64,77l7.8,1.72a1.63,1.63,0,0,0,2-1.5l.36-6.76a1.58,1.58,0,0,0-.58-1.33l-9.19-7.63a1.63,1.63,0,0,0-2.66,1.39"/><path class="cls-2" d="M75.34,75.08l1.38,0h.18a11.18,11.18,0,0,0,11.19-11L88.2,57a4.66,4.66,0,0,1,4.67-4.6h.07l1.9,0a3.27,3.27,0,1,0,.1-6.53l-1.9,0h-.17a11.2,11.2,0,0,0-11.19,11L81.57,64a4.68,4.68,0,0,1-4.67,4.6h-.07l-1.39,0a3.26,3.26,0,0,0-.1,6.52Z"/><path class="cls-3" d="M90.13,53.28a4.64,4.64,0,0,1,2.74-.88h.07l1.9,0,.1-6.53-1.9,0h-.17A11.16,11.16,0,0,0,86.3,48l3.83,5.28Z"/><path class="cls-3" d="M92.94,52.4l1.9,0a3.27,3.27,0,1,0,.1-6.53l-1.9,0a3.26,3.26,0,0,0-.1,6.52"/><path class="cls-3" d="M77.47,73.85h1.39a3.27,3.27,0,0,0,0-6.53H77.47a3.27,3.27,0,0,0,0,6.53"/><path class="cls-4" d="M102.75,107.67c0-1.55-9.92-2.8-22.16-2.8s-22.15,1.25-22.15,2.8,9.92,2.81,22.15,2.81S102.75,109.22,102.75,107.67Z"/><path class="cls-5" d="M92.19,107.7H69A11.7,11.7,0,0,1,57.32,96V84.43a23.27,23.27,0,0,1,46.53,0V96A11.7,11.7,0,0,1,92.19,107.7"/><path class="cls-6" d="M80.63,82.5a1.84,1.84,0,0,1-1.83-1.83V76.55a1.84,1.84,0,0,1,3.67,0v4.12a1.84,1.84,0,0,1-1.84,1.83"/><path class="cls-7" d="M78.8,77.27H73.17a3.72,3.72,0,0,0,5.63,3.18V77.27"/><path class="cls-8" d="M80.58,77.27H78.8v3.18a3.72,3.72,0,0,0,1.78-3.18"/><path class="cls-7" d="M88,77.27H82.47v3.24A3.72,3.72,0,0,0,88,77.27"/><path class="cls-8" d="M82.47,77.27H80.58a3.72,3.72,0,0,0,1.89,3.24V77.27"/><path class="cls-5" d="M80.58,75.9a3.71,3.71,0,1,1-7.41,0"/><path class="cls-9" d="M80.28,75.9a3.41,3.41,0,0,1-3.4,3.41,3.44,3.44,0,0,1-2.41-1,3.39,3.39,0,0,1-1-2.41.29.29,0,0,0-.3-.3.3.3,0,0,0-.31.3,4,4,0,1,0,8,0,.3.3,0,0,0-.31-.3.29.29,0,0,0-.3.3Z"/><path class="cls-5" d="M88,75.9a3.71,3.71,0,1,1-7.42,0"/><path class="cls-9" d="M87.7,75.9a3.39,3.39,0,0,1-1,2.41,3.44,3.44,0,0,1-2.41,1,3.41,3.41,0,0,1-3.4-3.41.3.3,0,0,0-.31-.3.29.29,0,0,0-.3.3,4,4,0,1,0,8,0,.3.3,0,0,0-.31-.3.29.29,0,0,0-.3.3Z"/><path class="cls-9" d="M79.83,72a1,1,0,1,1-1-1A1,1,0,0,1,79.83,72Z"/><path class="cls-9" d="M83.39,72a1,1,0,1,1-1-1A1,1,0,0,1,83.39,72Z"/><line class="cls-5" x1="86.53" y1="76.64" x2="94.89" y2="74.97"/><path class="cls-9" d="M86.59,76.94,95,75.27a.31.31,0,0,0,.24-.36.31.31,0,0,0-.36-.24l-8.36,1.67a.32.32,0,0,0-.24.36.3.3,0,0,0,.36.24"/><line class="cls-5" x1="85.92" y1="75.23" x2="94.03" y2="70.99"/><path class="cls-9" d="M86.06,75.5l8.12-4.23a.32.32,0,0,0,.13-.42.31.31,0,0,0-.42-.13L85.78,75a.3.3,0,1,0,.28.54"/><line class="cls-5" x1="75.37" y1="76.64" x2="67.01" y2="74.97"/><path class="cls-9" d="M75.43,76.34l-8.36-1.67a.31.31,0,0,0-.36.24.3.3,0,0,0,.24.36l8.36,1.67a.3.3,0,0,0,.36-.24.32.32,0,0,0-.24-.36"/><line class="cls-5" x1="75.98" y1="75.23" x2="67.86" y2="70.99"/><path class="cls-9" d="M76.12,75,68,70.72a.31.31,0,1,0-.29.55l8.12,4.23a.3.3,0,0,0,.28-.54"/><path class="cls-5" d="M83.4,73.79h-6a.9.9,0,0,1,0-1.79h6a.9.9,0,0,1,0,1.79Z"/><path class="cls-2" d="M95.84,87.88H103a.8.8,0,0,1,.8.8v.82a4.4,4.4,0,0,1-8.8,0v-.82A.8.8,0,0,1,95.84,87.88Z"/><path class="cls-2" d="M78,110H70.8a.8.8,0,0,1-.8-.79v-.82a4.4,4.4,0,1,1,8.8,0v.82A.8.8,0,0,1,78,110Z"/><path class="cls-2" d="M90.6,110H83.4a.8.8,0,0,1-.8-.79v-.82a4.4,4.4,0,0,1,8.8,0v.82A.8.8,0,0,1,90.6,110Z"/><path class="cls-5" d="M82.17,61.17a1.59,1.59,0,1,1-1.59-1.59A1.59,1.59,0,0,1,82.17,61.17Z"/><path class="cls-5" d="M80.25,62.07a1.59,1.59,0,1,1-1.58-1.58A1.58,1.58,0,0,1,80.25,62.07Z"/><path class="cls-5" d="M84.05,62.07a1.58,1.58,0,1,1-1.58-1.58A1.58,1.58,0,0,1,84.05,62.07Z"/><path class="cls-9" d="M81.21,77.15H80a1.16,1.16,0,0,1-1.14-1L78.61,75a1.16,1.16,0,0,1,1.14-1.36h1.67A1.16,1.16,0,0,1,82.56,75l-.2,1.21A1.16,1.16,0,0,1,81.21,77.15Z"/><rect class="cls-10" x="93.58" y="77.43" width="13.32" height="9.63" rx="0.96" ry="0.96"/><rect class="cls-11" x="103.66" y="77.43" width="5.64" height="9.63" rx="1.13" ry="1.13"/><path class="cls-6" d="M101,74.9a1.75,1.75,0,1,1,1.53,1.94A1.75,1.75,0,0,1,101,74.9Z"/><path class="cls-9" d="M103,73.72s0-.1,0-.28a3.25,3.25,0,0,1,1.46-2.21l0-.16-.15,0a3.63,3.63,0,0,0-1.63,2.67l.1.13.12-.11Z"/><path class="cls-10" d="M102.48,74.82a.79.79,0,1,1,1.57.18.79.79,0,0,1-.87.7A.8.8,0,0,1,102.48,74.82Z"/><rect class="cls-12" x="92.48" y="87.09" width="17.86" height="0.78" rx="0.37" ry="0.37"/><path class="cls-4" d="M110.3,87.87h-5.87a.39.39,0,0,1,0-.78h5.87a.39.39,0,0,1,0,.78Z"/><path class="cls-13" d="M102.28,81.38H95.1a.81.81,0,0,1,0-1.62h7.18a.81.81,0,0,1,0,1.62Z"/><path class="cls-13" d="M102.28,83.92H95.1a.81.81,0,0,1,0-1.62h7.18a.81.81,0,0,1,0,1.62Z"/><path class="cls-13" d="M102.28,86.46H95.1a.81.81,0,0,1,0-1.62h7.18a.81.81,0,0,1,0,1.62Z"/><path class="cls-14" d="M85.73,62.64,68.34,64.91a1.15,1.15,0,0,1-1.29-1L65.5,52l19.66-2.57,1.56,11.91A1.15,1.15,0,0,1,85.73,62.64Z"/><path class="cls-6" d="M80.69,63.3,68.18,64.93a1,1,0,0,1-1.11-.85L65.5,52,80,50.12l1.58,12.07A1,1,0,0,1,80.69,63.3Z"/><path class="cls-14" d="M70.06,63.4h0a.61.61,0,0,1-.69-.53l-.92-7a.62.62,0,0,1,.53-.69h0a.6.6,0,0,1,.68.52l.92,7A.6.6,0,0,1,70.06,63.4Z"/><path class="cls-14" d="M74.64,62.8h0a.62.62,0,0,1-.69-.53l-.92-7a.62.62,0,0,1,.53-.69h0a.6.6,0,0,1,.68.52l.92,7A.6.6,0,0,1,74.64,62.8Z"/><path class="cls-14" d="M79.22,62.21h0a.61.61,0,0,1-.69-.52l-.92-7a.61.61,0,0,1,.53-.68h0a.61.61,0,0,1,.68.53l.92,7A.61.61,0,0,1,79.22,62.21Z"/><path class="cls-15" d="M83.8,61.61h0a.61.61,0,0,1-.69-.52L82.14,54a.61.61,0,0,1,.53-.68h0a.61.61,0,0,1,.68.53l.92,7A.61.61,0,0,1,83.8,61.61Z"/><path class="cls-6" d="M63,50.54A4.07,4.07,0,1,1,67.59,54,4.07,4.07,0,0,1,63,50.54Z"/><path class="cls-6" d="M78.79,48.48A4.07,4.07,0,1,1,83.35,52,4.07,4.07,0,0,1,78.79,48.48Z"/><path class="cls-6" d="M68.83,48.77A6,6,0,1,1,75.6,54,6,6,0,0,1,68.83,48.77Z"/><path class="cls-16" d="M108.7,78.64H94.12a.87.87,0,1,1,0-1.73H108.7a.87.87,0,0,1,0,1.73Z"/><path class="cls-16" d="M94.89,81.74h0a.65.65,0,0,1-.64-.65V77.9a.65.65,0,1,1,1.29,0v3.19A.65.65,0,0,1,94.89,81.74Z"/><path class="cls-16" d="M99.81,84.33h0a.65.65,0,0,1-.65-.65V77.9a.65.65,0,0,1,1.3,0v5.78A.65.65,0,0,1,99.81,84.33Z"/><path class="cls-16" d="M101.58,81.14h0a.45.45,0,0,1-.45-.45v-3a.45.45,0,0,1,.9,0v3A.45.45,0,0,1,101.58,81.14Z"/><path class="cls-16" d="M107.36,82h0a.86.86,0,0,1-.86-.86v-3a.87.87,0,1,1,1.73,0v3A.87.87,0,0,1,107.36,82Z"/><g class="cls-17"><path class="cls-12" d="M73.9,116.69A6.74,6.74,0,0,1,67.18,110V99A13.41,13.41,0,0,1,94,99v11a6.75,6.75,0,0,1-6.72,6.72"/></g></svg>