<svg id="Layer_1" data-name="Layer 1" xmlns="http://www.w3.org/2000/svg" viewBox="0 0 160 160"><defs><style>.cls-1{fill:#efefef;}.cls-2{fill:#fd4a46;}.cls-3{fill:#620e00;}.cls-4{fill:#b76444;}.cls-5{fill:#a65034;}.cls-6{fill:#ffeea4;}.cls-7{fill:#ffd31e;}.cls-8{fill:#dd3e3e;}.cls-9{fill:#330600;}.cls-10{fill:#d1866f;}</style></defs><title>Artboard 51_1</title><path class="cls-1" d="M58,109.23c0-1.79,9.81-3.24,21.9-3.24s21.9,1.45,21.9,3.24-9.8,3.25-21.9,3.25S58,111,58,109.23"/><path class="cls-2" d="M105.75,72.51a1.44,1.44,0,0,0-1-2.29h-.12A1.64,1.64,0,0,0,103,71.81h0a1.64,1.64,0,0,0-1.65-1.59h-.11a1.44,1.44,0,0,0-1,2.29L103,76.39Z"/><path class="cls-2" d="M107.26,63.69a.9.9,0,0,0-.64-1.43h-.07a1,1,0,0,0-1,1h0a1,1,0,0,0-1-1h-.06a.9.9,0,0,0-.65,1.43l1.74,2.41Z"/><path class="cls-3" d="M93.7,80.8s5.79,9.49-1.22,28.35H88.21a1.88,1.88,0,0,1-1.89-1.9l.31-26,7.07-.48"/><path class="cls-3" d="M94.24,109.15H88.58a1.88,1.88,0,0,1-1.76-2.56,4.76,4.76,0,0,1,9.15,0A1.85,1.85,0,0,1,94.24,109.15Z"/><path class="cls-4" d="M95,84.29a22.38,22.38,0,0,1-.65,5.17c-1.63,6.62-6,11.91-9.45,15.25a37.89,37.89,0,0,1-4.75,3.94l-3.14,0-5.45,0-3.19,0-4.77,0H60.93a.47.47,0,0,1-.28-.11c-1.51-1.16-2.58-11.54,2.12-21.75.32-.71.66-1.4,1-2.08a35.28,35.28,0,0,1,10.12-12c4.14-3,8.39-4.23,11.71-3.35,2.85.76,5.32,3.15,7,6.14A17.84,17.84,0,0,1,95,84.29"/><path class="cls-5" d="M88.52,86a14.37,14.37,0,0,0-7.21,2.44c-8.89,5.31-12.37,17.95-13,20.36l3.19,0,5.45,0,3.14,0a37.89,37.89,0,0,0,4.75-3.94c3.46-3.34,7.82-8.63,9.45-15.25A6.42,6.42,0,0,0,88.52,86"/><path class="cls-3" d="M71.12,108.82H63.58c.06-2.84,2-5.11,4.33-5.11a4.58,4.58,0,0,1,4.19,3.91A1,1,0,0,1,71.12,108.82Z"/><path class="cls-4" d="M94.38,84.56c1.07,0,1.94.52,1.94,1.19S95.47,87,94.41,87s-1.94-.52-2-1.19S93.32,84.57,94.38,84.56Z"/><path class="cls-4" d="M94.36,82.46c1.06,0,1.93.52,1.94,1.19s-.85,1.23-1.92,1.24-1.93-.52-1.94-1.19S93.29,82.47,94.36,82.46Z"/><path class="cls-4" d="M94.34,80.32c1.07,0,1.94.52,1.94,1.19s-.85,1.23-1.91,1.24-1.94-.53-2-1.2S93.27,80.33,94.34,80.32Z"/><path class="cls-4" d="M63.48,95.32S61,92,56.5,78.47v-.13c-.17-1.29-1-2.24-1.77-2.13s-1.32,1.23-1.15,2.52a3.71,3.71,0,0,0,.19.78,1.33,1.33,0,0,0-1.41,0c-.63.49-.51,1.7.27,2.71a1.09,1.09,0,0,0-.66.3c-.57.57-.29,1.78.63,2.69l.28.25a1.19,1.19,0,0,0-.91.3c-.54.55-.31,1.67.51,2.57a1,1,0,0,0-.51.27c-.57.58-.29,1.78.63,2.7l0,0a2.36,2.36,0,0,0-.14,2.56,3.08,3.08,0,0,0,1.11,1.38,2.87,2.87,0,0,0,.19,2,2.47,2.47,0,0,0,1.85,1.64,4.08,4.08,0,0,0,.23.7c.52,1.19,1.54,1.88,2.29,1.56l.11-.06a3.63,3.63,0,0,0,.2.58c.52,1.19,1.54,1.88,2.29,1.56a1.1,1.1,0,0,0,.51-.51c.26.16.52.31.8.46Z"/><path class="cls-3" d="M74.28,96.8a12,12,0,0,1-10.7,12l-.66,0-.65,0h-.43a9.39,9.39,0,0,1-1.19-.1c-1.51-1.16-2.58-11.54,2.12-21.75.32-.71.67-1.4,1-2.08A12,12,0,0,1,74.28,96.8Z"/><path class="cls-3" d="M83.6,91.62c.74,3.55,1.09,9.66-2,17.53H77.36a1.88,1.88,0,0,1-1.89-1.9V92.48a4.11,4.11,0,0,1,8.14-.86Z"/><path class="cls-3" d="M83.39,109.15H77.73A1.87,1.87,0,0,1,76,106.59a4.75,4.75,0,0,1,9.14,0A1.85,1.85,0,0,1,83.39,109.15Z"/><path class="cls-4" d="M77.3,89.74c1,1.42,1,3.06.16,3.67s-2.41,0-3.38-1.45-1-3.06-.15-3.68S76.33,88.32,77.3,89.74Z"/><path class="cls-4" d="M80.09,87.82c1,1.42,1,3.06.15,3.68s-2.4,0-3.38-1.46-1-3.06-.15-3.67S79.11,86.41,80.09,87.82Z"/><path class="cls-4" d="M82.94,85.87c1,1.42,1,3.06.15,3.68s-2.4,0-3.38-1.46-1-3.06-.15-3.67S82,84.46,82.94,85.87Z"/><ellipse class="cls-6" cx="88.71" cy="78.19" rx="1.58" ry="1.93"/><path class="cls-7" d="M90.28,78.15c0,1-.58,1.89-1.3,1.89s-1.31-.85-1.31-1.89.58-1.89,1.31-1.89S90.28,77.11,90.28,78.15Z"/><path class="cls-8" d="M92.54,73.31v2.21c-11.43,3.78-19.16-2.14-19.16-2.14l.23-1.33.22-1.23A22.74,22.74,0,0,0,92.54,73.31Z"/><path class="cls-7" d="M88.88,77.08l-.13,0a.41.41,0,0,1-.26-.51,2.65,2.65,0,0,0-.17-2.16.41.41,0,0,1,.62-.54c.92,1.07.35,2.87.33,3A.42.42,0,0,1,88.88,77.08Z"/><path class="cls-3" d="M103.43,49.87,99.49,56.7a2.94,2.94,0,0,1-5.08,0l-1.33-2.3-2.61-4.53A2.93,2.93,0,0,1,93,45.48h7.88A2.93,2.93,0,0,1,103.43,49.87Z"/><path class="cls-9" d="M94.82,51.38l-1.74,3-2.61-4.53a2.9,2.9,0,0,1,0-2.88h1.83A2.93,2.93,0,0,1,94.82,51.38Z"/><path class="cls-4" d="M85.79,74.61h0c-7.94,0-14.71-2.83-14.71-10.08V58.82c0-5.89,5.23-10.65,11.67-10.65h4c7,0,12.68,5.18,12.68,11.57v5.2C99.39,72,93.49,74.61,85.79,74.61Z"/><path class="cls-9" d="M81.6,55a5.6,5.6,0,0,1-2.9,1.28l.1-.17,3.94-6.82a2.53,2.53,0,0,0,.27-.61C83.34,51,83.24,53.66,81.6,55Z"/><path class="cls-3" d="M69,47.24l6.25,10.83a1.59,1.59,0,0,0,2.76,0l6.25-10.83a1.59,1.59,0,0,0-1.38-2.39H70.35A1.59,1.59,0,0,0,69,47.24Z"/><path class="cls-4" d="M71.18,62c1.17-.07,2.16.48,2.2,1.22s-.88,1.39-2.06,1.46-2.16-.49-2.2-1.23S70,62.06,71.18,62Z"/><path class="cls-4" d="M71.05,59.68c1.18-.06,2.16.49,2.2,1.23s-.88,1.39-2,1.45S69,61.88,69,61.14,69.87,59.75,71.05,59.68Z"/><path class="cls-4" d="M70.93,57.32c1.18-.06,2.16.48,2.2,1.22s-.88,1.39-2.06,1.46-2.16-.49-2.2-1.23S69.75,57.38,70.93,57.32Z"/><path class="cls-4" d="M99.22,61.86c1.07,0,1.94.52,1.94,1.19s-.85,1.22-1.91,1.24-1.94-.53-2-1.2S98.16,61.87,99.22,61.86Z"/><path class="cls-4" d="M99.2,59.76c1.06,0,1.93.53,1.94,1.2s-.85,1.22-1.92,1.23-1.93-.52-1.94-1.19S98.13,59.77,99.2,59.76Z"/><path class="cls-4" d="M99.18,57.62c1.07,0,1.94.52,1.94,1.19s-.85,1.23-1.91,1.24-1.94-.52-1.95-1.19S98.11,57.63,99.18,57.62Z"/><ellipse class="cls-10" cx="89.33" cy="67.57" rx="7.27" ry="5.06"/><path class="cls-10" d="M89.57,60.24c0,1.94-2.17,3.51-4.84,3.51s-4.84-1.57-4.84-3.51,2.16-3.5,4.84-3.5S89.57,58.3,89.57,60.24Z"/><circle class="cls-3" cx="87.45" cy="61.53" r="1.15"/><circle class="cls-3" cx="91.46" cy="61.53" r="1.15"/><path class="cls-2" d="M91.4,69.77v.65a1.5,1.5,0,0,1-3,0v-.71a2.78,2.78,0,0,0,1.43-2.13h0A2.81,2.81,0,0,0,91.4,69.77Z"/><path class="cls-3" d="M93.07,66.13c0,1.17-1.34,2.12-3,2.12s-3-1-3-2.12,1.34-2.11,3-2.11S93.07,65,93.07,66.13Z"/><path class="cls-3" d="M84.12,67.61a3.13,3.13,0,0,0,3.1,2.78,3,3,0,0,0,1.5-.39,3.08,3.08,0,0,0,1.6-2.38,2.1,2.1,0,0,0,0-.36.33.33,0,0,0-.33-.33.33.33,0,0,0-.33.33,2.83,2.83,0,0,1,0,.29,2.48,2.48,0,0,1-1.26,1.88,2.53,2.53,0,0,1-1.19.3,2.48,2.48,0,0,1-2.45-2.19.33.33,0,0,0-.65.07Z"/><path class="cls-3" d="M89.69,67.26c0,.12,0,.25,0,.37l.33,0-.33,0a3.13,3.13,0,0,0,1.71,2.44,3.09,3.09,0,0,0,1.39.33,3.13,3.13,0,0,0,3.12-3.13.33.33,0,1,0-.66,0,2.46,2.46,0,0,1-2.46,2.47,2.41,2.41,0,0,1-1.1-.26,2.47,2.47,0,0,1-1.35-1.92h0a2.53,2.53,0,0,1,0-.28.33.33,0,0,0-.33-.33.33.33,0,0,0-.33.33Z"/><path class="cls-2" d="M111.87,69.3a.9.9,0,0,0-.65-1.43h-.06a1,1,0,0,0-1,1h0a1,1,0,0,0-1-1H109a.9.9,0,0,0-.65,1.43l1.74,2.4Z"/></svg>