<svg id="Layer_1" data-name="Layer 1" xmlns="http://www.w3.org/2000/svg" viewBox="0 0 160 160"><defs><style>.cls-1{fill:#ffd31e;}</style></defs><title>Artboard 51</title><path class="cls-1" d="M52.91,96a20.75,20.75,0,0,1-8.24-7.76,22.67,22.67,0,0,1,0-22.54A20.75,20.75,0,0,1,52.91,58a24.79,24.79,0,0,1,11.84-2.79,25.42,25.42,0,0,1,10.37,2,20.09,20.09,0,0,1,7.67,5.87l-7.56,6.84A12.4,12.4,0,0,0,65.34,65a12.21,12.21,0,0,0-6.08,1.5,10.41,10.41,0,0,0-4.14,4.23,14.15,14.15,0,0,0,0,12.52,10.41,10.41,0,0,0,4.14,4.23A12.21,12.21,0,0,0,65.34,89a12.4,12.4,0,0,0,9.89-4.92l7.56,6.84a20.09,20.09,0,0,1-7.67,5.87,25.42,25.42,0,0,1-10.37,2A24.79,24.79,0,0,1,52.91,96Z"/><path class="cls-1" d="M93.46,96.37a15.93,15.93,0,0,1-9-14.68,15.76,15.76,0,0,1,9-14.6A21.23,21.23,0,0,1,103.11,65a18.44,18.44,0,0,1,9.53,2.37,13.17,13.17,0,0,1,5.69,6.56l-8.81,4.5Q107.3,74,103.05,74a6.82,6.82,0,0,0-5.07,2,7.69,7.69,0,0,0-2,5.64,7.87,7.87,0,0,0,2,5.72,6.77,6.77,0,0,0,5.07,2.07q4.24,0,6.47-4.38l8.81,4.5a13.17,13.17,0,0,1-5.69,6.56,18.44,18.44,0,0,1-9.53,2.37A21,21,0,0,1,93.46,96.37Z"/></svg>