<svg id="Layer_1" data-name="Layer 1" xmlns="http://www.w3.org/2000/svg" viewBox="0 0 160 160"><defs><style>.cls-1{fill:#ffd31e;}</style></defs><title>Artboard 52</title><path class="cls-1" d="M38.25,56.33H58.09a27.76,27.76,0,0,1,12.23,2.58,19.39,19.39,0,0,1,8.27,7.31,20.61,20.61,0,0,1,2.94,11.09A20.59,20.59,0,0,1,78.59,88.4a19.39,19.39,0,0,1-8.27,7.31,27.76,27.76,0,0,1-12.23,2.58H38.25ZM57.61,88.82a12.13,12.13,0,0,0,8.66-3.06c2.18-2,3.27-4.85,3.27-8.45s-1.09-6.41-3.27-8.45a12.13,12.13,0,0,0-8.66-3.06H50.12v23Z"/><path class="cls-1" d="M121.75,53.81V98.29H110.9V95.05q-3.18,3.78-9.53,3.78a16.1,16.1,0,0,1-8.09-2.07,15,15,0,0,1-5.79-5.9,19.49,19.49,0,0,1,0-17.72,14.85,14.85,0,0,1,5.79-5.84,16.29,16.29,0,0,1,8.09-2q5.8,0,9,3.36V53.81Zm-13.13,33.9A8.09,8.09,0,0,0,110.54,82a8,8,0,0,0-1.89-5.64,6.36,6.36,0,0,0-4.88-2,6.46,6.46,0,0,0-4.92,2A7.9,7.9,0,0,0,96.93,82a8.09,8.09,0,0,0,1.92,5.72,6.41,6.41,0,0,0,4.92,2.07A6.34,6.34,0,0,0,108.62,87.71Z"/></svg>