<svg id="Layer_1" data-name="Layer 1" xmlns="http://www.w3.org/2000/svg" xmlns:xlink="http://www.w3.org/1999/xlink" viewBox="0 0 160 160"><defs><style>.cls-1{fill:none;}.cls-2{fill:#6d95b2;}.cls-3{fill:#efefef;}.cls-4{fill:#b6c5ce;}.cls-5{fill:#fff;}.cls-6{fill:#620e00;}.cls-7{clip-path:url(#clip-path);}.cls-8{fill:#ff66a1;}.cls-9{fill:#ffefbb;}.cls-10{fill:#ff7b7b;}.cls-11{fill:#ff9255;}.cls-12{fill:#ff88b9;}.cls-13{fill:#d7d7d7;}.cls-14{fill:#cfcfcf;}</style><clipPath id="clip-path"><path class="cls-1" d="M85.38,68.27a.61.61,0,0,1,.71.85,3.76,3.76,0,0,1-5.72,1.44.6.6,0,0,1,.24-1.06l4.77-1.23"/></clipPath></defs><title>Artboard 53</title><path class="cls-2" d="M103.69,89.68H92.44a6.74,6.74,0,0,1-6.74-6.74V59.47a6.75,6.75,0,0,1,6.74-6.75,23.05,23.05,0,0,1,23,23v2.11A11.8,11.8,0,0,1,103.69,89.68Z"/><path class="cls-2" d="M56.31,89.68H67.56a6.74,6.74,0,0,0,6.74-6.74V59.47a6.75,6.75,0,0,0-6.74-6.75,23.05,23.05,0,0,0-23.05,23v2.11A11.8,11.8,0,0,0,56.31,89.68Z"/><path class="cls-3" d="M57.39,109.11c0-1.87,10.19-3.38,22.75-3.38s22.74,1.51,22.74,3.38-10.18,3.37-22.74,3.37S57.39,111,57.39,109.11"/><path class="cls-4" d="M52.81,71.13a12.28,12.28,0,0,0,.39,2,15.79,15.79,0,0,0,1.09,2.82,13.88,13.88,0,0,0,1.61,2.48,12.37,12.37,0,0,0,4.2,3.34,14.09,14.09,0,0,0,6.28,1.37h.35a4.61,4.61,0,1,0-.18-9.21h-.17a4.63,4.63,0,0,1-2.48-.57,3.55,3.55,0,0,1-.93-.84,5.26,5.26,0,0,1-.83-1.68,5,5,0,0,1-.15-.59l0-.11h0l-2.36.31L62,70.19v-.07l-2.36.31L62,70.19a4.61,4.61,0,0,0-9.17.94Z"/><path class="cls-4" d="M98.71,70.38l2,.12-2-.19v.07l2,.12-2-.19a5.64,5.64,0,0,1-.16.77,5.21,5.21,0,0,1-.41,1,3.94,3.94,0,0,1-.46.69,2.87,2.87,0,0,1-1,.73,5,5,0,0,1-2.08.38h-.17a4.61,4.61,0,1,0-.18,9.21h.35a14.52,14.52,0,0,0,3.92-.49,12.23,12.23,0,0,0,5.25-2.92,12.54,12.54,0,0,0,2.29-3,14.49,14.49,0,0,0,1.49-3.87,12.36,12.36,0,0,0,.31-2,4.61,4.61,0,1,0-9.2-.57Z"/><path class="cls-4" d="M93.39,108.76H66.64a7.93,7.93,0,0,1-7.82-9.22l5.26-31.85a16.15,16.15,0,0,1,31.87,0l5.27,31.85a7.93,7.93,0,0,1-7.83,9.22"/><path class="cls-5" d="M84.24,62.75a1.64,1.64,0,1,1,1.63,1.63A1.63,1.63,0,0,1,84.24,62.75Z"/><path class="cls-6" d="M84.59,62.33a1,1,0,1,1,1,1A1,1,0,0,1,84.59,62.33Z"/><path class="cls-5" d="M72.55,62.75a1.63,1.63,0,1,1,1.63,1.63A1.63,1.63,0,0,1,72.55,62.75Z"/><path class="cls-6" d="M73.42,62.33a1,1,0,1,1,1,1A1,1,0,0,1,73.42,62.33Z"/><path class="cls-4" d="M73.5,55a2.29,2.29,0,1,1,2.29,2.29A2.29,2.29,0,0,1,73.5,55Z"/><path class="cls-4" d="M77.73,55A2.29,2.29,0,1,1,80,57.26,2.28,2.28,0,0,1,77.73,55Z"/><path class="cls-4" d="M82,55a2.29,2.29,0,1,1,2.29,2.29A2.29,2.29,0,0,1,82,55Z"/><path class="cls-6" d="M85.38,68.27a.61.61,0,0,1,.71.85,3.76,3.76,0,0,1-5.72,1.44.6.6,0,0,1,.24-1.06Z"/><g class="cls-7"><path class="cls-5" d="M83.51,69.56l.64-.17a.23.23,0,0,0,.17-.28L84,67.94l-1.09.28.3,1.17A.24.24,0,0,0,83.51,69.56Z"/><path class="cls-5" d="M82.19,69.9l.63-.17a.22.22,0,0,0,.17-.28l-.3-1.17-1.09.28.3,1.17A.24.24,0,0,0,82.19,69.9Z"/><path class="cls-8" d="M83.83,71.34a1.08,1.08,0,1,1,1.31.77A1.08,1.08,0,0,1,83.83,71.34Z"/></g><path class="cls-2" d="M75.86,63.62a24.85,24.85,0,0,1-2.37,7.62,23.51,23.51,0,0,1-5.16,6.85,19,19,0,0,1-1.94,1.56c-.23.17-.41.28-.51.34l-.1.06h0l.87,1.5L65.8,80l0,0,.87,1.5L65.8,80a4.2,4.2,0,0,0,4.09,7.34A27.05,27.05,0,0,0,76.3,82,32.15,32.15,0,0,0,81,75a33.58,33.58,0,0,0,3.16-10.14,4.2,4.2,0,0,0-8.31-1.23Z"/><path class="cls-9" d="M99.2,64.14c-1.36-1.62-2.42-5.55-.8-6.91s5.3.37,6.66,2a3.83,3.83,0,1,1-5.86,4.93Z"/><path class="cls-10" d="M60.59,47.71c1.68-1.29,5.65-2.18,6.94-.51s-.6,5.29-2.28,6.57a3.82,3.82,0,0,1-4.66-6.06Z"/><path class="cls-11" d="M81.7,44.33c-.34-2.09.76-6,2.84-6.35s4.37,3,4.71,5.12a3.82,3.82,0,0,1-7.55,1.23Z"/><path class="cls-12" d="M71.64,67.75h-2.3a1.19,1.19,0,0,1,0-2.38h2.3a1.19,1.19,0,0,1,0,2.38Z"/><path class="cls-12" d="M91.27,67.75H89a1.19,1.19,0,0,1,0-2.38h2.3a1.19,1.19,0,0,1,0,2.38Z"/><path class="cls-3" d="M91.41,96.32a11.8,11.8,0,1,0-23.59,0A10.88,10.88,0,0,0,78.7,107.2h1.83A10.88,10.88,0,0,0,91.41,96.32"/><path class="cls-13" d="M60,92.68a3.59,3.59,0,0,0-.62.88,3.26,3.26,0,0,0-4.24,3.09v4.84A7.2,7.2,0,0,0,59,107.87a19.4,19.4,0,0,1,2.82-.76,7.91,7.91,0,0,1-3-7.57L60,92.68"/><path class="cls-14" d="M61.79,107.11a19.4,19.4,0,0,0-2.82.76,7.27,7.27,0,0,0,5.28.53,8.15,8.15,0,0,1-2.46-1.29"/><path class="cls-2" d="M62.26,91.71a3.23,3.23,0,0,0-2.31,1l-1.13,6.86a7.91,7.91,0,0,0,3,7.57,8.15,8.15,0,0,0,2.46,1.29A7.19,7.19,0,0,0,69.44,102a10.81,10.81,0,0,1-1.62-5.72A11.88,11.88,0,0,1,68.05,94a3.23,3.23,0,0,0-1.86-.58,3.32,3.32,0,0,0-1,.15,3.24,3.24,0,0,0-2.93-1.85"/><path class="cls-14" d="M68.05,94a11.88,11.88,0,0,0-.23,2.33A10.81,10.81,0,0,0,69.44,102a5.07,5.07,0,0,0,0-.55v-3.2a2.85,2.85,0,0,0,0-.41V96.65A3.24,3.24,0,0,0,68.05,94"/><path class="cls-13" d="M100.79,93.41a3.68,3.68,0,0,0-.58,0l1,6.08a7.92,7.92,0,0,1-2.93,7.53c.89.18,1.66.36,2.32.56a7.19,7.19,0,0,0,3.46-6.14v-3.2a2.83,2.83,0,0,0,0-.41V96.65a3.25,3.25,0,0,0-3.25-3.24"/><path class="cls-14" d="M98.29,107.07a7.72,7.72,0,0,1-2.91,1.44,6.76,6.76,0,0,0,1.5.16,7.19,7.19,0,0,0,3.73-1c-.66-.2-1.43-.38-2.32-.56"/><path class="cls-2" d="M96.87,91.71a3.24,3.24,0,0,0-2.93,1.85,3.32,3.32,0,0,0-1-.15,3.25,3.25,0,0,0-1.77.52,11.74,11.74,0,0,1,.24,2.39,10.88,10.88,0,0,1-1.68,5.82,7.17,7.17,0,0,0,5.65,6.37,7.72,7.72,0,0,0,2.91-1.44,7.92,7.92,0,0,0,2.93-7.53l-1-6.08-.41.1a3.26,3.26,0,0,0-2.93-1.85"/><path class="cls-14" d="M91.17,93.93a3.23,3.23,0,0,0-1.47,2.72v4.84c0,.22,0,.43,0,.65a10.88,10.88,0,0,0,1.68-5.82,11.74,11.74,0,0,0-.24-2.39"/><path class="cls-4" d="M59.94,108.67h0a7.18,7.18,0,0,1-7.18-7.18v-3.2a2.56,2.56,0,0,1,2.56-2.56h9.24a2.57,2.57,0,0,1,2.57,2.56v3.2A7.19,7.19,0,0,1,59.94,108.67Z"/><path class="cls-4" d="M56,101.44h0a3.24,3.24,0,0,1-3.24-3.24V96.65a3.24,3.24,0,1,1,6.48,0V98.2A3.24,3.24,0,0,1,56,101.44Z"/><path class="cls-4" d="M63.85,101.44h0a3.24,3.24,0,0,1-3.24-3.24V96.65a3.24,3.24,0,1,1,6.48,0V98.2A3.24,3.24,0,0,1,63.85,101.44Z"/><path class="cls-4" d="M59.92,99.75h0a3.25,3.25,0,0,1-3.24-3.25V95a3.25,3.25,0,0,1,6.49,0V96.5A3.26,3.26,0,0,1,59.92,99.75Z"/><path class="cls-12" d="M54.54,96.53A1.43,1.43,0,1,1,56,98,1.43,1.43,0,0,1,54.54,96.53Z"/><path class="cls-12" d="M58.47,95.1a1.43,1.43,0,1,1,1.43,1.43A1.43,1.43,0,0,1,58.47,95.1Z"/><path class="cls-12" d="M55.92,102.2a4,4,0,1,1,4,4A4,4,0,0,1,55.92,102.2Z"/><path class="cls-12" d="M62.75,96.53A1.43,1.43,0,1,1,64.18,98,1.43,1.43,0,0,1,62.75,96.53Z"/><path class="cls-4" d="M99.29,108.67h0a7.19,7.19,0,0,1-7.19-7.18v-3.2a2.57,2.57,0,0,1,2.57-2.56h9.24a2.57,2.57,0,0,1,2.57,2.56v3.2A7.19,7.19,0,0,1,99.29,108.67Z"/><path class="cls-4" d="M95.35,101.44h0A3.24,3.24,0,0,1,92.1,98.2V96.65a3.25,3.25,0,0,1,6.49,0V98.2A3.24,3.24,0,0,1,95.35,101.44Z"/><path class="cls-4" d="M103.2,101.44h0A3.24,3.24,0,0,1,100,98.2V96.65a3.24,3.24,0,1,1,6.48,0V98.2A3.24,3.24,0,0,1,103.2,101.44Z"/><path class="cls-4" d="M99.27,99.75h0A3.25,3.25,0,0,1,96,96.5V95a3.24,3.24,0,0,1,6.48,0V96.5A3.25,3.25,0,0,1,99.27,99.75Z"/><path class="cls-12" d="M93.89,96.53A1.43,1.43,0,1,1,95.32,98,1.43,1.43,0,0,1,93.89,96.53Z"/><path class="cls-12" d="M97.82,95.1a1.43,1.43,0,1,1,1.42,1.43A1.43,1.43,0,0,1,97.82,95.1Z"/><path class="cls-12" d="M95.27,102.2a4,4,0,1,1,4,4A4,4,0,0,1,95.27,102.2Z"/><path class="cls-12" d="M102.1,96.53A1.43,1.43,0,1,1,103.53,98,1.43,1.43,0,0,1,102.1,96.53Z"/><path class="cls-12" d="M64.52,83.69a1.57,1.57,0,1,1,1.56,1.57A1.56,1.56,0,0,1,64.52,83.69Z"/></svg>