<svg id="Layer_1" data-name="Layer 1" xmlns="http://www.w3.org/2000/svg" viewBox="0 0 160 160"><defs><style>.cls-1{fill:#ffd31e;}</style></defs><title>Artboard 54</title><polygon class="cls-1" points="77.27 89.12 77.27 98.29 43.59 98.29 43.59 56.33 76.49 56.33 76.49 65.5 55.34 65.5 55.34 72.57 73.98 72.57 73.98 81.45 55.34 81.45 55.34 89.12 77.27 89.12"/><path class="cls-1" d="M116.23,84.92H92.62a6.64,6.64,0,0,0,2.78,3.87,9.32,9.32,0,0,0,5.19,1.35,11.14,11.14,0,0,0,4-.66,12,12,0,0,0,3.45-2.16l6,6.23q-4.74,5.28-13.85,5.28a22.08,22.08,0,0,1-10-2.16,15.89,15.89,0,0,1-9-14.68,16.28,16.28,0,0,1,2.31-8.61,16.09,16.09,0,0,1,6.38-6,20.43,20.43,0,0,1,18-.15,15.33,15.33,0,0,1,6.27,5.81,17.17,17.17,0,0,1,2.3,9C116.41,82.19,116.35,83.12,116.23,84.92ZM94.69,74.85a6.77,6.77,0,0,0-2.25,4.08h13.3a6.81,6.81,0,0,0-2.24-4.08,7.22,7.22,0,0,0-8.81,0Z"/></svg>