<svg id="Layer_1" data-name="Layer 1" xmlns="http://www.w3.org/2000/svg" viewBox="0 0 160 160"><defs><style>.cls-1{fill:#ffd31e;}.cls-2{fill:#ea6e1b;}.cls-3{fill:#f47e2f;}.cls-4{fill:#ffefbb;}.cls-5{fill:#dd6524;}.cls-6{fill:#e7bf8e;}.cls-7{fill:#e3e3e3;}.cls-8{fill:#620e00;}.cls-9{fill:#ff9255;}.cls-10{fill:#480800;}.cls-11{fill:#b76444;}.cls-12{fill:#dd3e3e;}.cls-13{fill:#d45814;}.cls-14{fill:#e7ccc1;}.cls-15{fill:#c9511b;}.cls-16{fill:#ceb5ac;}.cls-17{fill:#d6ecfc;}.cls-18{fill:#b4daf9;}</style></defs><title>Artboard 55</title><path class="cls-1" d="M111.19,107.38s-4.5-2.54-3.56-11.56c.78-7.48,5.48-21.52,8.28-15.84s6.32,21.25.39,27.34Z"/><path class="cls-2" d="M81,79.59s7.78,17.53,17.88,2.86l-2.08-4.28s-7.32,9.26-10-3.44C86.84,74.73,80.23,74,81,79.59Z"/><path class="cls-3" d="M64.21,98a12.68,12.68,0,0,1-2.49,1.16,11.54,11.54,0,0,1-1.17.35c-.24.06-.49.11-.74.15a10.57,10.57,0,0,1-1.29.16c-3.24.16-7.11-1.24-9.51-7.63-2.47-6.57-1.13-10.6-1.43-15.33,0-.46-.07-.94-.14-1.42a18,18,0,0,0-.86-3.5l0-.1A8.68,8.68,0,0,0,45,69.07l-.24-.25c-2.11-2.14-5-2-7.19-1.92a16.26,16.26,0,0,1-1.94,0,.66.66,0,0,1-.53-.46c-1.21-2.84,4.11-17.83,16.82-14.53a12,12,0,0,1,4,1.78,12.14,12.14,0,0,1,4.66,7.62c0,.13,0,.26.08.39s.08.43.11.65.07.46.1.68a30.28,30.28,0,0,1,.07,6.53c0,.52-.1,1-.17,1.54A63.21,63.21,0,0,1,58,82.67C56,88.83,56.27,93,59.62,95h0a9.7,9.7,0,0,0,3.11,1.14l.31,0L64.21,98"/><path class="cls-4" d="M60.79,63.06l-.35.22-3.22,1.28,0,0-1.2,1L55.5,66l-2.29,1.92-.1.08-.79.66-.9.75-.1.09-.5.42h0L49.48,71l-.59.5-.5.41-1.84-.1A8.68,8.68,0,0,0,45,69.07l-.24-.25c-2.11-2.14-5-2-7.19-1.92a16.26,16.26,0,0,1-1.94,0,.66.66,0,0,1-.53-.46c-1.21-2.84,4.11-17.83,16.82-14.53a12,12,0,0,1,4,1.78,12.14,12.14,0,0,1,4.66,7.62c0,.13,0,.26.08.39s.08.43.11.65.07.46.1.68"/><path class="cls-3" d="M60.86,69.59c0,.52-.1,1-.17,1.54a3.75,3.75,0,0,1-3-1.33h0A8.84,8.84,0,0,1,55.5,66a7.23,7.23,0,0,1-.24-1.25c-.2-1.76.28-3.27,1.36-3.86s2.79,0,4.07,1.49c0,.23.07.46.1.68A30.28,30.28,0,0,1,60.86,69.59Z"/><path class="cls-3" d="M51,70.25a8.6,8.6,0,0,0,1.47,2.17,4.87,4.87,0,0,0,2,1.34,2.33,2.33,0,0,0,1.87-.09c1.08-.59,1.55-2.1,1.36-3.87a8.64,8.64,0,0,0-.79-2.74l-.15-.31a8.15,8.15,0,0,0-1.44-2c-1.22-1.21-2.64-1.7-3.72-1.11a2.18,2.18,0,0,0-.56.44,4.44,4.44,0,0,0-.81,3.43l0,.2A8.74,8.74,0,0,0,51,70.25"/><path class="cls-3" d="M52.37,74.58a2.77,2.77,0,0,1-1.28,1.91c-1.07.58-2.45.12-3.65-1a18,18,0,0,0-.86-3.5l0-.1A8.68,8.68,0,0,0,45,69.07a3.78,3.78,0,0,1,.66-2,2.19,2.19,0,0,1,.72-.64c1.06-.58,2.44-.12,3.64,1l.21.21A8.11,8.11,0,0,1,51.15,69c.1.15.19.31.27.46a4.3,4.3,0,0,1,.24.48,8.72,8.72,0,0,1,.77,2.53h0a5.94,5.94,0,0,1-.06,2.16"/><path class="cls-5" d="M52.37,74.58h0a2.77,2.77,0,0,1-1.28,1.91,2.06,2.06,0,0,1-1,.25,4,4,0,0,1-2.65-1.29c.07.48.11,1,.14,1.42s.05,1.07.05,1.59c0,1.75-.15,3.44-.15,5.27A22.83,22.83,0,0,0,49,92.2c2.28,6.06,5.88,7.64,9,7.64h.5c.39,0,.77-.07,1.14-.13,0-.14,0-.3,0-.45-10.76-3.39-5.85-13-7.25-24.67"/><path class="cls-6" d="M44.29,62.38c-4.09,0-8.28,3.76-9.22,4.09a.66.66,0,0,0,.53.46l.58,0c.41,0,.87,0,1.36,0s1-.05,1.54-.05a7.48,7.48,0,0,1,5.65,2l.24.25h0a3.78,3.78,0,0,1,.66-2,2.19,2.19,0,0,1,.72-.64,2.07,2.07,0,0,1,1-.25A4,4,0,0,1,50,67.5l.21.21h0l0-.2a7,7,0,0,1,0-1h0c-1.6-3.08-3.71-4.11-5.85-4.11"/><path class="cls-5" d="M50.14,66.49a7,7,0,0,0,0,1l0,.2h0A8.11,8.11,0,0,1,51.15,69h0a15.88,15.88,0,0,0-1-2.46"/><path class="cls-5" d="M47.36,66.22a2.07,2.07,0,0,0-1,.25,2.19,2.19,0,0,0-.72.64,3.78,3.78,0,0,0-.66,2,8.68,8.68,0,0,1,1.58,2.78l0,.1a18,18,0,0,1,.86,3.5h0a4,4,0,0,0,2.65,1.29,2.06,2.06,0,0,0,1-.25,2.77,2.77,0,0,0,1.28-1.91h0q-.16-1.36-.45-2.76c-.17-.77-.36-1.54-.6-2.32v0c-.05-.17-.1-.33-.16-.5h0a8.11,8.11,0,0,0-.95-1.24h0L50,67.5a4,4,0,0,0-2.63-1.28"/><path class="cls-7" d="M83.25,99.58l-3.74,0-.26.25a29.32,29.32,0,0,1-2.58,2.21l-1.89,0h-.69l-3.43.07h-.54a1.55,1.55,0,0,1-.31,0l-3.16,0h0l-3.51.07h-.54l-.89,0-.74,0-.2-.07,0,0h0c-.53,0-.83-.84-1-2-5.44.38-8.84.88-8.83,1.4,0,.9,10.23,1.54,23.61,1.54l4.39,0c9.56-.1,18-.5,23-1q-.24-1-.39-2.07c-4.28-.34-10.79-.54-18.3-.54"/><path class="cls-3" d="M87.59,78.72c.13,6.59-2.63,13.12-5,17a21.4,21.4,0,0,1-1.73,2.47h0l-.17.2-.17.18c-.45.47-.88.9-1.28,1.29a29.32,29.32,0,0,1-2.58,2.21l-1.89,0h-.69l-3.43.07h-1l-1,0-1.58,0h-.4l-3.51.07h-.54l-.89,0-.74,0-.2-.07,0,0a1.87,1.87,0,0,1-.47-.78l0-.12,0-.15-.06-.21c-.06-.24-.12-.5-.18-.8,0-.08,0-.17,0-.26l0-.13,0-.15,0-.16-.06-.42v0c0-.21,0-.44-.06-.68v0c0-.11,0-.23,0-.35v0c0-.31,0-.62,0-1,0-.62,0-1.29,0-2a36.38,36.38,0,0,1,.58-5,34.67,34.67,0,0,1,2.06-6.9c.13-.32.27-.62.41-.93s.27-.61.42-.9h0a30.51,30.51,0,0,1,8.2-10.65q.73-.57,1.47-1.05l0,0a16.56,16.56,0,0,1,2-1.13l.21-.1a8.85,8.85,0,0,1,5.85-.74,9,9,0,0,1,4.5,3h0a7.48,7.48,0,0,1,.75,1.14A7.37,7.37,0,0,1,86.66,73a18.89,18.89,0,0,1,.66,2.72c0,.11,0,.21.05.32a22.3,22.3,0,0,1,.22,2.45v.26"/><path class="cls-3" d="M94.49,44.09a18.55,18.55,0,0,1-1.2,11.63l-8.93-5.18,7.75-7.19A1.39,1.39,0,0,1,94.49,44.09Z"/><path class="cls-2" d="M93.31,47.18a12,12,0,0,1,.15,4.74,1.63,1.63,0,0,1-2.36,1.23l-3.66-2,4.45-4.39A.82.82,0,0,1,93.31,47.18Z"/><path class="cls-3" d="M91,52.25c-.37.75-.31,1.56.13,1.8s1.09-.15,1.46-.89.32-1.56-.12-1.8S91.36,51.51,91,52.25Z"/><path class="cls-3" d="M89.62,51.47c-.38.75-.32,1.55.12,1.8s1.09-.15,1.46-.89.32-1.56-.12-1.81S90,50.73,89.62,51.47Z"/><path class="cls-3" d="M88.21,50.68c-.37.74-.31,1.55.13,1.8s1.09-.15,1.46-.9.32-1.55-.12-1.8S88.59,49.93,88.21,50.68Z"/><path class="cls-3" d="M96.82,63.27c-.13,4.66-4.9,6.34-8.48,7-1,.17-2,.29-3,.37-1.38.11-2.77.15-4.14.13s-2.63-.07-4-.2a22.09,22.09,0,0,1-4.52-.91c-.37-.12-.73-.26-1.08-.4a8.61,8.61,0,0,1-3.4-2.53,7.87,7.87,0,0,1-1.2-2.14,3,3,0,0,1-.11-.32,7.66,7.66,0,0,1-.33-1.54c0-.17,0-.34,0-.51v-.36a9,9,0,0,1,.34-2.43,15,15,0,0,1,1.9-4c.36-.54.73-1.06,1.11-1.55l.34-.42c.13-.14.26-.29.41-.43a13.52,13.52,0,0,1,1.1-1l.59-.44c.37-.26.77-.52,1.19-.77.14-.09.29-.17.44-.25a16.5,16.5,0,0,1,1.58-.77l.43-.18a16.84,16.84,0,0,1,2.75-.84,13.37,13.37,0,0,1,1.56-.27h0A12.57,12.57,0,0,1,92.72,54c1,1.46,1.41,3.26,2.4,4.74a7.55,7.55,0,0,1,1.7,4.52"/><path class="cls-3" d="M67.83,61.89a2.91,2.91,0,0,1-.92.28H66.6a2.85,2.85,0,0,1-.84-.1A1.38,1.38,0,0,1,64.64,61c-.06-.76.8-1.47,1.94-1.58h.36l.27,0c.84.09,1.49.56,1.54,1.18a1.43,1.43,0,0,1-.92,1.29"/><path class="cls-3" d="M68,64.31a2.59,2.59,0,0,1-.76.23l-.13,0H67a3.13,3.13,0,0,1-1-.07,1.4,1.4,0,0,1-1.19-1.12,1.43,1.43,0,0,1,.92-1.29,2.43,2.43,0,0,1,.84-.26l.18,0h.14a2.68,2.68,0,0,1,.91.1,1.78,1.78,0,0,1,.78.43A1,1,0,0,1,69,63a1.44,1.44,0,0,1-1,1.32"/><path class="cls-3" d="M68.28,66.7h0a2.81,2.81,0,0,1-1,.3c-1.13.11-2.1-.42-2.17-1.19a1.47,1.47,0,0,1,1-1.32,3,3,0,0,1,.94-.26h.16a3.24,3.24,0,0,1,.84.08,1.22,1.22,0,0,1,.31,2.39"/><path class="cls-2" d="M89.73,59.26c.69,4.07-.72,7.75-3.15,8.22S81.63,65,80.94,61s.72-7.75,3.14-8.22S89,55.2,89.73,59.26Z"/><path class="cls-3" d="M96.77,61.19c1.13-.11,2-.82,1.94-1.58s-1-1.3-2.18-1.19-2,.82-1.94,1.58S95.63,61.3,96.77,61.19Z"/><path class="cls-3" d="M97,63.58c1.13-.11,2-.82,1.94-1.59s-1-1.29-2.18-1.18-2,.82-1.94,1.58S95.83,63.68,97,63.58Z"/><path class="cls-3" d="M97.18,66c1.13-.11,2-.82,1.94-1.58s-1-1.3-2.18-1.19-2,.82-1.93,1.58S96,66.13,97.18,66Z"/><path class="cls-4" d="M87.6,78.72c.12,6.59-2.64,13.12-5,17a21.4,21.4,0,0,1-1.73,2.47h0l-.17.2-.17.18c-.45.47-.88.9-1.28,1.29a29.32,29.32,0,0,1-2.58,2.21l-1.89,0h-.69l-3.43.07-3.64-1L80.66,78A3.8,3.8,0,0,1,84.26,76,3.94,3.94,0,0,1,87.6,78.72Z"/><path class="cls-8" d="M89,60.73a.91.91,0,0,0,1,.87.93.93,0,0,0,.82-1,.91.91,0,0,0-1-.87A.93.93,0,0,0,89,60.73Z"/><path class="cls-8" d="M80.58,62.3a.89.89,0,0,0,1,.87.92.92,0,0,0,.81-1,.9.9,0,0,0-1-.87A.93.93,0,0,0,80.58,62.3Z"/><path class="cls-4" d="M79.94,67.3c.38,2.22,5.17,3.87,8.42,3.25s5.57-2.94,5.19-5.17S90.24,61.85,87,62.47,79.57,65.07,79.94,67.3Z"/><path class="cls-8" d="M88.32,65.19c.08.5.81.83,1.44,1a1.86,1.86,0,0,0,1.66-.29c.54-.39,1.15-1,1.07-1.45a1.87,1.87,0,0,0-2.32-1.23C89,63.44,88.19,64.32,88.32,65.19Z"/><path class="cls-8" d="M87.5,66.94a2.77,2.77,0,0,0,2.87,1.47,2.94,2.94,0,0,0,2.36-2.23.22.22,0,0,0-.16-.27.23.23,0,0,0-.27.16,2.48,2.48,0,0,1-2,1.91A2,2,0,0,1,90,68a2.4,2.4,0,0,1-2.08-1.28.21.21,0,0,0-.29-.09.22.22,0,0,0-.09.3Z"/><path class="cls-3" d="M81,50.62l-6.92,4.32-.15.09-4.16,2.59a17.17,17.17,0,0,1-.92-2.25L68.72,55l0-.05a23.25,23.25,0,0,1-.18-11.38,1.82,1.82,0,0,1,3-1.08l4.37,3.76,1.38,1.19.34.3,1.19,1,.78.67L81,50.62"/><path class="cls-2" d="M70.18,46.66a13.51,13.51,0,0,0,.19,7,1.08,1.08,0,0,0,1.61.63l4.13-2.57a1.24,1.24,0,0,0,.14-2L71.93,46a1.07,1.07,0,0,0-1.75.64"/><path class="cls-3" d="M74.48,52c.58.89,1.47,1.31,2,.92s.48-1.43-.09-2.33-1.47-1.31-2-.92-.48,1.43.09,2.33"/><path class="cls-3" d="M72.83,53.17c.58.89,1.47,1.31,2,.92s.49-1.43-.09-2.33-1.47-1.31-2-.92-.49,1.43.08,2.33"/><path class="cls-3" d="M71.15,54.41c.58.89,1.47,1.31,2,.92s.49-1.43-.09-2.32-1.47-1.32-2-.93-.49,1.43.08,2.33"/><path class="cls-3" d="M73.19,81.91c0-2.89,1.33-5.3,3.1-5.52h.23c1.59,0,3,1.77,3.34,4.32.44,3.23-.38,13-.94,18.83a3.59,3.59,0,0,1,1.22,2.3.36.36,0,0,1-.34.41H78.64l-3.62,0a.31.31,0,0,1-.22-.09Z"/><path class="cls-3" d="M80,49.23c.24.78,1.39,1.08,2.57.67s1.94-1.38,1.7-2.16-1.39-1.08-2.57-.67-1.94,1.38-1.7,2.16"/><path class="cls-2" d="M70.61,101.66c.09.22-.14.44-.49.53a1.46,1.46,0,0,1-.31,0l-3.2,0c-2.45,0-5.47,0-5.88,0h0a1.87,1.87,0,0,1-.47-.78l0-.12,0-.15-.06-.21c-.06-.24-.12-.5-.18-.8,0-.08,0-.17,0-.26l0-.13,0-.15,0-.16c0-.14,0-.28,0-.42v0l-.06-.68v0c0-.11,0-.23,0-.35v0c0-.88-.06-1.87,0-2.93a35.4,35.4,0,0,1,2.64-11.88c.13-.32.27-.62.41-.93s.27-.61.42-.9h0a9.5,9.5,0,0,1,5,2.2,11.05,11.05,0,0,1,1,15.54,9.56,9.56,0,0,1-.9.9l.19,0a3.07,3.07,0,0,1,2.25,1.65"/><path class="cls-3" d="M110,106.21s3.84-2.87,2.77-13.54c-1-9.76-4.43-24-7.37-17-3.26,7.8-6.45,20.7-2.16,30.59l6.76-.07"/><path class="cls-1" d="M97.27,107.48s-4.51-2.54-3.57-11.55c.78-7.48,5.49-21.52,8.28-15.84,2.73,5.53,6.33,21.25.39,27.34Z"/><path class="cls-9" d="M102.85,107.46s-4.5-2.35-3.55-10.72c.78-6.95,5.49-20,8.29-14.71s6.31,19.72.37,25.38Z"/><path class="cls-2" d="M110.22,107.05s-2-1.06-1.6-4.82c.35-3.12,2.47-9,3.72-6.61s2.84,8.86.17,11.41Z"/><polyline class="cls-8" points="104.22 106.04 103.99 108.63 103.84 110.44 93.88 112.14 93.81 105.25 104.22 106.04"/><polyline class="cls-8" points="118.9 105 118.96 111.88 118.84 111.86 109.5 110.38 109.25 108.58 108.91 106 118.9 105"/><polyline class="cls-10" points="103.99 108.63 95.63 108.71 93.86 110.75 93.88 112.14 103.84 110.44 103.99 108.63"/><polyline class="cls-10" points="117.81 108.49 109.25 108.58 109.5 110.38 118.84 111.86 117.81 108.49"/><path class="cls-8" d="M116.64,108.46c0,1.9,1,3.43,2.3,3.42s2.27-1.56,2.25-3.46-1-3.43-2.31-3.42S116.62,106.56,116.64,108.46Z"/><path class="cls-11" d="M117.78,108.45h-.21a3.92,3.92,0,0,0,.45,1.9,1.43,1.43,0,0,0,1.18.85h0a1.41,1.41,0,0,0,1.16-.85,3.9,3.9,0,0,0,.43-1.88v0a3.88,3.88,0,0,0-.45-1.89,1.43,1.43,0,0,0-1.18-.86h0l0,.21v-.21a1.41,1.41,0,0,0-1.17.85,4,4,0,0,0-.43,1.88v0H118v0a3.52,3.52,0,0,1,.38-1.67c.23-.42.52-.63.79-.63h0v0h0v0h0c.27,0,.56.21.8.63a3.6,3.6,0,0,1,.4,1.69v0a3.55,3.55,0,0,1-.38,1.67c-.23.42-.52.63-.79.62v0h0c-.27,0-.56-.2-.8-.62a3.6,3.6,0,0,1-.4-1.69Z"/><path class="cls-11" d="M118.8,108.44c0,.39.18.71.4.71s.38-.33.38-.72-.18-.7-.4-.7S118.8,108.05,118.8,108.44Z"/><path class="cls-8" d="M110.39,108.53a3.66,3.66,0,1,1-3.68-3.88A3.79,3.79,0,0,1,110.39,108.53Z"/><path class="cls-11" d="M109.44,108.54h-.21v0a2.59,2.59,0,0,1-2.47,2.68h0a2.58,2.58,0,0,1-2.48-2.65v0a2.59,2.59,0,0,1,2.46-2.67h0a2.59,2.59,0,0,1,2.49,2.65h.43a3,3,0,0,0-2.92-3.08h0a3,3,0,0,0-2.89,3.11v0a3,3,0,0,0,2.92,3.09h0a3,3,0,0,0,2.89-3.12v0Z"/><path class="cls-11" d="M107.49,108.56a.75.75,0,1,1-.76-.8A.78.78,0,0,1,107.49,108.56Z"/><path class="cls-8" d="M106,92.61a.76.76,0,0,1-.73.8.75.75,0,0,1-.74-.78.74.74,0,1,1,1.47,0Z"/><path class="cls-8" d="M108.53,92.59a.74.74,0,1,1-.74-.79A.77.77,0,0,1,108.53,92.59Z"/><path class="cls-8" d="M104.19,94a.42.42,0,0,0-.34.61,3,3,0,0,0,5.48-.05A.41.41,0,0,0,109,94Z"/><path class="cls-4" d="M107.26,94.86h-1.33a.31.31,0,0,1-.3-.32V94l1.93,0v.55A.32.32,0,0,1,107.26,94.86Z"/><path class="cls-12" d="M103.61,93.87a.66.66,0,0,0-.65-.68.67.67,0,0,0-.63.7.66.66,0,0,0,.65.68A.68.68,0,0,0,103.61,93.87Z"/><path class="cls-12" d="M110.84,93.8a.68.68,0,0,0-.65-.68.69.69,0,0,0,0,1.37A.66.66,0,0,0,110.84,93.8Z"/><path class="cls-8" d="M114.87,99c0,1.9-1,3.45-2.24,3.47s-2.29-1.52-2.31-3.42,1-3.45,2.25-3.46S114.85,97.11,114.87,99Z"/><path class="cls-11" d="M113.73,99h-.22v0a3.55,3.55,0,0,1-.38,1.67c-.23.42-.52.63-.79.63v0h0c-.27,0-.56-.21-.8-.63a3.6,3.6,0,0,1-.4-1.69v0a3.52,3.52,0,0,1,.38-1.67c.23-.42.52-.63.79-.63h0c.27,0,.56.21.8.63a3.6,3.6,0,0,1,.4,1.69h.43a3.91,3.91,0,0,0-.45-1.89,1.42,1.42,0,0,0-1.18-.85h0a1.39,1.39,0,0,0-1.16.85A3.9,3.9,0,0,0,110.7,99v0a3.91,3.91,0,0,0,.45,1.89,1.43,1.43,0,0,0,1.18.85h0a1.43,1.43,0,0,0,1.17-.85,4,4,0,0,0,.43-1.88v0Z"/><path class="cls-11" d="M112.71,99c0,.4-.17.71-.38.72s-.4-.32-.4-.71.17-.71.38-.71S112.71,98.64,112.71,99Z"/><path class="cls-5" d="M63.09,81.33h0c-.15.29-.29.6-.42.9s-.28.61-.41.93a34.67,34.67,0,0,0-2.06,6.9h0v0a34.44,34.44,0,0,1,2.06-7c.13-.32.27-.62.41-.93s.27-.61.42-.9m9.67-11.7h0q-.74.48-1.47,1.05a30.51,30.51,0,0,0-8.2,10.65h0A9.46,9.46,0,0,1,68,83.51q1.26-2.43,2.73-4.71c1.43-2.2,3.48-5.19,6-6.89a1.43,1.43,0,0,0,.58-1.37h0a22.09,22.09,0,0,1-4.52-.91"/><path class="cls-5" d="M73.92,55l-4.16,2.59a17.17,17.17,0,0,1-.92-2.25h0a15,15,0,0,0-1.9,4l.27,0c.84.09,1.49.56,1.54,1.18a1.43,1.43,0,0,1-.92,1.29,1.78,1.78,0,0,1,.78.43A1,1,0,0,1,69,63a1.44,1.44,0,0,1-1,1.32,1.22,1.22,0,0,1,.31,2.39,8.61,8.61,0,0,0,3.4,2.53c.35.14.71.28,1.08.4h0a22.09,22.09,0,0,0,4.52.91h0a1.39,1.39,0,0,0-.7-1A7.25,7.25,0,0,1,75,68.38c-2.82-2.65-3.08-7.23-1.7-12a6.58,6.58,0,0,1,.6-1.37m6.13-6.54c-.43.06-.85.13-1.27.23l.78.67h0A4,4,0,0,0,80,49a1.2,1.2,0,0,1,.08-.49"/><path class="cls-5" d="M66.87,59.4h-.29c-1.1.11-2,.77-1.94,1.51V61a1.38,1.38,0,0,0,1.12,1.1h0a2.43,2.43,0,0,1,.84-.26l.18,0h.3a2.57,2.57,0,0,1,.75.1h0a1.43,1.43,0,0,0,.92-1.29c0-.62-.7-1.09-1.54-1.18l-.27,0h-.07"/><path class="cls-5" d="M67.08,61.79h-.3l-.18,0a2.43,2.43,0,0,0-.84.26h0a1.46,1.46,0,0,0-.92,1.21v.08A1.4,1.4,0,0,0,66,64.5h0a3,3,0,0,1,.94-.26h.32a3,3,0,0,1,.68.08h0A1.44,1.44,0,0,0,69,63a1,1,0,0,0-.34-.67,1.78,1.78,0,0,0-.78-.43h0a2.57,2.57,0,0,0-.75-.1"/><path class="cls-5" d="M67.29,64.23H67a3,3,0,0,0-.94.26h0a1.5,1.5,0,0,0-1,1.25v.07c.06.7.87,1.2,1.88,1.2h.29a2.81,2.81,0,0,0,1-.3h0A1.22,1.22,0,0,0,68,64.31h0a3,3,0,0,0-.68-.08"/><path class="cls-5" d="M75.14,52.68a2.63,2.63,0,0,1,.06.47h0c.07-.1.15-.19.23-.29a1.75,1.75,0,0,1-.29-.18M70.33,42a1.88,1.88,0,0,0-1.81,1.53,26.73,26.73,0,0,0-.62,5.6,20.31,20.31,0,0,0,.8,5.78l0,.05.12.41h0a17.17,17.17,0,0,0,.92,2.25L73.92,55h0c.14-.26.31-.53.49-.8h0a1.53,1.53,0,0,1-.93-.38,1.38,1.38,0,0,1-.29,1.48.77.77,0,0,1-.46.15,2,2,0,0,1-1.53-1.07,1.13,1.13,0,0,1-.79-.76,13.51,13.51,0,0,1-.19-7,1.1,1.1,0,0,1,1.06-.9,1,1,0,0,1,.69.26l4.32,3.73A1.24,1.24,0,0,1,76.63,51a2.3,2.3,0,0,1,.14.42,8.4,8.4,0,0,1,1.74-1.34,6.37,6.37,0,0,0,1-.69l-.78-.67-1.19-1-.34-.3-1.38-1.19L71.5,42.45A1.76,1.76,0,0,0,70.33,42"/><path class="cls-13" d="M71.24,45.76a1.1,1.1,0,0,0-1.06.9,13.51,13.51,0,0,0,.19,7,1.13,1.13,0,0,0,.79.76h0c-.57-.9-.61-1.94-.08-2.33a.74.74,0,0,1,.46-.14,1.53,1.53,0,0,1,.93.38,1.36,1.36,0,0,1,.29-1.48.75.75,0,0,1,.46-.15,1.57,1.57,0,0,1,.88.35,1.33,1.33,0,0,1,.3-1.41.8.8,0,0,1,.47-.15,2.07,2.07,0,0,1,1.53,1.07,4.92,4.92,0,0,1,.24.45,1.24,1.24,0,0,0-.38-1.25L71.93,46a1,1,0,0,0-.69-.26"/><path class="cls-5" d="M74.86,49.48a.8.8,0,0,0-.47.15,1.33,1.33,0,0,0-.3,1.41,2.86,2.86,0,0,1,.65.72,3.34,3.34,0,0,1,.4.92,1.75,1.75,0,0,0,.29.18h0a17,17,0,0,1,1.34-1.44h0a2.3,2.3,0,0,0-.14-.42,4.92,4.92,0,0,0-.24-.45,2.07,2.07,0,0,0-1.53-1.07"/><path class="cls-5" d="M73.21,50.69a.75.75,0,0,0-.46.15,1.36,1.36,0,0,0-.29,1.48,3.17,3.17,0,0,1,.6.69,3,3,0,0,1,.38.84,1.53,1.53,0,0,0,.93.38h0c.24-.36.51-.73.79-1.08a2.63,2.63,0,0,0-.06-.47,3.34,3.34,0,0,0-.4-.92,2.86,2.86,0,0,0-.65-.72,1.57,1.57,0,0,0-.88-.35"/><path class="cls-5" d="M71.53,51.94a.74.74,0,0,0-.46.14c-.53.39-.49,1.43.08,2.33h0a2,2,0,0,0,1.53,1.07.77.77,0,0,0,.46-.15,1.38,1.38,0,0,0,.29-1.48,3,3,0,0,0-.38-.84,3.17,3.17,0,0,0-.6-.69,1.53,1.53,0,0,0-.93-.38"/><path class="cls-14" d="M59.81,99.67h0l-.15,0a5.61,5.61,0,0,0,.06.59l.19,0v-.2l0-.09v0l0-.13,0-.15"/><path class="cls-5" d="M59.6,97c0,.78,0,1.54,0,2.23l.14,0,0-.2v0c0-.21,0-.44-.06-.68v0h0c0-.11,0-.23,0-.35v0c0-.11,0-.23,0-.34s0-.33,0-.49V97"/><path class="cls-15" d="M59.62,99.25c0,.15,0,.31,0,.45l.15,0h0l0-.15,0-.22-.14,0"/><path class="cls-16" d="M59.91,100.27l-.19,0c.15,1.14.45,1.93,1,2a1.87,1.87,0,0,1-.47-.78v0l0-.07,0-.15-.06-.21c0-.13-.07-.27-.1-.42s0-.21-.07-.32"/><path class="cls-5" d="M60.7,102.27h0M60,100.59c0,.15.07.29.1.42l.06.21,0,.15,0,.07,0-.07,0-.15-.06-.21c0-.13-.07-.27-.1-.42m-.1-.52v0m-.05-.25h0l0,.13v0l0-.13m-.16-1.47v0c0,.24,0,.47.06.68v0l0,.2,0,.22,0,.15,0-.15c0-.14,0-.28,0-.42v0l-.06-.68v0m-.07-1.21c0,.16,0,.33,0,.49,0-.16,0-.33,0-.49"/><path class="cls-5" d="M80.34,48.45l-.29,0h0A1.2,1.2,0,0,0,80,49a3,3,0,0,0,.37-.53"/><path class="cls-13" d="M63.09,81.33h0c-.15.29-.29.6-.42.9s-.28.61-.41.93a34.44,34.44,0,0,0-2.06,7c0,.2-.07.4-.11.61,0,0-.42,3.25-.49,6.3h0v.12c0,.16,0,.33,0,.49s0,.23,0,.34v0c0,.12,0,.24,0,.35h0v0l.06.68v0c0,.14,0,.28,0,.42l0,.15h0l0,.15,0,.13v0l0,.09v.2c0,.11.05.22.07.32s.07.29.1.42l.06.21,0,.15,0,.07v0a1.87,1.87,0,0,0,.47.78h0A110.65,110.65,0,0,1,68,83.51a9.46,9.46,0,0,0-4.92-2.18"/><path class="cls-8" d="M91.38,83a.8.8,0,0,1,.27-1L115,67.92a.68.68,0,0,1,1,.28.8.8,0,0,1-.27,1L92.34,83.31a.68.68,0,0,1-1-.28"/><path class="cls-17" d="M114.6,72.72l-4,2.41a1.46,1.46,0,0,1-.69.21,1.55,1.55,0,0,1-1.44-.85l-1.4-2.66a1.74,1.74,0,0,1,.6-2.28l4-2.41a1.5,1.5,0,0,1,2.12.64l1.4,2.67a1.72,1.72,0,0,1-.59,2.27"/><path class="cls-17" d="M112.43,66.93a1.5,1.5,0,0,0-.76.21l-4,2.41a1.71,1.71,0,0,0-.8,1.46,1.71,1.71,0,0,1,.8-1.46l4-2.41a1.5,1.5,0,0,1,.76-.21,1.52,1.52,0,0,1,1.36.85l.13.23h0l-.13-.23a1.52,1.52,0,0,0-1.36-.85"/><path class="cls-18" d="M112.43,66.93a1.5,1.5,0,0,0-.76.21l-4,2.41a1.71,1.71,0,0,0-.8,1.46,1.84,1.84,0,0,0,.2.82l1.4,2.66a1.55,1.55,0,0,0,1.36.86h.08l-1.09-2.09a2,2,0,0,1,.67-2.58L113.92,68l-.13-.23a1.52,1.52,0,0,0-1.36-.85"/><path class="cls-3" d="M99.67,80.5a2.2,2.2,0,1,1-2.18-2.67A2.48,2.48,0,0,1,99.67,80.5Z"/><path class="cls-1" d="M61.64,53a2.19,2.19,0,1,1,2-2.21A2.11,2.11,0,0,1,61.64,53Zm0-3.73a1.55,1.55,0,1,0,1.46,1.53A1.49,1.49,0,0,0,61.61,49.3Z"/></svg>