<svg id="Layer_1" data-name="Layer 1" xmlns="http://www.w3.org/2000/svg" viewBox="0 0 160 160"><defs><style>.cls-1{fill:#fd4a46;}</style></defs><title>Artboard 56</title><polygon class="cls-1" points="61.69 66.04 61.69 75.27 80.21 75.27 80.21 84.44 61.69 84.44 61.69 98.83 49.82 98.83 49.82 56.87 82.73 56.87 82.73 66.04 61.69 66.04"/><path class="cls-1" d="M100.17,67.54h7.73v8.51h-7.43V98.83H89.08V76.05H84.35V67.54h4.73V66.7q0-5.94,3.57-9.41t10-3.48a20.68,20.68,0,0,1,4.19.42,10,10,0,0,1,3.36,1.26l-2.82,8a6.92,6.92,0,0,0-3.41-1,3.59,3.59,0,0,0-2.79,1.08,4.56,4.56,0,0,0-1,3.18Z"/></svg>