<svg id="Layer_1" data-name="Layer 1" xmlns="http://www.w3.org/2000/svg" xmlns:xlink="http://www.w3.org/1999/xlink" viewBox="0 0 160 160"><defs><style>.cls-1{fill:none;}.cls-2{fill:#efefef;}.cls-3{fill:#620e00;}.cls-4{fill:#ff88b9;}.cls-5{fill:#99432b;}.cls-6{fill:#914a34;}.cls-7{clip-path:url(#clip-path);}.cls-8{fill:#a05a3f;}.cls-9{fill:#b76444;}.cls-10{fill:#d1866f;}.cls-11{fill:#ffd31e;}.cls-12{clip-path:url(#clip-path-2);}.cls-13{fill:#fffed9;}.cls-14{fill:#ff66a1;}</style><clipPath id="clip-path"><path class="cls-1" d="M54.56,96.28c0,13.91,12.58,12.13,26,12.13s18.23-.66,18.23-14.57S94,58,80.56,58s-26,24.34-26,38.25"/></clipPath><clipPath id="clip-path-2"><path class="cls-1" d="M85.55,70.42A5,5,0,0,1,79,73.34a5.33,5.33,0,0,1-2.82-6.84c1-2.7,2.11.88,4.71,2a7.39,7.39,0,0,0,3,.38c1.4,0,2.32-.07,1.69,1.58"/></clipPath></defs><title>Artboard 57</title><path class="cls-2" d="M103,109.07c0-1.88-11.12-3.4-24.84-3.4s-24.84,1.52-24.84,3.4,11.12,3.41,24.84,3.41S103,111,103,109.07Z"/><path class="cls-3" d="M90.74,46.88a5.87,5.87,0,1,0,11.73,0Z"/><path class="cls-3" d="M60.55,46.88a5.87,5.87,0,1,0,11.73,0Z"/><path class="cls-4" d="M73.83,35.74,71.59,50.89H78.9L76.65,35.74A1.43,1.43,0,0,0,73.83,35.74Z"/><path class="cls-4" d="M86.29,35.74,84,50.89h7.31L89.11,35.74A1.43,1.43,0,0,0,86.29,35.74Z"/><path class="cls-5" d="M54.56,96.28c0,13.91,12.58,12.13,26,12.13s18.23-.66,18.23-14.57S94,58,80.56,58,54.56,82.37,54.56,96.28Z"/><path class="cls-6" d="M54.56,96.28c0,13.91,12.58,12.13,26,12.13s18.23-.66,18.23-14.57S94,58,80.56,58,54.56,82.37,54.56,96.28Z"/><g class="cls-7"><path class="cls-8" d="M67.62,87c0,11.59,5.82,16.37,17,16.37s15.2-.55,15.2-12.15-4-29.85-15.2-29.85S67.62,75.35,67.62,87Z"/></g><path class="cls-9" d="M98.36,61.51c0,11.31-9.68,16.14-16.67,16.14S65,72.82,65,61.51c0-9.65,5.06-16.58,16.67-16.58C93.9,44.93,98.36,52.51,98.36,61.51Z"/><path class="cls-10" d="M83.43,63.89,86.2,45.15h-9l2.78,18.74A1.77,1.77,0,0,0,83.43,63.89Z"/><path class="cls-11" d="M66.57,93.45a9.56,9.56,0,0,1,6.19-11.81,9.12,9.12,0,0,1,11.38,6.42A9.55,9.55,0,0,1,78,99.87,9.11,9.11,0,0,1,66.57,93.45Z"/><path class="cls-11" d="M78.33,89.85a7.46,7.46,0,0,1,4.82-9.21,7.11,7.11,0,0,1,8.88,5,7.45,7.45,0,0,1-4.83,9.2A7.1,7.1,0,0,1,78.33,89.85Z"/><polygon class="cls-10" points="109.33 82.24 82.06 90.6 81.06 87.11 108.33 78.76 109.33 82.24"/><path class="cls-3" d="M105.46,84l4.34-.6a2.23,2.23,0,0,0,1.78-2.84L111.13,79a2.12,2.12,0,0,0-3-1.39l-4,1.94a2.28,2.28,0,0,0-1.14,2.65l.06.22A2.16,2.16,0,0,0,105.46,84Z"/><path class="cls-3" d="M79,89.65a2.83,2.83,0,0,1,1.83-3.48,2.68,2.68,0,0,1,3.34,1.89,2.81,2.81,0,0,1-1.82,3.48A2.7,2.7,0,0,1,79,89.65Z"/><path class="cls-9" d="M77.57,89.89l.4,5.4-11.52.94a2.66,2.66,0,0,1-2.81-2.5,2.69,2.69,0,0,1,2.41-2.91Z"/><path class="cls-3" d="M79.43,91.73h0a1.3,1.3,0,0,0,.11,1.44,1.28,1.28,0,0,1-.86,2.07L76,95.46l-.41-5.41,2.73-.22A1.26,1.26,0,0,1,79.43,91.73Z"/><path class="cls-9" d="M98.1,82.32l5.17.79L101.59,95a2.62,2.62,0,0,1-3,2.28,2.69,2.69,0,0,1-2.21-3.07Z"/><path class="cls-3" d="M100.25,80.85h0a1.19,1.19,0,0,0,1.37.21,1.24,1.24,0,0,1,1.76,1.32l-.4,2.81-5.17-.79.39-2.81A1.22,1.22,0,0,1,100.25,80.85Z"/><path class="cls-3" d="M78.05,59.74a1.36,1.36,0,1,1-1.36-1.41A1.39,1.39,0,0,1,78.05,59.74Z"/><path class="cls-3" d="M87.67,59.74a1.36,1.36,0,1,1-1.36-1.41A1.39,1.39,0,0,1,87.67,59.74Z"/><path class="cls-3" d="M81.69,66.91h0a2.24,2.24,0,0,1-2-1.38L79.4,65A.66.66,0,0,1,80,64h3.44A.66.66,0,0,1,84,65l-.24.56A2.25,2.25,0,0,1,81.69,66.91Z"/><path class="cls-3" d="M81.28,66.05v0a7,7,0,0,1-.79,2.13.43.43,0,0,0,.15.58.42.42,0,0,0,.57-.15,8.21,8.21,0,0,0,.91-2.46.44.44,0,0,0-.35-.49.43.43,0,0,0-.48.35Z"/><path class="cls-3" d="M85.55,70.42A5,5,0,0,1,79,73.34a5.33,5.33,0,0,1-2.82-6.84c1-2.7,2.11.88,4.71,2S86.59,67.72,85.55,70.42Z"/><g class="cls-12"><path class="cls-13" d="M81.46,69.68l-1.88-.78a.9.9,0,0,1-.47-1.15l1.28-3.32a.85.85,0,0,1,1.11-.5l1.88.78a.91.91,0,0,1,.47,1.15l-1.28,3.33A.85.85,0,0,1,81.46,69.68Z"/><path class="cls-14" d="M74.49,74.81h0a2,2,0,0,1-1-2.51L74,70.92a1.86,1.86,0,0,1,2.43-1.08,2,2,0,0,1,1,2.51l-.53,1.38A1.85,1.85,0,0,1,74.49,74.81Z"/></g><path class="cls-4" d="M75.76,63.43a2,2,0,1,1-2-2A2,2,0,0,1,75.76,63.43Z"/><path class="cls-4" d="M91.57,63.43a2,2,0,1,1-2-2A2,2,0,0,1,91.57,63.43Z"/><path class="cls-9" d="M78.86,79.05A2.82,2.82,0,1,1,81.68,82,2.87,2.87,0,0,1,78.86,79.05Z"/><path class="cls-9" d="M75.78,77.59a2.14,2.14,0,1,1,2.14,2.22A2.18,2.18,0,0,1,75.78,77.59Z"/><path class="cls-9" d="M83.35,77.59a2.14,2.14,0,1,1,2.14,2.22A2.19,2.19,0,0,1,83.35,77.59Z"/><path class="cls-9" d="M84.79,44.19a3.47,3.47,0,1,1-3.47-3.59A3.54,3.54,0,0,1,84.79,44.19Z"/><ellipse class="cls-9" cx="85.94" cy="44.15" rx="2.63" ry="2.73"/><ellipse class="cls-9" cx="76.63" cy="44.15" rx="2.63" ry="2.73"/><rect class="cls-9" x="92.34" y="98.85" width="12.12" height="9.15" rx="4.49" ry="4.49"/><path class="cls-3" d="M102.63,108h0a5.21,5.21,0,0,1-5.12-5.31V97.56a2.24,2.24,0,0,1,3.68-1.8,2.2,2.2,0,0,0,2.87,0,2.25,2.25,0,0,1,3.69,1.8v5.12A5.21,5.21,0,0,1,102.63,108Z"/><path class="cls-3" d="M68.24,110h0a5.23,5.23,0,0,1-5.13-5.31V99.6a2.25,2.25,0,0,1,3.69-1.8,2.18,2.18,0,0,0,2.87,0,2.25,2.25,0,0,1,3.69,1.8v5.13A5.22,5.22,0,0,1,68.24,110Z"/></svg>