<svg id="Layer_1" data-name="Layer 1" xmlns="http://www.w3.org/2000/svg" viewBox="0 0 160 160"><defs><style>.cls-1{fill:#fd4a46;}</style></defs><title>Artboard 58</title><path class="cls-1" d="M68.91,76.78H79.4V94.16a27.32,27.32,0,0,1-8.27,4,32.88,32.88,0,0,1-9.35,1.38,25,25,0,0,1-11.87-2.79A20.76,20.76,0,0,1,41.64,89a22.67,22.67,0,0,1,0-22.54A20.73,20.73,0,0,1,50,58.65,25.61,25.61,0,0,1,62,55.86a26.85,26.85,0,0,1,10.55,2,20.4,20.4,0,0,1,7.79,5.7l-7.55,6.83a13.32,13.32,0,0,0-10.19-4.68,11.29,11.29,0,0,0-12,12,12.62,12.62,0,0,0,1.5,6.2,10.8,10.8,0,0,0,4.19,4.26,12.31,12.31,0,0,0,6.18,1.53,15.13,15.13,0,0,0,6.41-1.38Z"/><path class="cls-1" d="M121.36,66.17V92.73q0,9-4.92,13.57t-14.14,4.53a35.9,35.9,0,0,1-9-1.08,21.28,21.28,0,0,1-7.14-3.18l4.14-8a14.61,14.61,0,0,0,5,2.55,20.27,20.27,0,0,0,6,.93c3,0,5.19-.66,6.59-2s2.1-3.28,2.1-5.88V93.15Q106.67,97,100.32,97a16.64,16.64,0,0,1-8-2,14.75,14.75,0,0,1-5.82-5.51,15.6,15.6,0,0,1-2.15-8.24,15.44,15.44,0,0,1,2.15-8.18,14.85,14.85,0,0,1,5.82-5.52,16.64,16.64,0,0,1,8-2q6.95,0,10.19,4.5v-4Zm-13.28,19.9a6.72,6.72,0,0,0,0-9.56A7.21,7.21,0,0,0,103,74.68a7.33,7.33,0,0,0-5.13,1.83,6.65,6.65,0,0,0,0,9.56,7.28,7.28,0,0,0,5.1,1.86A7.17,7.17,0,0,0,108.08,86.07Z"/></svg>