<svg id="Layer_1" data-name="Layer 1" xmlns="http://www.w3.org/2000/svg" xmlns:xlink="http://www.w3.org/1999/xlink" viewBox="0 0 160 160"><defs><style>.cls-1{fill:none;}.cls-2{fill:#b76444;}.cls-3{fill:#efefef;}.cls-4{fill:#d1866f;}.cls-5{fill:#e2a293;}.cls-6{clip-path:url(#clip-path);}.cls-7{fill:#ff88b9;}.cls-8{fill:#fc9047;}.cls-9{fill:#4b4bb2;}.cls-10{fill:#6d6aef;}.cls-11{fill:#f45d64;}.cls-12{fill:#620e00;}.cls-13{clip-path:url(#clip-path-2);}.cls-14{fill:#fffed9;}</style><clipPath id="clip-path"><path class="cls-1" d="M64.67,107.9H93.16a17.66,17.66,0,0,0,17.65-17.66v-.56A17.65,17.65,0,0,0,93.16,72H64.67A17.65,17.65,0,0,0,47,89.68v.56A17.66,17.66,0,0,0,64.67,107.9"/></clipPath><clipPath id="clip-path-2"><path class="cls-1" d="M105.37,89.86a3.66,3.66,0,1,1-6.79-2.72c.75-1.87,1.52.61,3.4,1.36a5.4,5.4,0,0,0,2.17.27c1,0,1.68,0,1.22,1.09"/></clipPath></defs><title>Artboard 59</title><path class="cls-2" d="M106.19,73.3c-.87,3.24-3.41,6-5.48,5.41s-2.85-4.41-2-7.43,2.92-4.15,5-3.59S107,70.29,106.19,73.3Z"/><ellipse class="cls-3" cx="78.99" cy="108.36" rx="31.14" ry="4.11"/><path class="cls-2" d="M98.13,107.9h6.3a.7.7,0,0,0,.69-.7v-.71a3.85,3.85,0,1,0-7.69,0v.71A.7.7,0,0,0,98.13,107.9Z"/><rect class="cls-4" x="47.02" y="72.12" width="63.8" height="35.77" rx="17.6" ry="17.6"/><path class="cls-2" d="M56.74,100.65A5.78,5.78,0,1,0,51,106.43,5.78,5.78,0,0,0,56.74,100.65Z"/><path class="cls-5" d="M76.83,107.9v-.05a8,8,0,1,1,15.92,0v.05Z"/><g class="cls-6"><path class="cls-5" d="M75.08,94.47a15.23,15.23,0,1,0-15.23,15.4A15.31,15.31,0,0,0,75.08,94.47Z"/></g><path class="cls-7" d="M67.11,107.9h6.3a.7.7,0,0,0,.69-.7v-.71a3.85,3.85,0,1,0-7.69,0v.71A.7.7,0,0,0,67.11,107.9Z"/><path class="cls-7" d="M90.79,107.9h6.3a.7.7,0,0,0,.69-.7v-.71a3.85,3.85,0,1,0-7.69,0v.71A.7.7,0,0,0,90.79,107.9Z"/><path class="cls-4" d="M88.85,71.68a2.15,2.15,0,1,1,2.1,2.2A2.15,2.15,0,0,1,88.85,71.68Z"/><path class="cls-4" d="M95.49,72.25a2.15,2.15,0,1,1,2.09,2.2A2.15,2.15,0,0,1,95.49,72.25Z"/><path class="cls-4" d="M91.93,71.5a2.51,2.51,0,1,1,2.44,2.57A2.5,2.5,0,0,1,91.93,71.5Z"/><path class="cls-8" d="M104.08,49.27a.14.14,0,0,0,0,.26l1,.26a.14.14,0,0,1,.09.21,10.33,10.33,0,0,1-3.85,3.53,10.35,10.35,0,0,1,.1-7.25,10.22,10.22,0,0,1,2.19-3.44h.21l.59.77a.14.14,0,0,0,.25-.08l.1-1.67.06-.1a9.45,9.45,0,0,1,1.26-.83.13.13,0,0,1,.2.08,10.28,10.28,0,0,1-.11,7l-.14.17Z"/><path class="cls-9" d="M92.51,38.82a6.6,6.6,0,0,0-4.23,3,2.21,2.21,0,0,1-3.06.7,6.6,6.6,0,0,0-5.11-.82,6.7,6.7,0,0,0-4.85,8L78,61.36l25.14-5.81L100.4,43.9A6.69,6.69,0,0,0,92.51,38.82Z"/><path class="cls-10" d="M78.51,53.09l-.91-3.93a4.75,4.75,0,0,1-.11-1A4.26,4.26,0,0,1,80.69,44h0l.07,0h0a4.47,4.47,0,0,1,1-.11,4.26,4.26,0,0,1,2.24.65.65.65,0,1,0,.69-1.09,5.49,5.49,0,0,0-2.93-.85,5.26,5.26,0,0,0-1.24.15h-.08a5.56,5.56,0,0,0-4.18,5.42,5.49,5.49,0,0,0,.14,1.27l.91,3.93a.64.64,0,0,0,.77.48.65.65,0,0,0,.49-.77Z"/><path class="cls-10" d="M90.33,43.07A4.19,4.19,0,0,1,93,41.18H93a.65.65,0,0,0,.48-.78.64.64,0,0,0-.77-.48h-.06a5.48,5.48,0,0,0-3.45,2.47.65.65,0,0,0,.21.89.66.66,0,0,0,.89-.21Z"/><path class="cls-9" d="M107.8,54.46l-34.56,8a1.45,1.45,0,0,1-.65-2.82l34.56-8a1.45,1.45,0,0,1,1.73,1.08A1.43,1.43,0,0,1,107.8,54.46Z"/><rect class="cls-11" x="76.49" y="51.51" width="25.8" height="4.19" transform="translate(-9.77 21.49) rotate(-13)"/><path class="cls-10" d="M73.44,61.31,87.76,58a.65.65,0,1,0-.29-1.26l-14.32,3.3a.65.65,0,0,0-.48.78.64.64,0,0,0,.77.48"/><path class="cls-10" d="M89.82,57.53l2.06-.48a.64.64,0,1,0-.29-1.25l-2.06.47a.65.65,0,0,0,.29,1.26"/><path class="cls-8" d="M77.33,53.84l.87,3.78a.65.65,0,1,0,1.26-.29l-.87-3.78a.65.65,0,0,0-1.26.29"/><path class="cls-4" d="M88.62,70.12c1.39,2.73,1.14,6.23-.84,7.23s-5-1.06-6.33-3.6-.36-4.69,1.62-5.69S87.34,67.58,88.62,70.12Z"/><path class="cls-7" d="M87.25,71.15c.89,1.75.81,3.95-.35,4.54s-3-.78-3.86-2.4-.32-3,.84-3.56S86.43,69.53,87.25,71.15Z"/><circle class="cls-5" cx="95.71" cy="80.92" r="4.19"/><path class="cls-5" d="M108.94,88.53A7.44,7.44,0,1,0,101.51,96,7.42,7.42,0,0,0,108.94,88.53Z"/><circle class="cls-12" cx="96.04" cy="80.75" r="1.26"/><path class="cls-12" d="M106.77,80.46a1.18,1.18,0,0,1-2.35,0,1.18,1.18,0,1,1,2.35,0Z"/><path class="cls-12" d="M102.88,86.77h0a2.42,2.42,0,0,1-2.22-1.44l-.26-.58a.68.68,0,0,1,.62-1h3.71a.68.68,0,0,1,.63,1l-.26.58A2.42,2.42,0,0,1,102.88,86.77Z"/><path class="cls-12" d="M102.44,85.87v0a7.18,7.18,0,0,1-.85,2.21.44.44,0,0,0,.15.61.45.45,0,0,0,.61-.15,7.93,7.93,0,0,0,1-2.57.43.43,0,0,0-.36-.51.44.44,0,0,0-.51.36Z"/><path class="cls-12" d="M105.37,89.86a3.66,3.66,0,1,1-6.79-2.72c.75-1.87,1.52.61,3.4,1.36S106.12,88,105.37,89.86Z"/><g class="cls-13"><rect class="cls-14" x="102.01" y="88.08" width="1.94" height="1.4" rx="0.32" ry="0.32" transform="translate(-17.76 151.3) rotate(-68.14)"/><rect class="cls-14" x="100.11" y="87.33" width="1.94" height="1.4" rx="0.32" ry="0.32" transform="translate(-18.26 149.07) rotate(-68.14)"/><path class="cls-7" d="M97.94,92.65h0a1.35,1.35,0,0,1-.75-1.75l.39-1a1.34,1.34,0,1,1,2.49,1l-.38,1A1.36,1.36,0,0,1,97.94,92.65Z"/></g><path class="cls-7" d="M93.25,84.7a1.83,1.83,0,1,1-2-1.71A1.83,1.83,0,0,1,93.25,84.7Z"/><path class="cls-7" d="M110.73,83.27a1.71,1.71,0,1,1-1.83-1.6A1.72,1.72,0,0,1,110.73,83.27Z"/></svg>