<svg id="Layer_1" data-name="Layer 1" xmlns="http://www.w3.org/2000/svg" viewBox="0 0 160 160"><defs><style>.cls-1{fill:#fd4a46;}</style></defs><title>Artboard 60</title><polygon class="cls-1" points="78.74 56.87 78.74 98.83 66.87 98.83 66.87 82.46 50.69 82.46 50.69 98.83 38.82 98.83 38.82 56.87 50.69 56.87 50.69 72.63 66.87 72.63 66.87 56.87 78.74 56.87"/><path class="cls-1" d="M117.49,69.4q3.69,3.6,3.69,10.85V98.83H109.79V82.11q0-6.66-5.33-6.66a6.1,6.1,0,0,0-4.71,1.92Q98,79.29,98,83.12V98.83H86.59V54.35H98v15a12.47,12.47,0,0,1,4.38-2.64,15.88,15.88,0,0,1,5.39-.9A13.34,13.34,0,0,1,117.49,69.4Z"/></svg>