<svg id="Layer_1" data-name="Layer 1" xmlns="http://www.w3.org/2000/svg" viewBox="0 0 160 160"><defs><style>.cls-1{fill:#ffd31e;}</style></defs><title>Artboard 62_1</title><path class="cls-1" d="M84.23,61a5.82,5.82,0,0,1,0-8.64,7.21,7.21,0,0,1,5-1.73,7.51,7.51,0,0,1,5,1.64,5.35,5.35,0,0,1,1.91,4.23A5.84,5.84,0,0,1,94.3,61a8.14,8.14,0,0,1-10.07,0Zm-.66,5.33H95V98.83H83.57Z"/><polygon class="cls-1" points="75.65 64.23 75.65 91.74 79.4 91.74 79.4 98.83 60.51 98.83 60.51 91.74 63.79 91.74 63.79 64.23 60.51 64.23 60.51 57.14 63.79 57.14 63.79 56.87 75.65 56.87 75.65 57.14 79.4 57.14 79.4 64.23 75.65 64.23"/></svg>