<svg id="Layer_1" data-name="Layer 1" xmlns="http://www.w3.org/2000/svg" xmlns:xlink="http://www.w3.org/1999/xlink" viewBox="0 0 160 160"><defs><style>.cls-1{fill:none;}.cls-2{fill:#f3f3f3;}.cls-3{fill:#b3d7f2;}.cls-4{fill:#c1e0f7;}.cls-5{clip-path:url(#clip-path);}.cls-6{fill:#d7ebfd;}.cls-7{fill:#fff;}.cls-8{fill:#cedee6;}.cls-9{fill:#b0d3e9;}.cls-10{fill:#bddaec;}.cls-11{fill:#d6e6ee;}.cls-12{fill:#6d95b2;}.cls-13{fill:#3daf5d;}.cls-14{fill:#4bc467;}.cls-15{fill:#349b4c;}.cls-16{fill:#504e4e;}.cls-17{fill:#ff486b;}.cls-18{fill:#dd3e3e;}</style><clipPath id="clip-path"><path class="cls-1" d="M115.32,76.89c0,.53-70.5.68-70.5,0a35.25,35.25,0,0,1,70.5,0"/></clipPath></defs><title>Artboard 62</title><path class="cls-2" d="M44.83,76.17c-1.73.44-2.68.92-2.68,1.43,0,2.12,16.88,3.83,37.7,3.83s37.7-1.71,37.7-3.83c0-.46-.79-.9-2.24-1.31,0,.2,0,.4,0,.6s-7.56.31-17.71.38c-.61,0-1.86.07-3.54.09a14.45,14.45,0,0,1,.2,2.39c0,.11-8,.18-15.52.18-6.63,0-12.88-.05-12.88-.18a14.85,14.85,0,0,1,.19-2.33c-3.06,0-5.4-.07-6.36-.13-8.7-.07-14.88-.2-14.88-.4s0-.48,0-.72"/><path class="cls-3" d="M57.33,47.2h-.26a1.15,1.15,0,1,1-1.15-1.14,1.15,1.15,0,0,1,1.15,1.14h.53a1.68,1.68,0,1,0-1.68,1.68A1.68,1.68,0,0,0,57.6,47.2Z"/><path class="cls-4" d="M115.32,76.89c0,.53-70.5.68-70.5,0a35.25,35.25,0,0,1,70.5,0"/><g class="cls-5"><rect class="cls-6" x="56.55" y="51.18" width="11.49" height="9.18" rx="1.85" ry="1.85"/><path class="cls-6" d="M78,60.36H70.2a1.85,1.85,0,0,1-1.85-1.85V53a1.85,1.85,0,0,1,1.85-1.85H78A1.85,1.85,0,0,1,79.85,53v5.48A1.85,1.85,0,0,1,78,60.36"/><rect class="cls-6" x="44.75" y="51.18" width="11.49" height="9.18" rx="2.28" ry="2.28"/><rect class="cls-6" x="103.75" y="51.18" width="11.49" height="9.18" rx="1.85" ry="1.85"/><rect class="cls-6" x="91.95" y="51.18" width="11.49" height="9.18" rx="2.28" ry="2.28"/><path class="cls-6" d="M89.37,60.36H82.43a2.28,2.28,0,0,1-2.28-2.28V53.46a2.28,2.28,0,0,1,2.28-2.28h6.94a2.28,2.28,0,0,1,2.28,2.28v4.62a2.28,2.28,0,0,1-2.28,2.28"/><path class="cls-6" d="M66.19,69.89H58.4A1.85,1.85,0,0,1,56.55,68V62.56a1.85,1.85,0,0,1,1.85-1.85h7.79a1.85,1.85,0,0,1,1.86,1.85V68a1.85,1.85,0,0,1-1.86,1.85"/><path class="cls-6" d="M78,69.89H70.2A1.85,1.85,0,0,1,68.35,68V62.56a1.85,1.85,0,0,1,1.85-1.85H78a1.85,1.85,0,0,1,1.86,1.85V68A1.85,1.85,0,0,1,78,69.89"/><rect class="cls-6" x="44.75" y="60.71" width="11.49" height="9.18" rx="2.28" ry="2.28"/><rect class="cls-6" x="103.75" y="60.71" width="11.49" height="9.18" rx="1.85" ry="1.85"/><path class="cls-6" d="M101.17,69.89H94.23A2.28,2.28,0,0,1,92,67.61V63a2.28,2.28,0,0,1,2.28-2.28h6.94A2.28,2.28,0,0,1,103.45,63v4.62a2.28,2.28,0,0,1-2.28,2.28"/><path class="cls-6" d="M89.37,69.89H82.43a2.28,2.28,0,0,1-2.28-2.28V63a2.28,2.28,0,0,1,2.28-2.28h6.94A2.28,2.28,0,0,1,91.65,63v4.62a2.28,2.28,0,0,1-2.28,2.28"/><path class="cls-6" d="M66.19,79.43H58.4a1.85,1.85,0,0,1-1.85-1.85V72.1a1.85,1.85,0,0,1,1.85-1.85h7.79a1.85,1.85,0,0,1,1.86,1.85v5.48a1.85,1.85,0,0,1-1.86,1.85"/><path class="cls-6" d="M78,79.43H70.2a1.85,1.85,0,0,1-1.85-1.85V72.1a1.85,1.85,0,0,1,1.85-1.85H78a1.85,1.85,0,0,1,1.86,1.85v5.48A1.85,1.85,0,0,1,78,79.43"/><rect class="cls-6" x="44.75" y="70.25" width="11.49" height="9.18" rx="2.28" ry="2.28"/><rect class="cls-6" x="103.75" y="70.25" width="11.49" height="9.18" rx="1.85" ry="1.85"/><path class="cls-6" d="M101.17,79.43H94.23A2.28,2.28,0,0,1,92,77.15V72.53a2.28,2.28,0,0,1,2.28-2.28h6.94a2.28,2.28,0,0,1,2.28,2.28v4.62a2.28,2.28,0,0,1-2.28,2.28"/><path class="cls-6" d="M89.37,79.43H82.43a2.28,2.28,0,0,1-2.28-2.28V72.53a2.28,2.28,0,0,1,2.28-2.28h6.94a2.28,2.28,0,0,1,2.28,2.28v4.62a2.28,2.28,0,0,1-2.28,2.28"/><rect class="cls-6" x="56.55" y="41.76" width="11.49" height="9.18" rx="1.85" ry="1.85"/><rect class="cls-6" x="68.35" y="41.76" width="11.49" height="9.18" rx="1.85" ry="1.85"/><rect class="cls-6" x="44.75" y="41.76" width="11.49" height="9.18" rx="2.28" ry="2.28"/><rect class="cls-6" x="103.75" y="41.76" width="11.49" height="9.18" rx="1.85" ry="1.85"/><rect class="cls-6" x="91.95" y="41.76" width="11.49" height="9.18" rx="2.28" ry="2.28"/><rect class="cls-6" x="80.15" y="41.76" width="11.49" height="9.18" rx="2.28" ry="2.28"/></g><path class="cls-7" d="M94.27,79.75c0,.21-28.4.27-28.4,0a14.2,14.2,0,1,1,28.4,0"/><path class="cls-4" d="M60,45.77l.09-.06a35.3,35.3,0,0,1,19.09-6.07,27.77,27.77,0,0,1,4.57.37.3.3,0,1,0,.1-.6A29.06,29.06,0,0,0,79.17,39a35.87,35.87,0,0,0-19.53,6.25.3.3,0,0,0-.07.42.3.3,0,0,0,.42.06Z"/><path class="cls-8" d="M59.7,77.29c1,.06,3.3.1,6.36.13l0-.09-6.38,0m37.91,0-3.55,0v.06c1.68,0,2.93,0,3.54-.09"/><path class="cls-9" d="M91.65,64v3.59a2.28,2.28,0,0,1-1.5,2.14A13.61,13.61,0,0,1,92,72.05a2.28,2.28,0,0,1,2.23-1.8h2.26l-.17-.36H94.23A2.28,2.28,0,0,1,92,67.61V64.28l-.3-.26M68.42,62.08l-.39.23a2.11,2.11,0,0,1,0,.25V68a1.85,1.85,0,0,1-1.86,1.85H60.93c-.06.12-.12.24-.17.36h5.43a1.85,1.85,0,0,1,1.86,1.85v.1a6.49,6.49,0,0,1,.36-.55,1.87,1.87,0,0,1,.91-1.18l.56-.61A1.85,1.85,0,0,1,68.35,68V62.56a1.92,1.92,0,0,1,.07-.48m11.17-2.63a1.87,1.87,0,0,1-1.6.91H72.41l-1,.35H78a1.85,1.85,0,0,1,1.86,1.85v3h.3V63a2.28,2.28,0,0,1,2.28-2.28h3.46l-1-.35H82.43a2.28,2.28,0,0,1-1.76-.84c-.36,0-.72-.06-1.08-.07"/><path class="cls-10" d="M78.62,59.42a20.79,20.79,0,0,0-6.21.94H78a1.87,1.87,0,0,0,1.6-.91c-.32,0-.64,0-1,0"/><path class="cls-10" d="M80.67,59.52a2.28,2.28,0,0,0,1.76.84h2.41a20.42,20.42,0,0,0-4.17-.84"/><path class="cls-10" d="M68,62.31a18.35,18.35,0,0,0-7.1,7.58h5.26A1.85,1.85,0,0,0,68.05,68V62.56a2.11,2.11,0,0,0,0-.25"/><path class="cls-10" d="M78,60.71H71.36a19.71,19.71,0,0,0-2.94,1.37,1.92,1.92,0,0,0-.07.48V68a1.85,1.85,0,0,0,1.53,1.82,14.15,14.15,0,0,1,10-4.31v-3A1.85,1.85,0,0,0,78,60.71"/><path class="cls-10" d="M92,64.28v3.33a2.28,2.28,0,0,0,2.28,2.28h2.09A18.09,18.09,0,0,0,92,64.28"/><path class="cls-10" d="M85.89,60.71H82.43A2.28,2.28,0,0,0,80.15,63v2.56a14.16,14.16,0,0,1,10,4.2,2.28,2.28,0,0,0,1.5-2.14V64a19.9,19.9,0,0,0-5.76-3.31"/><path class="cls-10" d="M66.19,70.25H60.76a16.43,16.43,0,0,0-1.55,7,1.61,1.61,0,0,0,.49.06l6.38,0a14,14,0,0,1,2-5.13v-.1a1.85,1.85,0,0,0-1.86-1.85"/><path class="cls-10" d="M69.32,70.47a1.87,1.87,0,0,0-.91,1.18,14.81,14.81,0,0,1,.91-1.18"/><path class="cls-10" d="M96.49,70.25H94.23A2.28,2.28,0,0,0,92,72.05a14.14,14.14,0,0,1,2.06,5.25l3.55,0a1.84,1.84,0,0,0,.43,0,16.58,16.58,0,0,0-1.55-7"/><path class="cls-11" d="M80.07,65.55h-.22a14.15,14.15,0,0,0-10,4.31l-.56.61a14.81,14.81,0,0,0-.91,1.18,6.49,6.49,0,0,0-.36.55,14,14,0,0,0-2,5.13h0l0,.09c3.07,0,6.87,0,10.77,0,6.44,0,13.13,0,17.24-.1V77.3h0A14.14,14.14,0,0,0,92,72.05a13.61,13.61,0,0,0-1.85-2.3,14.16,14.16,0,0,0-10-4.2h-.08"/><path class="cls-4" d="M99.48,79.56c0,.3-38.82.38-38.82,0a19.41,19.41,0,0,1,38.82,0Z"/><path class="cls-12" d="M94.24,79.64c0,.22-28.37.28-28.37,0a14.19,14.19,0,0,1,28.37,0Z"/><path class="cls-2" d="M78.41,102c-12.85,0-23.27,1-23.27,2.27s10.42,2.26,23.27,2.26,23.26-1,23.26-2.26S91.25,102,78.41,102"/><path class="cls-13" d="M66,76.21a12.18,12.18,0,0,0,.3,3.41,23,23,0,0,0,.86,2.8c.49-.32.91-.63,1.32-.9a12,12,0,0,1,1.22-.74l-2.47-5C67,75.31,66.06,75.6,66,76.21Z"/><path class="cls-13" d="M70.93,74.35a13.51,13.51,0,0,0-1.2,6.43,9.91,9.91,0,0,1,3.09-.86l-.74-5.47A.61.61,0,0,0,70.93,74.35Z"/><path class="cls-13" d="M75.64,74a24.1,24.1,0,0,0-1.61,3,27.41,27.41,0,0,0-1.21,3c.61-.09,1.22-.1,1.83-.16s1.23,0,1.84,0l.23-5.48A.59.59,0,0,0,75.64,74Z"/><path class="cls-13" d="M80.32,74.41A25.82,25.82,0,0,0,78.21,77c-.32.45-.62.91-.91,1.36s-.55.9-.81,1.39c.31,0,.61.05.92.07l.91.08.9.15a6.8,6.8,0,0,1,.9.17l1.21-5.32a.52.52,0,0,0-.31-.61A.6.6,0,0,0,80.32,74.41Z"/><path class="cls-13" d="M84.84,75.68c-.9.69-1.74,1.4-2.53,2.14a28.82,28.82,0,0,0-2.19,2.39,18,18,0,0,1,1.78.48l.88.28c.29.1.57.23.86.35l2.1-5A.59.59,0,0,0,84.84,75.68Z"/><path class="cls-13" d="M89,77.73c-.49.26-1,.5-1.44.79s-.93.57-1.38.86-.89.61-1.31.92-.85.67-1.25,1c.28.12.57.22.85.36l.84.41c.56.26,1.08.62,1.63.91l2.84-4.48C90.09,78.07,89.51,77.48,89,77.73Z"/><path class="cls-13" d="M92.78,80.39a32,32,0,0,0-3,1.16c-.49.22-1,.45-1.43.7s-.93.48-1.39.75c.27.16.53.35.79.52s.53.34.79.53c.49.39,1,.74,1.5,1.17l3.39-3.94a.56.56,0,0,0,0-.67A.57.57,0,0,0,92.78,80.39Z"/><path class="cls-13" d="M96.09,83.52c-1,.19-2.08.43-3.08.71a30.41,30.41,0,0,0-3,1l.73.62c.24.2.46.44.7.65.47.44.92.9,1.36,1.37l3.77-3.38A.58.58,0,0,0,96.09,83.52Z"/><path class="cls-13" d="M98.93,87c-1,0-2.05.14-3.07.28s-2,.31-3,.55c.46.46.86,1,1.29,1.45s.8,1,1.21,1.53l4-2.81C99.74,87.75,99.45,87,98.93,87Z"/><path class="cls-14" d="M67.1,98.08l.87-.74-.87.73h0l.87-.74-.87.73h0a6.05,6.05,0,0,1,.6,1,3.65,3.65,0,0,1,.44,1.61,1.83,1.83,0,0,1-.1.62,1.85,1.85,0,0,1-.36.62,1.87,1.87,0,0,0,2.87,2.41,5.73,5.73,0,0,0,1-1.81,5.8,5.8,0,0,0,.3-1.84,7.55,7.55,0,0,0-1-3.54,9.19,9.19,0,0,0-1-1.46,1.88,1.88,0,0,0-2.86,2.43Z"/><path class="cls-15" d="M60,96.76l.85-.62-.86.61h0l.85-.62-.86.61,0,.07a7.36,7.36,0,0,1,.58,1.08A4.38,4.38,0,0,1,61,99.49a1.66,1.66,0,0,1-.1.61,1.5,1.5,0,0,1-.31.54,1.87,1.87,0,1,0,2.81,2.48,5.57,5.57,0,0,0,1.05-1.79,5.85,5.85,0,0,0,.3-1.84A8.17,8.17,0,0,0,63.88,96,9.22,9.22,0,0,0,63,94.54a1.87,1.87,0,0,0-3,2.22Z"/><path class="cls-15" d="M96.64,89.4a49.1,49.1,0,0,1,7.88,1.51,28.42,28.42,0,0,1,7.67,3.35,15.14,15.14,0,0,1,3.48,3,9.33,9.33,0,0,1,2.12,4.76,8.64,8.64,0,0,1-.92,5.11,9,9,0,0,1-3.47,3.5,15.58,15.58,0,0,1-8.25,1.8c-.66,0-1.34-.07-2-.14l-1.85-.22-3.69-.49c-2.45-.33-4.89-.71-7.3-.94a15.79,15.79,0,0,0-3.5,0,3.36,3.36,0,0,0-2.64,1.53h0a.51.51,0,0,1-.89-.48,4.05,4.05,0,0,1,1.33-1.64,5.76,5.76,0,0,1,1.9-.85,17.28,17.28,0,0,1,3.86-.45c2.52-.07,5,0,7.45,0l3.68,0h1.84c.59,0,1.14,0,1.71-.08a11.46,11.46,0,0,0,5.87-1.91,4.21,4.21,0,0,0,1.47-1.86,3.4,3.4,0,0,0,.07-2.1c-.29-1.18-1.62-2.41-3.43-3.28a22.09,22.09,0,0,0-6.11-1.83,40.8,40.8,0,0,0-6.75-.5,4,4,0,1,1,0-7.91,3.24,3.24,0,0,1,.45,0Z"/><path class="cls-15" d="M87.53,94.15a8.13,8.13,0,0,0-3.09.86,6.7,6.7,0,0,0-2.32,1.93,7,7,0,0,0-1.34,3.56,1.87,1.87,0,1,0,3.73.37,3.27,3.27,0,0,1,.6-1.68,2.84,2.84,0,0,1,.75-.68A4.11,4.11,0,0,1,87.15,98a2.8,2.8,0,0,1,.44-.08h.11l-.06-1,0,1h0l-.06-1,0,1a1.88,1.88,0,0,0-.15-3.75Z"/><path class="cls-15" d="M101.94,93.8c-.76,5.17-42.64,8.8-42.64,1,0-9.33,6.3-15.45,16.82-15.45S94.35,86.36,101.94,93.8Z"/><path class="cls-14" d="M77.74,82c0,.58-.76,1-1.69,1s-1.69-.47-1.69-1,.76-1,1.69-1S77.74,81.44,77.74,82Z"/><path class="cls-14" d="M73.74,83.94c0,.58-.76,1-1.69,1s-1.69-.46-1.69-1,.76-1,1.69-1S73.74,83.36,73.74,83.94Z"/><path class="cls-14" d="M82,83.6c0,.4-.53.73-1.19.73s-1.19-.33-1.19-.73.53-.74,1.19-.74S82,83.19,82,83.6Z"/><path class="cls-14" d="M78.7,84.85c0,.32-.42.59-1,.59s-1-.27-1-.59.43-.6,1-.6S78.7,84.52,78.7,84.85Z"/><path class="cls-14" d="M88.93,97.79l.34-1-.35,1h0l.34-1-.35,1h0A6.13,6.13,0,0,1,90.8,99a5.46,5.46,0,0,1,1.73,3.52,1.88,1.88,0,0,0,3.73-.41A9.27,9.27,0,0,0,95,98.38a9.68,9.68,0,0,0-3-3.19,8.67,8.67,0,0,0-1.81-.93,1.87,1.87,0,1,0-1.24,3.53Z"/><path class="cls-15" d="M61.32,89.83H63.9a.31.31,0,0,0,0-.61H61.32a.31.31,0,1,0,0,.61"/><path class="cls-15" d="M85,101.67a3.34,3.34,0,0,0-4.73,0,1,1,0,0,0,1.44,1.43,1.33,1.33,0,0,1,1.86,0A1,1,0,0,0,85,101.67Z"/><path class="cls-14" d="M97.21,103.39a3.33,3.33,0,0,0-4.72,0,1,1,0,0,0,1.43,1.43,1.33,1.33,0,0,1,.93-.38,1.29,1.29,0,0,1,.93.38,1,1,0,0,0,1.43-1.43Z"/><path class="cls-15" d="M64.09,102.23a3.69,3.69,0,0,0-5.22,0,1.36,1.36,0,0,0,1.93,1.93,1,1,0,0,1,1.36,0,1.36,1.36,0,0,0,1.93-1.93Z"/><path class="cls-14" d="M71.39,103.4a3.68,3.68,0,0,0-5.23,0,1.35,1.35,0,0,0,0,1.93,1.37,1.37,0,0,0,1.93,0,1,1,0,0,1,1.36,0,1.37,1.37,0,1,0,1.94-1.93Z"/><path class="cls-13" d="M62.48,81.85v8.69a.41.41,0,0,0,.81,0V81.85a.41.41,0,0,0-.81,0"/><path class="cls-14" d="M67.1,89.17l-2.69,2.69a5.81,5.81,0,0,1-8.22,0l-3.65-3.65a4.45,4.45,0,0,1,0-6.3l3.65-3.65a5.81,5.81,0,0,1,8.22,0L67.1,81A5.81,5.81,0,0,1,67.1,89.17Z"/><path class="cls-14" d="M64.29,80.65v3.84a4.11,4.11,0,0,1-4.11,4.11H53.67a5.48,5.48,0,0,1-3.08-10l1.61-1.1a5.56,5.56,0,0,1,3.09-.94h4.89A4.11,4.11,0,0,1,64.29,80.65Z"/><path class="cls-13" d="M58.92,86a4.63,4.63,0,1,0-4.32-4.93A4.63,4.63,0,0,0,58.92,86Z"/><path class="cls-14" d="M58.91,85a3.63,3.63,0,1,0-3.39-3.85A3.63,3.63,0,0,0,58.91,85Z"/><path class="cls-7" d="M58.52,83.71A2.74,2.74,0,1,0,56,80.8,2.74,2.74,0,0,0,58.52,83.71Z"/><path class="cls-16" d="M57.24,81.16a.91.91,0,1,0-.85-1A.92.92,0,0,0,57.24,81.16Z"/><path class="cls-16" d="M51.19,82.79a.68.68,0,1,1,.68.67A.68.68,0,0,1,51.19,82.79Z"/><path class="cls-16" d="M49.25,82.79a.49.49,0,0,1,1,0,.49.49,0,0,1-1,0Z"/><path class="cls-16" d="M52.85,84.53a.26.26,0,0,1,.23.37,2.07,2.07,0,0,1-3.62,0,.25.25,0,0,1,.22-.37Z"/><circle class="cls-17" cx="55.08" cy="84.39" r="0.9"/><circle class="cls-17" cx="47.83" cy="84.39" r="0.9"/><path class="cls-13" d="M60,92.62a1.94,1.94,0,1,0-1.81-2.06A1.95,1.95,0,0,0,60,92.62Z"/><path class="cls-14" d="M60.1,91.68a1,1,0,0,0,1.06-.93,1,1,0,0,0-2-.13A1,1,0,0,0,60.1,91.68Z"/><path class="cls-13" d="M105.58,91.23l.11,0A3.47,3.47,0,0,1,104,98h-.06l-.09,0a3.48,3.48,0,0,1,1.34-6.83l.39.1Z"/><path class="cls-13" d="M114.2,95.78l.1.08a3,3,0,0,1-3.7,4.68l-.1-.07-.06,0a3,3,0,0,1,3.42-4.92l.28.22Z"/><path class="cls-13" d="M117.23,106.41l-.06.14a2.5,2.5,0,0,1-4.72-1.61l0-.19v-.06a2.52,2.52,0,1,1,4.87,1.29,1.73,1.73,0,0,1-.11.32Z"/><path class="cls-13" d="M108.72,112.26l-.12,0a2,2,0,0,1-.84-4h0l.09,0a2,2,0,0,1,1.08,3.92l-.23.05Z"/><path class="cls-13" d="M99.78,111.91h-.1a1.54,1.54,0,0,1,.21-3.06H100a1.55,1.55,0,1,1,0,3.09Z"/><path class="cls-13" d="M91.42,110.79h-.11a1,1,0,0,1-.9-1.13,1,1,0,0,1,1-.9h.11a1,1,0,0,1,1,1,1,1,0,0,1-1,1Z"/><path class="cls-13" d="M84.22,112.14l0,0h0a.51.51,0,0,1-.89-.48l0,0h0a.51.51,0,1,1,.93.43Z"/><path class="cls-17" d="M57.86,76.5h0a1,1,0,0,1,.48-1.28l2.07-1a2.88,2.88,0,0,1,3.87,1.17l1,1.94a1,1,0,0,1-.48,1.28Z"/><path class="cls-18" d="M62.61,75.09h0a1.88,1.88,0,1,1,2.1-1.63A1.88,1.88,0,0,1,62.61,75.09Z"/></svg>