<svg id="Layer_1" data-name="Layer 1" xmlns="http://www.w3.org/2000/svg" xmlns:xlink="http://www.w3.org/1999/xlink" viewBox="0 0 160 160"><defs><style>.cls-1{fill:none;}.cls-2{fill:#8dafc4;}.cls-3{fill:#eef9ff;}.cls-4{fill:#6d95b2;}.cls-5{fill:#517a93;}.cls-6{fill:#285268;}.cls-7{fill:#457892;}.cls-8{fill:#d7ebfd;}.cls-9{fill:#91cdf2;}.cls-10{fill:#e54d8a;}.cls-11{fill:#efdfb1;}.cls-12{fill:#f9f1de;}.cls-13{fill:#5e1100;}.cls-14{fill:#620e00;}.cls-15{clip-path:url(#clip-path);}.cls-16{fill:#fffed9;}.cls-17{fill:#ff66a1;}.cls-18{fill:#d1866f;}.cls-19{clip-path:url(#clip-path-2);}.cls-20{fill:#e59a89;}</style><clipPath id="clip-path"><path class="cls-1" d="M60.7,73a1.58,1.58,0,0,1-3.16,0c0-.87.71,0,1.58,0s1.58-.87,1.58,0"/></clipPath><clipPath id="clip-path-2"><path class="cls-1" d="M67.58,59.65a2.08,2.08,0,0,0-2.08-2.08H48a2.09,2.09,0,0,0-2.08,2.08v.51a2.56,2.56,0,0,0,.39,1.34,1.84,1.84,0,0,0-.3,1,1.83,1.83,0,0,0,3.59.47,1.83,1.83,0,0,0,3.57-.17,1.83,1.83,0,0,0,3.63-.11h0a1.83,1.83,0,0,0,3.65,0h0v.1a1.83,1.83,0,0,0,3.57.55,1.83,1.83,0,1,0,3.13-1.79,2.48,2.48,0,0,0,.42-1.4v-.51"/></clipPath></defs><title>Artboard 63</title><path class="cls-2" d="M65.27,80.45H47.86A2.87,2.87,0,0,1,45,77.59V67.3a6,6,0,0,1,6-6H62.12a6,6,0,0,1,6,6V77.59A2.86,2.86,0,0,1,65.27,80.45Z"/><path class="cls-3" d="M64.27,79.35H48.86a2.54,2.54,0,0,1-2.53-2.53V67.71a5.33,5.33,0,0,1,5.32-5.31h9.83a5.33,5.33,0,0,1,5.32,5.31v9.11A2.54,2.54,0,0,1,64.27,79.35Z"/><path class="cls-4" d="M84.28,103.76a1.13,1.13,0,0,1-1.13-1.13A7.37,7.37,0,0,1,84.7,98a5.47,5.47,0,0,0,0-6.76,7.74,7.74,0,0,1,0-9.29,5.47,5.47,0,0,0,0-6.76,7.72,7.72,0,0,1,0-9.28,5.19,5.19,0,0,0,1.17-3.38,1.13,1.13,0,1,1,2.26,0,7.37,7.37,0,0,1-1.55,4.64,5.47,5.47,0,0,0,0,6.76,7.74,7.74,0,0,1,0,9.29,5.45,5.45,0,0,0,0,6.75,7.74,7.74,0,0,1,0,9.29,5.17,5.17,0,0,0-1.17,3.38A1.12,1.12,0,0,1,84.28,103.76Z"/><path class="cls-4" d="M89.52,103.76a1.13,1.13,0,0,1-1.13-1.13A7.32,7.32,0,0,1,89.94,98a5.5,5.5,0,0,0,0-6.76,7.74,7.74,0,0,1,0-9.29,5.5,5.5,0,0,0,0-6.76,7.72,7.72,0,0,1,0-9.28,5.19,5.19,0,0,0,1.16-3.38,1.13,1.13,0,1,1,2.26,0,7.32,7.32,0,0,1-1.55,4.64,5.5,5.5,0,0,0,0,6.76,7.74,7.74,0,0,1,0,9.29,5.49,5.49,0,0,0,0,6.75,7.74,7.74,0,0,1,0,9.29,5.17,5.17,0,0,0-1.16,3.38,1.13,1.13,0,0,1-1.13,1.13"/><path class="cls-4" d="M94.75,103.76a1.13,1.13,0,0,1-1.13-1.13A7.37,7.37,0,0,1,95.17,98a5.47,5.47,0,0,0,0-6.76,7.74,7.74,0,0,1,0-9.29,5.47,5.47,0,0,0,0-6.76,7.72,7.72,0,0,1,0-9.28,5.19,5.19,0,0,0,1.17-3.38,1.13,1.13,0,1,1,2.26,0,7.37,7.37,0,0,1-1.55,4.64,5.5,5.5,0,0,0,0,6.76,7.74,7.74,0,0,1,0,9.29,5.49,5.49,0,0,0,0,6.75,7.74,7.74,0,0,1,0,9.29,5.17,5.17,0,0,0-1.16,3.38A1.13,1.13,0,0,1,94.75,103.76Z"/><path class="cls-4" d="M100,103.76a1.13,1.13,0,0,1-1.13-1.13A7.32,7.32,0,0,1,100.41,98a5.5,5.5,0,0,0,0-6.76,7.74,7.74,0,0,1,0-9.29,5.5,5.5,0,0,0,0-6.76,7.72,7.72,0,0,1,0-9.28,5.19,5.19,0,0,0,1.16-3.38,1.13,1.13,0,1,1,2.26,0,7.32,7.32,0,0,1-1.55,4.64,5.5,5.5,0,0,0,0,6.76,7.74,7.74,0,0,1,0,9.29,5.49,5.49,0,0,0,0,6.75,7.74,7.74,0,0,1,0,9.29,5.17,5.17,0,0,0-1.16,3.38A1.13,1.13,0,0,1,100,103.76Z"/><path class="cls-4" d="M63.14,83.13a18.81,18.81,0,0,1-11.38-3.79,1.13,1.13,0,1,1,1.35-1.81,16.61,16.61,0,0,0,10,3.34A16.79,16.79,0,0,0,79.91,64.1a1.13,1.13,0,1,1,2.26,0A19.06,19.06,0,0,1,63.14,83.13Z"/><path class="cls-5" d="M86.51,73.82a5,5,0,0,1-1.1-3.28,5.17,5.17,0,0,1,1.17-3.38,7.37,7.37,0,0,0,1.55-4.64,1.13,1.13,0,1,0-2.26,0A5.19,5.19,0,0,1,84.7,65.9a7.37,7.37,0,0,0-1.55,4.64,7,7,0,0,0,.7,3.23C84.74,73.8,85.63,73.81,86.51,73.82Z"/><path class="cls-5" d="M91.75,73.82a5,5,0,0,1-1.1-3.28,5.17,5.17,0,0,1,1.16-3.38,7.32,7.32,0,0,0,1.55-4.64,1.13,1.13,0,1,0-2.26,0,5.19,5.19,0,0,1-1.16,3.38,7.32,7.32,0,0,0-1.55,4.64,6.94,6.94,0,0,0,.73,3.29h2.63"/><path class="cls-5" d="M97,73.78a5,5,0,0,1-1.07-3.24,5.17,5.17,0,0,1,1.16-3.38,7.37,7.37,0,0,0,1.55-4.64,1.13,1.13,0,1,0-2.26,0,5.19,5.19,0,0,1-1.17,3.38,7.37,7.37,0,0,0-1.55,4.64,7,7,0,0,0,.72,3.26Z"/><path class="cls-5" d="M102.18,73.77a5,5,0,0,1-1.06-3.23,5.17,5.17,0,0,1,1.16-3.38,7.32,7.32,0,0,0,1.55-4.64,1.13,1.13,0,1,0-2.26,0,5.19,5.19,0,0,1-1.16,3.38,7.32,7.32,0,0,0-1.55,4.64,7,7,0,0,0,.7,3.23Z"/><path class="cls-5" d="M79.62,73.58a19,19,0,0,0,2.55-9.48,1.13,1.13,0,1,0-2.26,0,16.71,16.71,0,0,1-2.82,9.28C77.93,73.46,78.77,73.52,79.62,73.58Z"/><path class="cls-2" d="M77.58,70.26A6.36,6.36,0,0,1,71.24,64v-.18A22.53,22.53,0,0,1,93.7,41.25h.08a22.5,22.5,0,0,1,22.54,22.5V64a6.37,6.37,0,0,1-6.34,6.3H77.58"/><path class="cls-4" d="M114.51,64v-.19a20.73,20.73,0,0,0-41.46,0V64a4.53,4.53,0,0,0,4.53,4.49H110a4.53,4.53,0,0,0,4.53-4.5"/><path class="cls-5" d="M95,43.1a22.83,22.83,0,0,1,15.08,21.49v.21a5,5,0,0,1-1.62,3.65H110a4.53,4.53,0,0,0,4.53-4.5v-.19A20.68,20.68,0,0,0,95,43.1Z"/><path class="cls-6" d="M95.1,61.28a.95.95,0,1,1-1-.93A.95.95,0,0,1,95.1,61.28Z"/><path class="cls-6" d="M89.77,61.31a1,1,0,1,1-1-.93A1,1,0,0,1,89.77,61.31Z"/><path class="cls-7" d="M92.58,62.91a.28.28,0,0,0-.27.27v0a.75.75,0,0,1-.74.74h0a.75.75,0,0,1-.75-.74.27.27,0,0,0-.27-.27h0a.28.28,0,0,0-.27.28,1.29,1.29,0,0,0,1.29,1.27h0a1.29,1.29,0,0,0,1.27-1.28v0a.28.28,0,0,0-.27-.27"/><path class="cls-3" d="M84.87,53.45c-1.87,1.87-4.11,2.66-5,1.76s-.1-3.13,1.77-5,4.11-2.66,5-1.76S86.74,51.58,84.87,53.45Z"/><path class="cls-3" d="M82.71,59.07c-.62.62-1.37.88-1.67.59s0-1,.59-1.68,1.37-.89,1.67-.59S83.34,58.44,82.71,59.07Z"/><path class="cls-5" d="M105.77,63.93a1.66,1.66,0,1,1-1.66-1.65A1.66,1.66,0,0,1,105.77,63.93Z"/><path class="cls-5" d="M106.22,60.92a.86.86,0,1,1-.86-.86A.85.85,0,0,1,106.22,60.92Z"/><circle class="cls-5" cx="102.44" cy="60.47" r="0.87"/><path class="cls-8" d="M83.77,78.61h-.34a.79.79,0,1,1-.79-.78.79.79,0,0,1,.79.78h.67a1.46,1.46,0,1,0-1.46,1.46,1.45,1.45,0,0,0,1.46-1.46Z"/><path class="cls-8" d="M107.68,84.12h-.33a1.27,1.27,0,1,1-1.27-1.27,1.28,1.28,0,0,1,1.27,1.27H108a1.94,1.94,0,1,0-1.94,1.94A1.94,1.94,0,0,0,108,84.12Z"/><path class="cls-8" d="M116.22,44h-.33a1.27,1.27,0,1,1-1.27-1.26A1.27,1.27,0,0,1,115.89,44h.67a1.94,1.94,0,1,0-1.94,1.94A1.93,1.93,0,0,0,116.56,44Z"/><path class="cls-8" d="M111.76,93.7h-.26a1,1,0,0,1-2,0,1,1,0,0,1,2,0H112a1.52,1.52,0,1,0-1.51,1.51A1.52,1.52,0,0,0,112,93.7Z"/><path class="cls-9" d="M81.1,91h-.34a1.27,1.27,0,1,1-1.26-1.26A1.26,1.26,0,0,1,80.76,91h.67a1.94,1.94,0,1,0-1.93,1.94A1.92,1.92,0,0,0,81.43,91Z"/><path class="cls-9" d="M104.54,87.49h-.33a.34.34,0,0,1-.34.34.35.35,0,0,1-.35-.34.35.35,0,0,1,.35-.35.35.35,0,0,1,.34.35h.67a1,1,0,1,0-1,1,1,1,0,0,0,1-1Z"/><ellipse class="cls-3" cx="93.78" cy="110.97" rx="9.61" ry="1.51"/><path class="cls-10" d="M64,78.94H49.17a2,2,0,0,1-2-2V67.5H66V77A2,2,0,0,1,64,78.94Z"/><path class="cls-10" d="M47.19,65.83a6.66,6.66,0,0,1,9.18,0c5,4.2,9.63,0,9.63,0v3.83l-18.73,0Z"/><rect class="cls-11" x="50.27" y="67.97" width="16.09" height="8.94" rx="1.01" ry="1.01"/><path class="cls-12" d="M65.35,76.91v-.34H51.29a.67.67,0,0,1-.67-.67V69a.67.67,0,0,1,.67-.67H65.35A.67.67,0,0,1,66,69V75.9a.67.67,0,0,1-.67.67v.69a1.36,1.36,0,0,0,1.36-1.36V69a1.35,1.35,0,0,0-1.36-1.35H51.29A1.35,1.35,0,0,0,49.93,69V75.9a1.36,1.36,0,0,0,1.36,1.36H65.35Z"/><path class="cls-13" d="M54.86,71.27v0a.7.7,0,0,1,.66-.7h0a.71.71,0,0,1,.71.66.19.19,0,0,0,.2.19.21.21,0,0,0,.19-.21,1.11,1.11,0,0,0-1.1-1H55.5a1.1,1.1,0,0,0-1,1.09v.06a.19.19,0,0,0,.2.19.21.21,0,0,0,.19-.21Z"/><path class="cls-13" d="M61.37,71.27v0a.7.7,0,0,1,.67-.7h0a.7.7,0,0,1,.7.66.21.21,0,0,0,.21.19.19.19,0,0,0,.18-.21,1.1,1.1,0,0,0-1.09-1H62a1.09,1.09,0,0,0-1,1.09v.06a.21.21,0,0,0,.21.19.19.19,0,0,0,.18-.21Z"/><path class="cls-14" d="M60.7,73a1.58,1.58,0,0,1-3.16,0c0-.87.71,0,1.58,0S60.7,72.08,60.7,73Z"/><g class="cls-15"><rect class="cls-16" x="58.54" y="71.61" width="1.16" height="1.61" rx="0.27" ry="0.27"/><path class="cls-17" d="M58,75.46h0a.59.59,0,0,1-.58-.58v-.45a.58.58,0,0,1,1.16,0v.45A.59.59,0,0,1,58,75.46Z"/></g><path class="cls-18" d="M65.12,62.62H48.49A2.55,2.55,0,0,1,46,60.08v-.51A2.09,2.09,0,0,1,48,57.49H65.58a2.08,2.08,0,0,1,2.08,2.08v.51A2.54,2.54,0,0,1,65.12,62.62Z"/><path class="cls-18" d="M53.23,62.43A1.83,1.83,0,1,1,51.4,60.6,1.83,1.83,0,0,1,53.23,62.43Z"/><path class="cls-18" d="M49.7,62.43a1.83,1.83,0,1,1-1.83-1.83A1.83,1.83,0,0,1,49.7,62.43Z"/><path class="cls-18" d="M56.84,62.43A1.83,1.83,0,1,1,55,60.6,1.83,1.83,0,0,1,56.84,62.43Z"/><path class="cls-18" d="M60.52,62.58a1.83,1.83,0,1,1-1.83-1.83A1.83,1.83,0,0,1,60.52,62.58Z"/><path class="cls-18" d="M64.19,62.72a1.83,1.83,0,1,1-1.83-1.83A1.82,1.82,0,0,1,64.19,62.72Z"/><circle class="cls-18" cx="65.83" cy="62.65" r="1.83" transform="translate(-0.18 0.19) rotate(-0.17)"/><g class="cls-19"><polyline class="cls-20" points="47.28 53.81 47.28 66.62 47.77 66.62 47.77 53.81"/><polyline class="cls-20" points="49.93 53.81 49.93 66.62 50.42 66.62 50.42 53.81"/><polyline class="cls-20" points="52.67 53.81 52.67 66.62 53.16 66.62 53.16 53.81"/><polyline class="cls-20" points="55.32 53.81 55.32 66.62 55.81 66.62 55.81 53.81"/><polyline class="cls-20" points="57.72 53.81 57.72 66.62 58.21 66.62 58.21 53.81"/><polyline class="cls-20" points="60.38 53.81 60.38 66.62 60.86 66.62 60.86 53.81"/><polyline class="cls-20" points="63.11 53.81 63.11 66.62 63.6 66.62 63.6 53.81"/><polyline class="cls-20" points="65.76 53.81 65.76 66.62 66.25 66.62 66.25 53.81"/><polyline class="cls-20" points="45.87 65.27 67.5 65.27 67.5 64.78 45.87 64.78"/><polyline class="cls-20" points="45.87 62.96 67.5 62.96 67.5 62.48 45.87 62.48"/><polyline class="cls-20" points="45.87 60.42 67.5 60.42 67.5 59.93 45.87 59.93"/><polyline class="cls-20" points="45.87 57.8 67.5 57.8 67.5 57.31 45.87 57.31"/><polyline class="cls-20" points="45.87 55.25 67.5 55.25 67.5 54.76 45.87 54.76"/></g><path class="cls-18" d="M46.42,53.5h-.35a1,1,0,1,1-1-1,1,1,0,0,1,1,1h.71a1.67,1.67,0,1,0-1.67,1.67,1.67,1.67,0,0,0,1.67-1.67Z"/><path class="cls-18" d="M48.42,50.83h-.36a.56.56,0,1,1-.56-.56.56.56,0,0,1,.56.56h.71A1.27,1.27,0,1,0,47.5,52.1a1.28,1.28,0,0,0,1.27-1.27Z"/></svg>