<svg id="Layer_1" data-name="Layer 1" xmlns="http://www.w3.org/2000/svg" viewBox="0 0 160 160"><defs><style>.cls-1{fill:#fd4a46;}</style></defs><title>Artboard 64</title><path class="cls-1" d="M60.64,97.24a15.19,15.19,0,0,1-6.17-4.58L60.94,85c2.24,2.91,4.65,4.37,7.25,4.37a4.91,4.91,0,0,0,3.93-1.56,6.75,6.75,0,0,0,1.35-4.55v-18H59V56H85.21V82.53q0,8.14-4.1,12.23T69,98.83A21.41,21.41,0,0,1,60.64,97.24Z"/><path class="cls-1" d="M83.12,108.48,86,100.39a6.62,6.62,0,0,0,3.54,1A3,3,0,0,0,92,100.27a4.86,4.86,0,0,0,.9-3.18V65.51h11.39V97.15q0,6-3.51,9.5T91,110.16A15.92,15.92,0,0,1,83.12,108.48ZM93.55,60.17a5.81,5.81,0,0,1,0-8.63,7.17,7.17,0,0,1,5-1.74,7.46,7.46,0,0,1,5,1.65,5.35,5.35,0,0,1,1.91,4.23,5.84,5.84,0,0,1-1.91,4.46,8.1,8.1,0,0,1-10.07,0Z"/></svg>