<svg id="Layer_1" data-name="Layer 1" xmlns="http://www.w3.org/2000/svg" xmlns:xlink="http://www.w3.org/1999/xlink" viewBox="0 0 160 160"><defs><style>.cls-1{fill:none;}.cls-2{fill:#e3e3e3;}.cls-3{fill:#d1866f;}.cls-4{fill:#ff66a1;}.cls-5{fill:#ffd31e;}.cls-6{fill:#620e00;}.cls-7{fill:#fffed9;}.cls-8{fill:#d6ecfc;}.cls-9{fill:#3daf5d;}.cls-10{fill:#620d00;}.cls-11{fill:#4ace69;}.cls-12{fill:#707070;}.cls-13{fill:#a3a3a3;}.cls-14{fill:#d3d3d3;}.cls-15{clip-path:url(#clip-path);}.cls-16{fill:#ececec;}.cls-17{fill:#979797;}.cls-18{fill:#b3b3b3;}.cls-19{clip-path:url(#clip-path-2);}</style><clipPath id="clip-path"><path class="cls-1" d="M101.46,101.27a.41.41,0,0,0-.41-.41h-.3a.4.4,0,0,0,.4-.41.41.41,0,0,0-.4-.41h-.39a2.38,2.38,0,0,0-2.17-1.42l-3,0,0-9,3,0a2.38,2.38,0,0,0,0-4.75l-3,0,0-4.38-17.21-.09L78,95.19a8,8,0,0,0,1.48,4.68l-.8.79A.92.92,0,0,0,80,102l.72-.72a8,8,0,0,0,5.32,2l3.48,0h.27l8.41.05a2.36,2.36,0,0,0,1.88-.92h.69a.42.42,0,0,0,.41-.4.42.42,0,0,0-.25-.38h.15a.41.41,0,0,0,.41-.4"/></clipPath><clipPath id="clip-path-2"><path class="cls-1" d="M82.26,82.44a.53.53,0,0,0-.64.7,3.23,3.23,0,0,0,4.84,1.45.52.52,0,0,0-.17-.92l-4-1.23"/></clipPath></defs><title>Artboard 65</title><path class="cls-2" d="M96.08,114.36c-9,0-16,.44-16,1s7.84,1.15,17.52,1.2h1.5c9,0,16-.44,16-1s-7.84-1.15-17.51-1.2H96.08"/><polyline class="cls-3" points="99.84 114.38 95.82 114.36 96.16 52.23 100.18 52.26 99.84 114.38"/><path class="cls-4" d="M52.75,67.4a24.64,24.64,0,0,0,2.16,7.2A19,19,0,0,0,66.05,84.83a11.87,11.87,0,0,1,5.67,3.51,6.11,6.11,0,0,1,1.39,3.94,9,9,0,0,1-.79,3.52,10.77,10.77,0,0,1-.55,1.09l-.17.29,0,.07,0,0a.41.41,0,0,0,.68.47,10.73,10.73,0,0,0,1.72-5.46,7,7,0,0,0-1.57-4.46,12.72,12.72,0,0,0-6-3.77,18.11,18.11,0,0,1-10.66-9.8A24.88,24.88,0,0,1,54,69.38c-.15-.64-.25-1.16-.3-1.51q0-.27-.06-.42a.69.69,0,0,1,0-.13.41.41,0,0,0-.45-.37.41.41,0,0,0-.37.45Z"/><path class="cls-5" d="M66.47,53.18,55.23,71.92a1,1,0,0,1-1.72,0l-11-18.86a1.33,1.33,0,0,1,.22-1.63l11.14-11a1,1,0,0,1,1.41,0l11,11.14A1.34,1.34,0,0,1,66.47,53.18Z"/><path class="cls-6" d="M58.88,52.59a1.23,1.23,0,0,0-2.46,0Z"/><path class="cls-6" d="M52.54,52.55a1.24,1.24,0,1,0-2.47,0Z"/><path class="cls-6" d="M57.48,54.3a3,3,0,0,1-3,3,3.1,3.1,0,0,1-.69-.08A3,3,0,0,1,52,55.88a2.94,2.94,0,0,1-.46-1.61c0-1.19.7-.65,1.71-.26a3.56,3.56,0,0,0,1.27.27,3.06,3.06,0,0,0,1-.17C56.66,53.74,57.48,53,57.48,54.3Z"/><path class="cls-7" d="M55.51,54.11v.11a.73.73,0,0,1-.73.73H54a.73.73,0,0,1-.73-.73V54a3.56,3.56,0,0,0,1.27.27A3.06,3.06,0,0,0,55.51,54.11Z"/><path class="cls-4" d="M53.79,56.81v.37A3,3,0,0,1,52,55.88a1.14,1.14,0,0,1,1.81.93Z"/><path class="cls-4" d="M37.69,51.94a.28.28,0,0,1,.2.08,3.5,3.5,0,0,1,.4.5,1.52,1.52,0,0,0,.37.33,1,1,0,0,0,.57.16h0a1.1,1.1,0,0,0,.71-.26,4.51,4.51,0,0,0,.52-.6.51.51,0,0,1,.15-.15.24.24,0,0,1,.15,0v0h0v0h0A.26.26,0,0,1,41,52a4.35,4.35,0,0,1,.41.51,1.46,1.46,0,0,0,.36.33,1.18,1.18,0,0,0,.57.16.43.43,0,0,0,.42-.41.41.41,0,0,0-.41-.41.33.33,0,0,1-.2-.08,3.5,3.5,0,0,1-.4-.5,1.52,1.52,0,0,0-.37-.33,1,1,0,0,0-.57-.16v0h0a1.1,1.1,0,0,0-.71.26,4,4,0,0,0-.52.6.69.69,0,0,1-.15.15.33.33,0,0,1-.15,0h0a.29.29,0,0,1-.19-.07,4.35,4.35,0,0,1-.41-.51,1.46,1.46,0,0,0-.36-.33,1.18,1.18,0,0,0-.57-.16.43.43,0,0,0-.42.41.41.41,0,0,0,.41.41Z"/><path class="cls-4" d="M71.33,51.3h0a1.13,1.13,0,0,0-.71.26,4,4,0,0,0-.52.61.48.48,0,0,1-.16.14.21.21,0,0,1-.15,0h0v0a.27.27,0,0,1-.2-.07,5.28,5.28,0,0,1-.4-.5,1.16,1.16,0,0,0-.36-.33,1.09,1.09,0,0,0-.58-.16h0a1.1,1.1,0,0,0-.72.25,3.69,3.69,0,0,0-.51.61,1,1,0,0,1-.16.15.3.3,0,0,1-.15,0h0a.41.41,0,0,0-.41.42.43.43,0,0,0,.42.4v0h0v0a1.08,1.08,0,0,0,.71-.26,3.45,3.45,0,0,0,.52-.61.6.6,0,0,1,.16-.14.22.22,0,0,1,.15,0h0a.27.27,0,0,1,.2.07,4.56,4.56,0,0,1,.4.51,1.42,1.42,0,0,0,.36.32,1.09,1.09,0,0,0,.58.16h0a1.1,1.1,0,0,0,.72-.25,3.69,3.69,0,0,0,.51-.61l.16-.15.15,0h0a.41.41,0,0,0,.42-.4.42.42,0,0,0-.41-.42Z"/><path class="cls-8" d="M108,64.4a2,2,0,1,1,2-2A2,2,0,0,1,108,64.4Zm0-3.39a1.41,1.41,0,0,0,0,2.82,1.41,1.41,0,1,0,0-2.82Z"/><path class="cls-9" d="M104.91,103.18a7.37,7.37,0,0,1-4.39-4.8,1.39,1.39,0,0,1,.62-1.59A7.4,7.4,0,0,1,112,101.07a1.38,1.38,0,0,1-.62,1.59A7.41,7.41,0,0,1,104.91,103.18Z"/><line class="cls-10" x1="99.43" y1="97.08" x2="108.94" y2="100.76"/><path class="cls-11" d="M99.35,97.29l9.51,3.68a.23.23,0,0,0,.3-.13.24.24,0,0,0-.13-.29l-9.51-3.68a.23.23,0,0,0-.3.13.24.24,0,0,0,.13.29"/><path class="cls-9" d="M104,111.36a4.71,4.71,0,0,0-2.77,1.19,13.6,13.6,0,0,1,.9-3.57,7.06,7.06,0,0,0-4.18,5.77l4.33-.1A8,8,0,0,1,104,111.36Z"/><path class="cls-9" d="M92,111.29a4.73,4.73,0,0,1,2.76,1.23,13.66,13.66,0,0,0-.86-3.59A7.08,7.08,0,0,1,98,114.75l-4.34-.14A7.84,7.84,0,0,0,92,111.29Z"/><rect class="cls-12" x="69.7" y="86.38" width="0.86" height="2.38" rx="0.3" ry="0.3" transform="translate(-38.06 117.28) rotate(-66.67)"/><rect class="cls-12" x="70.37" y="84.84" width="0.86" height="2.38" rx="0.3" ry="0.3" transform="translate(-36.24 116.94) rotate(-66.66)"/><rect class="cls-12" x="69.73" y="85.5" width="0.86" height="2.38" rx="0.3" ry="0.3" transform="translate(-37.24 116.75) rotate(-66.66)"/><path class="cls-13" d="M83,91.33l-.59,1.37a1.77,1.77,0,0,1-2.32.92l-9.53-4.11a1.78,1.78,0,0,1-.92-2.32l.59-1.37a1.78,1.78,0,0,1,2.32-.92L82.08,89A1.77,1.77,0,0,1,83,91.33"/><rect class="cls-12" x="99.65" y="86.97" width="0.81" height="2.25" rx="0.3" ry="0.3" transform="translate(11.42 187.68) rotate(-89.69)"/><rect class="cls-12" x="99.66" y="85.38" width="0.81" height="2.25" rx="0.3" ry="0.3" transform="translate(13.02 186.1) rotate(-89.69)"/><rect class="cls-12" x="99.96" y="86.19" width="0.81" height="2.25" rx="0.3" ry="0.3" transform="translate(12.51 187.22) rotate(-89.69)"/><rect class="cls-12" x="99.61" y="100.92" width="0.81" height="2.25" rx="0.3" ry="0.3" transform="matrix(0.01, -1, 1, 0.01, -2.54, 201.53)"/><rect class="cls-12" x="99.62" y="99.32" width="0.81" height="2.25" rx="0.3" ry="0.3" transform="matrix(0.01, -1, 1, 0.01, -0.94, 199.95)"/><rect class="cls-12" x="99.92" y="100.14" width="0.81" height="2.25" rx="0.3" ry="0.3" transform="translate(-1.47 201.04) rotate(-89.69)"/><path class="cls-13" d="M95.16,103.34l-11.22-.06a6,6,0,0,1-6-6l.09-16.88,17.21.09-.12,22.88"/><path class="cls-14" d="M93.57,98.59h1.61l0-9H93.62a3.35,3.35,0,0,0-3.37,3.33v2.32A3.34,3.34,0,0,0,93.57,98.59Z"/><rect class="cls-13" x="91.6" y="94.39" width="4.75" height="13.16" rx="1.77" ry="1.77" transform="translate(-7.5 194.4) rotate(-89.69)"/><path class="cls-13" d="M98.88,84.86l-9.63,0a1.76,1.76,0,0,0-1.78,1.75v1.22a1.76,1.76,0,0,0,1.75,1.78l9.63,0a1.77,1.77,0,0,0,1.78-1.76V86.64a1.76,1.76,0,0,0-1.75-1.78"/><rect class="cls-13" x="77.93" y="99.25" width="5.09" height="1.84" rx="0.68" ry="0.68" transform="translate(-47.18 85.56) rotate(-44.69)"/><g class="cls-15"><polyline class="cls-16" points="95.25 84.84 95.25 84.84 95.38 84.84 95.38 84.84 95.25 84.84"/><path class="cls-17" d="M78.07,80.37h0L78,89c.7.07,1.42.13,2.15.17,1.08.06,2.13.1,3.15.1a31,31,0,0,0,4.56-.3,1.71,1.71,0,0,1-.42-1.16V86.56a1.77,1.77,0,0,1,1.77-1.75h0l6,0h0l0-4.38-17.21-.09"/><path class="cls-17" d="M89.24,84.81a1.77,1.77,0,0,0-1.77,1.75v1.22a1.71,1.71,0,0,0,.42,1.16c3.46-.52,6.14-1.75,7.49-4.1h-.13l-6,0h0"/></g><path class="cls-12" d="M104.16,68.14a8.58,8.58,0,1,1-9.72-7.27A8.58,8.58,0,0,1,104.16,68.14Z"/><path class="cls-12" d="M83.72,71.09A8.58,8.58,0,1,1,74,63.82,8.6,8.6,0,0,1,83.72,71.09Z"/><path class="cls-18" d="M100.48,76.53a22.5,22.5,0,0,0-5.73-9.85c-3.12-3.24-6.78-3.56-10.55-3S77,65.55,74.93,69.54a22.51,22.51,0,0,0-2.71,11.08c.51,6.82,7.08,7.67,15.36,6.48S101.92,83.22,100.48,76.53Z"/><path class="cls-12" d="M89.24,78.23c.46,3.18-.75,3.93-2.34,4.16s-3-.15-3.42-3.33.17-8,1.76-8.19S88.78,75.05,89.24,78.23Z"/><path class="cls-6" d="M81.14,78.85a.89.89,0,0,1-.75,1,.89.89,0,0,1-.26-1.76A.89.89,0,0,1,81.14,78.85Z"/><path class="cls-6" d="M93.37,77.09a.89.89,0,1,1-1-.75A.89.89,0,0,1,93.37,77.09Z"/><path class="cls-6" d="M82.26,82.44a.52.52,0,0,0-.63.7A3.17,3.17,0,0,0,83.68,85a3.23,3.23,0,0,0,2.78-.44.52.52,0,0,0-.17-.92Z"/><g class="cls-19"><path class="cls-7" d="M83.86,83.63l-.64-.2a.14.14,0,0,1-.1-.18l.32-1,.92.28-.32,1A.15.15,0,0,1,83.86,83.63Z"/><path class="cls-7" d="M85,84l-.64-.2a.14.14,0,0,1-.1-.18l.32-1,.92.28-.32,1A.15.15,0,0,1,85,84Z"/><path class="cls-4" d="M83.47,85.12a.92.92,0,1,0-1.14.61A.91.91,0,0,0,83.47,85.12Z"/></g><path class="cls-18" d="M87.73,61.7A4.72,4.72,0,0,0,85,62.9a13.6,13.6,0,0,1,.9-3.58,7.07,7.07,0,0,0-4.18,5.77l2.72-.38L86,65A7.94,7.94,0,0,1,87.73,61.7Z"/><path class="cls-4" d="M81.21,81.52c-.07-.71-1.27-1.18-2.69-1.06S76,81.26,76.06,82s1.27,1.19,2.69,1.06S81.27,82.23,81.21,81.52Z"/><path class="cls-4" d="M96.46,79.39c-.16-.7-1.41-1-2.8-.71s-2.4,1.11-2.25,1.81,1.41,1,2.8.71S96.61,80.08,96.46,79.39Z"/><path class="cls-14" d="M87.41,73.81c.2.58.21,1.1,0,1.17s-.51-.35-.71-.92-.21-1.1,0-1.17S87.2,73.24,87.41,73.81Z"/><path class="cls-9" d="M104.7,95a4.79,4.79,0,0,1-4.17.57.89.89,0,0,1-.61-.91,4.8,4.8,0,0,1,6.28-4.22.91.91,0,0,1,.61.92A4.8,4.8,0,0,1,104.7,95Z"/><line class="cls-10" x1="99.44" y1="95.62" x2="104.9" y2="91.92"/><path class="cls-11" d="M99.57,95.8,105,92.1a.22.22,0,0,0,.06-.31.22.22,0,0,0-.31-.06l-5.46,3.7a.23.23,0,1,0,.26.37"/><path class="cls-9" d="M103.91,58a4.79,4.79,0,0,1-4.17.58.9.9,0,0,1-.61-.92,4.79,4.79,0,0,1,6.28-4.21.89.89,0,0,1,.61.91A4.74,4.74,0,0,1,103.91,58Z"/><line class="cls-10" x1="98.65" y1="58.68" x2="104.11" y2="54.98"/><path class="cls-11" d="M98.78,58.87l5.46-3.7a.23.23,0,0,0-.26-.38l-5.45,3.7a.23.23,0,0,0-.06.32.22.22,0,0,0,.31.06"/><path class="cls-9" d="M96.15,50a7.44,7.44,0,0,1,.68,6.5,1.39,1.39,0,0,1-1.45.91,7.45,7.45,0,0,1-6.24-10,1.4,1.4,0,0,1,1.45-.91A7.45,7.45,0,0,1,96.15,50Z"/><line class="cls-10" x1="96.92" y1="58.2" x2="91.44" y2="49.54"/><path class="cls-11" d="M97.11,58.08l-5.47-8.67a.23.23,0,1,0-.39.25l5.48,8.66a.22.22,0,0,0,.31.07.22.22,0,0,0,.07-.31"/><path class="cls-9" d="M104.39,48.83a7.46,7.46,0,0,1-4.59,4.66,1.41,1.41,0,0,1-1.63-.55,7.45,7.45,0,0,1,3.75-11.14,1.38,1.38,0,0,1,1.62.54A7.45,7.45,0,0,1,104.39,48.83Z"/><line class="cls-10" x1="98.55" y1="54.64" x2="101.76" y2="44.9"/><path class="cls-11" d="M98.76,54.71,102,45a.23.23,0,0,0-.15-.29.22.22,0,0,0-.28.14l-3.22,9.74a.23.23,0,1,0,.43.14"/></svg>