<svg id="Layer_1" data-name="Layer 1" xmlns="http://www.w3.org/2000/svg" xmlns:xlink="http://www.w3.org/1999/xlink" viewBox="0 0 160 160"><defs><style>.cls-1{fill:none;}.cls-2{fill:#efefef;}.cls-3{fill:#ffd31e;}.cls-4{clip-path:url(#clip-path);}.cls-5{fill:#ffc312;}.cls-6{fill:#b76444;}.cls-7{clip-path:url(#clip-path-2);}.cls-8{fill:#620e00;}.cls-9{fill:#ff88b9;}.cls-10{fill:#ffefbb;}.cls-11{fill:#e5bd1b;}.cls-12{fill:#620d00;}</style><clipPath id="clip-path"><path class="cls-1" d="M61.32,86.81,79,66.51l24.66.09-.09,17.88-18,20.1a13.1,13.1,0,0,1-9.76,4.35H70.39L61.32,86.81"/></clipPath><clipPath id="clip-path-2"><path class="cls-1" d="M68.28,64.55a23.05,23.05,0,1,1,23,22.66,22.86,22.86,0,0,1-23-22.66"/></clipPath></defs><title>Artboard 67</title><path class="cls-2" d="M108,109.21c0-1.8-11.25-3.26-25.13-3.26s-25.12,1.46-25.12,3.26,11.25,3.27,25.12,3.27S108,111,108,109.21"/><path class="cls-3" d="M61.32,86.81,79,66.51l24.66.09-.09,17.88-18,20.1a13.1,13.1,0,0,1-9.76,4.35H70.39L61.32,86.81"/><path class="cls-3" d="M88.85,91.46V105.6A3.43,3.43,0,0,0,92.28,109h4.66a3.44,3.44,0,0,0,0-6.87H95.72V91.46a3.44,3.44,0,0,0-6.87,0"/><path class="cls-3" d="M112.61,86.22a5.92,5.92,0,0,1-3,1,4.83,4.83,0,0,1-2.32-.64,10.46,10.46,0,0,1-3-2.71c-.38-.49-.67-.93-.86-1.23s-.16-.27-.2-.34l0-.08h0l-1.67.89,1.68-.88h0l-1.67.89,1.68-.88A3.44,3.44,0,1,0,97,85.39a20.64,20.64,0,0,0,3.09,4.2,15.94,15.94,0,0,0,3.81,3,11.67,11.67,0,0,0,5.63,1.49,12.68,12.68,0,0,0,6.6-2,3.44,3.44,0,0,0-3.55-5.89Z"/><g class="cls-4"><path class="cls-5" d="M73,83.35a16,16,0,0,0-11.22,4.57l8.62,21h5.44a13.1,13.1,0,0,0,9.76-4.35l3.12-3.49c.07-.52.12-1.06.14-1.61V98.42A15.75,15.75,0,0,0,73,83.35"/><path class="cls-5" d="M88.85,98.42v1.06c0-.17,0-.35,0-.53s0-.36,0-.53"/></g><path class="cls-3" d="M57.31,96.07a13.08,13.08,0,1,1,13.08,12.86A13,13,0,0,1,57.31,96.07Z"/><path class="cls-3" d="M58.78,100.43l-2.76,3a5.83,5.83,0,0,1-8.34.15A5.5,5.5,0,0,1,47.41,96l5.38-6.18A9.21,9.21,0,0,0,52.15,77a1.93,1.93,0,1,0-2.65,2.81,5.35,5.35,0,0,1,.38,7.45L44.5,93.45A9.35,9.35,0,0,0,45,106.27,9.68,9.68,0,0,0,58.84,106l2.76-3a1.93,1.93,0,1,0-2.82-2.63Z"/><path class="cls-6" d="M68.28,64.55a23.05,23.05,0,1,1,23,22.66,22.86,22.86,0,0,1-23-22.66"/><g class="cls-7"><polygon class="cls-8" points="91.38 65.11 82 38.85 73.66 43.46 91.38 65.11"/><polygon class="cls-8" points="91.43 65.09 105.15 40.74 96.1 37.69 91.43 65.09"/><polygon class="cls-8" points="91.3 65.01 65.07 55.6 63.33 66.37 91.3 65.01"/><polygon class="cls-8" points="91.06 65.05 65.61 76.33 67.86 80.91 91.06 65.05"/><polygon class="cls-8" points="91.54 64.8 115.54 50.78 119.28 61.05 91.54 64.8"/><polygon class="cls-8" points="91.78 64.79 118.92 71.25 117.57 76.16 91.78 64.79"/><polyline class="cls-8" points="91.43 65.1 100.8 91.36 109.14 86.75 91.43 65.1"/><polyline class="cls-8" points="91.37 65.12 77.65 89.47 86.7 92.53 91.37 65.12"/><polygon class="cls-8" points="88.54 38.72 91.03 64.99 74.38 81.95 74.85 82.41 91.72 65.23 89.19 38.65 88.54 38.72 88.54 38.72"/><polygon class="cls-8" points="71.44 49.15 91.33 65.48 113.31 46.81 112.88 46.3 91.32 64.63 71.86 48.63 71.44 49.15 71.44 49.15"/><polygon class="cls-8" points="110.47 82 92.31 65.5 121.33 68.93 121.41 68.28 90.34 64.61 110.02 82.49 110.47 82 110.47 82"/><polyline class="cls-8" points="90.61 89.37 92.14 64.85 91.48 64.81 89.95 89.33 90.61 89.37"/></g><path class="cls-3" d="M101,73.74l.11-.08A12.34,12.34,0,0,0,106,63.8V58.45H81v5.21a12.31,12.31,0,0,0,5.11,10l.3.22A12.32,12.32,0,0,0,101,73.74"/><path class="cls-3" d="M78.46,58.24a2.42,2.42,0,1,1,2.42,2.39A2.4,2.4,0,0,1,78.46,58.24Z"/><path class="cls-3" d="M103.18,58.24a2.43,2.43,0,1,1,2.42,2.39A2.4,2.4,0,0,1,103.18,58.24Z"/><path class="cls-9" d="M79.77,58.24a1.11,1.11,0,1,1,1.11,1.09A1.1,1.1,0,0,1,79.77,58.24Z"/><path class="cls-9" d="M104.51,58.24a1.11,1.11,0,1,1,1.11,1.09A1.1,1.1,0,0,1,104.51,58.24Z"/><ellipse class="cls-8" cx="90.01" cy="66.46" rx="1.27" ry="1.25"/><ellipse class="cls-8" cx="101.04" cy="66.46" rx="1.27" ry="1.25"/><path class="cls-10" d="M92.69,64.38l3.16,6.26h3.37V62.87a3.43,3.43,0,1,0-6.53,1.51Z"/><path class="cls-9" d="M102.24,71.28h1.44a.81.81,0,0,0,0-1.61h-1.44a.81.81,0,0,0,0,1.61Z"/><path class="cls-9" d="M84.75,71.28h2.43a.81.81,0,0,0,0-1.61H84.75a.81.81,0,0,0,0,1.61Z"/><path class="cls-11" d="M90.46,70.89A3.63,3.63,0,0,0,94,75.43a3.63,3.63,0,0,0,3.51-2.63l-7-1.91"/><path class="cls-3" d="M97.64,70.26a3.59,3.59,0,0,1-3.25,3.93,3.62,3.62,0,0,1-4-3.19"/><path class="cls-12" d="M97.4,70.28c0,.12,0,.24,0,.35a3.35,3.35,0,0,1-3,3.31A2.17,2.17,0,0,1,94,74a3.38,3.38,0,0,1-3.38-3,.24.24,0,0,0-.27-.22.25.25,0,0,0-.22.27A3.87,3.87,0,0,0,94,74.46l.41,0a3.85,3.85,0,0,0,3.49-3.81c0-.13,0-.27,0-.4a.25.25,0,1,0-.49,0Z"/><path class="cls-8" d="M97.68,72.27l2-1.46a.78.78,0,0,0-.45-1.41H95.19a.78.78,0,0,0-.45,1.41l2,1.46A.8.8,0,0,0,97.68,72.27Z"/><path class="cls-3" d="M88.52,108.93H70.36v-5.42H83.1A5.41,5.41,0,0,1,88.52,108.93Z"/><ellipse class="cls-6" cx="50.8" cy="78.38" rx="3.34" ry="3.28"/></svg>