<svg id="Layer_1" data-name="Layer 1" xmlns="http://www.w3.org/2000/svg" viewBox="0 0 160 160"><defs><style>.cls-1{fill:#d6ecfc;}.cls-2{fill:#6d95b2;}.cls-3{fill:#5b8ab0;}.cls-4{fill:#a54c30;}.cls-5{fill:#4bc467;}.cls-6{fill:#ffefbb;}.cls-7{fill:#ffd31e;}.cls-8{fill:#ffeaa1;}.cls-9{fill:#620e00;}.cls-10{fill:#ffaf04;}.cls-11{fill:#ffc213;}.cls-12{fill:#ffc616;}.cls-13{fill:#b76444;}.cls-14{fill:#d1866f;}.cls-15{fill:#dd3e3e;}.cls-16{fill:#6258e0;}.cls-17{fill:#f2f9fe;}.cls-18{fill:#c1907f;}.cls-19{fill:#b57f72;}.cls-20{fill:#d3a79c;}.cls-21{fill:#875551;}.cls-22{fill:#db767b;}.cls-23{fill:#8788e9;}.cls-24{fill:#349b4c;}</style></defs><title>Artboard 69</title><path class="cls-1" d="M118,112.48H42.88c9.16-8.1,22.58-13.21,37.54-13.21s28.39,5.11,37.55,13.21"/><path class="cls-2" d="M118,112.48H42.88c9.16-8.1,22.58-13.21,37.54-13.21s28.39,5.11,37.55,13.21"/><path class="cls-2" d="M109,109.44l-8.2-4.15.77-1.5a3,3,0,0,1,4-1.32l2.84,1.44a3,3,0,0,1,1.32,4Z"/><path class="cls-2" d="M99.84,103.91l-7.17-1.65,0-.23a3,3,0,0,1,3.6-2.25l1.32.3a3,3,0,0,1,2.26,3.6Z"/><path class="cls-2" d="M63.28,103.29l-7,2.35-.07-.22a3,3,0,0,1,1.88-3.81l1.29-.43a3,3,0,0,1,3.8,1.88Z"/><path class="cls-3" d="M81.78,102.4h-7c-3.87,0-7,.41-7,.91s3.14.91,7,.91h7c3.87,0,7-.41,7-.91s-3.14-.91-7-.91"/><path class="cls-2" d="M53.39,103.27c.66,1.14,2.7,2.39-2.51,5.9-4.9,3.31-5.86.45-6.51-.69s.83-3.22,3.32-4.66,5-1.68,5.7-.55"/><path class="cls-3" d="M51.23,103.33a7.13,7.13,0,0,0-3.11,1.1c-1.75,1-2.92,2.27-2.61,2.81a.69.69,0,0,0,.64.25,7.26,7.26,0,0,0,3.11-1.1c1.75-1,2.92-2.27,2.61-2.82a.72.72,0,0,0-.64-.24"/><path class="cls-3" d="M97.09,108.59c-1.31,0-2.34.42-2.37,1s1.12,1.2,2.58,1.28h.34c1.3,0,2.33-.42,2.36-1s-1.12-1.2-2.58-1.28h-.33"/><path class="cls-3" d="M92.23,106.52c-.85,0-1.54.34-1.56.8s.7.94,1.63,1h.18c.85,0,1.53-.35,1.56-.81s-.71-.94-1.64-1h-.17"/><path class="cls-4" d="M71.87,103.32v0a1.33,1.33,0,0,1,1-.74.13.13,0,0,0,.11-.16.13.13,0,0,0-.15-.11,1.55,1.55,0,0,0-1.21.94l.07.17.18-.08Z"/><path class="cls-4" d="M70.85,103.3v0a2.11,2.11,0,0,1,1.36-1.13l.09-.17-.16-.09a2.29,2.29,0,0,0-1.55,1.33l.08.17.17-.08Z"/><path class="cls-4" d="M85.8,103.23a1.57,1.57,0,0,0-1.21-.94.14.14,0,0,0,0,.27,1.3,1.3,0,0,1,.79.43,1,1,0,0,1,.17.24l0,.07v0l.17.08.08-.17Z"/><path class="cls-4" d="M86.82,103.17a2.37,2.37,0,0,0-1.63-1.29L85,102l.1.16a2.2,2.2,0,0,1,1.14.68,1.64,1.64,0,0,1,.24.32l0,.1,0,0,.17.07.08-.17Z"/><polyline class="cls-5" points="62.04 72.49 42.03 72.49 42.03 58.95 62.04 58.95 62.04 72.49"/><path class="cls-6" d="M49.5,67.76s-3.61-5-1.59-6.9c1.76-1.7,2.1,3.4,4.34,4.86a3.54,3.54,0,0,1-2.75,2"/><path class="cls-7" d="M58.4,67.52h0L52.83,68l-.76.07-.41-.89-.3-.65-.08-.19.27-.17.44-.27.28-.18c1.14,1.29,3.06,2,5.71,1.43l0,0,.37.31h0v0"/><path class="cls-7" d="M59.37,67.12c-.13.2-.27.39-.42.58l-.14.17A6.73,6.73,0,0,1,57.44,69a6.17,6.17,0,0,1-5.73.52,5.45,5.45,0,0,1-2.4-2l.57-.36L51,66.5l.24-.15.27-.17.44-.27a5.31,5.31,0,0,0,6,1.28h0l.21-.12a3.22,3.22,0,0,0,.46-.34l.68.4"/><path class="cls-8" d="M52,65.91l-.44.27a1.55,1.55,0,0,0-.19.36,1.31,1.31,0,0,0-.06.27h0a3.24,3.24,0,0,0,.36.38,5.6,5.6,0,0,0,1.17.82,5.88,5.88,0,0,0,2.75.67A6.26,6.26,0,0,0,58.47,68l.14-.11h0l.06-.06h0l0,0h0l.2-.12c.15-.19.29-.38.42-.58l-.68-.4a3.22,3.22,0,0,1-.46.34l-.21.12h0a4.12,4.12,0,0,1-2,.47,5.75,5.75,0,0,1-4-1.75h0"/><path class="cls-9" d="M59.37,67.12c-.13.2-.27.39-.42.58l-.14.17-.06-.05L58,67.18l.21-.12a3.22,3.22,0,0,0,.46-.34Z"/><path class="cls-6" d="M58.68,67.79l-.07.07,0,0v0h0a6.32,6.32,0,0,1-4.09,1.59h-.15a5.45,5.45,0,0,1-4.2-1.92c-.09-.11-.18-.22-.26-.34l-.06,0a3.85,3.85,0,0,0,.26.34,5.51,5.51,0,0,0,4.26,1.94h.15a6.38,6.38,0,0,0,4.14-1.62l0,0v0h0l.08-.07,0-.06h0"/><path class="cls-10" d="M49.88,67.22l-.57.36a5.45,5.45,0,0,0,2.4,2c-.08-.26-.16-.53-.23-.8a5.07,5.07,0,0,1-1.37-1.16,3.85,3.85,0,0,1-.26-.34l0,0M51,66.5h0l-1.13.7c.08.12.17.23.26.34a5.15,5.15,0,0,0,1.28,1.1,4.54,4.54,0,0,1-.15-1.83A2.66,2.66,0,0,1,51,66.5"/><path class="cls-11" d="M51.55,66.18l-.27.17L51,66.5a2.66,2.66,0,0,0,.26.31h0a1.31,1.31,0,0,1,.06-.27,1.55,1.55,0,0,1,.19-.36"/><path class="cls-12" d="M49.91,67.2l0,0,0,0a3.85,3.85,0,0,0,.26.34,5.07,5.07,0,0,0,1.37,1.16l0,0v-.06a5.15,5.15,0,0,1-1.28-1.1c-.09-.11-.18-.22-.26-.34h0"/><path class="cls-7" d="M48.86,67.33s-1.94,1.57,2.58,4.39c.62.39-1.62-4.44.14-5.52Z"/><path class="cls-7" d="M51.58,66.2a6.7,6.7,0,0,1,3.62.44.18.18,0,0,0,.24-.23,4,4,0,0,0-1.13-1.51C53,63.73,51.58,66.2,51.58,66.2Z"/><path class="cls-13" d="M85.25,88.48c-.7,4,3.43,5.29,6.68,5.54,5.28.41,8.94-2.94,11.18-7.53a15.57,15.57,0,0,0-.3-14.26c-1-2.06-2.57-3.84-3.57-5.91-1.73-3.58.85-5.38,3.84-7.09a.92.92,0,0,0-.93-1.59C99.7,59,96.56,61,96.66,64.2c.09,2.67,2.3,5,3.59,7.22,2.87,4.84,3.59,10.06.75,15.14-1.48,2.65-3.68,5.21-6.84,5.63-1.84.25-7.68-.08-7.13-3.22.21-1.16-1.57-1.66-1.78-.49"/><path class="cls-4" d="M75.65,74.57l.37.25-.37-.25h0l.37.25-.37-.25a20.42,20.42,0,0,1-2.53,2.9,12.29,12.29,0,0,1-2.43,1.83,4.85,4.85,0,0,1-2.37.72,2.91,2.91,0,0,1-1.11-.21,4.71,4.71,0,0,1-1.87-1.5,14.37,14.37,0,0,1-2.11-3.89,1.84,1.84,0,1,0-3.43,1.33,15.57,15.57,0,0,0,3.72,6,7.63,7.63,0,0,0,2.33,1.48,6.57,6.57,0,0,0,2.47.48,8.7,8.7,0,0,0,4.21-1.22,18.28,18.28,0,0,0,4.41-3.67,22.87,22.87,0,0,0,1.75-2.17,1.84,1.84,0,0,0-3-2.08"/><path class="cls-4" d="M94.77,76.05h0A19.23,19.23,0,0,1,98,80.52a25.85,25.85,0,0,1,3,12.32,32.77,32.77,0,0,1-1.38,9.2,1.84,1.84,0,0,0,3.54,1,36.61,36.61,0,0,0,1.52-10.23A29.47,29.47,0,0,0,101,78.46a22.27,22.27,0,0,0-3.74-5.1,1.84,1.84,0,0,0-2.52,2.69h0"/><path class="cls-13" d="M78.71,102.29C74,96.77,75.93,87.52,75.93,87.52s11.33,2.92,9,7.77a16.5,16.5,0,0,0-1.43,8,1.23,1.23,0,0,1-1.22,1.31l-6.48.05A3.85,3.85,0,0,1,78.71,102.29Z"/><path class="cls-13" d="M95.77,102.29c4.69-5.52,2.77-14.77,2.77-14.77s-11.32,2.92-9,7.77a16.5,16.5,0,0,1,1.43,8,1.23,1.23,0,0,0,1.22,1.31l6.48.05A3.85,3.85,0,0,0,95.77,102.29Z"/><path class="cls-4" d="M79.26,68.83a2.68,2.68,0,1,1-2.67-2.68,2.66,2.66,0,0,1,2.67,2.68"/><path class="cls-4" d="M100.71,68.83A2.68,2.68,0,1,1,98,66.15a2.66,2.66,0,0,1,2.67,2.68"/><path class="cls-13" d="M96.61,86.15H75.91V68.36a11.35,11.35,0,1,1,22.7,0V84.14a2,2,0,0,1-2,2"/><path class="cls-13" d="M88.67,99.58H85.81a9.9,9.9,0,0,1-9.9-9.9V73.88H98.57v15.8a9.9,9.9,0,0,1-9.9,9.9"/><path class="cls-14" d="M83.09,64.72v6.84h0a4.17,4.17,0,0,0,8.33,0h0V64.72H83.09"/><path class="cls-14" d="M87.8,66.26a4.17,4.17,0,1,0-4.17,4.17,4.16,4.16,0,0,0,4.17-4.17"/><path class="cls-14" d="M95.06,66.26a4.17,4.17,0,1,0-4.17,4.17,4.17,4.17,0,0,0,4.17-4.17"/><path class="cls-9" d="M85.05,66.26a1.42,1.42,0,1,0-1.42,1.42,1.41,1.41,0,0,0,1.42-1.42"/><path class="cls-9" d="M92.31,66.26a1.42,1.42,0,1,0-1.42,1.42,1.42,1.42,0,0,0,1.42-1.42"/><path class="cls-9" d="M86.88,68.73a.45.45,0,1,0-.9,0,.45.45,0,1,0,.9,0"/><path class="cls-9" d="M88.55,68.73a.45.45,0,0,0-.45-.45.46.46,0,0,0-.46.45.47.47,0,0,0,.46.46.46.46,0,0,0,.45-.46"/><path class="cls-15" d="M86,73.14l-.22,0a.77.77,0,0,1-.58-.93l.2-.88a.79.79,0,0,1,.93-.58l.21,0a.77.77,0,0,1,.58.93l-.2.88a.78.78,0,0,1-.92.58"/><path class="cls-9" d="M84.1,69.92a3.34,3.34,0,0,0,.64,1.22,3.44,3.44,0,0,0,2.78,1.2,6.47,6.47,0,0,0,1.18-.12.2.2,0,0,0,.17-.24.21.21,0,0,0-.24-.16,5.78,5.78,0,0,1-1.11.11,3,3,0,0,1-2.47-1.05,3.6,3.6,0,0,1-.44-.73,1.33,1.33,0,0,1-.08-.24l0-.06v0a.19.19,0,0,0-.24-.15.21.21,0,0,0-.16.24"/><path class="cls-13" d="M90.75,55.58a3.89,3.89,0,0,0-2.26,1,11.09,11.09,0,0,1,.72-2.93,5.78,5.78,0,0,0-3.4,4.74L88,58.05l1.32.23a6.4,6.4,0,0,1,1.39-2.7"/><path class="cls-16" d="M88.78,56.17l-1.67.66a.52.52,0,0,1-.51-.07l-1.41-1.12a.25.25,0,0,0-.41.16l-.32,2.13a.26.26,0,0,0,.35.28l1.67-.66a.55.55,0,0,1,.51.08l1.41,1.12a.27.27,0,0,0,.42-.16l.31-2.14a.26.26,0,0,0-.35-.28"/><rect class="cls-14" x="82.15" y="78.76" width="10.22" height="14.79" rx="4.46" ry="4.46"/><path class="cls-4" d="M88,90.06a.74.74,0,1,0-.74.74A.74.74,0,0,0,88,90.06Z"/><path class="cls-17" d="M99.86,70.79a2.64,2.64,0,0,1-1.25.65v3.4l0,0c.27-.29.53-.6.78-.92a14.78,14.78,0,0,0,1.23-1.81l-.42-.74-.39-.63m2-10.84c-2.41,1.52-4.12,3.29-2.63,6.37a1.19,1.19,0,0,1,.08.16,2.67,2.67,0,0,1,1.39,2.34c.3.46.61.91.9,1.37a14.86,14.86,0,0,0,1-5.47,15,15,0,0,0-.77-4.77M87.66,49.73A15,15,0,0,0,75.57,73.58l.34.45V71.42a2.67,2.67,0,0,1,.21-5.22,11.37,11.37,0,0,1,8.42-8.86l.24-1.54a.26.26,0,0,1,.25-.22.25.25,0,0,1,.16.06l1.12.88a5.64,5.64,0,0,1,2.9-2.88,11,11,0,0,0-.69,2.64l.26-.11h.1l.11,0a4,4,0,0,1,1.76-.6h0a7.57,7.57,0,0,0-1.08,1.69A11.38,11.38,0,0,1,97,62.44c.68-1.85,2.49-3.18,4.21-4.22a15,15,0,0,0-13.5-8.49"/><path class="cls-18" d="M100.71,68.82h0a2.69,2.69,0,0,1-.85,2l.39.63.42.74a14.23,14.23,0,0,0,.94-2c-.29-.46-.6-.91-.9-1.37m.45-10.6c-1.72,1-3.53,2.37-4.21,4.22a11.25,11.25,0,0,1,1.45,3.74,2.62,2.62,0,0,1,.92.3,1.19,1.19,0,0,0-.08-.16c-1.49-3.08.22-4.85,2.63-6.37a15.32,15.32,0,0,0-.71-1.73"/><path class="cls-19" d="M98.61,74.84v.1l0,0,0,0"/><path class="cls-19" d="M76.12,66.2a2.67,2.67,0,0,0-.21,5.22V68.36a11,11,0,0,1,.21-2.16"/><path class="cls-19" d="M98.4,66.18a11.27,11.27,0,0,1,.21,2.18v3.08a2.64,2.64,0,0,0,1.25-.65,2.69,2.69,0,0,0,.85-2h0a2.67,2.67,0,0,0-1.39-2.34,2.62,2.62,0,0,0-.92-.3"/><path class="cls-18" d="M89.67,57.27a4.07,4.07,0,0,0-.31,1l-.49-.08-.05.39a.27.27,0,0,1-.26.22.25.25,0,0,1-.16-.06l-.8-.63-1.79.26s0-.23.09-.6l-1.09.43-.1,0a.25.25,0,0,1-.25-.3l.08-.59a11.37,11.37,0,0,0-8.42,8.86,11,11,0,0,0-.21,2.16V74h0v-.15h8a4.16,4.16,0,0,1-.83-2.32h0V70.4a4.17,4.17,0,1,1,4.17-6.19,4.17,4.17,0,1,1,4.17,6.19v1.16h0a4.16,4.16,0,0,1-.83,2.32h8V75l0,0V68.36a11.33,11.33,0,0,0-8.94-11.09"/><path class="cls-18" d="M98.57,73.88h-8a4.17,4.17,0,0,1-6.67,0h-8V74a15.13,15.13,0,0,0,2.4,2.4H97A15.12,15.12,0,0,0,98.57,75V73.88"/><path class="cls-20" d="M87.26,68.32a3.81,3.81,0,0,1-.43.62.4.4,0,0,1-.15.17,4.13,4.13,0,0,1-2,1.19,3.67,3.67,0,0,0,.37.58,2.89,2.89,0,0,0,.35.35.78.78,0,0,1,.74-.55l.18,0,.21,0a.77.77,0,0,1,.58.93l0,.23.46,0a5.78,5.78,0,0,0,1.11-.11h0a.21.21,0,0,1,.2.17.2.2,0,0,1-.17.24,6.47,6.47,0,0,1-1.18.12h0a4.63,4.63,0,0,1-.54,0l-.06.25a.78.78,0,0,1-.75.6l-.17,0-.22,0a.77.77,0,0,1-.58-.93l.11-.49a3.19,3.19,0,0,1-.56-.53,3.5,3.5,0,0,1-.47-.76,3.39,3.39,0,0,1-.64.05,4.89,4.89,0,0,1-.54,0v1.16h0a4.17,4.17,0,0,0,8.33,0h0V70.4a4.89,4.89,0,0,1-.54,0,4.18,4.18,0,0,1-3-1.32.5.5,0,0,1-.15-.17,5.27,5.27,0,0,1-.43-.62"/><path class="cls-20" d="M83.63,67.68a1.42,1.42,0,1,1,1.42-1.42,1.41,1.41,0,0,1-1.42,1.42m0-5.58a4.17,4.17,0,0,0-.54,8.3,4.89,4.89,0,0,0,.54,0,3.39,3.39,0,0,0,.64-.05,4,4,0,0,1-.17-.46.21.21,0,0,1,.16-.24h0a.2.2,0,0,1,.2.16v0l0,.06a1.33,1.33,0,0,0,.08.24l.07.15a4.13,4.13,0,0,0,2-1.19.44.44,0,0,1-.25.08.46.46,0,0,1-.45-.46.45.45,0,1,1,.9,0,.46.46,0,0,1,0,.21,3.81,3.81,0,0,0,.43-.62,4.18,4.18,0,0,1,0-4.11,4.16,4.16,0,0,0-3.63-2.11"/><path class="cls-20" d="M90.89,67.68a1.42,1.42,0,1,1,1.42-1.42,1.42,1.42,0,0,1-1.42,1.42m0-5.58a4.17,4.17,0,0,0-3.63,6.22,5.27,5.27,0,0,0,.43.62.46.46,0,0,1,0-.21.46.46,0,0,1,.46-.45.45.45,0,0,1,.45.45.46.46,0,0,1-.45.46.47.47,0,0,1-.26-.08,4.18,4.18,0,0,0,3,1.32,4.89,4.89,0,0,0,.54,0,4.17,4.17,0,0,0-.54-8.3"/><path class="cls-21" d="M83.63,64.85a1.42,1.42,0,1,0,1.42,1.41,1.41,1.41,0,0,0-1.42-1.41"/><path class="cls-21" d="M90.89,64.85a1.42,1.42,0,1,0,1.42,1.41,1.42,1.42,0,0,0-1.42-1.41"/><path class="cls-21" d="M86.43,68.28a.45.45,0,0,0-.45.45.46.46,0,0,0,.45.46.44.44,0,0,0,.25-.08.4.4,0,0,0,.15-.17.46.46,0,0,0,0-.21.45.45,0,0,0-.45-.45"/><path class="cls-21" d="M88.1,68.28a.46.46,0,0,0-.46.45.46.46,0,0,0,0,.21.5.5,0,0,0,.15.17.47.47,0,0,0,.26.08.46.46,0,0,0,.45-.46.45.45,0,0,0-.45-.45"/><path class="cls-22" d="M85.3,71.67l-.11.49a.77.77,0,0,0,.58.93l.22,0,.17,0a.78.78,0,0,0,.75-.6l.06-.25a3.44,3.44,0,0,1-1.67-.64m.84-1a.78.78,0,0,0-.74.55,3,3,0,0,0,1.66.68l0-.23a.77.77,0,0,0-.58-.93l-.21,0-.18,0"/><path class="cls-21" d="M84.3,69.67h0a.21.21,0,0,0-.16.24,4,4,0,0,0,.17.46,3.5,3.5,0,0,0,.47.76,3.19,3.19,0,0,0,.56.53,3.44,3.44,0,0,0,1.67.64,4.63,4.63,0,0,0,.54,0h0a6.47,6.47,0,0,0,1.18-.12.2.2,0,0,0,.17-.24.21.21,0,0,0-.2-.17h0a5.78,5.78,0,0,1-1.11.11l-.46,0a3,3,0,0,1-1.66-.68,2.89,2.89,0,0,1-.35-.35,3.67,3.67,0,0,1-.37-.58l-.07-.15a1.33,1.33,0,0,1-.08-.24l0-.06v0a.2.2,0,0,0-.2-.16"/><path class="cls-18" d="M86.67,57.52a.58.58,0,0,0-.19,0l-.58.23c-.07.37-.09.6-.09.6l1.79-.26L87,57.63a.54.54,0,0,0-.32-.11m4.08-1.94a4,4,0,0,0-1.76.6.25.25,0,0,1,.14.27l-.26,1.75.49.08a4.07,4.07,0,0,1,.31-1,7.57,7.57,0,0,1,1.08-1.69m-1.54-1.94a5.64,5.64,0,0,0-2.9,2.88l.29.24a.54.54,0,0,0,.32.11.41.41,0,0,0,.19,0l1.41-.55a11,11,0,0,1,.69-2.64"/><path class="cls-23" d="M85,55.58a.26.26,0,0,0-.25.22l-.24,1.54-.08.59a.25.25,0,0,0,.25.3l.1,0,1.09-.43.58-.23a.58.58,0,0,1,.19,0,.54.54,0,0,1,.32.11l.61.49.8.63a.25.25,0,0,0,.16.06.27.27,0,0,0,.26-.22l.05-.39.26-1.75a.25.25,0,0,0-.14-.27l-.11,0h-.1l-.26.11-1.41.55a.41.41,0,0,1-.19,0,.54.54,0,0,1-.32-.11l-.29-.24-1.12-.88a.25.25,0,0,0-.16-.06"/><path class="cls-1" d="M99.82,75h0a1.45,1.45,0,0,1-1.45,1.45H76.72a1.45,1.45,0,0,1,0-2.9H98.37A1.45,1.45,0,0,1,99.82,75Z"/><path class="cls-24" d="M62.22,105.07h0a.56.56,0,0,1-.56-.56V59.22a.56.56,0,0,1,1.12,0v45.29A.56.56,0,0,1,62.22,105.07Z"/><path class="cls-13" d="M63.75,75.21a2.12,2.12,0,1,1-2.12-2.12A2.11,2.11,0,0,1,63.75,75.21Z"/></svg>