<svg id="Layer_1" data-name="Layer 1" xmlns="http://www.w3.org/2000/svg" viewBox="0 0 160 160"><defs><style>.cls-1{fill:#fd4a46;}</style></defs><title>Artboard 70</title><polygon class="cls-1" points="63.06 98.83 62.95 77.27 52.49 94.82 47.37 94.82 36.97 77.85 36.97 98.83 26.34 98.83 26.34 58.16 35.81 58.16 50.1 81.63 64.05 58.16 73.52 58.16 73.64 98.83 63.06 98.83"/><path class="cls-1" d="M131.54,70.3Q135,73.78,135,80.82v18H124V82.62a7.73,7.73,0,0,0-1.25-4.88,4.21,4.21,0,0,0-3.51-1.57,5,5,0,0,0-4,1.74,7.9,7.9,0,0,0-1.51,5.29V98.83h-11V82.62q0-6.45-4.77-6.45a5.09,5.09,0,0,0-4.06,1.74,7.9,7.9,0,0,0-1.51,5.29V98.83h-11V67.34H91.76v3.31a11.13,11.13,0,0,1,4.16-2.88,14.1,14.1,0,0,1,5.26-1A13.89,13.89,0,0,1,107.1,68a10.08,10.08,0,0,1,4.24,3.72,12.17,12.17,0,0,1,4.71-3.66,15,15,0,0,1,6.22-1.28A12.5,12.5,0,0,1,131.54,70.3Z"/></svg>