<svg id="Layer_1" data-name="Layer 1" xmlns="http://www.w3.org/2000/svg" xmlns:xlink="http://www.w3.org/1999/xlink" viewBox="0 0 160 160"><defs><style>.cls-1{fill:none;}.cls-2{fill:#4d4d4d;}.cls-3{fill:#333;}.cls-4{fill:#e4937e;}.cls-5{fill:#c9846f;}.cls-6{fill:#e3947d;}.cls-7{fill:#3daf5d;}.cls-8{fill:#620e00;}.cls-9{fill:#ffefbb;}.cls-10{fill:#ffd31e;}.cls-11{fill:#ff9255;}.cls-12{fill:#fff;}.cls-13{fill:#620d00;}.cls-14{fill:#4ace69;}.cls-15{clip-path:url(#clip-path);}.cls-16{fill:#d6ecfc;}.cls-17{fill:#f45d64;}</style><clipPath id="clip-path"><path class="cls-1" d="M85.38,103.39H77.59a.94.94,0,0,1-.93-.94v-.11a.93.93,0,0,1,.93-.93h7.79a.93.93,0,0,1,.93.93v.11a.94.94,0,0,1-.93.94"/></clipPath></defs><title>Artboard 71</title><path class="cls-2" d="M85.78,84a16.59,16.59,0,0,1,3.94.48,12.57,12.57,0,0,1,2.63,1,6.89,6.89,0,0,1,2.56,2.06,4.35,4.35,0,0,1,.6,1.2,4.75,4.75,0,0,1,.23,1.56A9.11,9.11,0,0,1,95.59,92a3.64,3.64,0,0,1-.75,1.69,4,4,0,0,1-1.15.93,12.78,12.78,0,0,1-4,1.31,45,45,0,0,1-7,.61,4.3,4.3,0,0,0,.18,8.59,52.22,52.22,0,0,0,8.56-.78,23.15,23.15,0,0,0,5.23-1.6,14.06,14.06,0,0,0,3.3-2.06,11.88,11.88,0,0,0,3.38-4.7,15.36,15.36,0,0,0,1-5.72,13.22,13.22,0,0,0-2-7A14.09,14.09,0,0,0,99,79.51a19.25,19.25,0,0,0-6.41-3.15,24.86,24.86,0,0,0-6.78-.94,4.3,4.3,0,1,0,0,8.59Z"/><path class="cls-2" d="M74.83,75.39l-1.47,0a62.53,62.53,0,0,0-11.73,1.16c-1,.21-1.91.44-2.81.71A15.78,15.78,0,0,0,55,78.89a8,8,0,0,0-1.82,1.53,6.47,6.47,0,0,0-.82,1.2,5.9,5.9,0,0,0-.55,1.58h0a7.06,7.06,0,0,0-.13,1.33A6.06,6.06,0,0,0,52,86.4a5.94,5.94,0,0,0,.8,1.59,6.35,6.35,0,0,0,2.09,1.81,9.28,9.28,0,0,0,3.08,1A20.26,20.26,0,0,0,61,91c1.41,0,2.94-.09,4.63-.23a4.29,4.29,0,0,0-.68-8.56c-1.56.13-2.9.2-3.95.2a13.37,13.37,0,0,1-1.63-.08,3.23,3.23,0,0,1-.52-.1h0l-.38,1.08.6-1a1.71,1.71,0,0,0-.22-.11l-.38,1.08.6-1-1.21,1.94,1.61-1.62a2.31,2.31,0,0,0-.4-.32l-1.21,1.94,1.61-1.62-2,2,2.57-1a3,3,0,0,0-.62-.94l-2,2,2.57-1-2.38,1h2.57a2.78,2.78,0,0,0-.19-1l-2.38,1h.91l1.63.32a1.8,1.8,0,0,0,0-.32H58.6l1.63.32h0l-2.69-.53,2.32,1.47a2.7,2.7,0,0,0,.37-.94l-2.69-.53,2.32,1.47-1.58-1,1.28,1.36a1.53,1.53,0,0,0,.3-.37l-1.58-1,1.28,1.36-.47-.5.43.54,0,0-.47-.5.43.54-.05,0,.05,0h0l-.05,0,.05,0a2.86,2.86,0,0,1,.47-.25,14.25,14.25,0,0,1,2.43-.78,43.92,43.92,0,0,1,5.45-.9c1.94-.2,3.89-.3,5.49-.3l1.17,0a4.3,4.3,0,0,0,.3-8.59Z"/><path class="cls-3" d="M94.45,110.73H68.6V84.88a9.72,9.72,0,0,1,9.72-9.72h6.42a9.72,9.72,0,0,1,9.71,9.72Z"/><path class="cls-4" d="M69.43,83.45l-4.64,2.22a1.12,1.12,0,1,0,1,2l4.65-2.23A1.12,1.12,0,0,0,70.92,84a1.11,1.11,0,0,0-1.49-.52"/><path class="cls-4" d="M65.92,62.6a2.58,2.58,0,1,1,2.58,2.58A2.58,2.58,0,0,1,65.92,62.6Z"/><circle class="cls-4" cx="94.08" cy="62.6" r="2.58"/><circle class="cls-5" cx="94.08" cy="62.6" r="1.39"/><path class="cls-5" d="M67.11,62.6A1.39,1.39,0,1,1,68.5,64,1.39,1.39,0,0,1,67.11,62.6Z"/><path class="cls-4" d="M81.27,80.51h0A5.28,5.28,0,0,1,76,75.23V67.54a5.28,5.28,0,0,1,10.55,0v7.69A5.27,5.27,0,0,1,81.27,80.51Z"/><rect class="cls-5" x="75.99" y="64.02" width="10.55" height="12.25" rx="4.32" ry="4.32"/><path class="cls-6" d="M81.29,74.11h0a12.4,12.4,0,0,1-12.4-12.4V57a12.4,12.4,0,0,1,24.79,0v4.76A12.4,12.4,0,0,1,81.29,74.11Z"/><path class="cls-7" d="M68.29,53.29l1.8-8.87A1.24,1.24,0,0,1,72.35,44a1.23,1.23,0,0,0,1.86.26l4.53-4a1.23,1.23,0,0,1,2,.56l.55,1.8a1.24,1.24,0,0,0,1.88.66l4.23-2.9a1.23,1.23,0,0,1,1.89.69l.53,2a1.24,1.24,0,0,0,1.84.73L92.89,43a1.24,1.24,0,0,1,1.88,1.12l-.49,9.56Z"/><rect class="cls-3" x="67.9" y="51.05" width="26.77" height="8.33" rx="0.52" ry="0.52"/><path class="cls-8" d="M73.93,63.18a1.87,1.87,0,0,1,3.74,0,.3.3,0,1,0,.59,0,2.46,2.46,0,0,0-4.92,0,.3.3,0,1,0,.59,0Z"/><path class="cls-8" d="M84.76,63.18a1.87,1.87,0,1,1,3.73,0,.3.3,0,0,0,.6,0,2.47,2.47,0,0,0-4.93,0,.29.29,0,0,0,.3.3.3.3,0,0,0,.3-.3Z"/><path class="cls-7" d="M76.6,58.08l-3.84,1a1.27,1.27,0,0,1-1.57-.91,1.28,1.28,0,0,1,.91-1.58l3.83-1a1.29,1.29,0,1,1,.67,2.49Z"/><path class="cls-9" d="M63.54,84.76h0a.65.65,0,0,1,.65-.65H87.1a.66.66,0,0,1,.66.65.67.67,0,0,1-.66.66H64.19A.66.66,0,0,1,63.54,84.76Z"/><rect class="cls-10" x="77.25" y="67.77" width="7.93" height="26.38"/><path class="cls-11" d="M83.89,86.16v7.17a.31.31,0,0,0,.62,0V86.16a.31.31,0,0,0-.62,0"/><path class="cls-11" d="M83.89,69.64V78.9a.31.31,0,0,0,.62,0V69.64a.31.31,0,0,0-.62,0"/><path class="cls-11" d="M78.14,69.37V83.1a.31.31,0,0,0,.31.31.3.3,0,0,0,.3-.31V69.37a.29.29,0,0,0-.3-.3.3.3,0,0,0-.31.3"/><path class="cls-11" d="M80.06,76.23v9.06a.31.31,0,0,0,.61,0V76.23a.31.31,0,1,0-.61,0"/><path class="cls-11" d="M80.06,70.68v2.85a.31.31,0,1,0,.61,0V70.68a.31.31,0,1,0-.61,0"/><path class="cls-11" d="M82,78.54V92a.29.29,0,0,0,.3.3.3.3,0,0,0,.31-.3V78.54a.31.31,0,0,0-.31-.31.3.3,0,0,0-.3.31"/><path class="cls-11" d="M82,73.57v3.1a.3.3,0,0,0,.3.31.31.31,0,0,0,.31-.31v-3.1a.31.31,0,0,0-.31-.31.3.3,0,0,0-.3.31"/><path class="cls-12" d="M81.2,82.53a2.63,2.63,0,1,1,2.62,2.62A2.62,2.62,0,0,1,81.2,82.53Z"/><path class="cls-10" d="M82.42,82.53a1.4,1.4,0,1,1,1.4,1.4A1.4,1.4,0,0,1,82.42,82.53Z"/><path class="cls-7" d="M83.78,75.43a4.11,4.11,0,0,1-3.44,1,.78.78,0,0,1-.64-.69,4.09,4.09,0,0,1,4.73-4.39.78.78,0,0,1,.64.69A4.1,4.1,0,0,1,83.78,75.43Z"/><line class="cls-13" x1="79.44" y1="76.7" x2="83.54" y2="72.85"/><path class="cls-14" d="M79.6,76.87,83.7,73a.23.23,0,0,0-.32-.34l-4.1,3.85a.24.24,0,0,0,0,.33.25.25,0,0,0,.33,0"/><path class="cls-7" d="M79.78,88.76a3.51,3.51,0,0,1,1.55,2.69.66.66,0,0,1-.46.67A3.52,3.52,0,0,1,76.26,89a.68.68,0,0,1,.46-.68A3.5,3.5,0,0,1,79.78,88.76Z"/><line class="cls-13" x1="81.7" y1="92.17" x2="77.66" y2="89.46"/><path class="cls-14" d="M81.84,92l-4-2.71a.27.27,0,0,0-.37.08.26.26,0,0,0,.07.36l4,2.7a.26.26,0,0,0,.29-.43"/><path class="cls-7" d="M86.58,58.08l3.83,1A1.28,1.28,0,0,0,92,58.19a1.3,1.3,0,0,0-.92-1.58l-3.83-1a1.29,1.29,0,1,0-.66,2.49Z"/><path class="cls-8" d="M73.88,66.19a3.3,3.3,0,0,0,3,2h8.77a3.29,3.29,0,0,0,2.88-1.7h0l.14-.24a.3.3,0,1,0-.52-.29l-.14.24h0a2.69,2.69,0,0,1-2.36,1.39H76.9A2.7,2.7,0,0,1,74.42,66a.3.3,0,0,0-.54.24Z"/><path class="cls-8" d="M80.15,66.46l1.69-.08a.28.28,0,0,0,.28-.29l0-2.07a.29.29,0,0,0-.29-.3.3.3,0,0,0-.3.29l0,1.79-1.42.06a.3.3,0,0,0-.28.31.29.29,0,0,0,.31.29Z"/><path class="cls-5" d="M89.51,66.17H88.6a.85.85,0,1,1,0-1.69h.91a.85.85,0,1,1,0,1.69Z"/><path class="cls-5" d="M73.85,66.17h-.91a.85.85,0,1,1,0-1.69h.91a.85.85,0,1,1,0,1.69Z"/><path class="cls-2" d="M95.74,90.28a7.62,7.62,0,0,1-.26,2.17,4,4,0,0,1-.42,1,3.63,3.63,0,0,1-1.12,1.08,9.12,9.12,0,0,1-2.53,1.07,4.3,4.3,0,1,0,2.33,8.27A18.54,18.54,0,0,0,98.12,102a13.21,13.21,0,0,0,2.73-2.15,11.85,11.85,0,0,0,2.7-4.43,15.83,15.83,0,0,0,.78-5.14,4.3,4.3,0,0,0-8.59,0Z"/><rect class="cls-12" x="76.66" y="101.41" width="9.65" height="1.98" rx="0.93" ry="0.93"/><g class="cls-15"><rect class="cls-16" x="76.66" y="100.14" width="9.65" height="1.98" rx="0.93" ry="0.93"/></g><path class="cls-12" d="M77.45,101.48h8.07a.67.67,0,0,0,.39-.12,10.37,10.37,0,0,0,4-7.78.67.67,0,0,0-.68-.72H73.68a.67.67,0,0,0-.67.72,10.37,10.37,0,0,0,4,7.78A.67.67,0,0,0,77.45,101.48Z"/><path class="cls-17" d="M74,94.84H89a.32.32,0,1,0,0-.63H74a.32.32,0,0,0,0,.63"/><path class="cls-9" d="M63.69,85h0a.65.65,0,0,1,.75-.54l22.61,3.67a.67.67,0,0,1,.55.76.67.67,0,0,1-.76.54L64.23,85.75A.64.64,0,0,1,63.69,85Z"/><path class="cls-4" d="M69.93,91.88l-3.82-.56A3.14,3.14,0,0,1,67,85.11l3.82.57a3.13,3.13,0,1,1-.91,6.2Z"/><path class="cls-4" d="M86.08,103.6H90a3.14,3.14,0,0,0,0-6.27H86.08a3.14,3.14,0,1,0,0,6.27Z"/><path class="cls-4" d="M87.89,96.28l2.67,3.52a1.11,1.11,0,0,0,1.78-1.34l-2.66-3.53a1.12,1.12,0,0,0-1.79,1.35"/><rect class="cls-2" x="68.62" y="107.23" width="25.8" height="5.25"/><path class="cls-3" d="M67.08,52.6a3.65,3.65,0,0,1,.15,3.2.68.68,0,0,1-.73.4,3.65,3.65,0,0,1-2.76-5,.67.67,0,0,1,.73-.4A3.62,3.62,0,0,1,67.08,52.6Z"/><path class="cls-3" d="M63.78,54A3.84,3.84,0,0,1,67,55a.73.73,0,0,1,.16.87,3.85,3.85,0,0,1-6,1.08.72.72,0,0,1-.16-.87A3.82,3.82,0,0,1,63.78,54Z"/></svg>