<svg id="Layer_1" data-name="Layer 1" xmlns="http://www.w3.org/2000/svg" viewBox="0 0 160 160"><defs><style>.cls-1{fill:#fd4a46;}</style></defs><title>Artboard 72</title><polygon class="cls-1" points="78.74 56.87 78.74 98.83 68.97 98.83 50.45 76.47 50.45 98.83 38.82 98.83 38.82 56.87 48.59 56.87 67.11 79.23 67.11 56.87 78.74 56.87"/><path class="cls-1" d="M117.49,69.4q3.69,3.6,3.69,10.85V98.83H109.79V82.11q0-6.66-5.33-6.66a6.1,6.1,0,0,0-4.71,1.92Q98,79.29,98,83.12V98.83H86.59V66.34H97.44v3.54a12.92,12.92,0,0,1,4.56-3,15.39,15.39,0,0,1,5.75-1A13.34,13.34,0,0,1,117.49,69.4Z"/></svg>