<svg id="Layer_1" data-name="Layer 1" xmlns="http://www.w3.org/2000/svg" xmlns:xlink="http://www.w3.org/1999/xlink" viewBox="0 0 160 160"><defs><style>.cls-1{fill:none;}.cls-2{fill:#d3d3d3;}.cls-3{fill:#e1e1e1;}.cls-4{fill:#e54c8a;}.cls-5{fill:#ff97c1;}.cls-6{fill:#a54c30;}.cls-7{fill:#b76444;}.cls-8{fill:#d1866f;}.cls-9{fill:#620e00;}.cls-10{fill:#a45a3d;}.cls-11{fill:#bc7864;}.cls-12{fill:#e5e5e5;}.cls-13{fill:#ce447c;}.cls-14{fill:#bebebe;}.cls-15{fill:#94442b;}.cls-16{clip-path:url(#clip-path);}.cls-17{fill:#fffed9;}.cls-18{fill:#ff66a1;}.cls-19{fill:#e54d8a;}.cls-20{fill:#ea6965;}.cls-21{fill:#fffdd4;}.cls-22{fill:#5e1100;}.cls-23{clip-path:url(#clip-path-2);}.cls-24{fill:#fff;}.cls-25{fill:#f098bb;}.cls-26{fill:#f05794;}</style><clipPath id="clip-path"><path class="cls-1" d="M55.39,72.84a4.12,4.12,0,1,1-8,1.8c-.31-1.41.5-1.19,1.71-1a5.78,5.78,0,0,0,2.32.07c2.22-.5,3.53-3.13,4-.9"/></clipPath><clipPath id="clip-path-2"><path class="cls-1" d="M90.54,76.58a4.27,4.27,0,0,1-1.87-.38v.41a1.88,1.88,0,1,0,3.75,0V76.2a4.32,4.32,0,0,1-1.88.38"/></clipPath></defs><title>Artboard 73</title><path class="cls-2" d="M62,103.1c-9.45.07-16.88.83-16.88,1.74s8.27,1.76,18.46,1.76S82,105.81,82,104.84c0-.41-1.5-.79-4-1.09a16.11,16.11,0,0,1-2.13.71,13.58,13.58,0,0,1-1.82.38,19,19,0,0,1-2.8.21,24.12,24.12,0,0,1-8.43-1.64L62,103.1"/><path class="cls-3" d="M87.7,108.74a2,2,0,0,1-1.07,1,2,2,0,0,1-2.44-.85c-2.19.22-3.72.74-3.72,1.33,0,.81,2.78,1.46,6.22,1.46s6.23-.65,6.23-1.46-2.26-1.32-5.22-1.44"/><path class="cls-3" d="M103.18,106.43c-3.44,0-6.23.65-6.23,1.46s2.79,1.46,6.23,1.46,6.22-.66,6.22-1.46-2.78-1.46-6.22-1.46"/><path class="cls-3" d="M113.82,109.56c-3.44,0-6.22.65-6.22,1.46s2.78,1.46,6.22,1.46S120,111.82,120,111s-2.78-1.46-6.22-1.46"/><path class="cls-3" d="M92.74,104.13a15,15,0,0,0-5.61.83c.12.49.25,1,.4,1.43a17,17,0,0,0,5.21.66c3.44,0,6.23-.65,6.23-1.46s-2.79-1.46-6.23-1.46"/><path class="cls-4" d="M86,79.48s-.89,2.44-1.76,6a56.93,56.93,0,0,0-1.76,13.24,27.81,27.81,0,0,0,1.57,9.8,2,2,0,0,0,3.75-1.42,23.93,23.93,0,0,1-1.32-8.38,53.51,53.51,0,0,1,1.65-12.29c.41-1.69.82-3.1,1.13-4.08.16-.49.28-.88.37-1.13s.08-.23.1-.29l0-.07v0A2,2,0,0,0,86,79.48"/><path class="cls-5" d="M87.3,80s0,.15-.15.42a.61.61,0,1,0,1.16.4c0-.13.08-.23.1-.3l0-.09a.63.63,0,0,0-.36-.79.61.61,0,0,0-.79.36Z"/><path class="cls-5" d="M84.4,103.74c0,.3.11.59.17.88a.6.6,0,0,0,.72.46.61.61,0,0,0,.47-.72c-.06-.27-.11-.55-.16-.83a.61.61,0,0,0-.71-.49.6.6,0,0,0-.49.7m-.4-3.52c0,.3,0,.59.06.89a.61.61,0,0,0,1.21-.1l-.06-.85a.6.6,0,0,0-.64-.58.61.61,0,0,0-.57.64m0-3.53,0,.88a.61.61,0,0,0,1.22,0c0-.29,0-.57,0-.86a.6.6,0,0,0-.58-.63.6.6,0,0,0-.63.58m.27-3.5-.09.87a.61.61,0,1,0,1.21.12l.09-.85a.61.61,0,1,0-1.21-.14m.51-3.48-.15.87a.61.61,0,1,0,1.21.19c0-.28.09-.56.14-.84a.61.61,0,0,0-1.2-.22m.71-3.43c-.06.28-.13.56-.19.85a.6.6,0,0,0,.46.73.61.61,0,0,0,.73-.46c.06-.29.12-.57.19-.84a.6.6,0,0,0-.45-.73.61.61,0,0,0-.74.45m.89-3.39q-.1.4-.24.84a.61.61,0,0,0,.43.75.61.61,0,0,0,.75-.42l.23-.83a.61.61,0,0,0-.41-.76.63.63,0,0,0-.76.42h0"/><path class="cls-5" d="M85.3,107.2l.15.43a.61.61,0,0,0,.79.35.61.61,0,0,0,.35-.78c0-.14-.1-.27-.14-.4a.62.62,0,0,0-.78-.37.6.6,0,0,0-.37.77Z"/><path class="cls-6" d="M60.53,75.85a4.9,4.9,0,0,1,2.11,6.61,1.93,1.93,0,0,0,3.43,1.77A8.75,8.75,0,0,0,62.3,72.42a1.93,1.93,0,1,0-1.77,3.43Z"/><path class="cls-6" d="M70.83,81a4.92,4.92,0,0,1,2.11,6.61,1.93,1.93,0,1,0,3.43,1.76,8.7,8.7,0,0,0,1-4,8.79,8.79,0,0,0-1.25-4.5,8.63,8.63,0,0,0-3.5-3.29A1.93,1.93,0,1,0,70.83,81"/><path class="cls-7" d="M79.84,102.88c9.09-4.33,4.45-18.94-3.9-18.74-4,.1-6.37.74-9.93-1.08a15.4,15.4,0,0,1-7.72-10c-1.3-6-6.63-8.45-11.15-6.51a9.76,9.76,0,0,0-5.32,7.11c-1.54,9.5,8,27.79,25.3,30.85,6.58,1.17,9.31,0,12.72-1.63"/><path class="cls-7" d="M42,72.25,40.44,73a.87.87,0,1,0,.78,1.56l1.57-.77a.89.89,0,0,0,.39-1.18A.87.87,0,0,0,42,72.25Z"/><path class="cls-7" d="M56.46,67.33l-1.56.78a.87.87,0,0,0,.77,1.57l1.57-.78a.88.88,0,0,0,.4-1.17A.89.89,0,0,0,56.46,67.33Z"/><path class="cls-6" d="M84.54,93.08C88.83,95,99.47,94.9,100.07,82.9c.05-1.12-1.14-2.19-1.83-1.36-6.61,8-14.13,9.29-14.13,9.29-.91.6-.55,1.82.43,2.25"/><path class="cls-8" d="M42.43,75c1.06,3,5.23,4.33,9.32,3.07s6.54-4.67,5.48-7.63S52,66.11,47.91,67.37,41.37,72,42.43,75Z"/><path class="cls-8" d="M52.92,86.59c1,1.62,3.88,1.78,6.37.37S63,83.09,62,81.48s-3.88-1.78-6.38-.37S51.89,85,52.92,86.59"/><path class="cls-9" d="M51.45,73l-.72.1a1.7,1.7,0,1,1-.38-3.37l.56-.07A1.7,1.7,0,1,1,51.45,73Z"/><path class="cls-9" d="M48.54,69.48a.53.53,0,0,1-1,.32.54.54,0,0,1,.35-.67A.53.53,0,0,1,48.54,69.48Z"/><path class="cls-9" d="M50.84,68.77a.53.53,0,0,1-.35.66.53.53,0,0,1-.32-1A.54.54,0,0,1,50.84,68.77Z"/><path class="cls-10" d="M56.63,79.94a6.91,6.91,0,0,0-6.16,4.91,4.49,4.49,0,0,0,.44,3,2.32,2.32,0,0,0,2.17,1.35,2.05,2.05,0,0,0,.49-.06A1.7,1.7,0,0,0,55,87.84a3,3,0,0,1-2-1.25c-1-1.61.17-4.07,2.66-5.48a7.6,7.6,0,0,1,2.33-.86,2.34,2.34,0,0,0-.58-.23,3.06,3.06,0,0,0-.7-.08"/><path class="cls-11" d="M57.91,80.25a7.6,7.6,0,0,0-2.33.86c-2.49,1.41-3.69,3.87-2.66,5.48a3,3,0,0,0,2,1.25A1.58,1.58,0,0,0,54.9,87a2.47,2.47,0,0,1,.18-2.26,3.11,3.11,0,0,1,2.22-1.36,1.57,1.57,0,0,0,1.5-2.12,2.12,2.12,0,0,0-.89-1"/><path class="cls-10" d="M72.29,88.89c-2.1,0-5.59,2.72-5.91,6.48a5.25,5.25,0,0,0,.85,3.16,2.18,2.18,0,0,0,1.94,1.14,2.23,2.23,0,0,0,.88-.18,1.84,1.84,0,0,0,1-2.56,3,3,0,0,1-.13-2.51,3.32,3.32,0,0,1,2-1.88A1.79,1.79,0,0,0,74.12,90,2.14,2.14,0,0,0,72.5,88.9h-.21"/><path class="cls-12" d="M82.53,100.93c-.11.12-.22.23-.34.34.13-.1.24-.2.34-.29v0M47.15,91.14a32.22,32.22,0,0,0,5.14,5.91,34.81,34.81,0,0,1-5.14-5.91M41.58,76.7a19,19,0,0,0,.31,2q-.12-.8-.18-1.56c-.09-.27-.13-.41-.13-.41"/><path class="cls-13" d="M83.54,100l-.4.21a8.55,8.55,0,0,1-.61.74v0a10.07,10.07,0,0,0,1-1"/><path class="cls-12" d="M79.79,102.91c-.62.3-1.23.58-1.84.84H78a17,17,0,0,0,1.76-.84"/><path class="cls-14" d="M78,103.75a16.49,16.49,0,0,1-2,.71,16.11,16.11,0,0,0,2.13-.71H78m-15.1-.34a24.12,24.12,0,0,0,8.43,1.64,19,19,0,0,0,2.8-.21,16.82,16.82,0,0,1-2.22.14,27.05,27.05,0,0,1-4.74-.47,27.82,27.82,0,0,1-4.27-1.1"/><path class="cls-10" d="M41.71,77.11q.06.77.18,1.56a33.91,33.91,0,0,0,10.4,18.38,32.71,32.71,0,0,0,4.77,3.56,37,37,0,0,0,5.79,2.8,27.82,27.82,0,0,0,4.27,1.1,27.05,27.05,0,0,0,4.74.47,16.82,16.82,0,0,0,2.22-.14,15.78,15.78,0,0,0,1.82-.38,16.49,16.49,0,0,0,2-.71c.61-.26,1.22-.54,1.84-.84a15.88,15.88,0,0,0,2.4-1.64c.12-.11.23-.22.34-.34a8.55,8.55,0,0,0,.61-.74,26.53,26.53,0,0,1-11.62,2.61,28.3,28.3,0,0,1-11.65-2.55C47.92,94.9,42.57,79.78,41.71,77.11"/><path class="cls-12" d="M99.91,84.57c-.9,6.34-5,8.78-8.88,9.3,3.21-.24,7-1.87,8.73-7.74a15.35,15.35,0,0,0,.15-1.56"/><path class="cls-15" d="M99.52,82.86a.65.65,0,0,0-.39.22s-.52,10-13.32,10.12a13.75,13.75,0,0,0,4.32.7l.9,0c3.93-.52,8-3,8.88-9.3,0-.84,0-1.71-.39-1.71"/><path class="cls-6" d="M54.54,87.8a4.79,4.79,0,0,1-.8-2.67A4.87,4.87,0,0,1,56,81a1.93,1.93,0,0,0-2.11-3.24A8.77,8.77,0,0,0,51.3,89.91a1.93,1.93,0,1,0,3.24-2.11Z"/><path class="cls-6" d="M70,97.61a4.89,4.89,0,0,1,1.43-6.78,1.93,1.93,0,0,0-2.11-3.24,8.77,8.77,0,0,0-2.56,12.13A1.93,1.93,0,0,0,70,97.61Z"/><path class="cls-9" d="M55.39,72.84a4.12,4.12,0,1,1-8,1.8c-.49-2.22,1.81-.4,4-.9S54.9,70.61,55.39,72.84Z"/><g class="cls-16"><rect class="cls-17" x="49.8" y="71.02" width="3.03" height="4.19" rx="0.75" ry="0.75" transform="translate(-14.77 13.01) rotate(-12.65)"/><path class="cls-18" d="M50.42,80.27h0a1.52,1.52,0,0,1-1.81-1.15L48.36,78a1.51,1.51,0,1,1,3-.67l.26,1.14A1.53,1.53,0,0,1,50.42,80.27Z"/></g><polyline class="cls-9" points="51.06 72.87 51.24 73.46 51.64 73.33 51.46 72.75"/><path class="cls-7" d="M47.07,71.52c.13.35-.25.81-.85,1s-1.18.11-1.31-.25.25-.81.85-1S46.94,71.17,47.07,71.52Z"/><path class="cls-7" d="M55.45,68.84c.13.35-.25.82-.85,1s-1.18.11-1.31-.24.25-.82.85-1S55.32,68.49,55.45,68.84Z"/><path class="cls-19" d="M91.24,81.52h0a54.18,54.18,0,0,1,5,6.82,38.66,38.66,0,0,1,3.28,6.49,19.42,19.42,0,0,1,1.43,6.8,10.55,10.55,0,0,1-.66,3.82,2,2,0,0,0,3.75,1.42,14.88,14.88,0,0,0,.92-5.24,23.66,23.66,0,0,0-1.74-8.36,47.33,47.33,0,0,0-5.66-10.15,49.08,49.08,0,0,0-3.39-4.29,2,2,0,1,0-3,2.69Z"/><path class="cls-5" d="M101.76,104.94c0,.13-.09.25-.14.38a.61.61,0,0,0,1.14.43,3.52,3.52,0,0,0,.15-.42.61.61,0,0,0-1.15-.39Zm.6-3.25c0,.28,0,.56-.07.83a.61.61,0,0,0,.54.67.6.6,0,0,0,.67-.53c0-.3.06-.61.08-.91a.62.62,0,0,0-.58-.64.61.61,0,0,0-.64.58Zm-.22-3.33c0,.27.09.55.12.83a.61.61,0,0,0,1.21-.15c0-.29-.08-.59-.13-.89a.62.62,0,0,0-.7-.5.61.61,0,0,0-.5.71Zm-.85-3.28c.1.27.18.54.26.81a.62.62,0,0,0,.76.41.61.61,0,0,0,.41-.76c-.08-.29-.18-.57-.27-.85a.6.6,0,0,0-.77-.38.61.61,0,0,0-.39.77ZM100,91.92c.12.25.24.51.35.77a.61.61,0,1,0,1.12-.49c-.12-.27-.25-.54-.37-.8a.61.61,0,1,0-1.1.52Zm-1.61-3,.43.74a.61.61,0,0,0,.83.24.62.62,0,0,0,.23-.83c-.15-.26-.29-.52-.44-.77a.61.61,0,0,0-.83-.22.62.62,0,0,0-.22.84ZM96.55,86l.48.71A.61.61,0,1,0,98,86c-.16-.25-.33-.5-.49-.73a.61.61,0,0,0-.85-.16.62.62,0,0,0-.15.85Zm-2-2.78.53.68a.61.61,0,0,0,1-.73l-.54-.7a.61.61,0,0,0-1,.75Zm-2.23-2.62a1.28,1.28,0,0,1,.15.16l.43.47a.6.6,0,0,0,.86.06.61.61,0,0,0,.05-.86c-.37-.43-.6-.66-.6-.67a.61.61,0,0,0-.86,0,.6.6,0,0,0,0,.86Z"/><rect class="cls-20" x="83.46" y="76.04" width="13.52" height="5.03"/><path class="cls-18" d="M91.64,80.9c.4.4.93,1,1.54,1.8,1.07,1.35,2.36,3.12,3.79,5a71.44,71.44,0,0,0,7.24,8.43,21.63,21.63,0,0,0,4.12,3.14,9.46,9.46,0,0,0,4.64,1.37,7,7,0,0,0,1.43-.15,2,2,0,0,0-.83-3.92,2.9,2.9,0,0,1-.6.07,4.8,4.8,0,0,1-2-.49,16.24,16.24,0,0,1-4.39-3.25,71.74,71.74,0,0,1-6.77-8c-1-1.38-2-2.7-2.91-3.87a33.82,33.82,0,0,0-2.46-2.93,2,2,0,0,0-2.85,2.81Z"/><path class="cls-18" d="M88.48,78.5A44.21,44.21,0,0,0,88,85a29,29,0,0,0,1.42,9.6A13.34,13.34,0,0,0,92,99a9.69,9.69,0,0,0,4.53,2.87A2,2,0,0,0,97.65,98,5.61,5.61,0,0,1,95,96.28a11.28,11.28,0,0,1-2.33-5A29.39,29.39,0,0,1,92,85a40.83,40.83,0,0,1,.21-4.16c0-.53.1-1,.14-1.23s0-.25,0-.32l0-.08h0a2,2,0,0,0-4-.65Z"/><path class="cls-18" d="M105.09,59.23c0-10.1-6.55-16.1-14.64-16.1s-14.64,6-14.64,16.1,6.56,20.46,14.64,20.46,14.64-10.36,14.64-20.46"/><path class="cls-18" d="M62.4,82.42a6.58,6.58,0,0,1,2.18-1.29,6.76,6.76,0,0,1,2.3-.37c2.12,0,4.65.84,7.23,1.82,1.3.49,2.62,1,4,1.39a14.68,14.68,0,0,0,4.1.69,7.79,7.79,0,0,0,3.46-.76,8.08,8.08,0,0,0,3-2.54A2,2,0,1,0,85.36,79a4.13,4.13,0,0,1-1.49,1.31,3.75,3.75,0,0,1-1.71.36,10.73,10.73,0,0,1-3-.53c-1.7-.5-3.64-1.32-5.7-2a20.7,20.7,0,0,0-6.62-1.35,10.79,10.79,0,0,0-3.63.6,10.59,10.59,0,0,0-3.48,2.05,2,2,0,1,0,2.63,3Z"/><path class="cls-21" d="M81.43,56.24a1.05,1.05,0,1,0-1.05,1A1,1,0,0,0,81.43,56.24Z"/><path class="cls-21" d="M84.78,53.57a1.73,1.73,0,1,0-1.73,1.73A1.72,1.72,0,0,0,84.78,53.57Z"/><path class="cls-21" d="M80.54,53.59a.61.61,0,1,0-.6.6A.6.6,0,0,0,80.54,53.59Z"/><path class="cls-18" d="M88.55,76a5.17,5.17,0,1,1-5.17-5.17A5.18,5.18,0,0,1,88.55,76Z"/><path class="cls-21" d="M86.86,76.06a3.51,3.51,0,1,1-3.51-3.5A3.51,3.51,0,0,1,86.86,76.06Z"/><path class="cls-22" d="M90.54,76.58A4.72,4.72,0,0,1,89,76.34a.23.23,0,0,0-.32.22h0a1.89,1.89,0,0,0,1.78,1.92,1.87,1.87,0,0,0,2-1.87v0a.23.23,0,0,0-.32-.22A4.82,4.82,0,0,1,90.54,76.58Z"/><g class="cls-23"><path class="cls-19" d="M93,78.82c0,.71-1.11,1.28-2.47,1.28s-2.46-.57-2.46-1.28,1.1-1.29,2.46-1.29S93,78.11,93,78.82Z"/><rect class="cls-24" x="89.25" y="75.25" width="1.46" height="1.79" rx="0.32" ry="0.32"/></g><path class="cls-22" d="M82.08,76.42a1.33,1.33,0,1,1,2.66,0,.29.29,0,0,0,.58,0,1.91,1.91,0,0,0-3.81,0,.29.29,0,1,0,.57,0Z"/><path class="cls-25" d="M103.7,67.42a24,24,0,0,1-2.44,5.13,16.74,16.74,0,0,0,2.44-5.13m-.2-16a18.66,18.66,0,0,1,1.59,7.83v.3a17.7,17.7,0,0,0-1.59-8.13"/><path class="cls-26" d="M93.64,43.5S105.33,54.89,98.92,71l2.33,1.55h0a24,24,0,0,0,2.44-5.13,28.52,28.52,0,0,0,1.39-7.89v-.3a18.66,18.66,0,0,0-1.59-7.83c-1.62-3.37-4.65-6.27-9.86-7.9"/><path class="cls-18" d="M102.68,76a5.18,5.18,0,1,1-5.18-5.17A5.18,5.18,0,0,1,102.68,76Z"/><path class="cls-21" d="M101,76.06a3.51,3.51,0,1,1-3.51-3.5A3.51,3.51,0,0,1,101,76.06Z"/><path class="cls-22" d="M96.06,76.42a1.34,1.34,0,0,1,2.67,0,.28.28,0,0,0,.28.29.29.29,0,0,0,.29-.29,1.91,1.91,0,0,0-3.81,0,.29.29,0,1,0,.57,0Z"/></svg>