<svg id="Layer_1" data-name="Layer 1" xmlns="http://www.w3.org/2000/svg" viewBox="0 0 160 160"><defs><style>.cls-1{fill:#3daf5d;}</style></defs><title>Artboard 74</title><path class="cls-1" d="M47.87,96a21.45,21.45,0,0,1,0-38,25.11,25.11,0,0,1,12-2.82,25.08,25.08,0,0,1,12,2.82,21.45,21.45,0,0,1,0,38,25.08,25.08,0,0,1-12,2.82A25.11,25.11,0,0,1,47.87,96ZM65.58,87.5a10.79,10.79,0,0,0,4.08-4.23,13.81,13.81,0,0,0,0-12.52,10.79,10.79,0,0,0-4.08-4.23,11.77,11.77,0,0,0-11.5,0A10.79,10.79,0,0,0,50,70.75a13.81,13.81,0,0,0,0,12.52,10.79,10.79,0,0,0,4.08,4.23,11.77,11.77,0,0,0,11.5,0Z"/><path class="cls-1" d="M95.73,96.37a16.39,16.39,0,0,1-6.56-6A16.37,16.37,0,0,1,95.7,67.09a22.07,22.07,0,0,1,18.92,0A16,16,0,0,1,121.15,73a16.45,16.45,0,0,1-6.53,23.35,21.73,21.73,0,0,1-18.89,0Zm14.33-9A8.09,8.09,0,0,0,112,81.69a7.9,7.9,0,0,0-1.92-5.64,6.94,6.94,0,0,0-9.83,0,7.9,7.9,0,0,0-1.92,5.64,8.09,8.09,0,0,0,1.92,5.72,6.87,6.87,0,0,0,9.83,0Z"/></svg>