<svg id="Layer_1" data-name="Layer 1" xmlns="http://www.w3.org/2000/svg" viewBox="0 0 160 160"><defs><style>.cls-1{fill:#333;}.cls-2{fill:#e3e3e3;}.cls-3{fill:#f2f2f2;}.cls-4{fill:#272727;}.cls-5{fill:#d3d3d3;}.cls-6{fill:#cbca54;}.cls-7{fill:#e2e078;}.cls-8{fill:#30302b;}.cls-9{fill:#e5e2cd;}.cls-10{fill:#c0bd47;}.cls-11{fill:#3daf5d;}.cls-12{fill:#620d00;}.cls-13{fill:#c4c4c4;}.cls-14{fill:#bababa;}.cls-15{fill:#fff;}.cls-16{fill:#4d4d4d;}.cls-17{fill:#f1eed8;}</style></defs><title>Artboard 75</title><path class="cls-1" d="M66,58.54a5,5,0,0,1-.27-10,5,5,0,0,1,5.15,4.89A5,5,0,0,1,66,58.54"/><path class="cls-2" d="M101.36,107.86a9.16,9.16,0,0,1-1.74,1.42,9.51,9.51,0,0,1-3.09,1.29c11.06-.29,18.49-.82,18.49-1.43,0-.29-1.65-.56-4.56-.8a5.86,5.86,0,0,1-2,.7,5,5,0,0,1-.85.07,4.55,4.55,0,0,1-3.11-1.13l-3.12-.12m-34.64-.3-2.1,0a8.93,8.93,0,0,1-.73.65,9.58,9.58,0,0,1-10.15,1.21A9.07,9.07,0,0,1,51.5,108c-6.51.3-10.52.71-10.52,1.16,0,.91,16.57,1.65,37,1.65,5.26,0,10.27-.05,14.8-.14a9.86,9.86,0,0,1-2.53-.82,9.7,9.7,0,0,1-2.92-2.19A29,29,0,0,1,77,109.5a26.17,26.17,0,0,1-10.23-1.94"/><path class="cls-1" d="M89.23,55.71a5,5,0,1,1-6.34-6.87,5.19,5.19,0,0,1,1.69-.34,5,5,0,0,1,4.65,7.21"/><path class="cls-1" d="M67.45,100.8a9.6,9.6,0,0,1-9.6,9.59,9.46,9.46,0,0,1-4.11-.93,9.59,9.59,0,1,1,13.71-8.66"/><path class="cls-1" d="M104.05,101.2a9.6,9.6,0,0,1-9.6,9.59,9.44,9.44,0,0,1-4.18-1,9.59,9.59,0,1,1,13.78-8.63"/><path class="cls-3" d="M96.44,96.57a18,18,0,0,1-2.06,5.73c-4.89,8.32-25.61,10.39-33.59,1.06a14.29,14.29,0,0,1-2.89-5.57C54.8,86.48,63.1,71,63.1,71l25-1c7,6,10,17.83,8.3,26.65"/><path class="cls-4" d="M100.38,97.77a8.26,8.26,0,0,1-.56.76,10,10,0,0,1-5.08,3.12c-.11.22-.23.44-.36.65A12.67,12.67,0,0,1,88.86,107a10.53,10.53,0,0,0,1.41,2.85,9.59,9.59,0,0,0,9.35-.55,12.54,12.54,0,0,0,1.7-6.51,13.22,13.22,0,0,0-.94-5"/><path class="cls-4" d="M52.77,98a13.31,13.31,0,0,0-.84,4.76,12.49,12.49,0,0,0,1.81,6.69,9.58,9.58,0,0,0,10.15-1.21,10.71,10.71,0,0,0,.65-1.78,15.32,15.32,0,0,1-3.25-2.55,10.52,10.52,0,0,1-7.92-4.79l0-.06c-.2-.35-.39-.71-.56-1.06"/><path class="cls-4" d="M68.2,49.07a11,11,0,0,0-3.88,3.37,26.89,26.89,0,0,0-2.46,4.09,5,5,0,0,0,4,2H66a5,5,0,0,0,4.89-5,.53.53,0,0,0,0-.13,5,5,0,0,0-2.69-4.32h0"/><path class="cls-4" d="M82.89,48.84h0a5,5,0,0,0-3.2,4.68s0,.09,0,.13a5,5,0,0,0,5,4.89h.14a5,5,0,0,0,4.38-2.83,26.25,26.25,0,0,0-2.62-3.86,11.19,11.19,0,0,0-3.72-3"/><path class="cls-5" d="M96.44,96.57a18,18,0,0,1-2.06,5.73c-4.89,8.32-25.61,10.39-33.59,1.06a14.29,14.29,0,0,1-2.89-5.57l3-12.68s-2.4,15,11.88,16.29c13.77,1.24,18.5-7.74,19.34-14.79q0-.4.09-.78c.32-3.17,2.26,3,4.27,10.74"/><path class="cls-1" d="M92.17,85.83S86.62,77.61,77,77.41h-.36c-.62,0-1.23,0-1.82.08a19.77,19.77,0,0,0-13.43,7.56c-.37.48-.56.78-.56.78s.87-7.42,2.72-11.86a11.07,11.07,0,0,1,.62-1.29,4.74,4.74,0,0,1,1.32-1.62c3.19-2.2,19.4-3.75,22.71.4l.06.08a5.5,5.5,0,0,1,.46.66c2.39,3.75,3.17,10.71,3.36,12.93,0,.45.06.7.06.7"/><path class="cls-1" d="M100.79,97a7.62,7.62,0,0,1-1,1.49c-2.79,3.34-8.61,4.84-14.38,2.19a18.56,18.56,0,0,1-5.89-4.38c-4.23-4.58.57-9.54,8.49-5.23a7.38,7.38,0,0,0,.75.37c2,.86,3,.16,3.29-1.45h0a15.38,15.38,0,0,0-.21-4.9A82.26,82.26,0,0,0,88.6,72.4c-.11-.3-.51-.58-.61-.86a8.35,8.35,0,0,0-2.31-3.36,15.93,15.93,0,0,1,4.14,2.06c5.53,4.49,16.72,15.23,11,26.8"/><path class="cls-6" d="M81.47,83.3a2.74,2.74,0,0,0-2.57-.19c-1.11.7-2.29,2.54-3.3,3a6.16,6.16,0,0,0-4.3,4.74,5.13,5.13,0,0,0,2.51,5.43,5.28,5.28,0,0,0,5.83.22c2.3-1.55,3.15-3.46,2.81-5.68a6.42,6.42,0,0,1,.28-3.93c.43-1.45.37-2.63-1.26-3.56"/><path class="cls-7" d="M72.54,89a.16.16,0,0,0-.15.09,5,5,0,0,0-.57,1.46l.35,0a5,5,0,0,1,.52-1.33.17.17,0,0,0-.06-.23.16.16,0,0,0-.09,0"/><path class="cls-8" d="M81.86,94.21v0m0,0h0m0,0h0m0,0h0m0,0h0m0,0h0"/><path class="cls-9" d="M79.66,96.45l0,0,0,0h0"/><path class="cls-8" d="M81.85,94.23a7,7,0,0,1-2.19,2.22h0a7,7,0,0,0,2.19-2.22"/><path class="cls-10" d="M82.51,91.34a8.92,8.92,0,0,1-2.93,3,5.91,5.91,0,0,1-3.33,1,5.53,5.53,0,0,1-.71,0,5.59,5.59,0,0,1-.58,1.5,5.73,5.73,0,0,0,2.07.41,4.63,4.63,0,0,0,2.61-.79h0l0,0a7,7,0,0,0,2.19-2.22h0v0h.06a5,5,0,0,0,.59-2.77"/><path class="cls-11" d="M82.18,80.32a2.83,2.83,0,0,1-.63,2.44.52.52,0,0,1-.64.13,2.86,2.86,0,0,1-1.54-2A2.83,2.83,0,0,1,80,78.46a.53.53,0,0,1,.64-.13A2.86,2.86,0,0,1,82.18,80.32Z"/><polygon class="cls-12" points="81.3 83.45 81.28 83.4 80.46 79.54 80.53 79.44 80.63 79.51 81.44 83.37 81.38 83.47 81.3 83.45"/><path class="cls-1" d="M74.27,97.87a17.21,17.21,0,0,1-5.93,4.83c-6.18,2.93-12.59.53-15-3.57l0-.06c-6.23-10.81,3.38-21.88,8.72-26.95,1.77-1.69,3.08-2.71,3.17-2.84a9.94,9.94,0,0,1-.42,3.47c-.13.46-.87.88-1,1.41a90.82,90.82,0,0,0-2.37,10.89,19.45,19.45,0,0,0-.1,6c.41,2,1.53,2.87,3.81,1.65.18-.1.37-.21.57-.34,7.61-4.83,12.48.64,8.57,5.5"/><path class="cls-13" d="M86.45,69a4.42,4.42,0,0,0,.26,1l-.12,0,.62,0a9.45,9.45,0,0,0-.76-1m-8.18-.74c-4.71,0-10.18,1.35-12.41,2.63h0c2.05-1.1,7.27-2,12.22-2a28.08,28.08,0,0,1,6.34.63,12.3,12.3,0,0,0-6.17-1.28M86.91,68c-.13,0-.39,0-.46.44a12.24,12.24,0,0,1,3.37,1.77h0C88.21,68.93,87.08,68.15,87,68h-.07"/><path class="cls-14" d="M76.67,77.41c-.62,0-1.23,0-1.82.08h.78c.48,0,.94,0,1.4-.07h-.36M65.88,70.84h0l-.34.22a2.77,2.77,0,0,0-.42.36h0a2.77,2.77,0,0,1,.42-.36l.36-.22M87.21,70l-.62,0-.29.11a6,6,0,0,1,1.47.88,9.73,9.73,0,0,0-.56-1"/><path class="cls-4" d="M78.1,68.86c-4.95,0-10.17.88-12.22,2l-.36.22a2.77,2.77,0,0,0-.42.36c-.07.4-.17.85-.3,1.33s-.87.88-1,1.41c2.52,2.19,6.45,3.33,11.06,3.33h0c.59,0,1.2-.08,1.82-.08H77c5-.38,9.3-2.1,11.57-5-.11-.3-.51-.58-.61-.86s-.14-.38-.22-.56a6,6,0,0,0-1.47-.88l-.8.32a4,4,0,0,0-1.06-.93,28.08,28.08,0,0,0-6.34-.63"/><path class="cls-4" d="M86.45,68.47a1.53,1.53,0,0,0,0,.48,9.45,9.45,0,0,1,.76,1,9.73,9.73,0,0,1,.56,1c.08.18.15.37.22.56s.5.56.61.86h0l.15-.2a8,8,0,0,0,1.07-2,12.24,12.24,0,0,0-3.37-1.77"/><path class="cls-4" d="M65.22,69.28c-.09.13-1.4,1.15-3.17,2.84A8.42,8.42,0,0,0,63.58,74l.21.19h0c.14-.53.88-1,1-1.41s.23-.93.3-1.33h0a5.83,5.83,0,0,0-.9,1.26c.59-2.06,1-3.4,1-3.4"/><path class="cls-3" d="M60.81,64.85a23.28,23.28,0,0,1,4.13-11C67.55,50,71.22,49,75.16,48.9s7.65.66,10.46,4.37a23.32,23.32,0,0,1,4.7,10.8c.67,7-6,11-14.69,11.25S60.52,71.91,60.81,64.85Z"/><path class="cls-15" d="M82.25,64.15c0,4-3,8.68-6.78,8.68s-6.78-4.65-6.78-8.68a6.8,6.8,0,1,1,13.56,0Z"/><path class="cls-16" d="M72.13,67.44c-2.27,1.46-5.12,1.08-6.35-.84s-.39-4.66,1.89-6.12,5.12-1.09,6.35.83S74.41,66,72.13,67.44Z"/><path class="cls-16" d="M79.18,67.44c2.27,1.46,5.12,1.08,6.35-.84s.39-4.66-1.89-6.12-5.12-1.09-6.35.83S76.9,66,79.18,67.44Z"/><path class="cls-16" d="M75.13,68a2,2,0,0,1-1.79,1.76,1.53,1.53,0,0,1-.3,0,1.75,1.75,0,0,1-1.2-1.07.32.32,0,0,0-.42-.17.33.33,0,0,0-.17.43,2.38,2.38,0,0,0,1.66,1.44,2.09,2.09,0,0,0,.43,0,2.62,2.62,0,0,0,2.43-2.28.32.32,0,0,0-.26-.37.32.32,0,0,0-.38.25Z"/><path class="cls-16" d="M75.18,68.12a2.62,2.62,0,0,0,2.43,2.28,2.09,2.09,0,0,0,.43,0,2.38,2.38,0,0,0,1.66-1.44.33.33,0,0,0-.17-.43.32.32,0,0,0-.42.17,1.75,1.75,0,0,1-1.2,1.07,1.53,1.53,0,0,1-.3,0A2,2,0,0,1,75.82,68a.32.32,0,0,0-.38-.25.32.32,0,0,0-.26.37Z"/><path class="cls-1" d="M77.29,66.94c0,.38-.59.7-1.09.9a1.63,1.63,0,0,1-1.38-.07c-.47-.25-1-.62-1-1,0-.68.84-1.19,1.79-1.14S77.33,66.26,77.29,66.94Z"/><path class="cls-4" d="M92.64,90a5.12,5.12,0,0,0-.56,0h0c-.22,1.14-.77,1.82-1.78,1.82a3.87,3.87,0,0,1-1.51-.37h0a10.79,10.79,0,0,0-3.39,8.23c0,.34,0,.68,0,1a14.4,14.4,0,0,0,6,1.36,10.83,10.83,0,0,0,8.36-3.55c-.44-4.8-3.49-8.53-7.18-8.53"/><path class="cls-1" d="M86.28,102.12c0,5.37,2.94,9.71,6.56,9.71s6.55-4.34,6.55-9.71-2.93-9.71-6.55-9.71S86.28,96.76,86.28,102.12Z"/><path class="cls-3" d="M96.22,104.29c.06,2.57-1.41,4.69-3.27,4.73s-3.41-2-3.47-4.58,1.41-4.69,3.27-4.73S96.17,101.72,96.22,104.29Z"/><path class="cls-3" d="M91,98.26a1.26,1.26,0,0,1-1.22,1.28A1.25,1.25,0,1,1,91,98.26Z"/><path class="cls-4" d="M60.85,91.05c-3.76,0-6.89,3.46-7.52,8l0,.06A10.76,10.76,0,0,0,62.7,104a13.14,13.14,0,0,0,5.64-1.3,12.39,12.39,0,0,0,.15-1.94,10.61,10.61,0,0,0-3.36-8.05h0a4,4,0,0,1-1.82.56c-1.09,0-1.71-.84-2-2.21h-.47"/><path class="cls-3" d="M93.81,96.84a1.24,1.24,0,1,1-2.48,0,1.24,1.24,0,1,1,2.48,0Z"/><path class="cls-3" d="M96.65,98.14a1.24,1.24,0,1,1-1.27-1.21A1.23,1.23,0,0,1,96.65,98.14Z"/><path class="cls-1" d="M54.34,102.76c0,5.37,2.93,9.72,6.55,9.72s6.56-4.35,6.56-9.72-2.94-9.71-6.56-9.71S54.34,97.4,54.34,102.76Z"/><path class="cls-3" d="M64.28,104.94c0,2.57-1.41,4.68-3.27,4.72s-3.42-2-3.47-4.58,1.41-4.69,3.27-4.73S64.22,102.37,64.28,104.94Z"/><path class="cls-3" d="M59.09,98.91a1.25,1.25,0,1,1-1.27-1.22A1.25,1.25,0,0,1,59.09,98.91Z"/><path class="cls-3" d="M61.87,97.48a1.25,1.25,0,1,1-1.27-1.21A1.24,1.24,0,0,1,61.87,97.48Z"/><path class="cls-3" d="M64.71,98.79a1.25,1.25,0,1,1-2.49,0,1.25,1.25,0,1,1,2.49,0Z"/><path class="cls-3" d="M73.47,63.88a1,1,0,1,1-1-1A1,1,0,0,1,73.47,63.88Z"/><path class="cls-3" d="M79.72,63.88a1,1,0,1,1-1-1A1,1,0,0,1,79.72,63.88Z"/><path class="cls-6" d="M107,96.18a2.37,2.37,0,0,1,2.08.76c.62,1,.9,2.8,1.54,3.5a5.29,5.29,0,0,1,1.68,5.24,4.39,4.39,0,0,1-3.89,3.36,4.51,4.51,0,0,1-4.64-1.89c-1.26-2-1.25-3.83-.2-5.45a5.39,5.39,0,0,0,1.17-3.18c.19-1.29.66-2.19,2.26-2.34"/><path class="cls-7" d="M112,103.78h0a.14.14,0,0,0-.13.16,4.13,4.13,0,0,1-.13,1.55,3.67,3.67,0,0,1-1.36,2.11l0,.21.17.06,0,0a3.91,3.91,0,0,0,1.47-2.28,4.25,4.25,0,0,0,.15-1.65.15.15,0,0,0-.15-.14"/><path class="cls-8" d="M102.86,103.71v0m0,0v0m0,0v0m0,0h0m0,0h0m0,0h0"/><path class="cls-17" d="M103,105.49h0a6.92,6.92,0,0,0,.68,1.52,6.92,6.92,0,0,1-.68-1.52"/><path class="cls-8" d="M102.85,103.75a4.58,4.58,0,0,0,.18,1.74h0a4.58,4.58,0,0,1-.18-1.74"/><path class="cls-17" d="M103.77,107.1h0m0,0v0m0,0v0"/><path class="cls-10" d="M103.37,102.11a4.44,4.44,0,0,0-.49,1.42h0v0h0v0h0v0h0v0h0v0h0a4.58,4.58,0,0,0,.18,1.74,6.92,6.92,0,0,0,.68,1.52h0v0l0,0v0l0,0h0l0,0a4.32,4.32,0,0,0,3.79,2,5.58,5.58,0,0,0,3.55-1.3c-.23.06-.44.1-.63.13a5.93,5.93,0,0,1-5.93-2.41,7.49,7.49,0,0,1-1.21-3.42"/><path class="cls-11" d="M107.53,93.59a2.42,2.42,0,0,0-.37,2.13.45.45,0,0,0,.45.34,2.47,2.47,0,0,0,2.29-3.15.48.48,0,0,0-.46-.34A2.47,2.47,0,0,0,107.53,93.59Z"/><polygon class="cls-12" points="107.11 96.36 107.14 96.33 109.15 93.59 109.14 93.49 109.03 93.5 107.03 96.24 107.04 96.34 107.11 96.36"/></svg>