<svg id="Layer_1" data-name="Layer 1" xmlns="http://www.w3.org/2000/svg" viewBox="0 0 160 160"><defs><style>.cls-1{fill:#268cea;}</style></defs><title>Artboard 76</title><path class="cls-1" d="M69.21,58.09a14.81,14.81,0,0,1,0,27.22,23.91,23.91,0,0,1-9.89,1.89H52v11H40.14V56.21H59.32A24.07,24.07,0,0,1,69.21,58.09ZM64.12,76.26a6.5,6.5,0,0,0,0-9.08,8.19,8.19,0,0,0-5.52-1.62H52V77.84H58.6A8.3,8.3,0,0,0,64.12,76.26Z"/><path class="cls-1" d="M112,67.21a15,15,0,0,1,5.75,5.87,19.41,19.41,0,0,1,0,17.68A15.06,15.06,0,0,1,112,96.64a16,16,0,0,1-8.06,2.06,12.12,12.12,0,0,1-9-3.41v14.5H83.48V65.68H94.33v3.23q3.17-3.76,9.59-3.77A16,16,0,0,1,112,67.21Zm-5.55,20.38a8,8,0,0,0,1.92-5.67,8,8,0,0,0-1.92-5.66,6.87,6.87,0,0,0-9.83,0,8,8,0,0,0-1.91,5.66,8,8,0,0,0,1.91,5.67,6.89,6.89,0,0,0,9.83,0Z"/></svg>