<svg id="Layer_1" data-name="Layer 1" xmlns="http://www.w3.org/2000/svg" xmlns:xlink="http://www.w3.org/1999/xlink" viewBox="0 0 160 160"><defs><style>.cls-1{fill:none;}.cls-2{fill:#6258e0;}.cls-3{fill:#542419;}.cls-4{fill:#6d6aef;}.cls-5{fill:#e59279;}.cls-6{fill:#b86347;}.cls-7{clip-path:url(#clip-path);}.cls-8{fill:#b76444;}.cls-9{fill:#620e00;}.cls-10{fill:#fff;}.cls-11{fill:#ffd31e;}.cls-12{fill:#fd4a46;}.cls-13{fill:#ff66a1;}.cls-14{fill:#fc9047;}</style><clipPath id="clip-path"><path class="cls-1" d="M80.52,72.43h-.89a10.11,10.11,0,0,1-10.1-10.11V59.19a10.1,10.1,0,0,1,10.1-10.1h.89a10.1,10.1,0,0,1,10.1,10.1v3.13a10.11,10.11,0,0,1-10.1,10.11"/></clipPath></defs><title>Artboard 77</title><path class="cls-2" d="M83.76,80.86a13.93,13.93,0,0,1,3.72.58,17.35,17.35,0,0,1,3.14,1.2,11.42,11.42,0,0,1,3.6,2.65,5.42,5.42,0,0,1,.89,1.4,3.74,3.74,0,0,1,.3,1.4,3.66,3.66,0,1,0,7.31-.15,11.27,11.27,0,0,0-.7-3.65,13.33,13.33,0,0,0-3.41-5A21.5,21.5,0,0,0,91.31,75a25.91,25.91,0,0,0-3.86-1.07,19.9,19.9,0,0,0-3.69-.37,3.66,3.66,0,1,0,0,7.31Z"/><path class="cls-3" d="M70.63,48.62a9.45,9.45,0,1,1,9.44,9.44A9.44,9.44,0,0,1,70.63,48.62Z"/><path class="cls-2" d="M75.46,73.55a21.42,21.42,0,0,0-5.71.85,25.11,25.11,0,0,0-4.41,1.69,18.61,18.61,0,0,0-5.9,4.45,12.83,12.83,0,0,0-2.08,3.33,11,11,0,0,0-.86,4.07,3.66,3.66,0,1,0,7.31.15,3.8,3.8,0,0,1,.24-1.25,5.89,5.89,0,0,1,1.55-2.19,14.45,14.45,0,0,1,4.81-2.79,18.8,18.8,0,0,1,2.74-.76,12.32,12.32,0,0,1,2.31-.24,3.66,3.66,0,0,0,0-7.31Z"/><path class="cls-4" d="M68.78,103.59h22v-22a8.27,8.27,0,0,0-8.27-8.27H77.05a8.27,8.27,0,0,0-8.27,8.27Z"/><path class="cls-5" d="M80,78.82h0a4.48,4.48,0,0,0,4.49-4.48v-7.5a4.49,4.49,0,1,0-9,0v7.5A4.48,4.48,0,0,0,80,78.82Z"/><path class="cls-6" d="M80,74.14h0a4.49,4.49,0,0,0,4.49-4.48V68.21a4.49,4.49,0,0,0-9,0v1.45A4.49,4.49,0,0,0,80,74.14Z"/><path class="cls-5" d="M80.07,72.43h0A10.55,10.55,0,0,1,69.53,61.88V59.63a10.55,10.55,0,0,1,21.09,0v2.25A10.55,10.55,0,0,1,80.07,72.43Z"/><g class="cls-7"><rect class="cls-3" x="63.12" y="49.54" width="9.82" height="11.07" rx="4.71" ry="4.71"/><rect class="cls-3" x="86.94" y="49.47" width="9.82" height="11.07" rx="4.71" ry="4.71"/><ellipse class="cls-3" cx="80.08" cy="48.64" rx="9.44" ry="9.46"/></g><path class="cls-5" d="M67,62.64a2.2,2.2,0,1,1,2.2,2.19A2.2,2.2,0,0,1,67,62.64Z"/><path class="cls-5" d="M88.77,62.64A2.19,2.19,0,1,1,91,64.83,2.19,2.19,0,0,1,88.77,62.64Z"/><path class="cls-8" d="M76.12,60.26l-2.49.66a.58.58,0,0,1-.3-1.13l2.49-.66a.57.57,0,0,1,.71.41A.59.59,0,0,1,76.12,60.26Z"/><path class="cls-8" d="M83.72,60.26l2.48.66a.59.59,0,0,0,.31-1.13L84,59.13a.59.59,0,0,0-.72.41A.6.6,0,0,0,83.72,60.26Z"/><path class="cls-9" d="M78,68.63a2.91,2.91,0,0,0,4.13-.1.33.33,0,0,0,0-.47.32.32,0,0,0-.46,0,2.27,2.27,0,0,1-1.65.7,2.24,2.24,0,0,1-1.56-.62.33.33,0,0,0-.47,0,.32.32,0,0,0,0,.46Z"/><path class="cls-6" d="M80.07,66.55h0a1.25,1.25,0,0,1-1.25-1.37L79.11,62A1,1,0,0,1,81,62l.29,3.21A1.25,1.25,0,0,1,80.07,66.55Z"/><path class="cls-9" d="M74.52,63.05a.9.9,0,1,1,.9.9A.9.9,0,0,1,74.52,63.05Z"/><path class="cls-9" d="M83.6,63.09a.9.9,0,1,1,.9.9A.9.9,0,0,1,83.6,63.09Z"/><path class="cls-10" d="M87.72,73.84l-1.36-.78a1.23,1.23,0,0,0-1.52.23l-3.56,3.92a1.67,1.67,0,0,1-2.47,0l-3.55-3.92a1.24,1.24,0,0,0-1.53-.23l-1.35.78a1.23,1.23,0,0,0-.55,1.5l1.12,3a4.3,4.3,0,0,0,6.81,1.78,1.12,1.12,0,0,0,.29-.36,1.12,1.12,0,0,0,.29.36,4.3,4.3,0,0,0,6.81-1.78l1.11-3A1.23,1.23,0,0,0,87.72,73.84Z"/><path class="cls-11" d="M85.29,51.05l-10-1.38a.44.44,0,0,1-.38-.5L75.46,45a.51.51,0,0,1,.89-.27l1.46,1.59a.38.38,0,0,0,.49.07l2.16-1.35a.87.87,0,0,1,1.09.15l1.71,1.88a.4.4,0,0,0,.5.07L85.59,46a.51.51,0,0,1,.78.5l-.57,4.16A.45.45,0,0,1,85.29,51.05Z"/><rect class="cls-11" x="45.01" y="94.28" width="67.99" height="18.2" rx="1.19" ry="1.19"/><rect class="cls-12" x="46.6" y="95.98" width="14.75" height="14.75" rx="0.47" ry="0.47"/><rect class="cls-13" x="63.33" y="95.98" width="14.75" height="14.75" rx="0.47" ry="0.47"/><rect class="cls-14" x="80.07" y="95.98" width="14.75" height="14.75" rx="0.47" ry="0.47"/><rect class="cls-4" x="96.8" y="95.98" width="14.75" height="14.75" rx="0.47" ry="0.47"/><path class="cls-2" d="M56.5,87.77c0,.25,0,.5,0,.75a12.67,12.67,0,0,0,.59,3.77,11.85,11.85,0,0,0,3.29,5.22,9.77,9.77,0,0,0,3,1.82A9.91,9.91,0,0,0,67,100a3.66,3.66,0,1,0,0-7.31,2.49,2.49,0,0,1-1.26-.3,3.15,3.15,0,0,1-.73-.58,4.87,4.87,0,0,1-.89-1.54,5.45,5.45,0,0,1-.32-1.77,2.17,2.17,0,0,1,0-.26,3.66,3.66,0,0,0-7.3-.49Z"/><path class="cls-5" d="M70.57,93.82l-3.33,1.65a.95.95,0,1,0,.84,1.7l3.33-1.64a1,1,0,0,0,.43-1.28,1,1,0,0,0-1.27-.43"/><path class="cls-5" d="M71.14,101.18l-3.2-.84a2.68,2.68,0,1,1,1.36-5.19l3.2.84a2.68,2.68,0,0,1-1.36,5.19Z"/><path class="cls-2" d="M95.42,88.26v.26a5.1,5.1,0,0,1-.25,1.56,4.5,4.5,0,0,1-1.19,2,2.61,2.61,0,0,1-.76.48,2.73,2.73,0,0,1-1,.17,3.66,3.66,0,0,0,0,7.31A9.81,9.81,0,0,0,97,98.83a10.23,10.23,0,0,0,2.64-2.1,11.72,11.72,0,0,0,2.35-4,12.54,12.54,0,0,0,.75-4.23c0-.25,0-.5,0-.75a3.65,3.65,0,1,0-7.29.49Z"/><path class="cls-5" d="M87.88,94.79l3.44,2a1,1,0,0,0,1-1.65l-3.44-2a.95.95,0,1,0-1,1.64"/><path class="cls-10" d="M94.31,101.9,82.77,88.3a.48.48,0,0,0-.66-.06.49.49,0,0,0-.08.67L92.94,103a.88.88,0,0,0,1.25.14A.87.87,0,0,0,94.31,101.9Zm-.87.95a.53.53,0,0,1-.49-.56.54.54,0,0,1,.56-.49.53.53,0,0,1-.07,1Z"/><path class="cls-5" d="M87.35,100l3.31-.12a2.69,2.69,0,1,0-.21-5.37l-3.3.13a2.68,2.68,0,1,0,.2,5.36Z"/><path class="cls-10" d="M93.82,108.37h2.24a.49.49,0,0,0,0-1H93.82a.49.49,0,1,0,0,1"/><path class="cls-10" d="M107.8,94.9v2.17a.49.49,0,0,0,.49.49.48.48,0,0,0,.48-.49V94.9a.48.48,0,0,0-.48-.48.49.49,0,0,0-.49.48"/><path class="cls-10" d="M78.78,104.4H81a.49.49,0,1,0,0-1H78.78a.49.49,0,0,0,0,1"/><path class="cls-10" d="M62.7,109.56h2.17a.49.49,0,1,0,0-1H62.7a.49.49,0,0,0,0,1"/><path class="cls-10" d="M64.39,109.23v2.16a.49.49,0,1,0,1,0v-2.16a.49.49,0,1,0-1,0"/><path class="cls-11" d="M68.12,66.45a.9.9,0,1,1,.89.9A.89.89,0,0,1,68.12,66.45Z"/><path class="cls-11" d="M90.25,66.45a.9.9,0,1,1,.9.9A.9.9,0,0,1,90.25,66.45Z"/></svg>