<svg id="Layer_1" data-name="Layer 1" xmlns="http://www.w3.org/2000/svg" viewBox="0 0 160 160"><defs><style>.cls-1{fill:#268cea;}</style></defs><title>Artboard 78</title><path class="cls-1" d="M81.86,75.51c-.6-12.08-10.35-20.74-23.62-20.74s-23,8.6-23.62,20.74V77.8c.58,12.21,10.35,21,23.62,21a14.53,14.53,0,0,0,1.62-.06l4.35,9.2H79L72.65,94.5a21.12,21.12,0,0,0,9-14.44c0-.37.1-.73.13-1.11s.07-.73.09-1.13V76.6C81.89,76.23,81.88,75.87,81.86,75.51ZM68.23,82.27a10.87,10.87,0,0,1-4.07,4.22,11.79,11.79,0,0,1-11.51,0,10.83,10.83,0,0,1-4.08-4.22,13.83,13.83,0,0,1,0-12.53,10.79,10.79,0,0,1,4.08-4.23,11.79,11.79,0,0,1,11.51,0,10.83,10.83,0,0,1,4.07,4.23,13.83,13.83,0,0,1,0,12.53Z"/><path class="cls-1" d="M121.76,106.37V64.5H110.91v3.23q-3.18-3.78-9.59-3.78A15.94,15.94,0,0,0,93.26,66,15.08,15.08,0,0,0,87.5,71.9a19.41,19.41,0,0,0,0,17.68,15,15,0,0,0,5.76,5.87,15.94,15.94,0,0,0,8.06,2.07q5.75,0,9.05-3.42v12.68a1.55,1.55,0,0,0,0,.21,7.51,7.51,0,0,0,15-.6v0Zm-13.13-20a6.87,6.87,0,0,1-9.83,0,8,8,0,0,1-1.92-5.66,8,8,0,0,1,1.92-5.66,6.85,6.85,0,0,1,9.83,0,8,8,0,0,1,1.92,5.66A8,8,0,0,1,108.63,86.4Z"/></svg>