<svg id="Layer_1" data-name="Layer 1" xmlns="http://www.w3.org/2000/svg" xmlns:xlink="http://www.w3.org/1999/xlink" viewBox="0 0 160 160"><defs><style>.cls-1{fill:none;}.cls-2{fill:#e1e1e1;}.cls-3{fill:#d3d3d3;}.cls-4{fill:#b7b7b7;}.cls-5{fill:#aaa;}.cls-6{fill:#504e4e;}.cls-7{clip-path:url(#clip-path);}.cls-8{fill:#fffed9;}.cls-9{fill:#ff66a1;}.cls-10{fill:#f1f1f1;}.cls-11{fill:#a3a3a3;}.cls-12{fill:#b0b0b0;}.cls-13{fill:#949494;}.cls-14{fill:#4b4bb2;}.cls-15{fill:#6258e0;}.cls-16{fill:#e7e7e7;}.cls-17{fill:#ffc8aa;}.cls-18{fill:#f8c1a2;}.cls-19{fill:#f3bc9d;}.cls-20{fill:#ff9255;}.cls-21{fill:#d6ecfc;}.cls-22{fill:#515050;}.cls-23{fill:#620e00;}.cls-24{clip-path:url(#clip-path-2);}.cls-25{fill:#fff;}</style><clipPath id="clip-path"><path class="cls-1" d="M96.38,62.39c-.37,0-.57.49-.35.84a2.55,2.55,0,0,0,2.06,1.23,2.51,2.51,0,0,0,2.11-1.19.53.53,0,0,0-.33-.83l-3.49,0"/></clipPath><clipPath id="clip-path-2"><path class="cls-1" d="M95,81.78a3.66,3.66,0,1,1-6.7-3c.82-1.85,1.5.67,3.35,1.49s4.17-.37,3.35,1.48"/></clipPath></defs><title>Artboard 79</title><path class="cls-2" d="M97.94,73.51c-1.07,0-2.1,0-3.06.07A19,19,0,0,1,98,76.5c5.76,0,10.42-.67,10.42-1.49s-4.69-1.5-10.48-1.5"/><path class="cls-3" d="M75.2,48.58A3.62,3.62,0,1,1,71.58,45,3.63,3.63,0,0,1,75.2,48.58Z"/><path class="cls-4" d="M77.68,66c0,.07-.19.46-.36,1A9.35,9.35,0,0,0,77,69.44,6,6,0,0,0,77.16,71a4.45,4.45,0,0,0,.54,1.24,4.27,4.27,0,0,0,1.67,1.56,5.52,5.52,0,0,0,2.32.62A2.36,2.36,0,0,0,82,69.65a1.74,1.74,0,0,1-.37-.06l0,0,0,0h0l0,0,0,0-.16.29.25-.22-.09-.07-.16.29.25-.22-.26.23.3-.16,0-.07-.26.23.3-.16-.12.06.13-.05h0l-.12.06.13-.05v0a1.12,1.12,0,0,1,0-.28,3.71,3.71,0,0,1,.17-1.06c0-.16.09-.3.12-.39l0-.09h0A2.37,2.37,0,0,0,77.68,66Z"/><path class="cls-5" d="M86,64.69a5.28,5.28,0,1,1-5.28-5.28A5.27,5.27,0,0,1,86,64.69Z"/><path class="cls-4" d="M99.51,67.1s-2,4.8,2,5"/><path class="cls-4" d="M97.34,66.17a9.85,9.85,0,0,0-.36,1,8.52,8.52,0,0,0-.35,2.35,5.57,5.57,0,0,0,.19,1.51,4.73,4.73,0,0,0,.53,1.24A4.34,4.34,0,0,0,99,73.88a5.6,5.6,0,0,0,2.32.62,2.36,2.36,0,0,0,.28-4.72,1.09,1.09,0,0,1-.37-.06l0,0,0,0h0l0,0,0,0-.17.29.25-.22-.08-.07-.17.29.25-.22-.26.23.31-.16,0-.07-.26.23.31-.16-.13.06.14,0h0l-.13.06.14,0v0a1.12,1.12,0,0,1,0-.28,4.58,4.58,0,0,1,.17-1.06c0-.16.1-.3.13-.39l0-.09h0a2.36,2.36,0,1,0-4.34-1.86Z"/><path class="cls-5" d="M104.21,66.63a5.28,5.28,0,1,1-5.28-5.28A5.27,5.27,0,0,1,104.21,66.63Z"/><path class="cls-3" d="M74.55,66.56c0,.07-.19.46-.36,1.06A9.19,9.19,0,0,0,73.84,70,6,6,0,0,0,74,71.47a4.45,4.45,0,0,0,.54,1.24,4.27,4.27,0,0,0,1.67,1.56,5.52,5.52,0,0,0,2.32.62,2.36,2.36,0,0,0,.27-4.72,1.18,1.18,0,0,1-.37-.06l0,0,0,0h0l0,0,0,0-.16.29.25-.22-.09-.07-.16.29.25-.22-.26.23.3-.16,0-.07-.26.23.3-.16-.12.06.13,0h0l-.12.06.13,0h0a1.23,1.23,0,0,1,0-.29,3.77,3.77,0,0,1,.17-1.06c0-.16.09-.3.12-.39l0-.09h0a2.37,2.37,0,0,0-4.35-1.86Z"/><path class="cls-3" d="M94.08,66.56a9.56,9.56,0,0,0-.36,1.06A8.38,8.38,0,0,0,93.37,70a5.57,5.57,0,0,0,.19,1.51,4.73,4.73,0,0,0,.53,1.24,4.34,4.34,0,0,0,1.67,1.56,5.6,5.6,0,0,0,2.32.62,2.36,2.36,0,0,0,.28-4.72,1.31,1.31,0,0,1-.38-.06v0l0,0h0v0l0,0-.17.29.25-.22L98,70.11l-.17.29.25-.22-.26.23.31-.16-.05-.07-.26.23.31-.16-.13.06.13,0h0l-.13.06.13,0h0a1.23,1.23,0,0,1,0-.29,4.66,4.66,0,0,1,.17-1.06c0-.16.1-.3.13-.39l0-.09h0a2.36,2.36,0,0,0-4.34-1.86Z"/><path class="cls-4" d="M105.68,59.1a6.2,6.2,0,0,0-6.6-5.77,6.07,6.07,0,0,0-3.36,1.3c-1.27.31-2.41-.32-3.63-2A11.17,11.17,0,1,0,81.6,68.2c.29.06,13.17,2.62,21.06-3.25l0,0A6.23,6.23,0,0,0,105.68,59.1Z"/><circle class="cls-4" cx="77.59" cy="65.21" r="5.27"/><path class="cls-4" d="M101,67a5.28,5.28,0,1,1-5.28-5.28A5.27,5.27,0,0,1,101,67Z"/><path class="cls-3" d="M100.61,47.94A16.62,16.62,0,0,0,99,42.7a11.9,11.9,0,0,0-3.09-3.88,10,10,0,0,0-5.55-2.15A1.83,1.83,0,1,0,90,40.31a6.21,6.21,0,0,1,3.53,1.36,9.54,9.54,0,0,1,2.78,4.19,14.47,14.47,0,0,1,.51,1.82c0,.23.08.41.1.53l0,.13v0h0l1-.13-1,.12h0l1-.13-1,.12a1.83,1.83,0,0,0,3.63-.42Z"/><path class="cls-3" d="M110.27,59.49a18.69,18.69,0,0,0-3.2-8.88c-2.06-3.1-5-3.9-8.14-4s-6.14.46-8.42,3.4a18.57,18.57,0,0,0-3.86,8.61c-.6,5.63,4.62,7.31,11.54,7.57S110.45,65.15,110.27,59.49Z"/><path class="cls-6" d="M94.17,58.5a.73.73,0,1,1-.7-.76A.72.72,0,0,1,94.17,58.5Z"/><path class="cls-6" d="M96.38,62.39c-.37,0-.57.49-.35.84a2.55,2.55,0,0,0,2.06,1.23,2.51,2.51,0,0,0,2.11-1.19.53.53,0,0,0-.33-.83Z"/><g class="cls-7"><path class="cls-8" d="M97.74,63.5h-.43a.18.18,0,0,1-.18-.18l0-1.43h.79v1.43A.19.19,0,0,1,97.74,63.5Z"/><path class="cls-8" d="M98.71,63.51h-.43a.19.19,0,0,1-.18-.19l0-1.43.79,0v1.43A.18.18,0,0,1,98.71,63.51Z"/><path class="cls-9" d="M98,64.6a.85.85,0,0,0-.75-.92.86.86,0,0,0-.78.9.78.78,0,1,0,1.53,0Z"/></g><path class="cls-3" d="M103.58,45.77a4,4,0,0,0-2.44.57,11.34,11.34,0,0,1,1.27-2.78,5.85,5.85,0,0,0-4.26,4.08l2.27.08,1.27.48A6.6,6.6,0,0,1,103.58,45.77Z"/><path class="cls-4" d="M93.83,60.68c.06-.59-.85-1.15-2-1.26s-2.17.27-2.22.86.85,1.15,2,1.26S93.78,61.27,93.83,60.68Z"/><path class="cls-3" d="M93.87,47.79a13.09,13.09,0,0,0-2.29-4.2,12.39,12.39,0,0,0-8.94-4.72,1.83,1.83,0,1,0-.3,3.64,9,9,0,0,1,3.93,1.2A9.51,9.51,0,0,1,89.51,47a10,10,0,0,1,.68,1.35l.15.38,0,.08v0l.77-.24-.77.23h0l.77-.24-.77.23a1.82,1.82,0,1,0,3.5-1Z"/><path class="cls-6" d="M99.7,60.8c.08,0,.17,0,.18-.09a1.08,1.08,0,0,0-1.08-1.06L98,59.59a1.08,1.08,0,0,0-1.24.86c0,.06.08.11.16.11.68.06,1,.78,1.33.81S98.88,60.71,99.7,60.8Z"/><path class="cls-3" d="M95.4,60.81a1.51,1.51,0,1,0,2.84,1"/><path class="cls-6" d="M95.17,60.73a1.8,1.8,0,0,0-.1.6A1.73,1.73,0,0,0,96.21,63a1.87,1.87,0,0,0,.61.11,1.75,1.75,0,0,0,1.64-1.15.24.24,0,0,0-.14-.31.24.24,0,0,0-.3.14,1.28,1.28,0,0,1-1.2.84,1.11,1.11,0,0,1-.44-.08,1.28,1.28,0,0,1-.84-1.2,1.17,1.17,0,0,1,.08-.44.24.24,0,0,0-.14-.3.23.23,0,0,0-.31.14Z"/><path class="cls-3" d="M98.31,61.22a1.52,1.52,0,0,0,.9,2,1.53,1.53,0,0,0,2-.9"/><path class="cls-6" d="M98.09,61.14a1.81,1.81,0,0,0-.11.6,1.75,1.75,0,0,0,1.15,1.65,1.81,1.81,0,0,0,.6.11,1.75,1.75,0,0,0,1.65-1.15.25.25,0,0,0-.14-.31.24.24,0,0,0-.3.14,1.28,1.28,0,0,1-1.21.84,1.17,1.17,0,0,1-.44-.08,1.28,1.28,0,0,1-.84-1.2,1.41,1.41,0,0,1,.08-.44.22.22,0,0,0-.14-.3.23.23,0,0,0-.3.14Z"/><path class="cls-4" d="M108.94,59.07a4.49,4.49,0,1,1-4.46-3.94A4.22,4.22,0,0,1,108.94,59.07Z"/><path class="cls-6" d="M104.4,58.88a.74.74,0,1,1-.71-.76A.74.74,0,0,1,104.4,58.88Z"/><path class="cls-3" d="M106.57,61.22c0-.59-1-1-2.17-1s-2.12.55-2.1,1.14,1,1,2.17,1S106.59,61.81,106.57,61.22Z"/><path class="cls-10" d="M49,59.9a2.22,2.22,0,0,0-1,4.22,2.28,2.28,0,0,0,1,.22,2.22,2.22,0,0,0,0-4.44"/><path class="cls-10" d="M44.35,63.25a1.76,1.76,0,0,0-.77,3.34,1.76,1.76,0,1,0,.77-3.34"/><path class="cls-11" d="M54,85.14l0-5.92a1.39,1.39,0,0,1,1.38-1.36h.9a1.37,1.37,0,0,1,1.36,1.38l0,5.92a1.39,1.39,0,0,1-1.38,1.36h-.9A1.37,1.37,0,0,1,54,85.14"/><path class="cls-12" d="M56.84,86.39a1.4,1.4,0,0,1-.61.14h-.41v0h1v-.17m-.31-8.5a1.4,1.4,0,0,1,.36.13V77.9h-.36"/><path class="cls-13" d="M55.88,77.89l-.06,8.64h.41a1.4,1.4,0,0,0,.61-.14l0-8.37a1.4,1.4,0,0,0-.36-.13h-.65"/><path class="cls-14" d="M59.08,69.92l.05-7.05a.75.75,0,0,1,.75-.74l5.34,0c2.94,0,7.79,1.58,7.88,5.46l0,2.45Z"/><path class="cls-14" d="M58.67,96.36l-.09,7a.74.74,0,0,0,.74.75l5.33.07c2.94,0,7.82-1.43,8-5.31l0-2.44-14-.12"/><path class="cls-15" d="M56.77,96,57,68.6a1,1,0,0,1,1-1l21,.14c8.09.05,21.6,6.76,21.55,14.86S86.86,97.23,78.76,97.18l-21-.14a1,1,0,0,1-1-1"/><path class="cls-14" d="M86.44,91.9a10,10,0,1,1,10.11-10A10,10,0,0,1,86.44,91.9Z"/><path class="cls-10" d="M38.75,76.91a5.37,5.37,0,0,0-4,2.39,3.12,3.12,0,0,1-.27,5.47,5.37,5.37,0,0,0,4.71,2.86h0A5.37,5.37,0,0,0,44,84.7c-1.34-.79-2.36-1.84-2.35-3a2.08,2.08,0,0,1,.29-1,3.08,3.08,0,0,1-.53,0h0a2.85,2.85,0,0,1-2.84-2.87,3.13,3.13,0,0,1,.16-.93"/><path class="cls-10" d="M41.45,75a2.87,2.87,0,0,0-2.7,1.91l.51,0h0a5.37,5.37,0,0,1,4.29,2.18c.19-.12.39-.25.6-.36a2.83,2.83,0,0,0,.13-.83A2.86,2.86,0,0,0,41.47,75h0"/><path class="cls-16" d="M39.26,76.89l-.51,0a3.13,3.13,0,0,0-.16.93,2.85,2.85,0,0,0,2.84,2.87h0a3.08,3.08,0,0,0,.53,0,5,5,0,0,1,1.6-1.6,5.37,5.37,0,0,0-4.29-2.18h0"/><path class="cls-10" d="M33.15,78.85a3.12,3.12,0,0,0,0,6.23h0a3.09,3.09,0,0,0,1.36-.31,5.38,5.38,0,0,1,.27-5.47,3.14,3.14,0,0,0-1.61-.45h0"/><path class="cls-16" d="M34.78,79.3a5.38,5.38,0,0,0-.27,5.47,3.12,3.12,0,0,0,.27-5.47"/><path class="cls-17" d="M48.73,77.38a10.45,10.45,0,0,0-4.55,1.33,2.73,2.73,0,0,1-.35.73,5.44,5.44,0,0,1,.8,2.86A5.39,5.39,0,0,1,44,84.7a10.46,10.46,0,0,0,4.66,1.45h0a4.39,4.39,0,0,0,0-8.77h0"/><path class="cls-18" d="M43.83,79.44A2.88,2.88,0,0,1,42,80.67a2.08,2.08,0,0,0-.29,1c0,1.14,1,2.19,2.35,3a5.39,5.39,0,0,0,.59-2.4,5.44,5.44,0,0,0-.8-2.86"/><path class="cls-18" d="M44.18,78.71c-.21.11-.41.24-.6.36.09.12.17.25.25.37a2.73,2.73,0,0,0,.35-.73"/><path class="cls-19" d="M43.58,79.07a5,5,0,0,0-1.6,1.6,2.88,2.88,0,0,0,1.85-1.23c-.08-.12-.16-.25-.25-.37"/><path class="cls-20" d="M50.44,84.43c-1.47,0-4.26-1.22-4.25-2.68s2.82-2.64,4.29-2.63a2.66,2.66,0,1,1,0,5.31Z"/><path class="cls-17" d="M55.71,62.35c-1.51,0-4.38,1.2-4.39,2.71s2.86,2.75,4.37,2.76h0a2.74,2.74,0,0,0,0-5.47h0"/><path class="cls-20" d="M56.78,66.75c-.92,0-2.66-.76-2.65-1.67s1.75-1.65,2.67-1.64a1.66,1.66,0,0,1,0,3.31Z"/><path class="cls-17" d="M55.65,97.51c-1.51,0-4.38,1.2-4.39,2.71S54.13,103,55.63,103h0a2.74,2.74,0,0,0,0-5.47h0"/><path class="cls-20" d="M56.72,101.91c-.92,0-2.66-.76-2.65-1.67s1.76-1.65,2.67-1.64a1.66,1.66,0,1,1,0,3.31Z"/><path class="cls-21" d="M88,91.05a9.34,9.34,0,0,1-9.26-9.39,9.32,9.32,0,0,1,16-6.48,9.24,9.24,0,0,1,2.69,6.61A9.35,9.35,0,0,1,88,91.05Z"/><path class="cls-15" d="M88,73.12h.06a8.6,8.6,0,0,1,8.55,8.66A8.62,8.62,0,0,1,88,90.33H88a8.61,8.61,0,0,1,0-17.21m0-1.44A10,10,0,0,0,88,91.77H88a10,10,0,0,0,.06-20.09Z"/><path class="cls-22" d="M91.9,78.43a.72.72,0,1,1-.37-.94A.71.71,0,0,1,91.9,78.43Z"/><path class="cls-22" d="M94.17,79.44a.72.72,0,0,1-1,.36.71.71,0,1,1,1-.36Z"/><path class="cls-23" d="M95,81.78a3.66,3.66,0,1,1-6.7-3c.82-1.85,1.5.66,3.35,1.49S95.85,79.93,95,81.78Z"/><path class="cls-6" d="M95,81.78a3.66,3.66,0,1,1-6.7-3c.82-1.85,1.5.66,3.35,1.49S95.85,79.93,95,81.78Z"/><g class="cls-24"><rect class="cls-8" x="90.32" y="77.81" width="3.73" height="2.69" rx="0.94" ry="0.94" transform="translate(-17.55 131.34) rotate(-66.09)"/><path class="cls-9" d="M86.93,84.55h0a1.34,1.34,0,0,1-.68-1.77l.42-1a1.35,1.35,0,1,1,2.46,1.09l-.42,1A1.36,1.36,0,0,1,86.93,84.55Z"/></g><path class="cls-14" d="M68.13,95.48l-7.64,0h0a1.51,1.51,0,0,1-1.13-.5,2.54,2.54,0,0,1-.57-1.74,4,4,0,0,1,0-.47.33.33,0,0,0-.65-.06,4.84,4.84,0,0,0,0,.53,3.23,3.23,0,0,0,.73,2.18,2.17,2.17,0,0,0,1.62.71h0v0l7.64,0a.33.33,0,0,0,0-.66Z"/><path class="cls-15" d="M71.48,66.5a5.52,5.52,0,0,0-1-1.44,6.31,6.31,0,0,0-3.54-1.85.32.32,0,0,0-.37.27.33.33,0,0,0,.27.38A5.59,5.59,0,0,1,70,65.51a5,5,0,0,1,.68.88,2.83,2.83,0,0,1,.15.28l0,.07v0a.32.32,0,0,0,.42.17.33.33,0,0,0,.18-.43Z"/><path class="cls-15" d="M70.91,98.65l-.09,1.69a.26.26,0,1,0,.52,0l.09-1.69a.27.27,0,0,0-.24-.28.27.27,0,0,0-.28.25"/><path class="cls-10" d="M43.79,95.21a2.21,2.21,0,1,0,1,.22,2.23,2.23,0,0,0-1-.22"/><path class="cls-10" d="M47.78,99.55A1.76,1.76,0,0,0,47,102.9a1.76,1.76,0,1,0,1.53-3.17,1.7,1.7,0,0,0-.76-.18"/><path class="cls-21" d="M68.14,85.24a2.48,2.48,0,1,1,2.48-2.48A2.49,2.49,0,0,1,68.14,85.24Z"/><path class="cls-14" d="M68.14,81a1.76,1.76,0,1,1-1.76,1.76A1.76,1.76,0,0,1,68.14,81m0-1.44a3.2,3.2,0,1,0,3.2,3.2A3.19,3.19,0,0,0,68.14,79.56Z"/><path class="cls-25" d="M55.43,105.55l-.24-.07a1,1,0,0,1-.71-1.25l.35-1.31a.48.48,0,0,1,.59-.33l1.28.35a.48.48,0,0,1,.34.59l-.35,1.3A1,1,0,0,1,55.43,105.55Z"/><path class="cls-2" d="M76.32,108.86c-10.51,0-19,.81-19,1.81s8.52,1.81,19,1.81,19-.81,19-1.81-8.52-1.81-19-1.81"/></svg>