<svg id="Layer_1" data-name="Layer 1" xmlns="http://www.w3.org/2000/svg" xmlns:xlink="http://www.w3.org/1999/xlink" viewBox="0 0 160 160"><defs><style>.cls-1{fill:none;}.cls-2{fill:#e3e3e3;}.cls-3{fill:#a3a3a3;}.cls-4{fill:#b7b7b7;}.cls-5{fill:#fd4a46;}.cls-6{fill:#620e00;}.cls-7{fill:#d3d3d3;}.cls-8{fill:#4b4bb2;}.cls-9{fill:#a4a4a4;}.cls-10{fill:#ffd31e;}.cls-11{fill:#ffefbb;}.cls-12{clip-path:url(#clip-path);}.cls-13{fill:#fff;}.cls-14{fill:#ff66a1;}.cls-15{fill:#dd3e3e;}</style><clipPath id="clip-path"><path class="cls-1" d="M98,58.77a6.16,6.16,0,0,1-12.31,0c0-3.4,2.76,0,6.15,0s6.16-3.4,6.16,0"/></clipPath></defs><title>Artboard 81_1</title><path class="cls-2" d="M84.09,107.22a95.18,95.18,0,0,1-17.91,2A42.44,42.44,0,0,1,54,107.63c-6.55.3-10.64.73-10.64,1.2,0,.91,15.17,1.65,33.89,1.65s33.89-.74,33.89-1.65-11.63-1.46-27.08-1.61"/><path class="cls-3" d="M61,90.11s2.44-7.49,7-9.39,5,5.8-5.84,10.56Z"/><path class="cls-4" d="M119.41,100.07c-1.94,1.9-5,2.6-7.91,2.76h-.29a100.62,100.62,0,0,0-20.29,2.85c-13.89,3.46-35.82,6.84-45.45-2.94a17.4,17.4,0,0,1-3-4,19.71,19.71,0,0,1-.18-17.81A8.57,8.57,0,0,1,51,76.1a7.55,7.55,0,0,1,6.84,7.84v.17a3.06,3.06,0,0,0,2.56,3.31,2.16,2.16,0,0,0,.67,0C76.84,84.29,88,89,94.8,93.83a38.07,38.07,0,0,1,6.54,5.88l.12-.09c6.21-4.86,11-5.88,13.33-6.06a1.11,1.11,0,0,1,1,1.7,9.33,9.33,0,0,1-4,2.83,18.27,18.27,0,0,1,7,.12,1.11,1.11,0,0,1,.56,1.86"/><path class="cls-5" d="M52.56,88.33l-.1,0a.64.64,0,0,1-.79-.46l-.27-1a.65.65,0,0,1,.46-.8l.09,0a.64.64,0,0,1,.8.46l.27,1A.66.66,0,0,1,52.56,88.33Z"/><path class="cls-6" d="M48.33,82.27a.77.77,0,1,0,.66-.88A.78.78,0,0,0,48.33,82.27Z"/><path class="cls-6" d="M51.41,81.61a.77.77,0,1,0,.66-.87A.78.78,0,0,0,51.41,81.61Z"/><path class="cls-7" d="M53.44,82.41c-3.23-.48-5.76,1-6.07,2.88a2.41,2.41,0,0,0,2.32,2.65,2.51,2.51,0,0,0,2.36-1.31,2.35,2.35,0,0,0,1.09.36,2.3,2.3,0,0,0,2.44-2.14A2.37,2.37,0,0,0,53.44,82.41Z"/><line class="cls-7" x1="54.89" y1="83.18" x2="58.17" y2="82.05"/><path class="cls-6" d="M55,83.42l3.29-1.13a.25.25,0,1,0-.17-.48L54.8,82.93a.27.27,0,0,0-.16.33.26.26,0,0,0,.33.16"/><line class="cls-7" x1="55.29" y1="84.2" x2="58.02" y2="84.38"/><path class="cls-6" d="M55.27,84.46l2.74.17a.25.25,0,0,0,.27-.24.26.26,0,0,0-.24-.27l-2.73-.18a.26.26,0,1,0,0,.52"/><path class="cls-7" d="M94.8,93.83c-1.78,4-9.36,7-18.45,7-10.4,0-18.84-3.91-18.84-8.74,0-1.7,1.05-3.29,2.86-4.63a2.16,2.16,0,0,0,.67,0C76.84,84.29,88,89,94.8,93.83Z"/><line class="cls-7" x1="47.98" y1="85.11" x2="44.5" y2="85.17"/><path class="cls-6" d="M48,84.85l-3.47.06a.25.25,0,0,0-.25.26.26.26,0,0,0,.26.26L48,85.37a.26.26,0,0,0,0-.52"/><line class="cls-7" x1="47.95" y1="86.21" x2="45.44" y2="87.31"/><path class="cls-6" d="M47.84,86l-2.51,1.1a.26.26,0,0,0,.21.47l2.51-1.1a.25.25,0,0,0,.13-.34.26.26,0,0,0-.34-.13"/><path class="cls-7" d="M52.1,85.09a2.44,2.44,0,0,1-1.31,2.67"/><path class="cls-6" d="M51.85,85.15v0a2.29,2.29,0,0,1,0,.39,2.32,2.32,0,0,1-.21,1,2.15,2.15,0,0,1-1,1,.25.25,0,0,0-.11.35.26.26,0,0,0,.34.11,2.63,2.63,0,0,0,1.23-1.22,2.75,2.75,0,0,0,.27-1.21,2.9,2.9,0,0,0,0-.53.26.26,0,0,0-.31-.19.25.25,0,0,0-.19.31Z"/><path class="cls-7" d="M53.86,86.76a1.42,1.42,0,0,1-1.8-.46"/><path class="cls-6" d="M53.75,86.53h0a1.82,1.82,0,0,1-.61.12.93.93,0,0,1-.86-.48.25.25,0,0,0-.35-.1.26.26,0,0,0-.09.36,1.47,1.47,0,0,0,1.3.74A2.34,2.34,0,0,0,54,87a.26.26,0,0,0,.12-.34.26.26,0,0,0-.34-.13Z"/><path class="cls-4" d="M55.23,97.87S60,89.32,66.11,88.12s4.72,8.35-9.76,11.52Z"/><path class="cls-8" d="M55.72,75.71,43.27,77.64a2.87,2.87,0,0,0,.28.92,3.16,3.16,0,0,0,5.78-.16,1.18,1.18,0,0,1,.87-.72h.06a1.18,1.18,0,0,1,1,.33,2.63,2.63,0,0,0,3.19.41A2.6,2.6,0,0,0,55.72,75.71Z"/><path class="cls-8" d="M43.53,78.31s-.75.8-1.5,1.79a12.66,12.66,0,0,0-1,1.58,3.7,3.7,0,0,0-.51,1.58,1.19,1.19,0,0,0,.15.6,1.1,1.1,0,0,0,.47.46.43.43,0,0,0,.58-.18.42.42,0,0,0-.18-.59l-.11-.1a.41.41,0,0,1,0-.19,3,3,0,0,1,.41-1.17A15.4,15.4,0,0,1,43.25,80l.65-.76.19-.21.07-.07a.44.44,0,1,0-.63-.6Z"/><path class="cls-3" d="M47.1,98.79c0,.43-.73.78-1.63.78s-1.63-.35-1.63-.78.73-.79,1.63-.79,1.63.35,1.63.79"/><path class="cls-3" d="M44.18,96.47a.8.8,0,0,1-.82.78.78.78,0,1,1,0-1.56A.8.8,0,0,1,44.18,96.47Z"/><path class="cls-3" d="M46.92,95.72c-.74,0-1.35-.37-1.35-.83s.61-.83,1.35-.83,1.34.37,1.34.83S47.66,95.72,46.92,95.72Z"/><path class="cls-3" d="M49.5,100.42c-.74,0-1.34-.38-1.34-.84s.6-.83,1.34-.83,1.35.37,1.35.83S50.24,100.42,49.5,100.42Z"/><path class="cls-9" d="M114.88,93.56h-.09c-2.33.18-7.12,1.2-13.33,6.06h0a5.53,5.53,0,0,1-2.72,2.14c-11.44,4.17-21,5.64-28.78,5.64-18.89,0-27.47-8.65-27.47-8.65a17.4,17.4,0,0,0,3,4c4.74,4.81,12.44,6.44,20.71,6.44,8.54,0,17.68-1.74,24.74-3.5a100.62,100.62,0,0,1,20.29-2.85h.29c2.93-.16,5.9-.93,7.91-2.76a1.08,1.08,0,0,0,.32-.77,1.2,1.2,0,0,0-.08-.42,1.1,1.1,0,0,0-.8-.67,20.06,20.06,0,0,0-3.92-.41,15.93,15.93,0,0,0-3.08.29h0a9.33,9.33,0,0,0,4-2.83,1.1,1.1,0,0,0,.18-.59,1.11,1.11,0,0,0-1.11-1.11"/><path class="cls-10" d="M114.11,59.74c0,2.22-3.79,3.8-4.44,5.8s1.44,5.58.19,7.3-5.26.81-7,2.08-2.07,5.35-4.14,6-4.67-2.44-6.89-2.44S87,81.59,85,80.94s-2.42-4.77-4.14-6-5.73-.34-7-2.08.86-5.23.18-7.3-4.43-3.58-4.43-5.8S73.35,55.94,74,54s-1.43-5.58-.18-7.3,5.26-.81,7-2.08,2.07-5.35,4.14-6S89.62,41,91.83,41s4.89-3.09,6.89-2.44,2.41,4.77,4.14,6,5.73.34,7,2.08-.86,5.23-.19,7.3S114.11,57.53,114.11,59.74Z"/><circle class="cls-11" cx="91.83" cy="59.74" r="14.26"/><path class="cls-6" d="M90.94,55.76a1.2,1.2,0,1,1-1.19-1.19A1.19,1.19,0,0,1,90.94,55.76Z"/><circle class="cls-6" cx="93.91" cy="55.76" r="1.2"/><path class="cls-6" d="M98,58.77a6.16,6.16,0,0,1-12.31,0c0-3.4,2.76,0,6.15,0S98,55.37,98,58.77Z"/><g class="cls-12"><rect class="cls-13" x="89.62" y="53.56" width="4.52" height="6.26" rx="0.82" ry="0.82"/><rect class="cls-14" x="85.23" y="62.27" width="4.52" height="6.26" rx="1.78" ry="1.78"/></g><circle class="cls-15" cx="84.32" cy="57.47" r="0.98"/><circle class="cls-15" cx="99.35" cy="57.47" r="0.98"/><path class="cls-6" d="M52.88,84.4c0,.31-.31.63-.81.71s-.93-.12-1-.44.31-.63.81-.71S52.83,84.08,52.88,84.4Z"/></svg>