<svg id="Layer_1" data-name="Layer 1" xmlns="http://www.w3.org/2000/svg" viewBox="0 0 160 160"><defs><style>.cls-1{fill:#fd4a46;}</style></defs><title>Artboard 81</title><path class="cls-1" d="M67.44,87.68H61V98.83H49.1v-42H68.28a23.91,23.91,0,0,1,9.89,1.89A15.28,15.28,0,0,1,84.8,80.34a14.45,14.45,0,0,1-6.09,5.3l9.05,13.19H75.05Zm5.64-19.84a8.19,8.19,0,0,0-5.52-1.62H61V78.51h6.59a8.3,8.3,0,0,0,5.52-1.59,5.66,5.66,0,0,0,1.85-4.53A5.74,5.74,0,0,0,73.08,67.84Z"/><path class="cls-1" d="M108.29,66.91a17.17,17.17,0,0,1,6.38-1.11V76.05a23,23,0,0,0-2.57-.18,8,8,0,0,0-5.73,2c-1.38,1.32-2.06,3.34-2.06,6.05V98.83H92.92V66.34h10.85v3.9A10.52,10.52,0,0,1,108.29,66.91Z"/></svg>