<svg id="Layer_1" data-name="Layer 1" xmlns="http://www.w3.org/2000/svg" viewBox="0 0 160 160"><defs><style>.cls-1{fill:#3daf5d;}</style></defs><title>Artboard 82</title><path class="cls-1" d="M53.27,97.57a24.19,24.19,0,0,1-7.79-3.36l3.89-8.75a25.32,25.32,0,0,0,6.53,3,24.9,24.9,0,0,0,7.32,1.14q6.82,0,6.83-3.42a2.83,2.83,0,0,0-2-2.67,35,35,0,0,0-6.26-1.82,59.22,59.22,0,0,1-7.91-2.19,13.33,13.33,0,0,1-5.46-3.75,10.11,10.11,0,0,1-2.28-7,12,12,0,0,1,2.1-6.92A14.05,14.05,0,0,1,54.56,57a25.72,25.72,0,0,1,10.22-1.8,36.06,36.06,0,0,1,8.15.93A25,25,0,0,1,80,58.85l-3.66,8.81a24.38,24.38,0,0,0-11.62-3.24,9.76,9.76,0,0,0-5.16,1,3.15,3.15,0,0,0-1.62,2.73,2.71,2.71,0,0,0,1.92,2.52A35,35,0,0,0,66,72.45a57.89,57.89,0,0,1,8,2.19,13.76,13.76,0,0,1,5.45,3.72,9.93,9.93,0,0,1,2.31,6.92,11.76,11.76,0,0,1-2.1,6.83A14.34,14.34,0,0,1,73.35,97a25.46,25.46,0,0,1-10.19,1.83A38.69,38.69,0,0,1,53.27,97.57Z"/><path class="cls-1" d="M90.43,97.6a21.06,21.06,0,0,1-6.35-2.43l3.41-7.79a19.32,19.32,0,0,0,5.28,2.19,23.47,23.47,0,0,0,6,.81,9.71,9.71,0,0,0,3.93-.57,1.79,1.79,0,0,0,1.17-1.65q0-1.08-1.41-1.53A29.18,29.18,0,0,0,98,85.76a44,44,0,0,1-6.62-1.26,10.3,10.3,0,0,1-4.71-2.87,8.23,8.23,0,0,1-2-5.88,8.85,8.85,0,0,1,1.85-5.54A12.33,12.33,0,0,1,92,66.37,23.17,23.17,0,0,1,100.56,65a34.46,34.46,0,0,1,7,.72,20.18,20.18,0,0,1,5.82,2L110,75.45a18.92,18.92,0,0,0-9.35-2.4,9.33,9.33,0,0,0-4,.63,1.88,1.88,0,0,0-1.26,1.65q0,1.14,1.38,1.59a31.64,31.64,0,0,0,4.56.93A50.09,50.09,0,0,1,108,79.23a10.25,10.25,0,0,1,4.59,2.84,8.11,8.11,0,0,1,2,5.79,8.75,8.75,0,0,1-1.86,5.48,12.12,12.12,0,0,1-5.49,3.81,24.55,24.55,0,0,1-8.72,1.38A35,35,0,0,1,90.43,97.6Z"/></svg>