<svg id="Layer_1" data-name="Layer 1" xmlns="http://www.w3.org/2000/svg" xmlns:xlink="http://www.w3.org/1999/xlink" viewBox="0 0 160 160"><defs><style>.cls-1{fill:none;}.cls-2{fill:#efefef;}.cls-3{fill:#f45d64;}.cls-4{fill:#4bc467;}.cls-5{fill:#349b4c;}.cls-6{fill:#620e00;}.cls-7{clip-path:url(#clip-path);}.cls-8{fill:#fffed9;}.cls-9{fill:#ff66a1;}.cls-10{fill:#dd3e3e;}.cls-11{clip-path:url(#clip-path-2);}.cls-12{fill:#fd4a46;}.cls-13{fill:#ee9f9f;}.cls-14{fill:#fea5a3;}.cls-15{fill:#ffd31e;}.cls-16{fill:#fc9047;}.cls-17{fill:#d6ecfc;}.cls-18{fill:#c0dced;}.cls-19{fill:#ffefbb;}</style><clipPath id="clip-path"><path class="cls-1" d="M114.87,60.08a3.88,3.88,0,0,1-7.76,0c0-2.14,1.74,0,3.88,0s3.88-2.14,3.88,0"/></clipPath><clipPath id="clip-path-2"><path class="cls-1" d="M94.43,79.79a1.9,1.9,0,0,0,1.89-1.9V66.49a24.62,24.62,0,0,0-49.23,0v11.4a1.9,1.9,0,0,0,1.9,1.9H94.43"/></clipPath></defs><title>Artboard 83</title><path class="cls-2" d="M101.6,87.7c0-1.27-13.07-2.3-29.19-2.3s-29.18,1-29.18,2.3S56.29,90,72.41,90,101.6,89,101.6,87.7Z"/><path class="cls-2" d="M115,110.87c0-.88-10.83-1.6-24.18-1.6s-24.17.72-24.17,1.6,10.82,1.61,24.17,1.61S115,111.76,115,110.87Z"/><path class="cls-3" d="M113,82.53h-.34a1.35,1.35,0,1,1-1.35-1.35,1.34,1.34,0,0,1,1.35,1.35h.68a2,2,0,1,0-2,2,2,2,0,0,0,2-2Z"/><path class="cls-4" d="M60.38,64.74a28.59,28.59,0,0,1-21.12,5.53,1.56,1.56,0,0,0-1,2.87,24.82,24.82,0,0,0,28-.72Z"/><path class="cls-5" d="M65,81.82l-1.09-7a4.54,4.54,0,1,0-9,1.4l1.09,7a4.54,4.54,0,0,0,9-1.4"/><path class="cls-5" d="M86.81,83.22l1.09-7a4.54,4.54,0,1,0-9-1.4l-1.09,7a4.54,4.54,0,0,0,9,1.4"/><path class="cls-4" d="M93.93,79.77c.17,0,.53,0,1,0a25.09,25.09,0,0,0,8.42-1.49A22.21,22.21,0,0,0,111,73.72a21.41,21.41,0,0,0,3.4-4.07,23.39,23.39,0,0,0,2.5-5.23A8.55,8.55,0,0,0,100.68,59a5.16,5.16,0,0,1-1.19,2.08,4.63,4.63,0,0,1-1,.8,7.2,7.2,0,0,1-2,.71,8.49,8.49,0,0,1-1.44.15h0L94.79,67l.29-4.28h-.16L94.79,67l.29-4.28a8.54,8.54,0,0,0-1.15,17Z"/><circle class="cls-6" cx="109.65" cy="58.18" r="0.75"/><circle class="cls-6" cx="112.27" cy="58.18" r="0.75"/><path class="cls-6" d="M114.87,60.08a3.88,3.88,0,0,1-7.76,0c0-2.14,1.74,0,3.88,0S114.87,57.94,114.87,60.08Z"/><g class="cls-7"><rect class="cls-8" x="109.57" y="56.79" width="2.85" height="3.94" rx="0.65" ry="0.65"/><path class="cls-9" d="M108.23,66.23h0a1.44,1.44,0,0,1-1.43-1.43V63.71a1.43,1.43,0,1,1,2.85,0V64.8A1.43,1.43,0,0,1,108.23,66.23Z"/></g><path class="cls-10" d="M94.43,79.79a1.9,1.9,0,0,0,1.89-1.9V66.49a24.62,24.62,0,0,0-49.23,0v11.4a1.9,1.9,0,0,0,1.9,1.9H94.43"/><g class="cls-11"><path class="cls-12" d="M75.54,33.33H66.31a2.6,2.6,0,0,0-2.25,1.3l-4.62,8a2.62,2.62,0,0,0,0,2.6l4.62,8a2.6,2.6,0,0,0,2.25,1.3h9.23a2.6,2.6,0,0,0,2.24-1.3l4.62-8a2.62,2.62,0,0,0,0-2.6l-4.62-8a2.6,2.6,0,0,0-2.24-1.3"/><path class="cls-12" d="M75.54,56.75H66.31a2.6,2.6,0,0,0-2.25,1.3l-4.62,8a2.62,2.62,0,0,0,0,2.6l4.62,8a2.58,2.58,0,0,0,2.25,1.3h9.23a2.58,2.58,0,0,0,2.24-1.3l4.62-8a2.62,2.62,0,0,0,0-2.6l-4.62-8A2.6,2.6,0,0,0,75.54,56.75Z"/><path class="cls-12" d="M96.3,44.91H87.07a2.61,2.61,0,0,0-2.25,1.3l-4.61,8a2.62,2.62,0,0,0,0,2.6l4.61,8a2.59,2.59,0,0,0,2.25,1.3H96.3a2.58,2.58,0,0,0,2.25-1.3l4.61-8a2.57,2.57,0,0,0,0-2.6l-4.61-8a2.6,2.6,0,0,0-2.25-1.3"/><path class="cls-12" d="M54.77,44.91H45.54a2.62,2.62,0,0,0-2.25,1.3l-4.61,8a2.62,2.62,0,0,0,0,2.6l4.61,8a2.6,2.6,0,0,0,2.25,1.3h9.23A2.58,2.58,0,0,0,57,64.79l4.61-8a2.57,2.57,0,0,0,0-2.6l-4.61-8a2.6,2.6,0,0,0-2.25-1.3"/><path class="cls-12" d="M54.77,68.34H45.54a2.6,2.6,0,0,0-2.25,1.3l-4.61,8a2.62,2.62,0,0,0,0,2.6l4.61,8a2.62,2.62,0,0,0,2.25,1.3h9.23A2.6,2.6,0,0,0,57,88.22l4.61-8a2.57,2.57,0,0,0,0-2.6l-4.61-8a2.58,2.58,0,0,0-2.25-1.3"/><path class="cls-12" d="M96.64,68.34H87.42a2.58,2.58,0,0,0-2.25,1.3l-4.62,8a2.62,2.62,0,0,0,0,2.6l4.62,8a2.6,2.6,0,0,0,2.25,1.3h9.22a2.6,2.6,0,0,0,2.25-1.3l4.62-8a2.62,2.62,0,0,0,0-2.6l-4.62-8A2.58,2.58,0,0,0,96.64,68.34Z"/></g><path class="cls-10" d="M96.37,80.88h0a2.14,2.14,0,0,1-2.14-2.14V62.65a2.14,2.14,0,1,1,4.27,0V78.74A2.13,2.13,0,0,1,96.37,80.88Z"/><path class="cls-10" d="M47.09,78A2.14,2.14,0,0,1,45,75.83V70.38a2.14,2.14,0,1,1,4.28,0v5.45A2.14,2.14,0,0,1,47.09,78"/><path class="cls-4" d="M96.23,82.52a16.19,16.19,0,0,0-1.65-7.19,12.5,12.5,0,0,0-1.93-2.91A4.55,4.55,0,1,0,86,78.61l2.3-2.14-2.36,2.07.06.07,2.3-2.14-2.36,2.07.58-.5-.59.49h0l.58-.5-.59.49a4.62,4.62,0,0,1,.63,1.1,7,7,0,0,1,.59,2.89,4.55,4.55,0,0,0,9.09,0Z"/><path class="cls-4" d="M55.68,82.52a5.72,5.72,0,0,1,.21-1.37,13,13,0,0,1,.9-2.25c.16-.3.3-.54.39-.7l.1-.16,0,0-1.69-1.1L57.28,78l0,0-1.69-1.1L57.28,78A4.55,4.55,0,1,0,49.72,73a20.43,20.43,0,0,0-1.55,2.87,20,20,0,0,0-1.05,2.92,14.17,14.17,0,0,0-.53,3.74,4.55,4.55,0,0,0,9.09,0Z"/><path class="cls-13" d="M82,45.89l-1.14,2a19.25,19.25,0,0,1,2.25,1.29l1.14-2A23.8,23.8,0,0,0,82,45.89"/><path class="cls-14" d="M75.66,43.82a1.14,1.14,0,0,0-.2,2.26,20.33,20.33,0,0,1,5.41,1.78l1.14-2a22.72,22.72,0,0,0-6.15-2l-.2,0"/><path class="cls-14" d="M84.26,47.18l-1.14,2a21.14,21.14,0,0,1,3.26,2.67,1.15,1.15,0,0,0,1.61,0,1.15,1.15,0,0,0,0-1.61,23.33,23.33,0,0,0-3.73-3"/><path class="cls-13" d="M51,66.09H48.69c0,.13,0,.27,0,.4a1.14,1.14,0,1,0,2.28,0v-.4m9.25-19.55A22,22,0,0,0,58,48l1.15,2a20.88,20.88,0,0,1,2.16-1.45l-1.13-2"/><path class="cls-14" d="M71.71,43.47a22.81,22.81,0,0,0-11.5,3.07l1.13,2a20.65,20.65,0,0,1,10.37-2.76,1.14,1.14,0,0,0,0-2.27"/><path class="cls-14" d="M58,48a24,24,0,0,0-2.6,2.25,22.89,22.89,0,0,0-6.74,15.88H51A20.58,20.58,0,0,1,57,51.82,19.9,19.9,0,0,1,59.18,50L58,48"/><path class="cls-15" d="M92.8,107.26a3.27,3.27,0,1,1,3.27,3.26A3.27,3.27,0,0,1,92.8,107.26Z"/><rect class="cls-12" x="79.37" y="86.37" width="17.08" height="20.35" rx="1.54" ry="1.54"/><rect class="cls-10" x="94.01" y="86.38" width="20.28" height="20.26" rx="1.68" ry="1.68"/><path class="cls-15" d="M70,107.26a3.27,3.27,0,1,1,3.27,3.26A3.27,3.27,0,0,1,70,107.26Z"/><path class="cls-15" d="M75,89.59a1.48,1.48,0,0,0-1.22.67l-2.56,7.17H69.5a2.68,2.68,0,0,0-2.68,2.68v5.81a.8.8,0,0,0,.79.8H80.47a.8.8,0,0,0,.8-.8v-7.7c0-.25,4.44-.62,4.44-.62a.67.67,0,0,0,.57-.31l2.9-7.7Z"/><path class="cls-16" d="M82.13,107.23H78.21v-7a2.64,2.64,0,0,1,2.64-2.63h1.27l2.49-7.12a1.92,1.92,0,0,1,1.62-.89h3.15a.84.84,0,0,1,.83.84v16.8Z"/><path class="cls-17" d="M79.63,107.23H67.08a1.12,1.12,0,1,1,0-2.23H79.63a1.12,1.12,0,1,1,0,2.23Z"/><path class="cls-18" d="M89.41,107.21v0a4.71,4.71,0,0,0-9.42,0v0Z"/><path class="cls-18" d="M113.92,107.23H78.6a1.12,1.12,0,1,1,0-2.23h35.32a1.12,1.12,0,1,1,0,2.23Z"/><path class="cls-15" d="M81.44,107.23a3.27,3.27,0,1,1,3.26,3.27A3.27,3.27,0,0,1,81.44,107.23Z"/><path class="cls-17" d="M81.05,96.83l2-5.81a.32.32,0,0,0-.31-.43H75.48a.87.87,0,0,0-.82.59l-2,5.8a.32.32,0,0,0,.31.43h7.25A.87.87,0,0,0,81.05,96.83Z"/><path class="cls-16" d="M76.19,97.74h8.22a.17.17,0,0,0,.17-.17.17.17,0,0,0-.17-.18H76.19a.18.18,0,0,0-.18.18.18.18,0,0,0,.18.17"/><path class="cls-17" d="M83.21,107.23a1.5,1.5,0,1,1,1.49,1.5A1.49,1.49,0,0,1,83.21,107.23Z"/><path class="cls-18" d="M111,107.21v0a4.71,4.71,0,0,0-9.42,0v0Z"/><path class="cls-15" d="M103,107.23a3.27,3.27,0,1,1,3.27,3.27A3.27,3.27,0,0,1,103,107.23Z"/><path class="cls-17" d="M104.79,107.23a1.5,1.5,0,1,1,1.5,1.5A1.5,1.5,0,0,1,104.79,107.23Z"/><circle class="cls-6" cx="68.35" cy="100.18" r="0.75"/><path class="cls-6" d="M75.42,100.37a.76.76,0,0,0,.75.75.75.75,0,0,0,.74-.75.74.74,0,0,0-.74-.74A.75.75,0,0,0,75.42,100.37Z"/><path class="cls-6" d="M73.3,101.42a.23.23,0,0,1,.2.34,1.84,1.84,0,0,1-1.62,1,1.87,1.87,0,0,1-1.63-1,.23.23,0,0,1,.21-.34Z"/><path class="cls-19" d="M71.54,101.91h.68a.23.23,0,0,0,.23-.23v-.26H71.31v.26A.23.23,0,0,0,71.54,101.91Z"/><path class="cls-12" d="M77.46,102.52a.82.82,0,0,1,1.63,0,.82.82,0,0,1-1.63,0Z"/><path class="cls-12" d="M66,102.43a.81.81,0,1,1,.81.81A.81.81,0,0,1,66,102.43Z"/><path class="cls-17" d="M85.45,91.32l-1.8,5.14a.58.58,0,0,0,.55.77h4.16a.58.58,0,0,0,.58-.58V91.54a.58.58,0,0,0-.57-.58l-2.37,0A.56.56,0,0,0,85.45,91.32Z"/></svg>