<svg id="Layer_1" data-name="Layer 1" xmlns="http://www.w3.org/2000/svg" xmlns:xlink="http://www.w3.org/1999/xlink" viewBox="0 0 160 160"><defs><style>.cls-1{fill:none;}.cls-2{fill:#864732;}.cls-3{fill:#fd4a46;}.cls-4{fill:#fc9047;}.cls-5{fill:#a45d3e;}.cls-6{fill:#4e2c1e;}.cls-7{clip-path:url(#clip-path);}.cls-8{fill:#d3d3d3;}.cls-9{fill:#6258e0;}.cls-10{fill:#d6d3d4;}.cls-11{fill:#d1866f;}.cls-12{fill:#b76444;}.cls-13{clip-path:url(#clip-path-2);}.cls-14{fill:#c4755a;}.cls-15{fill:#e7685b;}.cls-16{fill:#3daf5d;}.cls-17{fill:#620e00;}.cls-18{clip-path:url(#clip-path-3);}.cls-19{fill:#fffed9;}.cls-20{fill:#ff66a1;}.cls-21{fill:#fe7372;}.cls-22{clip-path:url(#clip-path-4);}.cls-23{fill:#fff;}</style><clipPath id="clip-path"><path class="cls-1" d="M71.28,90.4h-.16A10.71,10.71,0,0,1,60.41,79.69v-4.2A10.72,10.72,0,0,1,71.12,64.77h.16A10.72,10.72,0,0,1,82,75.49v4.2A10.71,10.71,0,0,1,71.28,90.4"/></clipPath><clipPath id="clip-path-2"><path class="cls-1" d="M82.18,72.54H60.25L63,65.2a3.21,3.21,0,0,1,4.34-1.8l2.55,1.15a3.22,3.22,0,0,0,2.65,0l2.55-1.15a3.23,3.23,0,0,1,4.35,1.8l2.74,7.34"/></clipPath><clipPath id="clip-path-3"><path class="cls-1" d="M90.64,46.3a2.75,2.75,0,1,0,5.45-.72c-.2-1.5-1.22.16-2.73.36a3.77,3.77,0,0,1-1.48-.17c-.82-.22-1.37-.45-1.24.53"/></clipPath><clipPath id="clip-path-4"><path class="cls-1" d="M68.63,84.64a.57.57,0,0,0-.44.92,3.45,3.45,0,0,0,5.4,0,.55.55,0,0,0-.45-.89H68.63"/></clipPath></defs><title>Artboard 85</title><path class="cls-2" d="M57.82,80.39a2.25,2.25,0,1,1,2.25,2.25A2.24,2.24,0,0,1,57.82,80.39Z"/><path class="cls-2" d="M58.86,80.39a1.21,1.21,0,1,1,1.21,1.21A1.21,1.21,0,0,1,58.86,80.39Z"/><path class="cls-2" d="M80.09,80.39a2.25,2.25,0,1,1,2.24,2.25A2.24,2.24,0,0,1,80.09,80.39Z"/><path class="cls-2" d="M81.13,80.39a1.21,1.21,0,1,1,1.2,1.21A1.21,1.21,0,0,1,81.13,80.39Z"/><path class="cls-3" d="M70.94,95.3v.07A3.66,3.66,0,0,1,67.2,99h0a2.65,2.65,0,0,0-1.4.51c-1.33.86-3.43,3.15-6.14,9-.29.6-.57,1.24-.86,1.92H50.7c3-7.75,7-15.41,12.46-18a9.37,9.37,0,0,1,2.52-.8c.29-.05.57-.08.87-.11l.64,0h0a1,1,0,0,1,.25,0h.16a3.67,3.67,0,0,1,2.61,1.53A3.63,3.63,0,0,1,70.94,95.3Z"/><path class="cls-3" d="M77,99a13.55,13.55,0,0,0,6.22-2,27.62,27.62,0,0,0,8.53-8.27,48.14,48.14,0,0,0,6.57-14.27,3.74,3.74,0,0,0-7.19-2.06,37.31,37.31,0,0,1-7.64,14.75,16.8,16.8,0,0,1-4,3.38,6.2,6.2,0,0,1-2.73,1A3.74,3.74,0,1,0,77,99Z"/><path class="cls-4" d="M82.15,99.78v10.7H59.65V99.78a8.42,8.42,0,0,1,3.64-7,8.65,8.65,0,0,1,2.39-1.15,8.48,8.48,0,0,1,.87-.21c.24,0,.48-.08.73-.1l.17,0c.22,0,.44,0,.65,0h5.6a9.64,9.64,0,0,1,1.08.06l.37.06a5.05,5.05,0,0,1,.56.12,8.35,8.35,0,0,1,3.34,1.67,7.88,7.88,0,0,1,1.16,1.15A8.42,8.42,0,0,1,82.15,99.78Z"/><path class="cls-5" d="M71.13,96h0a4.6,4.6,0,0,0,4.59-4.59v-6.7a4.6,4.6,0,0,0-9.19,0v6.7A4.6,4.6,0,0,0,71.13,96Z"/><path class="cls-6" d="M71.13,93.2h0a4.59,4.59,0,0,0,4.59-4.59V87.13a4.6,4.6,0,0,0-9.19,0v1.48A4.59,4.59,0,0,0,71.13,93.2Z"/><path class="cls-2" d="M71.2,90.4A10.79,10.79,0,0,1,60.41,79.62v-2.3a10.79,10.79,0,0,1,21.58,0v2.3A10.79,10.79,0,0,1,71.2,90.4"/><path class="cls-2" d="M71.28,90.4h-.16A10.71,10.71,0,0,1,60.41,79.69v-4.2A10.72,10.72,0,0,1,71.12,64.77h.16A10.72,10.72,0,0,1,82,75.49v4.2A10.71,10.71,0,0,1,71.28,90.4"/><g class="cls-7"><path class="cls-8" d="M60.13,66.28h.07a5,5,0,0,1,5,5v2.18a5,5,0,0,1-5,5h-.07a5,5,0,0,1-5-5V71.26a5,5,0,0,1,5-5"/><rect class="cls-8" x="77.66" y="66.28" width="10.05" height="12.15" rx="4.99" ry="4.99"/></g><path class="cls-9" d="M105.62,50.88h-.3a1.19,1.19,0,1,1-1.18-1.18,1.18,1.18,0,0,1,1.18,1.18h.6a1.78,1.78,0,1,0-1.78,1.78,1.78,1.78,0,0,0,1.78-1.78Z"/><path class="cls-10" d="M67.84,77.75l-2.51.67a.84.84,0,0,1-1-.59.85.85,0,0,1,.6-1l2.51-.67a.84.84,0,0,1,.43,1.63Z"/><path class="cls-10" d="M75.91,77.75l2.51.67a.84.84,0,1,0,.44-1.63l-2.51-.67a.84.84,0,0,0-.44,1.63Z"/><path class="cls-11" d="M62.3,71.65l2.21-5.88a1.6,1.6,0,0,1,1.51-1,1.49,1.49,0,0,1,.65.14.55.55,0,0,0,.72-.27.54.54,0,0,0-.27-.71,2.66,2.66,0,0,0-1.1-.24,2.7,2.7,0,0,0-2.52,1.74l-2.2,5.88a.53.53,0,1,0,1,.38"/><path class="cls-12" d="M82.18,72.54H60.25L63,65.2a3.21,3.21,0,0,1,4.34-1.8l2.55,1.15a3.22,3.22,0,0,0,2.65,0l2.55-1.15a3.23,3.23,0,0,1,4.35,1.8l2.74,7.34"/><g class="cls-13"><polyline class="cls-3" points="82.54 72.9 59.64 72.9 59.64 68.95 82.54 68.95 82.54 72.9"/></g><path class="cls-14" d="M66,63.65a2.7,2.7,0,0,0-2.52,1.74L62.17,69h1.15l1.19-3.18a1.61,1.61,0,0,1,1.5-1h0a1.49,1.49,0,0,1,.65.14.64.64,0,0,0,.23,0,.54.54,0,0,0,.49-.32.54.54,0,0,0-.27-.71,2.66,2.66,0,0,0-1.1-.24"/><path class="cls-15" d="M63.32,69H62.17l-.29.76a7.64,7.64,0,0,1,0,2.29.55.55,0,0,0,.44-.35l1-2.7"/><path class="cls-14" d="M75.53,63.84a.47.47,0,0,0-.22,0L72.76,65a.54.54,0,0,0-.27.71.53.53,0,0,0,.71.27l2.56-1.15a.54.54,0,0,0,.27-.71.55.55,0,0,0-.5-.32"/><path class="cls-16" d="M59.54,69.87a.1.1,0,0,1,0,.19l-.69.23-.05.15a7.42,7.42,0,0,0,2.9,2.3,7.38,7.38,0,0,0-2.18-7.44l-.15,0-.37.57a.11.11,0,0,1-.19,0l-.16-1.17,0-.07a7.21,7.21,0,0,0-.94-.52l-.14.06A7.38,7.38,0,0,0,58,69.09l.11.1,1.46.68"/><path class="cls-12" d="M82.45,74.91H60a2.45,2.45,0,0,1-2.44-2.45V72H84.89v.43a2.45,2.45,0,0,1-2.44,2.45"/><path class="cls-14" d="M67.61,72.43H58.85a.54.54,0,0,0-.54.54.54.54,0,0,0,.54.54h8.76a.55.55,0,0,0,.54-.54.54.54,0,0,0-.54-.54"/><path class="cls-14" d="M71.74,72.47H69.22a.54.54,0,1,0,0,1.07h2.52a.54.54,0,0,0,0-1.07"/><rect class="cls-2" x="93.27" y="67.64" width="7.08" height="5.46" rx="2.46" ry="2.46" transform="translate(-19.64 42.71) rotate(-22.65)"/><path class="cls-17" d="M91.45,44.66a1.11,1.11,0,0,0-2.21.29Z"/><path class="cls-17" d="M93.07,36.53l-.45-3.43a.82.82,0,1,0-1.63.21l.46,3.43a.82.82,0,1,0,1.62-.21"/><path class="cls-17" d="M90.63,73.43a3.74,3.74,0,0,0,1.25,2.27,3.79,3.79,0,0,0,2.47,1,3.4,3.4,0,0,0,.45,0,3.67,3.67,0,0,0,2.33-1.33,3.88,3.88,0,0,0,.9-2.42,3.11,3.11,0,0,0,0-.43L95.67,54.77A.82.82,0,1,0,94,55l2.33,17.69a1.8,1.8,0,0,1,0,.22,2.21,2.21,0,0,1-.53,1.38,2,2,0,0,1-1.27.74l-.24,0A2.13,2.13,0,0,1,93,74.47a2.17,2.17,0,0,1-.71-1.25.82.82,0,1,0-1.62.21Z"/><path class="cls-4" d="M111.31,55.29c-2.73.36-4.85,1.8-5.08,3.35-.63-1.44-3-2.28-5.78-1.92s-4.7,1.7-5,3.2c-.73-1.36-3.07-2.13-5.71-1.78s-4.75,1.73-5.07,3.25c-.69-1.39-3.06-2.18-5.73-1.83S74,61.38,73.8,63l-.13,0c-1.82-13.84,6.47-26.34,18.52-27.92s23.29,8.34,25.11,22.18l-.19,0c-.61-1.46-3-2.32-5.8-2"/><path class="cls-17" d="M97.11,43.92a1.11,1.11,0,1,0-2.2.29Z"/><path class="cls-17" d="M91.6,44.64a1.11,1.11,0,1,0-2.2.29Z"/><path class="cls-3" d="M111.31,55.29c-2.73.36-4.85,1.8-5.08,3.35-.63-1.44-1.72-16.75-14-23.59,12-1.59,23.29,8.34,25.11,22.18l-.19,0c-.61-1.46-3-2.32-5.8-2"/><path class="cls-16" d="M79,59.55c2.73-.36,5.15.48,5.78,1.92.24-1.55-2.68-16.62,7.46-26.42C80.14,36.63,71.85,49.13,73.67,63l.19,0C74.07,61.37,76.2,59.91,79,59.55Z"/><path class="cls-17" d="M90.7,46.33a2.68,2.68,0,0,0,5.31-.7c-.19-1.47-1.19.15-2.66.34S90.5,44.86,90.7,46.33Z"/><g class="cls-18"><rect class="cls-19" x="92.23" y="43.62" width="2.02" height="2.79" rx="0.64" ry="0.64" transform="translate(-5.09 12.58) rotate(-7.52)"/><path class="cls-20" d="M95.32,49.46h0a1,1,0,0,0,.86-1.14l-.1-.77A1,1,0,0,0,95,46.69a1,1,0,0,0-.87,1.13l.1.77A1,1,0,0,0,95.32,49.46Z"/></g><path class="cls-21" d="M99.23,36.18a.37.37,0,0,0-.09.72l.15,0a16.68,16.68,0,0,1,2.1.79.4.4,0,0,0,.15,0,.36.36,0,0,0,.33-.22.36.36,0,0,0-.19-.48,19,19,0,0,0-2.36-.87h-.09"/><path class="cls-2" d="M95.24,69.83l2.41-2.68a1,1,0,0,0-.08-1.37,1,1,0,0,0-1.37.07l-2.41,2.68a1,1,0,0,0,1.45,1.3"/><rect class="cls-2" x="96.06" y="67.09" width="4.18" height="5.46" rx="1.9" ry="1.9" transform="translate(-19.28 43.04) rotate(-22.58)"/><path class="cls-17" d="M65,79.55a.91.91,0,0,1,1.82,0,.91.91,0,0,1-1.82,0Z"/><path class="cls-17" d="M74.85,79.62a.92.92,0,1,1,.91.92A.91.91,0,0,1,74.85,79.62Z"/><path class="cls-17" d="M68.63,84.64a.57.57,0,0,0-.44.92,3.45,3.45,0,0,0,5.4,0,.55.55,0,0,0-.45-.89Z"/><g class="cls-22"><path class="cls-23" d="M72.68,85.37H69.16a.44.44,0,0,1-.44-.44V84h4.41v.88A.45.45,0,0,1,72.68,85.37Z"/><path class="cls-20" d="M70.7,87a1,1,0,1,0-1,1A1,1,0,0,0,70.7,87Z"/></g><path class="cls-5" d="M78.36,82.53a.79.79,0,1,0-.79.78A.79.79,0,0,0,78.36,82.53Z"/><path class="cls-5" d="M64.92,82.26a.79.79,0,1,0-.79.78A.78.78,0,0,0,64.92,82.26Z"/><path class="cls-6" d="M70.89,83.4h0a1.64,1.64,0,0,1-1.63-1.78l.24-2.52a1.4,1.4,0,0,1,2.78,0l.23,2.52A1.62,1.62,0,0,1,70.89,83.4Z"/><path class="cls-3" d="M70.9,97.19l-3.24,2.75a1.21,1.21,0,0,1-1.91-.5l-2.57-6.91a1.21,1.21,0,0,1,.53-1.47L65,90.3a1.2,1.2,0,0,1,1.49.24L71,95.46A1.2,1.2,0,0,1,70.9,97.19Z"/><path class="cls-3" d="M71.6,97.19l3.25,2.75a1.2,1.2,0,0,0,1.9-.5l2.57-6.91a1.21,1.21,0,0,0-.53-1.47l-1.32-.76a1.2,1.2,0,0,0-1.49.24l-4.49,4.92A1.2,1.2,0,0,0,71.6,97.19Z"/></svg>