<svg id="Layer_1" data-name="Layer 1" xmlns="http://www.w3.org/2000/svg" viewBox="0 0 160 160"><defs><style>.cls-1{fill:#fd4a46;}</style></defs><title>Artboard 86</title><path class="cls-1" d="M44.75,93.73q-5.19-5.08-5.19-14.44V56H51.43v22.9q0,10.06,8,10.07t7.91-10.07V56H79V79.29q0,9.34-5.18,14.44t-14.54,5.1Q49.93,98.83,44.75,93.73Z"/><path class="cls-1" d="M120.66,65.5V98H109.81V94.51a11.73,11.73,0,0,1-4.31,3,14.1,14.1,0,0,1-5.34,1q-6.28,0-10-3.72T86.38,83.66V65.5H97.76V81.8q0,3.66,1.38,5.34a4.9,4.9,0,0,0,4,1.68,5.64,5.64,0,0,0,4.4-1.89q1.71-1.89,1.71-5.78V65.5Z"/></svg>