<svg id="Layer_1" data-name="Layer 1" xmlns="http://www.w3.org/2000/svg" viewBox="0 0 160 160"><defs><style>.cls-1{fill:#d6ecfc;}.cls-2{fill:#fd4a46;}.cls-3{fill:#bce4f7;}.cls-4{fill:#ffd31e;}.cls-5{fill:#ff66a1;}.cls-6{fill:#d3d3d3;}.cls-7{fill:#6258e0;}.cls-8{fill:#4b4bb2;}.cls-9{fill:#620e00;}.cls-10{fill:#fff;}.cls-11{fill:#ffc0d5;}</style></defs><title>Artboard 87</title><rect class="cls-1" x="64.16" y="96.88" width="24.26" height="15.6"/><polygon class="cls-2" points="80.53 103.6 77.76 103.6 77.76 100.83 74.83 100.83 74.83 103.6 72.06 103.6 72.06 106.53 74.83 106.53 74.83 109.3 77.76 109.3 77.76 106.53 80.53 106.53 80.53 103.6"/><rect class="cls-3" x="88.43" y="96.88" width="5.01" height="15.6"/><path class="cls-4" d="M66.15,92.94c0,2.25,2.77,4.06,6.19,4.06s6.19-1.81,6.19-4.06-2.77-4-6.19-4S66.15,90.7,66.15,92.94Z"/><path class="cls-5" d="M79.83,54.82A12.31,12.31,0,1,0,92.14,42.51,12.31,12.31,0,0,0,79.83,54.82Z"/><path class="cls-5" d="M84,38.18a8.42,8.42,0,0,1,4.9,2.14A24,24,0,0,0,87.37,34a12.51,12.51,0,0,1,7.34,10.27l-4.8-.72L87,44C86.63,41.16,84,38.18,84,38.18Z"/><path class="cls-5" d="M80.07,55.25V69.92a20.3,20.3,0,0,1-.31,4.33,3.3,3.3,0,0,1-.35,1,.71.71,0,0,1-.22.25,4.44,4.44,0,0,0,4.86,7.44,9.6,9.6,0,0,0,3-3.12,13.64,13.64,0,0,0,1.69-5.2A36.72,36.72,0,0,0,89,69.92c0-.57,0-1.13,0-1.65v-13a4.44,4.44,0,0,0-8.88,0Z"/><ellipse class="cls-6" cx="73.64" cy="82.76" rx="10.94" ry="8.12"/><path class="cls-7" d="M75.74,71.59c0,.4,0,.81,0,1.21,0,1.07-.1,2.15-.21,3.25-.05.48-.1,1-.17,1.46a55.88,55.88,0,0,1-1.08,5.86c-.12.48-.24.95-.37,1.43-.26,1-.55,1.91-.86,2.84-.21.65-.44,1.29-.68,1.91-2.81,7.39-7.12,13-11.93,13S51.38,97,48.6,89.66c-.09-.24-.19-.49-.27-.74-.16-.42-.31-.85-.45-1.28s-.31-1-.45-1.44-.27-.93-.4-1.4-.24-1-.36-1.43a55.84,55.84,0,0,1-1.07-5.86,46.32,46.32,0,0,1-.39-5.92C45.21,58,52,46.9,60.47,46.9S75.74,58,75.74,71.59Z"/><path class="cls-8" d="M72.38,87.7c0,.61,0,1.23,0,1.85-2.81,7.39-7.12,13-11.93,13S51.38,97,48.6,89.66c0-.66,0-1.32,0-2,0-13.64,5.33-24.7,11.91-24.7S72.38,74.06,72.38,87.7Z"/><path class="cls-9" d="M90.76,50.3a1.73,1.73,0,1,1-1.71-1.74A1.73,1.73,0,0,1,90.76,50.3Z"/><path class="cls-9" d="M98,50.3a1.73,1.73,0,1,1-1.72-1.74A1.74,1.74,0,0,1,98,50.3Z"/><path class="cls-4" d="M99.82,64.09,98.23,61.7a15.3,15.3,0,0,1-2.78-.23c-4.38-.77-3.79-7.23.66-7.23h1.8a4.22,4.22,0,0,1,4.23,4.22v4.92A1.27,1.27,0,0,1,99.82,64.09Z"/><path class="cls-2" d="M120.35,42.38a3.4,3.4,0,0,0-2.43-5.4h-.26a3.88,3.88,0,0,0-3.88,3.76h0A3.88,3.88,0,0,0,109.89,37h-.26a3.4,3.4,0,0,0-2.43,5.4l6.57,9.12Z"/><rect class="cls-10" x="55.68" y="62.56" width="9.8" height="19.73" rx="3.35" ry="3.35" transform="translate(-33.49 80.52) rotate(-55.01)"/><rect class="cls-11" x="56.96" y="67.84" width="7.23" height="9.13" rx="1.45" ry="1.45" transform="translate(-33.48 80.51) rotate(-55.01)"/><path class="cls-10" d="M62.78,70.7a.44.44,0,0,1-.6.11.43.43,0,1,1,.6-.11Z"/><path class="cls-10" d="M60.76,72.94a.44.44,0,0,1,0,.61.43.43,0,0,1-.6,0,.42.42,0,0,1,0-.6A.43.43,0,0,1,60.76,72.94Z"/><path class="cls-10" d="M58.5,73.19a.43.43,0,0,1-.59.63.43.43,0,1,1,.59-.63Z"/><path class="cls-10" d="M60.27,71a.43.43,0,0,1-.59.63.43.43,0,0,1,.59-.63Z"/><path class="cls-10" d="M62.07,75.17a.43.43,0,0,1,0,.6.42.42,0,0,1-.6,0,.44.44,0,0,1,0-.61A.43.43,0,0,1,62.07,75.17Z"/><path class="cls-10" d="M62.84,72.58a.42.42,0,0,1,0,.6.44.44,0,0,1-.61,0,.42.42,0,1,1,.58-.62Z"/></svg>