<svg id="Layer_1" data-name="Layer 1" xmlns="http://www.w3.org/2000/svg" xmlns:xlink="http://www.w3.org/1999/xlink" viewBox="0 0 160 160"><defs><style>.cls-1{fill:none;}.cls-2{fill:#6258e0;}.cls-3{fill:#6d6aef;}.cls-4{fill:#d6ecfc;}.cls-5{fill:#fff;}.cls-6{fill:#4b40ca;}.cls-7{fill:#574ae3;}.cls-8{fill:#ffc0d5;}.cls-9{fill:#ffefbb;}.cls-10{fill:#efdfb1;}.cls-11{fill:#dd3e3e;}.cls-12{fill:#620e00;}.cls-13{clip-path:url(#clip-path);}.cls-14{fill:#ff66a1;}.cls-15{fill:#ffd31e;}</style><clipPath id="clip-path"><path class="cls-1" d="M83.37,64.4a3.47,3.47,0,0,1-6.93,0c0-1.88,1.55,0,3.47,0s3.46-1.88,3.46,0"/></clipPath></defs><title>Artboard 89</title><path class="cls-2" d="M90.78,72.74V95.56h-.52a16.18,16.18,0,0,0-16.11,13.73,9.89,9.89,0,0,0-10.91,1.39,10.42,10.42,0,0,0-10.4-9,10.53,10.53,0,0,0-8.46,4.22l-5.78-5.57a2.31,2.31,0,0,1,.2-3.5l31-24Z"/><path class="cls-2" d="M79.36,36.55,70.29,57.46H90.11L81,36.55A.92.92,0,0,0,79.36,36.55Z"/><ellipse class="cls-3" cx="79.66" cy="59.7" rx="19.03" ry="15.79"/><path class="cls-4" d="M119.72,104.25a6.38,6.38,0,0,1-6,6.33h-.1l-.36,0a3.62,3.62,0,0,1-.47,0H106.5a16.15,16.15,0,0,0-16.24-15h-.21a10.77,10.77,0,0,1,20.3,3,6.45,6.45,0,0,1,9.37,5.66Z"/><path class="cls-5" d="M114.84,100.54l0-.07,0,.07h0l0-.07,0,.07a4.17,4.17,0,0,1,.85.56,3.75,3.75,0,0,1,1.16,1.71.52.52,0,0,0,1-.32,4.8,4.8,0,0,0-1.53-2.22,5.26,5.26,0,0,0-1.06-.68.52.52,0,1,0-.41,1Z"/><path class="cls-6" d="M84.44,80.92c1.45,0,2.45,0,3.28.1.63,0,1.17.1,1.78.16.91.1,2,.21,3.37.3s3.23.14,5.75.14a21.3,21.3,0,0,0,5.57-.69,16.29,16.29,0,0,0,6.49-3.44,21,21,0,0,0,4.15-5,4,4,0,1,0-6.8-4.18,15.67,15.67,0,0,1-1.68,2.31,8.52,8.52,0,0,1-2.95,2.2,11.66,11.66,0,0,1-4.78.86c-2.14,0-3.66,0-4.84-.1-1.77-.09-2.76-.22-4.08-.36a50.43,50.43,0,0,0-5.26-.24,4,4,0,1,0,0,8Z"/><path class="cls-6" d="M75.5,72.93A11.29,11.29,0,0,0,72,73.5a16.48,16.48,0,0,0-4.86,2.61,29.74,29.74,0,0,0-4.89,4.76,29.15,29.15,0,0,0-1.91,2.55l3.34,2.19-3.27-2.3L50.23,97.78a4,4,0,0,0,6.53,4.59L67,87.85l0-.06-.17-.11.17.12h0l-.17-.11.17.12a26.42,26.42,0,0,1,3.26-3.87,14.52,14.52,0,0,1,2.89-2.25,6.67,6.67,0,0,1,1.32-.59,3.43,3.43,0,0,1,1-.17,4,4,0,0,0,0-8Z"/><path class="cls-7" d="M92.57,81.69v14a16,16,0,0,0-2.31-.16A16.3,16.3,0,0,0,77,102.27a15.53,15.53,0,0,0-1.81,3.23H68.33V81.69a9,9,0,0,1,9.11-9h6A9,9,0,0,1,92.57,81.69Z"/><path class="cls-5" d="M68,57.63a6.84,6.84,0,1,1,6.84,6.72A6.78,6.78,0,0,1,68,57.63Z"/><path class="cls-5" d="M78.46,57.63a6.84,6.84,0,1,1,6.83,6.72A6.78,6.78,0,0,1,78.46,57.63Z"/><path class="cls-5" d="M70.88,57.54a9.27,9.27,0,1,1,9.27,9.11A9.19,9.19,0,0,1,70.88,57.54Z"/><ellipse class="cls-8" cx="68.87" cy="61.7" rx="2.42" ry="2.38"/><path class="cls-8" d="M89.32,61.7a2.42,2.42,0,1,1,2.42,2.38A2.4,2.4,0,0,1,89.32,61.7Z"/><path class="cls-8" d="M90.44,61.7A1.3,1.3,0,1,1,91.74,63,1.29,1.29,0,0,1,90.44,61.7Z"/><path class="cls-8" d="M67.57,61.7A1.3,1.3,0,1,1,68.87,63,1.29,1.29,0,0,1,67.57,61.7Z"/><rect class="cls-9" x="75.26" y="60.84" width="9.89" height="16.81" rx="4.9" ry="4.9"/><rect class="cls-10" x="75.26" y="62.46" width="9.89" height="11.29" rx="4.02" ry="4.02"/><path class="cls-8" d="M69.06,63A11.14,11.14,0,1,1,80.2,74,11,11,0,0,1,69.06,63Z"/><path class="cls-5" d="M76.07,57.17l-2.74.72a1.22,1.22,0,0,1-1.48-.84,1.19,1.19,0,0,1,.86-1.46l2.74-.72a1.23,1.23,0,0,1,1.48.85A1.19,1.19,0,0,1,76.07,57.17Z"/><path class="cls-5" d="M84.29,57.17l2.74.72a1.2,1.2,0,0,0,1.47-.84,1.18,1.18,0,0,0-.85-1.46l-2.74-.72a1.22,1.22,0,0,0-1.48.85A1.18,1.18,0,0,0,84.29,57.17Z"/><path class="cls-7" d="M75.2,105.5a14.83,14.83,0,0,0-.58,1.62,17.29,17.29,0,0,0-.47,2.16,9.84,9.84,0,0,0-4.41-1,9.1,9.1,0,0,0-1.39.1V105.5Z"/><path class="cls-8" d="M116.91,67.59,115,70.25a2.9,2.9,0,0,1-4,.69l-.12-.09a2.78,2.78,0,0,1-.71-3.92l1.89-2.65a2.9,2.9,0,0,1,4-.69l.12.08A2.79,2.79,0,0,1,116.91,67.59Z"/><path class="cls-8" d="M109.65,64.31a2.87,2.87,0,0,0-.72,1,3,3,0,0,0-.21,1.11,4.52,4.52,0,0,0,.67,2.23,7.44,7.44,0,0,0,.64,1,1,1,0,0,0,1.58-1.36l-.34.29.34-.28h0l-.34.29.34-.28a5.78,5.78,0,0,1-.44-.66,2.54,2.54,0,0,1-.38-1.17.84.84,0,0,1,.06-.33.87.87,0,0,1,.22-.3,1,1,0,1,0-1.42-1.52Z"/><path class="cls-11" d="M77,102.27a15.53,15.53,0,0,0-1.81,3.23,14.83,14.83,0,0,0-.58,1.62H68.35v-4.85Z"/><path class="cls-5" d="M67.39,72.89a12.49,12.49,0,0,1,25,0c0,5.7-8.79,15.91-11.62,19a1.18,1.18,0,0,1-1.74,0C76.18,88.8,67.39,78.59,67.39,72.89Z"/><path class="cls-12" d="M83.37,64.4a3.47,3.47,0,0,1-6.93,0c0-1.88,1.55,0,3.47,0S83.37,62.52,83.37,64.4Z"/><g class="cls-13"><rect class="cls-14" x="76.16" y="66.34" width="2.55" height="3.46" rx="1.26" ry="1.26"/></g><path class="cls-12" d="M75.49,59.37a.88.88,0,1,1-.88-.86A.86.86,0,0,1,75.49,59.37Z"/><path class="cls-12" d="M86.32,59.37a.87.87,0,1,1-.87-.86A.86.86,0,0,1,86.32,59.37Z"/><path class="cls-14" d="M79.88,63h0a1.73,1.73,0,0,1-1.74-1.87l.25-2.66a1.5,1.5,0,0,1,3,0l.25,2.66A1.73,1.73,0,0,1,79.88,63Z"/><path class="cls-14" d="M71.13,62.1A.88.88,0,1,1,72,63,.87.87,0,0,1,71.13,62.1Z"/><path class="cls-14" d="M87.36,62.1a.88.88,0,0,1,1.75,0,.88.88,0,0,1-1.75,0Z"/><path class="cls-3" d="M110.23,74.27h0a1.56,1.56,0,0,1-1.08-2l9.78-29.72a.6.6,0,0,1,.73-.38.58.58,0,0,1,.42.7l-7.86,30.27A1.6,1.6,0,0,1,110.23,74.27Z"/><path class="cls-8" d="M115.35,63.1l.86.68a2.85,2.85,0,0,1,.46,4.06,3,3,0,0,1-4.13.45l-.87-.68a2.87,2.87,0,0,1-.45-4.07A3,3,0,0,1,115.35,63.1Z"/><path class="cls-15" d="M114.2,41.18l1.23.67a.34.34,0,0,1,0,.61l-1.23.67A2.93,2.93,0,0,0,113,44.29l-.68,1.21a.37.37,0,0,1-.63,0L111,44.29a2.93,2.93,0,0,0-1.18-1.16l-1.23-.67a.34.34,0,0,1,0-.61l1.23-.67A3,3,0,0,0,111,40l.67-1.22a.37.37,0,0,1,.63,0L113,40A3,3,0,0,0,114.2,41.18Z"/><path class="cls-5" d="M73.56,98.4l1.64.89a.46.46,0,0,1,0,.82l-1.64.88A3.81,3.81,0,0,0,72,102.52l-.9,1.61a.48.48,0,0,1-.84,0l-.89-1.61A3.83,3.83,0,0,0,67.82,101l-1.64-.88a.46.46,0,0,1,0-.82l1.64-.89a3.83,3.83,0,0,0,1.56-1.53l.89-1.61a.49.49,0,0,1,.84,0l.9,1.61A3.81,3.81,0,0,0,73.56,98.4Z"/><path class="cls-5" d="M78.79,93.72l.67.36a.18.18,0,0,1,0,.33l-.67.36a1.66,1.66,0,0,0-.63.63l-.37.66a.2.2,0,0,1-.34,0l-.36-.66a1.68,1.68,0,0,0-.64-.63l-.67-.36a.19.19,0,0,1,0-.33l.67-.36a1.55,1.55,0,0,0,.64-.63l.36-.65a.19.19,0,0,1,.34,0l.37.65A1.53,1.53,0,0,0,78.79,93.72Z"/><path class="cls-5" d="M106.19,98.37l.67.36a.19.19,0,0,1,0,.33l-.67.36a1.62,1.62,0,0,0-.64.63l-.36.65a.19.19,0,0,1-.34,0l-.37-.65a1.62,1.62,0,0,0-.64-.63l-.66-.36a.18.18,0,0,1,0-.33l.66-.36a1.62,1.62,0,0,0,.64-.63l.37-.65a.19.19,0,0,1,.34,0l.36.65A1.62,1.62,0,0,0,106.19,98.37Z"/><path class="cls-15" d="M121.53,55.68l.6.32a.18.18,0,0,1,0,.31l-.6.32a1.39,1.39,0,0,0-.58.57l-.33.59a.18.18,0,0,1-.31,0L120,57.2a1.39,1.39,0,0,0-.58-.57l-.6-.32a.18.18,0,0,1,0-.31l.6-.32a1.39,1.39,0,0,0,.58-.57l.33-.59a.18.18,0,0,1,.31,0l.33.59A1.39,1.39,0,0,0,121.53,55.68Z"/><path class="cls-8" d="M47.49,102.89l1.92-3A3,3,0,0,1,53.46,99a2.86,2.86,0,0,1,.94,4l-1.92,3a3,3,0,0,1-4,.93A2.87,2.87,0,0,1,47.49,102.89Z"/><path class="cls-8" d="M56.16,104.3l-1.48-3.8a1,1,0,0,0-1.94.75l1.48,3.8a1,1,0,0,0,1.94-.75"/></svg>