<svg id="Layer_1" data-name="Layer 1" xmlns="http://www.w3.org/2000/svg" viewBox="0 0 160 160"><defs><style>.cls-1{fill:#ea6e1b;}.cls-2{fill:#f47e2f;}.cls-3{fill:#ffefbb;}.cls-4{fill:#dd6524;}.cls-5{fill:#e7bf8e;}.cls-6{fill:#620e00;}.cls-7{fill:#e7ccc1;}.cls-8{fill:#d45814;}.cls-9{fill:#c9511b;}.cls-10{fill:#ff66a1;}.cls-11{fill:#e3e3e3;}.cls-12{fill:#e393b2;}.cls-13{fill:#ffc0d5;}</style></defs><title>Artboard 91</title><polygon class="cls-1" points="47.3 88.7 47.3 89.23 47.14 89.01 47.3 88.7"/><path class="cls-2" d="M91.16,101.65v4.94l-.1,0h-.18l0-.17,0-.23a1.49,1.49,0,0,1,0-.21v-4.18h0l.07,0,.11-.07"/><path class="cls-2" d="M118.16,71.7a.75.75,0,0,1-.59.48,19.23,19.23,0,0,1-2.14,0c-2.47-.09-5.69-.19-8,2.07l-.26.27a8.8,8.8,0,0,0-1.73,2.91v0h-.33l-1.72.11-.14-.11h-3.8c-.18.23-.37.43-.56.63,0-.21.07-.42.11-.64h-7.8V84c-.06-.23-.12-.45-.19-.69V77.44H89.71l-.09-.61c-.08-.54-.15-1.07-.2-1.61a29.17,29.17,0,0,1,0-6.8c0-.24.06-.48.1-.71s.08-.46.12-.67l.09-.41a12.48,12.48,0,0,1,5.11-8,13.89,13.89,0,0,1,4.39-1.91c14.16-3.57,20.24,12,18.92,15"/><path class="cls-3" d="M118.16,71.7a.75.75,0,0,1-.59.48,19.23,19.23,0,0,1-2.14,0c-2.47-.09-5.69-.19-8,2.07l-.26.27a8.8,8.8,0,0,0-1.73,2.91l-.34,0-1.72.11-.14-.11-.42-.32-.67-.51-1.5-1.15h0l-.55-.43-.12-.09-1-.76L98,73.48l-.1-.09-2.58-2L94.82,71l-1.34-1,0,0-3.61-1.3-.39-.22c0-.24.06-.48.1-.71s.08-.46.12-.67l.09-.41a12.48,12.48,0,0,1,5.11-8,13.89,13.89,0,0,1,4.39-1.91c14.16-3.57,20.24,12,18.92,15"/><path class="cls-2" d="M89.42,75.22c.06.54.12,1.07.2,1.61A4.39,4.39,0,0,0,93,75.41h0A8.47,8.47,0,0,0,94.76,73a9.15,9.15,0,0,0,.61-1.56,7.82,7.82,0,0,0,.25-1.3c.2-1.84-.34-3.41-1.56-4s-3.11,0-4.53,1.6c0,.23-.07.47-.1.71A29.17,29.17,0,0,0,89.42,75.22Z"/><path class="cls-2" d="M101.32,72.94l0,.21a8.36,8.36,0,0,1-.69,2.3,2.63,2.63,0,0,1-.15.35,8.43,8.43,0,0,1-1,1.63v0c-.18.23-.37.43-.56.63,0-.21.07-.42.11-.64H93.13a5.65,5.65,0,0,1-.12-2,8.6,8.6,0,0,1,.85-2.86,3.37,3.37,0,0,0,.17-.32A9.71,9.71,0,0,1,94.82,71a7.75,7.75,0,0,1,.8-.89c1.34-1.28,2.92-1.8,4.13-1.2a2.4,2.4,0,0,1,.63.45,3.71,3.71,0,0,1,1,2.51,5.39,5.39,0,0,1,0,1.06"/><path class="cls-2" d="M107.14,74.51a8.8,8.8,0,0,0-1.73,2.91v0h-.33l-1.72.11-.14-.11h-3.8c-.18.23-.37.43-.56.63,0-.21.07-.42.11-.64a9,9,0,0,1,.72-2c.08-.17.18-.34.26-.5s.19-.32.29-.48a8.24,8.24,0,0,1,1.07-1.3,1.21,1.21,0,0,1,.23-.22c1.31-1.22,2.85-1.71,4-1.12a2.36,2.36,0,0,1,.81.66,3.8,3.8,0,0,1,.76,2"/><path class="cls-4" d="M91.16,106.08l-.07,0,0,.46h0l.1,0v-.51"/><path class="cls-5" d="M107.9,67.54c-2.4,0-4.78,1.08-6.55,4.33h0a5.39,5.39,0,0,1,0,1.06l0,.21a1.21,1.21,0,0,1,.23-.22,4.54,4.54,0,0,1,3-1.37,2.42,2.42,0,0,1,1.09.25,2.36,2.36,0,0,1,.81.66,3.8,3.8,0,0,1,.76,2h0l.26-.27c1.88-1.81,4.32-2.11,6.49-2.11.53,0,1,0,1.54,0s.95,0,1.36,0,.54,0,.78,0a.75.75,0,0,0,.59-.48c-1-.34-5.72-4.16-10.26-4.16"/><path class="cls-4" d="M101.34,71.88a19.77,19.77,0,0,0-1.11,2.57h0a8.24,8.24,0,0,1,1.07-1.3h0l0-.21a5.39,5.39,0,0,0,0-1.06h0"/><path class="cls-4" d="M104.48,71.56a4.54,4.54,0,0,0-3,1.37,1.21,1.21,0,0,0-.23.22h0a8.24,8.24,0,0,0-1.07,1.3h0c0,.17-.1.34-.16.52v0c-.26.81-.47,1.61-.65,2.41h3.8l.14.11,1.72-.11h.33v0a8.8,8.8,0,0,1,1.73-2.91,3.8,3.8,0,0,0-.76-2,2.36,2.36,0,0,0-.81-.66,2.42,2.42,0,0,0-1.09-.25"/><path class="cls-2" d="M79.59,78.44v.48a2.49,2.49,0,0,1-2.49,2.49h-2a2.49,2.49,0,0,1-2.49-2.49v-.56a9,9,0,0,0-.81-.56,1.27,1.27,0,0,1-.4-.36H61.43a7.08,7.08,0,0,1,.65-.9h0l0,0h0a9.93,9.93,0,0,1,4.95-3.09,6.42,6.42,0,0,1,1-.19,11.27,11.27,0,0,1,5.54.9l.23.09a20.68,20.68,0,0,1,2.29,1.17h0c.3.18.61.37.91.57l.74.51c.43.31.85.64,1.26,1l.46.39a2.43,2.43,0,0,1,.08.61"/><polygon class="cls-2" points="89.46 106.5 89.46 106.52 89.43 106.71 89.45 106.52 89.46 106.5"/><path class="cls-2" d="M91.09,103.78v.08c0,.12,0,.23,0,.35s0,.38,0,.56v0c0,.12,0,.24,0,.36v0l-.06.71v-5.3c0,.38.06.74.08,1.11,0,.72.06,1.42,0,2.06"/><path class="cls-2" d="M51.65,49A18.26,18.26,0,0,0,53.1,61.11L63,55.62,54.3,48.21A1.58,1.58,0,0,0,51.65,49Z"/><path class="cls-1" d="M53,52.22a11.49,11.49,0,0,0-.12,4.94,1.84,1.84,0,0,0,2.64,1.25l4.06-2.09-5-4.52A.93.93,0,0,0,53,52.22Z"/><path class="cls-2" d="M55.64,57.48c.42.77.37,1.61-.11,1.87s-1.23-.14-1.65-.92-.37-1.61.12-1.87S55.22,56.7,55.64,57.48Z"/><path class="cls-2" d="M57.16,56.65c.42.77.37,1.61-.12,1.88s-1.22-.15-1.64-.92S55,56,55.52,55.73,56.74,55.87,57.16,56.65Z"/><path class="cls-2" d="M58.72,55.8c.42.78.37,1.62-.12,1.88s-1.22-.14-1.64-.92-.37-1.61.11-1.87S58.3,55,58.72,55.8Z"/><path class="cls-2" d="M49.25,69c.19,4.85,5.52,6.55,9.53,7.17,1.09.17,2.19.29,3.29.36,1.54.11,3.09.13,4.63.09s2.93-.1,4.41-.25a25.61,25.61,0,0,0,5-1c.41-.13.81-.27,1.21-.43a9.46,9.46,0,0,0,3.76-2.66A7.7,7.7,0,0,0,82.43,70a2.19,2.19,0,0,0,.12-.33,7.68,7.68,0,0,0,.35-1.61c0-.18,0-.35,0-.53v-.38a8.92,8.92,0,0,0-.41-2.52,14.71,14.71,0,0,0-2.16-4.18c-.4-.56-.82-1.1-1.25-1.61l-.38-.43c-.15-.15-.3-.3-.46-.44A13,13,0,0,0,77,57l-.66-.45c-.42-.28-.87-.54-1.33-.79l-.51-.26a18.78,18.78,0,0,0-1.76-.79l-.49-.18a21.17,21.17,0,0,0-3.06-.85c-.58-.11-1.16-.2-1.75-.26h0a14.43,14.43,0,0,0-13.75,5.93c-1.11,1.53-1.55,3.41-2.64,5A7.55,7.55,0,0,0,49.25,69"/><path class="cls-2" d="M81.56,67.27a3.33,3.33,0,0,0,1,.28h.35a3.19,3.19,0,0,0,.94-.11c.7-.2,1.19-.63,1.24-1.16.06-.8-.92-1.52-2.18-1.63a2.8,2.8,0,0,0-.41,0,1.37,1.37,0,0,0-.29,0c-.95.11-1.66.6-1.71,1.24s.37,1,1,1.34"/><path class="cls-2" d="M81.44,69.79a3.44,3.44,0,0,0,.84.24h.23A3.51,3.51,0,0,0,83.6,70c.74-.18,1.27-.62,1.32-1.18a1.49,1.49,0,0,0-1-1.33,3,3,0,0,0-.94-.27l-.2,0h-.16a3.08,3.08,0,0,0-1,.11,2.07,2.07,0,0,0-.86.45,1.06,1.06,0,0,0-.37.7c0,.55.4,1.07,1.11,1.37"/><path class="cls-2" d="M81.11,72.29h0a3.73,3.73,0,0,0,1.16.3c1.27.1,2.35-.47,2.42-1.26,0-.55-.41-1.07-1.11-1.37a3.67,3.67,0,0,0-1-.26h-.18a3.42,3.42,0,0,0-.93.09c-.75.19-1.28.63-1.32,1.18a1.45,1.45,0,0,0,1,1.32"/><path class="cls-1" d="M57.12,64.77C56.39,69,58,72.83,60.7,73.3s5.5-2.6,6.23-6.85-.87-8.06-3.58-8.53S57.85,60.52,57.12,64.77Z"/><path class="cls-2" d="M50.06,67.62c-1.27-.1-2.25-.83-2.18-1.63s1.14-1.36,2.41-1.26,2.24.83,2.18,1.63S51.32,67.72,50.06,67.62Z"/><path class="cls-2" d="M49.86,70.11c-1.27-.1-2.25-.83-2.18-1.63s1.14-1.36,2.41-1.26,2.24.83,2.18,1.63S51.12,70.21,49.86,70.11Z"/><path class="cls-2" d="M49.65,72.65c-1.27-.1-2.25-.83-2.18-1.62s1.14-1.36,2.41-1.26,2.24.83,2.18,1.63S50.91,72.76,49.65,72.65Z"/><path class="cls-2" d="M76.38,67.62c-1.27-.1-2.25-.83-2.18-1.63s1.14-1.36,2.41-1.26,2.24.83,2.18,1.63-1.15,1.36-2.41,1.26"/><path class="cls-2" d="M76.18,70.11c-1.27-.1-2.25-.83-2.18-1.63s1.14-1.36,2.41-1.26,2.24.83,2.18,1.63-1.15,1.36-2.41,1.26"/><path class="cls-2" d="M76,72.65c-1.27-.1-2.25-.83-2.18-1.62s1.14-1.36,2.41-1.26,2.24.83,2.18,1.63S77.23,72.76,76,72.65"/><path class="cls-6" d="M57.9,65.91a1,1,0,0,1-1,.91,1,1,0,0,1-.92-1,1,1,0,1,1,2,.14Z"/><path class="cls-6" d="M67.45,67.65a1,1,0,1,1-.92-1.06A1,1,0,0,1,67.45,67.65Z"/><path class="cls-3" d="M68.11,73c-.4,2.33-5.73,4.1-9.35,3.48s-6.25-3-5.85-5.33,3.66-3.72,7.28-3.1S68.51,70.7,68.11,73Z"/><path class="cls-6" d="M60.29,70.93c-.08.52-.9.87-1.6,1.07a2.2,2.2,0,0,1-1.85-.28c-.61-.4-1.29-1-1.21-1.5.14-.91,1.3-1.5,2.58-1.3S60.43,70,60.29,70.93Z"/><path class="cls-6" d="M60.81,72.51a2.74,2.74,0,0,1-2.35,1.36,2.07,2.07,0,0,1-.35,0,2.68,2.68,0,0,1-2.26-2,.24.24,0,0,0-.29-.16.24.24,0,0,0-.17.29A3.18,3.18,0,0,0,58,74.31a3,3,0,0,0,.42,0,3.18,3.18,0,0,0,2.75-1.59.23.23,0,1,0-.4-.24Z"/><path class="cls-2" d="M66.78,55.67l7.76,4.42.17.1,4.66,2.65a18.19,18.19,0,0,0,1-2.35c0-.15.1-.29.14-.43l0-.06a22.66,22.66,0,0,0,.08-11.85,2.07,2.07,0,0,0-3.33-1.1l-4.84,4-1.52,1.25-.38.32-1.31,1.07-.87.71-1.58,1.3"/><path class="cls-1" d="M78.8,51.43a13.15,13.15,0,0,1-.15,7.29,1.25,1.25,0,0,1-1.79.67l-4.64-2.64a1.25,1.25,0,0,1-.17-2l4.79-3.93a1.22,1.22,0,0,1,2,.65"/><path class="cls-2" d="M74.05,57c-.63.94-1.63,1.38-2.22,1s-.56-1.48.08-2.42,1.62-1.38,2.21-1,.56,1.48-.07,2.42"/><path class="cls-2" d="M75.9,58.23c-.63.94-1.63,1.39-2.22,1s-.56-1.49.08-2.43,1.62-1.38,2.21-1,.56,1.48-.07,2.42"/><path class="cls-2" d="M77.79,59.51c-.64.94-1.63,1.38-2.22,1S75,59,75.64,58.07s1.63-1.38,2.22-1,.56,1.48-.07,2.42"/><path class="cls-2" d="M67.85,54.21c-.25.82-1.53,1.14-2.85.73s-2.18-1.42-1.93-2.24,1.54-1.14,2.86-.72,2.18,1.41,1.92,2.23"/><path class="cls-1" d="M91.09,103.78v.08c0,.12,0,.23,0,.35s0,.38,0,.56v0c0,.12,0,.24,0,.36v0l-.06.71v-5.3c0,.38.06.74.08,1.11,0,.72.06,1.42,0,2.06"/><path class="cls-7" d="M81.11,72.29h0a3.12,3.12,0,0,0,.73.23,3.12,3.12,0,0,1-.73-.23h0m3.58-.85c-.12.62-.86,1.08-1.8,1.16.94-.08,1.69-.54,1.8-1.16m0-.47a1.06,1.06,0,0,1,0,.23,1.06,1.06,0,0,0,0-.23m-.85-1.06L83.6,70a1.67,1.67,0,0,1,.23.12A1.67,1.67,0,0,0,83.6,70l.21-.06m.07-2.45h0a1.74,1.74,0,0,1,1,1,1.71,1.71,0,0,0-1-1m1.19-.94a1.17,1.17,0,0,1-.47.6,1.17,1.17,0,0,0,.47-.6m-2.2-1.85h.07a3,3,0,0,1,1.79.73,2.89,2.89,0,0,0-1.79-.73h-.07m-.22,0h0M68.47,53.53l.76.13h0l-.76-.13m6.6-4.66L72.44,51l-1.52,1.25-.11.09.11-.09L72.44,51l2.63-2.15"/><path class="cls-4" d="M76.14,75.38h0a25.61,25.61,0,0,1-5,1h0a1.41,1.41,0,0,0,.27,1.06,1.27,1.27,0,0,0,.4.36,9,9,0,0,1,.81.56,20.48,20.48,0,0,1,3.2,3H77.1a2.49,2.49,0,0,0,2.49-2.49v-.48a2.43,2.43,0,0,0-.08-.61l-.46-.39c-.41-.34-.83-.67-1.26-1L77.05,76c-.3-.2-.6-.39-.91-.57"/><path class="cls-4" d="M74.71,60.19a7.24,7.24,0,0,1,.68,1.42,20.34,20.34,0,0,1,.75,3.11h.47c1.27.1,2.24.83,2.18,1.63,0,.53-.54,1-1.24,1.15a1.51,1.51,0,0,1,1,1.34c0,.55-.58,1-1.32,1.18.7.3,1.15.82,1.11,1.37-.06.73-1,1.27-2.12,1.27l-.29,0a3.14,3.14,0,0,1-1-.21,7.93,7.93,0,0,1-3.13,2.86,1.46,1.46,0,0,0-.77,1.08h0a25.61,25.61,0,0,0,5-1h0q.61-.19,1.2-.42a9.64,9.64,0,0,0,3.77-2.68h0a1.45,1.45,0,0,1-1-1.32c0-.55.57-1,1.32-1.18-.71-.3-1.16-.82-1.11-1.37a1.06,1.06,0,0,1,.37-.7,2.07,2.07,0,0,1,.86-.45c-.66-.31-1.08-.81-1-1.34s.76-1.13,1.71-1.24l.29,0a14.71,14.71,0,0,0-2.16-4.18,18.19,18.19,0,0,1-1,2.35l-4.66-2.65M67.8,53.44a1.19,1.19,0,0,1,.1.51,3.15,3.15,0,0,0,.46.42h0l.87-.71-.76-.13-.67-.09"/><path class="cls-4" d="M82.66,64.66h-.13l-.29,0c-.95.11-1.66.6-1.71,1.24s.37,1,1,1.34h0a3.46,3.46,0,0,1,.88-.12h.3l.2,0a3,3,0,0,1,.94.27h0a2.27,2.27,0,0,0,.72-.33,1.17,1.17,0,0,0,.47-.6.87.87,0,0,0,.05-.22,1.19,1.19,0,0,0-.39-.9,3,3,0,0,0-1.79-.73h-.28"/><path class="cls-4" d="M82.44,67.15a3.46,3.46,0,0,0-.88.12h0a2.07,2.07,0,0,0-.86.45,1.06,1.06,0,0,0-.37.7c0,.55.4,1.07,1.11,1.37h0a3.21,3.21,0,0,1,.78-.09h.33a3.67,3.67,0,0,1,1,.26h0l.21-.06c.63-.21,1.07-.62,1.1-1.12a.87.87,0,0,0,0-.36,1.74,1.74,0,0,0-1-1h0a3,3,0,0,0-.94-.27l-.2,0h-.3"/><path class="cls-4" d="M82.22,69.7a3.21,3.21,0,0,0-.78.09h0c-.75.19-1.28.63-1.32,1.18a1.45,1.45,0,0,0,1,1.32h0a3.57,3.57,0,0,0,1.17.29l.31,0h.28c.94-.08,1.68-.54,1.8-1.16,0,0,0-.07,0-.1V71.2a1.06,1.06,0,0,0,0-.23,1.63,1.63,0,0,0-.83-.88A1.67,1.67,0,0,0,83.6,70h0a3.67,3.67,0,0,0-1-.26h-.33"/><path class="cls-4" d="M76.31,64.72h-.17a14.43,14.43,0,0,1,.2,2.5h.07a3.6,3.6,0,0,1,1.14.29c.7-.19,1.2-.62,1.24-1.15.06-.8-.91-1.53-2.18-1.63h-.3"/><path class="cls-4" d="M76.34,67.22a11.05,11.05,0,0,1-.27,2.54h.13a3.3,3.3,0,0,1,1.07.26c.74-.19,1.27-.63,1.32-1.18a1.51,1.51,0,0,0-1-1.34,3.6,3.6,0,0,0-1.14-.29h-.07"/><path class="cls-4" d="M76.07,69.76A8.49,8.49,0,0,1,75,72.44a3.14,3.14,0,0,0,1,.21l.29,0c1.14,0,2.06-.54,2.12-1.27,0-.55-.41-1.07-1.11-1.37a3.3,3.3,0,0,0-1.07-.26h-.13"/><path class="cls-4" d="M73.32,57.75A2.14,2.14,0,0,1,73,58c.08.09.18.19.26.29a2.12,2.12,0,0,1,.06-.49M78.6,46.58a2.09,2.09,0,0,0-1.32.47l-2.21,1.82L72.44,51l-1.52,1.25-.11.09-.27.23-1.31,1.07h0l-.87.71h0a6.13,6.13,0,0,0,1.18.71,10.35,10.35,0,0,1,1.95,1.37,2.5,2.5,0,0,1,.16-.43,1.21,1.21,0,0,1,.4-1.31l4.79-3.93a1.23,1.23,0,0,1,.78-.28,1.21,1.21,0,0,1,1.18.93,13.15,13.15,0,0,1-.15,7.29,1.23,1.23,0,0,1-.87.79,2.28,2.28,0,0,1-1.7,1.13.9.9,0,0,1-.51-.15A1.36,1.36,0,0,1,75.23,59a1.72,1.72,0,0,1-1,.41h0c.2.28.39.55.56.82h0l4.66,2.65a18.19,18.19,0,0,0,1-2.35h0c0-.14.09-.28.14-.43V60a22.6,22.6,0,0,0,.09-11.86,2,2,0,0,0-2-1.57"/><path class="cls-8" d="M77.62,50.5a1.23,1.23,0,0,0-.78.28l-4.79,3.93a1.21,1.21,0,0,0-.4,1.31,2.42,2.42,0,0,1,.26-.47,2.28,2.28,0,0,1,1.71-1.13.87.87,0,0,1,.5.15A1.31,1.31,0,0,1,74.48,56a1.74,1.74,0,0,1,1-.37.87.87,0,0,1,.5.15,1.37,1.37,0,0,1,.34,1.54,1.84,1.84,0,0,1,1-.41.9.9,0,0,1,.51.15c.59.39.56,1.48-.07,2.42h0a1.23,1.23,0,0,0,.87-.79,13.15,13.15,0,0,0,.15-7.29,1.21,1.21,0,0,0-1.18-.93"/><path class="cls-4" d="M73.62,54.42a2.28,2.28,0,0,0-1.71,1.13,2.42,2.42,0,0,0-.26.47,2.5,2.5,0,0,0-.16.43h0A17.78,17.78,0,0,1,73,58h0a2.14,2.14,0,0,0,.32-.2,3.28,3.28,0,0,1,.44-1,3.09,3.09,0,0,1,.72-.76,1.31,1.31,0,0,0-.36-1.46.87.87,0,0,0-.5-.15"/><path class="cls-4" d="M75.47,55.66a1.74,1.74,0,0,0-1,.37,3.09,3.09,0,0,0-.72.76,3.28,3.28,0,0,0-.44,1,2.12,2.12,0,0,0-.06.49h0a13.23,13.23,0,0,1,.89,1.12h0a1.72,1.72,0,0,0,1-.41,3.17,3.17,0,0,1,.41-.88,3.32,3.32,0,0,1,.67-.72A1.37,1.37,0,0,0,76,55.81a.87.87,0,0,0-.5-.15"/><path class="cls-4" d="M77.35,56.94a1.84,1.84,0,0,0-1,.41,3.32,3.32,0,0,0-.67.72,3.17,3.17,0,0,0-.41.88,1.36,1.36,0,0,0,.34,1.54.9.9,0,0,0,.51.15,2.28,2.28,0,0,0,1.7-1.13h0c.63-.94.66-2,.07-2.42a.9.9,0,0,0-.51-.15"/><path class="cls-4" d="M67.48,53.4a2.32,2.32,0,0,0,.42.54h0a1.19,1.19,0,0,0-.1-.51h0l-.31,0"/><path class="cls-7" d="M91,106.56v.79q.06-.36.09-.78H91"/><path class="cls-4" d="M91.09,103.78h0v.08h0c0,.12,0,.23,0,.35s0,.38,0,.56v0h0c0,.12,0,.24,0,.36v0l-.06.71h0v0a1.49,1.49,0,0,0,0,.21h0l.12,0h0c0-.7,0-1.47,0-2.25v-.08"/><path class="cls-9" d="M91.09,106.11l-.12,0h0l0,.23,0,.17h.18l0-.46"/><path class="cls-8" d="M91,101.66v4.25l.06-.71v0c0-.12,0-.24,0-.36h0v0c0-.18,0-.37,0-.56s0-.23,0-.35h0v-.08h0c0-.68-.06-1.37-.11-2v-.1"/><path class="cls-10" d="M106.24,77.44V111H91.16V77.44H99c0,.22-.08.43-.11.64.19-.2.38-.4.56-.63h3.8l.14.11,1.72-.11h1.17"/><path class="cls-11" d="M50.78,110.14c-7.67.25-12.45.59-12.45,1,0,.75,17.91,1.36,40,1.36s40-.61,40-1.36c0-.38-4.63-.73-12.09-1V111H50.78v-.88"/><path class="cls-12" d="M103,110.05v1h3.25v-.88l-3.25-.09"/><path class="cls-10" d="M99.41,77.44h0c-.18.23-.37.43-.56.63,0-.21.07-.42.11-.64Z"/><path class="cls-10" d="M105.07,77.44l-1.72.11-.14-.11Z"/><rect class="cls-10" x="90.97" y="77.44" width="0.19" height="33.58"/><path class="cls-13" d="M57.34,78.44v.48a2.49,2.49,0,0,1-2.49,2.49h-2a2.49,2.49,0,0,1-2.49-2.49v-.48a2.56,2.56,0,0,1,.21-1h6.59A2.56,2.56,0,0,1,57.34,78.44Z"/><path class="cls-13" d="M79.38,77.44a2.55,2.55,0,0,1,.13.39,2.43,2.43,0,0,1,.08.61v.48a2.49,2.49,0,0,1-2.49,2.49h-2a2.49,2.49,0,0,1-2.49-2.49v-.56a9,9,0,0,0-.81-.56,1.27,1.27,0,0,1-.4-.36H57.13a2.56,2.56,0,0,1,.21,1v.48a2.49,2.49,0,0,1-2.49,2.49h-2a2.49,2.49,0,0,1-2.49-2.49v-.48a2.56,2.56,0,0,1,.21-1H47.31V111H91v-4.46h-.09l0-.17,0-.23a1.49,1.49,0,0,1,0-.21V77.44Zm8.74,17.62H86.67v12.2a.67.67,0,0,1-.67.67H81.57a.67.67,0,0,1-.67-.67V95.06H79.4a.68.68,0,0,1-.62-.94l1.13-2.67L81,88.84l2.13-5a.67.67,0,0,1,1.24,0L86,87.66l2.74,6.46A.68.68,0,0,1,88.12,95.06Z"/><path class="cls-10" d="M88.12,95.06H86.67v12.2a.67.67,0,0,1-.67.67H81.57a.67.67,0,0,1-.67-.67V95.06H79.4a.68.68,0,0,1-.62-.94l1.13-2.67L81,88.84l2.13-5a.67.67,0,0,1,1.24,0L86,87.66l2.74,6.46A.68.68,0,0,1,88.12,95.06Z"/><path class="cls-13" d="M79.59,78.44v.48a2.49,2.49,0,0,1-2.49,2.49h-2a2.49,2.49,0,0,1-2.49-2.49v-.56a9,9,0,0,0-.81-.56,1.27,1.27,0,0,1-.4-.36h8a2.55,2.55,0,0,1,.13.39A2.43,2.43,0,0,1,79.59,78.44Z"/><path class="cls-13" d="M91.16,77.44V111H91v-4.46h-.09l0-.17,0-.23a1.49,1.49,0,0,1,0-.21V77.44Z"/><path class="cls-1" d="M79.59,78.44v.48a2.49,2.49,0,0,1-2.49,2.49h-2a2.49,2.49,0,0,1-2.49-2.49v-.56a2.41,2.41,0,0,1,.2-.92A2.51,2.51,0,0,1,75.07,76h2a2.51,2.51,0,0,1,2.28,1.49,2.55,2.55,0,0,1,.13.39A2.43,2.43,0,0,1,79.59,78.44Z"/><path class="cls-1" d="M57.34,78.44v.48a2.49,2.49,0,0,1-2.49,2.49h-2a2.49,2.49,0,0,1-2.49-2.49v-.48a2.56,2.56,0,0,1,.21-1A2.51,2.51,0,0,1,52.82,76h2a2.51,2.51,0,0,1,2.28,1.49A2.56,2.56,0,0,1,57.34,78.44Z"/></svg>