<svg id="Layer_1" data-name="Layer 1" xmlns="http://www.w3.org/2000/svg" xmlns:xlink="http://www.w3.org/1999/xlink" viewBox="0 0 160 160"><defs><style>.cls-1{fill:none;}.cls-2{fill:#efefef;}.cls-3{fill:#99432b;}.cls-4{fill:#620e00;}.cls-5{fill:#d1866f;}.cls-6{fill:#a54c30;}.cls-7{clip-path:url(#clip-path);}.cls-8{fill:#b76444;}.cls-9{fill:#fd4a46;}.cls-10{fill:#fffed9;}.cls-11{fill:#ff9255;}.cls-12{fill:#6d6aef;}.cls-13{fill:#dd3e3e;}.cls-14{fill:#6258e0;}.cls-15{fill:#8686fc;}.cls-16{fill:#4b4bb2;}.cls-17{clip-path:url(#clip-path-2);}.cls-18{fill:#ff66a1;}.cls-19{fill:#3daf5d;}</style><clipPath id="clip-path"><polyline class="cls-1" points="76.66 59.17 85.73 82.7 98.56 82.7 107.63 59.17 76.66 59.17"/></clipPath><clipPath id="clip-path-2"><path class="cls-1" d="M118.52,80.47a2,2,0,1,1-4,0c0-1.12.9,0,2,0s2-1.12,2,0"/></clipPath></defs><title>Artboard 93</title><path class="cls-2" d="M98.34,110.66c0-1-5.6-1.81-12.52-1.81s-12.51.81-12.51,1.81,5.6,1.82,12.51,1.82S98.34,111.66,98.34,110.66Z"/><ellipse class="cls-2" cx="57.13" cy="110.66" rx="12.52" ry="1.81"/><path class="cls-3" d="M44.83,59.1C43,62,40,69,49.93,73.9l-3.68,2.63s-10.14-7.57-2.31-18a.56.56,0,0,1,.28-.2A.54.54,0,0,1,44.83,59.1Z"/><path class="cls-4" d="M95,82.86S99.74,96.3,92.85,109a2.76,2.76,0,0,1-2.44,1.46H89a1.23,1.23,0,0,1-1.23-1.23V82.87Z"/><path class="cls-4" d="M66.18,82.86S70.88,96.3,64,109a2.79,2.79,0,0,1-2.45,1.46H60.16a1.23,1.23,0,0,1-1.22-1.23V82.87Z"/><path class="cls-3" d="M97.85,82.18a8.51,8.51,0,0,0-3.14-4.1c-2-9.22-12.64-16.26-25.48-16.26-8.88,0-16,3.09-21,8a18.85,18.85,0,0,0-3.87,21.78,17.87,17.87,0,0,0,7.74,8,18.15,18.15,0,0,0,15.17,1l.69,0c4.24,1.44,9.92,1.35,15.64-.63C93.64,96.47,100,88.52,97.85,82.18Z"/><path class="cls-3" d="M76.92,82.86S72.22,96.3,79.12,109a2.76,2.76,0,0,0,2.44,1.46h1.38a1.22,1.22,0,0,0,1.22-1.23V82.87Z"/><path class="cls-3" d="M48.26,82.86S43.56,96.3,50.46,109a2.76,2.76,0,0,0,2.44,1.46h1.38a1.22,1.22,0,0,0,1.22-1.23V82.87Z"/><path class="cls-5" d="M101.65,54.34h14.63a4.54,4.54,0,0,0,1.63-.31l5.6-2.17-3.59,4.41a5.16,5.16,0,0,1-4,1.92H101.79Z"/><path class="cls-5" d="M82.64,54.34H68A4.54,4.54,0,0,1,66.38,54l-5.6-2.17,3.59,4.41a5.16,5.16,0,0,0,4,1.92H82.5Z"/><polygon class="cls-6" points="76.66 59.17 85.73 82.7 98.56 82.7 107.63 59.17 76.66 59.17"/><path class="cls-6" d="M98.44,52.87H85.85a8.41,8.41,0,0,0-6.49,3.06l-2.7,3.26h31l-2.7-3.26A8.41,8.41,0,0,0,98.44,52.87Z"/><g class="cls-7"><path class="cls-8" d="M105.45,63.48H97.86a4.44,4.44,0,0,0-4.43,4.43V82.68a1.17,1.17,0,0,0,1.17,1.17h10.85a1.17,1.17,0,0,0,1.17-1.17v-18A1.17,1.17,0,0,0,105.45,63.48Z"/><rect class="cls-8" x="76.89" y="63.48" width="13.2" height="20.37" rx="4.43" ry="4.43"/></g><path class="cls-4" d="M89.06,71.35c0,1.05-.49,1.9-1.1,1.9s-1.1-.85-1.1-1.9.49-1.91,1.1-1.91S89.06,70.3,89.06,71.35Z"/><path class="cls-4" d="M97.44,71.35c0,1.05-.5,1.9-1.11,1.9s-1.1-.85-1.1-1.9.49-1.91,1.1-1.91S97.44,70.3,97.44,71.35Z"/><path class="cls-6" d="M97.74,50.3a8.64,8.64,0,0,0-5,2.19A24.64,24.64,0,0,1,94.32,46,12.84,12.84,0,0,0,86.8,56.51l4.92-.73,2.93.51C95.08,53.34,97.74,50.3,97.74,50.3Z"/><path class="cls-8" d="M96.84,85.61c0,1.45-2.21,2.62-4.94,2.62S87,87.06,87,85.61,89.17,83,91.9,83,96.84,84.16,96.84,85.61Z"/><path class="cls-9" d="M90.28,89.53h0a1.41,1.41,0,0,1-1.4-1.41V86.45a1.41,1.41,0,0,1,2.81,0v1.67A1.41,1.41,0,0,1,90.28,89.53Z"/><rect class="cls-10" x="89.54" y="84.04" width="4.72" height="2.89" rx="1.37" ry="1.37"/><path class="cls-5" d="M96.56,86.24H87.73a4.54,4.54,0,1,1,0-9.07h8.83a4.54,4.54,0,1,1,0,9.07Z"/><ellipse class="cls-4" cx="88.88" cy="81.66" rx="0.86" ry="1.32"/><path class="cls-4" d="M95.9,81.66c0,.73-.38,1.32-.86,1.32s-.85-.59-.85-1.32.38-1.32.85-1.32S95.9,80.93,95.9,81.66Z"/><path class="cls-11" d="M94.65,81.71V82a2.69,2.69,0,0,1-5.38,0v-.25a.38.38,0,0,0-.39-.39.39.39,0,0,0-.39.39V82a3.47,3.47,0,1,0,6.94,0v-.25a.38.38,0,0,0-.39-.39.39.39,0,0,0-.39.39Z"/><path class="cls-6" d="M77.49,64.7c2.37-2.37,2.83-5.76,1-7.56l-8.58,8.58C71.73,67.53,75.12,67.07,77.49,64.7Z"/><path class="cls-6" d="M106.75,64.7c-2.37-2.37-2.83-5.76-1-7.56l8.58,8.58C112.5,67.53,109.12,67.07,106.75,64.7Z"/><path class="cls-4" d="M44.11,59.47h0A1.06,1.06,0,0,1,43.73,58l.63-1.09A1.05,1.05,0,1,1,46.18,58l-.63,1.09A1,1,0,0,1,44.11,59.47Z"/><path class="cls-8" d="M56.38,74.92a2.47,2.47,0,1,1,0-3.49A2.46,2.46,0,0,1,56.38,74.92Z"/><circle class="cls-8" cx="50.45" cy="72.4" r="0.95"/><circle class="cls-8" cx="50.85" cy="75.93" r="1.38"/><path class="cls-12" d="M115.26,58.31l.29-4.13a.34.34,0,0,0-.68,0l-.3,4.13a.35.35,0,0,0,.69.05"/><path class="cls-12" d="M113.49,58.26l-.29-4.13a.35.35,0,0,0-.69,0l.3,4.13a.34.34,0,0,0,.68-.05"/><path class="cls-12" d="M113.69,54.16v4.22a.34.34,0,0,0,.34.34.35.35,0,0,0,.35-.34V54.16a.35.35,0,0,0-.35-.35.35.35,0,0,0-.34.35"/><path class="cls-13" d="M116.13,54v31.4a.26.26,0,0,0,.51,0V54a.26.26,0,0,0-.51,0"/><path class="cls-9" d="M125.34,81.28a8.46,8.46,0,0,1-6.73,8.26.24.24,0,0,0-.19.27.25.25,0,0,0,.28.19,8.93,8.93,0,0,0,7.11-8.72.24.24,0,0,0-.24-.24.23.23,0,0,0-.23.24Z"/><path class="cls-14" d="M124.26,80.79A7.76,7.76,0,1,1,116.5,73,7.76,7.76,0,0,1,124.26,80.79Z"/><path class="cls-15" d="M110.34,78.15A6.7,6.7,0,0,1,115,74.27a.29.29,0,0,0-.13-.56,7.28,7.28,0,0,0-5,4.22.28.28,0,0,0,.52.22Z"/><path class="cls-15" d="M109.84,81.52c0-.24,0-.49,0-.73a6.41,6.41,0,0,1,.18-1.53.29.29,0,0,0-.56-.13,7.54,7.54,0,0,0-.18,1.66,7,7,0,0,0,0,.79.29.29,0,0,0,.31.25.28.28,0,0,0,.25-.31Z"/><path class="cls-16" d="M122.66,81.18A5.66,5.66,0,1,1,117,75.52,5.66,5.66,0,0,1,122.66,81.18Z"/><path class="cls-12" d="M122.16,80.79a5.66,5.66,0,1,1-5.66-5.66A5.65,5.65,0,0,1,122.16,80.79Z"/><path class="cls-15" d="M111.35,81.29a5.65,5.65,0,0,1,9.4-4.24,5.66,5.66,0,1,0-8,8A5.64,5.64,0,0,1,111.35,81.29Z"/><path class="cls-4" d="M116.2,79.48a.4.4,0,1,1-.39-.39A.39.39,0,0,1,116.2,79.48Z"/><path class="cls-4" d="M117.56,79.48a.39.39,0,1,1-.39-.39A.38.38,0,0,1,117.56,79.48Z"/><path class="cls-4" d="M118.52,80.47a2,2,0,1,1-4,0c0-1.12.9,0,2,0S118.52,79.35,118.52,80.47Z"/><g class="cls-17"><rect class="cls-10" x="115.76" y="78.76" width="1.48" height="2.05" rx="0.34" ry="0.34"/><path class="cls-18" d="M115.06,83.67h0a.75.75,0,0,1-.74-.74v-.57a.75.75,0,0,1,1.49,0v.57A.75.75,0,0,1,115.06,83.67Z"/></g><path class="cls-12" d="M116.13,56.6v1.81a.26.26,0,1,0,.51,0V56.6a.26.26,0,1,0-.51,0"/><path class="cls-12" d="M116.13,60.6v1.82a.26.26,0,1,0,.51,0V60.6a.26.26,0,0,0-.51,0"/><path class="cls-12" d="M116.13,64.77v1.82a.26.26,0,0,0,.51,0V64.77a.26.26,0,1,0-.51,0"/><path class="cls-12" d="M116.13,69v1.82a.26.26,0,1,0,.51,0V69a.26.26,0,0,0-.51,0"/><path class="cls-19" d="M118.61,89.54a8.67,8.67,0,0,1-1.7.17,8.36,8.36,0,0,1-2.56-.4.23.23,0,0,0-.29.15.24.24,0,0,0,.15.3,8.92,8.92,0,0,0,2.7.42A9.61,9.61,0,0,0,118.7,90a.23.23,0,0,0,.18-.28.22.22,0,0,0-.27-.18Z"/></svg>