<svg id="Layer_1" data-name="Layer 1" xmlns="http://www.w3.org/2000/svg" viewBox="0 0 160 160"><defs><style>.cls-1{fill:#fd4a46;}</style></defs><title>Artboard 94</title><polygon class="cls-1" points="68.88 83.62 68.88 98.66 57.01 98.66 57.01 83.44 41.01 56.7 53.54 56.7 63.49 73.37 73.44 56.7 84.94 56.7 68.88 83.62"/><path class="cls-1" d="M119,66.17,105,100q-2.44,6-6,8.42a14.87,14.87,0,0,1-8.63,2.43,17.32,17.32,0,0,1-5.18-.81,12.5,12.5,0,0,1-4.23-2.13l4-8a6.75,6.75,0,0,0,2.3,1.41,7.67,7.67,0,0,0,2.73.51,4.94,4.94,0,0,0,2.67-.66,5.07,5.07,0,0,0,1.77-2.1L80.45,66.17H92.14l8,19.84,8-19.84Z"/></svg>