<svg id="Layer_1" data-name="Layer 1" xmlns="http://www.w3.org/2000/svg" xmlns:xlink="http://www.w3.org/1999/xlink" viewBox="0 0 160 160"><defs><style>.cls-1{fill:none;}.cls-2{fill:#3daf5d;}.cls-3{fill:#4bc467;}.cls-4{fill:#349b4c;}.cls-5{fill:#b76444;}.cls-6{fill:#e1e1e1;}.cls-7{fill:#efdfb1;}.cls-8{fill:#6258e0;}.cls-9{fill:#ffefbb;}.cls-10{clip-path:url(#clip-path);}.cls-11{clip-path:url(#clip-path-2);}.cls-12{fill:#4b4bb2;}.cls-13{clip-path:url(#clip-path-3);}.cls-14{fill:#fffed9;}.cls-15{fill:#ff66a1;}.cls-16{fill:#d1866f;}.cls-17{fill:#a54c30;}.cls-18{fill:#5dc175;}</style><clipPath id="clip-path"><path class="cls-1" d="M75.88,99.75l10.5.17a7.2,7.2,0,0,0,7.29-7.06L93.82,83l-18.73-.31a7.18,7.18,0,0,0-7.26,7l0,1.67a8.24,8.24,0,0,0,8.08,8.35"/></clipPath><clipPath id="clip-path-2"><path class="cls-1" d="M82.5,97.2l5.26,2.43c2.82.33,5.43-3.26,5.76-6.07l2.3-19.5a1.12,1.12,0,0,0-1-1.24l-9.31-1.35a1.12,1.12,0,0,0-1.24,1L82.66,82.63l-1,0L81.52,96a1.12,1.12,0,0,0,1,1.24"/></clipPath><clipPath id="clip-path-3"><path class="cls-1" d="M88.16,77.54A2.46,2.46,0,0,0,92.85,79c.25-.81-.22-.74-.92-.67a3.69,3.69,0,0,1-1.43-.07c-1.29-.41-1.93-2-2.34-.74"/></clipPath></defs><title>Artboard 95</title><path class="cls-2" d="M85.26,40c-.49,2.55-2.05,4.4-3.5,4.13S79.54,41.53,80,39s2.45-6.48,3.9-6.2S85.75,37.42,85.26,40Z"/><line class="cls-3" x1="83" y1="37.42" x2="81.73" y2="44.09"/><path class="cls-4" d="M82.78,37.38l-1.27,6.67a.22.22,0,0,0,.17.25.21.21,0,0,0,.26-.17l1.27-6.67a.21.21,0,0,0-.17-.25.21.21,0,0,0-.26.17"/><path class="cls-5" d="M56.88,107.46l.61-38.1A20.17,20.17,0,0,1,77.58,49.59h.33l9.47.15a20.18,20.18,0,0,1,19.78,20.09c0,.11,0,.22,0,.33l-.66,41.37,6.54.1.66-41.37c0-.14,0-.28,0-.43A26.72,26.72,0,0,0,87.49,43.2L78,43.05h-.43A26.72,26.72,0,0,0,51,69.25l-.67,41.37,6.55.11.05-3.27"/><path class="cls-2" d="M65.76,47.36c2.09,1.55,3.07,3.76,2.2,4.94s-3.29.89-5.37-.66-4.22-5.89-3.9-6.21C59.75,44.4,63.68,45.81,65.76,47.36Z"/><line class="cls-3" x1="62.48" y1="48.29" x2="67.93" y2="52.33"/><path class="cls-4" d="M62.35,48.46l5.45,4a.22.22,0,0,0,.31,0,.21.21,0,0,0,0-.3l-5.45-4a.22.22,0,0,0-.3,0,.21.21,0,0,0,0,.31"/><path class="cls-2" d="M100.47,43.56c-1.55,2.09-3.76,3.07-4.94,2.19s-.88-3.28.67-5.37,5-4.77,6.2-3.89S102,41.47,100.47,43.56Z"/><line class="cls-3" x1="99.55" y1="40.28" x2="95.5" y2="45.73"/><path class="cls-4" d="M99.37,40.15,95.32,45.6a.22.22,0,0,0,.05.31.21.21,0,0,0,.3,0l4-5.45a.23.23,0,0,0,0-.31.22.22,0,0,0-.31,0"/><path class="cls-2" d="M90.63,41.1c.33,2.58-.59,4.82-2,5s-2.91-1.75-3.23-4.33.32-6.93,1.78-7.11S90.31,38.52,90.63,41.1Z"/><line class="cls-3" x1="87.69" y1="39.37" x2="88.54" y2="46.11"/><path class="cls-4" d="M87.47,39.4l.86,6.73a.2.2,0,0,0,.24.19.21.21,0,0,0,.19-.24l-.85-6.74a.22.22,0,1,0-.44.06"/><path class="cls-4" d="M93.58,42.78c-1.18,2.32-3.2,3.66-4.51,3s-1.42-3.09-.24-5.41S93,34.82,94.3,35.49,94.76,40.46,93.58,42.78Z"/><line class="cls-3" x1="92.11" y1="39.7" x2="89.04" y2="45.75"/><path class="cls-3" d="M91.92,39.6l-3.08,6a.23.23,0,0,0,.1.3.22.22,0,0,0,.29-.1l3.08-6.05a.21.21,0,0,0-.1-.29.21.21,0,0,0-.29.09"/><path class="cls-4" d="M68.58,49.61c2.59-.18,4.78.86,4.88,2.33s-1.91,2.81-4.51,3-6.89-.71-7-2.17S66,49.8,68.58,49.61Z"/><line class="cls-3" x1="66.69" y1="52.46" x2="73.46" y2="51.98"/><path class="cls-3" d="M66.71,52.67l6.77-.48a.21.21,0,0,0,.2-.23.21.21,0,0,0-.23-.2l-6.77.48a.22.22,0,1,0,0,.43"/><path class="cls-4" d="M62.29,53.12c.92,2,.57,4.17-.77,4.77s-3.17-.55-4.09-2.58-1.3-5.82,0-6.43S61.38,51.09,62.29,53.12Z"/><line class="cls-3" x1="59.1" y1="52.6" x2="61.43" y2="57.6"/><path class="cls-3" d="M58.92,52.69l2.32,5a.2.2,0,0,0,.27.09.2.2,0,0,0,.1-.27l-2.33-5a.2.2,0,0,0-.27-.1.2.2,0,0,0-.09.27"/><path class="cls-4" d="M101.4,49.25c-1.48,1.23-3.45,1.32-4.39.19s-.5-3,1-4.28,4.65-2.33,5.59-1.2S102.88,48,101.4,49.25Z"/><line class="cls-3" x1="100.86" y1="46.19" x2="96.99" y2="49.41"/><path class="cls-3" d="M100.73,46l-3.86,3.22a.2.2,0,0,0,0,.27.19.19,0,0,0,.27,0L101,46.33a.18.18,0,0,0,0-.26.2.2,0,0,0-.27,0"/><path class="cls-4" d="M79.28,41.12c-.9,1.7-2.69,2.53-4,1.84s-1.63-2.62-.73-4.33S78,34.71,79.28,35.4,80.18,39.41,79.28,41.12Z"/><line class="cls-3" x1="77.61" y1="38.49" x2="75.26" y2="42.94"/><path class="cls-3" d="M77.44,38.4l-2.35,4.46a.19.19,0,0,0,.08.25.18.18,0,0,0,.25-.08l2.35-4.45a.17.17,0,0,0-.08-.25.18.18,0,0,0-.25.07"/><path class="cls-2" d="M101.07,54.4c-2.41.22-4.46-.79-4.6-2.25s1.7-2.84,4.1-3.06,6.42.61,6.55,2.07S103.47,54.18,101.07,54.4Z"/><line class="cls-3" x1="102.74" y1="51.53" x2="96.47" y2="52.11"/><path class="cls-4" d="M102.72,51.32l-6.27.58a.21.21,0,0,0,0,.42l6.27-.58a.21.21,0,1,0,0-.42"/><path class="cls-4" d="M70.17,45c.87,2,.49,4.08-.86,4.67s-3.15-.54-4-2.53-1.2-5.71.15-6.3S69.3,43,70.17,45Z"/><line class="cls-3" x1="67" y1="44.49" x2="69.28" y2="49.69"/><path class="cls-3" d="M66.82,44.57l2.28,5.2a.2.2,0,1,0,.36-.16l-2.28-5.2a.2.2,0,0,0-.36.16"/><path class="cls-2" d="M75,41.13c.27,2.16-.7,4-2.16,4.24S70,44,69.75,41.79s.47-5.81,1.93-6S74.77,39,75,41.13Z"/><line class="cls-3" x1="72.14" y1="39.74" x2="72.84" y2="45.37"/><polyline class="cls-3" points="71.94 39.77 72.64 45.4 73.04 45.35 72.34 39.72"/><path class="cls-6" d="M78.66,104c-5.9,0-10.49.62-10.5,1.47s5.28,1.73,11.83,1.84h1.38c5.9,0,10.49-.62,10.51-1.47S86.59,104.14,80,104H78.66"/><path class="cls-7" d="M97.17,66.08l-3.5-2.23a1.14,1.14,0,0,1,.83-1.33h0l2-1a1,1,0,0,1,1.12-.08h0a1,1,0,0,1,.39,1l0,2.29v.06a1.11,1.11,0,0,1-.71,1.26A.28.28,0,0,1,97.17,66.08Z"/><rect class="cls-7" x="83.47" y="100.04" width="9.13" height="3.17" rx="1.12" ry="1.12" transform="matrix(0.02, -1, 1, 0.02, -14.97, 188.03)"/><rect class="cls-7" x="74.25" y="99.89" width="9.13" height="3.17" rx="1.12" ry="1.12" transform="translate(-23.9 178.67) rotate(-89.09)"/><path class="cls-8" d="M81.76,90.37A17.05,17.05,0,0,1,93.19,58.24a1.38,1.38,0,0,1,1,1.77Z"/><path class="cls-8" d="M69,86.69c-3.61-1.83-8.13-.15-10.1,3.74a7.73,7.73,0,0,0,2.08,9.8.93.93,0,0,0,1.36-.34Z"/><path class="cls-9" d="M75.88,99.75l10.5.17a7.2,7.2,0,0,0,7.29-7.06L93.82,83l-18.73-.31a7.18,7.18,0,0,0-7.26,7l0,1.67A8.24,8.24,0,0,0,75.88,99.75Z"/><path class="cls-9" d="M82.5,97.2l5.3.88a5.18,5.18,0,0,0,5.72-4.52l2.3-19.5a1.12,1.12,0,0,0-1-1.24l-9.31-1.35a1.12,1.12,0,0,0-1.24,1L81.52,96A1.12,1.12,0,0,0,82.5,97.2Z"/><rect class="cls-9" x="79.09" y="99.97" width="9.13" height="3.17" rx="1.12" ry="1.12" transform="translate(-19.28 183.5) rotate(-89.05)"/><rect class="cls-9" x="69.87" y="99.82" width="9.13" height="3.17" rx="1.12" ry="1.12" transform="translate(-28.13 174.22) rotate(-89.09)"/><path class="cls-9" d="M76,78.85a.81.81,0,0,0,.46-.19,2.8,2.8,0,0,0,.35-.46.43.43,0,0,1,.34-.2h0a.42.42,0,0,1,.23.08,3.58,3.58,0,0,1,.34.34.82.82,0,0,0,.59.27h.06a.74.74,0,0,0,.46-.19,2.55,2.55,0,0,0,.35-.46.44.44,0,0,1,.34-.2.19.19,0,0,0,0-.37.74.74,0,0,0-.46.19,2.93,2.93,0,0,0-.35.45.45.45,0,0,1-.34.21h0a.38.38,0,0,1-.23-.08,3.58,3.58,0,0,1-.34-.34.82.82,0,0,0-.59-.27h-.06a.75.75,0,0,0-.46.2,3.72,3.72,0,0,0-.35.45.43.43,0,0,1-.33.21.18.18,0,0,0-.18.19.2.2,0,0,0,.2.18Z"/><path class="cls-9" d="M77.25,66.62a.74.74,0,0,0,.46-.19,2.55,2.55,0,0,0,.35-.46.44.44,0,0,1,.34-.2h0a.37.37,0,0,1,.23.07c.1.07.2.21.34.34a.75.75,0,0,0,.59.27h.06a.74.74,0,0,0,.46-.19,3.72,3.72,0,0,0,.35-.45.43.43,0,0,1,.33-.21.19.19,0,0,0,.18-.2.19.19,0,0,0-.2-.17.74.74,0,0,0-.46.19,2.15,2.15,0,0,0-.35.46.45.45,0,0,1-.34.2l0,.19v-.19h0a.35.35,0,0,1-.23-.07c-.1-.07-.2-.21-.34-.34a.75.75,0,0,0-.59-.27h-.06a.74.74,0,0,0-.46.19,2.55,2.55,0,0,0-.35.46.44.44,0,0,1-.34.2.19.19,0,1,0,0,.37Z"/><path class="cls-9" d="M75.25,72.64a.72.72,0,0,0,.45-.19,3.07,3.07,0,0,0,.36-.45.43.43,0,0,1,.33-.21h0a.41.41,0,0,1,.22.07,2.29,2.29,0,0,1,.34.35.84.84,0,0,0,.59.27h.06a.74.74,0,0,0,.46-.19,3.07,3.07,0,0,0,.36-.45.43.43,0,0,1,.33-.21.19.19,0,0,0,0-.37.72.72,0,0,0-.45.19,2.65,2.65,0,0,0-.36.46.42.42,0,0,1-.33.2h0a.34.34,0,0,1-.22-.07,2.17,2.17,0,0,1-.34-.34.8.8,0,0,0-.59-.27h-.07a.74.74,0,0,0-.45.19,2.65,2.65,0,0,0-.36.46.42.42,0,0,1-.33.2.19.19,0,0,0-.17.2.18.18,0,0,0,.2.17Z"/><path class="cls-9" d="M60.1,92.42h0a.77.77,0,0,0,.46-.16,2.46,2.46,0,0,0,.39-.42.42.42,0,0,1,.34-.17v0h0v0h0a.36.36,0,0,1,.24.08,3,3,0,0,1,.33.39.83.83,0,0,0,.62.32h0A.73.73,0,0,0,63,92.3a2.46,2.46,0,0,0,.39-.42.44.44,0,0,1,.34-.17v0h0v0a.18.18,0,0,0,.2-.16.19.19,0,0,0-.17-.21h0a.77.77,0,0,0-.46.16,2.46,2.46,0,0,0-.39.42.42.42,0,0,1-.34.17h0v0a.36.36,0,0,1-.24-.08,3,3,0,0,1-.33-.39.83.83,0,0,0-.62-.32v.19l0-.18h0a.73.73,0,0,0-.46.16,2.46,2.46,0,0,0-.39.42.44.44,0,0,1-.34.17h0a.19.19,0,0,0,0,.38Z"/><g class="cls-10"><path class="cls-8" d="M73.48,82a10,10,0,0,0-3.89,8.06l0,2.11a1.7,1.7,0,0,0,0,.22,12,12,0,0,0,2.76,7.84.39.39,0,0,0,.53,0,.38.38,0,0,0,0-.53,11.27,11.27,0,0,1-2.57-7.35v-.2l0-2.11a9.29,9.29,0,0,1,3.58-7.47.37.37,0,0,0,.09-.52.38.38,0,0,0-.52-.09Z"/><path class="cls-8" d="M71.9,82A10,10,0,0,0,68,90l0,2.11v.22a12,12,0,0,0,2.76,7.83.37.37,0,1,0,.56-.48,11.27,11.27,0,0,1-2.57-7.35v-.21l0-2.11a9.27,9.27,0,0,1,3.57-7.46.37.37,0,0,0,.09-.52A.36.36,0,0,0,71.9,82Z"/><path class="cls-8" d="M75.43,82a10.05,10.05,0,0,0-3.89,8.07l0,2.11v.21a11.93,11.93,0,0,0,2.76,7.84.37.37,0,0,0,.52,0,.38.38,0,0,0,0-.53,11.21,11.21,0,0,1-2.58-7.35,1.41,1.41,0,0,1,0-.2l0-2.11a9.3,9.3,0,0,1,3.57-7.47.36.36,0,0,0,.09-.51.38.38,0,0,0-.52-.1Z"/><path class="cls-8" d="M78.42,82.07a10,10,0,0,0-3.89,8.06l0,2.11v.22a12,12,0,0,0,2.76,7.84.37.37,0,1,0,.56-.49,11.23,11.23,0,0,1-2.58-7.35,1.27,1.27,0,0,1,0-.2l0-2.11a9.29,9.29,0,0,1,3.57-7.47.37.37,0,0,0,.09-.52.38.38,0,0,0-.52-.09Z"/><path class="cls-8" d="M82.53,81.77a10,10,0,0,0-3.89,8.06l0,2.11v.21A12,12,0,0,0,81.36,100a.37.37,0,1,0,.56-.49,11.25,11.25,0,0,1-2.57-7.35V92l0-2.11A9.27,9.27,0,0,1,83,82.38a.38.38,0,0,0,.1-.52.37.37,0,0,0-.52-.09Z"/></g><g class="cls-11"><path class="cls-8" d="M83.09,79.81a10,10,0,0,0,6.55,6.1l2,.66a13.13,13.13,0,0,0,4,.66,11.05,11.05,0,0,0,4.47-.91.36.36,0,0,0,.19-.49.37.37,0,0,0-.49-.19,10.42,10.42,0,0,1-4.17.84,12.18,12.18,0,0,1-3.8-.62l-2-.65a9.28,9.28,0,0,1-6.07-5.62.37.37,0,0,0-.47-.24.36.36,0,0,0-.24.46Z"/><path class="cls-8" d="M83.27,80.9c0,.1,0,.2,0,.31a11.39,11.39,0,0,0,4.17,8.27l1.65,1.31a12.14,12.14,0,0,0,7.47,2.75h.59a.38.38,0,0,0,0-.75l-.55,0a11.43,11.43,0,0,1-7-2.59l-1.65-1.32A10.65,10.65,0,0,1,84,81.21c0-.1,0-.19,0-.28a.37.37,0,0,0-.36-.39.36.36,0,0,0-.38.36Z"/><path class="cls-8" d="M83.23,81.13A10.29,10.29,0,0,0,82.14,86a11.85,11.85,0,0,0,1,4.91l.9,2a12.6,12.6,0,0,0,6,6.3.37.37,0,0,0,.49-.19.37.37,0,0,0-.18-.49,11.82,11.82,0,0,1-5.67-5.93l-.9-2a11.1,11.1,0,0,1-1-4.6,9.51,9.51,0,0,1,1-4.48.39.39,0,0,0-.15-.51.38.38,0,0,0-.51.15Z"/></g><path class="cls-9" d="M83.23,70.35l-.58,6.74a8,8,0,0,0,8.41,7.58l1.86-.09a8,8,0,0,0,7.58-8.41l-1.28-6.65a8,8,0,1,0-16,.83Z"/><path class="cls-9" d="M85.24,67l3.14-2.71a1.11,1.11,0,0,0-1-1.19h0l-2.16-.68a1,1,0,0,0-1.11.07h0a1,1,0,0,0-.24,1.1l.3,2.27v.06A1.12,1.12,0,0,0,85,67.09.31.31,0,0,0,85.24,67Z"/><path class="cls-7" d="M83.1,75l-.3,1.87a7,7,0,0,0,5.62,7.69,12.47,12.47,0,0,0,2.76.16l1.91-.1a10.36,10.36,0,0,0,1.12-.11,7.11,7.11,0,0,0,6-8.84l-.32-1.17c-.15-2.91-4-5.11-8.49-4.87S84.33,71.63,83.1,75Z"/><path class="cls-8" d="M73.71,106l.93,0a1.12,1.12,0,0,0,1.14-1.1l0-1.49-3.16,0,0,1.49A1.12,1.12,0,0,0,73.71,106Z"/><path class="cls-8" d="M83,106.1l.93,0a1.12,1.12,0,0,0,1.14-1.1l0-1.49-3.16,0,0,1.49A1.12,1.12,0,0,0,83,106.1Z"/><path class="cls-12" d="M87.49,106.18h.93a1.12,1.12,0,0,0,1.14-1.1l0-1.49-3.17,0,0,1.49A1.13,1.13,0,0,0,87.49,106.18Z"/><path class="cls-12" d="M78.27,106h.93a1.12,1.12,0,0,0,1.14-1.1l0-1.49-3.16,0,0,1.49A1.12,1.12,0,0,0,78.27,106Z"/><path class="cls-7" d="M96.89,74.34a2.19,2.19,0,1,0,2-2.33A2.18,2.18,0,0,0,96.89,74.34Z"/><path class="cls-9" d="M99,75.64A1.33,1.33,0,1,1,97,74.17,1.33,1.33,0,1,1,99,75.64Z"/><path class="cls-7" d="M90.34,74.32a2.19,2.19,0,1,0,2.23-2.15A2.2,2.2,0,0,0,90.34,74.32Z"/><path class="cls-9" d="M87.39,74.59a1.84,1.84,0,0,0,2.13.41,1.84,1.84,0,0,0-.3-2.15,1.33,1.33,0,1,0-1.83,1.74Z"/><path class="cls-12" d="M88.16,77.54A2.46,2.46,0,0,0,92.85,79c.41-1.3-1-.33-2.35-.74S88.57,76.24,88.16,77.54Z"/><g class="cls-13"><rect class="cls-14" x="89.5" y="76.58" width="2.5" height="1.81" rx="0.67" ry="0.67" transform="translate(-10.52 140.6) rotate(-72.42)"/><path class="cls-15" d="M91,82.53h0a.92.92,0,0,0,1.13-.59l.21-.67a.9.9,0,1,0-1.72-.54l-.21.66A.91.91,0,0,0,91,82.53Z"/></g><path class="cls-12" d="M90.83,67.16a.71.71,0,0,0-.75-.65.7.7,0,0,0-.64.75"/><path class="cls-12" d="M93.67,67a.7.7,0,0,0-.75-.65.71.71,0,0,0-.65.75"/><path class="cls-5" d="M98.54,46l-29.62-.48a.63.63,0,0,1-.62-.64l.07-4.27A.63.63,0,0,1,69,40l29.62.48a.63.63,0,0,1,.62.64l-.07,4.27A.63.63,0,0,1,98.54,46Z"/><path class="cls-5" d="M98.45,51.53l-29.62-.48a.62.62,0,0,1-.62-.64l.07-4.26a.62.62,0,0,1,.64-.62L98.54,46a.64.64,0,0,1,.62.65l-.07,4.26A.62.62,0,0,1,98.45,51.53Z"/><path class="cls-5" d="M98.36,57l-29.62-.48a.63.63,0,0,1-.62-.64l.07-4.26a.63.63,0,0,1,.64-.62l29.62.47a.64.64,0,0,1,.62.65L99,56.39A.62.62,0,0,1,98.36,57Z"/><polyline class="cls-16" points="69.6 45.57 97.86 46.03 97.95 45.94 97.86 45.84 69.6 45.39 69.5 45.48 69.6 45.57"/><polyline class="cls-16" points="69.51 51.03 97.04 51.47 97.13 51.38 97.04 51.29 69.51 50.85 69.42 50.94 69.51 51.03"/><polyline class="cls-16" points="69.12 47.53 86.87 47.81 86.88 47.63 69.12 47.34"/><polyline class="cls-16" points="80.06 41.63 97.81 41.91 97.81 41.73 80.06 41.44"/><polyline class="cls-16" points="80.68 49.3 98.44 49.59 98.44 49.4 80.68 49.12"/><polyline class="cls-16" points="70.24 53.25 88 53.53 88 53.35 70.25 53.06"/><path class="cls-17" d="M96.13,48.83a4.34,4.34,0,1,1-2.8-5.47A4.33,4.33,0,0,1,96.13,48.83Z"/><path class="cls-5" d="M93.55,49.21a1.89,1.89,0,1,1-1.22-2.38A1.89,1.89,0,0,1,93.55,49.21Z"/><path class="cls-5" d="M91.35,45.78a.91.91,0,1,1-1.74-.56.91.91,0,0,1,1.74.56Z"/><path class="cls-5" d="M93.68,45.69a.92.92,0,0,1-1.15.59.91.91,0,1,1,1.15-.59Z"/><path class="cls-5" d="M95.43,47.14A.91.91,0,1,1,94.84,46,.92.92,0,0,1,95.43,47.14Z"/><path class="cls-17" d="M86.77,48.41a4.15,4.15,0,1,1-5.28-2.55A4.15,4.15,0,0,1,86.77,48.41Z"/><path class="cls-5" d="M85,50.19a1.81,1.81,0,1,1-2.3-1.11A1.81,1.81,0,0,1,85,50.19Z"/><path class="cls-5" d="M81.37,48.85a.87.87,0,1,1-1.11-.54A.86.86,0,0,1,81.37,48.85Z"/><path class="cls-5" d="M83.09,47.43a.87.87,0,1,1-1.64.58.87.87,0,1,1,1.64-.58Z"/><path class="cls-5" d="M85.26,47.53a.87.87,0,1,1-1.65.57A.89.89,0,0,1,84.15,47,.87.87,0,0,1,85.26,47.53Z"/><path class="cls-2" d="M113.11,64.87a1.54,1.54,0,0,1-.2.79,3.59,3.59,0,0,1-1.34,1.21c-1,.6-2.29,1.13-3.45,1.86a5.68,5.68,0,0,0-1.56,1.38,3.56,3.56,0,0,0-.73,2.11v.07a3.56,3.56,0,0,0,.41,1.67,5.6,5.6,0,0,0,2,2c1.13.74,2.41,1.3,3.32,1.93a4,4,0,0,1,1,.93,1.68,1.68,0,0,1,.32,1v0h0a1.54,1.54,0,0,1-.2.79,3.59,3.59,0,0,1-1.34,1.21c-1,.6-2.29,1.13-3.45,1.86A5.68,5.68,0,0,0,106.32,85a3.59,3.59,0,0,0-.73,2.12v.06a3.56,3.56,0,0,0,.41,1.67,5.52,5.52,0,0,0,2,2c1.13.74,2.41,1.3,3.32,1.93a3.84,3.84,0,0,1,1,.94,1.6,1.6,0,0,1,.33,1v0h0a1.51,1.51,0,0,1-.2.78,3.77,3.77,0,0,1-1.34,1.22c-1,.6-2.29,1.13-3.45,1.86a5.81,5.81,0,0,0-1.56,1.37,3.61,3.61,0,0,0-.73,2.12v.06a3.57,3.57,0,0,0,.41,1.68,5.57,5.57,0,0,0,1.94,2c1.14.74,2.42,1.3,3.33,1.93a4,4,0,0,1,1,.94,1.6,1.6,0,0,1,.33,1v0a1,1,0,0,0,1,1,1,1,0,0,0,1-.94v-.06a3.6,3.6,0,0,0-.41-1.68,5.57,5.57,0,0,0-1.94-2c-1.14-.74-2.42-1.3-3.33-1.93a4,4,0,0,1-1-.94,1.6,1.6,0,0,1-.33-1v0a1.61,1.61,0,0,1,.2-.78,3.77,3.77,0,0,1,1.34-1.22c1-.6,2.29-1.12,3.45-1.86a5.81,5.81,0,0,0,1.56-1.37,3.61,3.61,0,0,0,.73-2.12h0v-.05a3.57,3.57,0,0,0-.41-1.68,5.57,5.57,0,0,0-1.94-2c-1.14-.74-2.42-1.3-3.33-1.93a4,4,0,0,1-1-.93,1.62,1.62,0,0,1-.33-1v0a1.65,1.65,0,0,1,.21-.79,3.59,3.59,0,0,1,1.34-1.21c1-.6,2.28-1.13,3.44-1.86A5.68,5.68,0,0,0,114.05,82a3.59,3.59,0,0,0,.73-2.12h0v-.06a3.56,3.56,0,0,0-.41-1.67,5.57,5.57,0,0,0-1.94-1.95c-1.14-.74-2.42-1.3-3.33-1.93a4,4,0,0,1-1-.94,1.6,1.6,0,0,1-.33-1v0a1.61,1.61,0,0,1,.21-.78,3.51,3.51,0,0,1,1.34-1.21c1-.6,2.28-1.13,3.44-1.86A5.68,5.68,0,0,0,114.29,67a3.58,3.58,0,0,0,.73-2.11,1,1,0,0,0-.94-1,1,1,0,0,0-1,.93Z"/><path class="cls-2" d="M58.52,58.58c.38,2.57-.48,4.83-1.94,5.05s-2.95-1.69-3.33-4.26.17-6.93,1.62-7.14S58.13,56,58.52,58.58Z"/><line class="cls-3" x1="55.54" y1="56.92" x2="56.55" y2="63.64"/><path class="cls-4" d="M55.32,57l1,6.71a.22.22,0,0,0,.25.18.2.2,0,0,0,.18-.24l-1-6.72a.22.22,0,0,0-.25-.18.22.22,0,0,0-.19.25"/><path class="cls-2" d="M112.48,53.33c.39,2.57-.48,4.83-1.93,5.05s-3-1.69-3.34-4.26.17-6.93,1.63-7.15S112.1,50.76,112.48,53.33Z"/><line class="cls-3" x1="109.5" y1="51.67" x2="110.51" y2="58.39"/><path class="cls-4" d="M109.29,51.7l1,6.72a.22.22,0,0,0,.25.18.22.22,0,0,0,.19-.25l-1-6.71a.23.23,0,0,0-.25-.19.22.22,0,0,0-.18.25"/><path class="cls-2" d="M116.64,61.89c-.89,2-2.71,3.19-4,2.6s-1.72-2.72-.82-4.75,3.44-4.85,4.78-4.25S117.54,59.86,116.64,61.89Z"/><line class="cls-3" x1="114.89" y1="59.18" x2="112.49" y2="64.31"/><path class="cls-4" d="M114.71,59.09l-2.4,5.14a.18.18,0,0,0,.1.26.19.19,0,0,0,.26-.09l2.4-5.14A.2.2,0,0,0,115,59a.2.2,0,0,0-.26.1"/><path class="cls-2" d="M105.42,54c2.1.72,3.41,2.44,2.92,3.83s-2.57,1.93-4.66,1.2-5.11-3-4.63-4.43S103.33,53.22,105.42,54Z"/><line class="cls-3" x1="102.86" y1="55.92" x2="108.33" y2="57.82"/><path class="cls-4" d="M102.8,56.11l5.46,1.9a.21.21,0,0,0,.14-.39l-5.47-1.9a.21.21,0,0,0-.26.13.2.2,0,0,0,.13.26"/><path class="cls-4" d="M111.17,57.93c1.21,2.3,1.14,4.72-.16,5.41s-3.34-.62-4.56-2.93-2.13-6.59-.82-7.28S110,55.63,111.17,57.93Z"/><line class="cls-3" x1="107.81" y1="57.35" x2="110.9" y2="63.14"/><path class="cls-3" d="M107.61,57.45l3.09,5.79a.22.22,0,0,0,.3.09.21.21,0,0,0,.09-.29L108,57.25a.22.22,0,0,0-.3-.09.22.22,0,0,0-.09.29"/><path class="cls-4" d="M113.55,68.45c-1.92,1.26-4.13,1.29-4.94.06s.09-3.25,2-4.51,5.7-2.31,6.5-1.08S115.47,67.19,113.55,68.45Z"/><line class="cls-3" x1="113.6" y1="65.19" x2="108.78" y2="68.4"/><path class="cls-3" d="M113.49,65l-4.83,3.21a.21.21,0,1,0,.23.35l4.83-3.21a.21.21,0,0,0-.23-.35"/><polyline class="cls-16" points="55.24 70.02 54.84 95.44 55.02 95.44 55.43 70.03"/><polyline class="cls-16" points="52.32 71.61 52.21 78.72 52.4 78.72 52.51 71.62"/><polyline class="cls-16" points="55.16 99.72 55.09 104.28 55.27 104.28 55.35 99.72"/><path class="cls-2" d="M56.62,64a1.59,1.59,0,0,1-.21.8A3.63,3.63,0,0,1,55.07,66c-1,.61-2.29,1.14-3.44,1.88a5.93,5.93,0,0,0-1.56,1.4,3.55,3.55,0,0,0-.73,2.13v.07a3.6,3.6,0,0,0,.41,1.68,5.47,5.47,0,0,0,1.94,2c1.14.75,2.41,1.33,3.33,2a4.39,4.39,0,0,1,1,1,1.69,1.69,0,0,1,.33,1v0h0a1.74,1.74,0,0,1-.21.81,3.71,3.71,0,0,1-1.34,1.24c-1,.61-2.29,1.14-3.45,1.88a5.93,5.93,0,0,0-1.56,1.4,3.62,3.62,0,0,0-.73,2.13v.07a3.6,3.6,0,0,0,.42,1.68,5.44,5.44,0,0,0,1.93,2c1.14.75,2.42,1.33,3.33,2a4.2,4.2,0,0,1,1,1,1.79,1.79,0,0,1,.34,1v0h0a1.7,1.7,0,0,1-.21.81,3.75,3.75,0,0,1-1.35,1.24c-1,.61-2.28,1.14-3.44,1.89a5.72,5.72,0,0,0-1.56,1.39,3.67,3.67,0,0,0-.73,2.14v.06a3.64,3.64,0,0,0,.41,1.69,5.63,5.63,0,0,0,1.94,2c1.14.75,2.41,1.32,3.33,2a4.39,4.39,0,0,1,1,1,1.69,1.69,0,0,1,.33,1v0a1,1,0,0,0,1.91,0v-.06a3.64,3.64,0,0,0-.41-1.69,5.63,5.63,0,0,0-1.94-2c-1.14-.75-2.41-1.32-3.33-2a4.19,4.19,0,0,1-1-1,1.69,1.69,0,0,1-.33-1v0A1.74,1.74,0,0,1,51,101a3.63,3.63,0,0,1,1.34-1.24c1-.61,2.29-1.14,3.45-1.88a5.93,5.93,0,0,0,1.56-1.4A3.58,3.58,0,0,0,58,94.29h0v-.06a3.57,3.57,0,0,0-.42-1.68,5.58,5.58,0,0,0-1.94-2c-1.13-.75-2.41-1.32-3.32-2a3.85,3.85,0,0,1-1-1,1.67,1.67,0,0,1-.34-1v0a1.7,1.7,0,0,1,.21-.81,3.67,3.67,0,0,1,1.35-1.24c1-.61,2.28-1.14,3.44-1.89a5.72,5.72,0,0,0,1.56-1.39,3.67,3.67,0,0,0,.73-2.14h0v-.06a3.64,3.64,0,0,0-.41-1.69,5.72,5.72,0,0,0-1.94-2c-1.14-.75-2.42-1.32-3.33-2a4,4,0,0,1-1-.95,1.66,1.66,0,0,1-.33-1v0a1.59,1.59,0,0,1,.21-.8,3.63,3.63,0,0,1,1.34-1.24c1-.61,2.29-1.14,3.44-1.89a5.91,5.91,0,0,0,1.57-1.39A3.61,3.61,0,0,0,58.53,64a1,1,0,0,0-.94-1,1,1,0,0,0-1,.94Z"/><path class="cls-4" d="M55.35,60.4C57.42,62,58.88,63.84,58,65s-3.29.84-5.36-.74-4.42-5.47-3.53-6.64S53.29,58.82,55.35,60.4Z"/><line class="cls-3" x1="52.57" y1="60.92" x2="57.81" y2="64.83"/><path class="cls-3" d="M52.44,61.09,57.67,65A.22.22,0,0,0,58,65a.22.22,0,0,0,0-.3L52.7,60.74a.22.22,0,0,0-.31,0,.21.21,0,0,0,0,.3"/><path class="cls-18" d="M112.31,112.47a2.16,2.16,0,0,0,2.35-1.59c.22-1.44-.84-2.25,1.39-3.28,1.43-.67-3.88-2.08-5.51.92,0,0,0-4.24,2.19-6.69a4.31,4.31,0,0,0-3.07,1.25,6.06,6.06,0,0,0-1.73,3.54s-2.37-2.39-5.11-1.09c0,0,2.79,2.22,2.77,3.26,0,.44,0,1.14.06,1.79a2.06,2.06,0,0,0,2.11,1.76Z"/><path class="cls-18" d="M51.39,111.49a2.15,2.15,0,0,1-2.3-1.67c-.17-1.44.91-2.22-1.28-3.32-1.41-.71,3.94-2,5.47,1.1,0,0,.11-4.24-2-6.76a4.31,4.31,0,0,1,3,1.35,6,6,0,0,1,1.61,3.6s2.45-2.32,5.14-.93c0,0-2.85,2.13-2.87,3.16,0,.45-.06,1.14-.11,1.8a2.07,2.07,0,0,1-2.17,1.69Z"/><path class="cls-17" d="M71.07,49.46v0a1.21,1.21,0,0,1,.34-.83l4.32-4.87-3.63-.06a.79.79,0,0,1-.79-.79.81.81,0,0,1,.81-.78l5.23.08a.81.81,0,0,1,.78.81v0a1.33,1.33,0,0,1-.34.84l-4.33,4.86,3.78.06a.81.81,0,0,1,.78.81.79.79,0,0,1-.81.77l-5.36-.08A.81.81,0,0,1,71.07,49.46Z"/><path class="cls-16" d="M79,51.12a3.94,3.94,0,0,1-.23-1.34A4.05,4.05,0,0,1,81.52,46l0-.12-.11-.06a4.24,4.24,0,0,0-2.61,5.41l.12.06.06-.12Z"/><path class="cls-16" d="M86.68,48.44a4,4,0,0,1,.23,1.34,4,4,0,0,1-2.72,3.83l0,.12.11.06a4.24,4.24,0,0,0,2.61-5.41l-.12-.06-.06.12Z"/><path class="cls-16" d="M72.12,42.18l5.22.08.1-.09-.09-.09L72.12,42l-.09.1Zm-.64,6.47,4.46-5-3.84-.06-.1.09.09.1,3.44.05-4.19,4.71v.14Zm2,.16,3.78.06a.71.71,0,0,1,.69.7h0l.09.1.1-.1h0a.91.91,0,0,0-.88-.89l-3.77-.06-.1.09.09.1Z"/><path class="cls-16" d="M90.69,51.55a4.27,4.27,0,0,1-3-4A4.32,4.32,0,0,1,88,46.19l-.06-.11-.12.06a4.59,4.59,0,0,0-.21,1.36,4.43,4.43,0,0,0,3.07,4.22l.12-.06-.06-.11Z"/><path class="cls-16" d="M93.3,43.45a4.26,4.26,0,0,1,3,4A4.21,4.21,0,0,1,96,48.8l.06.12.12-.06a4.3,4.3,0,0,0,.22-1.36,4.45,4.45,0,0,0-3.08-4.23l-.12.06.06.12Z"/></svg>