<svg id="Layer_1" data-name="Layer 1" xmlns="http://www.w3.org/2000/svg" viewBox="0 0 160 160"><defs><style>.cls-1{fill:#e26698;}.cls-2{fill:#ff7bac;}.cls-3{fill:#f2f2f2;}.cls-4{fill:#f7931e;}.cls-5{fill:#f4af03;}.cls-6{fill:#fff;}.cls-7{fill:#208ed1;}.cls-8{fill:#3fa9f5;}.cls-9{fill:gray;}.cls-10{fill:#6258e0;}.cls-11{fill:#e6e6e6;}.cls-12{fill:#c6c6c6;}.cls-13{fill:#b8b4f1;}</style></defs><title>Artboard 97</title><path class="cls-1" d="M120.86,87.7a19,19,0,0,1-19,19,7.68,7.68,0,0,1-.84,0,19,19,0,0,1,0-37.91,7.68,7.68,0,0,1,.84,0,19,19,0,0,1,19,19"/><path class="cls-2" d="M117.35,84.19a19,19,0,0,1-19,19,7.58,7.58,0,0,1-.83,0A18.83,18.83,0,0,1,86.8,99.23,19,19,0,0,1,101,68.75a7.68,7.68,0,0,1,.84,0,18.82,18.82,0,0,1,11.52,3.89,18.86,18.86,0,0,1,3.95,11.58"/><path class="cls-3" d="M95.42,96a9.12,9.12,0,0,1-3.6-3.42,10,10,0,0,1,0-9.87,9.12,9.12,0,0,1,3.6-3.42,11.47,11.47,0,0,1,9.5-.38,8.61,8.61,0,0,1,3.27,2.43l-2.75,2.55a5.92,5.92,0,0,0-4.66-2.18,6.11,6.11,0,0,0-3.07.76,5.39,5.39,0,0,0-2.11,2.1,6.68,6.68,0,0,0,0,6.15,5.39,5.39,0,0,0,2.11,2.1,6.21,6.21,0,0,0,3.07.76,5.91,5.91,0,0,0,4.66-2.2l2.75,2.54a8.44,8.44,0,0,1-3.28,2.46,10.82,10.82,0,0,1-4.37.85A10.62,10.62,0,0,1,95.42,96Z"/><path class="cls-4" d="M101.24,65.77A19.57,19.57,0,0,1,81.67,85.33c-.28,0-.56,0-.86,0a19.55,19.55,0,0,1,0-39.06,8.43,8.43,0,0,1,.86,0,19.56,19.56,0,0,1,19.57,19.55"/><path class="cls-5" d="M97.21,63.3A19.56,19.56,0,0,1,77.64,82.86a8.33,8.33,0,0,1-.86,0,19.53,19.53,0,0,1-7.25-1.73A19.54,19.54,0,0,1,80.81,46.25a8.43,8.43,0,0,1,.86,0A19.36,19.36,0,0,1,89.83,48a19.48,19.48,0,0,1,7.38,15.3"/><path class="cls-6" d="M86.18,69.69H77.31l-1.69,4.1H71.09l8.51-19.1H84l8.54,19.1H87.87l-1.69-4.1m-1.39-3.35-3-7.31-3,7.31h6.06"/><path class="cls-7" d="M81.43,87.85A21.14,21.14,0,0,1,60.3,109a8.24,8.24,0,0,1-.87,0,21.13,21.13,0,0,1,0-42.23,8.24,8.24,0,0,1,.87,0,20.75,20.75,0,0,1,6.63,1.07,21.15,21.15,0,0,1,14.5,20.08"/><path class="cls-8" d="M77.4,86a21.14,21.14,0,0,1-21.14,21.14,8.43,8.43,0,0,1-.87,0,20.88,20.88,0,0,1-5.79-1,21.14,21.14,0,0,1,9.83-39.36,8.24,8.24,0,0,1,.87,0,20.75,20.75,0,0,1,6.63,1.07A21.14,21.14,0,0,1,77.4,86Z"/><path class="cls-6" d="M70.15,88.84a5.2,5.2,0,0,1,1,3.23A4.75,4.75,0,0,1,69,96.24a10.78,10.78,0,0,1-6.15,1.46H52.22V77.06H62.3a9.84,9.84,0,0,1,5.8,1.45,4.58,4.58,0,0,1,2,3.92,4.94,4.94,0,0,1-.73,2.68,5,5,0,0,1-2,1.86A5.49,5.49,0,0,1,70.15,88.84ZM57,80.66v4.86h4.74a4.76,4.76,0,0,0,2.69-.62,2.27,2.27,0,0,0,0-3.64,4.94,4.94,0,0,0-2.69-.6Zm8.42,12.82a2.12,2.12,0,0,0,1-1.91c0-1.71-1.26-2.57-3.8-2.57H57v5.1h5.57A5.24,5.24,0,0,0,65.39,93.48Z"/><path class="cls-9" d="M87.39,81.08,81,86.36l-.14.06-3.45-4.2.1-.11,6.42-5.28a.91.91,0,0,0,.19.38l3,3.61a.87.87,0,0,0,.35.26"/><path class="cls-9" d="M113.83,52.26l.27.32a.94.94,0,0,0-.34-.26Z"/><path class="cls-9" d="M117.24,56.58a.82.82,0,0,0-.18-.39l.27.32Z"/><path class="cls-10" d="M114.1,52.58l3,3.61a.82.82,0,0,1,.18.39.94.94,0,0,1-.31,1L88.39,81a.94.94,0,0,1-1,.12.87.87,0,0,1-.35-.26l-3-3.61a.91.91,0,0,1-.19-.38,1,1,0,0,1,.33-1l28.53-23.42a1,1,0,0,1,1.35.13"/><path class="cls-3" d="M80.86,87c-.17.18-3.84,3.71-6.66,4.85a9.13,9.13,0,0,1-5.3.15c-.4-.16-.72-.35-.39-.5A6.23,6.23,0,0,0,72,87.85c1.19-4.54,4.61-5.71,4.9-5.76a.56.56,0,0,1,.47.07l3.51,4.28a.38.38,0,0,1,0,.52"/><path class="cls-11" d="M80.84,86.44,79,84.22a12.81,12.81,0,0,1-6.8,8,7.23,7.23,0,0,0,2-.45C77,90.67,80.69,87.14,80.86,87A.37.37,0,0,0,80.84,86.44Z"/><path class="cls-12" d="M84.47,77.68l-6,5a.49.49,0,0,0-.06.68.45.45,0,0,0,.37.17.45.45,0,0,0,.31-.11l6-5-.61-.75"/><path class="cls-13" d="M113.15,53.93a.51.51,0,0,0-.31.11L84.47,77.68l.61.75,28.38-23.65a.49.49,0,0,0,.06-.68.5.5,0,0,0-.37-.17"/></svg>