<svg id="Layer_1" data-name="Layer 1" xmlns="http://www.w3.org/2000/svg" viewBox="0 0 160 160"><defs><style>.cls-1{fill:#e26698;}.cls-2{fill:#ff7bac;}.cls-3{fill:#f2f2f2;}.cls-4{fill:#f7931e;}.cls-5{fill:#f4af03;}.cls-6{fill:#fff;}.cls-7{fill:#208ed1;}.cls-8{fill:#3fa9f5;}.cls-9{fill:gray;}.cls-10{fill:#6258e0;}.cls-11{fill:#e6e6e6;}.cls-12{fill:#c6c6c6;}.cls-13{fill:#b8b4f1;}</style></defs><title>Artboard 104</title><path class="cls-1" d="M120.86,87.7a19,19,0,0,1-19,19,7.58,7.58,0,0,1-.83,0,19,19,0,0,1,0-37.91,7.58,7.58,0,0,1,.83,0,19,19,0,0,1,19,19"/><path class="cls-2" d="M117.35,84.19a19,19,0,0,1-19,19,7.58,7.58,0,0,1-.83,0A18.86,18.86,0,0,1,86.8,99.23,19,19,0,0,1,101,68.75a7.58,7.58,0,0,1,.83,0,18.83,18.83,0,0,1,11.53,3.89,18.86,18.86,0,0,1,3.95,11.58"/><polygon class="cls-3" points="105.36 96.93 100.88 90.5 96.49 96.93 91.56 96.93 98.42 87.51 91.91 78.4 96.78 78.4 101.04 84.41 105.22 78.4 109.86 78.4 103.4 87.35 110.31 96.93 105.36 96.93"/><path class="cls-4" d="M101.24,65.77A19.57,19.57,0,0,1,81.67,85.33c-.28,0-.56,0-.86,0a19.55,19.55,0,0,1,0-39.06,8.43,8.43,0,0,1,.86,0,19.56,19.56,0,0,1,19.57,19.55"/><path class="cls-5" d="M97.21,63.3A19.56,19.56,0,0,1,77.64,82.86a8.33,8.33,0,0,1-.86,0,19.53,19.53,0,0,1-7.25-1.73A19.54,19.54,0,0,1,80.81,46.25a8.43,8.43,0,0,1,.86,0A19.36,19.36,0,0,1,89.83,48a19.48,19.48,0,0,1,7.38,15.3"/><polygon class="cls-6" points="89.95 54.69 81.69 73.79 77.32 73.79 69.08 54.69 73.86 54.69 79.67 68.33 85.56 54.69 89.95 54.69"/><path class="cls-7" d="M81.43,87.85A21.14,21.14,0,0,1,60.3,109a8.24,8.24,0,0,1-.87,0,21.13,21.13,0,0,1,0-42.23,8.24,8.24,0,0,1,.87,0,20.75,20.75,0,0,1,6.63,1.07,21.15,21.15,0,0,1,14.5,20.08"/><path class="cls-8" d="M77.4,86a21.14,21.14,0,0,1-21.14,21.14,8.43,8.43,0,0,1-.87,0,20.88,20.88,0,0,1-5.79-1,21.14,21.14,0,0,1,9.83-39.36,8.24,8.24,0,0,1,.87,0,20.75,20.75,0,0,1,6.63,1.07A21.14,21.14,0,0,1,77.4,86Z"/><polygon class="cls-6" points="73.38 77.06 67.25 97.7 62.59 97.7 58.46 83.73 54.2 97.7 49.57 97.7 43.41 77.06 47.91 77.06 52.14 91.57 56.56 77.06 60.58 77.06 64.86 91.69 69.23 77.06 73.38 77.06"/><path class="cls-9" d="M87.39,81.08,81,86.36l-.14.06-3.45-4.2.1-.11,6.42-5.28a.91.91,0,0,0,.19.38l3,3.61a.87.87,0,0,0,.35.26"/><path class="cls-9" d="M113.83,52.26l.27.32a.94.94,0,0,0-.34-.26Z"/><path class="cls-9" d="M117.24,56.58a.82.82,0,0,0-.18-.39l.26.32Z"/><path class="cls-10" d="M114.1,52.58l3,3.61a.82.82,0,0,1,.18.39.94.94,0,0,1-.31,1L88.39,81a.94.94,0,0,1-1,.12.87.87,0,0,1-.35-.26l-3-3.61a.91.91,0,0,1-.19-.38,1,1,0,0,1,.33-1l28.53-23.42a1,1,0,0,1,1.35.13"/><path class="cls-3" d="M80.86,87c-.17.19-3.84,3.72-6.66,4.86a9.13,9.13,0,0,1-5.3.15c-.4-.16-.72-.35-.39-.5A6.23,6.23,0,0,0,72,87.85c1.19-4.54,4.61-5.71,4.9-5.76a.56.56,0,0,1,.47.07l3.51,4.28a.37.37,0,0,1,0,.51"/><path class="cls-11" d="M80.84,86.44,79,84.22a12.81,12.81,0,0,1-6.8,8,7.23,7.23,0,0,0,2-.45C77,90.67,80.69,87.14,80.86,87A.37.37,0,0,0,80.84,86.44Z"/><path class="cls-12" d="M84.47,77.68l-6,5a.48.48,0,0,0-.06.68.45.45,0,0,0,.37.17.45.45,0,0,0,.31-.11l6-5-.61-.75"/><path class="cls-13" d="M113.15,53.93a.51.51,0,0,0-.31.11L84.47,77.68l.61.75,28.38-23.65a.49.49,0,0,0,.06-.68.5.5,0,0,0-.37-.17"/></svg>