<svg id="Layer_1" data-name="Layer 1" xmlns="http://www.w3.org/2000/svg" viewBox="0 0 160 160"><defs><style>.cls-1{fill:gray;}.cls-2{fill:#f7931e;}.cls-3{fill:#f4af03;}.cls-4{fill:#fff;}.cls-5{fill:#208ed1;}.cls-6{fill:#3fa9f5;}.cls-7{fill:#6258e0;}.cls-8{fill:#f2f2f2;}.cls-9{fill:#e6e6e6;}.cls-10{fill:#c6c6c6;}.cls-11{fill:#b8b4f1;}</style></defs><title>Artboard 105</title><path class="cls-1" d="M126.41,34.23l.36.44a1.13,1.13,0,0,0-.46-.35Z"/><path class="cls-1" d="M131.09,40.16a1.29,1.29,0,0,0-.26-.54l.37.45Z"/><path class="cls-2" d="M100.58,65.77A19.57,19.57,0,0,1,81,85.33c-.28,0-.56,0-.85,0a19.55,19.55,0,0,1,0-39.06,8.14,8.14,0,0,1,.85,0A19.32,19.32,0,0,1,89.16,48a19.53,19.53,0,0,1,11.42,17.77"/><path class="cls-3" d="M96.55,63.3A19.57,19.57,0,0,1,77,82.86a8,8,0,0,1-.85,0,19.58,19.58,0,0,1-7.26-1.73A19.55,19.55,0,0,1,80.15,46.25a8.14,8.14,0,0,1,.85,0A19.32,19.32,0,0,1,89.16,48a19.49,19.49,0,0,1,7.39,15.3"/><polygon class="cls-4" points="82.48 67.02 82.48 73.79 78.06 73.79 78.06 66.97 70.66 54.69 75.36 54.69 80.46 63.17 85.56 54.69 89.9 54.69 82.48 67.02"/><path class="cls-5" d="M80.76,87.85A21.14,21.14,0,0,1,59.63,109a8.14,8.14,0,0,1-.86,0,21.13,21.13,0,0,1,0-42.23,8.14,8.14,0,0,1,.86,0,20.75,20.75,0,0,1,6.63,1.07,21.15,21.15,0,0,1,14.5,20.08"/><path class="cls-6" d="M76.73,86a21.13,21.13,0,0,1-21.14,21.14,8.33,8.33,0,0,1-.86,0,20.88,20.88,0,0,1-5.79-1,21.14,21.14,0,0,1,9.83-39.36,8.14,8.14,0,0,1,.86,0,20.75,20.75,0,0,1,6.63,1.07A21.14,21.14,0,0,1,76.73,86Z"/><polygon class="cls-4" points="66.26 93.81 66.26 97.7 48.22 97.7 48.22 94.6 59.54 80.95 48.45 80.95 48.45 77.06 65.82 77.06 65.82 80.16 54.53 93.81 66.26 93.81"/><path class="cls-1" d="M86.73,81.08l-6.44,5.28-.13.06-3.45-4.2.09-.11,6.43-5.28a.91.91,0,0,0,.19.38l3,3.61a.81.81,0,0,0,.35.26"/><path class="cls-7" d="M113.43,52.58l3,3.61a.84.84,0,0,1,.19.39.94.94,0,0,1-.32,1L87.73,81a.94.94,0,0,1-1,.12.81.81,0,0,1-.35-.26l-3-3.61a.91.91,0,0,1-.19-.38.94.94,0,0,1,.32-1l28.53-23.42a.94.94,0,0,1,1-.13.86.86,0,0,1,.34.26"/><path class="cls-8" d="M80.19,87c-.17.18-3.84,3.71-6.66,4.85a9.09,9.09,0,0,1-5.29.15c-.41-.16-.73-.35-.4-.5,0,0,2.78-1.11,3.45-3.61,1.19-4.54,4.62-5.71,4.9-5.76s.47.07.47.07l3.51,4.28a.37.37,0,0,1,0,.52"/><path class="cls-9" d="M80.17,86.44l-1.82-2.22a12.85,12.85,0,0,1-6.81,8,7.23,7.23,0,0,0,2-.45C76.35,90.67,80,87.14,80.19,87A.36.36,0,0,0,80.17,86.44Z"/><path class="cls-10" d="M83.8,77.68l-6,5a.49.49,0,0,0-.06.68.46.46,0,0,0,.37.17.45.45,0,0,0,.31-.11l6-5-.62-.75"/><path class="cls-11" d="M112.48,53.93a.51.51,0,0,0-.31.11L83.8,77.68l.62.75,28.37-23.65a.48.48,0,0,0-.31-.85"/></svg>