<svg id="Layer_1" data-name="Layer 1" xmlns="http://www.w3.org/2000/svg" viewBox="0 0 160 160"><defs><style>.cls-1{fill:#268cea;}.cls-2{fill:#e0e0e0;}.cls-3{fill:#aaa;}.cls-4{fill:#0e51a7;}.cls-5{fill:#f8bf3b;}.cls-6{fill:#8cc63f;}.cls-7{fill:#525cd8;}.cls-8{fill:#5f8916;}.cls-9{fill:#2e3192;}.cls-10{fill:#b8e25d;}.cls-11{fill:#7eb8fd;}</style></defs><title>Artboard 109</title><path class="cls-1" d="M99.47,94.55A11.83,11.83,0,0,1,93.37,98a24.71,24.71,0,0,1-6.4.6A42.51,42.51,0,0,1,83.72,86.2c0-.43-.1-.89-.14-1.34a65.51,65.51,0,0,1-.22-8.69h.39c.81,0,1.63,0,2.43.06a50.5,50.5,0,0,1,10,1.75c.65.18,1,.3,1,.3a1.28,1.28,0,0,0,.25.09,35.28,35.28,0,0,0-.77,7.45,12,12,0,0,0,.49,3.24A50.72,50.72,0,0,0,99.47,94.55Z"/><path class="cls-1" d="M86.9,98.4l-.79-1.64-11.19.09c-.16-1.56-.31-3.33-.44-5.34,0-.5-.07-1-.08-1.48,0-.08,0-.16,0-.23v-.18c0-1.38,0-2.74,0-4.05.07-3.17.33-6,.58-8.14a24.91,24.91,0,0,1,8.41-1.26c-.12,3.18.31,9.52.35,9.94A42.91,42.91,0,0,0,86.9,98.4Z"/><path class="cls-1" d="M112.28,78c-1.94,7.84-7.36,8.57-9,8.73s-5.17-2.1-3.15-5.26,2.18-5.17,1.78-6a2.57,2.57,0,0,0-3.08-.56,6.84,6.84,0,0,0-1.36,2.34l-1.28.7c-1-.27-2.56-.68-4.5-1a45.34,45.34,0,0,0-5.52-.7c-.8-.06-1.63-.08-2.44-.07h-.39C78.59,76.26,76,77,75,77.44c-.25,2.09-.51,5-.58,8.13,0,1.37,0,2.79,0,4.23-5.77-.1-5.37-7.12-5.29-8.41,0-.48.19-2.07.36-3.89-.2.24-1,1.06-3.19.57-2.51-.56-3.07-4.84.32-10s6.23-12.13,6.72-14.8a51.89,51.89,0,0,0,.4-7.51l33.8-.09.24,13.83c2.27,3.39,6.47,10.67,4.53,18.52"/><path class="cls-2" d="M65.06,111.56c0,.51-3.28.92-7.31.92s-7.31-.41-7.31-.92,3.27-.91,7.31-.91S65.06,111.06,65.06,111.56Z"/><ellipse class="cls-2" cx="79.29" cy="111.08" rx="7.31" ry="0.91"/><path class="cls-2" d="M102.94,111.37c0,.51-3.27.91-7.31.91s-7.31-.4-7.31-.91,3.28-.91,7.31-.91S102.94,110.87,102.94,111.37Z"/><path class="cls-3" d="M83.7,85.94c0,.08,0,.14,0,.16.12,1,.26,2,.42,2.92h0q-.24-1.35-.42-2.82c0-.08,0-.17,0-.26"/><path class="cls-4" d="M97.2,89.05a12.08,12.08,0,0,1-.49-3.14,12.22,12.22,0,0,1-6.56,1.47,23.75,23.75,0,0,1-6.44-1.17v-.1a23,23,0,0,1-4.8.31,32.05,32.05,0,0,1-4.53-.77c0,.58,0,1.15,0,1.74v.67a3.14,3.14,0,0,1,2.57-1,17.92,17.92,0,0,1,7.12,2l.09-.07h0a10.17,10.17,0,0,1,5-1.24h.76a14.58,14.58,0,0,1,7.61,2C97.36,89.55,97.28,89.3,97.2,89.05Z"/><path class="cls-5" d="M87.86,100.73l-.3,4.63a.49.49,0,0,0-.44-.28c-.72,0-1.44,1.92-6,1.34a4.11,4.11,0,0,1-2.88-1.54c-.15-.2-.44-.91-.67-1.39-.16-.33-.25-.82-1-.82a1.58,1.58,0,0,0-.79.32c-.06-.3-.11-.6-.17-.94s-.16-1-.24-1.51c0-.23-.07-.49-.1-.74s0-.26-.06-.4-.07-.52-.1-.8c0-.13,0-.26,0-.4-.06-.43-.11-.88-.16-1.35l11.13-.09c.19.48.38,1,.6,1.44,0,.14.11.27.17.4s.24.54.37.8.13.27.19.4C87.54,100.11,87.69,100.43,87.86,100.73Z"/><path class="cls-5" d="M87.88,100.44c-.33-.61-.65-1.28-1-2Z"/><path class="cls-5" d="M102,100.18a1,1,0,0,0-.53.25c-.48.38-1.94,2.69-4.35,3.49-3.09,1-4.88-.9-5.85-.71-.73.14-.91.31-1,.68a1.55,1.55,0,0,0,0,.23c-.14-.18-.27-.36-.41-.57s-.34-.48-.51-.75-.29-.45-.43-.69-.31-.52-.47-.79l-.07-.12c-.07-.11-.12-.21-.18-.32v0c-.08-.14-.15-.28-.22-.42l-.21-.39-.2-.42c-.17-.35-.34-.69-.5-1.07a24.71,24.71,0,0,0,6.4-.6,11.83,11.83,0,0,0,6.1-3.41c.22.5.45,1,.67,1.44l.19.41c.12.24.23.48.34.71l.19.41a14.75,14.75,0,0,1,1.08,2.56v.1Z"/><path class="cls-5" d="M98.34,77c-.12.41-.21,1.11-.44,1.29a.51.51,0,0,1-.42,0,1.28,1.28,0,0,1-.25-.09s-1.2-.39-3.1-.83l-.41-.1a49.37,49.37,0,0,0-7.54-1.12c-.8,0-1.62-.07-2.43-.06h-.39a33.05,33.05,0,0,0-6.18.62l-.39.09a13.64,13.64,0,0,0-1.84.55,3.88,3.88,0,0,0-.6.28s-.34-.08-.31-.38-.12-1.41.08-1.61a5.5,5.5,0,0,1,1.13-.57,17.58,17.58,0,0,1,2.89-.81,29.36,29.36,0,0,1,5.34-.5h.94a46.86,46.86,0,0,1,12.87,2.06,3.85,3.85,0,0,1,.64.23A.7.7,0,0,1,98.34,77Z"/><path class="cls-6" d="M97.23,78.27s-.37-.12-1-.3a50.5,50.5,0,0,0-10-1.75c-.8,0-1.62-.07-2.43-.06h-.39c-4.77.09-7.92,1-9,1.5-.24,2.09-.47,4.68-.54,7.85l.52.13a32.05,32.05,0,0,0,4.53.77,23,23,0,0,0,4.8-.31v.1a23.75,23.75,0,0,0,6.44,1.17,12.22,12.22,0,0,0,6.56-1.47,4.67,4.67,0,0,0,.42-.25,44.45,44.45,0,0,1,.75-7.32A.76.76,0,0,1,97.23,78.27ZM83.71,86.11a1.23,1.23,0,0,0,0-.17l0,.26Z"/><path class="cls-6" d="M83.72,86.2v-.09a1.23,1.23,0,0,0,0-.17Z"/><path class="cls-6" d="M87.8,107a4.81,4.81,0,0,1-1.49,3.75h-14a2.13,2.13,0,0,1-1.59-1.59c-.24-.92.71-2.51,1.54-3.08,1.08-1,1.41-1.17,2.49-2.16a6.79,6.79,0,0,1,1-.93,1.58,1.58,0,0,1,.79-.32c.72,0,.81.49,1,.82.23.48.52,1.19.67,1.39a4.11,4.11,0,0,0,2.88,1.54c4.57.58,5.29-1.34,6-1.34a.49.49,0,0,1,.44.28A4,4,0,0,1,87.8,107Z"/><path class="cls-1" d="M68.15,101.1a9.61,9.61,0,0,1-.31,2.47h0a6,6,0,0,1-.23.8h0a10.43,10.43,0,0,1-9.92,7.17,10.55,10.55,0,0,1-1.7-.13,5.67,5.67,0,0,1-.69-.15,10.39,10.39,0,0,1-7.82-7.93h0c-.06-.22-.1-.44-.14-.66a10.45,10.45,0,0,1,5.59-10.89h0a6.25,6.25,0,0,1,.64-.31,10.49,10.49,0,0,1,10.63,1.43l.35.29c.35.32.69.66,1,1l.29.35A10.48,10.48,0,0,1,68.15,101.1Z"/><path class="cls-7" d="M64.56,93.2a8.12,8.12,0,0,1-2.63,2.31l-.44.24a23.63,23.63,0,0,1-4.89,1.64l-1.71.45a11.66,11.66,0,0,0-7.41,5.5c-.06-.22-.1-.44-.14-.66a12.15,12.15,0,0,1,7.43-5.27q.84-.24,1.71-.45a25.55,25.55,0,0,0,4.6-1.51,3.09,3.09,0,0,0,.44-.24,7.68,7.68,0,0,0,2.69-2.3Z"/><path class="cls-7" d="M65.86,94.56a13.1,13.1,0,0,0-1.92,2.74l-.21.42a39,39,0,0,0-1.78,4.5c-1.25,3.58-2.55,7.27-6,9.21a5.67,5.67,0,0,1-.69-.15c3.62-1.75,4.89-5.38,6.22-9.22a37.89,37.89,0,0,1,1.87-4.67c.07-.15.15-.29.22-.43a12.4,12.4,0,0,1,2-2.75Z"/><path class="cls-7" d="M67.84,103.57h0a6,6,0,0,1-.23.8,15.47,15.47,0,0,0-3.88-6.66l-.34-.33a15.52,15.52,0,0,0-1.9-1.64c-.14-.11-.27-.21-.41-.3a22.6,22.6,0,0,0-8.14-3.66,6.25,6.25,0,0,1,.64-.31,23,23,0,0,1,7.94,3.73c.14.09.27.19.41.3A19.41,19.41,0,0,1,63.61,97c.12.11.22.22.33.34A16,16,0,0,1,67.84,103.57Z"/><path class="cls-6" d="M99.14,110.28c-2.88,2.41-9,1.36-10.15.66-.77-.49-1.36-1.18-.59-2.15a18.85,18.85,0,0,0,2.07-2.89,1.46,1.46,0,0,0,0-1h0a2.42,2.42,0,0,0-.27-.56l0-.19a1.55,1.55,0,0,1,0-.23c.08-.37.26-.54,1-.68,1-.19,2.76,1.73,5.85.71,2.41-.8,3.87-3.11,4.35-3.49a1,1,0,0,1,.53-.25c.52-.08,1.14.42,1.28,3C103.42,106.7,102,107.89,99.14,110.28Z"/><path class="cls-7" d="M74.4,90A6,6,0,0,1,72,89.44a5.39,5.39,0,0,1-2.83-3.69,11.4,11.4,0,0,1-.3-2.82A53.52,53.52,0,0,1,70.6,71.86l.4.1s-.11.4-.27,1.06-.37,1.61-.58,2.69a40.82,40.82,0,0,0-.83,7.22,11.47,11.47,0,0,0,.27,2.72,5,5,0,0,0,2.63,3.42,5.39,5.39,0,0,0,2.16.55v.18C74.39,89.87,74.4,90,74.4,90Z"/><path class="cls-8" d="M83,84.52l.24,1.66.4-.06c-.08-.55-.16-1.1-.23-1.65l-.4,0Z"/><path class="cls-5" d="M77.21,77.21a4.1,4.1,0,0,1-.69,2.3,4,4,0,0,1-1.67,1.42l-.17-.36a3.88,3.88,0,0,0,1.51-1.28,3.69,3.69,0,0,0,.61-2.08,3.12,3.12,0,0,0,0-.33l.39-.09A2.26,2.26,0,0,1,77.21,77.21Z"/><path class="cls-5" d="M95.82,82.15l-.18.36a4,4,0,0,1-2.21-3.6,4.59,4.59,0,0,1,.29-1.57l.41.1a3.71,3.71,0,0,0-.29,1.47,3.5,3.5,0,0,0,.25,1.33A3.72,3.72,0,0,0,95.82,82.15Z"/><path class="cls-9" d="M100.33,96.4a15.77,15.77,0,0,1-5.12,3,15.94,15.94,0,0,1-5.16.86,16.78,16.78,0,0,1-2.07-.13c-.09-.16-.17-.33-.24-.49a15.61,15.61,0,0,0,7.32-.66,15.72,15.72,0,0,0,5.08-3Z"/><path class="cls-9" d="M100.86,97.52a16.51,16.51,0,0,1-5.23,3,16.23,16.23,0,0,1-5.36.91,15.38,15.38,0,0,1-1.62-.08c-.09-.15-.17-.32-.26-.48a16,16,0,0,0,1.88.11,15.74,15.74,0,0,0,5.21-.88,16.28,16.28,0,0,0,5.19-3Z"/><path class="cls-7" d="M90.42,104.87a31.36,31.36,0,0,1-2.56-4.14c-.17-.3-.32-.62-.48-.93-.06-.13-.13-.26-.19-.4s-.25-.53-.37-.8-.12-.26-.17-.4c-.22-.48-.41-1-.6-1.44A50,50,0,0,1,83.29,86.3v-.13l.41-.06a46.82,46.82,0,0,0,4,13.49c.07.16.15.33.24.49s.27.52.41.78.17.33.26.48a28.45,28.45,0,0,0,1.58,2.54,3.16,3.16,0,0,0-.08.42A2.42,2.42,0,0,1,90.42,104.87Z"/><path class="cls-9" d="M86.82,98.6H75.13c0-.13,0-.26,0-.4H86.64C86.69,98.34,86.76,98.47,86.82,98.6Z"/><path class="cls-9" d="M87.38,99.8H75.29c0-.13,0-.26-.06-.4h12Z"/><polyline class="cls-9" points="71.8 106.04 73.96 106.43 74.03 106.03 71.87 105.64"/><polyline class="cls-9" points="89.88 106.62 92.04 107 92.11 106.6 89.94 106.22"/><polyline class="cls-9" points="89.06 107.44 91.22 107.82 91.29 107.42 89.13 107.04"/><path class="cls-9" d="M82.52,79.58c0-.1,0-.23,0-.38a5.36,5.36,0,0,1,1.43-4,2.31,2.31,0,0,1,1.5-.77h.08a.72.72,0,0,1,.47.19.57.57,0,0,1,.19.46.88.88,0,0,1,0,.21.59.59,0,0,1-.33.26,2.19,2.19,0,0,1-.8.16,1.75,1.75,0,0,1-.4,0,2.44,2.44,0,0,1-1.17-.8,2.54,2.54,0,0,0-1.39-.84,1.37,1.37,0,0,0-.34,0,1,1,0,0,0-.72.25.81.81,0,0,0-.28.48,2.29,2.29,0,0,0,0,.25,1,1,0,0,0,.5.88,1.86,1.86,0,0,0,.92.21,4.06,4.06,0,0,0,1.18-.16,4.4,4.4,0,0,1,.49-.15l.09,0a1.36,1.36,0,0,1,.4.63,4,4,0,0,1,.24,1.46,7.42,7.42,0,0,1-.24,1.78l.39.1a7.67,7.67,0,0,0,.25-1.88,4.6,4.6,0,0,0-.26-1.6,1.68,1.68,0,0,0-.55-.82.54.54,0,0,0-.32-.11,2.63,2.63,0,0,0-.61.16,3.28,3.28,0,0,1-1.06.15,1.5,1.5,0,0,1-.72-.16.57.57,0,0,1-.3-.53l0-.18a.43.43,0,0,1,.14-.25.74.74,0,0,1,.46-.14l.27,0a2.09,2.09,0,0,1,1.17.73,2.88,2.88,0,0,0,1.36.9,2.14,2.14,0,0,0,.5.06,2.42,2.42,0,0,0,1-.2.92.92,0,0,0,.57-.55,1.5,1.5,0,0,0,0-.29,1,1,0,0,0-.31-.76,1.17,1.17,0,0,0-.72-.3h-.11a2.8,2.8,0,0,0-1.77.87A5.75,5.75,0,0,0,82.1,79.2c0,.16,0,.3,0,.4Z"/><polyline class="cls-9" points="72.62 105.22 74.78 105.61 74.85 105.21 72.69 104.83"/><path class="cls-10" d="M74.75,77.42s-.58,6.2-.58,8v.13h.4v-.12c0-.88.15-2.89.29-4.67s.29-3.32.29-3.33l-.4,0Z"/><path class="cls-11" d="M76.28,87.81a.4.4,0,0,0-.4.39,39.55,39.55,0,0,0,.24,5.51,2.91,2.91,0,0,1,.77-.44,41.92,41.92,0,0,1-.21-5,.4.4,0,0,0-.38-.43h0"/></svg>