<svg id="Layer_1" data-name="Layer 1" xmlns="http://www.w3.org/2000/svg" viewBox="0 0 160 160"><defs><style>.cls-1{fill:#dedede;}.cls-2{fill:#f47e2f;}.cls-3{fill:#b75c35;}.cls-4{fill:#302f34;}.cls-5{fill:#f68045;}.cls-6{fill:#fff;}</style></defs><title>Artboard 111</title><path class="cls-1" d="M62.39,93.06v-4.3L64.8,88l31.1-.2-.38,4.81-33.13.5M59.92,44.69l-2.33,61.85,3.34,5.94,2-15.24,32.88.25-.62,9.05,3.47,5.94,1.64-67.78H59.92"/><path class="cls-2" d="M60.93,42.67v69.81h3.79v-17h33.9v17h3.79V42.67ZM98.62,91.74H64.72V84.65h33.9Z"/><path class="cls-3" d="M98.62,84.78v2.66h3.79V84.78ZM60.93,87.44h3.79V84.78H60.93Z"/><rect class="cls-4" x="64.47" y="45.95" width="34.27" height="35.16"/><rect class="cls-5" x="64.72" y="84.65" width="33.89" height="0.13"/><path class="cls-6" d="M78.72,63.48l-.16.09-.76,0a.19.19,0,0,1-.2-.14l-.89-3.88-2.61.07c-.14.66-.29,1.32-.45,2s-.3,1.3-.44,2a.21.21,0,0,1-.2.15h-.74l-.15-.07,0-.17,2.77-11.8a.18.18,0,0,1,.19-.15l.71,0a.18.18,0,0,1,.19.14l2.8,11.66ZM76.09,57c-.13-.5-.24-1-.35-1.54l-.18-.84-.18-.91c-.06.32-.12.62-.17.91s-.11.59-.17.88l-.69,3.09,2.09-.06C76.33,58,76.21,57.52,76.09,57Z"/><path class="cls-6" d="M84.67,61.32a3.07,3.07,0,0,1-.64,1.1,2.77,2.77,0,0,1-1.26.85,4.84,4.84,0,0,1-1.52.28c-.45,0-.8,0-1,0l-.54-.06a.17.17,0,0,1-.15-.19V51.8l0-.12.08-.08a5.63,5.63,0,0,1,.76-.19,5.81,5.81,0,0,1,.87-.09,3.19,3.19,0,0,1,2.48.8,2.37,2.37,0,0,1,.56.87,3.28,3.28,0,0,1,.2,1.18,2.82,2.82,0,0,1-.43,1.57A3.43,3.43,0,0,1,83,56.85,2.69,2.69,0,0,1,84.4,58a3.63,3.63,0,0,1,.5,2A4.16,4.16,0,0,1,84.67,61.32ZM83.26,53.5a1.48,1.48,0,0,0-.35-.61,1.71,1.71,0,0,0-.64-.4,3,3,0,0,0-1-.13h-.34l-.25,0v4.06h.5a2.37,2.37,0,0,0,.83-.17,2.3,2.3,0,0,0,.7-.46,2.38,2.38,0,0,0,.48-.69,2.05,2.05,0,0,0,.18-.87A2.7,2.7,0,0,0,83.26,53.5Zm.25,5.33a2.37,2.37,0,0,0-.57-.81,2.19,2.19,0,0,0-.83-.46,2.9,2.9,0,0,0-1-.11l-.45,0v5l.27,0h.32a2.51,2.51,0,0,0,1.81-.69A2.59,2.59,0,0,0,83.73,60,2.73,2.73,0,0,0,83.51,58.83Z"/><path class="cls-6" d="M91,63a3.39,3.39,0,0,1-1.72.4,3.13,3.13,0,0,1-1.42-.27,3,3,0,0,1-1.22-1,5.73,5.73,0,0,1-.85-1.84,10.93,10.93,0,0,1-.32-2.85,10.63,10.63,0,0,1,.38-3.06,6.12,6.12,0,0,1,1-2,3.59,3.59,0,0,1,1.3-1,3.42,3.42,0,0,1,1.33-.33,4,4,0,0,1,.89.07,1.53,1.53,0,0,1,.58.22l.07.1v.1l-.23.67-.11.12h-.16a2.37,2.37,0,0,0-.45-.15,2.79,2.79,0,0,0-.72-.06,1.92,1.92,0,0,0-.9.28,2.62,2.62,0,0,0-.87.86,5.29,5.29,0,0,0-.66,1.58,9.31,9.31,0,0,0-.26,2.43,10.62,10.62,0,0,0,.23,2.47,4.68,4.68,0,0,0,.62,1.55,2.12,2.12,0,0,0,.89.81,2.16,2.16,0,0,0,1,.22,2.5,2.5,0,0,0,.72-.1,1.79,1.79,0,0,0,.5-.22h.16l.09.13.22.64A.16.16,0,0,1,91,63Z"/><polyline class="cls-6" points="71.81 66.57 72.56 66.57 72.56 66.06 71.81 66.06"/><path class="cls-6" d="M87.16,66.57h1.62v-.51H87.16Zm-3.25,0h1.62v-.51H83.91Zm-3.24,0h1.62v-.51H80.67Zm-3.24,0h1.62v-.51H77.43Zm-3.24,0h1.62v-.51H74.19Z"/><polyline class="cls-6" points="90.4 66.57 91.16 66.57 91.16 66.06 90.4 66.06"/></svg>