<svg id="Layer_1" data-name="Layer 1" xmlns="http://www.w3.org/2000/svg" viewBox="0 0 160 160"><defs><style>.cls-1{fill:#f47e2f;}.cls-2{fill:#fefefe;}.cls-3{fill:#282f39;}.cls-4{fill:#83574d;}.cls-5{fill:#fd4a46;}.cls-6{fill:#6258e0;}</style></defs><title>Artboard 113</title><path class="cls-1" d="M119.54,52.57v7.87a17.86,17.86,0,0,1-2.63,9.35A18.94,18.94,0,0,1,115.28,72,18.66,18.66,0,0,1,110,76.33l3.24,6.86a2.69,2.69,0,0,1-1.28,3.58,2.64,2.64,0,0,1-1.15.26,2.7,2.7,0,0,1-2.44-1.54l-3.49-7.39a18.27,18.27,0,0,1-3.25.29H51c-.23,0-.47,0-.7,0l-6.06,6.16a2.7,2.7,0,0,1-3.81,0,2.7,2.7,0,0,1,0-3.81l4.88-5A7.59,7.59,0,0,1,44,68.16a14.56,14.56,0,0,1-2.22-10.42,2.69,2.69,0,1,1,5.3.92A9.42,9.42,0,0,0,47.77,64,7.48,7.48,0,0,1,51,63.25h50.54a2.81,2.81,0,0,0,2.82-2.81V52.57A7.57,7.57,0,0,1,112,45a8.25,8.25,0,0,1,1.22.1,7.57,7.57,0,0,1,6.35,7.47Z"/><path class="cls-2" d="M113.82,60.15h-2.45a3.43,3.43,0,1,1,0-6.85h2.45a3.43,3.43,0,0,1,0,6.85Z"/><path class="cls-3" d="M112.61,54.44c.39,0,.77,0,1.16,0,.18,0,.23.06.24.24a1.37,1.37,0,0,1-1.37,1.47,1.43,1.43,0,0,1-1.46-1.44c0-.22.08-.27.28-.27C111.84,54.45,112.23,54.44,112.61,54.44Z"/><path class="cls-3" d="M109.3,56.26v.15a2.72,2.72,0,0,0,.77,2,3,3,0,0,0,1.93.74l.35,0a4.11,4.11,0,0,0,.69-.06.52.52,0,0,0,.42-.6.51.51,0,0,0-.6-.43,3.29,3.29,0,0,1-.51,0h-.26a2,2,0,0,1-1.29-.45,1.7,1.7,0,0,1-.46-1.21v-.09a.51.51,0,0,0-.49-.55.52.52,0,0,0-.55.49Z"/><path class="cls-3" d="M111.48,51.42l0,.22a1.91,1.91,0,0,1-1.62,0l0-.22a.84.84,0,0,1,1.68,0Z"/><path class="cls-3" d="M115.53,51.42l0,.22a1.91,1.91,0,0,1-1.62,0l0-.22a.84.84,0,0,1,1.68,0Z"/><path class="cls-4" d="M119.58,45.91a9.66,9.66,0,0,1-.58,2.31,7.27,7.27,0,0,1-.34.81,7.59,7.59,0,0,0-5.47-3.93,3.62,3.62,0,0,0-.13-.47,3,3,0,0,0-.38-.71,3.26,3.26,0,0,0-1.21-1,3.63,3.63,0,0,0-1.54-.37,4.08,4.08,0,0,1,.09-8.15,4.44,4.44,0,0,1,.91.12l.47.11a11.39,11.39,0,0,1,4.54,2.28,10.45,10.45,0,0,1,3,4.08A9.82,9.82,0,0,1,119.58,45.91Z"/><path class="cls-4" d="M105.57,49.78a8.58,8.58,0,0,0-.82-1.17,7.33,7.33,0,0,0-1-1,6.08,6.08,0,0,0-2.27-1.17c-.09,0-.2,0-.29-.06l-.3-.06-.29,0-.29,0a5.38,5.38,0,0,0-1.14.08,5.18,5.18,0,0,0-1.09.3,4.69,4.69,0,0,0-.95.48,4.2,4.2,0,1,1-4.68-7A4,4,0,0,1,94,39.53l.71-.14a13.87,13.87,0,0,1,2.54-.23,13,13,0,0,1,2.49.26,12,12,0,0,1,4.48,1.91,11.4,11.4,0,0,1,3.14,3.37,11.1,11.1,0,0,1,1,2,10.92,10.92,0,0,1,.58,2.07,1.74,1.74,0,0,1-3.21,1.19Z"/><path class="cls-4" d="M124.85,75.72a2.69,2.69,0,0,1-2.51,1.73,2.77,2.77,0,0,1-1-.18l-8.18-3.15A17.85,17.85,0,0,0,115.28,72a18.94,18.94,0,0,0,1.63-2.25l6.4,2.45A2.7,2.7,0,0,1,124.85,75.72Z"/><path class="cls-4" d="M59.36,78.39l-3.12,6.3a2.7,2.7,0,0,1-2.42,1.5,2.8,2.8,0,0,1-1.19-.28,2.7,2.7,0,0,1-1.22-3.61l1.94-3.91Z"/><rect class="cls-5" x="34.4" y="86.24" width="25.38" height="25.38" rx="1.96" ry="1.96"/><rect class="cls-6" x="100.21" y="86.24" width="25.38" height="25.38" rx="1.57" ry="1.57"/></svg>