<svg id="Layer_1" data-name="Layer 1" xmlns="http://www.w3.org/2000/svg" viewBox="0 0 160 160"><defs><style>.cls-1{fill:#e6e6e6;}.cls-2{fill:#ccc;}.cls-3{fill:#ffd31e;}.cls-4{fill:#fbb03b;}.cls-5{fill:#4d4d4d;}.cls-6{fill:#f7931e;}.cls-7{fill:#fff;}.cls-8{fill:#e59e00;}</style></defs><title>Artboard 115</title><path class="cls-1" d="M104.88,108.35c0,2.28-9.57,4.13-21.38,4.13s-21.38-1.85-21.38-4.13,9.57-4.14,21.38-4.14S104.88,106.06,104.88,108.35Z"/><ellipse class="cls-2" cx="83.15" cy="107.85" rx="6.67" ry="1.69"/><polygon class="cls-3" points="99.2 88.91 99.78 103.61 61.14 101.18 61.17 74.51 97.69 69.72 98.46 79.55 105.72 72.75 107.19 91.39 99.2 88.91"/><path class="cls-4" d="M93.78,44.22a9.76,9.76,0,0,1,1.08.05A11.21,11.21,0,0,1,105,56.5a10.82,10.82,0,0,1-.66,2.87,11.21,11.21,0,0,1-10.49,7.28,9.87,9.87,0,0,1-1.08-.05,11.22,11.22,0,0,1,1-22.38m0-2.19h0a13.24,13.24,0,0,0-8.15,2.78,13.4,13.4,0,0,0,6.9,24c.42,0,.85.06,1.28.06a13.44,13.44,0,0,0,12.54-8.7,13.08,13.08,0,0,0,.79-3.43A13.43,13.43,0,0,0,95.07,42.09Q94.43,42,93.78,42Z"/><path class="cls-5" d="M100.58,56.69a6.6,6.6,0,1,1-6-7.2A6.6,6.6,0,0,1,100.58,56.69Z"/><path class="cls-5" d="M70.19,60.25a5.92,5.92,0,1,1-5.33-6.46A5.92,5.92,0,0,1,70.19,60.25Z"/><path class="cls-4" d="M64.28,49.93a8.83,8.83,0,0,1,.89,0,9.64,9.64,0,0,1,1,.14A9.31,9.31,0,0,1,64.3,68.54c-.29,0-.59,0-.89,0a9.31,9.31,0,0,1,.87-18.57m0-2.19h0A11.5,11.5,0,0,0,63.2,70.68c.37,0,.74,0,1.1,0A11.5,11.5,0,0,0,66.56,48c-.39-.07-.78-.13-1.18-.17S64.65,47.74,64.28,47.74Z"/><polygon class="cls-6" points="100.51 103.61 61.87 100.69 61.17 74.51 100.51 103.61"/><path class="cls-5" d="M93.93,85.67a8.65,8.65,0,0,1-1.2,3.78,8.33,8.33,0,0,1-4.11,3.33,16.29,16.29,0,0,1-6.13,1.07,25.1,25.1,0,0,1-7.06-1.06,18.57,18.57,0,0,1-5.67-2.69,1.39,1.39,0,1,0-1.66,2.22,21.35,21.35,0,0,0,6.54,3.13,27.48,27.48,0,0,0,7.85,1.18,17.24,17.24,0,0,0,9.28-2.37A10.68,10.68,0,0,0,95.1,90.9a11.48,11.48,0,0,0,1.59-5,1.39,1.39,0,1,0-2.76-.26Z"/><path class="cls-7" d="M64.84,59.56A1.82,1.82,0,1,1,63,57.74,1.82,1.82,0,0,1,64.84,59.56Z"/><path class="cls-7" d="M93.67,54.82A1.82,1.82,0,1,1,91.85,53,1.81,1.81,0,0,1,93.67,54.82Z"/><path class="cls-6" d="M86.82,76C81.32,76.61,76,78.11,70.4,78c.71,3,5.26,5,10.53,4.42,5.53-.56,9.75-3.65,9.42-6.91a3.56,3.56,0,0,0-.13-.65A9.13,9.13,0,0,1,86.82,76Z"/><path class="cls-8" d="M99.2,88.9l.86,10.85h-.35l-2-30,.77,9.83,2.25-2.1a10.57,10.57,0,0,0-.25,2.32c0,4.33,2.56,8.23,6.68,11l0,.63Z"/></svg>