<svg id="Layer_1" data-name="Layer 1" xmlns="http://www.w3.org/2000/svg" viewBox="0 0 160 160"><defs><style>.cls-1{fill:#fd4a46;}.cls-2{fill:#fbd05a;}.cls-3{fill:#da1a1f;}.cls-4{fill:#c6434e;}.cls-5{fill:#fff;}.cls-6{fill:#d28432;}.cls-7{fill:#f2f2f2;}.cls-8{fill:#ccc;}.cls-9{fill:#ffd31e;}.cls-10{fill:#6d6aef;}.cls-11{fill:#ff66a1;}</style></defs><title>Artboard 116</title><path class="cls-1" d="M99.83,99.9v4.4c0,4.51-8.94,8.18-20,8.18s-20-3.67-20-8.18V99.9c0,4.52,9,8.18,20,8.18S99.83,104.42,99.83,99.9Z"/><path class="cls-2" d="M98.68,99.63a3.31,3.31,0,0,1-.63,1.87,3.59,3.59,0,0,1-.25.33c-2.41,3-9.54,5.09-18,5.09s-15.54-2.14-17.95-5.08h0a4.64,4.64,0,0,1-.6-.94A3.2,3.2,0,0,1,61,99.63c0-.13,0-.25,0-.38v0c.22-1.52,1.65-2.91,3.92-4,3.44-1.72,8.83-2.82,14.88-2.82,7.56,0,14.08,1.72,17.08,4.21A6.4,6.4,0,0,1,98,97.73,3.39,3.39,0,0,1,98.68,99.63Z"/><path class="cls-3" d="M61.83,77.14a3.35,3.35,0,0,0-.78,1.61c.22-1.52,1.65-2.91,3.92-4l.06,0a1.83,1.83,0,0,1-.42.26A9.08,9.08,0,0,0,61.83,77.14Z"/><path class="cls-3" d="M96.91,76.13l0,0A6.4,6.4,0,0,1,98,77.28,8.18,8.18,0,0,0,96.91,76.13Z"/><path class="cls-3" d="M98.05,81.05c-2.13,3.12-9.47,5.42-18.2,5.42-9.29,0-17-2.6-18.55-6a3.35,3.35,0,0,0,.79,1c.19.19.38.38.58.56a14.38,14.38,0,0,0,4.78,2.57,35.24,35.24,0,0,0,9.27,1.74,47.5,47.5,0,0,0,10.18-.42,29.08,29.08,0,0,0,6.16-1.6,13.18,13.18,0,0,0,4.31-2.56.55.55,0,0,0,.3-.3l.14-.18A1.26,1.26,0,0,0,98.05,81.05Z"/><polygon class="cls-3" points="98.92 76.82 98.91 76.82 98.91 76.82 98.92 76.82"/><path class="cls-4" d="M99,86h0Z"/><path class="cls-4" d="M98.94,85.19h0Z"/><path class="cls-4" d="M98.46,85.28s0,.09-.08.08S98.39,85.26,98.46,85.28Z"/><path class="cls-2" d="M93.26,74.14a10.78,10.78,0,0,1-1.37.53l-.4.13.08-.18A19.57,19.57,0,0,0,88,73.71c-1-.21-2.09-.34-3.15-.46-1.27-.13-2.54-.23-3.82-.27h-1l-1.26,0a44.63,44.63,0,0,0-5.77.5c-1.33.23-2.64.48-3.94.8-.3.07-.54.3-.85.3l-.1,0a1,1,0,0,1-.58-.27v0c-.3,0-.53-.16-.8-.24A18.36,18.36,0,0,1,70,73a41.81,41.81,0,0,1,7.65-1.06,46.89,46.89,0,0,1,6.16.11,33.77,33.77,0,0,1,9.25,2Z"/><path class="cls-5" d="M79.85,73h.23l-1.26,0a44.63,44.63,0,0,0-5.77.5c-1.33.23-2.64.48-3.94.8-.3.07-.54.3-.85.3l-.1,0A40.3,40.3,0,0,1,79.85,73Z"/><path class="cls-5" d="M91.49,74.8l.08-.18A19.57,19.57,0,0,0,88,73.71c-1-.21-2.09-.34-3.15-.46-1.27-.13-2.54-.23-3.82-.27a38.28,38.28,0,0,1,10.83,1.69Z"/><path class="cls-2" d="M66.34,75.21c-.51.23-1,.52-1.52.75a3.12,3.12,0,0,0-.76.48,1,1,0,0,1-.7.38c-.22,0-.33.27-.48.42a4.74,4.74,0,0,0-1.15,1.52A2.5,2.5,0,0,0,62,81.14c.06.11.14.19.09.32a3,3,0,0,1-.26-4.32A9.08,9.08,0,0,1,64.61,75a1.83,1.83,0,0,0,.42-.26A6,6,0,0,1,66.34,75.21Z"/><path class="cls-2" d="M97.9,81.2a2.85,2.85,0,0,0,.31-1.29v-.22a2.35,2.35,0,0,0-.66-1.64l-.12-.15-.11-.14-.14-.16L97,77.46,97,77.39l-.08-.07-.07-.07-.08-.07a8.86,8.86,0,0,0-.8-.62l-.1-.06c-.17-.12-.35-.23-.54-.34l-.1-.06-.44-.24,0,0h0l-.59-.29h0l-.23-.11h0l-.28-.12A5.31,5.31,0,0,1,95,74.89l.6.32.34.2a2,2,0,0,0,.59.4l.4.32a6.12,6.12,0,0,1,1.53,1.79A2.89,2.89,0,0,1,97.9,81.2Z"/><path class="cls-4" d="M99,77.21l0,.17c-.06-.08,0-.12,0-.17Z"/><path class="cls-3" d="M96.51,75.81a2,2,0,0,1-.59-.4,2.18,2.18,0,0,1,.36-.26c.17-.08.29,0,.38.17S96.59,75.65,96.51,75.81Z"/><polygon class="cls-6" points="67.58 74.28 67.59 74.25 67.58 74.28 67.58 74.28"/><path class="cls-3" d="M99.83,79.45c0,4.52-8.94,8.18-20,8.18s-20-3.66-20-8.18a3.83,3.83,0,0,1,.59-2c2.16-3.56,10-6.2,19.4-6.2,8.9,0,16.45,2.38,19,5.68A4,4,0,0,1,99.83,79.45Z"/><path class="cls-1" d="M99.83,79.45v4.4a4.09,4.09,0,0,1-1.08,2.66C96.06,89.72,88.61,92,79.85,92S63.78,89.76,61,86.6a4.2,4.2,0,0,1-1.16-2.75v-4.4c0,4.52,9,8.18,20,8.18S99.83,84,99.83,79.45Z"/><path class="cls-2" d="M98.68,79.18a3.31,3.31,0,0,1-.63,1.87,3.59,3.59,0,0,1-.25.33c-2.41,3-9.54,5.09-18,5.09S64.31,84.33,61.9,81.39h0a4.64,4.64,0,0,1-.6-.94A3.2,3.2,0,0,1,61,79.18c0-.13,0-.25,0-.38v0c.22-1.52,1.65-2.91,3.92-4,3.44-1.72,8.83-2.82,14.88-2.82,7.56,0,14.08,1.72,17.08,4.21A6.4,6.4,0,0,1,98,77.28,3.39,3.39,0,0,1,98.68,79.18Z"/><path class="cls-7" d="M98.21,79.91a2.92,2.92,0,0,1-.41,1.47c-2.41,3-9.54,5.09-18,5.09S64.31,84.33,61.9,81.39h0a2.89,2.89,0,0,1-.42-1.48c0-3.83,8.22-6.94,18.37-6.94S98.21,76.08,98.21,79.91Z"/><path class="cls-8" d="M84.36,79.77a.7.7,0,0,1-.1.36c-.59.72-2.34,1.25-4.41,1.25s-3.82-.53-4.41-1.25h0a.72.72,0,0,1-.11-.36c0-1,2-1.71,4.52-1.71S84.36,78.82,84.36,79.77Z"/><path class="cls-6" d="M78.62,83c-.37.52-1.32.49-2.12-.08a2.13,2.13,0,0,1-.91-1.28v0a.55.55,0,0,0-.26-.36c-1.71-1.3-29.93-22.73-30.37-23-.26-.19-.33-.37-.1-.63s.37-.46.54-.7a.28.28,0,0,1,.46,0c1.63,1.28,27.75,21.74,29.48,23.07a3.92,3.92,0,0,0,1,.69h0a2.24,2.24,0,0,1,1.47.44C78.64,81.56,79,82.44,78.62,83Z"/><path class="cls-6" d="M114.93,58.37c-1.23.71-30.25,17.39-32.72,18.79a1.9,1.9,0,0,0-.64.51,2.19,2.19,0,0,1-1,1.12c-.83.52-1.78.5-2.12-.05s.07-1.4.9-1.92a2,2,0,0,1,1.71-.28,1.62,1.62,0,0,0,.41-.22c2-1.21,30-17.79,32.7-19.41.27-.16.43-.14.57.15s.23.4.34.6C115.37,58.11,115.37,58.12,114.93,58.37Z"/><path class="cls-3" d="M99.83,99.9a4.2,4.2,0,0,1-1.23,2.83c-2.82,3.12-10.15,5.35-18.75,5.35S63.78,105.81,61,102.65a4.2,4.2,0,0,1-1.16-2.75,3.8,3.8,0,0,1,.59-2,5.65,5.65,0,0,1,.57-.77v3.21a2.89,2.89,0,0,0,.42,1.48h0c2.47,3,9.76,5.09,18.37,5.09s15.9-2.14,18.37-5.09a2.89,2.89,0,0,0,.42-1.48v-3.3c.1.11.19.22.28.34A4,4,0,0,1,99.83,99.9Z"/><path class="cls-9" d="M98.6,86.68v13.68a2.89,2.89,0,0,1-.42,1.48l-.22.24c-1.47,1.56-4.29,2.88-7.94,3.74l-.52.12a45.48,45.48,0,0,1-9.69,1q-1.61,0-3.15-.09l-.64,0a35.56,35.56,0,0,1-10-2.05l-.37-.15a10.88,10.88,0,0,1-4.24-2.75h0a3.26,3.26,0,0,1-.38-1,2.7,2.7,0,0,1,0-.49V86.6a8.17,8.17,0,0,0,1.46,1.3,14.74,14.74,0,0,0,2,1.19,23.26,23.26,0,0,0,3.86,1.45,35.86,35.86,0,0,0,4.74,1c.93.13,1.88.24,2.87.32,1.25.1,2.55.16,3.88.16h.69c1.09,0,2.15-.06,3.19-.15.74-.06,1.47-.13,2.18-.23a36.19,36.19,0,0,0,5.47-1.11,22.76,22.76,0,0,0,4.27-1.68A10.5,10.5,0,0,0,98.6,86.68Z"/><path class="cls-10" d="M64.5,89.09l1.18,15.5a10.88,10.88,0,0,1-4.24-2.75h0a3.26,3.26,0,0,1-.38-1L62.48,87.9A14.74,14.74,0,0,0,64.5,89.09Z"/><path class="cls-1" d="M73.1,91.55,76,106.79a35.56,35.56,0,0,1-10-2.05l2.31-14.2A35.86,35.86,0,0,0,73.1,91.55Z"/><path class="cls-11" d="M85.91,91.64l3.59,14.3a45.48,45.48,0,0,1-9.69,1q-1.61,0-3.15-.09L80.54,92c1.09,0,2.15-.06,3.19-.15C84.47,91.81,85.2,91.74,85.91,91.64Z"/><path class="cls-10" d="M98,102.08c-1.47,1.56-4.29,2.88-7.94,3.74l1.36-15.29a22.76,22.76,0,0,0,4.27-1.68Z"/></svg>