<svg id="Layer_1" data-name="Layer 1" xmlns="http://www.w3.org/2000/svg" viewBox="0 0 160 160"><defs><style>.cls-1{fill:#fcee21;}.cls-2{fill:#d9e021;}.cls-3{fill:#e6e6e6;}.cls-4{fill:#f7931e;}.cls-5{fill:#ffc002;}.cls-6{fill:#39b54a;}.cls-7{fill:#ffd31e;}.cls-8{fill:#4bc467;}.cls-9{fill:#fff;}.cls-10{fill:#ff931e;}.cls-11{fill:#333;}.cls-12{fill:#009245;}</style></defs><title>Artboard 117</title><path class="cls-1" d="M80.45,66.17,72.17,50.43,59.8,43l1.3-2.17,12.67,7.6a1.19,1.19,0,0,1,.47.5l8.45,16Z"/><path class="cls-2" d="M71.32,49.28c.31-.59.65-1.15,1-1.7L61.1,40.84,59.8,43,70.94,49.7Z"/><path class="cls-3" d="M64.73,43,61.1,40.84,59.8,43l3.5,2.1C63.8,44.43,64.28,43.73,64.73,43Z"/><path class="cls-4" d="M68.93,45.54l-1.63-1c-.45.71-.93,1.41-1.44,2.09l1.75,1.05Q68.29,46.62,68.93,45.54Z"/><path class="cls-5" d="M74.24,48.94a1.19,1.19,0,0,0-.47-.5L71.5,47.08c-.44.72-.88,1.44-1.33,2.16l2,1.19,2.76,5.25c.77-.35,1.54-.7,2.3-1.07Z"/><path class="cls-5" d="M76.32,58.33l4.13,7.84L82.69,65l-4.07-7.73Z"/><path class="cls-6" d="M99.79,61.26a1.23,1.23,0,0,0-1.23-1.17H67.11a1.24,1.24,0,0,0-1.23,1.17l-.45,9.63L66,71c1.57-3.52,4.26-6.45,7.91-7a4.15,4.15,0,0,1,2.07.24c5.2-1.53,12.31-.93,17.46.6a3.65,3.65,0,0,1,2.34,2.42,5.71,5.71,0,0,1,3.65,2.8l.76-.21Z"/><rect class="cls-7" x="66.79" y="60.94" width="32.11" height="51.54" rx="0.79" ry="0.79"/><polygon class="cls-8" points="98.89 69.01 98.89 86.99 66.79 102.34 66.79 84.37 98.89 69.01"/><path class="cls-9" d="M96.36,86.37A12.68,12.68,0,1,1,83.68,73.7,12.68,12.68,0,0,1,96.36,86.37Z"/><path class="cls-10" d="M95.51,86.37A11.83,11.83,0,1,1,83.68,74.54,11.83,11.83,0,0,1,95.51,86.37Z"/><path class="cls-11" d="M81.94,76.71c.14.45-.3,1-1,1.17s-1.32,0-1.46-.44.3-1,1-1.17S81.8,76.26,81.94,76.71Z"/><path class="cls-12" d="M81.55,76.94a15.11,15.11,0,0,0-1.31-2.73,7.24,7.24,0,0,0-4.06-3.46l-.2.82a6.43,6.43,0,0,1,3.54,3.09,12.78,12.78,0,0,1,.92,1.78c.11.24.18.43.23.57l.06.15,0,0,.8-.27Z"/><path class="cls-12" d="M68.31,73.54A10.29,10.29,0,0,1,74,72.09c3,.21,5.45,1.21,5.38,2.23S76.74,76,73.7,75.77A10.38,10.38,0,0,1,68.31,73.54Z"/><path class="cls-6" d="M69.25,74.21a9.93,9.93,0,0,0,4.45,1.56c3,.21,5.57-.44,5.64-1.45v-.11Z"/></svg>