<svg id="Layer_1" data-name="Layer 1" xmlns="http://www.w3.org/2000/svg" viewBox="0 0 160 160"><defs><style>.cls-1{fill:#e0c387;}.cls-2{fill:#4fbce3;}.cls-3{fill:#067aa9;}.cls-4{fill:#52bde1;}.cls-5{fill:#51bce2;}.cls-6{fill:#50bde3;}.cls-7{fill:#f37c5b;}.cls-8{fill:#52bde2;}.cls-9{fill:#f37d5b;}.cls-10{fill:#f47d5b;}</style></defs><title>Artboard 118</title><path class="cls-1" d="M103.78,111.53a1.45,1.45,0,0,0,1.49-1.44,1.48,1.48,0,0,0-1.48-1.53A1.49,1.49,0,0,0,102.3,110,1.45,1.45,0,0,0,103.78,111.53Z"/><path class="cls-2" d="M55.11,69.2a2.14,2.14,0,0,1,.59,1.49q.22,3.77.52,7.51a1.85,1.85,0,0,1-1,2.08H59a6.35,6.35,0,0,1,.25-1.08c1-2.47,2.05-5,3.17-7.39a5.4,5.4,0,0,0,.4-3C62.36,64.89,62,61,61.57,57c-.09-.8-.17-1.6-.26-2.41a.91.91,0,0,1,.88-1.18c.41-.06.82-.1,1.23-.13a.91.91,0,0,1,1.13.9c.19,1.73.36,3.45.53,5.18.37,3.52.73,7.05,1.1,10.57.15,1.43.3,2.87.44,4.31.07.72-.2,1-.93,1.14-.41,0-.82.1-1.23.13a.87.87,0,0,1-1.07-.84c-.08-.59-.13-1.18-.19-1.78l-.15,0-2.73,6.39.59,0h5.84c.79,0,1,.22.69,1h5.73a2.22,2.22,0,0,1-.11-.3c-.24-.92,0-1.27,1-1.2,1.34.09,2.67.2,4,.3l1,.09c.27,0,.55,0,.81.09s.63.08.79.26,0,.51,0,.79H91.78c.79,0,1.08.3,1.08,1.09s0,1.65,0,2.48-.32,1-1,1H90.34V87c0,.56,0,1.12,0,1.68,0,.84,0,1.67.07,2.5v1.25h2.67l9.44,0a1.65,1.65,0,0,1,1.75,2.09,1.59,1.59,0,0,1-1.63,1.17l-11.4-.09h-.8a1.59,1.59,0,0,0-.06.36c0,3.11,0,6.22,0,9.34l0,.2v1.55h13.76c.15,0,.31,0,.46,0,.34,0,.56.21.55.55a.49.49,0,0,1-.56.48H91.11a1.4,1.4,0,0,0-.41,0,1.31,1.31,0,0,0-.33.21,1.31,1.31,0,0,0,.32.22,2.7,2.7,0,0,0,.41.07,1.49,1.49,0,0,1,1.09,1.56,1.45,1.45,0,0,1-1.33,1.34,3.44,3.44,0,0,1-.47,0c-.12.9-.76,1-1.48.94-.26,0-.52,0-.78,0-.71,0-1-.33-1-1,0-1.83,0-3.65,0-5.47,0-.14,0-.28,0-.41,0-1.68,0-3.37,0-5,0-3.11,0-6.21,0-9.32V84.89h-32c-.67,0-.67,0-.67.67V105c0,.19,0,.37,0,.56l0,5.72c0,.93-.27,1.21-1.19,1.21-.36,0-.72,0-1.08,0-.67,0-1-.35-1-1.06v-5.62a2.11,2.11,0,0,0,0-.25c0-.19,0-.38,0-.57V84.89c-.41,0-.77,0-1.13,0-.64,0-1-.31-1-.94,0-.9,0-1.79,0-2.68,0-.64.32-.94,1-1,.91,0,1.83,0,2.74,0l.06-.09c-.91-.47-1-1.27-.88-2.18.21-2.53.37-5.07.53-7.61a1.81,1.81,0,0,1,.75-1.35l1.21-.21.1,0ZM79.52,80.31v0c-1.7-.14-3.39-.28-5.08-.44-.39,0-.48.17-.58.48Z"/><path class="cls-3" d="M77.39,105.53c.28-1.19.57-2.39.84-3.59.35-1.55.69-3.1,1-4.65.28-1.29.56-2.58.83-3.86.35-1.6.67-3.21,1-4.8A2.07,2.07,0,0,1,83.32,87h3.76v4.17c-.52,0-1,0-1.54,0s-.73.18-.84.67c-.76,3.56-1.55,7.12-2.33,10.69-.22,1-.42,2-.63,3a6.2,6.2,0,0,0-.26,1.79c.09,1.26,0,2.54,0,3.81,0,.4-.24.44-.54.44-1.5,0-3,0-4.49,0H70.65c-.78,0-1-.31-.76-1.08a3.37,3.37,0,0,1,1.48-1.74c.34-.25.71-.45,1.09-.68a2.93,2.93,0,0,1-.35-.55c0-.11,0-.27,0-.4a1.32,1.32,0,0,1,.38.13c.21.15.44.52.59.49.45-.11.13-.54.22-.83a1.18,1.18,0,0,0,0-.2c.59-.16.55.47.91.65.41,0,.25-.37.29-.63a5,5,0,0,1,.16-.55,4.49,4.49,0,0,1,.49.37c.17.16.3.48.47.5a4.52,4.52,0,0,0,1.32-.12c.09,0,.16-.31.2-.48S77.33,105.83,77.39,105.53Z"/><path class="cls-4" d="M96.75,105.52c0-2.8,0-5.6,0-8.4,0-.17,0-.38,0-.5s.33-.46.5-.45.37.26.5.45,0,.3,0,.45c0,2.82,0,5.64,0,8.46,0,.1,0,.23,0,.3s-.32.45-.52.5-.48-.19-.5-.5Z"/><path class="cls-5" d="M103.78,111.53A1.45,1.45,0,0,1,102.3,110a1.49,1.49,0,0,1,1.49-1.46,1.48,1.48,0,0,1,1.48,1.53A1.45,1.45,0,0,1,103.78,111.53Z"/><path class="cls-3" d="M79,79.18l-1-.09c.11-.23.16-.58.34-.66.71-.33,1.47-.58,2.13-.82a3,3,0,0,0-2,.29c-.11,0-.22.17-.31.16s-.56-.08-.6-.2,0-.57.19-.63a13.44,13.44,0,0,1,2-.6,6,6,0,0,1,1.22,0,4,4,0,0,0-2.23-.07c-.37.08-.69.08-.77-.34s.23-.54.56-.6a5.72,5.72,0,0,1,3.58.34,1.74,1.74,0,0,0,.54.15l9.62.54a.73.73,0,0,0,.69-.32c.63-.86,1.3-1.69,1.92-2.56a1.94,1.94,0,0,0,.31-.84c.16-1.19.29-2.38.43-3.63A1.59,1.59,0,0,1,96,66.21a17.1,17.1,0,0,1,1.88-.3c.55,0,.72-.27.67-.77,0-.15,0-.3,0-.49a5.6,5.6,0,0,0-.58,0,2.79,2.79,0,0,1-2.75-1.38,3.22,3.22,0,0,1-.45-.81,1,1,0,0,0-.79-.8c-.6-.14-.94-.85-.81-1.72.17-1.06.44-2.11.7-3.16.22-.86.48-1.71.73-2.61-.23,0-.44-.05-.62-.1a1.69,1.69,0,0,1-.88-2.6A1,1,0,0,0,93.3,51c0-1.6.79-2.36,2.45-2.34.93-1.58,1.69-1.82,3.07-1,1.22-1,2.13-1,3.25.26a1.91,1.91,0,0,1,2.32-.3,1.75,1.75,0,0,1,.89,1.85,5.26,5.26,0,0,1,1.39,1,6,6,0,0,1,.49,1.7c1.3.73,1.5,1.79.43,3.08a1.56,1.56,0,0,1-.53,2.2c.9,1.14.77,1.94-.41,2.73a.51.51,0,0,0-.16.37,1.57,1.57,0,0,1-1.69,1.56.57.57,0,0,0-.38.06,1.33,1.33,0,0,1-2,.12c-1.28.71-.69,1.9-.85,3l2.37-.37c.89-.15,1.77-.31,2.65-.44A1.59,1.59,0,0,1,108.46,66a3.9,3.9,0,0,1-3.17,4.29l-.15.05c-.4,4-.79,8-1.18,12-.09.85-.17,1.71-.25,2.56s-.11,1.42-.19,2.13a4.76,4.76,0,0,1-4.68,4.19H90.38c0-.83-.06-1.66-.07-2.5,0-.56,0-1.12,0-1.68H94L94.3,85a1.1,1.1,0,0,0,0-.25,3.77,3.77,0,0,1-.1-.88c.12-1.48.27-3,.41-4.32a9.49,9.49,0,0,1-1.65.19c-3.16-.14-6.31-.32-9.46-.5a5.79,5.79,0,0,1-2-.3A2.39,2.39,0,0,0,79,79.18Z"/><path class="cls-6" d="M109.48,76.28q-.32,5.72-.64,11.43a1.91,1.91,0,0,1-1.53,1.94,1.83,1.83,0,0,1-2.06-.91,2.33,2.33,0,0,1-.27-1.08q.38-7,.8-14a1.92,1.92,0,0,1,3.83.1c0,.43,0,.86,0,1.29s-.06.82-.08,1.24Z"/><path class="cls-7" d="M54.44,68.86l-1.21.21c-.32-1.72-.65-3.44-.95-5.17-.06-.39-.27-.52-.62-.64a1.56,1.56,0,0,1-1-1.67,1.57,1.57,0,0,1,3-.42,1.61,1.61,0,0,1-.55,1.93c-.11.09-.26.27-.24.38.28,1.57.58,3.13,1,4.7,0-.58,0-1.16,0-1.74,0-2.16.07-4.33.12-6.49a.62.62,0,0,0-.37-.65,1.55,1.55,0,0,1-.76-1.84,1.57,1.57,0,0,1,1.52-1.09,1.53,1.53,0,0,1,1.49,1.13,1.48,1.48,0,0,1-.77,1.78.94.94,0,0,0-.49,1c0,1.17,0,2.33,0,3.5C54.51,65.46,54.47,67.16,54.44,68.86Z"/><path class="cls-7" d="M55.11,69.2l-.57-.31c.38-1.24.75-2.47,1.14-3.7a.56.56,0,0,0-.17-.71,1.5,1.5,0,0,1-.25-2,1.55,1.55,0,0,1,1.79-.66,1.6,1.6,0,0,1,1.11,1.51,1.53,1.53,0,0,1-1.25,1.5.79.79,0,0,0-.68.65C55.88,66.74,55.49,68,55.11,69.2Z"/><path class="cls-7" d="M73.14,60.15c.11.11.35.23.37.38a.79.79,0,0,1-.21.6,10.3,10.3,0,0,1-1.25.71L69.83,63a.53.53,0,1,1-.5-.92c1.12-.62,2.25-1.23,3.38-1.84A2.27,2.27,0,0,1,73.14,60.15Z"/><path class="cls-8" d="M107.74,92.17a1.26,1.26,0,0,1-1.27,1.23,1.25,1.25,0,0,1,0-2.49A1.26,1.26,0,0,1,107.74,92.17Z"/><path class="cls-7" d="M70.31,57a4.88,4.88,0,0,1-.16.52c-.47,1-.93,2-1.42,3a1,1,0,0,1-.45.46.5.5,0,0,1-.48-.16.89.89,0,0,1,0-.66c.41-.95.85-1.88,1.29-2.81a1.58,1.58,0,0,1,.31-.59.76.76,0,0,1,.58-.18C70.09,56.6,70.2,56.83,70.31,57Z"/><path class="cls-9" d="M70.42,65.08l3.12.2c.12,0,.27,0,.35.07s.46.39.43.51-.34.5-.52.49c-1.25,0-2.49-.15-3.73-.29a.69.69,0,0,1-.41-.52C69.68,65.09,70.05,65,70.42,65.08Z"/><path class="cls-10" d="M71.72,71.32a3.22,3.22,0,0,1-.51-.33c-.74-.72-1.47-1.45-2.2-2.18-.25-.25-.42-.56-.11-.85a.6.6,0,0,1,.88.09c.74.74,1.5,1.47,2.21,2.24a.88.88,0,0,1,.15.68C72.13,71.1,71.88,71.19,71.72,71.32Z"/></svg>