<svg id="Layer_1" data-name="Layer 1" xmlns="http://www.w3.org/2000/svg" viewBox="0 0 160 160"><defs><style>.cls-1{fill:#e6e6e6;}.cls-2{fill:#f2f2f2;}.cls-3{fill:#fd4a46;}.cls-4{fill:#ffcd00;}.cls-5{fill:#91be4a;}.cls-6{fill:#0076ff;}.cls-7{fill:#bdccd4;}.cls-8{fill:#f4f4f4;}.cls-9{fill:#ffd31e;}.cls-10{fill:#fff;}.cls-11{fill:#6d6aef;}</style></defs><title>Artboard 119</title><path class="cls-1" d="M123.7,86.41v22.3a3.71,3.71,0,0,1-3.61,3.77H39.91a3.71,3.71,0,0,1-3.61-3.77V86.41a3.7,3.7,0,0,1,3.61-3.76h80.18A3.7,3.7,0,0,1,123.7,86.41Z"/><path class="cls-2" d="M123.7,88.16v20.55a3.71,3.71,0,0,1-3.61,3.77H39.91a3.71,3.71,0,0,1-3.61-3.77V88.16a3.71,3.71,0,0,1,3.61-3.77h80.18A3.71,3.71,0,0,1,123.7,88.16Z"/><path class="cls-3" d="M40.69,85.27H47a.77.77,0,0,1,.77.77v5.71a.77.77,0,0,1-.77.77h-6.3a.77.77,0,0,1-.77-.77V86A.78.78,0,0,1,40.69,85.27Z"/><path class="cls-4" d="M49.82,85.27h6.3a.78.78,0,0,1,.78.78v5.71a.77.77,0,0,1-.77.77h-6.3a.78.78,0,0,1-.78-.78V86A.78.78,0,0,1,49.82,85.27Z"/><path class="cls-5" d="M58.95,85.27h6.3A.77.77,0,0,1,66,86v5.71a.77.77,0,0,1-.77.77h-6.3a.77.77,0,0,1-.77-.77V86A.78.78,0,0,1,58.95,85.27Z"/><rect class="cls-6" x="67.17" y="85.27" width="7.85" height="7.26" rx="0.77" ry="0.77"/><path class="cls-4" d="M95.46,85.27h6.3a.78.78,0,0,1,.78.78v5.71a.77.77,0,0,1-.77.77h-6.3a.78.78,0,0,1-.78-.78V86A.78.78,0,0,1,95.46,85.27Z"/><path class="cls-3" d="M104.59,85.27h6.3a.77.77,0,0,1,.77.77v5.71a.77.77,0,0,1-.77.77h-6.3a.77.77,0,0,1-.77-.77V86A.78.78,0,0,1,104.59,85.27Z"/><path class="cls-3" d="M113.71,85.27H120a.78.78,0,0,1,.78.78v5.71a.77.77,0,0,1-.77.77h-6.3a.78.78,0,0,1-.78-.78V86A.78.78,0,0,1,113.71,85.27Z"/><path class="cls-3" d="M40.69,103H47a.77.77,0,0,1,.77.77v5.71a.78.78,0,0,1-.78.78h-6.3a.77.77,0,0,1-.77-.77v-5.71A.77.77,0,0,1,40.69,103Z"/><path class="cls-3" d="M49.82,103h6.3a.77.77,0,0,1,.77.77v5.71a.78.78,0,0,1-.78.78h-6.3a.78.78,0,0,1-.78-.78v-5.71A.77.77,0,0,1,49.82,103Z"/><path class="cls-7" d="M58.95,103h42.82a.77.77,0,0,1,.77.77v5.71a.78.78,0,0,1-.78.78H58.94a.77.77,0,0,1-.77-.77v-5.71a.78.78,0,0,1,.78-.78Z"/><path class="cls-4" d="M104.59,103h6.3a.77.77,0,0,1,.77.77v5.71a.78.78,0,0,1-.78.78h-6.3a.77.77,0,0,1-.77-.77v-5.71A.77.77,0,0,1,104.59,103Z"/><path class="cls-3" d="M113.71,103H120a.78.78,0,0,1,.78.78v5.71a.78.78,0,0,1-.78.78h-6.3a.78.78,0,0,1-.78-.78v-5.71A.77.77,0,0,1,113.71,103Z"/><path class="cls-3" d="M40.9,94.27H51.46a.78.78,0,0,1,.78.78v5.71a.77.77,0,0,1-.77.77H40.9a.77.77,0,0,1-.77-.77V95A.77.77,0,0,1,40.9,94.27Z"/><rect class="cls-4" x="53.52" y="94.27" width="7.85" height="7.26" rx="0.77" ry="0.77"/><path class="cls-5" d="M63.42,94.27h6.3a.78.78,0,0,1,.78.78v5.71a.77.77,0,0,1-.77.77h-6.3a.78.78,0,0,1-.78-.78V95A.77.77,0,0,1,63.42,94.27Z"/><rect class="cls-6" x="71.77" y="94.27" width="7.85" height="7.26" rx="0.77" ry="0.77"/><path class="cls-6" d="M81.68,94.27H88a.77.77,0,0,1,.77.77v5.71a.77.77,0,0,1-.77.77h-6.3a.78.78,0,0,1-.78-.78V95A.77.77,0,0,1,81.68,94.27Z"/><path class="cls-6" d="M77.18,85.27h6.3a.77.77,0,0,1,.77.77v5.71a.77.77,0,0,1-.77.77h-6.3a.77.77,0,0,1-.77-.77V86A.78.78,0,0,1,77.18,85.27Z"/><rect class="cls-5" x="90.03" y="94.27" width="7.85" height="7.26" rx="0.77" ry="0.77"/><path class="cls-5" d="M86.31,85.27h6.3a.78.78,0,0,1,.78.78v5.71a.77.77,0,0,1-.77.77h-6.3a.78.78,0,0,1-.78-.78V86A.78.78,0,0,1,86.31,85.27Z"/><rect class="cls-4" x="99.16" y="94.27" width="7.85" height="7.26" rx="0.77" ry="0.77"/><path class="cls-3" d="M109.06,94.27h11.07a.78.78,0,0,1,.78.78v5.71a.77.77,0,0,1-.77.77H109.06a.77.77,0,0,1-.77-.77V95A.77.77,0,0,1,109.06,94.27Z"/><rect class="cls-8" x="38.75" y="49.33" width="24.78" height="23" rx="5.85" ry="5.85"/><rect class="cls-9" x="38.75" y="52.09" width="24.78" height="20.24" rx="5.85" ry="5.85"/><path class="cls-10" d="M46.17,68.55l2.71-15h4.53l2.7,15H53l-.46-3H49.73l-.44,3Zm4-6.29h1.84l-.92-6Z"/><rect class="cls-8" x="95.23" y="49.33" width="24.78" height="23" rx="5.85" ry="5.85"/><rect class="cls-11" x="95.23" y="52.09" width="24.78" height="20.24" rx="5.85" ry="5.85"/><path class="cls-10" d="M110,53.82a7.44,7.44,0,0,1,1.14.08,5.76,5.76,0,0,1,.91.23c0,.21,0,.43,0,.66s0,.48,0,.75,0,.55,0,.85,0,.58,0,.84a3,3,0,0,0-1.67-.44,3.09,3.09,0,0,0-1.53.34,2.79,2.79,0,0,0-1,.87,3.31,3.31,0,0,0-.53,1.16,5.22,5.22,0,0,0-.16,1.2,4.28,4.28,0,0,0,.24,1.45,3.59,3.59,0,0,0,.67,1.18,3.11,3.11,0,0,0,1,.8,2.66,2.66,0,0,0,1.26.3,3.84,3.84,0,0,0,.79-.1,2.63,2.63,0,0,0,.91-.34c0,.42,0,.87,0,1.33s0,.92,0,1.36,0,.92,0,1.36,0,.88,0,1.32a10.37,10.37,0,0,1-2.09.22,7.56,7.56,0,0,1-2.89-.53,6,6,0,0,1-2.16-1.53,6.89,6.89,0,0,1-1.36-2.42,11,11,0,0,1,0-6.29A6.76,6.76,0,0,1,104.83,56,6,6,0,0,1,107,54.39,7.37,7.37,0,0,1,110,53.82Z"/><path class="cls-8" d="M91.74,55.51V66.16a6.19,6.19,0,0,1-6.18,6.17H73.2A6.19,6.19,0,0,1,67,66.16V55.51a6.2,6.2,0,0,1,6.18-6.18H85.56A6.2,6.2,0,0,1,91.74,55.51Z"/><path class="cls-3" d="M91.74,57.66v8.5a6.19,6.19,0,0,1-6.18,6.17H73.2A6.19,6.19,0,0,1,67,66.16v-8.5a6.2,6.2,0,0,1,6.18-6.18H85.56A6.2,6.2,0,0,1,91.74,57.66Z"/><path class="cls-10" d="M75.33,69c0-.54,0-1.06,0-1.57s0-1,0-1.52,0-1,0-1.5V62.85c0-1.53,0-3,0-4.41s0-2.67-.1-3.77c.66-.09,1.33-.16,2-.2s1.31-.06,1.86-.06q4.89,0,4.89,2.83a2.87,2.87,0,0,1-.64,1.89,2.7,2.7,0,0,1-1.7,1,4,4,0,0,1,2.5,1.31A4.39,4.39,0,0,1,85,64.21,4.44,4.44,0,0,1,83.41,68a8,8,0,0,1-4.93,1.22c-.43,0-.92,0-1.45,0S75.93,69.08,75.33,69Zm2.77-9.73.4,0h.33A2.8,2.8,0,0,0,80.35,59a1.06,1.06,0,0,0,.56-.93.89.89,0,0,0-.48-.81A2.85,2.85,0,0,0,79,56.94a4.39,4.39,0,0,0-.54,0,1.47,1.47,0,0,0-.37.08Zm0,5a4.41,4.41,0,0,0,.52.09l.69,0A3.29,3.29,0,0,0,81,64.05a1.12,1.12,0,0,0,.57-1,1.11,1.11,0,0,0-.6-1,3.34,3.34,0,0,0-1.69-.36l-.5,0-.67.05Z"/></svg>