<svg id="Layer_1" data-name="Layer 1" xmlns="http://www.w3.org/2000/svg" viewBox="0 0 160 160"><defs><style>.cls-1{fill:#4d4d4d;}.cls-2,.cls-5{fill:#f68045;}.cls-3{fill:#e6e6e6;}.cls-4{fill:#333;}.cls-5{fill-rule:evenodd;}</style></defs><title>Artboard 121</title><path class="cls-1" d="M43.52,105.26V58a1.58,1.58,0,0,1,1.58-1.58h69.8A1.58,1.58,0,0,1,116.48,58v47.22Z"/><path class="cls-2" d="M114.9,57.38a.67.67,0,0,1,.66.66v46.3H44.44V58a.67.67,0,0,1,.66-.66h69.8m0-1.83H45.1A2.5,2.5,0,0,0,42.61,58v48.13h74.78V58A2.5,2.5,0,0,0,114.9,55.55Z"/><polyline class="cls-3" points="92.92 69.03 102.24 68.85 102.21 67.01 92.88 67.19"/><polyline class="cls-3" points="83.58 69.09 90.24 69.06 90.23 67.22 83.57 67.26"/><polyline class="cls-3" points="63.97 68.85 80.87 69.09 80.9 67.25 64 67.01"/><path class="cls-3" d="M53.92,68.85h7.62V67H53.92v1.84Z"/><polyline class="cls-3" points="97.46 78.91 102.22 78.91 102.22 77.08 97.46 77.08"/><polyline class="cls-3" points="80.94 78.91 94.88 78.72 94.86 76.88 80.92 77.08"/><polyline class="cls-3" points="68.17 78.89 77.67 78.91 77.68 77.08 68.18 77.06"/><polyline class="cls-3" points="62.06 78.87 65.45 78.91 65.47 77.08 62.08 77.04"/><polyline class="cls-3" points="53.91 78.81 59.34 78.91 59.37 77.08 53.94 76.98"/><path class="cls-3" d="M77.61,88.74h4.06V86.9H77.61v1.84Z"/><path class="cls-3" d="M53.92,88.74h21V86.9h-21v1.84Z"/><polyline class="cls-4" points="93.79 70.92 103.11 70.74 103.08 68.91 93.75 69.09"/><polyline class="cls-4" points="84.45 70.98 91.11 70.95 91.1 69.12 84.44 69.15"/><polyline class="cls-4" points="64.84 70.74 81.75 70.98 81.77 69.14 64.87 68.91"/><path class="cls-4" d="M54.8,70.74h7.61V68.9H54.8v1.84Z"/><polyline class="cls-4" points="98.33 80.8 103.1 80.8 103.1 78.97 98.33 78.97"/><polyline class="cls-4" points="81.82 80.8 95.75 80.61 95.73 78.78 81.79 78.97"/><polyline class="cls-4" points="69.05 80.78 78.55 80.8 78.55 78.97 69.05 78.95"/><polyline class="cls-4" points="62.93 80.76 66.32 80.8 66.34 78.97 62.95 78.93"/><polyline class="cls-4" points="54.78 80.7 60.21 80.8 60.24 78.97 54.81 78.87"/><path class="cls-4" d="M78.48,90.63h4.06V88.8H78.48v1.83Z"/><path class="cls-4" d="M54.8,90.63h21V88.8h-21v1.83Z"/><path class="cls-5" d="M118.28,106.48H41.72v-5.82a.65.65,0,0,1,.65-.65h75.26a.65.65,0,0,1,.65.65Z"/></svg>