<svg id="Layer_1" data-name="Layer 1" xmlns="http://www.w3.org/2000/svg" viewBox="0 0 160 160"><defs><style>.cls-1{fill:#e6e6e6;}.cls-2{fill:#f2f2f2;}.cls-3{fill:#ccc;}.cls-4{fill:#ed1c24;}.cls-5{fill:#333;}.cls-6{fill:#39b54a;}.cls-7{fill:#f15a24;}.cls-8{fill:#29abe2;}.cls-9{fill:#22b573;}</style></defs><title>Artboard 122</title><polygon class="cls-1" points="118.47 56 118.47 93.81 106.92 106.48 41.52 106.48 41.52 56 118.47 56"/><polygon class="cls-2" points="118.47 56 118.47 93.81 106.92 93.81 106.92 106.48 41.52 106.48 41.52 56 118.47 56"/><polyline class="cls-3" points="53.19 73.19 62.42 73.19 62.42 70.9 53.19 70.9"/><polyline class="cls-3" points="64.46 73.19 78.51 73.19 78.51 70.9 64.46 70.9"/><polyline class="cls-3" points="80.38 73.19 88.01 73.19 88.01 70.9 80.38 70.9"/><polyline class="cls-3" points="89.94 73.19 93.02 73.19 93.02 70.9 89.94 70.9"/><polyline class="cls-3" points="105.58 83.1 108.65 83.1 108.65 80.81 105.58 80.81"/><polyline class="cls-3" points="94.99 73.19 108.65 73.19 108.65 70.9 94.99 70.9"/><polyline class="cls-3" points="103.55 80.73 94.33 80.73 94.33 83.02 103.55 83.02"/><polyline class="cls-3" points="92.29 80.73 78.23 80.73 78.23 83.02 92.29 83.02"/><polyline class="cls-3" points="76.37 80.73 68.95 80.73 68.95 83.02 76.37 83.02"/><polyline class="cls-3" points="66.85 80.73 53.19 80.73 53.19 83.02 66.85 83.02"/><polyline class="cls-3" points="97.38 90.57 83.33 90.57 83.33 92.86 97.38 92.86"/><polyline class="cls-3" points="81.47 90.57 73.83 90.57 73.83 92.86 81.47 92.86"/><polyline class="cls-3" points="71.89 90.57 68.82 90.57 68.82 92.86 71.89 92.86"/><polyline class="cls-3" points="66.85 90.57 53.19 90.57 53.19 92.86 66.85 92.86"/><polyline class="cls-4" points="52.2 71.31 61.42 71.31 61.42 69.02 52.2 69.02"/><polyline class="cls-5" points="63.46 71.31 77.52 71.31 77.52 69.02 63.46 69.02"/><polyline class="cls-5" points="79.38 71.31 87.02 71.31 87.02 69.02 79.38 69.02"/><polyline class="cls-5" points="88.95 71.31 92.02 71.31 92.02 69.02 88.95 69.02"/><polyline class="cls-5" points="104.58 81.22 107.65 81.22 107.65 78.93 104.58 78.93"/><polyline class="cls-6" points="94 71.31 107.65 71.31 107.65 69.02 94 69.02"/><polyline class="cls-5" points="102.56 78.86 93.33 78.86 93.33 81.14 102.56 81.14"/><polyline class="cls-5" points="91.29 78.86 77.24 78.86 77.24 81.14 91.29 81.14"/><polyline class="cls-7" points="75.37 78.86 67.96 78.86 67.96 81.14 75.37 81.14"/><polyline class="cls-5" points="65.86 78.86 52.2 78.86 52.2 81.14 65.86 81.14"/><polyline class="cls-8" points="96.39 88.69 82.33 88.69 82.33 90.98 96.39 90.98"/><polyline class="cls-5" points="80.47 88.69 72.83 88.69 72.83 90.98 80.47 90.98"/><polyline class="cls-5" points="70.9 88.69 67.83 88.69 67.83 90.98 70.9 90.98"/><polyline class="cls-9" points="65.86 88.69 52.2 88.69 52.2 90.98 65.86 90.98"/></svg>