<svg id="Layer_1" data-name="Layer 1" xmlns="http://www.w3.org/2000/svg" viewBox="0 0 160 160"><defs><style>.cls-1{fill:#4b4e63;}.cls-2{fill:#fff;}.cls-3{fill:#fbb03b;}.cls-4{fill:#4d4d4d;}.cls-5{fill:red;}.cls-6{fill:#f15a24;}.cls-7{fill:#f7931e;}.cls-8{fill:#0071bc;}</style></defs><title>Artboard 123</title><path class="cls-1" d="M125,77.88A16.68,16.68,0,1,1,108.33,61.2,16.67,16.67,0,0,1,125,77.88Z"/><path class="cls-2" d="M114.73,76.26a5.25,5.25,0,0,1-.56,0,5.8,5.8,0,0,1,.54-11.57l.56,0A5.81,5.81,0,0,1,120.49,71a5.67,5.67,0,0,1-.34,1.49A5.83,5.83,0,0,1,114.73,76.26Z"/><path class="cls-3" d="M114.71,65.17a4.36,4.36,0,0,1,.51,0A5.27,5.27,0,0,1,120,71a5.42,5.42,0,0,1-.31,1.35,5.29,5.29,0,0,1-5,3.43,4.26,4.26,0,0,1-.5,0,5.29,5.29,0,0,1,.49-10.55m0-1h0a6.28,6.28,0,0,0-3.84,1.31,6.31,6.31,0,0,0,3.25,11.29c.2,0,.41,0,.6,0a6.32,6.32,0,0,0,5.91-4.1,5.73,5.73,0,0,0,.37-1.61,6.31,6.31,0,0,0-5.68-6.89Z"/><path class="cls-4" d="M117.91,71.05a3.11,3.11,0,1,1-2.8-3.39A3.11,3.11,0,0,1,117.91,71.05Z"/><path class="cls-2" d="M100.83,77.15a3.59,3.59,0,0,1-.47,0,4.86,4.86,0,0,1-3.67-2.24,5,5,0,0,1-.75-3.1,4.88,4.88,0,0,1,4.88-4.43l.46,0,.51.07a4.9,4.9,0,0,1-1,9.71Z"/><path class="cls-3" d="M100.82,67.86l.42,0,.45.07a4.38,4.38,0,0,1-.86,8.68l-.42,0a4.38,4.38,0,0,1,.41-8.75m0-1h0a5.42,5.42,0,0,0-.51,10.81l.52,0a5.41,5.41,0,0,0,.5-10.8A4.36,4.36,0,0,0,100.82,66.83Z"/><path class="cls-4" d="M103.6,72.72a2.79,2.79,0,1,1-2.51-3A2.8,2.8,0,0,1,103.6,72.72Z"/><path class="cls-2" d="M101.08,72.4a.86.86,0,1,1-.86-.86A.87.87,0,0,1,101.08,72.4Z"/><path class="cls-2" d="M114.66,70.17a.86.86,0,1,1-.86-.86A.85.85,0,0,1,114.66,70.17Z"/><path class="cls-5" d="M48.44,55c-.08.26-2.46,8.31-2.46,22.58A133.91,133.91,0,0,0,48.38,103a3.31,3.31,0,1,0,6.47-1.38h0a128.76,128.76,0,0,1-2.24-24A99.32,99.32,0,0,1,53.73,62.1c.27-1.76.55-3.08.75-4q.15-.66.24-1a1.29,1.29,0,0,1,.06-.22v0h0L53,56.4l1.76.53h0L53,56.4l1.76.53A3.31,3.31,0,0,0,48.44,55Z"/><path class="cls-6" d="M63.77,54.39A38.94,38.94,0,0,0,61.2,60.9a57,57,0,0,0-2.47,16.71,75.12,75.12,0,0,0,2.42,18.11,68.32,68.32,0,0,0,2.46,7.85,3.31,3.31,0,0,0,6.15-2.46l-.33.13.33-.13h0l-.33.13.33-.13a63.32,63.32,0,0,1-2.24-7.23,67.81,67.81,0,0,1-2.16-16.27,50.41,50.41,0,0,1,2.17-14.76,38.67,38.67,0,0,1,1.47-4c.19-.45.35-.79.46-1l.11-.23,0,0h0l-1.7-.92,1.7.93h0l-1.7-.92,1.7.93a3.32,3.32,0,1,0-5.82-3.18Z"/><path class="cls-7" d="M79.41,53.64a23.9,23.9,0,0,0-4.12,6.2,40.46,40.46,0,0,0-3.81,17.77,51.52,51.52,0,0,0,3.72,19.1A40,40,0,0,0,79,104.22a3.31,3.31,0,1,0,5.44-3.77l0,0,0,0h0l0,0,0,0a35.43,35.43,0,0,1-3.27-6.58,45,45,0,0,1-3.09-16.26,33.69,33.69,0,0,1,3.14-14.87,21,21,0,0,1,2.08-3.47c.27-.37.48-.63.62-.79l.14-.16h0a3.31,3.31,0,0,0-4.68-4.68Z"/><path class="cls-8" d="M95.11,53.14a28.09,28.09,0,0,0-6.66,6.07A29.4,29.4,0,0,0,84,66.81a28.94,28.94,0,0,0-2,10.8,33,33,0,0,0,2,11.19,41.53,41.53,0,0,0,6.65,11.66,35.54,35.54,0,0,0,4.08,4.38,3.31,3.31,0,1,0,4.34-5l-.9,1,.9-1h0l-.9,1,.9-1a34.68,34.68,0,0,1-5.34-6.38,33.06,33.06,0,0,1-3.54-7,25.93,25.93,0,0,1-1.57-8.81,22.26,22.26,0,0,1,1.57-8.34,23.37,23.37,0,0,1,5.36-7.95,22,22,0,0,1,2.26-2l.63-.45.15-.09,0,0-.69-1.13.68,1.14h0l-.69-1.13.68,1.14a3.31,3.31,0,1,0-3.41-5.68Z"/></svg>