<svg id="Layer_1" data-name="Layer 1" xmlns="http://www.w3.org/2000/svg" viewBox="0 0 160 160"><defs><style>.cls-1{fill:#4b4e63;}.cls-2{fill:#4d4d4d;}.cls-3{fill:#fff;}.cls-4{fill:#fbb03b;}</style></defs><title>Artboard 124</title><path class="cls-1" d="M87.87,47a2.74,2.74,0,0,0,.06-4,2.88,2.88,0,0,0-1.81,3.88c0,.08,0,.17,0,.25a1.29,1.29,0,0,0,0-.25c-.16-.75-.81-1.82-3-2.9-2-1,.74,1.36,0,2.9-10.7,1.15-18.42,10.33-18.42,21.33A21.33,21.33,0,1,0,87.87,47Zm-1.78.17a1.52,1.52,0,0,1-.1.71C86,47.63,86.07,47.39,86.09,47.16Z"/><path class="cls-2" d="M86.09,47.16a1.52,1.52,0,0,1-.1.71C86,47.63,86.07,47.39,86.09,47.16Z"/><path class="cls-2" d="M86.09,47.15a1.29,1.29,0,0,0,0-.25h.06Z"/><path class="cls-3" d="M91.93,64.31l-.52,0a5.42,5.42,0,0,1-2.79-9.69,5.32,5.32,0,0,1,3.29-1.12,4.7,4.7,0,0,1,.53,0,5.42,5.42,0,0,1,4.88,5.91A5.86,5.86,0,0,1,97,60.8,5.44,5.44,0,0,1,91.93,64.31Z"/><path class="cls-4" d="M91.92,54a3.77,3.77,0,0,1,.47,0,4.94,4.94,0,0,1,4.45,5.38,4.8,4.8,0,0,1-.29,1.27,5,5,0,0,1-4.62,3.2l-.47,0A4.94,4.94,0,0,1,88.92,55a4.88,4.88,0,0,1,3-1m0-1h0a5.84,5.84,0,0,0-3.59,1.23,5.9,5.9,0,0,0,3,10.55l.56,0A5.92,5.92,0,0,0,97.45,61a5.74,5.74,0,0,0,.35-1.51A5.91,5.91,0,0,0,92.48,53Z"/><path d="M94.91,59.44a2.91,2.91,0,1,1-2.62-3.16A2.91,2.91,0,0,1,94.91,59.44Z"/><path class="cls-3" d="M78.94,65.14a3.1,3.1,0,0,1-.43,0A4.56,4.56,0,0,1,75.08,63a4.67,4.67,0,0,1-.7-2.9A4.57,4.57,0,0,1,78.94,56l.43,0a3.54,3.54,0,0,1,.47.07,4.57,4.57,0,0,1-.9,9.06Z"/><path class="cls-4" d="M78.94,56.47l.39,0,.42.06a4.1,4.1,0,0,1-.81,8.11,2.55,2.55,0,0,1-.39,0,4.09,4.09,0,0,1,.39-8.17m0-1h0a5.06,5.06,0,0,0-.48,10.09,3.85,3.85,0,0,0,.48,0,5.05,5.05,0,0,0,1-10,4.67,4.67,0,0,0-.52-.08A3.85,3.85,0,0,0,78.94,55.51Z"/><path d="M81.54,61a2.61,2.61,0,1,1-2.35-2.84A2.61,2.61,0,0,1,81.54,61Z"/><path class="cls-3" d="M79.18,60.71a.8.8,0,1,1-.8-.8A.8.8,0,0,1,79.18,60.71Z"/><circle class="cls-3" cx="91.07" cy="58.62" r="0.8"/><path class="cls-2" d="M86,47.87c0-.24.08-.48.1-.71A1.52,1.52,0,0,1,86,47.87Z"/><path class="cls-1" d="M103.1,71.24h0a18,18,0,0,1,2.7,2.25,10,10,0,0,1,1.59,2,3.42,3.42,0,0,1,.55,1.69,1.75,1.75,0,0,1-.27,1h0a3.56,3.56,0,0,1-1.59,1.46,5,5,0,0,1-2,.39,8.67,8.67,0,0,1-1.93-.24c-.25-.06-.45-.12-.57-.16l-.14,0h0l-.33.9.34-.9h0l-.33.9.34-.9-1.74,4.53a12.68,12.68,0,0,0,1.34.4,13.41,13.41,0,0,0,3,.37,9.67,9.67,0,0,0,4-.83,8.29,8.29,0,0,0,3.74-3.38h0a6.59,6.59,0,0,0,1-3.44,7.31,7.31,0,0,0-.37-2.28,11,11,0,0,0-1.75-3.21,20.73,20.73,0,0,0-3.22-3.26,20.14,20.14,0,0,0-1.72-1.27l-2.63,4.07Z"/><polyline class="cls-1" points="89.07 86.1 96.83 105.49 101.33 103.69 93.57 84.3"/><polyline class="cls-1" points="77.34 83.61 72.49 102.04 77.18 103.27 82.03 84.85"/><path class="cls-4" d="M90.49,105.12a8.57,8.57,0,0,1,9.08-8h.69a9,9,0,0,1,9,7.79l.07.72-18.89.15Z"/><path class="cls-3" d="M99.57,97.79l.66,0c7.75.37,8.4,7.19,8.4,7.19l-17.48.15s.35-7.36,8.42-7.36m0-1.31c-9.22,0-9.73,8.52-9.74,8.6l-.06,1.4,1.39,0,17.48-.14h1.44l-.14-1.43c-.26-2.76-2.61-8-9.65-8.39Z"/><path class="cls-4" d="M66.25,105.05a8.57,8.57,0,0,1,9.08-8l.69,0c8.23.39,9,7.71,9,7.79l.07.71-18.89.15Z"/><path class="cls-3" d="M75.33,97.73c.21,0,.44,0,.66,0,7.75.36,8.4,7.19,8.4,7.19l-17.48.14s.35-7.35,8.42-7.35m0-1.32A9.22,9.22,0,0,0,65.59,105l-.07,1.39h1.4l17.48-.14h1.43l-.13-1.43c-.26-2.76-2.61-8.06-9.64-8.39Z"/><polyline class="cls-1" points="73.62 74.16 58.11 69.31 56.66 73.94 72.18 78.79"/><path class="cls-3" d="M56.81,78.9a5.55,5.55,0,0,1-5.54-5.47,11.55,11.55,0,0,0-.46-2.57l-.72-.57a3.05,3.05,0,0,1-1.69-4,3,3,0,0,1,2.36-2,3.44,3.44,0,0,1,1.36-3.7,2.6,2.6,0,0,1,1.42-.44,2.76,2.76,0,0,1,1.83.75,2.34,2.34,0,0,1,2.06-1.53A2.56,2.56,0,0,1,59,60c1.84,1.48,2.16,5.11,2.19,7.1a11.3,11.3,0,0,1,2.16-.26c2.29,0,2.68,1.29,2.74,1.85.21,2-2.36,3.73-3.77,4.53v0a5,5,0,0,1-.18,1.47,5.5,5.5,0,0,1-5.28,4.15Z"/><path class="cls-4" d="M57.43,60.35a1.66,1.66,0,0,1,1,.43c2.14,1.72,1.81,7.61,1.81,7.61a12.62,12.62,0,0,1,3.15-.55c.91,0,1.69.23,1.77,1,.15,1.37-2.14,3-3.82,3.88a2.82,2.82,0,0,1,.05.59,4.27,4.27,0,0,1-.14,1.19,4.55,4.55,0,0,1-4.37,3.44h-.06a4.56,4.56,0,0,1-4.57-4.51,14,14,0,0,0-.58-3.12l-1.07-.86a2.12,2.12,0,0,1-1.28-2.78,2,2,0,0,1,1.94-1.42,2.65,2.65,0,0,1,.85.14s-1.28-2.79.54-4a1.68,1.68,0,0,1,.9-.28c1.33,0,2.2,1.9,2.2,1.9s.37-2.68,1.69-2.68m0-1.94a2.94,2.94,0,0,0-2.34,1.14,3.5,3.5,0,0,0-1.55-.36,3.61,3.61,0,0,0-1.95.59,4.2,4.2,0,0,0-1.86,3.81,4.15,4.15,0,0,0-.15,7.53l.38.3a10.52,10.52,0,0,1,.34,2,6.53,6.53,0,0,0,6.51,6.43h.09A6.48,6.48,0,0,0,63.11,75a6.25,6.25,0,0,0,.2-1.16c1.72-1.06,4-2.92,3.77-5.2-.14-1.32-1.19-2.72-3.7-2.72a10,10,0,0,0-1.23.09c-.14-2.23-.69-5.25-2.51-6.72A3.53,3.53,0,0,0,57.43,58.41Z"/></svg>