<?xml version="1.0" encoding="utf-8"?>
<!-- Generator: Adobe Illustrator 22.1.0, SVG Export Plug-In . SVG Version: 6.00 Build 0)  -->
<svg version="1.1" id="Layer_1" xmlns="http://www.w3.org/2000/svg" xmlns:xlink="http://www.w3.org/1999/xlink" x="0px" y="0px"
	 viewBox="0 0 100 100" style="enable-background:new 0 0 100 100;" xml:space="preserve">
<style type="text/css">
	.st0{fill:#A4BCE1;}
	.st1{fill:#FFFFFF;}
	.st2{fill:#FA664A;}
	.st3{fill:#FBEFE3;}
	.st4{clip-path:url(#SVGID_1_);fill:#191E39;}
	.st5{fill:#191E39;}
	.st6{fill:#FBF4E5;}
	.st7{fill:none;stroke:#191E39;stroke-width:0.1618;stroke-miterlimit:10;}
	.st8{fill:none;stroke:#F99E4D;stroke-width:6.1477;stroke-miterlimit:10;}
	.st9{fill:#F99E4D;}
	.st10{fill:none;stroke:#2B292C;stroke-width:0.1618;stroke-miterlimit:10;}
	.st11{fill:none;stroke:#191E39;stroke-width:0.3236;stroke-miterlimit:10;}
	.st12{fill:none;stroke:#191E39;stroke-width:1.423;stroke-miterlimit:10;}
	.st13{fill:#9DD5A3;}
	.st14{fill:#1D4E9F;}
	.st15{fill:none;}
</style>
<path class="st0" d="M11.9,87.5V14.6c0-1.4,1.2-2.6,2.6-2.6h72.2c1.4,0,2.6,1.2,2.6,2.6v72.9H11.9z"/>
<path class="st1" d="M83,40.4H17.2c-1.6,0-2.8-1.3-2.8-2.8v-18c0-1.6,1.3-2.8,2.8-2.8H83c1.6,0,2.8,1.3,2.8,2.8v18
	C85.9,39.1,84.6,40.4,83,40.4z"/>
<g>
	<g>
		<path class="st2" d="M22.8,29.1l1.8,4.6l6.9-6.3l-6.2-1.4C25.1,26,22.7,28.9,22.8,29.1z"/>
		<path class="st3" d="M28.6,28.2l-3.9-0.8c-0.5-0.1-1,0.4-0.7,0.9l1.4,3L28.6,28.2z"/>
		<g>
			<defs>
				<path id="SVGID_5_" d="M22.8,29.1l1.8,4.6l6.9-6.3l-6.2-1.4c-0.3-0.1-0.5,0-0.7,0.2L23,28.4C22.8,28.6,22.7,28.9,22.8,29.1z"/>
			</defs>
			<clipPath id="SVGID_1_">
				<use xlink:href="#SVGID_5_"  style="overflow:visible;"/>
			</clipPath>
			<path class="st4" d="M26.2,28.2l-1.1-3.1L21.8,29l3.2,0.6C25.8,29.8,26.5,29,26.2,28.2z"/>
		</g>
	</g>
	<g>
		<path class="st2" d="M37,22.4l1.2,7.7L29,28.3l6.5-6.5C36,21.3,36.9,21.6,37,22.4z"/>
		<path class="st5" d="M37.6,26.2L37,22.4c-0.1-0.7-1-1-1.5-0.5L33,24.4C34.4,25.1,36,25.7,37.6,26.2z"/>
		<path class="st3" d="M32.2,27.4l3.2-3.1c0.1-0.1,0.4-0.1,0.4,0.1l0.6,3.8L32.2,27.4z"/>
	</g>
	<path class="st2" d="M51.7,57.3L26.1,64l-1.5-29.8c-0.2-3.5,2.1-6.5,5.5-7.5c3.1-0.9,7.1,1.3,8.4,3.8L51.7,57.3z"/>
	<path class="st6" d="M47,55.2l-17.8,4.7L28,36.6l4.6,3.9c0.6,0.5,1.6,0.3,1.9-0.5l2.2-5.6L47,55.2z"/>
	<circle class="st5" cx="34" cy="41.7" r="1.2"/>
	<g>
		<circle class="st5" cx="34.6" cy="32.7" r="1.1"/>
	</g>
	<g>
		<circle class="st5" cx="29.2" cy="34.1" r="1.1"/>
	</g>
	<line class="st7" x1="30.4" y1="27.7" x2="33.4" y2="39.6"/>
</g>
<path class="st8" d="M51.5,54.2c0,0-5.2,3-10.2,1.4s-6.2-4.4-9.1-7.7c-2.9-3.3-3.3-4.1-3.3-4.1"/>
<g>
	<path class="st9" d="M31.7,42.4l-2.4-3.9c-0.3-0.4-0.9-0.5-1.3-0.2c-0.4,0.3,0.4,2.3,0.4,2.3l-6-1.7c-0.4-0.1-0.9,0.1-1,0.6
		c-0.1,0.4-1.2,4.7-1.3,5.1c-0.3,1,8.4,2.9,8.4,2.9C29.5,47.8,31.8,42.6,31.7,42.4z"/>
	<path class="st10" d="M25.7,41c0,0-1.6,2.5-1.1,4.4"/>
	<line class="st10" x1="25.4" y1="41.5" x2="22.1" y2="40.5"/>
	<line class="st10" x1="24.8" y1="43" x2="21.4" y2="42"/>
	<line class="st10" x1="24.5" y1="44.4" x2="21.1" y2="43.4"/>
</g>
<path class="st5" d="M44.4,24.8c-2.2,0.5-3.6,2.6-3.2,4.9s2.6,3.6,4.9,3.2C48.3,32.4,46.6,24.3,44.4,24.8z"/>
<polygon class="st9" points="60.1,45 50.2,47.5 57.3,34.8 "/>
<circle class="st5" cx="58.9" cy="34" r="4.1"/>
<polygon class="st5" points="58.7,34.7 51.7,44.8 50.2,39.4 "/>
<circle class="st5" cx="59.7" cy="28.6" r="5.9"/>
<g>
	<path class="st9" d="M58.2,36.5c-0.7,0.1-1.4,0.1-2-0.2c-0.5,2.3-2.3,4.3-4.7,4.8c-3.3,0.7-6.6-1.4-7.3-4.7
		c-0.1-0.5-0.1-0.9-0.1-1.4c-0.6,0.1-1.5,0.1-1.8-0.5c-0.5-0.8,0.2-1.4,0.8-2c1.3-1.2,1-7.7,1-7.7l12-0.6c0,0,0.5,5.3,0.7,5.3
		c1.9-0.4,3.8,0.8,4.2,2.7C61.4,34.2,60.2,36.1,58.2,36.5z"/>
</g>
<circle class="st5" cx="43.2" cy="23.3" r="4.2"/>
<circle class="st5" cx="50.1" cy="21.2" r="5.2"/>
<circle class="st5" cx="56.4" cy="22.7" r="4.9"/>
<path class="st11" d="M57.4,34.1c0.6,0,1.2-0.5,1.2-1.1c0-0.6-0.5-1.2-1.1-1.2"/>
<circle class="st5" cx="56.6" cy="28.8" r="2.5"/>
<circle class="st5" cx="45.3" cy="36.5" r="0.4"/>
<path class="st12" d="M50.1,29.5c0,0-1.3-2.1-4.4-1.2"/>
<path class="st11" d="M49.5,30.6c0,0.8-0.7,1.5-1.5,1.5s-1.5-0.7-1.5-1.5"/>
<path class="st13" d="M71.9,54.3l-21.4,11l-8.1-15.7l13.7-7c4.3-2.2,9.6-0.5,11.8,3.8L71.9,54.3z"/>
<path class="st14" d="M87.3,89.7H13.8c-1.2,0-2.1-0.9-2.1-2.1V56c0-1.2,0.9-2.1,2.1-2.1h73.5c1.2,0,2.1,0.9,2.1,2.1v31.5
	C89.4,88.7,88.4,89.7,87.3,89.7z"/>
<rect x="10" y="10" class="st15" width="80" height="80"/>
</svg>
