<?xml version="1.0" encoding="utf-8"?>
<!-- Generator: Adobe Illustrator 22.1.0, SVG Export Plug-In . SVG Version: 6.00 Build 0)  -->
<svg version="1.1" id="Layer_1" xmlns="http://www.w3.org/2000/svg" xmlns:xlink="http://www.w3.org/1999/xlink" x="0px" y="0px"
	 viewBox="0 0 100 100" style="enable-background:new 0 0 100 100;" xml:space="preserve">
<style type="text/css">
	.st0{fill:none;}
	.st1{fill:#5B68AF;}
	.st2{fill:#21376B;}
	.st3{fill:none;stroke:#191D38;stroke-width:1.133;stroke-miterlimit:10;}
	.st4{fill:#FDD25D;}
	.st5{fill:#FBB475;}
	.st6{fill:#FBF3E6;}
	.st7{fill:#F9EEE2;}
	.st8{fill:none;stroke:#F54F7B;stroke-width:0.1619;stroke-miterlimit:10;}
	.st9{fill:#F54F7B;}
	.st10{fill:#191D38;}
	.st11{fill:#FFFFFF;}
	.st12{fill:none;stroke:#191D38;stroke-width:0.1619;stroke-miterlimit:10;}
</style>
<rect x="10" y="10" class="st0" width="80" height="80"/>
<g>
	<g>
	</g>
</g>
<g>
	<path class="st1" d="M86.9,37.9C85,48.2,79.9,55.5,76.6,65.5c-3.3,10-12.2,21.5-23.2,23.8C28.2,94.5,19.1,83.9,14.8,75
		c-1.5-3-2.1-6-2.2-8.9c-0.2-13.6,12.9-24.6,15.5-27.7c6.7-7.9,5.9-15.2,13.8-22.3C59.2,1,91.5,12,86.9,37.9z"/>
	<path class="st2" d="M74.2,62.1c0,0.6-0.4,1.1-1,1.2L14.8,75c-1.5-3-2.1-6-2.2-8.9l60.1-5.3C73.5,60.8,74.2,61.4,74.2,62.1z"/>
	<path class="st3" d="M53,61.5c0.9-1.4,2.8-1.7,4.2-0.8c1.4,0.9,1.7,2.8,0.8,4.2"/>
	<path class="st3" d="M58.9,61.2c0.9-1.4,2.8-1.7,4.2-0.8s1.7,2.8,0.8,4.2"/>
	<path class="st4" d="M51.9,29.9H72v14.6c0,8.5-7.1,16.3-15.6,16.3l-4.6-18.5V29.9z"/>
	<g>
		<defs>
			<path id="SVGID_3_" d="M51.9,29.9H72v14.6c0,8.5-6.9,15.3-15.3,15.3h-1.8l-3-17.5V29.9z"/>
		</defs>
		<clipPath id="SVGID_1_">
			<use xlink:href="#SVGID_3_"  style="overflow:visible;"/>
		</clipPath>
	</g>
	<path class="st5" d="M72,27.2v7.6c0,5.6-4.6,10.1-10.1,10.1c-2.8,0-5.3-1.2-7.1-3s-2.9-11.9-2.9-11.9h0v-2.8c0-0.4,4.9,2.8,4.9,2.8
		h10.3C67.1,29.9,72,26.8,72,27.2z"/>
	<g>
		<path class="st6" d="M52.6,39.1L35.5,65.5l21.5-4.3l2.3-3.3C65.4,48.2,52.6,39.1,52.6,39.1z"/>
		<path class="st7" d="M41.6,55.9l2.7,1.7l-5.6,8.6c-0.6,1-1.9,1.2-2.9,0.6h0c-0.5-0.3-0.7-1-0.3-1.5L41.6,55.9z"/>
		<path class="st7" d="M45.6,55.3l2.7,1.7l-5.6,8.6c-0.6,1-1.9,1.2-2.9,0.6l-0.9-0.6L45.6,55.3z"/>
		<path class="st7" d="M50.2,54.1l2.7,1.7l-5.6,8.6c-0.6,1-1.9,1.2-2.9,0.6l-0.9-0.6L50.2,54.1z"/>
		<path class="st7" d="M54.7,52.7l2.9,1.9L52,63.1c-0.6,1-2,1.3-3,0.6L48,63.1L54.7,52.7z"/>
		<path class="st7" d="M55.6,57.4l2.7,1.7l-2.1,3.3c-0.6,1-1.9,1.2-2.9,0.6l-0.9-0.6L55.6,57.4z"/>
		<g>
			<path class="st8" d="M45.5,51.1c2.1,0.6,4.3,0.3,5.8-1.3c1.4-1.6-1.1-3-1.9-0.8c-2.1,6.5,7.3,3.6,6.5,0.5c-0.3-0.9-3.9,2-0.1,3
				c1.6,0.4,5.6-2.1,2.9-2.8c-1.1,0.2-1.3,3.7,2.2,1.9"/>
			<path class="st8" d="M40.6,59.6c1.6,1.9,4.8-1.4,5.7-2.6c1.6-2,0-3.2-1.1-0.7c-2.3,5.2,5.2,2.9,5.5,0.2c0.2-1.9-2.5-0.4-1,1.3
				c1.1,1.2,4.3,0.6,5.1-0.8c0.3-0.6,0.4-1.6-0.6-1.2c-0.7,0.3-0.8,2.2-0.4,2.8c0.8,1.2,2.7,0.7,3.8,0"/>
			<path class="st8" d="M38.9,66.1c1.7-2.7,2.4-3.8,4.2-6.4"/>
			<path class="st8" d="M43.1,65.1c1.5-2.2,2.5-3.6,4-5.8"/>
			<path class="st8" d="M47.9,63.6c1.5-2.4,1.8-2.8,3.3-5.2"/>
			<path class="st8" d="M52.2,62.9c1.3-1.9,1.1-1.8,2.3-3.7"/>
		</g>
	</g>
	<g>
		<path class="st9" d="M59,22.6c0.1,1.6,1.3,2.8,2.9,2.8c1.6,0,2.8-1.2,2.9-2.8H59z"/>
		<polygon class="st9" points="61.9,34.4 64.1,27.2 59.8,27.2 		"/>
	</g>
	<g>
		<path class="st9" d="M49.6,30.7c0,0,6.8,1.4,10,3.1L54.9,43C54.9,43,49,40.7,49.6,30.7z"/>
		<circle class="st9" cx="57" cy="38.3" r="5.1"/>
	</g>
	<g>
		<path class="st9" d="M74.2,30.7c0,0-6.8,1.4-10,3.1l4.6,9.2C68.9,43,74.8,40.7,74.2,30.7z"/>
		<circle class="st9" cx="66.8" cy="38.3" r="5.1"/>
	</g>
	<polygon class="st10" points="61.9,39.8 60.9,41.1 61.9,43.5 63,41.1 	"/>
	<circle class="st11" cx="57.6" cy="37.3" r="2.5"/>
	<line class="st12" x1="60.1" y1="36.1" x2="55" y2="36.1"/>
	<circle class="st10" cx="57.6" cy="37.3" r="1.2"/>
	<circle class="st11" cx="66.2" cy="37.3" r="2.5"/>
	<line class="st12" x1="63.7" y1="36.1" x2="68.8" y2="36.1"/>
	<circle class="st10" cx="66.2" cy="37.3" r="1.2"/>
</g>
</svg>
