<?xml version="1.0" encoding="utf-8"?>
<!-- Generator: Adobe Illustrator 22.1.0, SVG Export Plug-In . SVG Version: 6.00 Build 0)  -->
<svg version="1.1" id="Layer_1" xmlns="http://www.w3.org/2000/svg" xmlns:xlink="http://www.w3.org/1999/xlink" x="0px" y="0px"
	 viewBox="0 0 100 100" style="enable-background:new 0 0 100 100;" xml:space="preserve">
<style type="text/css">
	.st0{fill:#9391C2;}
	.st1{fill:none;}
	.st2{fill:none;stroke:#9391C2;stroke-width:4.9857;stroke-linecap:round;stroke-miterlimit:10;}
	.st3{fill:#D4D3E0;}
	.st4{fill:#FFFFFF;}
	.st5{fill:#191D38;}
	.st6{fill:#FFFFFF;stroke:#9391C2;stroke-miterlimit:10;}
	.st7{fill:none;stroke:#191D38;stroke-width:0.1347;stroke-miterlimit:10;}
	.st8{fill:none;stroke:#191D38;stroke-width:0.4042;stroke-linecap:round;stroke-miterlimit:10;}
	.st9{fill:#C8CEE0;}
	.st10{fill:#8795C5;}
	.st11{fill:none;stroke:#191E39;stroke-width:0.1347;stroke-miterlimit:10;}
	.st12{fill:#233E7D;}
	.st13{opacity:0.5;fill:#FFD96E;}
	.st14{opacity:0.66;fill:#F47C69;}
</style>
<g>
	<path class="st0" d="M31.5,24.2c0,0-2.2-3.8-0.9-5.1c1.3-1.3,4.3,2.9,4.3,2.9L31.5,24.2z"/>
</g>
<rect x="10" y="10" class="st1" width="80" height="80"/>
<g>
	<g>
	</g>
</g>
<g>
	<path class="st0" d="M47,22.9c0,0,1.9-3.9,0.5-5.1S43.4,21,43.4,21L47,22.9z"/>
</g>
<path class="st2" d="M56.7,47c0,0-6.6-2.7-10.2-11.4"/>
<path class="st3" d="M53.4,28.6L53.4,28.6c0,2.3-2,0.9-2.3,0.6c1.1,0.8-0.2,3.2-2.1,1.2c0,0,0,0,0,0c0,0-0.5,0.4-1,0.7
	c0.1,0.4,0.4,1.5,0.4,1.5c1.5,5.6,3.7,14.7,4.4,19.1c1,6.5-4.6,7.9-18.4,7.1c-13.8-0.8-11.1-6.5-9.6-13.3c0.9-4.2,3.2-9.5,4.9-13
	c0.3-0.6,0.9-1.9,0.9-1.9c0,0-1.8,0.2-0.8-1.7c-0.1,0.1-0.2,0.2-0.4,0.2c-0.4,0.3-1.3,0.7-1.9,0c-0.5-1.2,1.3-3.7,3-5c0,0,0,0,0,0
	c1.7-2.3,5.2-3.7,9.5-3.8C46.5,20.1,53.3,25.8,53.4,28.6z"/>
<path class="st4" d="M45,52.7L45,52.7c-2.6,0.3-4.9-1.6-5.1-4.2c0,0-3.5-12.1,3.5-12.6l0,0c2.6-0.3,4.9,1.6,5.1,4.2l0.7,7.5
	C49.5,50.2,47.6,52.5,45,52.7z"/>
<path class="st5" d="M41.5,24l-0.4-4.6c0-0.5-0.4-0.9-0.9-1c0,0,0,0,0,0c-0.8-0.1-1.4,0.8-1.1,1.5l1.9,4.2
	C41.2,24.4,41.6,24.3,41.5,24z"/>
<path class="st6" d="M36.7,22.1c-2.5-0.2-6.1,0.8-6.1,0.8s1,4.9,4.5,4.9c3.5,0,5.8-1.4,5.8-1.4S39.2,22.3,36.7,22.1z"/>
<g>
	<path class="st6" d="M44.6,21.6c1.6-0.7,6,0.2,6,0.2s0.2,4.2-3,4.8c-3.2,0.6-5.2,0.3-5.2,0.3S42.4,22.6,44.6,21.6z"/>
</g>
<path class="st7" d="M42.1,29.2c0-0.5,0-0.9-0.2-1.8"/>
<path class="st5" d="M39.5,26.2c0,0,2.1-0.6,4.3-0.4c-0.6,1.4-1.9,2.1-1.9,2.1S40.5,27.6,39.5,26.2z"/>
<g>
	<line class="st8" x1="27.6" y1="44.3" x2="61.9" y2="41"/>
</g>
<path class="st0" d="M38.4,50.2L41,59H30.3v-7.6C30.3,45.9,38.2,46,38.4,50.2z"/>
<path class="st9" d="M39.2,59l-1.5-5.7c-0.2-0.9-1-1.5-1.9-1.5h0c-1.2,0-2.1,1.1-2,2.3l0.7,4.9H39.2z"/>
<path class="st2" d="M40.1,43.6c0,0-0.2-2-1.7-2.4c-2.3-0.7-7.4,0.6-10-3"/>
<circle class="st0" cx="40.1" cy="43.3" r="3.1"/>
<path class="st0" d="M61.4,52.3c0,0.2-2.3,6.6-3.1,6.6c0,0-4.1-0.3-9.8-0.7c0-7.7,3.2-12.1,3.2-12.1l5.2,6.5
	C56.9,52.7,61.4,51.5,61.4,52.3z"/>
<path class="st10" d="M58.3,58.9L58.3,58.9C58.3,58.9,58.3,58.9,58.3,58.9C58.3,58.9,58.3,58.9,58.3,58.9z"/>
<path class="st10" d="M58.2,58.9c-0.1,0-0.2,0-0.2,0C58.1,58.9,58.2,58.9,58.2,58.9z"/>
<path class="st7" d="M40,28.7c0.8,0.4,1.4,0.5,2.3,0.4c0.5,0,1.2-0.3,1.7-0.7"/>
<circle class="st5" cx="37.5" cy="25.3" r="0.7"/>
<circle class="st5" cx="45.6" cy="24.6" r="0.7"/>
<path class="st0" d="M46.7,65.5c-0.3,0.7-0.9,1.2-1.5,1.7c-1.3,0.8-3,1.3-4.7,1.4c-0.9,0.1-1.8,0.1-2.6,0.1c-0.7,0-1.3,0-1.8-0.1
	c-0.1,0-0.2,0-0.3,0c-0.8-0.1-1.6-0.1-2.4-0.2c-1.9-0.2-3.9-0.3-5.8-0.7c-1.3-0.2-2.7-0.5-3.9-0.9c-1.5-0.5-2.9-1.1-4.2-1.9
	c-1.4-0.9-2.7-2.1-3.7-3.6c-0.6-0.9-1.1-2-1.3-3.1c-0.1-0.4-0.1-1-0.1-1.6c0.1-1.6,0.6-3.8,1.6-5.9c0.9-1.8,2.1-3.6,3.9-4.8
	c1.4-1,3.2-1.6,5.3-1.6c-0.2,0.8-0.3,1.5-0.5,2.1c-0.2,1.1-0.4,2.2-0.6,3.5c0,0.1,0,0.3,0,0.5c0,0.6-0.1,1.3,0,2.1
	c0.1,1.3,0.5,2.7,1.8,3.8c0.6,0.5,1.3,1,2.2,1.3c0.6,0.2,1.2,0.4,1.9,0.5c0.5,0.1,1.5,0.2,2.8,0.3c1.1,0.1,2.4,0.2,3.7,0.4
	c1.5,0.2,2.9,0.3,4.1,0.5c0.9,0.1,1.7,0.3,2.2,0.4c0.7,0.2,1.5,0.5,2.1,0.9C46.6,61.7,47.8,63.3,46.7,65.5z"/>
<g>
	<g>
		<path class="st5" d="M46.7,65.5c-0.3,0.7-0.9,1.2-1.5,1.7c-1-0.1-1.8-0.9-2.3-1.8c-0.8-1.6-0.3-4.2,1.5-4.6c0.1,0,0.3-0.1,0.4-0.1
			C46.6,61.7,47.8,63.3,46.7,65.5z"/>
	</g>
</g>
<line class="st11" x1="39.8" y1="43.9" x2="39.9" y2="45.9"/>
<line class="st11" x1="41.2" y1="43.6" x2="41.4" y2="45.6"/>
<g>
	<path class="st12" d="M71.3,79l-3.1-2.9l-8.5,3.3c-2.1,0.8-4.6-7-3-7.6l4.8-1.9l-1-1c-0.9-0.8-1.8-2-1.5-3.3c0.3-1.3,2-3,4.3-3.1
		c0.7,0,6.8,4.1,6.8,4.1l3.1-1.2c2.1-0.8,5.6,0.2,5.6,3.8c0,1.4-0.8,2.8-2,3.5C76.6,72.8,73,80.6,71.3,79z"/>
	<g>
		<defs>
			<path id="SVGID_5_" d="M76,73.1l-16.3,6.4c-2.1,0.8-4.5-0.2-5.3-2.3v0c-0.8-2.1,0.2-4.5,2.3-5.3L73,65.5c2.1-0.8,4.5,0.2,5.3,2.3
				v0C79.2,69.9,78.1,72.3,76,73.1z"/>
		</defs>
		<clipPath id="SVGID_1_">
			<use xlink:href="#SVGID_5_"  style="overflow:visible;"/>
		</clipPath>
	</g>
	<circle class="st5" cx="58.2" cy="75.6" r="4.1"/>
</g>
<g>
	<circle class="st5" cx="74.1" cy="76" r="4.1"/>
</g>
<path class="st13" d="M67.3,74c-5.4,0-12.7-5.2-11.8-13.9c0.9-8.7,10.9-22.4,10.9-30.8s12,18.1,13.4,28.2C81.7,71.4,72.7,74,67.3,74
	z"/>
<path class="st13" d="M67.3,74c-5.4,0-14.1-5.4-13.2-14.1s3.2-15.4,2.7-24.9c-0.2-4.4,19.6,14.9,21.6,24.6
	C80.7,70.6,72.7,74,67.3,74z"/>
<path class="st14" d="M67.6,70.4c-3.6,0-5.9-3.1-5.2-7.7c0.6-3.8,5.9-11.1,5.9-11.1s4.9,7.4,5.3,11.4C74.1,68.3,71.1,70.4,67.6,70.4
	z"/>
<g>
	<path class="st4" d="M67.4,42.6l-6.5,0.6c-1.3,0.1-2.4-0.8-2.5-2v0c-0.1-1.3,0.8-2.4,2-2.5L67,38L67.4,42.6z"/>
	<circle class="st9" cx="67" cy="40.3" r="2.3"/>
	<line class="st8" x1="67.3" y1="40.3" x2="70" y2="40"/>
</g>
<path class="st0" d="M45.7,32.3c1.2-0.4,2.2-1.2,2.2-1.2c0.1,0.4,0.2,0.9,0.4,1.4c0,0,0,0.1,0,0.1c0,0,0,0,0,0
	c-2.1,1.3-4.3,2-5.9,2.1c-2.9,0.2-4.7,0-8.6-1.7c-1-0.4-1.8-1-2.6-1.5L30.8,32c-0.3,0.3-0.6,0.4-1,0.4c0,0-0.1,0-0.1,0
	c0.3-0.6,0.5-1.2,0.8-1.6c0.1,0,0.2,0,0.2,0c0.3,0,0.7-0.1,0.9-0.4L32,30c0.7,0.5,1.5,1,2.4,1.4C38.1,33,41.6,33.9,45.7,32.3z"/>
<path class="st5" d="M24.6,46.5c-0.2,1.1-0.4,2.2-0.6,3.5c0,0.1,0,0.3,0,0.5c-2.2-0.6-5.1-0.8-8,0.3c0.9-1.8,2.1-3.6,3.9-4.8
	C21.6,45.9,23.2,46.1,24.6,46.5z"/>
<path class="st5" d="M25.7,56.3c-2.8,0.6-7.2,1.9-9.9,5c-0.6-0.9-1.1-2-1.3-3.1c-0.1-0.4-0.1-1-0.1-1.6c2.9-2.4,6.7-3.5,9.6-4.1
	C24.1,53.8,24.5,55.2,25.7,56.3z"/>
<path class="st5" d="M32.7,58.5c-1.8,1.7-4.7,5.1-5,9.3c-1.3-0.2-3.8-0.9-5.1-1.3c0.5-3.8,3-7.4,5.4-8.8c0.6,0.2,1.2,0.4,1.9,0.5
	C30.4,58.2,31.4,58.3,32.7,58.5z"/>
<path class="st5" d="M37.9,68.7c-0.7,0-1.3,0-1.8-0.1c-0.1,0-0.2,0-0.3,0c-0.8-0.1-1.6-0.1-2.4-0.2c-0.6-3.5,0.9-7.2,3-9.5
	c1.5,0.2,2.9,0.3,4.1,0.5C38.7,61.6,37.2,65.4,37.9,68.7z"/>
</svg>
