<?xml version="1.0" encoding="utf-8"?>
<!-- Generator: Adobe Illustrator 22.1.0, SVG Export Plug-In . SVG Version: 6.00 Build 0)  -->
<svg version="1.1" id="Layer_1" xmlns="http://www.w3.org/2000/svg" xmlns:xlink="http://www.w3.org/1999/xlink" x="0px" y="0px"
	 viewBox="0 0 100 100" style="enable-background:new 0 0 100 100;" xml:space="preserve">
<style type="text/css">
	.st0{fill:none;}
	.st1{fill:#F69EA2;}
	.st2{fill:#8ECEAE;}
	.st3{fill:#EF6B7E;}
	.st4{fill:#44B785;}
	.st5{clip-path:url(#SVGID_1_);fill:#191D38;}
	.st6{fill:none;stroke:#191D38;stroke-width:0.2038;stroke-linejoin:round;stroke-miterlimit:10;}
	.st7{fill:none;stroke:#E8893D;stroke-width:5.3803;stroke-linejoin:round;stroke-miterlimit:10;}
	.st8{fill:none;stroke:#F99E4E;stroke-width:5.3803;stroke-linejoin:round;stroke-miterlimit:10;}
	.st9{fill:none;stroke:#233E7D;stroke-width:8.1665;stroke-linejoin:round;stroke-miterlimit:10;}
	.st10{fill:none;stroke:#233E7D;stroke-width:8.1665;stroke-miterlimit:10;}
	.st11{fill:none;stroke:#F9EEE2;stroke-width:0.2014;stroke-linejoin:round;stroke-miterlimit:10;}
	.st12{fill:none;stroke:#E8893D;stroke-width:3.6359;stroke-miterlimit:10;}
	.st13{fill:#E8893D;}
	.st14{fill:#F99E4E;}
	.st15{fill:#191D38;}
	.st16{fill:none;stroke:#191D38;stroke-width:0.1897;stroke-miterlimit:10;}
	.st17{fill:none;stroke:#191D38;stroke-width:0.8344;stroke-miterlimit:10;}
	.st18{fill:none;stroke:#F99E4E;stroke-width:3.6045;stroke-miterlimit:10;}
	.st19{fill:none;stroke:#191D38;stroke-width:0.1922;stroke-linejoin:round;stroke-miterlimit:10;}
</style>
<rect x="10" y="10" class="st0" width="80" height="80"/>
<g>
	<g>
	</g>
</g>
<g>
	<path class="st1" d="M63.9,25.4c2.7,3.4,2.3,7.8-2.1,10c-0.2,0.1-10.9,5.7-16.1,9.1c-6,4-10.8,7.6-10.8,7.6l-6.8-6.8
		c0,0,0.6-1,2.3-7.6c1.7-6.7,12.8-22.6,30.3-15c0.3-1.2,1.4-1.9,2.6-1.7c1.2,0.2,5.1,3.3,5.1,3.3S65.8,25.1,63.9,25.4z"/>
	<path class="st1" d="M34.2,47l-7.8,9.6l-1,2.2c-0.2,0.4,0.1,0.8,0.5,0.8c0.4,0,2.1-0.2,2.6-0.3c0.2-0.1,0.7-1.5,0.6-2.3
		c3.7-1.9,7.4-6.3,7.4-6.3L34.2,47z"/>
	<g>
		<g>
			<path class="st2" d="M29.9,30.3l2,2.8l0.9,1.1l1.6,0.7l0.1-2.2c0,0-1.9-2.8-1.2-3.2c0.5-0.3,2.4,3.3,2.4,3.3l0,2.5l4.2,1.7
				l1.4-1.1l-0.9-4.4l-4.2-0.7c0,0-1.7-1.3-1.7-1.8c0-0.8,2.8,1.1,2.8,1.1s1.9,0.3,2.8,0.4c-0.1-0.4-1.1-3.6-0.2-3
				c0.3,0.2,0.5,1.3,0.7,1.7c0.3,0.8,0.6,1.7,0.9,2.6c0.6-0.6,1.3-1.3,1.3-1.3s1.5-5,1.9-3.9c0.2,0.5-1.1,5.3-1.1,5.3l-1.6,1.2
				l0.6,3.2c0,0-2.9,2.8-4.2,3.9c-0.3,0.3-2.5,2.3-2.1,0.6c0.1-0.6,1.6-1.8,1.6-1.8l1.1-1c0,0-2.7-1-4-1.5c-0.9-0.4-3-1.2-3-1.2
				l-1.7-2.7c0,0-0.9-1.4-0.9-1.7C29.4,30.4,29.9,30.3,29.9,30.3z"/>
			<path class="st3" d="M35.8,25.7c0.7-0.4,2.2-0.4,2.7,0.5c0.4,0.8,0.2,1.8-0.5,2.3c-0.7,0.5-1.9,0.3-2.4-0.4
				C34.9,27.3,34.9,26.2,35.8,25.7z"/>
			<path class="st1" d="M31.4,27.6c0.9-0.6,1.7,1,0.8,1.5C31.3,29.5,30.6,28.1,31.4,27.6z"/>
			<path class="st1" d="M41.7,23.7c0.2-0.1,0.5-0.1,0.7,0c0,0,0.1,0,0.1,0c0.1,0,0.1,0,0.2,0c0.7,0.3,0.8,1.2,0.4,1.7
				c-0.4,0.6-1.4,0.8-1.8,0C40.9,25,41,24,41.7,23.7z"/>
			<path class="st3" d="M28.4,33.1c0.7-0.7,1.9,0.7,1.1,1.4C28.8,35.1,27.7,33.7,28.4,33.1z"/>
			<path class="st4" d="M37.6,32.7c0.4,0.4,0.7,1.9-0.7,2.7C35.5,33.9,37,32.8,37.6,32.7z"/>
			<path class="st4" d="M32.9,36.3c-0.4,1.4-2.9,0.5-2.7,0.1C31,35.3,33.1,35.8,32.9,36.3z"/>
		</g>
		<g>
			<path class="st2" d="M27.7,46.2c-1.4,0.3-3.4,1-4.7,0.8c-0.4-0.1-2.4-2.3-2.4-2.3l-3.1,0.3c0,0-3.9-1.4-3.9-1.8
				c0-0.8,2.1,0.1,2.1,0.1l2.2,0.7l1.8-0.4c0,0-2.4-3.4-2.6-3.8c-0.4-0.9-0.1-0.9,0.5-0.3c0.7,0.7,1.9,2.3,1.9,2.3l1.7-3.4
				c0,0-0.4-2.7,0.3-2c0.4,0.4,0.5,2.5,0.5,2.5l-1.6,3.4l0.1,0.8c0,0,2.2,2.8,3,2.8c1.4,0,1.5-1.2,1.9-2.3C25.6,43,26,41,26,41
				l-2-1.5c0,0-1.8-3.8-1.3-3.8c0.5,0,2,2.6,2,2.6s0.9,0.7,1.7,1.4c0.2-0.8,0.3-2.3,0.3-2.3l-1-2.6c0,0-0.8-1.5-0.3-1.7
				c0.6-0.2,1.3,1.8,1.3,1.8l1.2,3c0,0-1.2,5.3-1.7,7.3C28.3,44.8,29.5,45.8,27.7,46.2z"/>
			<path class="st1" d="M13.8,38.1c-0.7,0.3-1.2,1.2-1.1,1.9c0.2,0.9,1.2,1.4,2.1,1.1c0.8-0.3,1.2-1.2,1-2
				C15.6,38.3,14.7,37.7,13.8,38.1z"/>
			<path class="st3" d="M22.3,32.4c-1,0.4-0.1,2,0.8,1.5C23.9,33.4,23.2,32,22.3,32.4z"/>
			<path class="st3" d="M17.9,36.3c-1,0.7-0.2,2.5,1,2C20.6,37.7,19.1,35.4,17.9,36.3z"/>
			<path class="st4" d="M19,49.4c2-0.1,2.1-3.6,1.4-3.5C18.2,46.2,18.4,49.5,19,49.4z"/>
			<path class="st4" d="M9.6,43c1.8,1.3,4.2-0.6,3.7-1C11.4,40.4,9,42.6,9.6,43z"/>
			<path class="st4" d="M22.8,41.4c-0.4,0.2,0.9,2,2.5,0.8C25.7,41.9,24.1,40.5,22.8,41.4z"/>
		</g>
	</g>
	<path class="st3" d="M45.8,44.5c-0.4-2.1,1-3.3,5.6-6.4c-4.5-10.1,6-13.5,6-13.5S63,34,45.8,44.5z"/>
	<path class="st1" d="M57.3,24.1c0,0-8.6,4.8-4.1,14.9c-4.7,3.2-6,4.4-5.5,6.6c1.9-0.2,3-0.8,3-0.8l0.5-1.7l0.6,0.6
		c0,0,2.9-3.2,7.9-5.1c5-1.9,7.1-5.4,5.9-9.6C64.4,24.8,57.3,24.1,57.3,24.1z"/>
	<path class="st3" d="M39.6,54.3c0.1,1-1,1.8-2,1.3c-2.2-1-5.6-2.8-7.9-4.6c-0.8,1-2.1,2.3-4,3.3c0.1,0.8-0.4,2.2-0.5,2.3
		c-0.5,0.2-2.4,0.4-2.9,0.3c-0.2,0,0.8-2.9,0.8-2.9l4.5-5.3c-0.2-0.3-0.3-0.7-0.4-1c-0.8-0.4-1.6-0.8-2.2-1.4
		c-0.4-0.3-1.6-1.3-1.3-1.9c0.3-0.8,3.7,0.6,4.4,0.9c0.6-0.6,1.5-1.2,2.3-1.6c0.6-0.3,2-1.1,3.4-1.5c0-0.9,0.7-5.2,1.3-5.3
		c0.8-0.1,1.2,1.4,1.3,2.1c0.2,1,0.9,3.5,1.1,3.9C38.9,45.5,39.4,51.1,39.6,54.3z"/>
	<path class="st1" d="M28.1,45.3c0,0,2.1-3,5.7-3.1l3.1,9.2c0.2,0.6-0.5,1.1-1,0.7L28.1,45.3z"/>
	<g>
		<path class="st4" d="M32,43.6c0.9,1.3-1.1,2.8-2,1.5C29,43.7,31,42.3,32,43.6z"/>
	</g>
	<g>
		<defs>
			<path id="SVGID_15_" d="M37.7,42.9c-1.2-2.5-5.9,0.2-7.2,0.8c-2.3,1.1-4.9,3-1.7,6.3c2.1,2.2,6.4,4.4,8.9,5.6c1,0.5,2-0.3,2-1.3
				C39.4,51.1,38.9,45.5,37.7,42.9z"/>
		</defs>
		<clipPath id="SVGID_1_">
			<use xlink:href="#SVGID_15_"  style="overflow:visible;"/>
		</clipPath>
		<path class="st5" d="M40.3,54.4c-0.2-0.6-0.8-1-1.4-0.8c-0.8,0.3-1.5,0.8-1.9,1.6c-0.3,0.5-0.1,1.3,0.4,1.6c0.1,0,0.1,0,0.2,0.1
			c0.4,0.4,1,0.6,1.5,0.2c0.6-0.4,1.2-0.9,1.3-1.7c0-0.1,0-0.2,0-0.4C40.3,54.8,40.3,54.6,40.3,54.4z"/>
	</g>
	<g>
		<path class="st6" d="M32.8,51.2c0,0-1.5,0.6-2.6-1"/>
	</g>
	<g>
		<path class="st6" d="M37.4,48.6c0,0,1.2-1.1,0.2-2.8"/>
	</g>
</g>
<polyline class="st7" points="41,79.2 55.9,76 54.4,61 "/>
<polyline class="st8" points="30,69.8 48.4,74 48.3,55.3 "/>
<g>
	<polygon class="st4" points="30,73.1 24.2,77.8 27,66.3 31.1,67 	"/>
</g>
<g>
	<polygon class="st4" points="42.8,82 39.6,87.9 37.1,77.2 41.1,76 	"/>
</g>
<polyline class="st9" points="55.4,68.7 53.9,58.5 58.1,52.5 "/>
<path class="st10" d="M48.4,68.3c0,0-2.6-12.3,1.1-14.1c2.5-1.2,5.5-2.7,8.4-4.3"/>
<polyline class="st11" points="51.4,67.7 53.2,67.2 52.8,58.5 "/>
<path class="st12" d="M64.8,49.7c0,0,0,9.9,6.9,9.9c2.7,0,4.6,0.1,4.6,0.1"/>
<path class="st2" d="M70.9,50.8l-12.2,9.4L49.2,48c0,0,14.7-8.8,15.6-8.8c1.5,0,3,0.7,4,1.9c-1.1,1.1-2.3,2.1-3.5,3.1L70.9,50.8z"/>
<path class="st4" d="M67.2,53.6l3.3-2.3c1.7-1.1,1.8-3.9,1.2-5.1l-2.2-4.3C69.5,41.8,67.2,53.6,67.2,53.6z"/>
<g>
	<path class="st13" d="M80.8,57.6l-3.8,0l0.6-0.5c1-0.9-0.1-1.3-0.7-0.9L74.7,58c-0.2,0.2,0.7,3.5,1.1,3.5l4.9-0.1
		C82.7,61.5,82.8,57.7,80.8,57.6z"/>
</g>
<polygon class="st14" points="67.6,41.4 70.5,45.7 79.9,34 "/>
<polygon class="st15" points="72.3,37.5 71.4,44.6 74.2,42.8 "/>
<circle class="st15" cx="80.5" cy="40.2" r="2.4"/>
<circle class="st15" cx="74.2" cy="34.4" r="3.5"/>
<circle class="st15" cx="72.5" cy="37.1" r="2.4"/>
<circle class="st14" cx="73.5" cy="37.2" r="2.1"/>
<path class="st14" d="M78.7,43.2l3.9-4.3l-5-5l-4.4,4.7l0,0c-1.1,1.2-1.2,3.1-0.2,4.5c1.2,1.6,3.4,2,5,0.8
	C78.2,43.7,78.5,43.5,78.7,43.2z"/>
<circle class="st15" cx="78" cy="33.2" r="2.8"/>
<circle class="st15" cx="81.4" cy="35" r="3"/>
<circle class="st15" cx="83.5" cy="38.6" r="2.5"/>
<path class="st14" d="M78.3,43.2c0,0,0.7,0.9,1.2,0.7s0.4-1.8,0.4-2.3L78.3,43.2z"/>
<circle class="st15" cx="75.5" cy="35.7" r="1.5"/>
<path class="st16" d="M77.9,39.3c-0.3,0.4-0.3,0.9,0.1,1.3c0.4,0.3,0.9,0.3,1.3-0.1"/>
<path class="st17" d="M78.1,38.6c0,0,1.4-0.4,2.4,1.2"/>
<path class="st18" d="M67.2,47.3c0,0,0.2,8.1,3.2,8.9c3.8,1,7.9-5.9,7.9-5.9"/>
<path class="st2" d="M63.2,43.4l1,7.7l6.2-0.8l-1-7.8C69.1,41,62.6,40.2,63.2,43.4z"/>
<polyline class="st19" points="63.2,43.8 64.2,51.1 69.1,50.4 "/>
<g>
	<path class="st14" d="M80.4,45.9l-2.6,2.6c0,0,0.3-1.3-0.4-1.3c-0.3,0-0.6,0.2-0.6,0.5L76.5,50c0,0.1,1.4,3.5,2.7,2.3l3.8-3.7
		C83.8,48,81.2,45.3,80.4,45.9z"/>
</g>
</svg>
