<?xml version="1.0" encoding="utf-8"?>
<!-- Generator: Adobe Illustrator 22.1.0, SVG Export Plug-In . SVG Version: 6.00 Build 0)  -->
<svg version="1.1" id="Layer_1" xmlns="http://www.w3.org/2000/svg" xmlns:xlink="http://www.w3.org/1999/xlink" x="0px" y="0px"
	 viewBox="0 0 100 100" style="enable-background:new 0 0 100 100;" xml:space="preserve">
<style type="text/css">
	.st0{fill:none;}
	.st1{fill:#3E5CAA;}
	.st2{fill:#5777B9;}
	.st3{fill:#8896C7;}
	.st4{fill:#191E39;}
	.st5{fill:#C9CFE1;}
	.st6{fill:none;stroke:#191E39;stroke-width:0.2315;stroke-miterlimit:10;}
	.st7{fill:#F7F7F7;}
	.st8{fill:#FFFFFF;stroke:#8896C7;stroke-width:0.956;stroke-miterlimit:10;}
</style>
<rect x="10" y="10" class="st0" width="80" height="80"/>
<g>
	<g>
	</g>
</g>
<g>
	<g>
		<path class="st1" d="M77.5,83.2H58.6l0.2,0.7c0.2,1-0.5,2-1.6,2H23.3c-1.1,0-1.8-1-1.5-2.1c0,0,3.9-12.3,4.6-13.1
			c0,0,2.3-2.7,2.9-3.3l2.4-10.2c0.9-3.7,3.8-6.6,7.6-7.5c0,0,17.1-7.8,25.7,4.2l6.6,16.7c2.7,1.1,4.9,3.4,5.6,6.4
			C77,77,78,83.2,77.5,83.2z"/>
	</g>
	<g>
		<path class="st2" d="M77,77c-1.1-4.4-5.2-7.4-9.7-7l-2.9,0.2c3.9,0.3,9,6.3,9,6.3c0.1,0.3,0.4,6.4,0.2,6.6h3.8
			C78,83.2,77,77,77,77z"/>
		<g>
			<defs>
				<path id="SVGID_13_" d="M52,83.2h25.5c0.5,0,0.9-0.5,0.8-1L77,77c-1.1-4.4-5.2-7.4-9.7-7l-6.5,0.5c-1.1,0.1-2.2,0.4-3.2,0.8l0,0
					c-2.4,1.1-4.2,3.2-4.9,5.7l-1.5,5.1C51.1,82.6,51.5,83.2,52,83.2z"/>
			</defs>
			<clipPath id="SVGID_1_">
				<use xlink:href="#SVGID_13_"  style="overflow:visible;"/>
			</clipPath>
		</g>
	</g>
	<g>
		<path class="st2" d="M58.8,83.9l-2.9-12c-0.8-3.2-3.3-5.6-6.4-6.4c0,0-11.7-3.1-16.6-0.5c1.5-0.1,17.1,1.6,18,8.3l2.9,12
			c0.1,0.2,0.1,0.4,0,0.6h3.4C58.2,85.9,59,84.9,58.8,83.9z"/>
	</g>
	<path class="st3" d="M65.8,45.5c0,0-4.3,2.6-8.3,3.1c-5-1.9-10.3-0.7-10.3-0.7c0-2.3,4.9-2.1,4.9-2.1s-2.8-2.2-4.4-4.3l-3.1,7.1
		l-5.9,1.3c0,0-0.1,0-0.2,0c-0.3,0,1.6-2.8,1.6-2.8c0.4-0.3-2-20.1-2-20.1L65.8,45.5z"/>
	<g>
		<path class="st3" d="M74.8,50.2L74.8,50.2c-0.1,1.1-0.3,2.2-0.6,3.3c-0.4,1.4-1,2.7-1.8,4c-0.7,1.1-1.5,2-2.4,2.9
			c-1.1,1-2.3,1.8-3.5,2.4c-1,0.5-2.1,0.9-3.2,1.2c-1.3,0.4-2.7,0.6-4.1,0.7c0,0-0.1,0-0.1,0c-1,0.1-2,0.2-3,0.2
			c-1.2,0-2.4-0.2-3.5-0.5c-1.1-0.3-2.2-0.9-3-1.8c-0.1-0.1-0.3-0.3-0.4-0.4c-0.6-0.8-1-1.8-0.6-2.8c0.3-0.7,0.9-1.3,1.6-1.6
			c0.9-0.4,2.1-0.7,3.4-0.8c0.9-0.1,1.9-0.2,2.9-0.2c0.5,0,1-0.1,1.5-0.1c0.6-0.1,1.2-0.1,1.7-0.2c0.5-0.1,1-0.2,1.4-0.3
			c0.6-0.1,1.1-0.3,1.6-0.5h0c1.2-0.4,2.2-1,3-1.6c0.5-0.4,1-0.8,1.4-1.2c0.8-0.9,1.3-1.8,1.7-2.8c0.1-0.3,0.2-0.6,0.3-1
			c0.3-1.3,0.4-2.6,0.3-3.8c0-0.2,0-0.4,0-0.5c0-0.4-0.1-0.7-0.2-1.1c-0.1-0.4-0.3-0.9-0.5-1.3c-0.3-0.7-0.7-1.2-1-1.9
			c-0.3-0.6-0.5-1.2-0.6-2.2c-0.3-2.3,2.3-0.5,4,1c0.7,0.6,1.2,1.1,1.4,1.5c0.5,0.8,0.9,1.6,1.3,2.4c0.4,1,0.7,2,0.9,3
			C74.8,47.5,74.9,48.9,74.8,50.2z"/>
	</g>
	<path class="st4" d="M73.7,43.1c-0.5-0.1-1.1-0.1-1.6,0c-1,0-2,0.2-2.9,0.5c-0.1-0.4-0.3-0.9-0.5-1.3c-0.3-0.7-0.7-1.2-1-1.9
		c1.1-0.5,2.2-0.9,3.4-1.1c0.7,0.6,1.2,1.1,1.4,1.5C72.9,41.5,73.4,42.3,73.7,43.1z"/>
	<path class="st3" d="M40.5,16.6c0,0,4.9-2.4,6.2-2.5C48,14,45,19.1,45,19.1L40.5,16.6z"/>
	<path class="st5" d="M66.5,44.8c-4.7,4.4-12.4,3.3-16.2-3.7c-0.2-0.3-0.4-1-1-1.6c-2.2,3.6-2.9,6.7-3,8c0,0.5-0.4,0.8-0.8,1
		l-5.2,1.1c-0.4,0.1-0.8-0.2-0.8-0.6c0-0.1,0-0.2,0-0.2c0.1-0.2,0.2-0.3,0.3-0.4l3-1.5l-4.6-17.3c-1.6-2-2.9-3.5-2.9-3.5l-5.8-6.9
		c-1.4-1.6,11.2-2.8,11.2-2.8c2.1-0.8,7.1,3.8,8.8,4.9c1.7,1.1,7.6,2.7,5.2,3.6c0,0,9.8,2.5,7,3.5c0,0,9.4,4.7,6,5.6
		C67.9,33.9,71.8,39.8,66.5,44.8z"/>
	<path class="st4" d="M30.2,17.7c-0.6,0-0.9,0.6-0.8,1c1.7,0.8,2.9-0.7,3.4-1.2L30.2,17.7z"/>
	<path class="st4" d="M49.3,47.6c0.2-2.3,5.1-1.5,5.1-1.5s-0.6-0.4-1.2-1.1c1.8,0.4,10.7,0.8,12.6,0.6c-1.5,1.4-4.5,3.9-6.4,3.9
		C54.8,47,49.3,47.6,49.3,47.6z"/>
	<path class="st6" d="M54.4,46.1c0,0-2.9-2.4-5-6.7"/>
	<path class="st7" d="M38.4,29.5L35.5,26c0,0,2.4-0.7,4.5,1.1c2.1,1.9,1.9,8.7,1.2,13.1L38.4,29.5z"/>
	<path class="st6" d="M30.7,20.4c0,0,1.7,1,3-0.1"/>
	<g>
		<g>
			<path class="st3" d="M44.2,27.4C44.2,27.5,44.2,27.5,44.2,27.4c-0.1,0.5-0.3,0.8-0.7,1c-0.6,0.2-1.3,0-1.5-0.7l-0.1-0.3
				c0.3,0.4,0.8,0.5,1.3,0.3c0.4-0.2,0.6-0.5,0.7-0.9c0,0,0,0,0-0.1l0.2,0.4C44.1,27.3,44.2,27.4,44.2,27.4z"/>
			<path class="st3" d="M48.3,26.3c-0.4,0.3-0.9,0.3-1.3,0c0,0-0.1,0-0.1-0.1c0-0.1,0-0.1-0.1-0.2c0-0.1-0.1-0.2-0.1-0.3l-0.1-0.1
				c0.4,0.2,0.9,0.3,1.3,0c0.4-0.3,0.6-0.8,0.5-1.2l0.2,0.3C49,25.2,48.9,25.9,48.3,26.3z"/>
			<path class="st3" d="M46.5,28.5c-0.7,0.4-1.7,0.2-2.1-0.6l-0.2-0.4l-0.4-0.7c0,0,0,0,0-0.1l0.2,0.4c0,0.1,0.1,0.1,0.1,0.2
				c0.5,0.6,1.3,0.7,2,0.4c0.6-0.3,0.9-1,0.7-1.6c0-0.1,0-0.1-0.1-0.2l0.2,0.3l0.1,0.1C47.5,27.1,47.3,28.1,46.5,28.5z"/>
		</g>
	</g>
	<path class="st5" d="M43.2,16.7c0,0,5.9-1,8.2-0.7c2.2,0.3-3.3,5.1-3.3,5.1L43.2,16.7z"/>
	<g>
		<path class="st8" d="M36.8,18.3c0,0,3.1-2,5-1.2s4.1,2.8,4.1,2.8s-2.5,3.3-5.1,2S36.8,18.3,36.8,18.3z"/>
	</g>
	<circle class="st4" cx="40" cy="19" r="0.5"/>
	<path class="st4" d="M74.8,50.2c-0.9-0.3-1.8-0.6-2.8-0.8c-1-0.2-1.9-0.3-2.9-0.4c0.3-1.3,0.4-2.6,0.3-3.8c1.1,0.1,2.2,0.2,3.3,0.4
		c0.6,0.1,1.3,0.3,1.9,0.5C74.8,47.5,74.9,48.9,74.8,50.2z"/>
	<path class="st4" d="M74.1,53.5c-0.4,1.4-1,2.7-1.8,4c-0.6-0.8-1.3-1.6-2-2.3c-1-0.9-2.1-1.7-3.3-2.4c0.8-0.9,1.3-1.8,1.7-2.8
		c1.4,0.6,2.7,1.4,3.9,2.3C73.2,52.7,73.7,53.1,74.1,53.5z"/>
	<path class="st4" d="M70,60.4c-1.1,1-2.3,1.8-3.5,2.4c-0.3-1-0.6-2-1.1-3c-0.7-1.5-1.6-2.9-2.7-4.2c1.2-0.4,2.2-1,3-1.6
		c1.2,1.2,2.2,2.5,3,3.9C69.2,58.8,69.6,59.6,70,60.4z"/>
	<path class="st4" d="M63.3,64c-1.3,0.4-2.7,0.6-4.1,0.7c-0.1-2.7-0.6-5.4-1.3-8c0.6-0.1,1.2-0.1,1.7-0.2c0.5-0.1,1-0.2,1.4-0.3
		C62,58.7,62.8,61.3,63.3,64z"/>
	<path class="st4" d="M56,64.9c-1.2,0-2.4-0.2-3.5-0.5c0.7-2.4,1-4.9,0.9-7.4c0.9-0.1,1.9-0.2,2.9-0.2C56.7,59.5,56.5,62.2,56,64.9z
		"/>
	<path class="st4" d="M51.4,60.7c-0.3,1-1,1.7-1.9,1.9c-0.1-0.1-0.3-0.3-0.4-0.4c-0.6-0.8-1-1.8-0.6-2.8c0.3-0.7,0.9-1.3,1.6-1.6
		c0.1,0,0.2,0.1,0.3,0.1C51.3,58.5,51.7,59.7,51.4,60.7z"/>
</g>
</svg>
