<?xml version="1.0" encoding="utf-8"?>
<!-- Generator: Adobe Illustrator 22.1.0, SVG Export Plug-In . SVG Version: 6.00 Build 0)  -->
<svg version="1.1" id="Layer_1" xmlns="http://www.w3.org/2000/svg" xmlns:xlink="http://www.w3.org/1999/xlink" x="0px" y="0px"
	 viewBox="0 0 100 100" style="enable-background:new 0 0 100 100;" xml:space="preserve">
<style type="text/css">
	.st0{fill:none;}
	.st1{fill:#3E5CAA;}
	.st2{fill:#233E7D;}
	.st3{fill:#C9CFE1;}
	.st4{fill:#8896C7;}
	.st5{fill:#191E39;}
	.st6{clip-path:url(#SVGID_1_);}
	.st7{fill:#F06680;}
	.st8{fill:#F99E4D;}
	.st9{fill:#FBEFE3;}
	.st10{fill:none;stroke:#191E39;stroke-width:0.1274;stroke-linejoin:round;stroke-miterlimit:10;}
	.st11{fill:none;stroke:#191E39;stroke-width:0.1274;stroke-miterlimit:10;}
	.st12{clip-path:url(#SVGID_2_);fill:#FFFFFF;}
	.st13{clip-path:url(#SVGID_2_);fill:#191E39;}
	.st14{fill:none;stroke:#191E39;stroke-width:0.159;stroke-linejoin:round;stroke-miterlimit:10;}
	.st15{clip-path:url(#SVGID_3_);fill:#FBEFE3;}
</style>
<path class="st0" d="M90,10v80H10V56.8c0,0,0,0,0,0V10H90z"/>
<g>
	<g>
	</g>
</g>
<g>
	<circle class="st1" cx="42.1" cy="51.2" r="13.4"/>
</g>
<g>
	<circle class="st1" cx="71.1" cy="52.7" r="19.3"/>
</g>
<path class="st1" d="M90,56.8v15.7H10V56.8c0,0,0,0,0,0H90z"/>
<g>
	<path class="st1" d="M43.1,49.1c0,2.8-0.6,5.4-1.8,7.7c-2.8,5.8-8.8,9.8-15.6,9.8c-6.9,0-12.8-4-15.7-9.8c0,0,0,0,0,0V41.4
		c2.8-5.8,8.8-9.8,15.7-9.8C35.3,31.7,43.1,39.5,43.1,49.1z"/>
</g>
<rect x="10" y="65.7" class="st2" width="80" height="7.1"/>
<g>
	<path class="st3" d="M50.7,69.7c0,0,0.3,2.4,0.1,2.4l-0.9,0.3c-0.1,0.2,0,0.4,0.2,0.4h3c0.2,0,0.4-0.1,0.5-0.3l1-2.4
		C55.2,68.6,50.2,68.3,50.7,69.7z"/>
	<path class="st4" d="M47,50.5c0,0-1.3,4.1-0.1,6.2c1.1,2.2,4,2,4,2l0.2-3c0,0-3.5,0.2-2.9-5.5L47,50.5z"/>
	<path class="st4" d="M62,50.1c0,0,1.6,3.9,0.7,6.2s-3.8,2.4-3.8,2.4l-0.5-3c0,0,3.5-0.2,2.4-5.7L62,50.1z"/>
	<path class="st5" d="M48.9,49.1c-0.3,0-0.5,0.2-0.8,0.4c0-0.1,0.4-1.5,0-1.6c-0.3,0.1-0.5,0.4-0.5,0.8c0-0.3,0-0.5-0.1-0.7
		c-0.3-0.3-0.5,0.7-0.5,0.8c0,0.1-0.1-1-0.4-0.5c-0.5,0.8,0,2.7,1,2.7C48,50.9,49.4,49,48.9,49.1z"/>
	<path class="st5" d="M59.9,48.9c0.3,0,0.5,0.1,0.8,0.3c0-0.1-0.6-1.5-0.1-1.6c0.3,0.1,0.5,0.4,0.6,0.7c-0.1-0.3,0-0.5,0.1-0.7
		c0.2-0.3,0.6,0.7,0.6,0.8c0,0.1,0-1,0.3-0.5c0.6,0.7,0.2,2.7-0.7,2.8C61,50.6,59.4,48.8,59.9,48.9z"/>
	<path class="st3" d="M60.6,58.6c-0.7-1.9-1.3-3.6-1.8-4.9c-0.1-0.3-0.1-1,0.1-1.1c0,0,0.8,0.4,1.1,0.2c0.2-0.2,0.2-0.5,0.2-0.7
		c0.3,0.3,0.7,0.3,1,0c0.3-0.3,0.3-0.7,0-1c0,0-1.8-1.9-1.9-2c0.3-0.8,0.8-2.2,0.1-2.7c-0.6-0.6-1.8,0.8-2.3,1.5
		c-1.3-0.4-4.3-0.5-5.2,0c-0.5-0.7-1.5-2-2.4-1.7c-0.9,0.3-0.3,2.1,0.1,3c-0.4,0.4-2,2.8-2,2.8c-0.2,0.3-0.1,0.7,0.2,0.9
		c0.3,0.2,0.7,0.1,0.9-0.1c-0.1,0.2,0,0.5,0.3,0.7c0.3,0.2,0.7,0.1,1-0.2l0,0c0.3,0.2,0.5,0.9,0.4,1.2c-0.8,3.2-2.8,6.3-2.4,10.4
		c0.4,4.8,3.8,6.3,9.3,5.8S62.3,62.9,60.6,58.6z"/>
	<path class="st4" d="M63.3,69c-1.1-0.3-2.2-1-2.9-1.6c-0.4-0.4-0.8-0.8-1.3-1.1c-1.1-0.8-3.2-1.2-3.3,0.7c0,0.6,0.1,1.3,0.4,1.8
		c1,2.3,3.3,3.8,5.8,4.4c1.9,0.4,3.9,0.5,5.8,0c0.9-0.2,1.6-0.7,2.4-1c0.8-0.4,2,0,2.8,0.2c1,0.2,2.2,0.3,2.9-0.4
		c0.7-0.6,0.9-1.6,0.6-2.5c-0.3-0.9-1-1.5-1.7-2c-0.9-0.6-2-0.9-3-0.9c-1.1,0-1.8,0.2-2.7,0.7c-0.8,0.5-1.6,1-2.4,1.4
		c-0.7,0.3-1.4,0.6-2.1,0.6C64.2,69.2,63.7,69.1,63.3,69z"/>
	<g>
		<defs>
			<path id="SVGID_7_" d="M63.3,69c-1.1-0.3-2.2-1-2.9-1.6c-0.4-0.4-0.8-0.8-1.3-1.1c-1.1-0.8-3.2-1.2-3.3,0.7
				c0,0.6,0.1,1.3,0.4,1.8c1,2.3,3.3,3.8,5.8,4.4c1.9,0.4,3.9,0.5,5.8,0c0.9-0.2,1.6-0.7,2.4-1c0.8-0.4,2,0,2.8,0.2
				c1,0.2,2.2,0.3,2.9-0.4c0.7-0.6,0.9-1.6,0.6-2.5c-0.3-0.9-1-1.5-1.7-2c-0.9-0.6-2-0.9-3-0.9c-1.1,0-1.8,0.2-2.7,0.7
				c-0.8,0.5-1.6,1-2.4,1.4c-0.7,0.3-1.4,0.6-2.1,0.6C64.2,69.2,63.7,69.1,63.3,69z"/>
		</defs>
		<clipPath id="SVGID_1_">
			<use xlink:href="#SVGID_7_"  style="overflow:visible;"/>
		</clipPath>
		<g class="st6">
			<path class="st5" d="M74.5,70c1.5-1.5,2.5,0.6,2.5,0.9c0.2,1.4-2.1,1.9-2.5,1.5C73.9,71.7,73.9,70.6,74.5,70z"/>
			<path class="st5" d="M74,65.7c0.5-0.2,1.4,1.7,0.9,1.9c-0.9,0.4-1.7,1.2-2,2.1c-0.1,0.2-0.2,1.1-0.2,1.3c0.1,0.5-0.3,3.5-1.2,2.5
				C69.2,71,71.1,66.9,74,65.7z"/>
			<path class="st5" d="M66.8,69.6c0.1-2.9,3-4.2,3.1-3.7c0.1,0.5-1.2,1.9-0.9,4c0.1,1.1,0.5,2.1,1.1,3.1c0.3,0.5-1.6,1.5-1.9,1
				C67.3,72.7,66.7,71.2,66.8,69.6z"/>
			<path class="st5" d="M63.5,75c-1.4-2.8-1-6.1,1-8.4l1.5,1.6c-0.6,0.7-1,1.8-1.1,2.8c-0.1,1.1,0.1,2.2,0.6,3.1L63.5,75z"/>
			<path class="st5" d="M57.8,73c0.5-2.7,2-5.2,4.3-6.9l1.4,1.7c0,0-3.1,3.2-3.5,5.4L57.8,73z"/>
			<path class="st5" d="M54.4,69.7c1.1-2.5,3.2-4.6,5.8-5.6c0.5-0.2,1.5,1.7,0.9,1.9c-2.1,0.8-3.8,2.4-4.7,4.4
				C56.2,70.9,54.2,70.2,54.4,69.7z"/>
		</g>
	</g>
</g>
<g>
	<path class="st7" d="M19.3,68.3C19.3,68.3,19.2,68.3,19.3,68.3c0.6,1.3,1.5,3.3,1.5,3.3s1.4,0.7,1.5,1.2h-3l-3.3-5.5
		c-0.1-0.3,8.9-13.8,9.9-9.6C27.3,64.2,22.1,67.3,19.3,68.3z"/>
	<path class="st7" d="M16.2,67.8c-0.2-0.2-0.3-0.4-0.3-0.6L16.2,67.8z"/>
	<path class="st7" d="M34,65.7c-1,3.5-2.2,5.9-2.2,5.9s1.7,0.9,1.7,1.2h-3.8c0.2-2.8,2-14.3,2-14.3l4-4.1
		C35.8,58.4,34.9,62.5,34,65.7z"/>
	<path class="st8" d="M47.2,45.4c-1.3,1.4-2.7,2.9-5.4,3.4c-0.2,1.3-0.8,7.5-5.6,10.5c0,0,2.4,12.2,2.4,12.2s1.7,0.9,1.7,1.2h-3.8
		c-0.9-2.1-2-4.9-2.9-7.4c-0.5-1.4-1-2.8-1.4-3.8c-0.5,0.4-1.2,0.6-1.8,0.7l-5.8,0.3c-2,4.1-7,4.9-10.1,4.7c0.5,1.5,1.4,4.4,1.4,4.4
		s1.4,0.7,1.5,1.2h-3l-3.2-6.8l0,0c-0.3-0.4-0.2-0.8,0.1-1.1c0.6-0.4,0.9-0.2,2.9-0.9c-2.2-3.5-1.4-7.9,1.6-10c0,0,0,0,0,0
		c0.4-0.2,0.7-0.4,1-0.6c0,0,0.1,0,0.1-0.1c2.2-1.2,3.6-1.2,8.7-1.6c4.8-0.4,7.6-5,7.6-5.1c0,0,0,0,0,0v0l-1.3-5
		c-0.1-0.3,0.2-0.5,0.4-0.3l2.7,2.1l1-3.2c0.1-0.3,0.6-0.4,0.7,0l1.4,3.3c0.7,0.1,4.1,0.4,6.3,0.3c0.8,0,1.6-0.1,2.3-0.2
		C47.8,43.5,48.3,44.2,47.2,45.4z"/>
	<path class="st9" d="M47.8,44.5c-0.1,0.3-0.3,0.6-0.6,0.9c-1.2,1.5-2.7,2.9-5.4,3.4c-0.2,1.2-0.7,7.4-5.3,10.3
		c-1-2.8,2.6-5.9,3.8-11.1c4.4-0.8,7.5-3.7,7.5-3.7L47.8,44.5z"/>
	<path class="st8" d="M16.8,53.3c-0.3,0.2-0.7,0.4-1,0.6C16.1,53.7,16.4,53.5,16.8,53.3z"/>
	<path class="st10" d="M36.1,48.2c-0.3,0.3-0.3,0.7-0.1,1v0c0.8,0.8,1.7-0.6,1.7-0.6c-0.2,0.6,0.1,1,0.1,1c0.4,0.3,0.8,0.2,1-0.1"/>
	<path class="st5" d="M47.8,44.5c0,0,0,0.1,0,0.1c-0.3,0.1-0.7,0.2-1,0.2c-0.9,0-1.7-0.4-2.2-1c0.8,0,1.6-0.1,2.3-0.2
		C47.8,43.5,48,43.9,47.8,44.5z"/>
	<ellipse transform="matrix(0.6358 -0.7719 0.7719 0.6358 -19.8938 51.7181)" class="st11" cx="44.9" cy="46.9" rx="0.4" ry="0.2"/>
	<g>
		<defs>
			<path id="SVGID_13_" d="M40.8,45.8h-1.6c-0.4,0-0.7-0.3-0.7-0.7l0,0c0-0.4,0.3-0.7,0.7-0.7h1.6c0.4,0,0.7,0.3,0.7,0.7l0,0
				C41.5,45.5,41.2,45.8,40.8,45.8z"/>
		</defs>
		<clipPath id="SVGID_2_">
			<use xlink:href="#SVGID_13_"  style="overflow:visible;"/>
		</clipPath>
		<path class="st12" d="M40.8,45.8h-1.6c-0.4,0-0.7-0.3-0.7-0.7l0,0c0-0.4,0.3-0.7,0.7-0.7h1.6c0.4,0,0.7,0.3,0.7,0.7l0,0
			C41.5,45.5,41.2,45.8,40.8,45.8z"/>
		<circle class="st13" cx="41" cy="45.1" r="0.9"/>
	</g>
	<path class="st10" d="M38.5,44.4c0,0,1.1-0.6,2.1-0.6l-0.2-0.5C40.3,43.3,39,43.4,38.5,44.4z"/>
	<path class="st9" d="M38.6,71.6c0,0-0.6-2.5-1.2-6.1c0,0-0.1,0.1-0.1,0.1c-0.4,0.4-2.5,2.5-2.6,2.7c0.6,1.7,1.3,3.3,1.8,4.6h3.8
		C40.3,72.2,38.6,71.6,38.6,71.6z"/>
	<path class="st9" d="M15.1,68.6c0.5,1.4,0.9,3,0.9,3s1.4,0.6,1.5,1.2h-3l-1.7-3.5C12.9,69.2,15,68.6,15.1,68.6z"/>
	<path class="st14" d="M24.7,62.4c0.6-1.5,0.7-3.1,0.3-4.9c-0.5-2-1.7-3.8-3.5-4.5"/>
	<path class="st8" d="M17.3,54.7c0,0-6-2.2-5.7-7.8c0.3-5.6,5-8.4,11.3-11c6.3-2.6,3.7-5.3,3.1-6c3.3-0.6,7.1,0.3,7.9,4.6
		c0.9,5-4.6,8.6-11.9,10.9S17.3,54.7,17.3,54.7z"/>
	<g>
		<defs>
			<path id="SVGID_15_" d="M17,53.6c0.1,0.4-0.4,0.8-0.8,0.6c-1.7-0.9-4.9-3.2-4.6-7.3c0.3-5.6,5-8.4,11.3-11c4.9-2,4.4-4.1,3.7-5.3
				C26.5,30.6,26,30,26,30s0.7-0.1,1-0.1c3.1-0.3,6.2,0.9,6.9,4.7c0.9,5-4.6,8.6-11.9,10.9C16.5,47.1,16.6,51.6,17,53.6z"/>
		</defs>
		<clipPath id="SVGID_3_">
			<use xlink:href="#SVGID_15_"  style="overflow:visible;"/>
		</clipPath>
		<path class="st15" d="M26.5,26.5c21.9,2.5,3.6,15.8,3.6,15.8c-0.8,0.5-3.2-0.3-2.5-2.2c0,0-3.4-0.3-2.5-2.5L26,37
			C21.4,36.9,25.7,26.4,26.5,26.5z"/>
	</g>
</g>
</svg>
