<?xml version="1.0" encoding="utf-8"?>
<!-- Generator: Adobe Illustrator 22.1.0, SVG Export Plug-In . SVG Version: 6.00 Build 0)  -->
<svg version="1.1" id="Layer_1" xmlns="http://www.w3.org/2000/svg" xmlns:xlink="http://www.w3.org/1999/xlink" x="0px" y="0px"
	 viewBox="0 0 100 100" style="enable-background:new 0 0 100 100;" xml:space="preserve">
<style type="text/css">
	.st0{fill:none;}
	.st1{fill:#8896C7;}
	.st2{fill:#5777B9;}
	.st3{fill:#191E39;}
	.st4{fill:#8FCFAF;}
	.st5{fill:#F99E4D;}
	.st6{fill:#E5893C;}
	.st7{fill:none;stroke:#191E39;stroke-width:0.1387;stroke-miterlimit:10;}
	.st8{fill:none;stroke:#191E39;stroke-width:0.1459;stroke-miterlimit:10;}
	.st9{fill:none;stroke:#191E39;stroke-width:1.0213;stroke-miterlimit:10;}
	.st10{fill:#FBB475;}
	.st11{fill:none;stroke:#000000;stroke-width:9.648627e-02;stroke-miterlimit:10;}
	.st12{fill:#3E5CAA;}
	.st13{fill:#565DA9;}
	.st14{fill:none;stroke:#000000;stroke-width:0.1241;stroke-miterlimit:10;}
	.st15{fill:#353890;}
</style>
<path class="st0" d="M90,10v80H10V56.8c0,0,0,0,0,0V10H90z"/>
<g>
	<g>
	</g>
</g>
<g>
	<path class="st1" d="M80,63.6c3.5-4.4,5.6-10,5.6-16.1C85.6,30,70.9,16.8,51,22.9C41.7,25.7,31.9,39.2,30.7,41L80,63.6z"/>
	<path class="st1" d="M51.2,73.8c0,0-35.5-6.4-37.1-10.6c-1-2.6-1.5-5.5-1.5-8.5c0-15.4,11.1-24.1,24-24
		C67.1,30.9,51.3,73.8,51.2,73.8z"/>
	<path class="st1" d="M82.4,35.1c3.5,0.4,6.6,2,9,4.2v23.9c-0.3,0.3-0.7,0.6-1.1,0.9c-6.9,2.8-8.8-29.1-8.2-29
		C82.3,35.1,82.3,35.1,82.4,35.1z"/>
</g>
<circle class="st2" cx="57.4" cy="40" r="13.6"/>
<g>
	<circle class="st3" cx="51.8" cy="34.9" r="2.7"/>
	<circle class="st3" cx="51.8" cy="34.9" r="2.7"/>
	<g>
		<defs>
			<circle id="SVGID_7_" cx="51.8" cy="34.9" r="2.7"/>
		</defs>
		<clipPath id="SVGID_1_">
			<use xlink:href="#SVGID_7_"  style="overflow:visible;"/>
		</clipPath>
	</g>
</g>
<circle class="st3" cx="62.5" cy="36.4" r="3.3"/>
<circle class="st3" cx="61.8" cy="39.3" r="2.7"/>
<circle class="st3" cx="60" cy="41.4" r="1.5"/>
<path class="st4" d="M47.5,49.3c-0.1-1.9,0.9-3.6,2.7-3.9l13.8-0.6c1.8,0.1,3.3,1.6,3.4,3.5L47.5,49.3z"/>
<path class="st5" d="M54.1,39.4l-0.2,6.1c-0.1,1.4,1.1,2.6,2.5,2.7h0c1.4,0.1,2.6-1.1,2.7-3.3L54.1,39.4z"/>
<polygon class="st3" points="59.4,38.9 59.1,44.9 54,43.2 54,42.9 "/>
<path class="st1" d="M32.8,53.5c0.3-6.7,5.9-11.1,12.5-12c5.3-0.7,10.2,4.4,12,8.2C58.1,51.2,32.8,53.7,32.8,53.5z"/>
<path class="st1" d="M57.5,56.5c0.3-6.7,5.8-12,12.5-12c0.5,0,10.4-0.7,11.3,7.1C81.6,53.2,57.5,56.7,57.5,56.5z"/>
<circle class="st6" cx="53.1" cy="38" r="2.4"/>
<circle class="st5" cx="59.9" cy="38.3" r="2.4"/>
<path class="st5" d="M52.1,32.7l8.1,0L60,40.1l0,0c-0.1,1.9-1.5,3.5-3.4,3.8c-2.2,0.4-4.4-1.2-4.7-3.4
	C51.8,40.1,52.1,32.7,52.1,32.7z"/>
<ellipse class="st7" cx="55.4" cy="40.4" rx="0.3" ry="0.4"/>
<path class="st8" d="M55.2,34.8c0,0,0,2.1-0.7,2.8c-0.4,0.4-0.8,0.8-0.5,1.3c0.3,0.5,1.4,0.3,1.4,0.3"/>
<path class="st3" d="M56.7,37.5L56.7,37.5c0.2,0,0.3-0.1,0.4-0.3l0-0.3c0-0.2-0.1-0.3-0.3-0.4l0,0c-0.2,0-0.3,0.1-0.4,0.3l0,0.3
	C56.4,37.3,56.5,37.5,56.7,37.5z"/>
<path class="st3" d="M53.1,37.2L53.1,37.2c0.2,0,0.3-0.1,0.3-0.3l0-0.3c0-0.2-0.1-0.3-0.3-0.3l0,0c-0.2,0-0.3,0.1-0.3,0.3l0,0.3
	C52.8,37,52.9,37.2,53.1,37.2z"/>
<path class="st9" d="M58.3,36.3c0,0-0.6-1.1-2-0.9"/>
<path class="st9" d="M53.5,35c0,0-1.1-0.1-1.5,0.7"/>
<g>
	<path class="st10" d="M40.6,38.7c-0.6-1.9-2.6-2.9-4.5-2.3l-3.4,1.1l1.1,3.4c0.6,1.9,2.6,2.9,4.5,2.3
		C40.2,42.6,41.3,40.5,40.6,38.7z"/>
	<line class="st11" x1="39.2" y1="40.8" x2="35.6" y2="42.4"/>
	<line class="st11" x1="36.4" y1="39.4" x2="34.1" y2="40.2"/>
	<line class="st11" x1="32.9" y1="37.6" x2="40.4" y2="41.4"/>
	<line class="st11" x1="37.3" y1="39.8" x2="37" y2="36.7"/>
</g>
<g>
	<path class="st5" d="M37.7,41.3c-1.8-0.8-2.6-2.9-1.7-4.7l1.5-3.2l3.2,1.5c1.8,0.8,2.6,2.9,1.7,4.7C41.6,41.3,39.5,42.1,37.7,41.3z
		"/>
	<line class="st11" x1="40" y1="40.1" x2="42" y2="36.7"/>
	<line class="st11" x1="38.9" y1="37.2" x2="40" y2="35"/>
	<line class="st11" x1="37.6" y1="33.5" x2="41.5" y2="44.3"/>
	<line class="st11" x1="39.3" y1="38.1" x2="36.1" y2="37.4"/>
</g>
<circle class="st3" cx="61.3" cy="33" r="3.3"/>
<circle class="st3" cx="57.9" cy="31.2" r="2.7"/>
<circle class="st3" cx="53.9" cy="31.5" r="3"/>
<circle class="st3" cx="60.5" cy="36.7" r="1.7"/>
<g>
	<path class="st5" d="M50.6,40.9l-0.8-0.5C49,39.8,48,40,47.5,40.7c-0.1,0.1-1.7,2.3-1.7,2.3c-1,1.1,2.5,3.4,3.2,2.6l1-1.3
		c0,0.3,0.3,0.6,0.6,0.6C51.6,44.8,51.1,41.2,50.6,40.9z"/>
	<line class="st8" x1="46.1" y1="44.3" x2="47.4" y2="42.6"/>
	<line class="st8" x1="46.8" y1="45" x2="48.1" y2="43.4"/>
	<line class="st8" x1="47.7" y1="45.5" x2="49" y2="43.8"/>
</g>
<g>
	<path class="st5" d="M68.8,44.4c0,0-2.2-4.2-3.8-2.8l-0.8,0.5c-0.5,0.3-0.9,3.3-0.9,3.3c-0.5,1.9,1,1.8,1.2,0.1l1,1.3
		C66.6,48.5,69.7,45.6,68.8,44.4z"/>
	<line class="st8" x1="68.6" y1="46" x2="67.4" y2="44.3"/>
	<line class="st8" x1="67.9" y1="46.8" x2="66.6" y2="45.1"/>
	<line class="st8" x1="66.9" y1="47.2" x2="65.7" y2="45.5"/>
</g>
<g>
	<circle class="st12" cx="41.2" cy="55.8" r="12"/>
	<circle class="st12" cx="56.6" cy="60.2" r="12"/>
	<path class="st12" d="M91.9,55.7c0,0-1.2,19.5-1.9,20.2c0,0-26.4-14.3-25.9-15.8c0.5-1.5,4.6-7.5,6.2-8.4
		C80.7,45.7,90.9,54.3,91.9,55.7z"/>
	<path class="st12" d="M46.1,78.9c0.2-1.2,0.4-2.3,0.4-3.6c0-10-8.1-18.1-18.1-18.1s-18.1,8.1-18.1,18.1c0,1.2,0.1,2.4,0.4,3.6H46.1
		z"/>
	<polygon class="st12" points="91.9,55.7 91.9,78.9 21.3,78.9 21.3,60.2 	"/>
</g>
<g>
	<path class="st13" d="M71,31.3c5.4-2.4,0.4-10.3,0.4-10.3s-8.3,2.5-6.5,8C65.8,31.5,68.7,32.4,71,31.3z"/>
	<line class="st14" x1="68.1" y1="29.8" x2="65.6" y2="25.4"/>
	<line class="st14" x1="69.6" y1="26.1" x2="68.2" y2="23.2"/>
	<line class="st14" x1="71.3" y1="21.3" x2="67.6" y2="31.4"/>
	<line class="st14" x1="69.1" y1="27.3" x2="73.1" y2="26.4"/>
</g>
<g>
	<path class="st15" d="M67.3,28c1.3-5.6,10.2-1.4,10.2-1.4s-1.3,8.7-7.3,7.2C67.8,33.2,66.8,30.4,67.3,28z"/>
	<line class="st14" x1="69.1" y1="30.7" x2="73.8" y2="32.8"/>
	<line class="st14" x1="72.7" y1="28.9" x2="75.7" y2="30"/>
	<line class="st14" x1="77.3" y1="26.7" x2="67.6" y2="31.4"/>
	<line class="st14" x1="71.6" y1="29.5" x2="72" y2="25.4"/>
</g>
<path class="st1" d="M80.4,63.6"/>
</svg>
