<?xml version="1.0" encoding="utf-8"?>
<!-- Generator: Adobe Illustrator 22.1.0, SVG Export Plug-In . SVG Version: 6.00 Build 0)  -->
<svg version="1.1" id="Layer_1" xmlns="http://www.w3.org/2000/svg" xmlns:xlink="http://www.w3.org/1999/xlink" x="0px" y="0px"
	 viewBox="0 0 100 100" style="enable-background:new 0 0 100 100;" xml:space="preserve">
<style type="text/css">
	.st0{fill:#F26D60;}
	.st1{fill:#F99E4E;}
	.st2{fill:#191D38;}
	.st3{fill:#FDC460;}
	.st4{fill:#C8CEE0;}
	.st5{fill:#F9EEE2;}
	.st6{fill:none;stroke:#191D38;stroke-width:7.099974e-02;stroke-linejoin:round;stroke-miterlimit:10;}
	.st7{fill:#FDC460;stroke:#191D38;stroke-width:7.099974e-02;stroke-linejoin:round;stroke-miterlimit:10;}
	.st8{fill:#FBB475;}
	.st9{fill:#FCCEB0;}
	.st10{fill:#F9EEE2;stroke:#191D38;stroke-width:6.778491e-02;stroke-miterlimit:10;}
	.st11{fill:none;stroke:#191D38;stroke-miterlimit:10;}
	.st12{fill:none;}
</style>
<g>
	<g>
	</g>
</g>
<g>
	<path class="st0" d="M70.5,62.9l2.7,9.7L88.7,63c0.4-0.2,0.6-0.7,0.6-1.1V57C89.3,51,70.5,62.9,70.5,62.9z"/>
	<path class="st1" d="M77.2,52.2l-15.9,7.5l11.4,4.1c0.9,0.3,1.9,0.3,2.8-0.2l12.6-7.2c0.4-0.2,0.4-0.9-0.1-1L77.2,52.2z"/>
	<path class="st2" d="M26,60.4c2.1,0.1,4.4-1.6,5-3.7C31.6,54.6,23.8,60.3,26,60.4z"/>
	<path class="st2" d="M57.9,71.7c2.1,0.1,4.4-1.6,5-3.7S55.7,71.6,57.9,71.7z"/>
	<path class="st1" d="M12.2,42.5l17-4.4c1.6-0.3,4.5,0.6,5.1,0.7l-7.7,8.4L12.2,42.5z"/>
	<g>
		<polygon class="st0" points="12.5,42.4 34.7,39.8 26.6,48.4 		"/>
	</g>
	<path class="st1" d="M46.4,34.7c1.2-0.3,24.8,6.6,24.8,6.6c0.9,0.3,1.7,1,2.1,1.9l4.1,9.3l-16,7.1L30.8,39.2L46.4,34.7z"/>
	<polygon class="st0" points="62.2,59.4 77.2,52.2 85.8,54.7 	"/>
	<path class="st3" d="M13.2,51.5l59.1,21c2.6,1.6,2.2-8.3,1.2-8.6L13.2,42.5c-2.6-1.2-1.7,6.6-1.7,6.6
		C11.5,50.1,12.3,51.2,13.2,51.5z"/>
	<path class="st3" d="M25.4,49.6l36.8,13.1l-3.5-11.9c-0.4-1.3-1.4-2.4-2.6-2.9l-23.9-8.5c-1.6-0.6-3.1,0-3.6,1.4L25.4,49.6z"/>
	<path class="st4" d="M28,47.8l2-5.5c0.4-1,1.4-1.4,2.6-1l22.2,7.9c0.6,0.2,1.2,0.9,1.4,1.6l2.3,7.9L28,47.8z"/>
	<path class="st5" d="M33.6,49.8l-5.7-2l1.5-4C29.7,44.3,32.5,48.3,33.6,49.8z"/>
	<path class="st5" d="M30.8,41.3l7.1,10l-1.4-0.5c-2.1-3-4.2-5.9-6.3-8.9C30.3,41.7,30.5,41.5,30.8,41.3z"/>
	<path class="st5" d="M38.1,43.3l6.8,2.4c0.8,1.1,5.9,8.3,7.8,10.9l-6.8-2.4C43.3,50.5,40.7,46.9,38.1,43.3z"/>
	<path class="st5" d="M49.8,47.4l5,1.8c0.6,0.2,1.2,0.9,1.4,1.6l2.3,7.9l-1-0.3L49.8,47.4z"/>
	<polygon class="st3" points="42.8,54.1 44.3,54.6 44.3,45 42.8,44.5 	"/>
	<line class="st6" x1="44.3" y1="45.5" x2="44.3" y2="62.6"/>
	<ellipse transform="matrix(0.8117 -0.5841 0.5841 0.8117 -28.4552 45.5947)" class="st2" cx="56.5" cy="66.9" rx="3.7" ry="5.2"/>
	<ellipse transform="matrix(0.8117 -0.5841 0.5841 0.8117 -28.4552 45.5947)" class="st4" cx="56.5" cy="66.9" rx="2.2" ry="3.1"/>
	<ellipse transform="matrix(0.8117 -0.5841 0.5841 0.8117 -28.4552 45.5947)" class="st6" cx="56.5" cy="66.9" rx="1.2" ry="1.7"/>
	<path class="st6" d="M62.2,69c0-3.3-2.6-7-5.7-8.1c-3.2-1.1-5.7,0.7-5.7,4"/>
	<ellipse transform="matrix(0.8117 -0.5841 0.5841 0.8117 -27.8426 24.9174)" class="st2" cx="24.7" cy="55.6" rx="3.7" ry="5.2"/>
	<ellipse transform="matrix(0.8117 -0.5841 0.5841 0.8117 -27.8426 24.9174)" class="st4" cx="24.7" cy="55.6" rx="2.2" ry="3.1"/>
	<ellipse transform="matrix(0.8117 -0.5841 0.5841 0.8117 -27.8426 24.9174)" class="st6" cx="24.7" cy="55.6" rx="1.2" ry="1.7"/>
	<path class="st6" d="M30.5,57.7c0-3.3-2.6-7-5.7-8.1s-5.7,0.7-5.7,4"/>
	<path class="st0" d="M73,66.2l1,0.4v1.7l-1-0.4c-0.5-0.2-0.8-0.7-0.8-1.2l0,0C72.2,66.3,72.5,66,73,66.2z"/>
	<path class="st5" d="M14.3,47l-3.1-1.1l0.3-2.3l2.8,1c0.6,0.2,1.1,0.9,1.1,1.6l0,0C15.4,46.9,14.9,47.2,14.3,47z"/>
	<line class="st6" x1="50.8" y1="63.8" x2="30.4" y2="56.5"/>
	<path class="st6" d="M74,66.2l-2.5-0.9c-0.6-0.2-1.1,0.1-1.1,0.8l0,0c0,0.7,0.5,1.4,1.1,1.6l2.5,0.9"/>
	<line class="st6" x1="29" y1="44.9" x2="26.9" y2="50.8"/>
	<ellipse transform="matrix(0.8117 -0.5841 0.5841 0.8117 -24.0758 16.9356)" class="st0" cx="14.2" cy="45.8" rx="0.5" ry="0.7"/>
	<g>
		<path class="st7" d="M41.3,54.4l1.6,0.6c0.2,0.1,0.4,0,0.4-0.3l0,0c0-0.2-0.2-0.5-0.4-0.5l-1.6-0.6c-0.2-0.1-0.4,0-0.4,0.3l0,0
			C40.9,54.1,41.1,54.4,41.3,54.4z"/>
	</g>
	<g>
		<path class="st7" d="M52.2,58.3l1.6,0.6c0.2,0.1,0.4,0,0.4-0.3v0c0-0.2-0.2-0.5-0.4-0.5l-1.6-0.6c-0.2-0.1-0.4,0-0.4,0.3l0,0
			C51.9,58,52,58.2,52.2,58.3z"/>
	</g>
	<polygon class="st0" points="54,42.1 70.1,41 52.8,35.6 	"/>
	<path class="st8" d="M25.3,47.1"/>
	<g>
		<path class="st5" d="M43.7,38.4c0,0,2.6-4.9,2.9-5l0,0l9.4,2.6l-2,6.1L43.7,38.4z"/>
		<path class="st9" d="M54,42.1c0,0,1.9-6.4,2-6.1l1.5,4.6L54,42.1z"/>
		<g>
			<path class="st2" d="M47.9,35.8l-0.7-0.2l0.1-0.2l1.7,0.5l-0.1,0.2l-0.7-0.2l-0.9,1.9L47,37.7L47.9,35.8z"/>
			<path class="st2" d="M48.6,37.5L48,38.1L47.7,38l1.8-1.9l0.4,0.1l-0.3,2.4l-0.3-0.1l0.1-0.8L48.6,37.5z M49.5,37.5
				c0,0,0.1-1,0.2-1.1l0,0c-0.1,0.1-0.8,0.9-0.8,0.9L49.5,37.5z"/>
			<path class="st2" d="M51.2,39.1c0,0-0.1-0.9-0.1-1.1l0,0c-0.1,0.1-1,0.7-1,0.7l-0.3-0.1l1.2-0.9l-0.2-1.3l0.3,0.1
				c0,0,0.1,0.9,0.1,1l0,0c0.1-0.1,0.9-0.7,0.9-0.7l0.3,0.1l-1.2,0.8l0.2,1.3L51.2,39.1z"/>
			<path class="st2" d="M53.4,37.3l-1.1,2.1l-0.3-0.1l1.1-2.1L53.4,37.3z"/>
		</g>
	</g>
	<path class="st1" d="M27.7,48.9l-0.2-2.3c0-0.5-1.1-1.1-1.8-0.9c-0.7,0.3-1.8,0.7-1.8,0.7c-1,0.2-0.7,1.4-0.7,2.1
		C23.1,50.4,27.7,48.9,27.7,48.9z"/>
	<g>
		<path class="st3" d="M25.8,49.6l1.8-0.7c0.4-0.1,0.7-0.6,0.7-1.1v-1c0-0.5-0.9-0.8-1.3-0.7l-1.8,0.7c-0.4,0.1-0.7,0.6-0.7,1.1v1
			C24.5,49.4,25.5,49.7,25.8,49.6z"/>
	</g>
	<path class="st10" d="M25.4,49l1.5-0.5c0.3-0.1,0.5-0.5,0.5-0.8v-0.7c0-0.4-0.2-0.6-0.5-0.4L25.4,47c-0.3,0.1-0.5,0.5-0.5,0.8v0.7
		C24.9,48.9,25.1,49.1,25.4,49z"/>
	<path class="st4" d="M59.3,48.4L62,58l14.2-6.7L72.6,43c-0.2-0.4-0.6-0.5-0.9-0.4l-11.9,4.8C59.4,47.6,59.2,48,59.3,48.4z"/>
	<path class="st5" d="M70.6,43.1c0.6,0.6,1.2,1.1,1.8,1.7c0.5,0.5,1.1,1,1.6,1.5l1.3,3c-2.1-1.9-4.1-3.8-6.2-5.7L70.6,43.1z"/>
	<polygon class="st5" points="60,47.3 65.1,45.3 73.1,52.8 68.3,55 	"/>
	<polygon class="st5" points="67,55.6 62,58 59.4,48.5 	"/>
	<path class="st6" d="M74,68.6l3.5-1.8c0.4-0.2,0.6-0.5,0.6-0.9v0c0-0.8-0.8-1.3-1.6-0.9L74,66.2"/>
	<path class="st1" d="M74,68.3l2.6-1.3c0.3-0.1,0.4-0.4,0.4-0.7l0,0c0-0.6-0.6-1-1.1-0.7l-1.9,1"/>
	<path class="st6" d="M89.3,60.2c-0.7,0.4-1.7,1.4-2.5,0.6c-0.5-0.5-0.3-1.3,0.2-1.6c0.3-0.2,0.6-0.4,0.9-0.6
		c0.5-0.3,0.9-0.6,1.4-0.9"/>
	<path class="st1" d="M89.3,58l-1.4,0.9c-0.5,0.3-0.5,1,0,1.3l0,0c0.2,0.1,0.6,0.1,0.8,0l0.6-0.4V58z"/>
	<polygon class="st1" points="85.4,62.8 79.2,66.3 79.3,63.7 85.5,60.1 	"/>
	<path class="st6" d="M85.7,63l-5.9,3.4c-0.1,0.1-0.3,0-0.3-0.2v-2.1c0-0.1,0-0.1,0.1-0.2l5.9-3.4c0.1-0.1,0.3,0,0.3,0.2v2.1
		C85.8,62.9,85.8,63,85.7,63z"/>
	<line class="st11" x1="30.5" y1="55" x2="50.7" y2="61.9"/>
	<line class="st11" x1="62.1" y1="65.8" x2="73.5" y2="69.7"/>
	<line class="st11" x1="11.7" y1="48.5" x2="19.1" y2="51"/>
</g>
<path class="st12" d="M90,10v80H10V56.8l0,0V10H90z"/>
</svg>
