<?xml version="1.0" encoding="utf-8"?>
<!-- Generator: Adobe Illustrator 22.1.0, SVG Export Plug-In . SVG Version: 6.00 Build 0)  -->
<svg version="1.1" id="Layer_1" xmlns="http://www.w3.org/2000/svg" xmlns:xlink="http://www.w3.org/1999/xlink" x="0px" y="0px"
	 viewBox="0 0 100 100" style="enable-background:new 0 0 100 100;" xml:space="preserve">
<style type="text/css">
	.st0{fill:#F99E4E;}
	.st1{fill:none;}
	.st2{fill:#FDC45F;}
	.st3{clip-path:url(#SVGID_4_);fill:#233E7D;}
	.st4{clip-path:url(#SVGID_4_);fill:#C9CFE1;}
	.st5{fill:#191E39;}
	.st6{fill:#F2974C;}
	.st7{fill:#C9CFE1;}
	.st8{fill:none;stroke:#191E39;stroke-width:0.1773;stroke-linejoin:round;stroke-miterlimit:10;}
	.st9{fill:#FBEFE3;}
	.st10{fill:#F99E4D;}
	.st11{fill:#233E7D;}
	.st12{fill:#FC983E;}
	.st13{fill:none;stroke:#FC983E;stroke-width:4.5656;stroke-linejoin:round;stroke-miterlimit:10;}
	.st14{fill:#9DD5A3;}
	.st15{fill:none;stroke:#191E39;stroke-width:0.181;stroke-miterlimit:10;}
</style>
<g>
	<g>
	</g>
</g>
<g>
	<defs>
		<path id="SVGID_1_" d="M15.1,32.1l34.2-5.9c0,0,11.7,3.7,12.8,4.1L42.6,43.1L15.1,32.1z"/>
	</defs>
	<use xlink:href="#SVGID_1_"  style="overflow:visible;fill:#F26D60;"/>
	<clipPath id="SVGID_2_">
		<use xlink:href="#SVGID_1_"  style="overflow:visible;"/>
	</clipPath>
</g>
<path class="st0" d="M86.9,21.8v21.6L53.1,28.2l28.8-6.5C83.6,21.5,85.2,21.4,86.9,21.8z"/>
<rect x="10" y="10" class="st1" width="80" height="80"/>
<path class="st2" d="M58.3,28.5c-1.9-0.8-3.8-0.9-5.2-0.3c-1.2,0.5-7.7,16.2-7.7,16.2L17.1,32.3c-2-0.9-3.7,0.2-3.7,2.3v11.7
	c0,1.5,0.8,3.1,1.9,4.3c0.4,0.4,71.4,30.9,71.4,30.9V40.7L58.3,28.5z"/>
<g>
	<path class="st2" d="M55.3,31.8L81,42.2v34.2L54.2,65.2c0,0-0.9-7.2-7.5-13l7.4-19.9C54.3,31.9,54.8,31.6,55.3,31.8z"/>
	<g>
		<defs>
			<path id="SVGID_3_" d="M55.3,31.8L81,42.2v34.2L54.2,65.2c0,0-0.9-7.2-7.5-13l7.4-19.9C54.3,31.9,54.8,31.6,55.3,31.8z"/>
		</defs>
		<clipPath id="SVGID_4_">
			<use xlink:href="#SVGID_3_"  style="overflow:visible;"/>
		</clipPath>
		<polygon class="st3" points="83.7,31.8 50.1,43.2 40.3,53 83.3,79 		"/>
		<polygon class="st4" points="49,30 84.8,32.7 45.6,44.8 		"/>
	</g>
</g>
<path class="st5" d="M55.5,65.7c-1.4,4.5-6.2,7.7-10.8,7.2c-8.5-2.2-11.9-9.1-11.9-14.4C32.8,53.2,56.1,63.9,55.5,65.7z"/>
<g>
	<path class="st6" d="M15.4,74.7V47.9c0-0.8,0.6-1.6,1.4-2l21.1-9.7c1.7-0.8,4.4-0.1,4.4-0.1S20,90.8,15.4,74.7z"/>
	<path class="st2" d="M51.3,61.6c0,0.8-0.7,1.8-1.5,2.2L20.5,77.3c-2.1,1-3.9,0.1-3.9-2.1V48.4c0-0.8,0.6-1.6,1.4-2l23.7-10.6
		c0.6,0.2,9.2,5.1,9.2,5.1C51.6,41.4,51.3,61.6,51.3,61.6z"/>
	<path class="st7" d="M50.1,44.2c0,0-0.2-2.2-0.7-2.4l-6.8-4c-0.9-0.5-2.2-0.5-3.5,0.1c0,0-21.3,9.9-21.3,10v11.3L50.1,44.2z"/>
	<path class="st8" d="M49.3,47.3L49.3,47.3c0-0.8-0.7-1.2-1.5-0.8L41,49.6c-0.8,0.4-1.5,1.4-1.5,2.2l0,0c0,0.8,0.7,1.2,1.5,0.8
		l6.8-3.1C48.6,49.1,49.3,48.1,49.3,47.3z"/>
	<path class="st8" d="M17.8,68.3v6.3c0,1.5,1.2,2.1,2.7,1.4l29.4-13.6c0.2-0.1,0.3-0.3,0.3-0.4v-8.7"/>
	<path class="st5" d="M49.6,54.4L18.3,68.9c-1,0.4-0.9-0.9,0-1.2l31.3-14.4C50.5,52.9,50.7,53.9,49.6,54.4z"/>
	<path class="st9" d="M24.4,48c2.7,1.5,5.4,2.9,8.1,4.4l5.4-2.5c-1.8-1-3.6-1.9-5.3-2.9c-2.1-1.1-4.1-2.2-6.2-3.3l-5.3,2.4
		C22.2,46.8,23.3,47.4,24.4,48z"/>
	<path class="st9" d="M17.8,49.6v9.5l9.5-4.4C24.2,53,21,51.3,17.8,49.6z"/>
	<path class="st9" d="M39.1,40.4c3,1.6,5.9,3.2,8.9,4.8l2.1-1v-1.1c0-0.6-0.2-1.1-0.7-1.4l-6.8-4c-0.9-0.5-2.2-0.5-3.5,0.1L36.5,39
		C37.4,39.5,38.3,40,39.1,40.4z"/>
	<polyline class="st8" points="17.8,47.9 17.8,59.2 50.1,44.2 	"/>
</g>
<g>
	<polygon class="st10" points="75.1,81.6 74.2,73 70.3,59.7 74.8,58.7 78.7,72.3 79.8,81.6 	"/>
	<polygon class="st11" points="73.5,81.6 53.1,81.6 54,76.1 72.6,76.1 	"/>
	
		<rect x="60.1" y="46.4" transform="matrix(0.9993 -3.818395e-02 3.818395e-02 0.9993 -1.8456 2.4343)" class="st12" width="5.3" height="6.3"/>
	<polyline class="st13" points="54.5,56.5 47.9,69.1 39.6,65.3 	"/>
	<path class="st14" d="M72.2,63.2l0.3,12.9H54L54.1,64l-5.7-3l3.5-6.5c1.3-2.5,8.5-2.5,8.5-2.5c0.6,0.5,4.3,0.7,5.3,0.1
		c0,0,7.9,0.3,8.5,2.9l2.4,6.8L72.2,63.2z"/>
	<g>
		<polygon class="st12" points="36.4,66 40.9,68.4 42.6,64.2 38.8,61.9 		"/>
	</g>
	<rect x="40.3" y="61" transform="matrix(0.9898 -0.1423 0.1423 0.9898 -8.4864 6.4551)" class="st12" width="1.2" height="3.1"/>
	
		<rect x="37.6" y="59.6" transform="matrix(0.8038 -0.5949 0.5949 0.8038 -29.2364 34.845)" class="st12" width="1.2" height="4.3"/>
	<line class="st15" x1="72.2" y1="63.3" x2="72.1" y2="58.2"/>
	<line class="st15" x1="54.2" y1="62.7" x2="54.5" y2="56.8"/>
	<circle class="st5" cx="67.2" cy="45.4" r="2.9"/>
	<g>
		<circle class="st5" cx="67.7" cy="41.7" r="2.8"/>
		<circle class="st5" cx="67.7" cy="41.7" r="2.8"/>
	</g>
	<circle class="st5" cx="56.8" cy="43.2" r="3.3"/>
	<circle class="st5" cx="59.5" cy="47.2" r="3.4"/>
	<circle class="st5" cx="64.3" cy="48.1" r="2.4"/>
	<circle class="st5" cx="58" cy="39.8" r="3.3"/>
	<circle class="st5" cx="62.1" cy="43" r="6.1"/>
	<circle class="st5" cx="61.5" cy="38" r="2.8"/>
	<circle class="st5" cx="65.6" cy="38.2" r="3.1"/>
</g>
</svg>
