<?xml version="1.0" encoding="utf-8"?>
<!-- Generator: Adobe Illustrator 22.1.0, SVG Export Plug-In . SVG Version: 6.00 Build 0)  -->
<svg version="1.1" id="Layer_1" xmlns="http://www.w3.org/2000/svg" xmlns:xlink="http://www.w3.org/1999/xlink" x="0px" y="0px"
	 viewBox="0 0 100 100" style="enable-background:new 0 0 100 100;" xml:space="preserve">
<style type="text/css">
	.st0{fill:#3A409C;}
	.st1{fill:#5777B9;}
	.st2{fill:#3E5CAA;}
	.st3{fill:none;stroke:#1D4E9F;stroke-width:0.2299;stroke-miterlimit:10;}
	.st4{fill:none;stroke:#1D4E9F;stroke-width:0.2295;stroke-miterlimit:10;}
	.st5{fill:#1D4E9F;}
	.st6{fill:#44B986;}
	.st7{fill:none;stroke:#233E7D;stroke-width:0.1829;stroke-linejoin:round;stroke-miterlimit:10;}
	.st8{fill:#8FCFAF;}
	.st9{fill:none;stroke:#233E7D;stroke-width:0.1455;stroke-linejoin:round;stroke-miterlimit:10;}
	.st10{fill:#F69EA2;}
	.st11{fill:none;stroke:#233E7D;stroke-width:0.1455;stroke-miterlimit:10;}
	.st12{fill:none;}
</style>
<g>
	<g>
	</g>
</g>
<g>
	<path class="st0" d="M91.5,66.5c0,5.2-2.8,9.8-7.1,12.2h-14c-4.2-2.4-7.1-7-7.1-12.2c0-7.8,6.3-14.1,14.1-14.1
		C85.2,52.4,91.5,58.7,91.5,66.5z"/>
	<path class="st0" d="M37.6,66.5c0,5.2-2.9,9.8-7.1,12.2h-14c-4.2-2.4-7.1-7-7.1-12.2c0-7.8,6.3-14.1,14.1-14.1S37.6,58.7,37.6,66.5
		z"/>
	<circle class="st0" cx="29.8" cy="49.3" r="10.7"/>
	<circle class="st0" cx="71.9" cy="50.7" r="10.7"/>
	<polygon class="st1" points="76.6,20.8 76.6,22.6 74.9,22.6 74.9,78.7 28,78.7 28,22.6 26.4,22.6 26.4,20.8 	"/>
	<rect x="33.6" y="25.1" class="st2" width="35.7" height="1.3"/>
	<line class="st3" x1="33.6" y1="25.1" x2="69.4" y2="25.1"/>
	<polygon class="st2" points="30,22.6 33.6,22.6 33.6,78.7 32.7,78.7 	"/>
	<rect x="27.3" y="66.6" class="st1" width="6.3" height="1.8"/>
	<rect x="26.4" y="25.1" class="st1" width="7.2" height="0.8"/>
	<polyline class="st3" points="33.6,78.7 33.6,22.6 35.4,22.6 35.4,20.8 	"/>
	<line class="st3" x1="28.2" y1="66.6" x2="33.7" y2="66.6"/>
	<line class="st3" x1="28.2" y1="68.4" x2="33.7" y2="68.4"/>
	<polygon class="st2" points="71.3,22.6 74.9,22.6 74.9,78.7 74,78.7 	"/>
	<rect x="69.3" y="66.6" class="st1" width="6.3" height="1.8"/>
	
		<rect x="69.3" y="25.1" transform="matrix(-1 4.508293e-11 -4.508293e-11 -1 145.9072 50.8853)" class="st1" width="7.2" height="0.8"/>
	<polyline class="st3" points="67.5,20.8 67.5,22.6 69.3,22.6 69.3,78.7 	"/>
	<line class="st3" x1="74.8" y1="66.6" x2="69.3" y2="66.6"/>
	<line class="st3" x1="74.8" y1="68.4" x2="69.3" y2="68.4"/>
	<g>
		<g>
			<path class="st2" d="M37.2,31.3c0.3-0.3,0.5-0.5,0.9-0.9H49c-0.3-0.3-0.5-0.5-0.9-0.9H37.2c-0.3,0.3-0.5,0.5-0.9,0.9v5.5
				c0.3,0.3,0.5,0.5,0.9,0.9h0c0,0,0,0,0,0V31.3z"/>
		</g>
		<g>
			<path class="st2" d="M37.2,40.4c0.3-0.3,0.5-0.5,0.9-0.9H49c-0.3-0.3-0.5-0.5-0.9-0.9H37.2c-0.3,0.3-0.5,0.5-0.9,0.9v5.5
				c0.3,0.3,0.5,0.5,0.9,0.9h0c0,0,0,0,0,0V40.4z"/>
		</g>
		<g>
			<path class="st2" d="M37.2,49.4c0.3-0.3,0.5-0.5,0.9-0.9H49c-0.3-0.3-0.5-0.5-0.9-0.9H37.2c-0.3,0.3-0.5,0.5-0.9,0.9V54
				c0.3,0.3,0.5,0.5,0.9,0.9h0c0,0,0,0,0,0V49.4z"/>
		</g>
		<g>
			<path class="st2" d="M37.2,58.4c0.3-0.3,0.5-0.5,0.9-0.9H49c-0.3-0.3-0.5-0.5-0.9-0.9H37.2c-0.3,0.3-0.5,0.5-0.9,0.9V63
				c0.3,0.3,0.5,0.5,0.9,0.9h0c0,0,0,0,0,0V58.4z"/>
		</g>
		<g>
			<path class="st2" d="M37.2,67.4c0.3-0.3,0.5-0.5,0.9-0.9H49c-0.3-0.3-0.5-0.5-0.9-0.9H37.2c-0.3,0.3-0.5,0.5-0.9,0.9V72
				c0.3,0.3,0.5,0.5,0.9,0.9h0c0,0,0,0,0,0V67.4z"/>
		</g>
	</g>
	<g>
		<path class="st3" d="M37.3,36.8h10.9c0.3-0.3,0.5-0.5,0.9-0.9v-5.5c-0.3-0.3-0.5-0.5-0.9-0.9H37.3c-0.3,0.3-0.5,0.5-0.9,0.9v5.5
			C36.7,36.2,36.9,36.4,37.3,36.8z"/>
		<path class="st3" d="M37.3,45.8h10.9c0.3-0.3,0.5-0.5,0.9-0.9v-5.5c-0.3-0.3-0.5-0.5-0.9-0.9H37.3c-0.3,0.3-0.5,0.5-0.9,0.9v5.5
			C36.7,45.3,36.9,45.5,37.3,45.8z"/>
		<path class="st3" d="M37.3,54.9h10.9c0.3-0.3,0.5-0.5,0.9-0.9v-5.5c-0.3-0.3-0.5-0.5-0.9-0.9H37.3c-0.3,0.3-0.5,0.5-0.9,0.9V54
			C36.7,54.3,36.9,54.5,37.3,54.9z"/>
		<path class="st3" d="M37.3,63.9h10.9c0.3-0.3,0.5-0.5,0.9-0.9v-5.5c-0.3-0.3-0.5-0.5-0.9-0.9H37.3c-0.3,0.3-0.5,0.5-0.9,0.9V63
			C36.7,63.3,36.9,63.5,37.3,63.9z"/>
		<path class="st3" d="M37.3,72.9h10.9c0.3-0.3,0.5-0.5,0.9-0.9v-5.5c-0.3-0.3-0.5-0.5-0.9-0.9H37.3c-0.3,0.3-0.5,0.5-0.9,0.9V72
			C36.7,72.4,36.9,72.6,37.3,72.9z"/>
	</g>
	<g>
		<g>
			<g>
				<path class="st2" d="M54.7,31.3c0.3-0.3,0.5-0.5,0.9-0.9h10.9c-0.3-0.3-0.5-0.5-0.9-0.9H54.7c-0.3,0.3-0.5,0.5-0.9,0.9v5.4
					c0.3,0.3,0.5,0.5,0.9,0.9h0c0,0,0,0,0,0V31.3z"/>
			</g>
			<g>
				<path class="st2" d="M54.7,40.3c0.3-0.3,0.5-0.5,0.9-0.9h10.9c-0.3-0.3-0.5-0.5-0.9-0.9H54.7c-0.3,0.3-0.5,0.5-0.9,0.9v5.4
					c0.3,0.3,0.5,0.5,0.9,0.9h0c0,0,0,0,0,0V40.3z"/>
			</g>
			<g>
				<path class="st2" d="M54.7,49.3c0.3-0.3,0.5-0.5,0.9-0.9h10.9c-0.3-0.3-0.5-0.5-0.9-0.9H54.7c-0.3,0.3-0.5,0.5-0.9,0.9v5.4
					c0.3,0.3,0.5,0.5,0.9,0.9h0c0,0,0,0,0,0V49.3z"/>
			</g>
			<g>
				<path class="st2" d="M54.7,58.3c0.3-0.3,0.5-0.5,0.9-0.9h10.9c-0.3-0.3-0.5-0.5-0.9-0.9H54.7c-0.3,0.3-0.5,0.5-0.9,0.9v5.4
					c0.3,0.3,0.5,0.5,0.9,0.9h0c0,0,0,0,0,0V58.3z"/>
			</g>
			<g>
				<path class="st2" d="M54.7,67.3c0.3-0.3,0.5-0.5,0.9-0.9h10.9c-0.3-0.3-0.5-0.5-0.9-0.9H54.7c-0.3,0.3-0.5,0.5-0.9,0.9v5.4
					c0.3,0.3,0.5,0.5,0.9,0.9h0c0,0,0,0,0,0V67.3z"/>
			</g>
		</g>
		<g>
			<path class="st4" d="M54.7,36.8h10.9c0.3-0.3,0.5-0.5,0.9-0.9v-5.4c-0.3-0.3-0.5-0.5-0.9-0.9H54.7c-0.3,0.3-0.5,0.5-0.9,0.9v5.4
				C54.2,36.2,54.4,36.4,54.7,36.8z"/>
			<path class="st4" d="M54.7,45.7h10.9c0.3-0.3,0.5-0.5,0.9-0.9v-5.4c-0.3-0.3-0.5-0.5-0.9-0.9H54.7c-0.3,0.3-0.5,0.5-0.9,0.9v5.4
				C54.2,45.2,54.4,45.4,54.7,45.7z"/>
			<path class="st4" d="M54.7,54.7h10.9c0.3-0.3,0.5-0.5,0.9-0.9v-5.4c-0.3-0.3-0.5-0.5-0.9-0.9H54.7c-0.3,0.3-0.5,0.5-0.9,0.9v5.4
				C54.2,54.2,54.4,54.4,54.7,54.7z"/>
			<path class="st4" d="M54.7,63.7h10.9c0.3-0.3,0.5-0.5,0.9-0.9v-5.4c-0.3-0.3-0.5-0.5-0.9-0.9H54.7c-0.3,0.3-0.5,0.5-0.9,0.9v5.4
				C54.2,63.2,54.4,63.4,54.7,63.7z"/>
			<path class="st4" d="M54.7,72.7h10.9c0.3-0.3,0.5-0.5,0.9-0.9v-5.4c-0.3-0.3-0.5-0.5-0.9-0.9H54.7c-0.3,0.3-0.5,0.5-0.9,0.9v5.4
				C54.2,72.2,54.4,72.4,54.7,72.7z"/>
		</g>
	</g>
	<rect x="49.4" y="47.9" class="st5" width="1.7" height="6.8"/>
	<path class="st6" d="M23.8,78.9l1.3-9.1c0.2-1.6,2.1-2.5,3.5-1.7h0c1.2,0.7,1.6,2.3,0.8,3.4l-5.2,7.7
		C24.2,79.3,23.8,79.2,23.8,78.9z"/>
	<line class="st7" x1="28.1" y1="68.3" x2="24.2" y2="78.9"/>
	<path class="st8" d="M23.9,78.8l4.4-6.8c0.8-1.2,2.6-1.3,3.4-0.1l0,0c0.7,1,0.5,2.4-0.6,3l-6.9,4.2C24,79.3,23.8,79,23.9,78.8z"/>
	<line class="st7" x1="30.8" y1="72.3" x2="24.2" y2="78.9"/>
	<path class="st6" d="M23.7,79.1l-11-10.3c-0.9-0.9-0.9-2.4,0-3.2l0,0c1-0.9,2.6-0.7,3.3,0.5l8,12.8C24.1,79.1,23.8,79.3,23.7,79.1z
		"/>
	<line class="st9" x1="12.8" y1="65.6" x2="23.8" y2="79.2"/>
	<circle class="st10" cx="21.4" cy="60.6" r="1.6"/>
	<circle class="st10" cx="20.2" cy="56.8" r="1.2"/>
	<circle class="st10" cx="22.7" cy="64.8" r="1.9"/>
	<path class="st11" d="M20,56.4c0,0,4.4,7,3.9,22.6"/>
	<path class="st8" d="M23.7,79.1l-5.3-8.9c-0.5-0.8-0.1-1.8,0.7-2.1h0c0.8-0.4,1.8,0.1,2,0.9l3,9.9C24.1,79.2,23.8,79.3,23.7,79.1z"
		/>
	<line class="st9" x1="19.2" y1="68.4" x2="23.9" y2="79"/>
	<line class="st3" x1="51.5" y1="26.4" x2="51.5" y2="78.7"/>
</g>
<rect x="10" y="10" class="st12" width="80" height="80"/>
</svg>
