<?xml version="1.0" encoding="utf-8"?>
<!-- Generator: Adobe Illustrator 22.1.0, SVG Export Plug-In . SVG Version: 6.00 Build 0)  -->
<svg version="1.1" id="Layer_1" xmlns="http://www.w3.org/2000/svg" xmlns:xlink="http://www.w3.org/1999/xlink" x="0px" y="0px"
	 viewBox="0 0 100 100" style="enable-background:new 0 0 100 100;" xml:space="preserve">
<style type="text/css">
	.st0{fill:#3E5CAA;}
	.st1{fill:none;}
	.st2{fill:#FFD215;}
	.st3{fill:#323792;}
	.st4{fill:none;stroke:#44B986;stroke-width:0.7771;stroke-linecap:round;stroke-miterlimit:10;}
	.st5{fill:#FC8E3A;}
	.st6{fill:none;stroke:#000000;stroke-width:0.1518;stroke-miterlimit:10;}
	.st7{fill:#5777B9;}
	.st8{fill:#F34B6C;}
	.st9{fill:#1A268A;}
	.st10{fill:none;stroke:#FBEFE3;stroke-width:9.521643e-02;stroke-miterlimit:10;}
	.st11{fill:none;stroke:#F99E4D;stroke-width:9.0006;stroke-miterlimit:10;}
	.st12{fill:#F99E4D;}
	.st13{fill:none;stroke:#191E39;stroke-width:0.1565;stroke-miterlimit:10;}
</style>
<path class="st0" d="M19.7,65.9c-2.8-10.3-2.3-22.9-4.4-33.5C13.1,21.1,17,13.5,30.5,12.6c10.1-0.7,21.6,5.7,31.4,7.8
	c11,2.4,19.9,5.1,23.5,17.6c3.3,11.2-2.9,13-7.8,21.7c-4.2,7.2-1.4,16.3-7.9,22.5C55.1,96,24.6,83.7,19.7,65.9z"/>
<rect x="10" y="10" class="st1" width="80" height="80"/>
<g>
	<path class="st2" d="M48.7,36.7c-0.2-1.5-2.9-3.2-4.7-1.6c-0.2-0.9-1.9-0.7-1.7,0.5c-2.5-0.4-3.6,2.2-3.2,3.7c0,0-3.6,8.1,4.1,6.9
		c0.4-0.1,0.8-0.3,1.1-0.5c-0.1,1,1,1.7,1.6,1.6L50.6,64l-1.5,0.4l0.3,0.9l-0.7,0.2l-0.3-0.9l-3.1,0.9l0.8,2.7l1.8-0.5l-0.3-1
		l0.7-0.2l0.3,1l0.2,0.7l0.3,0.9l-0.7,0.2l-0.3-0.9l-1.8,0.5l0.7,2.6l3.3-0.9l-0.3-1l0.7-0.2l0.3,1l1.3-0.4l0.1,0.5l1.3-0.4L47.2,47
		c0.6-0.2,1.1-1.6,0.5-2.2C52.7,45.2,54.5,37.9,48.7,36.7z M45.3,42.8c-0.3-0.4-1.1-1.5-0.8-2.7C45.3,40.8,45.3,42.4,45.3,42.8z
		 M44,38.5c-0.5-0.4-0.4-1-0.4-1.2C43.8,37.5,44.2,37.9,44,38.5z M43.8,39.5c-0.3,0.5-0.7,0.9-1.3,1.1c-1,0.3-1.9-0.1-2.4-0.9
		C41.2,38.5,43,39,43.8,39.5z M44.8,39.2c0.4-0.8,1.1-1.5,2.1-1.8c0.4-0.1,0.8-0.1,1.2-0.1C48,38.3,46.5,40.3,44.8,39.2z M47.9,36.6
		c-0.4,0-2.4-0.1-3.1,1.3c0-0.7-0.5-1.2-0.8-1.5c0.3-0.5,0.7-1,1.3-1.1C46.3,34.9,47.5,35.5,47.9,36.6z M41.3,36.4
		c0.6-0.2,1.2-0.1,1.7,0.2c-0.1,0.5-0.3,1.3,0.1,1.7c-0.7-0.2-2.5-0.5-3.4,0.5C39.5,37.8,40.2,36.7,41.3,36.4z M39.4,40.1
		c0.7,1,2,1.5,3.2,1.2c0.4-0.1,0.7-0.3,1-0.5c-0.2,1.5,0.8,2.4,1.3,2.9c-0.4,0.9-1.1,1.8-2.1,1.8C37.5,45.9,38.8,41,39.4,40.1z
		 M46.3,46.6c-0.6,0.2-1.2-0.2-1.3-0.7c-0.2-0.6,0.2-1.2,0.7-1.3c0.6-0.2,1.2,0.2,1.3,0.7S46.9,46.4,46.3,46.6z M48.7,43.8
		c-1,0.3-2,0.1-2.8-0.4c0.2-0.7,0.2-2.3-0.4-3.1c1.9,0.5,3.2-1.6,3.3-2.8C51.9,38.4,50.4,43.3,48.7,43.8z"/>
</g>
<g>
	<circle class="st3" cx="41.9" cy="56" r="7.6"/>
</g>
<g>
	<path class="st4" d="M57.9,68.1c-0.6,0.9-1.6,1.4-2.6,1.8s-2.1,0.6-3.1,0.8"/>
	<path class="st4" d="M54.5,64.8c-1.9,2-5,2.4-7.5,3.6c-4.1,2-6.8,6.8-6.3,11.4"/>
	<path class="st4" d="M49.7,73.2c-1.9,0.9-3.4,2.1-4.4,4.4"/>
	<path class="st4" d="M58.8,66.7c0.4-1,0.8-1.9,1-2.9c0.4-2.5-0.5-5.2-2.4-6.9"/>
	<path class="st4" d="M55.3,59.3c0.8,1.2,1,2.8,0.3,4"/>
	<path class="st4" d="M62.4,70.4c1.9-2.6,2.4-6.2,1.2-9.2"/>
	<path class="st4" d="M49.7,78.1c1.9-2.4,4.8-4,7.8-4.4"/>
	<path class="st4" d="M44.8,66.4c-2.3,1.2-4.4,3-5.8,5.2c-1.4,2.2-2,4.9-1.5,7.5"/>
</g>
<g>
	<path class="st5" d="M54.3,32.6c2.4-7.2-8.1-9.6-8.1-9.6S40,33.3,47,35.6C49.9,36.5,53.3,35.6,54.3,32.6z"/>
	<path class="st6" d="M46.5,23.5l5,12.8"/>
	<line class="st6" x1="50.6" y1="34" x2="44.9" y2="32.7"/>
	<line class="st6" x1="48.9" y1="29.8" x2="44.7" y2="28.7"/>
	<line class="st6" x1="49.9" y1="32.4" x2="53.1" y2="27.6"/>
	<line class="st6" x1="48.3" y1="28.1" x2="50" y2="25.5"/>
</g>
<g>
	<path class="st7" d="M58.1,38.1c6.9-1.1,4-11.9,4-11.9S50,25.5,51.8,33.3C52.5,36.3,55,38.5,58.1,38.1z"/>
	<line class="st6" x1="55.2" y1="35.3" x2="53.7" y2="29.2"/>
	<line class="st6" x1="58.2" y1="31.4" x2="57.6" y2="27.5"/>
	<path class="st6" d="M61.9,26.4l-8.3,10.9"/>
	<line class="st6" x1="57.3" y1="32.6" x2="62.2" y2="33.1"/>
	<line class="st6" x1="62" y1="29" x2="60" y2="29"/>
</g>
<g>
	<circle class="st3" cx="58.2" cy="42.8" r="9.5"/>
	<circle class="st3" cx="64.1" cy="35.9" r="6.2"/>
	<circle class="st3" cx="74.7" cy="46.7" r="7.6"/>
</g>
<g>
	<path class="st6" d="M21.8,24.7c0,0,1.4,9.2,8.4,14.6"/>
	<circle class="st8" cx="21.8" cy="25.1" r="1.2"/>
	<circle class="st8" cx="22.6" cy="28.4" r="1.6"/>
	<circle class="st8" cx="24.5" cy="32.4" r="2"/>
</g>
<g>
	<path class="st9" d="M38.1,51c7.9-5.5-2.8-17.8-2.8-17.8s-15.8,7.5-8.4,15.9C29.8,52.5,34.4,53.6,38.1,51z"/>
	<line class="st10" x1="35.2" y1="33.8" x2="31.9" y2="52.3"/>
	<line class="st10" x1="29.3" y1="38.2" x2="33.5" y2="43"/>
	<line class="st10" x1="26" y1="43.8" x2="32.2" y2="50.4"/>
	<line class="st10" x1="38.5" y1="38.8" x2="33.9" y2="41.1"/>
	<line class="st10" x1="40.6" y1="44.7" x2="32.6" y2="48.3"/>
</g>
<path class="st11" d="M89,69.4c-16-8.3-21.6-18.8-21.6-18.8"/>
<path class="st12" d="M73.6,51.5l-1.8-6.7l-1.7-8.5c-0.2-1.8-3.1-1.8-2.8,0.6l1.3,6.5l-2.1-7.5c-0.9-2.7-3.1-1.4-2.8,0.7l1.9,7.6
	L63,35.8c-0.7-2.7-3.2-1-2.8,0.8l2.3,8.3c-0.1,0-2.6-7.2-2.6-7.2c-0.6-2.5-3.5-1.3-2.7,0.9l3.8,12l-1.9-1.2
	c-0.8-0.5-1.9-0.3-2.5,0.6c-0.5,0.8-0.3,1.9,0.6,2.5l6.2,3.9c0.3,0.2,2.6,0.6,3.5,0.3C66.9,56.6,74.3,53.2,73.6,51.5z"/>
<path class="st13" d="M69.4,37.2c-0.8,0.1-1.2-1.3-0.4-1.6C70,35.2,70.3,37,69.4,37.2z"/>
<path class="st13" d="M65.9,36.8c-0.8,0.1-1.3-1.2-0.5-1.6C66.4,34.8,66.7,36.5,65.9,36.8z"/>
<path class="st13" d="M62.4,36.8c-0.8,0.1-1.3-1.2-0.5-1.5C62.8,34.8,63.2,36.5,62.4,36.8z"/>
<path class="st13" d="M59.4,38.9c-0.8,0.1-1.3-1.1-0.6-1.5C59.8,36.9,60.3,38.6,59.4,38.9z"/>
<path class="st13" d="M58.6,51.8c-0.7,0.9-2.2-0.1-1.7-1C57.5,49.5,59.3,50.9,58.6,51.8z"/>
<path class="st11" d="M22.5,87.1c4.9-11.6,8.3-21.7,8.3-21.7"/>
<polygon class="st12" points="31.3,59.7 31.4,59.7 31.3,60.3 "/>
<path class="st12" d="M34.4,60.4l-0.1,0.4L34.4,60.4L34.4,60.4z"/>
<path class="st12" d="M38.5,61.6l-1.8,1.5l1.4-11.6c0.2-1.6-2.3-2.7-2.4-0.3l-1.3,9.3l0,0l0.9-10.1c0.1-1.7-2.9-2.9-2.9-0.3l-1,9.7
	l0.6-9.1c0.1-2.4-2.8-3.4-2.9-0.2c0,0-0.8,8.7-0.9,8.7l0.5-7.1c0.1-2.3-2.7-2.6-2.9-0.2l-0.5,6.9l-0.2,3l0,0l-0.6,8.6l8.9,1.3
	l7.8-7.6C43.1,62.3,41.5,58.9,38.5,61.6z"/>
<polygon class="st12" points="25.3,58.7 25.1,61.7 25,61.7 "/>
<path class="st13" d="M26.6,52.6c0.9,0,1-1.7,0.2-1.8C25.7,50.6,25.7,52.6,26.6,52.6z"/>
<path class="st13" d="M29.9,51.2c0.8,0,1.1-1.6,0.2-1.9C29.1,49.1,28.9,51.2,29.9,51.2z"/>
<path class="st13" d="M33.2,50.8c0.8,0,1.1-1.5,0.3-1.8C32.5,48.8,32.3,50.7,33.2,50.8z"/>
<path class="st13" d="M36.4,52.2c0.8,0,1.2-1.5,0.3-1.8C35.8,50.1,35.5,52.1,36.4,52.2z"/>
<path class="st13" d="M39.6,63.8c0.9,0.7,2.1-0.6,1.4-1.4C40.2,61.3,38.8,63.1,39.6,63.8z"/>
</svg>
