<?xml version="1.0" encoding="utf-8"?>
<!-- Generator: Adobe Illustrator 22.1.0, SVG Export Plug-In . SVG Version: 6.00 Build 0)  -->
<svg version="1.1" id="Layer_1" xmlns="http://www.w3.org/2000/svg" xmlns:xlink="http://www.w3.org/1999/xlink" x="0px" y="0px"
	 viewBox="0 0 100 100" style="enable-background:new 0 0 100 100;" xml:space="preserve">
<style type="text/css">
	.st0{fill:none;}
	.st1{fill:#333892;}
	.st2{fill:#F78896;}
	.st3{fill:none;stroke:#191E39;stroke-width:0.2406;stroke-miterlimit:10;}
	.st4{fill:#F99E4D;}
	.st5{fill:#93D099;}
	.st6{fill:#191E39;}
	.st7{fill:none;stroke:#191E39;stroke-width:0.1688;stroke-miterlimit:10;}
	.st8{fill:none;stroke:#191E39;stroke-width:1.1816;stroke-miterlimit:10;}
	.st9{fill:#B790DD;}
	.st10{fill:none;stroke:#FBEFE3;stroke-width:0.178;stroke-miterlimit:10;}
	.st11{fill:none;stroke:#191E39;stroke-width:0.178;stroke-miterlimit:10;}
	.st12{fill:#0F1461;}
	.st13{fill:none;stroke:#FBEFE3;stroke-width:0.2027;stroke-miterlimit:10;}
</style>
<rect x="10" y="10" class="st0" width="80" height="80"/>
<g>
	<g>
	</g>
</g>
<g>
	<path class="st1" d="M87.8,72.8c-7.9,11.2-31.3,0.9-34.2,0.6c-1.3-0.1-6.8,0-8.2,0.2C42.5,74.1,25.9,79,19.6,77
		c-16-5.1-17.1-32.5,9.2-36.8c6-1,8.6-6.3,11.2-11.4C50.1,8.1,89.5,9.2,80.4,44.4c-0.7,2.7,2.1,4.8,4.1,6.4c2.4,1.8,4,4.2,5.2,6.5
		C90.8,58.9,93.4,64.9,87.8,72.8z"/>
	<g>
		<path class="st2" d="M32.1,57.7c4.1-0.5,5.1-5.2,7.1-5.8c3.9-1.1,4.7,2.8,3,5.5c-0.9,1.5-4.3,4.7-4.4,7.9
			c-0.1,3.1-4.9,3.3-6.7,5.8c-1.5,2.1-2.8,4.3-6,3.6c-1.5-0.3-0.9-8.2,1.4-10.1C29.1,62.5,28.3,58.2,32.1,57.7z"/>
		<line class="st3" x1="41.6" y1="53.3" x2="23.4" y2="73.6"/>
		<line class="st3" x1="38.7" y1="60.4" x2="34.5" y2="61.2"/>
		<line class="st3" x1="32.5" y1="58.2" x2="32.3" y2="63.7"/>
		<line class="st3" x1="34.7" y1="67.3" x2="28.8" y2="67.6"/>
		<line class="st3" x1="25.7" y1="66.1" x2="25.6" y2="71.1"/>
	</g>
	<path class="st4" d="M48.7,67.9c0,0-1.5,3.2-3.4,5.8c-2.9,0.6-8.2,1.9-8.2,1.9c4.6-3.8,6.8-9.7,6.8-9.8L48.7,67.9z"/>
	<path class="st4" d="M91.3,62.6c-2.4,1.7-6.5,4.1-10.8,4c-3.2,0-9.8-3.1-12.2-4.5c-0.8-0.5,1.2-5.4,1.2-5.4
		c11.1,9,18.5,2.5,20.3,0.4C90.8,58.9,91.3,60.7,91.3,62.6z"/>
	<path class="st5" d="M71.2,64.8l-2.7-1l2.3,13.9c-7.8-0.2-12.6-3.9-21.2-4.3L49,69.7l-0.5,0.8l-6-4c0,0,3-4.5,4.9-7.1
		c0.8-1.1,18.2-5.2,18.2-5.2c2.2,0,8.5,2.6,8.5,2.6L71.2,64.8z"/>
	<path class="st4" d="M53.1,49.9l0.9,7.1c0.2,1.7,1.7,2.8,3.4,2.6h0c1.7-0.2,2.8-2,2.6-3.7L53.1,49.9z"/>
	<polygon class="st6" points="59,48.4 59.9,55.9 53.7,55.2 53.6,53.9 	"/>
	<circle class="st6" cx="62.1" cy="44.9" r="3.8"/>
	<path class="st4" d="M47.5,48.1c0.4-1.5,1.9-2.4,3.3-2s1.3,5.1-0.2,5.5C48.8,52.1,47.2,49.5,47.5,48.1z"/>
	<g>
		<circle class="st6" cx="49.5" cy="45.1" r="3.2"/>
		<circle class="st6" cx="49.5" cy="45.1" r="3.2"/>
		<g>
			<defs>
				<circle id="SVGID_15_" cx="49.5" cy="45.1" r="3.2"/>
			</defs>
			<clipPath id="SVGID_1_">
				<use xlink:href="#SVGID_15_"  style="overflow:visible;"/>
			</clipPath>
		</g>
	</g>
	<g>
		<g>
			<path class="st4" d="M50.4,50.2l-0.9-7.6l9.2-1.5l1.1,8.5l0,0c0.2,2.2-1.1,4.2-3.2,5c-2.5,0.8-5.2-0.5-6-3
				C50.5,51.1,50.4,50.6,50.4,50.2z"/>
			<path class="st7" d="M50.5,51.4"/>
			<path class="st7" d="M50.1,48.2"/>
		</g>
	</g>
	<path class="st8" d="M52,45.2c0,0-1.3,0-2,0.8"/>
	<circle class="st6" cx="60.1" cy="51.1" r="1.8"/>
	<circle class="st6" cx="61.8" cy="48.4" r="3.2"/>
	<circle class="st4" cx="60.3" cy="48.1" r="2.4"/>
	<circle class="st6" cx="59.9" cy="45.6" r="1.9"/>
	<circle class="st6" cx="60.1" cy="41.3" r="3.8"/>
	<circle class="st6" cx="55.9" cy="39.9" r="3.2"/>
	<circle class="st6" cx="51.3" cy="40.9" r="3.5"/>
	<ellipse transform="matrix(0.8382 -0.5454 0.5454 0.8382 -19.0313 38.2579)" class="st7" cx="55" cy="51.2" rx="0.3" ry="0.4"/>
	<path class="st7" d="M53.5,44.4c0,0,0.4,2.4-0.3,3.3c-0.4,0.6-0.7,1-0.3,1.6c0.4,0.6,1.7,0.1,1.7,0.1"/>
	<path class="st8" d="M57.3,45c0,0-0.9-0.5-2.4-0.1"/>
	<path class="st6" d="M55.9,47.6L55.9,47.6c0.2,0,0.4-0.2,0.4-0.4l0-0.4c0-0.2-0.2-0.4-0.4-0.4h0c-0.2,0-0.4,0.2-0.4,0.4l0,0.4
		C55.5,47.5,55.7,47.7,55.9,47.6z"/>
	<path class="st6" d="M51.5,48L51.5,48c0.2,0,0.4-0.2,0.4-0.4l0-0.4c0-0.2-0.2-0.4-0.4-0.4l0,0c-0.2,0-0.4,0.2-0.4,0.4l0,0.4
		C51.1,47.8,51.3,48,51.5,48z"/>
	<g>
		<path class="st9" d="M83.2,55.1L81.8,59c-0.4,1.3-6.1,0.4-5.4-1.9l1.4-3.9c0.2-0.5,2.1-0.1,2.1-0.1c0.2-0.5,0.7-0.8,1.2-0.6
			c0.5,0.2,0.8,0.7,0.6,1.2C81.6,53.7,83.3,54.6,83.2,55.1z"/>
		<circle class="st9" cx="80" cy="51.5" r="0.6"/>
		<circle class="st9" cx="82.5" cy="52.4" r="0.6"/>
		<circle class="st9" cx="81.6" cy="50.8" r="0.6"/>
		<path class="st10" d="M78.7,59.3c0,0-1.3,4.5-1,8.8c0.3,4.1,2.9,9.1,2.9,9.1"/>
		<line class="st11" x1="81.4" y1="54.4" x2="80.5" y2="56.9"/>
		<line class="st11" x1="79.6" y1="53.7" x2="78.7" y2="56.3"/>
		<line class="st11" x1="77.4" y1="55.8" x2="81.8" y2="57.3"/>
		
			<ellipse transform="matrix(0.6486 -0.7612 0.7612 0.6486 -26.0194 80.8243)" class="st10" cx="74.5" cy="68.6" rx="1.4" ry="2.9"/>
		<path class="st10" d="M72.3,66.7"/>
		<path class="st10" d="M76.8,70.5"/>
	</g>
	<g>
		<path class="st12" d="M27.6,72.4c0.9,2,0.4,3.5-0.4,4.9c-5.5,0.9-9.2-0.8-10.1-1.5c-0.2-0.8-0.3-1.6-0.1-2.6
			c0.4-2.5,2.2-4.1,2.2-6.8c0-2.4-4-3.9-1.7-7.5c1.3-2.1,3.8-2.9,3-5.2c-0.8-2.3,0.9-5.2,3.4-5c2.5,0.2,3.5,3.2,2.6,5.3
			c-0.9,2.1,1.7,3.8,2.7,6.1C30.4,63,24.6,66.1,27.6,72.4z"/>
		<line class="st13" x1="23.5" y1="49.9" x2="22" y2="77.1"/>
		<line class="st13" x1="25.6" y1="57.2" x2="22.9" y2="60.5"/>
		<line class="st13" x1="19.5" y1="59.4" x2="22.7" y2="63.7"/>
		<line class="st13" x1="26.9" y1="65.1" x2="22.4" y2="69"/>
		<line class="st13" x1="19.1" y1="69.8" x2="22.1" y2="73.7"/>
	</g>
	<line class="st10" x1="72.3" y1="66.7" x2="76.8" y2="70.5"/>
</g>
</svg>
