<?xml version="1.0" encoding="utf-8"?>
<!-- Generator: Adobe Illustrator 22.1.0, SVG Export Plug-In . SVG Version: 6.00 Build 0)  -->
<svg version="1.1" id="Layer_1" xmlns="http://www.w3.org/2000/svg" xmlns:xlink="http://www.w3.org/1999/xlink" x="0px" y="0px"
	 viewBox="0 0 100 100" style="enable-background:new 0 0 100 100;" xml:space="preserve">
<style type="text/css">
	.st0{fill:none;}
	.st1{fill:#96CDED;}
	.st2{fill:#96D6B4;}
	.st3{fill:#8D641A;}
	.st4{fill:#44B986;}
	.st5{fill:#AF9154;}
	.st6{clip-path:url(#SVGID_5_);}
	.st7{fill:#3E5CAA;}
	.st8{fill:#6A79BA;stroke:#1D4E9F;stroke-width:0.304;stroke-miterlimit:10;}
	.st9{fill:none;stroke:#1D4E9F;stroke-width:0.304;stroke-miterlimit:10;}
	.st10{fill:none;stroke:#F99E4D;stroke-width:3.4498;stroke-miterlimit:10;}
	.st11{fill:none;stroke:#F99E4D;stroke-width:2.3313;stroke-miterlimit:10;}
	.st12{fill:#F99E4D;}
	.st13{fill:none;stroke:#F99E4D;stroke-width:2.3313;stroke-linejoin:round;stroke-miterlimit:10;}
	.st14{fill:none;stroke:#233E7D;stroke-width:5.2364;stroke-miterlimit:10;}
	.st15{fill:#9BDDB9;}
	.st16{fill:#191E39;}
	.st17{fill:none;stroke:#191E39;stroke-width:7.619832e-02;stroke-miterlimit:10;}
	.st18{fill:none;stroke:#191E39;stroke-width:0.5334;stroke-miterlimit:10;}
</style>
<g>
	<g>
	</g>
</g>
<rect x="10" y="10" class="st0" width="80" height="80"/>
<g>
	<rect x="29.9" y="15.4" class="st1" width="43.5" height="38.4"/>
	<rect x="29.8" y="53.4" class="st2" width="41.2" height="16.3"/>
	<rect x="37.8" y="49.5" class="st3" width="2.1" height="11.4"/>
	<g>
		<circle class="st4" cx="38.2" cy="41.5" r="10"/>
	</g>
	<polyline class="st5" points="28.2,84.6 28.2,67.4 76.8,67.4 76.8,84.6 	"/>
	<g>
		<defs>
			<path id="SVGID_2_" d="M51.7,30.6c0.1-1.9,1.6-3.4,3.6-3.4c0.8,0,1.5,0.3,2.1,0.7c1.5-6.9,9-4.7,9.6,0.5c2.7-1.7,4.3,0.7,4.3,2.2
				H51.7z"/>
		</defs>
		<use xlink:href="#SVGID_2_"  style="overflow:visible;fill:#FFFFFF;"/>
		<clipPath id="SVGID_4_">
			<use xlink:href="#SVGID_2_"  style="overflow:visible;"/>
		</clipPath>
	</g>
	<g>
		<defs>
			<rect id="SVGID_1_" x="36.5" y="46.4" width="44.7" height="17.4"/>
		</defs>
		<clipPath id="SVGID_5_">
			<use xlink:href="#SVGID_1_"  style="overflow:visible;"/>
		</clipPath>
		<g class="st6">
			<g>
				<circle class="st4" cx="54" cy="58.7" r="9"/>
			</g>
			<g>
				<circle class="st4" cx="63" cy="57.7" r="6.1"/>
			</g>
			<g>
				<circle class="st4" cx="67.9" cy="58.9" r="6.1"/>
			</g>
			<g>
				<circle class="st4" cx="43.5" cy="62.3" r="6.1"/>
			</g>
		</g>
	</g>
	<g>
		<rect x="80.6" y="13.6" class="st7" width="1.3" height="73.2"/>
		<polygon class="st8" points="70.2,84.7 80.6,86.7 80.6,13.6 70.2,15.6 		"/>
		<g>
			<path class="st9" d="M71.7,28.9l6.7-0.8c0.2-0.5,0.3-0.8,0.6-1.3v-7.6c-0.2-0.4-0.3-0.7-0.6-1.1l-6.7,1.2
				c-0.2,0.5-0.3,0.8-0.5,1.3v7.3C71.4,28.2,71.5,28.5,71.7,28.9z"/>
			<path class="st9" d="M71.7,41l6.7-0.3c0.2-0.5,0.3-0.8,0.6-1.3v-7.6c-0.2-0.5-0.3-0.7-0.6-1.2l-6.7,0.7c-0.2,0.5-0.3,0.8-0.5,1.2
				l0,7.3C71.4,40.3,71.5,40.5,71.7,41z"/>
			<path class="st9" d="M71.7,53l6.7,0.1c0.2-0.5,0.3-0.7,0.6-1.2v-7.6c-0.2-0.5-0.3-0.7-0.6-1.2l-6.7,0.3c-0.2,0.5-0.3,0.7-0.5,1.2
				v7.3C71.4,52.3,71.5,52.5,71.7,53z"/>
			<path class="st9" d="M71.7,65.1l6.7,0.6c0.2-0.5,0.3-0.7,0.6-1.2v-7.6c-0.2-0.5-0.3-0.8-0.6-1.3l-6.7-0.2
				c-0.2,0.5-0.3,0.7-0.5,1.2v7.3C71.4,64.3,71.5,64.6,71.7,65.1z"/>
			<path class="st9" d="M71.7,77.1l6.7,1c0.2-0.4,0.3-0.7,0.6-1.2v-7.6c-0.2-0.5-0.3-0.8-0.6-1.3l-6.7-0.7c-0.2,0.4-0.3,0.7-0.5,1.1
				v7.3C71.4,76.3,71.5,76.6,71.7,77.1z"/>
		</g>
	</g>
	<g>
		
			<rect x="18.1" y="13.3" transform="matrix(-1 4.646271e-11 -4.646271e-11 -1 37.4975 99.6741)" class="st7" width="1.3" height="73.2"/>
		<polygon class="st8" points="29.8,84.4 19.4,86.4 19.4,13.3 29.8,15.3 		"/>
		<g>
			<path class="st9" d="M28.3,28.6l-6.7-0.8c-0.2-0.5-0.3-0.8-0.6-1.3l0-7.6c0.2-0.4,0.3-0.7,0.6-1.1l6.7,1.2
				c0.2,0.5,0.3,0.8,0.5,1.3v7.3C28.6,27.9,28.5,28.2,28.3,28.6z"/>
			<path class="st9" d="M28.3,40.6l-6.7-0.3c-0.2-0.5-0.3-0.8-0.6-1.3v-7.6c0.2-0.5,0.3-0.7,0.6-1.2l6.7,0.7
				c0.2,0.5,0.3,0.8,0.5,1.2v7.3C28.6,39.9,28.5,40.2,28.3,40.6z"/>
			<path class="st9" d="M28.3,52.7l-6.7,0.1c-0.2-0.5-0.3-0.7-0.6-1.2V44c0.2-0.5,0.3-0.7,0.6-1.2l6.7,0.3c0.2,0.5,0.3,0.7,0.5,1.2
				v7.3C28.6,52,28.5,52.2,28.3,52.7z"/>
			<path class="st9" d="M28.3,64.7l-6.7,0.6c-0.2-0.5-0.3-0.7-0.6-1.2v-7.6c0.2-0.5,0.3-0.8,0.6-1.3l6.7-0.2
				c0.2,0.5,0.3,0.7,0.5,1.2v7.3C28.6,64,28.5,64.2,28.3,64.7z"/>
			<path class="st9" d="M28.3,76.8l-6.7,1c-0.2-0.4-0.3-0.7-0.6-1.2v-7.6c0.2-0.5,0.3-0.8,0.6-1.3l6.7-0.7c0.2,0.4,0.3,0.7,0.5,1.1
				v7.3C28.6,76,28.5,76.3,28.3,76.8z"/>
		</g>
	</g>
	<g>
		<polyline class="st10" points="62.7,79.6 57.4,71.1 55.5,65.8 		"/>
		<polyline class="st10" points="48.4,81.4 49.5,69.6 50.8,62.7 		"/>
		<path class="st4" d="M46.6,79.4l-2.3,0.8c-0.7,0.2-0.9,2-0.9,2h7l0.2-2.7L46.6,79.4z"/>
		<path class="st4" d="M60.2,80l-1.3,0.3c-0.5,0.1-0.7,1.8-0.7,1.8h4.4l2.6-3.5l-1.8-2.2L60.2,80z"/>
		<line class="st11" x1="48.6" y1="53.1" x2="47.3" y2="63.8"/>
		<path class="st12" d="M46.1,65.5l0.1-1.7c0-0.4,0.4-0.7,0.8-0.7l1,0c0.4,0,0.7,0.4,0.7,0.8l-0.1,1.7c0,0.4-0.4,0.7-0.8,0.7l-1,0
			C46.4,66.3,46.1,65.9,46.1,65.5z"/>
		<path class="st13" d="M57.5,50.6c0,0,2.5-1.1,3.4-3.1c1.1-2.4-0.5-6.2-0.5-6.2"/>
		<path class="st14" d="M56.6,68.9c0,0-1.9-5.2-2.6-10.3"/>
		<line class="st14" x1="49.8" y1="68.9" x2="51.6" y2="58.5"/>
		<path class="st15" d="M57.6,53.2C57.5,53.2,57.5,53.2,57.6,53.2L57.6,53.2C57.5,53.2,57.5,53.2,57.6,53.2z"/>
		<path class="st15" d="M60.7,51.1c0,0-3.2,2.1-3.2,2.1v0l-0.2,7.6l-9.2-0.2l0.2-5.6l-1.6-0.4l0.9-3.7c0.2-0.7,0.8-1.2,1.5-1.2
			c0.2-0.1,7.4-0.3,7.4-0.3l2.1-1.5L60.7,51.1z"/>
		<path class="st12" d="M54.5,46.6l-2.7-0.1l-0.1,3.2c0,2.5,2.8,2.3,2.7,0.1L54.5,46.6z"/>
		<polygon class="st16" points="54.5,46.2 54.4,49.4 51.7,48.5 		"/>
		<g>
			<circle class="st16" cx="50.6" cy="44.1" r="1.4"/>
			<circle class="st16" cx="50.6" cy="44.1" r="1.4"/>
			<g>
				<defs>
					<circle id="SVGID_3_" cx="50.6" cy="44.1" r="1.4"/>
				</defs>
				<clipPath id="SVGID_6_">
					<use xlink:href="#SVGID_3_"  style="overflow:visible;"/>
				</clipPath>
			</g>
		</g>
		<circle class="st16" cx="56.2" cy="44.9" r="1.7"/>
		<circle class="st16" cx="55.8" cy="46.4" r="1.4"/>
		<circle class="st16" cx="54.8" cy="47.5" r="0.8"/>
		<path class="st12" d="M50.6,46.4l0.1-3.4l4.2,0l-0.1,3.8l0,0c-0.1,1-0.8,1.8-1.8,2c-1.2,0.2-2.3-0.6-2.5-1.8
			C50.6,46.8,50.6,46.6,50.6,46.4z"/>
		<path class="st17" d="M52.4,44.1c0,0,0,1.1-0.4,1.5c-0.2,0.2-0.4,0.4-0.3,0.7c0.1,0.3,0.7,0.2,0.7,0.2"/>
		<path class="st16" d="M53.1,45.5L53.1,45.5c0.1,0,0.2-0.1,0.2-0.2l0-0.2c0-0.1-0.1-0.2-0.2-0.2l0,0C53.1,45,53,45,53,45.1l0,0.2
			C53,45.4,53,45.5,53.1,45.5z"/>
		<path class="st16" d="M51.3,45.3L51.3,45.3c0.1,0,0.2-0.1,0.2-0.2l0-0.2c0-0.1-0.1-0.2-0.2-0.2l0,0c-0.1,0-0.2,0.1-0.2,0.2l0,0.2
			C51.1,45.2,51.2,45.3,51.3,45.3z"/>
		<path class="st18" d="M54,44.8c0,0-0.3-0.6-1-0.5"/>
		<path class="st18" d="M51.5,44.2c0,0-0.6,0-0.8,0.4"/>
		<circle class="st12" cx="55.3" cy="46.1" r="1.2"/>
		<circle class="st16" cx="55.5" cy="43.2" r="1.7"/>
		<circle class="st16" cx="53.8" cy="42.2" r="1.4"/>
		<circle class="st16" cx="51.7" cy="42.4" r="1.6"/>
	</g>
	<path class="st12" d="M61.7,41.6c0,0-1-4.1-3-3.3c-0.2,0.1-0.4,0.4-0.3,0.6c0.2,0.5,0.5,1.2,0.5,1.6c0,0.2-0.8-0.4-0.9-0.1
		c-0.3,0.4,0.5,0.6,0.7,0.9c0.5,0.6,0.8,1.3,0.8,1.3L61.7,41.6z"/>
	<path class="st17" d="M51.9,47.2c0.1,0,0.3,0.2,0.6,0.1c0.1,0,0.2-0.1,0.2-0.1"/>
</g>
</svg>
