<?xml version="1.0" encoding="utf-8"?>
<!-- Generator: Adobe Illustrator 22.1.0, SVG Export Plug-In . SVG Version: 6.00 Build 0)  -->
<svg version="1.1" id="Layer_1" xmlns="http://www.w3.org/2000/svg" xmlns:xlink="http://www.w3.org/1999/xlink" x="0px" y="0px"
	 viewBox="0 0 100 100" style="enable-background:new 0 0 100 100;" xml:space="preserve">
<style type="text/css">
	.st0{fill:none;}
	.st1{fill:none;stroke:#FBEFE3;stroke-width:3;stroke-miterlimit:10;}
	.st2{fill:#FBEFE3;}
	.st3{fill:#F99E4D;}
	.st4{fill:#191E39;}
	.st5{fill:none;stroke:#191E39;stroke-width:0.2562;stroke-miterlimit:10;}
	.st6{fill:none;stroke:#191E39;stroke-width:1.5021;stroke-miterlimit:10;}
	.st7{fill:none;stroke:#F44C6C;stroke-width:3.4153;stroke-miterlimit:10;}
	.st8{fill:#53B171;}
	.st9{display:none;fill:url(#SVGID_2_);}
	.st10{fill:#94CD9D;}
	.st11{display:none;fill:url(#SVGID_3_);}
	.st12{fill:#233D7D;}
	.st13{fill:none;stroke:#3E5CAA;stroke-width:0.3412;stroke-miterlimit:10;}
	.st14{fill:none;stroke:#233D7D;stroke-width:0.5118;stroke-miterlimit:10;}
	.st15{fill:none;stroke:#191E39;stroke-width:0.4149;stroke-miterlimit:10;}
	.st16{fill:#8FCFAF;}
</style>
<pattern  width="76.5" height="51" patternUnits="userSpaceOnUse" id="New_Pattern_6" viewBox="12.3 -63.3 76.5 51" style="overflow:visible;">
	<g>
		<rect x="12.3" y="-63.3" class="st0" width="76.5" height="51"/>
		<g>
			<circle class="st1" cx="88.8" cy="-12.3" r="10.8"/>
			<circle class="st2" cx="88.8" cy="-37.8" r="3.6"/>
		</g>
		<g>
			<circle class="st2" cx="50.5" cy="-12.3" r="3.6"/>
		</g>
		<g>
			<circle class="st1" cx="12.3" cy="-12.3" r="10.8"/>
			<circle class="st2" cx="12.3" cy="-37.8" r="3.6"/>
		</g>
		<g>
			<circle class="st1" cx="88.8" cy="-63.3" r="10.8"/>
		</g>
		<g>
			<circle class="st1" cx="50.5" cy="-37.8" r="10.8"/>
			<circle class="st2" cx="50.5" cy="-63.3" r="3.6"/>
		</g>
		<g>
			<circle class="st1" cx="12.3" cy="-63.3" r="10.8"/>
		</g>
	</g>
</pattern>
<rect x="10" y="10" class="st0" width="80" height="80"/>
<g>
	<g>
	</g>
</g>
<g>
	<circle class="st3" cx="58.1" cy="39.5" r="3"/>
	<circle class="st4" cx="56.2" cy="35.3" r="4"/>
	<circle class="st4" cx="42.2" cy="38.6" r="4.8"/>
	<path class="st3" d="M58.4,42.6c-0.1,3.3-2.9,5.9-6.3,5.8c-2.5-0.1-10.7-2-10.7-7c0-1.9,3.4-8.6,3.4-8.6l11.8-1.5
		C56.6,31.3,58.5,42,58.4,42.6z"/>
	<path class="st5" d="M54.2,35c0,0,0.4,3.1,1.5,4c0.7,0.6,1.5,1,1.2,1.8c-0.3,0.8-2.2,0.8-2.2,0.8"/>
	<circle class="st4" cx="43.3" cy="33.4" r="4.8"/>
	<circle class="st4" cx="47.9" cy="30.2" r="4"/>
	<circle class="st4" cx="53.8" cy="29.8" r="4.4"/>
	<path class="st4" d="M52.1,39.2c-0.7,0-0.9-1.4-0.2-1.5C52.6,37.6,52.8,39.1,52.1,39.2z"/>
	<path class="st4" d="M57.1,38.1c-0.6,0-0.8-1.3-0.2-1.3C57.5,36.7,57.7,38,57.1,38.1z"/>
	<path class="st6" d="M49.4,37.4c0,0,0.8-1.6,2.8-2"/>
	<g>
		<path class="st3" d="M72.9,48.3H52.2l2.7-4.4C55.6,42.4,60,44,60,44l8.2-3.1c0.3,0,5.9-0.6,7,3.9C75.6,46.5,74.7,48.3,72.9,48.3z"
			/>
		<line class="st5" x1="53.5" y1="48.3" x2="56.1" y2="44"/>
		<line class="st5" x1="55" y1="48.3" x2="57.4" y2="44.5"/>
		<line class="st5" x1="56.6" y1="48.3" x2="58.5" y2="45.2"/>
		<path class="st5" d="M60,44l-3-0.9c-0.8-0.2-1.7,0.1-2.1,0.8l-2.7,4.4"/>
	</g>
	<path class="st3" d="M56,48.3H28.6c-1.8,0-3-1.8-2.3-3.5c1-2.5,6.7-4,7-3.9L49,43.8l2.2-0.7C52.8,41.9,56,48.3,56,48.3z"/>
	<g>
		<line class="st5" x1="54.7" y1="48.3" x2="52.1" y2="44"/>
		<line class="st5" x1="53.1" y1="48.3" x2="50.8" y2="44.5"/>
		<line class="st5" x1="51.6" y1="48.3" x2="49.7" y2="45.2"/>
		<path class="st5" d="M56,48.3l-2.7-4.4c-0.4-0.7-1.3-1-2.1-0.8l-2.6,0.8l-6.4-1.2"/>
	</g>
	<g>
		<path class="st7" d="M27.3,41.8c-0.6,2.6-0.6,8.1-0.6,8.1"/>
		<polygon class="st8" points="27,32.8 21.5,42.3 32.5,42.3 		"/>
		<pattern  id="SVGID_2_" xlink:href="#New_Pattern_6" patternTransform="matrix(0.1417 0 0 0.1417 -6954.1958 -6929.8174)">
		</pattern>
		<path class="st9" d="M27,34.6l-3.9,4.9c-0.7,0.8-0.2,2.1,0.9,2.2l6.2,0.9c1,0.2,1.9-0.9,1.5-1.9L29.4,35C29,34,27.7,33.8,27,34.6z
			"/>
	</g>
	<g>
		<line class="st7" x1="32" y1="44.8" x2="32" y2="49.7"/>
		<polygon class="st10" points="31.3,37.4 27.2,45.6 36.4,45.1 		"/>
		<pattern  id="SVGID_3_" xlink:href="#New_Pattern_6" patternTransform="matrix(0.1417 0 0 0.1417 -6954.1958 -6930.8174)">
		</pattern>
		<path class="st11" d="M30.4,39.2l-2.4,4.7c-0.4,0.8,0.2,1.7,1.1,1.7l5.2-0.3c0.9,0,1.4-1,0.9-1.8l-2.9-4.4
			C31.9,38.3,30.8,38.4,30.4,39.2z"/>
	</g>
	<circle class="st4" cx="44.9" cy="38.2" r="2.6"/>
	<g>
		<path class="st12" d="M78.3,74.6H21.7c-7.3,0-13.2-5.9-13.2-13.2v0c0-7.3,5.9-13.2,13.2-13.2h56.6c7.3,0,13.2,5.9,13.2,13.2v0
			C91.5,68.7,85.6,74.6,78.3,74.6z"/>
		<g>
			<g>
				<path class="st13" d="M90.5,56.3l-15.9-3c-1.7-0.6-46.2-0.7-46.2-0.7"/>
				<path class="st13" d="M47.6,56"/>
				<path class="st13" d="M32.3,55.8"/>
				<polyline class="st13" points="91.3,63.7 85.5,63.8 67.2,58 33.1,58 				"/>
				<path class="st13" d="M32.6,61.3l38.5,1c2,0.2,1,2.2,0,2.1l-38.8-0.8"/>
				<path class="st13" d="M50.6,74.6c0,0,10.6-8.7,16.8-8.5l23,0.4"/>
				<polyline class="st13" points="44.6,74.6 47,69.1 29.5,68.9 29.5,68.9 				"/>
			</g>
			<path id="SVGID_1_" class="st0" d="M78.3,74.6H21.7c-7.3,0-13.2-5.9-13.2-13.2v0c0-7.3,5.9-13.2,13.2-13.2h56.6
				c7.3,0,13.2,5.9,13.2,13.2v0C91.5,68.7,85.6,74.6,78.3,74.6z"/>
		</g>
		<circle class="st4" cx="21.9" cy="61.3" r="13.3"/>
		<g>
			<circle class="st14" cx="21.9" cy="61.3" r="10.8"/>
			<circle class="st14" cx="21.9" cy="61.3" r="6.4"/>
			<circle class="st14" cx="21.9" cy="61.3" r="2.9"/>
		</g>
	</g>
	<g>
		<path class="st15" d="M80.2,43.6c0,0-7.1,12.2-7.1,31"/>
		<path class="st16" d="M80.9,43.2c1.3-1,7.3-4.2,4.5-6.4C81.8,33.9,81.2,43,80.9,43.2z"/>
		<path class="st16" d="M78,46.8c-0.2-1.7,0.3-10.3-2.8-9.7C71.4,37.9,77.9,45.9,78,46.8z"/>
		<path class="st16" d="M78.8,47.3c1.7-0.6,9.3-4.4,10-1.3C89.7,49.7,79.7,47,78.8,47.3z"/>
		<path class="st16" d="M72.7,69.4c-1-1.5-4.7-9.2-7.1-7.1C62.7,64.8,72.2,68.7,72.7,69.4z"/>
		<path class="st16" d="M73.7,69.5c1.2-1.3,6-8.3,8.1-5.9C84.4,66.4,74.3,68.8,73.7,69.5z"/>
		<path class="st16" d="M75.5,53.8c0,0-1.3-11.9-4.4-9.7C67.2,46.8,75.6,54,75.5,53.8z"/>
		<path class="st16" d="M76.5,54.2c1.3-0.1,9.7-5.9,10.4-2.7C87.7,55.7,78,54.1,76.5,54.2z"/>
		<path class="st16" d="M73.5,61.9c-0.9-1.4-3.4-11.6-6.2-9.6C63.5,54.9,72.8,60.9,73.5,61.9z"/>
		<path class="st16" d="M74.5,62.2c0.4-0.1,9.1-8,10.5-4.7C86.8,61.7,75.9,61.9,74.5,62.2z"/>
	</g>
</g>
</svg>
