<?xml version="1.0" encoding="utf-8"?>
<!-- Generator: Adobe Illustrator 22.1.0, SVG Export Plug-In . SVG Version: 6.00 Build 0)  -->
<svg version="1.1" id="Layer_1" xmlns="http://www.w3.org/2000/svg" xmlns:xlink="http://www.w3.org/1999/xlink" x="0px" y="0px"
	 viewBox="0 0 100 100" style="enable-background:new 0 0 100 100;" xml:space="preserve">
<style type="text/css">
	.st0{fill:none;}
	.st1{fill:#F06680;}
	.st2{fill:#F99E4D;}
	.st3{fill:none;stroke:#191E39;stroke-width:0.1934;stroke-miterlimit:10;}
	.st4{clip-path:url(#SVGID_1_);fill:#FFFFFF;}
	.st5{fill:#191E39;}
	.st6{fill:#FBEFE3;}
	.st7{fill:#5777B9;}
</style>
<rect x="10" y="10" class="st0" width="80" height="80"/>
<g>
	<path class="st1" d="M64.6,36.9l0.5-7.4c0-0.3,0.5-0.5,0.7-0.2l4.1,6.1L64.6,36.9z"/>
	<path class="st2" d="M78.1,37c-1.9,2.3-5.5,3.8-9.7,4.7c-0.8,2.8,0.9,15.3,1.3,16.3c-5.8,0.6-21.1,1.6-17.8-5.2
		c1.3-2.8,3.8-7.8,6.4-13h0c-2.3,0.6-2-1.6-1.1-1.9l2.1-1.2l-0.5-7.4c0-0.4,0.5-0.6,0.7-0.3l5,5.5c0,0,0,0,0,0s1.8,0.1,4,0.6
		c1.7,0.3,4.2,0.4,6.5,0.3C75.8,35.2,78.2,36.8,78.1,37z"/>
	<path class="st3" d="M58.7,39c-0.5,0.4-0.5,1.1-0.1,1.6l0,0c0.4,0.5,1.1,0.5,1.6,0.1l1.1-1.1c-0.4,0.5-0.3,1.2,0.2,1.6h0
		c0.5,0.4,1.2,0.3,1.6-0.2"/>
	<g>
		<defs>
			<path id="SVGID_9_" d="M67.2,38.7h-2.5c-0.6,0-1-0.5-1-1v0c0-0.6,0.5-1,1-1h2.5c0.6,0,1,0.5,1,1v0C68.2,38.2,67.8,38.7,67.2,38.7
				z"/>
		</defs>
		<clipPath id="SVGID_1_">
			<use xlink:href="#SVGID_9_"  style="overflow:visible;"/>
		</clipPath>
		<path class="st4" d="M67.2,38.7h-2.5c-0.6,0-1-0.5-1-1v0c0-0.6,0.5-1,1-1h2.5C68.3,36.6,68.9,38.7,67.2,38.7z"/>
	</g>
	<circle class="st5" cx="67.2" cy="37.4" r="1.1"/>
	<path class="st3" d="M63.6,36.6c0,0,1.6-0.9,3.2-0.9l-0.4-0.8C66.5,34.9,64.3,35,63.6,36.6z"/>
	<polygon class="st1" points="59.6,36.4 59.2,31 62.8,35 	"/>
	<path class="st6" d="M78.1,37c-1.8,2.4-5.5,3.8-9.7,4.7c-0.4,2.5,0.4,8.4,0.9,14.8c-4.1,0.3-8.2,0.6-12.2,1
		c0.6-2.5,0.6-3.5,1.8-6.3c1.9-4.2,3.5-8.4,5-11.1c2.2-0.2,6.1-1,9.4-2.3c1.2-0.4,2.2-0.9,3.1-1.5c0.8-0.5,1.5-0.9,2.2-1.3
		C79.3,35.1,78.9,36,78.1,37z"/>
	<path class="st5" d="M78.5,36.6c0,0-2.4,0-3.5-1.3c0.8-0.1,3.5-0.4,3.8-0.3C79.3,35.1,79.1,35.7,78.5,36.6z"/>
	<circle class="st5" cx="76" cy="37.7" r="0.5"/>
	<g>
		<g>
			<path class="st7" d="M91.5,69.2c-1.2,0.6-1.1-0.9-2.6-1.4c-0.7-0.2-1.8,0.2-2.7,0c-0.8-0.2-1.5-1.2-2.3-1.4
				c-0.8-0.3-1.9,0.2-2.7-0.1c-0.9-0.3-1.5-1.3-2.3-1.5c-0.9-0.3-2,0-2.7-0.3c-1.4-0.7-1.8-1.3-1.3-1.6c0.3-0.2,0.1-0.9,0.4-1.1
				c0.3-0.2,0.9,0.3,1.2,0.2c0.3-0.1,0.3-0.9,0.6-1c0.3-0.1,0.8,0.5,1.1,0.4c0.3-0.1,0.5-0.8,0.8-0.9c0.3-0.1,0.7,0.6,1,0.6
				c0.3,0,0.6-0.8,0.9-0.8c0.7,0,1.3,0.8,2,0.9c0.7,0.1,1.6-0.4,2.2-0.1c0.6,0.3,0.9,1.2,1.5,1.6c0.6,0.4,1.6,0.2,2.1,0.7
				c0.5,0.5,0.4,1.5,0.8,2c0.4,0.6,1.4,0.8,1.7,1.4C91.3,67.4,91.3,68.5,91.5,69.2z"/>
		</g>
		<g>
			<path class="st7" d="M58,59c0,0.7-1.9,0.6-4.5,0.6c-1.3,0-2.8,0.6-4.5,0.4c-1.4-0.1-2.8-1.1-4.3-1.3c-1.4-0.2-3,0.3-4.5,0
				c-1.5-0.3-2.8-1.2-4.3-1.5c-1.5-0.3-3.1,0.1-4.5-0.2c-1.5-0.3-2.8-1.4-4.2-1.7c-1.6-0.4-3.3-0.1-4.5-0.5
				c-2.5-0.8-3.6-1.6-3.5-2.1c0.3-0.9,0-2,0.4-2.8c0.4-0.8,1.5-1.3,2-2c0.5-0.8,0.5-1.9,1.2-2.6c0.6-0.7,1.8-0.8,2.5-1.4
				c0.7-0.6,1-1.7,1.8-2.2c0.8-0.5,1.9-0.3,2.8-0.7c0.8-0.4,1.5-1.4,2.4-1.6c0.9-0.2,1.9,0.3,2.9,0.1c0.9-0.1,1.8-0.9,2.7-0.9
				c1.1,0,2,0.8,3.1,1c1,0.2,2.2-0.3,3.2,0c1,0.3,1.7,1.4,2.6,1.9c0.9,0.5,2.2,0.4,3,1c0.8,0.6,1.2,1.8,1.9,2.6
				c0.7,0.7,2,1.1,2.6,1.9c0.6,0.8,0.6,2.1,1,3c0.5,0.9,1.5,1.6,1.9,2.6c0.3,1-0.1,2.2,0,3.2c0,0.1,0.7,0.1,0.8,0.2
				c0,0.1-0.7,0.3-0.7,0.4c0,0.1,0.7,0.2,0.8,0.3c0,0.1-0.7,0.3-0.7,0.4c0,0.1,0.7,0.2,0.7,0.3c0,0.1-0.7,0.3-0.7,0.4
				c0,0.1,0.7,0.2,0.7,0.3c0,0.1-0.7,0.3-0.7,0.4C57.3,58.8,58,58.9,58,59z"/>
		</g>
	</g>
	<path class="st7" d="M91.9,68.9c-0.3-0.6-17.2-5.8-17.4-6.5c-1-5-5.4-8.8-10.7-8.8c-2.4,0-4.6,0.9-6.5,2.1
		c-0.1,0.1-38.9-3.2-39-3.2C4.4,54.3,8,71.3,8,71.3l84.4,0C92.4,71.3,92.5,70,91.9,68.9z"/>
	<path class="st7" d="M66.7,48.3c-1.7,0.4-2.9-1.7-1.7-3c-1.5,0.2-2.2,2-1.4,3.2c0.9,1.3,2.9,1.1,3.5-0.3
		C66.9,48.2,66.8,48.2,66.7,48.3z"/>
	<circle class="st7" cx="65.5" cy="46.7" r="0.4"/>
	<circle class="st7" cx="66.9" cy="47.2" r="0.3"/>
</g>
</svg>
