<?xml version="1.0" encoding="utf-8"?>
<!-- Generator: Adobe Illustrator 22.1.0, SVG Export Plug-In . SVG Version: 6.00 Build 0)  -->
<svg version="1.1" id="Layer_1" xmlns="http://www.w3.org/2000/svg" xmlns:xlink="http://www.w3.org/1999/xlink" x="0px" y="0px"
	 viewBox="0 0 100 100" style="enable-background:new 0 0 100 100;" xml:space="preserve">
<style type="text/css">
	.st0{fill:#C6CFF4;}
	.st1{fill:none;}
	.st2{fill:#F06680;}
	.st3{fill:#F99E4E;}
	.st4{fill:#F9EEE2;}
	.st5{fill:#5777BA;}
	.st6{fill:#191D38;}
	.st7{fill:none;stroke:#191D38;stroke-width:0.1595;stroke-linejoin:round;stroke-miterlimit:10;}
	.st8{clip-path:url(#SVGID_1_);fill:#FFFFFF;}
	.st9{clip-path:url(#SVGID_1_);fill:#191D38;}
	.st10{clip-path:url(#SVGID_2_);fill:#F9EEE2;}
	.st11{fill:#F8EDE1;}
	.st12{fill:#F99F50;}
	.st13{fill:#5777B9;}
	.st14{fill:#44B986;}
	.st15{fill:#8FCFAF;}
	.st16{fill:none;stroke:#FBEFE3;stroke-width:0.1081;stroke-linejoin:round;stroke-miterlimit:10;}
	.st17{fill:#233D7D;}
	.st18{fill:none;stroke:#191E39;stroke-width:0.1081;stroke-linejoin:round;stroke-miterlimit:10;}
	.st19{fill:#F69EA1;}
</style>
<path class="st0" d="M91.3,75.1c0,1.1-68.1,1.4-68.1,0.3C23.2,73.3,91.3,72.7,91.3,75.1z"/>
<rect x="10" y="10" class="st1" width="80" height="80"/>
<path class="st2" d="M50,61.4"/>
<path class="st2" d="M48.3,74.3l-3.9,0c-0.2-1.1,1.4-1.2,1.4-1.2c-0.6-1.2-4.1-8-5.2-9.8c-0.6-1,2.6-2.4,3-1.7
	c0.7,1.3,4.5,10.1,4.8,11.2C48.6,73.6,48.3,74.1,48.3,74.3z"/>
<path class="st3" d="M41.6,50.3c0,0,1.3,2.9,7.1,3.3s7.5,0,10.6,1.9L52.7,64l-9.6-0.4C43.1,63.5,38.1,57.3,41.6,50.3z"/>
<path class="st3" d="M49.8,46.7c-1.5,1.8-4,3-7.3,3.6c0,0-6,11-7.2,9.4c-2.4-2.5-1.7-9.8-1.7-9.8c0.1-0.4,0.2-0.7,0.3-1.1
	c-1.9,0,0.9-2.8,0.9-2.8l-0.4-5.7c0-0.3,4.5,4.2,4.5,4.2s0.1,0,0.3,0l0.4-4.1l3.5,4.7c1.2,0.1,2.8,0.2,4.2,0.1
	C48,45.2,49.9,46.5,49.8,46.7z"/>
<path class="st3" d="M33.6,50.1C33.6,50.1,33.6,50.1,33.6,50.1L33.6,50.1C33.6,50.1,33.6,50.1,33.6,50.1z"/>
<path class="st4" d="M49.8,46.7c-1.5,1.8-4,3-7.3,3.6c-1.5,2.2-0.8,7.7,0.6,13.1c-3.2,0.3-6-1.2-7.8-3.7C35,59,34.5,52,38.5,49.1
	c6-0.7,10.5-3.1,12-4C50.8,45.3,50.5,45.9,49.8,46.7z"/>
<path class="st4" d="M38.5,49.1"/>
<path class="st5" d="M40,57c-1.5,0.4-2.5-1.5-1.5-2.6c-1.2,0.2-1.9,1.6-1.2,2.7c0.7,1.2,2.5,1.1,3.1-0.2C40.2,56.9,40.1,57,40,57z"
	/>
<path class="st6" d="M50.1,46.3c-0.1,0-2.2-0.4-2.8-1c0.7,0,2.8-0.5,3.2-0.2C50.7,45.3,50.6,45.7,50.1,46.3z"/>
<path class="st7" d="M48.8,48.2c-0.7,0.3-1.6,0-2-0.7"/>
<path class="st7" d="M34.3,48.3c-0.4,0.3-0.4,0.9-0.1,1.3l0,0c0.3,0.4,0.9,0.4,1.3,0.1l0.9-0.9c-0.3,0.4-0.3,0.9,0.1,1.3l0,0
	c0.4,0.3,0.9,0.3,1.3-0.1"/>
<g>
	<defs>
		<path id="SVGID_25_" d="M41.1,48.1h-2c-0.5,0-0.8-0.4-0.8-0.8v0c0-0.5,0.4-0.8,0.8-0.8h2c0.5,0,0.8,0.4,0.8,0.8v0
			C41.9,47.7,41.5,48.1,41.1,48.1z"/>
	</defs>
	<clipPath id="SVGID_1_">
		<use xlink:href="#SVGID_25_"  style="overflow:visible;"/>
	</clipPath>
	<path class="st8" d="M41.1,48.1h-2c-0.5,0-0.8-0.4-0.8-0.8v0c0-0.5,0.4-0.8,0.8-0.8h2C41.5,46.4,41.5,48.1,41.1,48.1z"/>
	<circle class="st9" cx="41.1" cy="47" r="1.1"/>
</g>
<path class="st7" d="M38.3,46.4c0,0,1.3-0.7,2.6-0.7L40.5,45C40.5,45,38.8,45.1,38.3,46.4z"/>
<polygon class="st2" points="35.1,45.8 34.7,41.5 37.6,44.7 "/>
<path class="st3" d="M61.8,56c0,0,4.8-2.9,12.2-0.1c8.6,3.3,10.5,16,17.3,17.7c0,0-5.2,1.8-9.4-0.5C74.6,69.1,72.2,60.7,61.8,56z"/>
<g>
	<defs>
		<path id="SVGID_31_" d="M61.8,56c0,0,4.8-2.9,12.2-0.1c8.6,3.3,10.5,16,17.3,17.7c0,0-5.2,1.8-9.4-0.5
			C74.6,69.1,72.2,60.7,61.8,56z"/>
	</defs>
	<clipPath id="SVGID_2_">
		<use xlink:href="#SVGID_31_"  style="overflow:visible;"/>
	</clipPath>
	<path class="st10" d="M79.7,71.4c0.3-0.5,0.9-0.6,1.4-0.5c0,0-1.9-1-0.6-2.5c1-1.2,2.9,0.4,2.9,0.4c-0.3-0.5-0.2-1.2,0.2-1.7
		c1.5-1.7,8.5,3.9,9,4.6C96.5,77.1,77.3,75.1,79.7,71.4z"/>
</g>
<path class="st3" d="M51,63.6c-1.5-3.5,0.6-9.4,5-9.4c6.1,0,9,13.8,6.3,14.3C59.4,69,53.2,68.5,51,63.6z"/>
<path class="st11" d="M44.8,70.7c-0.2,0.6-1.2,3.5-1.3,3.6h-3.8c0-0.6,0.4-1,1-1.1l0.7-0.1c0,0,1-4.7,1-4.7c0.1,0,0.3,0,0.4,0
	C43.3,68.6,44.5,70.2,44.8,70.7z"/>
<path class="st12" d="M46.7,62.2c-0.2,1.5-1.9,8.4-1.9,8.6c-0.2,0.6-2.5-1.1-2.5-2c0,0,0.7-4.9,0.9-7C43.4,60.5,46.9,61.4,46.7,62.2
	z"/>
<path class="st7" d="M51.1,63.9c-0.6-1.5-0.7-3.1-0.3-4.9c0.5-2,1.7-3.8,3.5-4.5"/>
<g>
	<path class="st13" d="M24.9,83.4h10.4c0.7,0,1.2-0.6,1.1-1.3l-8.5-68H19l4.7,68.3C23.8,83,24.3,83.4,24.9,83.4z"/>
	<g>
		<defs>
			<path id="SVGID_11_" d="M24.9,83.4h10.4c0.7,0,1.2-0.6,1.1-1.3l-8.5-68H19l4.7,68.3C23.8,83,24.3,83.4,24.9,83.4z"/>
		</defs>
		<clipPath id="SVGID_3_">
			<use xlink:href="#SVGID_11_"  style="overflow:visible;"/>
		</clipPath>
	</g>
	<path class="st14" d="M15,25.6c0-1.4-1.1-2.5-2.6-2.5l-2.5,0l0,2.5c0,1.4,1.1,2.5,2.6,2.5S15,27,15,25.6z"/>
	<path class="st15" d="M17.7,26c0.7-1.2,0.3-2.8-0.9-3.5l-2.2-1.3l-1.3,2.2c-0.7,1.2-0.3,2.8,0.9,3.5C15.4,27.7,17,27.2,17.7,26z"/>
	<path class="st16" d="M13.8,25.3"/>
	<path class="st16" d="M15.3,26.1"/>
	<path class="st16" d="M16.9,32.1"/>
	<path class="st16" d="M14.6,23.4"/>
	<path class="st16" d="M17,25.2"/>
	<path class="st16" d="M15.5,26.8"/>
	<path class="st16" d="M15.5,24.1"/>
	<path class="st13" d="M22.7,32.7L14,28.5c-0.3-0.2-0.7,0-0.9,0.3l0,0c-0.1,0.3-0.1,0.6,0.2,0.8l7.8,5.6c0.8,0.6,2,0.2,2.2-0.8l0,0
		C23.7,33.8,23.3,33,22.7,32.7z"/>
	<polygon class="st17" points="52.1,15.1 61.5,15.1 70.3,90.1 54.7,90.1 	"/>
	<g>
		<defs>
			<polygon id="SVGID_13_" points="52.1,15.1 61.5,15.1 70.3,90.1 54.7,90.1 			"/>
		</defs>
		<clipPath id="SVGID_4_">
			<use xlink:href="#SVGID_13_"  style="overflow:visible;"/>
		</clipPath>
	</g>
	<path class="st15" d="M64.3,26.4c-1-1.6-0.4-3.6,1.1-4.6l2.9-1.7L70,23c1,1.6,0.4,3.6-1.1,4.6C67.3,28.5,65.2,28,64.3,26.4z"/>
	<line class="st18" x1="68.2" y1="20.3" x2="65.4" y2="31.8"/>
	<path class="st19" d="M67,25.6c0.2-1.9,1.9-3.4,3.9-3.2l3.5,0.3L74,26.3c-0.2,1.9-1.9,3.4-3.9,3.2C68.2,29.3,66.8,27.6,67,25.6z"/>
	<g>
		<defs>
			<path id="SVGID_15_" d="M70.2,29.5c-1-0.1-1.8-0.6-2.4-1.3l0,0l6.6-5.4L74,26.3C73.8,28.3,72.1,29.7,70.2,29.5z"/>
		</defs>
		<clipPath id="SVGID_5_">
			<use xlink:href="#SVGID_15_"  style="overflow:visible;"/>
		</clipPath>
	</g>
	<path class="st18" d="M74.1,23l-6.7,5.6c-1.2,1-2,2.4-2.3,3.9"/>
	<path class="st13" d="M62.8,33.3l9-3.3c0.3-0.1,0.7,0,0.8,0.4c0,0,0,0.6-0.3,0.8L64,36c-0.9,0.5-2,0-2.1-1v0
		C61.8,34.3,62.2,33.6,62.8,33.3z"/>
</g>
</svg>
