<?xml version="1.0" encoding="utf-8"?>
<!-- Generator: Adobe Illustrator 22.1.0, SVG Export Plug-In . SVG Version: 6.00 Build 0)  -->
<svg version="1.1" id="Layer_1" xmlns="http://www.w3.org/2000/svg" xmlns:xlink="http://www.w3.org/1999/xlink" x="0px" y="0px"
	 viewBox="0 0 100 100" style="enable-background:new 0 0 100 100;" xml:space="preserve">
<style type="text/css">
	.st0{fill:none;}
	.st1{fill:#233D7D;}
	.st2{fill:none;stroke:#3E5CAA;stroke-width:0.2771;stroke-miterlimit:10;}
	.st3{fill:#191E39;}
	.st4{fill:none;stroke:#233D7D;stroke-width:0.4156;stroke-miterlimit:10;}
	.st5{fill:#F79A89;}
	.st6{fill:#F06680;}
	.st7{fill:#F99E4E;}
	.st8{fill:#F9EEE2;}
	.st9{fill:none;stroke:#191D38;stroke-width:0.1951;stroke-linejoin:round;stroke-miterlimit:10;}
	.st10{fill:#191D38;}
	.st11{fill:#5777BA;}
	.st12{fill:#FFFFFF;}
	.st13{clip-path:url(#SVGID_2_);fill:#F9EEE2;}
</style>
<rect x="10" y="10" class="st0" width="80" height="80"/>
<g>
	<g>
		<path class="st1" d="M72.9,87.6H27c-5.9,0-10.7-4.8-10.7-10.7l0,0c0-5.9,4.8-10.7,10.7-10.7h46c5.9,0,10.7,4.8,10.7,10.7l0,0
			C83.6,82.8,78.8,87.6,72.9,87.6z"/>
		<g>
			<g>
				<path class="st2" d="M82.8,72.7l-12.9-2.4c-1.4-0.5-37.5-0.6-37.5-0.6"/>
				<path class="st2" d="M48,72.5"/>
				<path class="st2" d="M35.6,72.3"/>
				<polyline class="st2" points="83.5,78.7 78.8,78.8 63.9,74.1 36.2,74.1 				"/>
				<path class="st2" d="M35.6,78.6"/>
				<path class="st2" d="M35.8,76.8l31.3,0.8"/>
				<path class="st2" d="M50.4,87.6c0,0,8.6-7.1,13.6-6.9L82.7,81"/>
				<polyline class="st2" points="45.5,87.6 47.5,83.1 33.3,83 33.3,83 				"/>
			</g>
			<path id="SVGID_1_" class="st0" d="M72.9,87.6H27c-5.9,0-10.7-4.8-10.7-10.7l0,0c0-5.9,4.8-10.7,10.7-10.7h46
				c5.9,0,10.7,4.8,10.7,10.7l0,0C83.6,82.8,78.8,87.6,72.9,87.6z"/>
		</g>
		<circle class="st3" cx="27.1" cy="76.8" r="10.8"/>
		<g>
			<circle class="st4" cx="27.1" cy="76.8" r="8.8"/>
			<circle class="st4" cx="27.1" cy="76.8" r="5.2"/>
		</g>
	</g>
	<g>
		<polygon class="st5" points="38.7,32.7 39.3,24.4 43.9,31.2 		"/>
		<path class="st6" d="M42,52.4c0,0-1.2,8.1-3.8,14h-4.7l0,0c0-0.7,2-1.5,2-1.5s1.7-5.1,2.2-14.4L42,52.4z"/>
		<path class="st6" d="M64.3,59.7c-0.1,0.2-0.2,0.5-0.4,0.7L64.3,59.7z"/>
		<path class="st0" d="M41.3,34.5h-2.4c-0.6,0-1-0.5-1-1v0c0-0.6,0.5-1,1-1h2.4c0.6,0,1,0.5,1,1v0C42.3,34,41.9,34.5,41.3,34.5z"/>
		<path class="st7" d="M43,37.2c-1.8,2.7-1,9.5,0.7,16.1c-3.8,0.4-7.3-1.5-9.5-4.6c-2.1-2.9-3.1-7-2.2-11.3c0.1-0.7,0.3-1.3,0.4-1.9
			c-4.5-0.7,1.1-3.2,1.1-3.2l-0.5-7.2c0-0.4,5.5,5.1,5.5,5.1h0c0.4,0,8.1,1,10.2,0.8c0.8,0,1.6-0.1,2.4-0.3c0.8-0.2,1.3-0.1,1.5,0
			C53.1,31.1,47.1,36.4,43,37.2z"/>
		<path class="st8" d="M52,32.8c-1.9,2.3-4.9,3.6-8.9,4.4c-1.8,2.7-1,9.5,0.7,16.1c-3.8,0.4-7.3-1.5-9.5-4.5
			c-1.9-4.3,0.3-9.1,3.9-13c7.4-0.8,12.8-3.8,14.6-4.9C53.1,31.1,52.8,31.8,52,32.8z"/>
		<path class="st9" d="M50.7,34.6c-0.9,0.4-2,0-2.4-0.9"/>
		<path class="st10" d="M52.4,32.3c-0.1,0-0.3,0-0.4,0c-1.2,0-2.3-0.5-3.1-1.3c0.8,0,1.6-0.1,2.4-0.3c0.8-0.2,1.3-0.1,1.5,0
			C53.1,31.1,52.9,31.6,52.4,32.3z"/>
		<g>
			<path class="st11" d="M40,45.1c-1,0.3-2-0.4-2.3-1.4c-0.2-0.7,0-1.3,0.5-1.8c-0.1,0-0.2,0-0.3,0c-1.1,0.3-1.8,1.5-1.5,2.6
				s1.5,1.8,2.6,1.5c0.7-0.2,1.2-0.6,1.4-1.2C40.3,45,40.2,45.1,40,45.1z"/>
			<circle class="st11" cx="38.8" cy="43.5" r="0.4"/>
			<circle class="st11" cx="40.2" cy="44" r="0.3"/>
		</g>
		<path class="st9" d="M33,34.8c-0.5,0.4-0.5,1.1-0.1,1.5h0c0.4,0.5,1.1,0.5,1.5,0.1l1.1-1.1c-0.4,0.5-0.3,1.2,0.2,1.5v0
			c0.5,0.4,1.2,0.3,1.5-0.2"/>
		<path class="st12" d="M42.3,33.5c0,0.4-0.2,0.7-0.5,0.9c-0.2,0.1-2.9,0.1-2.9,0.1c-0.6,0-1-0.5-1-1c0-0.6,0.5-1,1-1h2.4
			C41.9,32.4,42.3,32.9,42.3,33.5z"/>
		<path class="st10" d="M41.9,33.9c0,0.2,0,0.3-0.1,0.4c-0.2,0.1-0.3,0.1-0.5,0.1h-1.9c-0.1-0.2-0.1-0.4-0.1-0.6
			c0-0.7,0.6-1.3,1.3-1.3C41.3,32.6,41.9,33.1,41.9,33.9z"/>
		<path class="st6" d="M64.3,59.6C64.3,59.6,64.3,59.6,64.3,59.6C64.3,59.6,64.3,59.6,64.3,59.6z"/>
		<g>
			<path class="st7" d="M63.6,43.5l-8.1,10.3l-7.6-0.4c-0.4,2.4-1.6,8.3-3.6,13L41.7,65c0,0,1.3-4.1,2-11.7c-0.6-0.8-4.6-8-0.7-16
				c0,0,0.5,3.5,7.6,4C57.8,41.7,59.9,41.3,63.6,43.5z"/>
			<path class="st8" d="M43,59.2C42.3,63,41.7,65,41.7,65s-2,0.8-2,1.5h4.7c0.6-1.4,1.1-2.9,1.6-4.4C45.5,61.5,43.1,59.2,43,59.2z"
				/>
		</g>
		<path class="st6" d="M64.3,59.7l-4,6.8h-3.7c0.1-0.7,1.8-1.5,1.8-1.5s1.8-4,1.8-4c-3.5-1.1-9.9-5-8-13c1.2-5.2,6.6-7.1,11.4-4.4
			C67.3,45.6,64.3,59.7,64.3,59.7z"/>
		<g>
		</g>
		<g>
			<path class="st7" d="M70.1,58.1L70.1,58.1l-4,8.4L64.2,65c0,0,1.1-3.7,1.7-5.5c-5.8,1.4-10.8-0.8-13.2-6.2
				c-1.9-4.2,1.3-11.6,6.7-11.5c7.4,0.1,10.6,7.9,6.9,13.8C68.9,56.4,70.5,57.5,70.1,58.1z"/>
			<path class="st8" d="M65.4,61.3c-0.6,1.7-1.1,3.7-1.1,3.7s-1.7,0.8-1.8,1.5h3.7l2-4.3C68,62.1,65.5,61.3,65.4,61.3z"/>
		</g>
		<g>
			<path class="st6" d="M33.9,32.2l-0.3-4.6c0-0.2,0.2-0.3,0.4-0.2l2.1,2.4c0.4,0.5,0.3,1.3-0.3,1.5L33.9,32.2z"/>
		</g>
		<path class="st7" d="M65.4,45c0,0,7.8-1.3,8.6-8.1c0.8-6.8-4.2-11.2-11.2-15.7s-3.3-7.2-2.4-7.9c-3.9-1.5-8.7-1.2-10.6,3.7
			c-2.2,5.8,3.6,11.4,12,15.8S65.4,45,65.4,45z"/>
		<g>
			<defs>
				<path id="SVGID_3_" d="M65.4,45c0,0,7.8-1.3,8.6-8.1c0.8-6.8-4.2-11.2-11.2-15.7s-3.3-7.2-2.4-7.9c-3.9-1.5-8.7-1.2-10.6,3.7
					c-2.2,5.8,3.6,11.4,12,15.8S65.4,45,65.4,45z"/>
			</defs>
			<clipPath id="SVGID_2_">
				<use xlink:href="#SVGID_3_"  style="overflow:visible;"/>
			</clipPath>
			<path class="st13" d="M64.4,11.9c-2.3-2.3-28-4.3-14.8,12.2c0.8,1,8.2,6.8,6.7,1.1c3.8,1.9,4.8-0.4,2.6-3.4
				C61.8,22.9,65.8,13.3,64.4,11.9z"/>
		</g>
		<path class="st9" d="M37.8,32.4c0,0,1.6-0.8,3.1-0.9l-0.4-0.8C40.6,30.7,38.5,30.8,37.8,32.4z"/>
	</g>
</g>
</svg>
