<?xml version="1.0" encoding="utf-8"?>
<!-- Generator: Adobe Illustrator 22.1.0, SVG Export Plug-In . SVG Version: 6.00 Build 0)  -->
<svg version="1.1" id="Layer_1" xmlns="http://www.w3.org/2000/svg" xmlns:xlink="http://www.w3.org/1999/xlink" x="0px" y="0px"
	 viewBox="0 0 100 100" style="enable-background:new 0 0 100 100;" xml:space="preserve">
<style type="text/css">
	.st0{fill:none;}
	.st1{fill:#3A409C;}
	.st2{fill:#0D166E;}
	.st3{fill:#F54D7A;}
	.st4{fill:#FBEFE3;}
	.st5{fill:#F99E4D;}
	.st6{fill:#F99E4D;stroke:#191E39;stroke-width:0.1797;stroke-miterlimit:10;}
	.st7{fill:none;stroke:#191E39;stroke-width:0.1797;stroke-miterlimit:10;}
	.st8{fill:none;stroke:#FBEFE3;stroke-width:0.1797;stroke-linejoin:round;stroke-miterlimit:10;}
	.st9{clip-path:url(#SVGID_2_);}
	.st10{fill:#191E39;}
	.st11{fill:none;stroke:#191E39;stroke-width:0.1797;stroke-linejoin:round;stroke-miterlimit:10;}
	.st12{clip-path:url(#SVGID_3_);fill:#FFFFFF;}
	.st13{clip-path:url(#SVGID_3_);fill:#191E39;}
	.st14{fill:#5777B9;}
</style>
<rect x="10" y="10" class="st0" width="80" height="80"/>
<path class="st1" d="M31.2,78.6c-7.6,0.4-20.2-4.4-20.5-16.5c-0.4-18.9,20.1-17.5,23.9-23.9c8.7-15,32.9-32.9,51.3-8.7
	c8.2,10.7-0.3,19.3,2.7,22.8c7.6,8.9,2.9,18.3-3.5,23.8C79.1,81.1,46.8,77.7,31.2,78.6z"/>
<path class="st2" d="M90.8,76c0,4.2-78.5,3.9-78.5,0C12.3,70.8,90.8,71.4,90.8,76z"/>
<g>
	<path class="st3" d="M54.2,52.3c-0.2,2.7-1.7,6.8-6.7,8.7c-1.5,0.5-3.2,0.9-5.4,0.9l-0.5,14.5h-3l-0.2-3.7
		c-1.8,2.1-4.2,3.7-6.8,3.7c-1,0-1.8-0.2-2.5-0.6c0.1,0.4,0.2,0.6,0.2,0.6s-6,0-9-4c-2.5-3.2-3.7-10.7,4-15.7
		c5.3-3.5,21.2-3.1,22.9-3.2c4.6-0.3,5.8-0.9,6.5-1.5C53.9,51.8,54.2,52,54.2,52.3z"/>
	<g>
		<path class="st4" d="M54.2,51.5c-0.1,2.6-1.3,7.4-6.8,9.4c-0.7-0.2-1.2-1.3-0.3-2.2c0,0-1.9,0.3-2.3-0.8c-0.6-1.8,1.9-2.1,1.9-2.1
			c-1-0.1-1.8-1.5-1-2.3c0.5,0,1,0,1.4,0c5.2-0.4,6.5-1.2,7-1.9C54.2,51.4,54.2,51.5,54.2,51.5z"/>
	</g>
	<path class="st5" d="M29.3,76.3c-4.7-0.3-6.8-5.5-5.5-9.1c0.8-2.3,9.8-16.4,10.5-17.9c0.9,0.2,7.2,3,7.6,2.9
		c0.2,0.6-0.1,12.3-1.2,13.5c0,0,0,0,0,0l3.2,7.6l-3,1.4L38.5,70C38.1,71.5,34.8,76.6,29.3,76.3z"/>
	<path class="st6" d="M36.8,51.5l-1.3,0.9c-0.5,0.3-1.1,0.2-1.4-0.3l0,0c-0.2-0.3-0.2-0.6-0.1-0.8l-1.2,0.8
		c-0.5,0.3-1.1,0.2-1.4-0.3v0c-0.3-0.5-0.2-1.1,0.3-1.4l1.6-1.1"/>
	<path class="st7" d="M34.2,62.4c0,0-1.7-1.3-4.8-0.4"/>
	<g>
		<circle class="st8" cx="31" cy="68.6" r="2.1"/>
		<circle class="st8" cx="31" cy="68.6" r="5"/>
	</g>
	<path class="st4" d="M34.9,74.2l3.1,0.2c0.7,0,1.3,0.5,1.5,1.2l0.2,0.7c0,0-4.4,0-8.7,0C32.1,76,33.8,75.1,34.9,74.2z"/>
	<path class="st4" d="M41.3,75.8"/>
	<g>
		<path class="st4" d="M46.3,76.3h-4.8l-2-4.1c0-0.3,2.8-2,3-1.7l1.8,4.4L46.3,76.3z"/>
		<path class="st4" d="M44,73.8"/>
	</g>
	<line class="st6" x1="38.5" y1="70" x2="34.2" y2="60.9"/>
	<g>
		<path class="st3" d="M41,48c0,0-2.5-3-4.2-4.8c-0.1-0.1-0.3-0.1-0.4,0.1c-0.4,1.6-0.1,4.2-0.1,4.2L41,48z"/>
	</g>
	<path class="st5" d="M49,47.2c-0.6,1.3-2.1,3.6-7.7,5.2c-3.8,0.1-8.1-2.8-8.1-2.8s-0.6-2.6-1.6-5c-0.1-0.2,0.1-0.4,0.3-0.3
		c2.8,0.7,4.9,2.1,5.3,2.4c0.9,0.2,3.8,0.6,6.8,0.5c1.9-0.1,3.5-0.4,4.3-0.6C48.8,46.4,49.2,46.8,49,47.2z"/>
	<g>
		<defs>
			<path id="SVGID_1_" d="M34.1,50.4c1.3,0.6,2.7,1.2,4.1,1.6c1,0.3,2,0.4,3,0.4c5.5-1.6,7.3-4,7.9-5.3c0.2-0.4-0.2-0.8-0.6-0.7
				c-0.9,0.2-2.4,0.5-4.4,0.6c-3.7,0.1-7.2-0.6-7.2-0.6l-3.7,3L34.1,50.4z"/>
		</defs>
		<clipPath id="SVGID_2_">
			<use xlink:href="#SVGID_1_"  style="overflow:visible;"/>
		</clipPath>
		<g class="st9">
			<path class="st4" d="M36.8,51.5c0,0,6.9-0.5,10.7-4.4l2.9,0.3l-10.6,7.5L36.8,51.5z"/>
			<path class="st10" d="M51.8,46.3c1.1-1.7-6.6,0-4.9,1.1S50.7,47.9,51.8,46.3z"/>
		</g>
	</g>
	<path class="st11" d="M49,48.8c0,0-1.8,1.2-2.9-0.2"/>
	<g>
		<path class="st3" d="M33.5,48.4c0,0-0.4-1.1-0.8-2c-0.1-0.2,0.1-0.4,0.3-0.3c1.3,0.7,2.1,1.5,2.1,1.5L33.5,48.4z"/>
	</g>
	<g>
		<defs>
			<path id="SVGID_15_" d="M39.3,49.9l-1.7,0c-0.4,0-0.7-0.3-0.7-0.7v0c0-0.4,0.3-0.7,0.7-0.7l1.7,0c0.4,0,0.7,0.3,0.7,0.7v0
				C40,49.6,39.7,49.9,39.3,49.9z"/>
		</defs>
		<clipPath id="SVGID_3_">
			<use xlink:href="#SVGID_15_"  style="overflow:visible;"/>
		</clipPath>
		<path class="st12" d="M39.3,49.9l-1.7,0c-0.4,0-0.7-0.3-0.7-0.7v0c0-0.4,0.3-0.7,0.7-0.7l1.7,0c0.4,0,0.7,0.3,0.7,0.7v0
			C40,49.6,39.7,49.9,39.3,49.9z"/>
		<circle class="st13" cx="38.8" cy="49.4" r="1"/>
	</g>
	<path class="st11" d="M38.8,47.8l-0.5-0.9c0,0-1.4,0.3-1.8,1.4C37.8,47.7,38.8,47.8,38.8,47.8z"/>
	<path class="st4" d="M43.1,62.4c-0.6,1-1.4,2.1-2.4,3.4c-1-1.9-2-4.5-2.8-7.6c-0.8-3.1-0.9-4.5-1-6.6c0.1,0,4.6,0.8,5,0.7
		c0.2,0.6,0.9,2.2,1.7,4.3C44.2,58.4,44.1,60.6,43.1,62.4z"/>
</g>
<circle class="st4" cx="69" cy="35.4" r="10.5"/>
<path class="st14" d="M42.9,59c-0.8,0.2-1.6-0.3-1.8-1.1c-0.1-0.5,0-1.1,0.4-1.4c-0.1,0-0.1,0-0.2,0c-0.9,0.2-1.4,1.2-1.2,2.1
	c0.2,0.9,1.2,1.5,2,1.2c0.5-0.1,0.9-0.5,1.1-0.9C43.1,58.9,43,58.9,42.9,59z"/>
<circle class="st14" cx="41.9" cy="57.7" r="0.3"/>
<circle class="st14" cx="43" cy="58.1" r="0.3"/>
</svg>
