<?xml version="1.0" encoding="utf-8"?>
<!-- Generator: Adobe Illustrator 22.1.0, SVG Export Plug-In . SVG Version: 6.00 Build 0)  -->
<svg version="1.1" id="Layer_1" xmlns="http://www.w3.org/2000/svg" xmlns:xlink="http://www.w3.org/1999/xlink" x="0px" y="0px"
	 viewBox="0 0 100 100" style="enable-background:new 0 0 100 100;" xml:space="preserve">
<style type="text/css">
	.st0{fill:none;}
	.st1{fill:url(#SVGID_2_);}
	.st2{clip-path:url(#SVGID_3_);fill:#FBEFE3;}
	.st3{fill:url(#SVGID_4_);}
	.st4{fill:#F99E4D;stroke:#191E39;stroke-width:0.4;stroke-miterlimit:10;}
	.st5{fill:#191E39;}
	.st6{fill:#F06A7E;}
	.st7{fill:none;stroke:#191E39;stroke-width:0.3663;stroke-linejoin:round;stroke-miterlimit:10;}
	.st8{fill:#F99E4D;}
	.st9{clip-path:url(#SVGID_7_);fill:#FFFFFF;}
	.st10{clip-path:url(#SVGID_7_);fill:#191E39;}
	.st11{clip-path:url(#SVGID_8_);fill:#FFFFFF;}
	.st12{clip-path:url(#SVGID_8_);fill:#191E39;}
</style>
<rect x="10" y="10" class="st0" width="80" height="80"/>
<g>
	<g>
		<radialGradient id="SVGID_2_" cx="37.5053" cy="53.8801" r="38.111" gradientUnits="userSpaceOnUse">
			<stop  offset="0.2831" style="stop-color:#F64A6E"/>
			<stop  offset="0.3315" style="stop-color:#F65966"/>
			<stop  offset="0.4469" style="stop-color:#F67557"/>
			<stop  offset="0.5615" style="stop-color:#F68A4C"/>
			<stop  offset="0.6741" style="stop-color:#F69745"/>
			<stop  offset="0.7821" style="stop-color:#F69B43"/>
		</radialGradient>
		<path class="st1" d="M39,21c-16.9,5.1-21.8,21.6-21.2,33c0.6,10.2,4.1,19.6,14.4,26.2c21,13.2,40-4.1,46-15.7
			c6-11.6,4.5-13.6,9.8-17.5c-8.2-5.6-18.9-4.9-25,1.4S39,21,39,21z"/>
		<g>
			<defs>
				<path id="SVGID_1_" d="M32.2,80.1c21,13.2,40-4.1,46-15.7c6-11.6,4.5-13.6,9.8-17.5c-8.2-5.6-18.9-4.9-25,1.4"/>
			</defs>
			<clipPath id="SVGID_3_">
				<use xlink:href="#SVGID_1_"  style="overflow:visible;"/>
			</clipPath>
			<path class="st2" d="M86,61.9c0,0-7.6,8.7-7.6,8.7c-1.7,2-4.8,2.2-6.8,0.5c-1.3-1.1-1.9-2.9-1.6-4.5c0,0-4.3,5.4-7.9,1.8
				c-1.9-1.9-2.2-4.8-0.5-6.8L72,29.6C70.3,30.4,98.6,45.2,86,61.9z"/>
		</g>
	</g>
	<linearGradient id="SVGID_4_" gradientUnits="userSpaceOnUse" x1="27.664" y1="41.7506" x2="72.0083" y2="41.7506">
		<stop  offset="0.4679" style="stop-color:#F69B43"/>
		<stop  offset="0.8909" style="stop-color:#F64A3C"/>
	</linearGradient>
	<path class="st3" d="M27.7,42.1c0-13.4,6.2-22.7,19.6-22.7S72,28.5,72,41.9s-8.9,22.2-22.3,22.2S27.7,55.6,27.7,42.1z"/>
	<path class="st4" d="M41,61.6l-3.6,1.5c-1.3,0.5-3.4-0.2-3.5-2.2l-1.6,0.7c-1.9,0.7-4.6-1-3.3-3.4l0,0c-1.3,0.5-2.7-0.1-3.3-1.3
		c-0.6-1.3,0.4-2.9,1.3-3.3l3.6-1.5C31.9,51.5,42,61.2,41,61.6z"/>
	<g>
		<g>
			<path class="st5" d="M47.7,34.1c0,0-3.2,3.2-5.6,8.1l1.3,0L47.7,34.1z"/>
			<path class="st6" d="M51,43.3c0,0-0.5-4.5-2.8-10.1c-2.9,4.3-4.8,9.1-4.8,9.1L51,43.3z"/>
			<path class="st7" d="M49.8,42.8c0,0-2.8-0.8-2.8-0.8l1.8-5C48.9,37,49.8,40.5,49.8,42.8z"/>
		</g>
	</g>
	<path class="st8" d="M57.7,68.2c-0.7-0.2-17.8-5.1-23.4-8.7c-8.8-5.6-2.4-12.6,2-15.7c4.3-3.1,14.2-5.3,18.2,4.1
		c2.4,5.7,5.6,17,5.8,17.6C60.8,67.1,59.4,68.7,57.7,68.2z"/>
	<path class="st7" d="M51.3,64.1c0,0,0.4,4.3,4,4.2"/>
	<g>
		<defs>
			<path id="SVGID_19_" d="M44,41.1c0,0,9.9,15.4,15.4,25.8c0,0-14.4-14.4-23.1-23.1C36.3,43.8,38.5,41.8,44,41.1z"/>
		</defs>
		<linearGradient id="SVGID_5_" gradientUnits="userSpaceOnUse" x1="40.3058" y1="42.6208" x2="57.0061" y2="59.4726">
			<stop  offset="0.2918" style="stop-color:#F69B43"/>
			<stop  offset="0.8949" style="stop-color:#F55C65"/>
		</linearGradient>
		<use xlink:href="#SVGID_19_"  style="overflow:visible;fill:url(#SVGID_5_);"/>
		<clipPath id="SVGID_6_">
			<use xlink:href="#SVGID_19_"  style="overflow:visible;"/>
		</clipPath>
	</g>
	<path class="st7" d="M39.8,50.1c-1-1.3-4.4,1.5-3.9,2.4c0.4,0.7,2.1-0.5,2.7-0.6C39.3,51.6,40.6,51.1,39.8,50.1z"/>
	<path class="st7" d="M51.1,47.8c0.1-0.8,0.3-1.2,1.2-1.2c0.7-0.1,2.3,0.1,2.5,0.9c0.3,1-1.1,1-1.6,1C52.6,48.5,50.9,49,51.1,47.8z"
		/>
	<g>
		<defs>
			<path id="SVGID_21_" d="M42.5,56.6l-4.2,0.8c-1,0.2-1.9-0.5-2.1-1.5v0c-0.2-1,0.5-1.9,1.5-2.1l4.2-0.8c1-0.2,1.9,0.5,2.1,1.5l0,0
				C44.1,55.5,43.4,56.4,42.5,56.6z"/>
		</defs>
		<clipPath id="SVGID_7_">
			<use xlink:href="#SVGID_21_"  style="overflow:visible;"/>
		</clipPath>
		<path class="st9" d="M42.5,56.6l-4.2,0.8c-1,0.2-1.9-0.5-2.1-1.5v0c-0.2-1,0.5-1.9,1.5-2.1l4.2-0.8c1-0.2,1.9,0.5,2.1,1.5l0,0
			C44.1,55.5,43.4,56.4,42.5,56.6z"/>
		<circle class="st10" cx="41.9" cy="55.8" r="2.3"/>
	</g>
	<g>
		<defs>
			<path id="SVGID_23_" d="M55.4,53.9l-1.2,0.2c-1,0.2-1.9-0.5-2.1-1.5v0c-0.2-1,0.5-1.9,1.5-2.1l1.2-0.2c1-0.2,1.9,0.5,2.1,1.5v0
				C57.1,52.8,56.4,53.8,55.4,53.9z"/>
		</defs>
		<clipPath id="SVGID_8_">
			<use xlink:href="#SVGID_23_"  style="overflow:visible;"/>
		</clipPath>
		<path class="st11" d="M55.4,53.9l-1.2,0.2c-1,0.2-1.9-0.5-2.1-1.5v0c-0.2-1,0.5-1.9,1.5-2.1c0,0,2.9-1,3.3,1.2v0
			C57.1,52.8,56.4,53.8,55.4,53.9z"/>
		<circle class="st12" cx="56.4" cy="52.9" r="2.3"/>
	</g>
	<g>
		<path class="st6" d="M27.5,39c0,0,4.4,1.9,9.6,5.5c0.6,1.3-0.8,2.6-0.8,2.6L27.5,39z"/>
		<path class="st8" d="M29.8,52.9c0,0-2.9-7.1-2.3-13.9c4.9,3.6,8.8,8,8.8,8L29.8,52.9z"/>
		<path class="st6" d="M30.5,50.4c0.8-1.1,1.6-1.9,2.2-2.6c-0.9-1.5-3.5-3.1-3.5-3.1C29.5,46.8,30.5,50.4,30.5,50.4z"/>
	</g>
</g>
<path class="st5" d="M57.7,68.2c-0.7-0.2-1.4-0.3-2.2-0.6c0.6-1.9,2.1-3.4,4.1-4c0.2,0.6,0.4,1.2,0.6,1.8
	C60.8,67.1,59.4,68.7,57.7,68.2z"/>
</svg>
