<?xml version="1.0" encoding="utf-8"?>
<!-- Generator: Adobe Illustrator 22.1.0, SVG Export Plug-In . SVG Version: 6.00 Build 0)  -->
<svg version="1.1" id="Layer_1" xmlns="http://www.w3.org/2000/svg" xmlns:xlink="http://www.w3.org/1999/xlink" x="0px" y="0px"
	 viewBox="0 0 100 100" style="enable-background:new 0 0 100 100;" xml:space="preserve">
<style type="text/css">
	.st0{fill:none;}
	.st1{fill:#F79A89;}
	.st2{fill:none;stroke:#F99E4E;stroke-width:5.3255;stroke-miterlimit:10;}
	.st3{fill:none;stroke:#F99E4E;stroke-width:3.5988;stroke-miterlimit:10;}
	.st4{fill:#233E7D;}
	.st5{fill:none;stroke:#191D38;stroke-width:0.1426;stroke-miterlimit:10;}
	.st6{fill:none;stroke:#F99E4E;stroke-width:3.5988;stroke-linejoin:round;stroke-miterlimit:10;}
	.st7{fill:#F99E4E;}
	.st8{fill:#8ECEAE;}
	.st9{fill:none;stroke:#191D38;stroke-width:0.1426;stroke-linejoin:round;stroke-miterlimit:10;}
	.st10{fill:#191D38;}
	.st11{fill:none;stroke:#191D38;stroke-width:0.8126;stroke-miterlimit:10;}
	.st12{clip-path:url(#SVGID_2_);fill:url(#SVGID_3_);}
	.st13{fill:#F45079;}
	.st14{fill:#F06680;}
	.st15{fill:none;stroke:#191E39;stroke-width:0.1998;stroke-miterlimit:10;}
	.st16{clip-path:url(#SVGID_4_);fill:#1D4E9F;}
	.st17{fill:#F99E4D;}
	.st18{fill:#1D4E9F;}
	.st19{fill:#3E5CAA;}
</style>
<pattern  y="100" width="127.5" height="98.1" patternUnits="userSpaceOnUse" id="New_Pattern_7" viewBox="14 -114.4 127.5 98.1" style="overflow:visible;">
	<g>
		<rect x="14" y="-114.4" class="st0" width="127.5" height="98.1"/>
		<polygon class="st1" points="155.6,-8.1 155.6,-24.3 141.5,-32.4 127.5,-24.3 127.5,-8.1 141.5,0 		"/>
		<polygon class="st1" points="28.1,-8.1 28.1,-24.3 14,-32.4 0,-24.3 0,-8.1 14,0 		"/>
		<polygon class="st1" points="155.6,-106.3 155.6,-122.5 141.5,-130.6 127.5,-122.5 127.5,-106.3 141.5,-98.1 		"/>
		<polygon class="st1" points="91.8,-57.2 91.8,-73.4 77.8,-81.5 63.8,-73.4 63.8,-57.2 77.8,-49.1 		"/>
		<polygon class="st1" points="28.1,-106.3 28.1,-122.5 14,-130.6 0,-122.5 0,-106.3 14,-98.1 		"/>
	</g>
</pattern>
<rect x="10" y="10" class="st0" width="80" height="80"/>
<g>
	<g>
	</g>
</g>
<g>
	<polyline class="st2" points="62.5,78.6 54.4,65.4 49,52.2 	"/>
	<polyline class="st2" points="40.5,81.3 42.2,63.1 44.1,52.4 	"/>
	<path class="st3" d="M39,37.9c0,0-2.4,2.7-5.5,2.7s-9.2-4.4-9.2-4.4"/>
	<path class="st4" d="M56.8,60.6l-7.6,2.8c-0.1-0.2-0.9-2.4-1.8-5.7l-0.9,4.9l-8-1.4l2.8-16L53,45.5C54.1,52.9,56.8,60.6,56.8,60.6z
		"/>
	<line class="st5" x1="40.3" y1="40.3" x2="40.4" y2="35.1"/>
	<polyline class="st6" points="54.6,35.5 58.2,45.6 53.4,51 	"/>
	<path class="st7" d="M55.2,51.5l-1.1,3.5c0,0,0,0,0,0l-3.2-1c-0.6-0.2,1.2-4.3,1.2-4.3L55.2,51.5z"/>
	<g>
		<path class="st7" d="M25.8,35.1c0-0.1-2.2-2-2.2-2c-0.7-0.6-1.7,0.1-0.7,0.9l-3.2,0.6c-1.6,0-1.2,3.9,0.2,3.8l4.8-0.1
			C25.4,38.4,26,35.3,25.8,35.1z"/>
		<path class="st5" d="M22,35.2c0,0-0.4,1.7,0.2,2.7"/>
		<line class="st5" x1="21.9" y1="35.5" x2="19.9" y2="35.6"/>
		<line class="st5" x1="21.9" y1="36.5" x2="19.8" y2="36.6"/>
		<line class="st5" x1="21.9" y1="37.4" x2="19.9" y2="37.4"/>
	</g>
	<g>
		<path class="st8" d="M58.2,38.7l-3.8,1.5l-0.2,9.4l-14.1-0.2l-0.1-8.6l-3.5-3.5c0,0,4.1-4.9,6.2-5.1h11
			C56.5,32.3,58.2,38.7,58.2,38.7z"/>
		<polyline class="st9" points="51.8,38.1 52.9,40.8 54.9,40 		"/>
	</g>
	<path class="st7" d="M50.1,27.8l-4.5,4.4c-0.1,1.1,0.7,2.3,1.9,2.4h0c1.1,0.1,2.1-0.8,2.2-1.9L50.1,27.8z"/>
	<polygon class="st10" points="48.4,30.3 45.6,32.2 45.7,30.2 	"/>
	<circle class="st10" cx="44.1" cy="24.1" r="2.2"/>
	<circle class="st10" cx="44.1" cy="24.1" r="2.2"/>
	<g>
		<defs>
			<circle id="SVGID_7_" cx="44.1" cy="24.1" r="2.2"/>
		</defs>
		<clipPath id="SVGID_1_">
			<use xlink:href="#SVGID_7_"  style="overflow:visible;"/>
		</clipPath>
	</g>
	<circle class="st10" cx="51.8" cy="25" r="2.6"/>
	<circle class="st10" cx="51.2" cy="27.3" r="2.2"/>
	<circle class="st10" cx="49.7" cy="29" r="1.2"/>
	<path class="st7" d="M50.8,28.7c-0.4,0-0.8,0-1.1-0.2c-0.3,1.2-1.4,2.2-2.7,2.4c-1.8,0.3-3.4-1-3.7-2.8c0-0.3,0.3-6.2,0.3-6.2
		l6.4,0.1L49.9,25c0.1,0,0.2-0.1,0.3-0.1c1-0.1,2,0.6,2.2,1.6C52.5,27.6,51.8,28.5,50.8,28.7z"/>
	<path class="st11" d="M47.9,24.8c0,0-0.5-0.8-1.6-0.9"/>
	<path class="st11" d="M44.2,23.9c0,0-0.5,0-1,0.2"/>
	<path class="st5" d="M45.1,23.8c0,0,0,1.7-0.6,2.2c-0.4,0.3-0.7,0.6-0.5,1.1c0.2,0.4,1.2,0.3,1.2,0.3"/>
	<path class="st5" d="M46.1,28.1c0,0-0.1,0.6-1,0.6"/>
	<path class="st10" d="M43.6,25.8L43.6,25.8c0.1,0,0.2-0.1,0.2-0.2l0-0.2c0-0.1-0.1-0.2-0.2-0.2h0c-0.1,0-0.2,0.1-0.2,0.2l0,0.2
		C43.4,25.7,43.5,25.8,43.6,25.8z"/>
	<path class="st10" d="M46.4,26.2L46.4,26.2c0.1,0,0.3-0.1,0.3-0.3l0-0.3c0-0.1-0.1-0.3-0.3-0.3h0c-0.1,0-0.3,0.1-0.3,0.3l0,0.3
		C46.1,26,46.2,26.2,46.4,26.2z"/>
	<circle class="st10" cx="50.9" cy="22.4" r="2.6"/>
	<circle class="st10" cx="48.2" cy="20.9" r="2.2"/>
	<circle class="st10" cx="45" cy="21" r="2.4"/>
	<circle class="st10" cx="50.3" cy="25.2" r="1.3"/>
	<g>
		<g>
			<g>
				<defs>
					<path id="SVGID_6_" d="M44.3,69.1c5.5,0.1,9.2,4.8,11.9,5c2.7,0.2,7.3-2.5,11.4,0c4.1,2.5,2.2,6,7.9,7.1c5.7,1,7.5,1,7.7,3.8
						H20.1c0,0-0.3-3.3,2.6-5.6c3-2.3,5.9,0.5,9.2-1.3C36.1,75.6,38.9,69,44.3,69.1z"/>
				</defs>
				<clipPath id="SVGID_2_">
					<use xlink:href="#SVGID_6_"  style="overflow:visible;"/>
				</clipPath>
				
					<pattern  id="SVGID_3_" xlink:href="#New_Pattern_7" patternTransform="matrix(9.642400e-02 0 0 9.642400e-02 -7315.2461 -7549.1631)">
				</pattern>
				<path class="st12" d="M56.3,53.2c0,0,3.6-4.9,9.1-4.8c5.5,0.1,6.4,6.4,9.1,6.7c2.7,0.2,5-2.5,9.1,0c4.1,2.5-0.1,8.1,5.6,9.1
					c5.7,1,7.5,1,7.7,3.8H57.2L56.3,53.2z"/>
			</g>
		</g>
		<path class="st13" d="M44.3,69.1c5.5,0,9.2,4.8,11.9,5c2.7,0.2,7.3-2.5,11.4,0c4.1,2.5,2.2,6,7.9,7.1c5.7,1,7.5,1,7.7,3.8H20.1
			c0,0-0.3-3.3,2.6-5.6c3-2.3,5.9,0.5,9.2-1.3C36.1,75.6,35.7,69.1,44.3,69.1z"/>
	</g>
	<g>
		<g>
			<path class="st14" d="M72.9,66.4c2.6-1.7,5.2-3.5,7.9-5.2c1.1,2.7,4.8,7.7,3.7,10.8c-0.5,1.3-1.7,2.4-3.1,2.6
				c-2.6,0.3-3.7-2-3.7-2C76.4,72.2,71,67.8,72.9,66.4z"/>
			<path class="st15" d="M80.3,62.7c0,0-3.8,10.6-4.6,22"/>
			<g>
				<defs>
					<path id="SVGID_9_" d="M72.9,66.4L72.9,66.4L72.9,66.4c0.1-0.1,7.9-5.2,7.9-5.2s3.7,8.5,3.7,8.7l0,0v0c0.2,0.7,0.2,1.4,0,2.2
						c-0.6,1.9-2.6,3-4.6,2.4c-1.2-0.4-2.1-1.3-2.4-2.4c-0.9,0.7-2.2,1-3.4,0.7c-1.9-0.6-3-2.6-2.4-4.6
						C71.9,67.4,72.3,66.8,72.9,66.4z"/>
				</defs>
				<clipPath id="SVGID_4_">
					<use xlink:href="#SVGID_9_"  style="overflow:visible;"/>
				</clipPath>
				<path class="st16" d="M78.3,67.1L78.3,67.1L78.3,67.1c-0.2-0.1-9.9-6.2-9.9-6.2s7,14.6,8.5,14.1c2.4-0.8,3.7-3.3,2.9-5.7
					C79.5,68.3,79,67.6,78.3,67.1z"/>
			</g>
		</g>
		<g>
			<path class="st17" d="M77.3,67.9c-2.6-1.7-5.3-3.4-8-5c-1.1,2.7-7.5,12.8-0.3,13.4c2.5,0.2,2.4-2.2,3.8-2.6
				c1.3-0.4,3,1.4,4.6-0.1C79.1,72,79.1,69.3,77.3,67.9z"/>
			<path class="st15" d="M69.8,64.4c0,0,4,9.3,5,20.7"/>
		</g>
		<path class="st18" d="M65.3,85c3.3,0,6.6,0,9.9,0c-1.3-1.7-2.6-3.6-4.1-5.2c-2.4-2.6-4.7,0.2-2.7,2.7C66.8,82.2,64.6,82.8,65.3,85
			z"/>
		<path class="st19" d="M77.9,85l3.7-5.2c0.5-0.7,1.4-0.8,2.1-0.3v0c0.6,0.5,0.7,1.3,0.3,1.9L81.5,85H77.9z"/>
		<path class="st18" d="M75.2,85c0.7-1.9,1.7-8.2,4.1-8.4c3.5-0.3,0.8,5.4,0.3,6.8c1.7-1.2,3.8-0.8,4,1.5C80.8,85,78,85,75.2,85z"/>
	</g>
</g>
</svg>
