<?xml version="1.0" encoding="utf-8"?>
<!-- Generator: Adobe Illustrator 21.0.0, SVG Export Plug-In . SVG Version: 6.00 Build 0)  -->
<svg version="1.1" id="Layer_1" xmlns="http://www.w3.org/2000/svg" xmlns:xlink="http://www.w3.org/1999/xlink" x="0px" y="0px"
	 viewBox="0 0 100 100" style="enable-background:new 0 0 100 100;" xml:space="preserve">
<style type="text/css">
	.st0{fill:#FFFFFF;fill-opacity:0;}
	.st1{fill:#7F7F7F;}
	.st2{fill:#B4B4B5;}
	.st3{fill:#9D9E9E;}
	.st4{fill:#CCCCCC;}
	.st5{enable-background:new    ;}
	.st6{fill:#6A6B6A;}
</style>
<rect x="9.5" y="9.5" class="st0" width="81" height="81"/>
<path class="st1" d="M85.2,51.1l-0.3-0.8H57.7l-9.2,12.3l-9-12.2c0,0-21.8,0-27,0c-0.1,0.2-0.2,0.5-0.3,0.7
	c2.5,2.4,9.6,10.5,9.6,10.5s0,9.7-0.1,15.7c0,1.8,0.5,2.8,2.4,3.2c7.6,1.8,15.1,3.8,22.6,5.8c1.2,0.3,2.5,0.3,3.7-0.1
	c3.6-0.9,14.5-3.7,14.5-3.7c2.7-0.7,5.5-1.4,8.2-2.1c1.6-0.4,2.4-1.2,2.3-3c-0.1-4.8,0-16,0-16L85.2,51.1z"/>
<path class="st2" d="M75.5,77.5c0.1,1.8-0.7,2.6-2.3,3c-2.7,0.7-5.5,1.4-8.2,2.1c0,0-0.4,0.1-1.2,0.3c-2.9,0.8-10.4,2.7-13.3,3.4
	c-1.3,0.3-2.6,0.3-3.8,0.1c-7.5-1.9-15-3.9-22.6-5.8c-1.8-0.4-2.4-1.4-2.4-3.2c0.1-6.1,0.1-15.7,0.1-15.7l26.9,2.2l0.6-0.1l26.3-2.2
	C75.5,61.6,75.4,72.8,75.5,77.5z"/>
<path class="st3" d="M75.5,77.5c0.1,1.8-0.7,2.6-2.3,3c-2.7,0.7-5.5,1.4-8.2,2.1c0,0-0.4,0.1-1.2,0.3L63,82.7l-13.8-19l26.3-2.1
	C75.5,61.6,75.4,72.8,75.5,77.5z"/>
<polygon class="st4" points="49.2,63.7 63.3,83.1 59,84.1 46.7,67.8 46.7,63.6 "/>
<g class="st5">
	<path class="st6" d="M36.6,38.6h-0.2h-4.6v6.7h-6.1V21.5h10.6c6.3,0,9.9,3,9.9,8.3c0,3.6-1.5,6.3-4.3,7.6l5,7.9h-6.9L36.6,38.6z
		 M36.4,33.9c2.6,0,4.1-1.3,4.1-3.8c0-2.5-1.5-3.7-4.1-3.7h-4.6v7.6H36.4z"/>
	<path class="st6" d="M71.8,35.3c0,6.3-4.2,10.3-10.8,10.3c-6.7,0-11-4-11-10.3V21.5H56v13.8c0,3.2,2.1,5.2,5,5.2
		c2.9,0,4.8-2,4.8-5.2V21.5h6V35.3z"/>
</g>
</svg>
