<?xml version="1.0" encoding="utf-8"?>
<!-- Generator: Adobe Illustrator 21.0.0, SVG Export Plug-In . SVG Version: 6.00 Build 0)  -->
<svg version="1.1" id="Layer_1" xmlns="http://www.w3.org/2000/svg" xmlns:xlink="http://www.w3.org/1999/xlink" x="0px" y="0px"
	 viewBox="0 0 100 100" style="enable-background:new 0 0 100 100;" xml:space="preserve">
<style type="text/css">
	.st0{fill:#FFFFFF;fill-opacity:0;}
	.st1{enable-background:new    ;}
	.st2{fill:#6A6B6A;}
	.st3{fill:#7F7F7F;}
	.st4{fill:#B4B4B5;}
	.st5{fill:#9D9E9E;}
	.st6{fill:#CCCCCC;}
</style>
<g>
	<rect x="9.5" y="9.5" class="st0" width="81" height="81"/>
	<g class="st1">
		<path class="st2" d="M54.2,45.3H47l-5.2-7.6l-5.1,7.6h-7l8.5-12.2l-8-11.6h7l4.6,6.9l4.6-6.9h7.1l-7.9,11.4L54.2,45.3z"/>
		<path class="st2" d="M54.6,29.1c0.1-4.9,3-7.7,7.8-7.7c4.5,0,7.3,2.1,7.3,5.9c0,5.2-5.2,5.8-5.2,9.9H60c0-5.3,4.2-5.5,4.2-8.9
			c0-1.5-0.9-2.2-2.4-2.2c-1.7,0-2.7,1-2.7,3.1L54.6,29.1z M65,42.7c0,1.7-1.2,2.9-2.9,2.9s-2.8-1.2-2.8-2.9s1.2-2.8,2.8-2.8
			C63.8,39.9,65,41.1,65,42.7z"/>
	</g>
	<path class="st3" d="M85.2,51l-0.3-0.8H57.7l-9.2,12.3l-9-12.2c0,0-21.8,0-27,0c-0.1,0.2-0.2,0.5-0.3,0.7
		c2.5,2.4,9.6,10.5,9.6,10.5s0,9.7-0.1,15.7c0,1.8,0.5,2.8,2.4,3.2c7.6,1.8,15.1,3.8,22.6,5.8c1.2,0.3,2.5,0.3,3.7-0.1
		c3.6-0.9,14.5-3.7,14.5-3.7c2.7-0.7,5.5-1.4,8.2-2.1c1.6-0.4,2.4-1.2,2.3-3c-0.1-4.8,0-16,0-16L85.2,51z"/>
	<path class="st4" d="M75.5,77.4c0.1,1.8-0.7,2.6-2.3,3c-2.7,0.7-5.5,1.4-8.2,2.1c0,0-0.4,0.1-1.2,0.3c-2.9,0.8-10.4,2.7-13.3,3.4
		c-1.3,0.3-2.6,0.3-3.8,0.1c-7.5-1.9-15-3.9-22.6-5.8c-1.8-0.4-2.4-1.4-2.4-3.2c0.1-6.1,0.1-15.7,0.1-15.7l26.9,2.2l0.6-0.1
		l26.3-2.2C75.5,61.5,75.4,72.7,75.5,77.4z"/>
	<path class="st5" d="M75.5,77.4c0.1,1.8-0.7,2.6-2.3,3c-2.7,0.7-5.5,1.4-8.2,2.1c0,0-0.4,0.1-1.2,0.3L63,82.6l-13.8-19l26.3-2.1
		C75.5,61.5,75.4,72.7,75.5,77.4z"/>
	<polygon class="st6" points="49.2,63.6 63.3,83 59,84 46.7,67.7 46.7,63.5 	"/>
</g>
</svg>
