<?xml version="1.0" encoding="utf-8"?>
<!-- Generator: Adobe Illustrator 23.0.4, SVG Export Plug-In . SVG Version: 6.00 Build 0)  -->
<svg version="1.1" id="Layer_1" xmlns="http://www.w3.org/2000/svg" xmlns:xlink="http://www.w3.org/1999/xlink" x="0px" y="0px"
	 viewBox="0 0 100 100" style="enable-background:new 0 0 100 100;" xml:space="preserve">
<style type="text/css">
	.st0{fill:#FFFFFF;fill-opacity:0;}
	.st1{fill:#7F7F7F;}
	.st2{fill:#B4B4B5;}
	.st3{fill:#9D9E9E;}
	.st4{fill:#CCCCCC;}
	.st5{enable-background:new    ;}
	.st6{fill:#6A6B6A;}
</style>
<rect x="9.5" y="9.5" class="st0" width="81" height="81"/>
<path class="st1" d="M85.2,50.1l-0.3-0.8H57.7l-9.2,12.3l-9-12.2c0,0-21.8,0-27,0c-0.1,0.2-0.2,0.5-0.3,0.7
	c2.5,2.4,9.6,10.5,9.6,10.5s0,9.7-0.1,15.7c0,1.8,0.5,2.8,2.4,3.2c7.6,1.8,15.1,3.8,22.6,5.8c1.2,0.3,2.5,0.3,3.7-0.1
	c3.6-0.9,14.5-3.7,14.5-3.7c2.7-0.7,5.5-1.4,8.2-2.1c1.6-0.4,2.4-1.2,2.3-3c-0.1-4.8,0-16,0-16L85.2,50.1z"/>
<path class="st2" d="M75.5,76.5c0.1,1.8-0.7,2.6-2.3,3c-2.7,0.7-5.5,1.4-8.2,2.1c0,0-0.4,0.1-1.2,0.3c-2.9,0.8-10.4,2.7-13.3,3.4
	c-1.3,0.3-2.6,0.3-3.8,0.1c-7.5-1.9-15-3.9-22.6-5.8c-1.8-0.4-2.4-1.4-2.4-3.2c0.1-6.1,0.1-15.7,0.1-15.7l26.9,2.2l0.6-0.1l26.3-2.2
	C75.5,60.6,75.4,71.8,75.5,76.5z"/>
<path class="st3" d="M75.5,76.5c0.1,1.8-0.7,2.6-2.3,3c-2.7,0.7-5.5,1.4-8.2,2.1c0,0-0.4,0.1-1.2,0.3L63,81.7l-13.8-19l26.3-2.1
	C75.5,60.6,75.4,71.8,75.5,76.5z"/>
<polygon class="st4" points="49.2,62.7 63.3,82.1 59,83.1 46.7,66.8 46.7,62.6 "/>
<g class="st5">
	<path class="st6" d="M40.5,36c0,0.9-0.3,1.6-0.7,2.2l-2.5,3.6h-2.8l1.5-3.6c-0.8-0.5-1.1-1.3-1.1-2.2c0-1.6,1.2-2.8,2.8-2.8
		C39.1,33.2,40.5,34.2,40.5,36z M34.8,25.9c0-1.7,1.2-2.8,2.8-2.8c1.7,0,2.9,1.2,2.9,2.8c0,1.7-1.2,2.9-2.9,2.9
		C36,28.7,34.8,27.6,34.8,25.9z"/>
	<path class="st6" d="M61.5,36.9c0,5.2-4,8.5-9.9,8.5c-3.2,0-6.1-1-8.2-2.4l2-4c1.7,1.2,3.7,1.8,5.7,1.8c2.8,0,4.5-1.5,4.5-3.8v-1.9
		c-1.2,1.6-3,2.4-5.3,2.4c-4.6,0-7.9-3.5-7.9-8.9c0-5.2,3.2-8.7,7.8-8.7c2.3,0,4.2,0.9,5.4,2.4v-2.2h5.8v16.8H61.5z M55.8,28.9
		c0-2.7-1.5-4.5-3.8-4.5S48,26.2,48,28.9c0,2.6,1.6,4.5,3.9,4.5C54.1,33.3,55.8,31.5,55.8,28.9z"/>
</g>
</svg>
