<?xml version="1.0" encoding="utf-8"?>
<!-- Generator: Adobe Illustrator 22.0.1, SVG Export Plug-In . SVG Version: 6.00 Build 0)  -->
<svg version="1.1" id="Layer_1" xmlns="http://www.w3.org/2000/svg" xmlns:xlink="http://www.w3.org/1999/xlink" x="0px" y="0px"
	 viewBox="0 0 100 100" style="enable-background:new 0 0 100 100;" xml:space="preserve">
<style type="text/css">
	.st0{enable-background:new    ;}
	.st1{fill:#6A6B6A;}
	.st2{fill:none;stroke:#7F7F7F;stroke-width:7;stroke-linecap:round;stroke-miterlimit:10;}
	.st3{fill:#9D9E9E;}
</style>
<g class="st0">
	<path class="st1" d="M54,39.6L49.9,42c-0.8-1.2-2-1.8-3.6-1.8c-2.2,0-3.7,1.8-3.7,4.5c0,2.7,1.5,4.5,3.7,4.5c1.6,0,2.9-0.7,3.6-2
		l4.2,2.4c-1.5,2.6-4.3,4.1-8.1,4.1c-5.5,0-9.2-3.6-9.2-9c0-5.5,3.7-9.1,9.2-9.1C49.6,35.6,52.5,37,54,39.6z"/>
	<path class="st1" d="M61.4,51.1c0,0.8-0.3,1.5-0.7,2.2l-2.4,3.5h-2.7l1.5-3.5c-0.8-0.5-1.1-1.3-1.1-2.1c0-1.6,1.2-2.7,2.7-2.7
		C60.1,48.4,61.4,49.3,61.4,51.1z M55.9,41.3c0-1.6,1.1-2.7,2.7-2.7s2.8,1.1,2.8,2.7c0,1.7-1.2,2.8-2.8,2.8S55.9,42.9,55.9,41.3z"/>
</g>
<line class="st2" x1="25.2" y1="66.6" x2="8.7" y2="83.3"/>
<path class="st3" d="M49.9,18.1c12.3,0,22.8,8.4,25.8,19.7c0.6,2.2,0.9,4.6,0.9,7.1c0,5.7-1.7,11.1-4.8,15.3
	c-2.7,4-6.6,7.3-11.3,9.2c-2.4,1.1-5,1.7-7.8,2c-1.1,0.1-1.9,0.2-3,0.2c-4.6,0-8.8-1.2-12.6-3.2c-3-1.6-5.6-3.7-7.8-6.2
	c-4-4.7-6.4-10.8-6.4-17.4C23.1,30.1,35.1,18.1,49.9,18.1 M49.9,13.7c-17.3,0-31.3,14-31.3,31.3c0,7.5,2.6,14.6,7.5,20.3
	c2.5,2.9,5.6,5.4,9.1,7.3c4.5,2.4,9.6,3.7,14.7,3.7c1.2,0,2.3-0.1,3.5-0.2c3.2-0.3,6.2-1.2,9.1-2.4c5.3-2.3,9.8-6,13.1-10.7
	c3.7-5.3,5.7-11.5,5.7-17.9c0-2.7-0.3-5.5-1.1-8.2C76.3,23.2,63.9,13.7,49.9,13.7L49.9,13.7z"/>
<path class="st3" d="M23.3,60.6l-3,2.9c-0.4,0.4-0.4,1,0,1.4l7.2,7.1c0.4,0.4,1,0.4,1.4,0l2.9-3.1L23.3,60.6z"/>
</svg>
