<?xml version="1.0" encoding="utf-8"?>
<!-- Generator: Adobe Illustrator 23.0.6, SVG Export Plug-In . SVG Version: 6.00 Build 0)  -->
<svg version="1.1" id="Layer_1" xmlns="http://www.w3.org/2000/svg" xmlns:xlink="http://www.w3.org/1999/xlink" x="0px" y="0px"
	 viewBox="0 0 100 100" style="enable-background:new 0 0 100 100;" xml:space="preserve">
<style type="text/css">
	.st0{fill:none;stroke:#7F7F7F;stroke-width:7;stroke-linecap:round;stroke-miterlimit:10;}
	.st1{fill:#9D9E9E;}
	.st2{enable-background:new    ;}
	.st3{fill:#6A6B6A;}
</style>
<line class="st0" x1="25.2" y1="66.6" x2="8.7" y2="83.3"/>
<path class="st1" d="M49.9,18.1c12.3,0,22.8,8.4,25.8,19.7c0.6,2.2,0.9,4.6,0.9,7.1c0,5.7-1.7,11.1-4.8,15.3
	c-2.7,4-6.6,7.3-11.3,9.2c-2.4,1.1-5,1.7-7.8,2c-1.1,0.1-1.9,0.2-3,0.2c-4.6,0-8.8-1.2-12.6-3.2c-3-1.6-5.6-3.7-7.8-6.2
	c-4-4.7-6.4-10.8-6.4-17.4C23.1,30.1,35.1,18.1,49.9,18.1 M49.9,13.7c-17.3,0-31.3,14-31.3,31.3c0,7.5,2.6,14.6,7.5,20.3
	c2.5,2.9,5.6,5.4,9.1,7.3c4.5,2.4,9.6,3.7,14.7,3.7c1.2,0,2.3-0.1,3.5-0.2c3.2-0.3,6.2-1.2,9.1-2.4c5.3-2.3,9.8-6,13.1-10.7
	c3.7-5.3,5.7-11.5,5.7-17.9c0-2.7-0.3-5.5-1.1-8.2C76.3,23.2,63.9,13.7,49.9,13.7L49.9,13.7z"/>
<path class="st1" d="M23.3,60.6l-3,2.9c-0.4,0.4-0.4,1,0,1.4l7.2,7.1c0.4,0.4,1,0.4,1.4,0l2.9-3.1L23.3,60.6z"/>
<g class="st2">
	<path class="st3" d="M45.8,38c1.5,1.3,2.3,3.4,2.3,6.1v10.4h-5v-2.3c-1,1.7-2.9,2.6-5.6,2.6c-1.4,0-2.6-0.2-3.7-0.7
		c-1-0.5-1.8-1.1-2.4-2c-0.5-0.8-0.8-1.8-0.8-2.9c0-1.7,0.6-3,1.9-4c1.3-1,3.3-1.5,5.9-1.5h4.2c0-1.2-0.4-2-1.1-2.7
		c-0.7-0.6-1.8-0.9-3.2-0.9c-1,0-1.9,0.2-2.9,0.5c-0.9,0.3-1.7,0.7-2.4,1.2l-1.9-3.7c1-0.7,2.2-1.2,3.6-1.6c1.4-0.4,2.8-0.6,4.3-0.6
		C42.1,36,44.3,36.7,45.8,38z M41.3,50.6c0.7-0.4,1.2-1,1.5-1.9v-1.9h-3.6c-2.2,0-3.3,0.7-3.3,2.1c0,0.7,0.3,1.2,0.8,1.6
		c0.5,0.4,1.3,0.6,2.2,0.6C39.8,51.3,40.6,51.1,41.3,50.6z M42,61.4c-0.8-0.7-1.3-1.6-1.3-2.8c0-1.1,0.4-2.1,1.3-3.1
		c0.9-1,2.2-1.7,3.9-2.4l2.1,1.4c-1.4,0.6-2.4,1.2-3.1,1.8c-0.6,0.6-0.9,1.2-0.9,1.8c0,0.5,0.2,0.9,0.5,1.1c0.4,0.3,0.8,0.4,1.4,0.4
		c0.8,0,1.5-0.2,2.1-0.5l0.7,2.4c-0.4,0.2-1,0.4-1.6,0.6c-0.6,0.1-1.2,0.2-1.9,0.2C44,62.5,42.9,62.1,42,61.4z"/>
	<path class="st3" d="M55.7,53.6c-1.6-0.8-2.8-1.9-3.6-3.3s-1.3-3-1.3-4.9c0-1.8,0.4-3.4,1.3-4.9s2.1-2.5,3.6-3.3
		C57.3,36.4,59,36,61,36c1.9,0,3.6,0.4,5,1.2c1.4,0.8,2.5,2,3.1,3.5L65,42.9c-1-1.7-2.3-2.5-4.1-2.5c-1.4,0-2.5,0.5-3.4,1.4
		c-0.9,0.9-1.4,2.1-1.4,3.7c0,1.6,0.5,2.8,1.4,3.7c0.9,0.9,2.1,1.4,3.4,1.4c1.8,0,3.2-0.8,4.1-2.5l4.1,2.2c-0.7,1.5-1.7,2.6-3.1,3.4
		c-1.4,0.8-3.1,1.2-5,1.2C59,54.8,57.3,54.4,55.7,53.6z M61.8,29h5.7l-6.2,4.9h-4.1L61.8,29z"/>
</g>
</svg>
