<?xml version="1.0" encoding="utf-8"?>
<!-- Generator: Adobe Illustrator 21.0.0, SVG Export Plug-In . SVG Version: 6.00 Build 0)  -->
<svg version="1.1" id="Layer_1" xmlns="http://www.w3.org/2000/svg" xmlns:xlink="http://www.w3.org/1999/xlink" x="0px" y="0px"
	 viewBox="0 0 100 100" style="enable-background:new 0 0 100 100;" xml:space="preserve">
<style type="text/css">
	.st0{fill:none;stroke:#7F7F7F;stroke-width:7;stroke-linecap:round;stroke-miterlimit:10;}
	.st1{fill:#9D9E9E;}
	.st2{enable-background:new    ;}
	.st3{fill:#6A6B6A;}
</style>
<line class="st0" x1="25.2" y1="66.6" x2="8.7" y2="83.3"/>
<path class="st1" d="M49.9,18.1c12.3,0,22.8,8.4,25.8,19.7c0.6,2.2,0.9,4.6,0.9,7.1c0,5.7-1.7,11.1-4.8,15.3
	c-2.7,4-6.6,7.3-11.3,9.2c-2.4,1.1-5,1.7-7.8,2c-1.1,0.1-1.9,0.2-3,0.2c-4.6,0-8.8-1.2-12.6-3.2c-3-1.6-5.6-3.7-7.8-6.2
	c-4-4.7-6.4-10.8-6.4-17.4C23.1,30.1,35.1,18.1,49.9,18.1 M49.9,13.7c-17.3,0-31.3,14-31.3,31.3c0,7.5,2.6,14.6,7.5,20.3
	c2.5,2.9,5.6,5.4,9.1,7.3c4.5,2.4,9.6,3.7,14.7,3.7c1.2,0,2.3-0.1,3.5-0.2c3.2-0.3,6.2-1.2,9.1-2.4c5.3-2.3,9.8-6,13.1-10.7
	c3.7-5.3,5.7-11.5,5.7-17.9c0-2.7-0.3-5.5-1.1-8.2C76.3,23.2,63.9,13.7,49.9,13.7L49.9,13.7z"/>
<path class="st1" d="M23.3,60.6l-3,2.9c-0.4,0.4-0.4,1,0,1.4l7.2,7.1c0.4,0.4,1,0.4,1.4,0l2.9-3.1L23.3,60.6z"/>
<g>
	<g class="st2">
		<path class="st3" d="M45.5,42.5v11.3h-5.4v-2C39,53.3,37.2,54,34.8,54c-3.7,0-5.9-2.2-5.9-5.4c0-3.3,2.3-5.2,6.6-5.2H40v-0.3
			c0-1.7-1.1-2.7-3.4-2.7c-1.4,0-3.3,0.5-5.2,1.4L30,38.2c2.7-1.2,5.1-2,8-2C42.7,36.3,45.5,38.6,45.5,42.5z M40.1,47.9v-1.5h-3.5
			c-1.7,0-2.5,0.6-2.5,1.9c0,1.2,0.9,2,2.4,2C38.2,50.3,39.7,49.3,40.1,47.9z"/>
		<path class="st3" d="M67.7,42.9v10.9h-5.5v-9.3c0-2-1.2-3.3-3-3.3c-2,0-3.3,1.4-3.5,3.5v9.1h-5.6V36.5h5.5v2.8
			c1.2-2,3.2-3,5.8-3.1C65.2,36.3,67.7,38.9,67.7,42.9z M56.9,33.9h-3.4c0-3.4,1.1-5,3.4-5c1.9,0,2.8,1.5,3.7,1.5c0.7,0,1-0.4,1-1.3
			H65c0,3.4-1.1,5-3.3,5c-2,0-2.8-1.5-3.7-1.5C57.2,32.5,56.9,33,56.9,33.9z"/>
	</g>
</g>
</svg>
