<?xml version="1.0" encoding="utf-8"?>
<!-- Generator: Adobe Illustrator 21.0.0, SVG Export Plug-In . SVG Version: 6.00 Build 0)  -->
<svg version="1.1" id="Layer_1" xmlns="http://www.w3.org/2000/svg" xmlns:xlink="http://www.w3.org/1999/xlink" x="0px" y="0px"
	 viewBox="0 0 100 100" style="enable-background:new 0 0 100 100;" xml:space="preserve">
<style type="text/css">
	.st0{fill:#FFFFFF;fill-opacity:0;}
	.st1{fill:none;stroke:#7F7F7F;stroke-width:7;stroke-linecap:round;stroke-miterlimit:10;}
	.st2{fill:#9D9E9E;}
	.st3{fill:#E6E6E6;}
</style>
<g>
	<path class="st0" d="M5.6,7.2v81h81v-81H5.6z M37.1,68.4c-3-1.6-5.6-3.7-7.8-6.2c-4-4.7-6.4-10.8-6.4-17.4
		c0.2-14.7,12.2-26.7,27-26.7c12.3,0,22.8,8.4,25.8,19.7c0.6,2.2,0.9,4.6,0.9,7.1c0,5.7-1.7,11.1-4.8,15.3c-2.7,4-6.6,7.3-11.3,9.2
		c-2.4,1.1-5,1.7-7.8,2c-1.1,0.1-1.9,0.2-3,0.2C45.1,71.6,40.9,70.4,37.1,68.4z M54.8,25.4c0-1.8-1.5-3.3-3.3-3.3
		c-1.8,0-3.3,1.5-3.3,3.3c0,1.8,1.5,3.3,3.3,3.3C53.3,28.7,54.8,27.2,54.8,25.4z M29.9,34.5c1.7,1,3.5,2,5.2,3c2.3-3.9,6-6.8,10.5-8
		l-1.7-5.8C37.9,25.3,32.9,29.2,29.9,34.5z"/>
	<line class="st1" x1="25.2" y1="66.6" x2="8.7" y2="83.3"/>
	<path class="st2" d="M80.2,36.9c-3.9-13.7-16.3-23.2-30.3-23.2c-17.3,0-31.3,14-31.3,31.3c0,5.7,1.5,11.1,4.4,15.9
		c0.9,1.5,2,3,3.1,4.4c1.4,1.7,3,3.2,4.8,4.5c1.3,1,2.8,1.9,4.3,2.8c4.5,2.4,9.6,3.7,14.7,3.7c1.2,0,2.3-0.1,3.5-0.2
		c3.2-0.3,6.2-1.2,9.1-2.4c5.3-2.3,9.8-6,13.1-10.7c3.7-5.3,5.7-11.5,5.7-17.9C81.3,42.4,81,39.6,80.2,36.9z M71.8,60.2
		c-2.7,4-6.6,7.3-11.3,9.2c-2.4,1.1-5,1.7-7.8,2c-1.1,0.1-1.9,0.2-3,0.2c-4.6,0-8.8-1.2-12.6-3.2c-3-1.6-5.6-3.7-7.8-6.2
		c-4-4.7-6.4-10.8-6.4-17.4c0.2-14.7,12.2-26.7,27-26.7c12.3,0,22.8,8.4,25.8,19.7c0.6,2.2,0.9,4.6,0.9,7.1
		C76.6,50.6,74.9,56,71.8,60.2z"/>
	<path class="st2" d="M23.3,60.6l-3,2.9c-0.4,0.4-0.4,1,0,1.4l7.2,7.1c0.4,0.4,1,0.4,1.4,0l2.9-3.1L23.3,60.6z"/>
	<path class="st3" d="M45.6,29.5c-4.5,1.2-8.2,4.1-10.5,8c-1.7-1-3.5-2-5.2-3c3-5.2,8-9.2,14-10.8L45.6,29.5z"/>
	<path class="st3" d="M54.8,25.4c0,1.8-1.5,3.3-3.3,3.3c-1.8,0-3.3-1.5-3.3-3.3c0-1.8,1.5-3.3,3.3-3.3C53.3,22,54.8,23.5,54.8,25.4z
		"/>
</g>
</svg>
