<?xml version="1.0" encoding="utf-8"?>
<!-- Generator: Adobe Illustrator 21.0.0, SVG Export Plug-In . SVG Version: 6.00 Build 0)  -->
<svg version="1.1" id="Layer_1" xmlns="http://www.w3.org/2000/svg" xmlns:xlink="http://www.w3.org/1999/xlink" x="0px" y="0px"
	 viewBox="0 0 100 100" style="enable-background:new 0 0 100 100;" xml:space="preserve">
<style type="text/css">
	.st0{fill:none;stroke:#7F7F7F;stroke-width:7;stroke-linecap:round;stroke-miterlimit:10;}
	.st1{fill:#9D9E9E;}
	.st2{fill:#6A6B6A;}
</style>
<line class="st0" x1="25.2" y1="66.6" x2="8.7" y2="83.3"/>
<path class="st1" d="M49.9,18.1c12.3,0,22.8,8.4,25.8,19.7c0.6,2.2,0.9,4.6,0.9,7.1c0,5.7-1.7,11.1-4.8,15.3
	c-2.7,4-6.6,7.3-11.3,9.2c-2.4,1.1-5,1.7-7.8,2c-1.1,0.1-1.9,0.2-3,0.2c-4.6,0-8.8-1.2-12.6-3.2c-3-1.6-5.6-3.7-7.8-6.2
	c-4-4.7-6.4-10.8-6.4-17.4C23.1,30.1,35.1,18.1,49.9,18.1 M49.9,13.7c-17.3,0-31.3,14-31.3,31.3c0,7.5,2.6,14.6,7.5,20.3
	c2.5,2.9,5.6,5.4,9.1,7.3c4.5,2.4,9.6,3.7,14.7,3.7c1.2,0,2.3-0.1,3.5-0.2c3.2-0.3,6.2-1.2,9.1-2.4c5.3-2.3,9.8-6,13.1-10.7
	c3.7-5.3,5.7-11.5,5.7-17.9c0-2.7-0.3-5.5-1.1-8.2C76.3,23.2,63.9,13.7,49.9,13.7L49.9,13.7z"/>
<path class="st1" d="M23.3,60.6l-3,2.9c-0.4,0.4-0.4,1,0,1.4l7.2,7.1c0.4,0.4,1,0.4,1.4,0l2.9-3.1L23.3,60.6z"/>
<g>
	<path class="st2" d="M36.4,38.1l0.6,3.3c-1.2,0.1-2.4,0.6-3.3,1.3c-2,1.6-2,3.7-0.2,5.8c-0.1-1.3,0.5-2.7,1.9-3.8
		c2.5-2,5.4-1.7,7.4,0.8c2.2,2.7,1.7,5.9-1.2,8.3c-3.4,2.8-7.4,2-10.6-1.9c-3.3-4.1-3.1-8.6,0.5-11.5C32.9,39.2,34.8,38.3,36.4,38.1
		z M36,51c0.8,0.9,2,1.3,3.4,0.2c1.2-0.9,1.4-2.2,0.4-3.4c-0.9-1.1-2.1-1.2-3.2-0.2C35.3,48.6,35.2,49.9,36,51z"/>
</g>
<g>
	<path class="st2" d="M62.3,56.9L58,56.1l8.2-11.8l-4.4-0.9l-0.4,2.3l-3.6-0.6l1-5.4L71.3,42l-0.5,2.8L62.3,56.9z"/>
</g>
<g>
	<path class="st2" d="M42,30.8c1.7-0.6,3.9,0.1,6.2,1.1l4.4,2l-2.3-6.5l3.1-1.1l4,11.6l-2.5,0.9l-7.8-3.5c-1.2-0.5-2.5-0.8-3.2-0.6
		c-0.9,0.3-1.2,1.1-0.8,2.2c0.4,1.3,1.7,2.5,3.4,3.5L44.2,43c-2.1-1.4-3.7-3.3-4.5-5.5C38.7,34.4,39.5,31.7,42,30.8z"/>
</g>
<g>
	<path class="st2" d="M51.5,56.2c1.8,1.6,2.4,3.8,1.1,5.9c-1.7,2.7-4.9,3.2-8.1,1.2c-1.9-1.2-3.5-3.1-4.1-4.9l3.1-1.8
		c0.3,1.8,1.2,3.1,2.4,3.8c1.4,0.9,2.6,0.7,3.3-0.5s0.3-2.2-1.1-3.1l-2.2-1.4l1.2-1.9l5.1-1.3L47,49.3l1.7-2.7l9.2,5.7l-1.2,2
		L51,55.8L51.5,56.2z"/>
</g>
</svg>
