<?xml version="1.0" encoding="utf-8"?>
<!-- Generator: Adobe Illustrator 21.0.0, SVG Export Plug-In . SVG Version: 6.00 Build 0)  -->
<svg version="1.1" id="Layer_1" xmlns="http://www.w3.org/2000/svg" xmlns:xlink="http://www.w3.org/1999/xlink" x="0px" y="0px"
	 viewBox="0 0 100 100" style="enable-background:new 0 0 100 100;" xml:space="preserve">
<style type="text/css">
	.st0{enable-background:new    ;}
	.st1{fill:#6A6B6A;}
	.st2{fill:none;stroke:#7F7F7F;stroke-width:7;stroke-linecap:round;stroke-miterlimit:10;}
	.st3{fill:#9D9E9E;}
</style>
<g class="st0">
	<path class="st1" d="M47,59h-5.7v-8.7c-1.3,1.7-3.1,2.6-5.3,2.6c-5,0-8.3-3.7-8.3-9.2c0-5.4,3.3-9,8.2-9c2.3,0,4.2,0.9,5.5,2.6
		v-2.3H47V59z M41.3,43.7c0-2.7-1.6-4.6-4-4.6c-2.4,0-4,1.9-4,4.6c0,2.7,1.6,4.7,4,4.7C39.7,48.4,41.3,46.5,41.3,43.7z"/>
	<path class="st1" d="M72.3,43.8c0,5.4-3.2,9-8.2,9c-2.3,0-4.2-0.9-5.4-2.6V59h-5.7V34.8h5.7v2.3c1.3-1.6,3.1-2.5,5.3-2.5
		C68.9,34.6,72.3,38.2,72.3,43.8z M66.5,43.6c0-2.7-1.6-4.6-4-4.6c-2.3,0-3.9,1.9-3.9,4.6c0,2.8,1.6,4.7,3.9,4.7
		C64.9,48.2,66.5,46.3,66.5,43.6z"/>
</g>
<line class="st2" x1="25.2" y1="66.6" x2="8.7" y2="83.3"/>
<path class="st3" d="M49.9,18.1c12.3,0,22.8,8.4,25.8,19.7c0.6,2.2,0.9,4.6,0.9,7.1c0,5.7-1.7,11.1-4.8,15.3
	c-2.7,4-6.6,7.3-11.3,9.2c-2.4,1.1-5,1.7-7.8,2c-1.1,0.1-1.9,0.2-3,0.2c-4.6,0-8.8-1.2-12.6-3.2c-3-1.6-5.6-3.7-7.8-6.2
	c-4-4.7-6.4-10.8-6.4-17.4C23.1,30.1,35.1,18.1,49.9,18.1 M49.9,13.7c-17.3,0-31.3,14-31.3,31.3c0,7.5,2.6,14.6,7.5,20.3
	c2.5,2.9,5.6,5.4,9.1,7.3c4.5,2.4,9.6,3.7,14.7,3.7c1.2,0,2.3-0.1,3.5-0.2c3.2-0.3,6.2-1.2,9.1-2.4c5.3-2.3,9.8-6,13.1-10.7
	c3.7-5.3,5.7-11.5,5.7-17.9c0-2.7-0.3-5.5-1.1-8.2C76.3,23.2,63.9,13.7,49.9,13.7L49.9,13.7z"/>
<path class="st3" d="M23.3,60.6l-3,2.9c-0.4,0.4-0.4,1,0,1.4l7.2,7.1c0.4,0.4,1,0.4,1.4,0l2.9-3.1L23.3,60.6z"/>
</svg>
