<?xml version="1.0" encoding="utf-8"?>
<!-- Generator: Adobe Illustrator 23.0.1, SVG Export Plug-In . SVG Version: 6.00 Build 0)  -->
<svg version="1.1" id="Layer_1" xmlns="http://www.w3.org/2000/svg" xmlns:xlink="http://www.w3.org/1999/xlink" x="0px" y="0px"
	 viewBox="0 0 100 100" style="enable-background:new 0 0 100 100;" xml:space="preserve">
<style type="text/css">
	.st0{fill:#FFFFFF;fill-opacity:0;}
	.st1{enable-background:new    ;}
	.st2{fill:#6A6B6A;}
	.st3{fill:#7F7F7F;}
	.st4{fill:#B4B4B5;}
	.st5{fill:#9D9E9E;}
	.st6{fill:#CCCCCC;}
</style>
<rect x="9.5" y="9.5" class="st0" width="81" height="81"/>
<g class="st1">
	<path class="st2" d="M47.8,15.6v23.8h-5.4v-6.3h-5l-4.2,6.3h-5.8l5-7.2c-1.6-0.7-2.8-1.6-3.7-3c-0.9-1.3-1.3-2.9-1.3-4.8
		c0-1.8,0.4-3.4,1.3-4.7c0.8-1.3,2-2.3,3.6-3.1c1.5-0.7,3.4-1.1,5.4-1.1H47.8z M34.1,21.2c-0.8,0.7-1.2,1.8-1.2,3.2
		c0,1.4,0.4,2.4,1.2,3.2s2,1.1,3.5,1.1h4.8v-8.6h-4.7C36.1,20.1,34.9,20.5,34.1,21.2z"/>
	<path class="st2" d="M59,28.2c0.5-0.8,1.3-1.6,2.3-2.6c0.7-0.7,1.3-1.3,1.6-1.7c0.4-0.5,0.5-1,0.5-1.6c0-0.8-0.3-1.5-1-2
		c-0.7-0.5-1.6-0.7-2.7-0.7c-1.1,0-2,0.2-2.8,0.7c-0.8,0.4-1.5,1.1-2.1,1.9l-4.1-2.4c1-1.5,2.2-2.6,3.9-3.4c1.6-0.8,3.5-1.2,5.8-1.2
		c2.6,0,4.7,0.6,6.3,1.7c1.6,1.1,2.4,2.7,2.4,4.6c0,0.9-0.2,1.7-0.5,2.4c-0.3,0.7-0.7,1.3-1.1,1.8c-0.4,0.5-1,1-1.7,1.7
		c-0.8,0.7-1.5,1.4-1.8,1.9s-0.6,1.1-0.6,1.9h-5.1C58.2,30,58.4,29,59,28.2z M58.4,38.8c-0.6-0.6-0.9-1.3-0.9-2.2
		c0-0.9,0.3-1.6,0.9-2.2c0.6-0.6,1.4-0.9,2.3-0.9s1.7,0.3,2.3,0.9c0.6,0.6,0.9,1.3,0.9,2.2c0,0.9-0.3,1.6-0.9,2.2s-1.4,0.9-2.3,0.9
		S59.1,39.4,58.4,38.8z"/>
</g>
<path class="st3" d="M85.2,50.1l-0.3-0.8H57.7l-9.2,12.3l-9-12.2c0,0-21.8,0-27,0c-0.1,0.2-0.2,0.5-0.3,0.7
	c2.5,2.4,9.6,10.5,9.6,10.5s0,9.7-0.1,15.7c0,1.8,0.5,2.8,2.4,3.2c7.6,1.8,15.1,3.8,22.6,5.8c1.2,0.3,2.5,0.3,3.7-0.1
	c3.6-0.9,14.5-3.7,14.5-3.7c2.7-0.7,5.5-1.4,8.2-2.1c1.6-0.4,2.4-1.2,2.3-3c-0.1-4.8,0-16,0-16L85.2,50.1z"/>
<path class="st4" d="M75.5,76.5c0.1,1.8-0.7,2.6-2.3,3c-2.7,0.7-5.5,1.4-8.2,2.1c0,0-0.4,0.1-1.2,0.3c-2.9,0.8-10.4,2.7-13.3,3.4
	c-1.3,0.3-2.6,0.3-3.8,0.1c-7.5-1.9-15-3.9-22.6-5.8c-1.8-0.4-2.4-1.4-2.4-3.2c0.1-6.1,0.1-15.7,0.1-15.7l26.9,2.2l0.6-0.1l26.3-2.2
	C75.5,60.6,75.4,71.8,75.5,76.5z"/>
<path class="st5" d="M75.5,76.5c0.1,1.8-0.7,2.6-2.3,3c-2.7,0.7-5.5,1.4-8.2,2.1c0,0-0.4,0.1-1.2,0.3L63,81.7l-13.8-19l26.3-2.1
	C75.5,60.6,75.4,71.8,75.5,76.5z"/>
<polygon class="st6" points="49.2,62.7 63.3,82.1 59,83.1 46.7,66.8 46.7,62.6 "/>
</svg>
