<?xml version="1.0" encoding="utf-8"?>
<!-- Generator: Adobe Illustrator 23.0.1, SVG Export Plug-In . SVG Version: 6.00 Build 0)  -->
<svg version="1.1" id="Layer_1" xmlns="http://www.w3.org/2000/svg" xmlns:xlink="http://www.w3.org/1999/xlink" x="0px" y="0px"
	 viewBox="0 0 100 100" style="enable-background:new 0 0 100 100;" xml:space="preserve">
<style type="text/css">
	.st0{fill:#FFFFFF;fill-opacity:0;}
	.st1{enable-background:new    ;}
	.st2{fill:#6A6B6A;}
	.st3{fill:#7F7F7F;}
	.st4{fill:#B4B4B5;}
	.st5{fill:#9D9E9E;}
	.st6{fill:#CCCCCC;}
</style>
<rect x="9.5" y="9.5" class="st0" width="81" height="81"/>
<g class="st1">
	<path class="st2" d="M41.5,35c-2.1,1.7-5.1,2.7-9,2.9v2.5h-4.9v-2.5c-3.9-0.2-6.9-1.2-9-3c-2.1-1.7-3.1-4.1-3.1-7.1
		c0-3,1-5.4,3.1-7.1c2.1-1.7,5.1-2.7,9-3v-2.4h4.9v2.3c3.9,0.2,6.9,1.2,9,3c2.1,1.8,3.1,4.1,3.1,7.2C44.6,30.8,43.6,33.2,41.5,35z
		 M27.6,33.7V21.9c-2.4,0.2-4.1,0.8-5.2,1.8c-1.1,1-1.7,2.3-1.7,4.1C20.7,31.3,23,33.2,27.6,33.7z M37.8,31.9c1.1-1,1.7-2.4,1.7-4.2
		c0-3.5-2.3-5.5-6.9-5.9v11.8C34.9,33.5,36.6,32.9,37.8,31.9z"/>
	<path class="st2" d="M68.8,30.1h-3.4v9.3h-5.2v-9.3h-3.4l-5.2,9.3h-6.2l6.9-12.1l-6.5-11h5.6l5.2,9.3h3.5v-9.3h5.2v9.3h3.4l5.2-9.3
		h5.6l-6.5,11l6.9,12.1h-6.2L68.8,30.1z"/>
</g>
<path class="st3" d="M85.2,50.1l-0.3-0.8H57.7l-9.2,12.3l-9-12.2c0,0-21.8,0-27,0c-0.1,0.2-0.2,0.5-0.3,0.7
	c2.5,2.4,9.6,10.5,9.6,10.5s0,9.7-0.1,15.7c0,1.8,0.5,2.8,2.4,3.2c7.6,1.8,15.1,3.8,22.6,5.8c1.2,0.3,2.5,0.3,3.7-0.1
	c3.6-0.9,14.5-3.7,14.5-3.7c2.7-0.7,5.5-1.4,8.2-2.1c1.6-0.4,2.4-1.2,2.3-3c-0.1-4.8,0-16,0-16L85.2,50.1z"/>
<path class="st4" d="M75.5,76.5c0.1,1.8-0.7,2.6-2.3,3c-2.7,0.7-5.5,1.4-8.2,2.1c0,0-0.4,0.1-1.2,0.3c-2.9,0.8-10.4,2.7-13.3,3.4
	c-1.3,0.3-2.6,0.3-3.8,0.1c-7.5-1.9-15-3.9-22.6-5.8c-1.8-0.4-2.4-1.4-2.4-3.2c0.1-6.1,0.1-15.7,0.1-15.7l26.9,2.2l0.6-0.1l26.3-2.2
	C75.5,60.6,75.4,71.8,75.5,76.5z"/>
<path class="st5" d="M75.5,76.5c0.1,1.8-0.7,2.6-2.3,3c-2.7,0.7-5.5,1.4-8.2,2.1c0,0-0.4,0.1-1.2,0.3L63,81.7l-13.8-19l26.3-2.1
	C75.5,60.6,75.4,71.8,75.5,76.5z"/>
<polygon class="st6" points="49.2,62.7 63.3,82.1 59,83.1 46.7,66.8 46.7,62.6 "/>
</svg>
