<?xml version="1.0" encoding="utf-8"?>
<!-- Generator: Adobe Illustrator 22.0.1, SVG Export Plug-In . SVG Version: 6.00 Build 0)  -->
<svg version="1.1" id="Layer_1" xmlns="http://www.w3.org/2000/svg" xmlns:xlink="http://www.w3.org/1999/xlink" x="0px" y="0px"
	 viewBox="0 0 100 100" style="enable-background:new 0 0 100 100;" xml:space="preserve">
<style type="text/css">
	.st0{enable-background:new    ;}
	.st1{fill:#6A6B6A;}
	.st2{fill:none;stroke:#7F7F7F;stroke-width:7;stroke-linecap:round;stroke-miterlimit:10;}
	.st3{fill:#9D9E9E;}
</style>
<g class="st0">
	<path class="st1" d="M47.5,40.5l-1.9,3.7c-2.1-1.2-4.1-1.8-5.6-1.8c-1,0-1.7,0.4-1.7,1.2c0,2.4,9.4,1.3,9.3,7.5
		c0,3.7-3.2,5.7-7.5,5.7c-3,0-5.8-0.9-8-2.5l1.8-3.6c2,1.4,4.3,2.2,6.3,2.2c1.1,0,1.9-0.4,1.9-1.2c0-2.6-9.2-1.3-9.2-7.5
		c0-3.7,3.1-5.6,7.2-5.6C42.7,38.5,45.3,39.2,47.5,40.5z M38.2,31.4l2,3l2-3h4.5l-4,5.4h-5l-4-5.4H38.2z"/>
	<path class="st1" d="M66.5,44.9v11.6h-5.6v-2c-1.2,1.5-3,2.3-5.4,2.3c-3.8,0-6.1-2.3-6.1-5.6c0-3.4,2.4-5.3,6.8-5.4h4.7v-0.3
		c0-1.7-1.2-2.8-3.5-2.8c-1.5,0-3.4,0.5-5.3,1.5l-1.6-3.8c2.8-1.3,5.3-2,8.3-2C63.6,38.5,66.4,40.9,66.5,44.9z M60.9,50.5v-1.6h-3.6
		c-1.7,0-2.6,0.6-2.6,1.9c0,1.3,0.9,2.1,2.5,2.1C59,53,60.5,52,60.9,50.5z M55.5,36.8l3.5-5.5l5.1,1.8l-4.3,3.7H55.5z"/>
</g>
<line class="st2" x1="25.2" y1="66.6" x2="8.7" y2="83.3"/>
<path class="st3" d="M49.9,18.1c12.3,0,22.8,8.4,25.8,19.7c0.6,2.2,0.9,4.6,0.9,7.1c0,5.7-1.7,11.1-4.8,15.3
	c-2.7,4-6.6,7.3-11.3,9.2c-2.4,1.1-5,1.7-7.8,2c-1.1,0.1-1.9,0.2-3,0.2c-4.6,0-8.8-1.2-12.6-3.2c-3-1.6-5.6-3.7-7.8-6.2
	c-4-4.7-6.4-10.8-6.4-17.4C23.1,30.1,35.1,18.1,49.9,18.1 M49.9,13.7c-17.3,0-31.3,14-31.3,31.3c0,7.5,2.6,14.6,7.5,20.3
	c2.5,2.9,5.6,5.4,9.1,7.3c4.5,2.4,9.6,3.7,14.7,3.7c1.2,0,2.3-0.1,3.5-0.2c3.2-0.3,6.2-1.2,9.1-2.4c5.3-2.3,9.8-6,13.1-10.7
	c3.7-5.3,5.7-11.5,5.7-17.9c0-2.7-0.3-5.5-1.1-8.2C76.3,23.2,63.9,13.7,49.9,13.7L49.9,13.7z"/>
<path class="st3" d="M23.3,60.6l-3,2.9c-0.4,0.4-0.4,1,0,1.4l7.2,7.1c0.4,0.4,1,0.4,1.4,0l2.9-3.1L23.3,60.6z"/>
</svg>
