<?xml version="1.0" encoding="utf-8"?>
<!-- Generator: Adobe Illustrator 21.0.0, SVG Export Plug-In . SVG Version: 6.00 Build 0)  -->
<svg version="1.1" id="Layer_1" xmlns="http://www.w3.org/2000/svg" xmlns:xlink="http://www.w3.org/1999/xlink" x="0px" y="0px"
	 viewBox="0 0 100 100" style="enable-background:new 0 0 100 100;" xml:space="preserve">
<style type="text/css">
	.st0{enable-background:new    ;}
	.st1{fill:#6A6B6A;}
	.st2{fill:#7F7F7F;}
	.st3{fill:#B4B4B5;}
	.st4{fill:#9D9E9E;}
	.st5{fill:#CCCCCC;}
</style>
<g>
	<g class="st0">
		<path class="st1" d="M49,40h-5.9v-3c-1.3,2.2-3.3,3.3-5.9,3.3c-4,0-6.6-2.7-6.6-7V21.7h5.9v9.9c0,2.2,1.2,3.5,3.1,3.5
			c2.2,0,3.6-1.9,3.6-4.4v-9H49V40z M34,16.5c0-1.6,1.1-2.7,2.7-2.7s2.7,1.1,2.7,2.7c0,1.5-1.1,2.6-2.7,2.6S34,18,34,16.5z
			 M40.5,16.5c0-1.6,1.1-2.7,2.7-2.7s2.7,1.1,2.7,2.7c0,1.5-1.1,2.6-2.7,2.6S40.5,18,40.5,16.5z"/>
		<path class="st1" d="M71.5,40h-5.9v-3c-1.3,2.2-3.3,3.3-5.9,3.3c-4,0-6.6-2.7-6.6-7V21.7H59v9.9c0,2.2,1.2,3.5,3.1,3.5
			c2.2,0,3.6-1.9,3.6-4.4v-9h5.9V40z M59.5,19.6l3.6-5.7l5.3,1.9l-4.4,3.8H59.5z"/>
	</g>
	<path class="st2" d="M86.5,50.7l-0.3-0.8H59l-9.2,12.3l-9-12.2c0,0-21.8,0-27,0c-0.1,0.2-0.2,0.5-0.3,0.7
		c2.5,2.4,9.6,10.5,9.6,10.5s0,9.7-0.1,15.7c0,1.8,0.5,2.8,2.4,3.2c7.6,1.8,15.1,3.8,22.6,5.8c1.2,0.3,2.5,0.3,3.7-0.1
		c3.6-0.9,14.5-3.7,14.5-3.7c2.7-0.7,5.5-1.4,8.2-2.1c1.6-0.4,2.4-1.2,2.3-3c-0.1-4.8,0-16,0-16L86.5,50.7z"/>
	<path class="st3" d="M76.8,77.1c0.1,1.8-0.7,2.6-2.3,3c-2.7,0.7-5.5,1.4-8.2,2.1c0,0-0.4,0.1-1.2,0.3c-2.9,0.8-10.4,2.7-13.3,3.4
		c-1.3,0.3-2.6,0.3-3.8,0.1c-7.5-1.9-15-3.9-22.6-5.8C23.6,79.8,23,78.8,23,77c0.1-6.1,0.1-15.7,0.1-15.7L50,63.5l0.6-0.1l26.3-2.2
		C76.8,61.2,76.7,72.4,76.8,77.1z"/>
	<path class="st4" d="M76.8,77.1c0.1,1.8-0.7,2.6-2.3,3c-2.7,0.7-5.5,1.4-8.2,2.1c0,0-0.4,0.1-1.2,0.3l-0.8-0.2l-13.8-19l26.3-2.1
		C76.8,61.2,76.7,72.4,76.8,77.1z"/>
	<polygon class="st5" points="50.5,63.3 64.6,82.7 60.3,83.7 48,67.4 48,63.2 	"/>
</g>
</svg>
